<?xml version="1.0" encoding="UTF-8"?>
<svg version="1.1" xmlns="http://www.w3.org/2000/svg" width="121" height="151">
<path d="M0 0 C39.93 0 79.86 0 121 0 C121 49.83 121 99.66 121 151 C81.07 151 41.14 151 0 151 C0 101.17 0 51.34 0 0 Z " fill="#824C35" transform="translate(0,0)"/>
<path d="M0 0 C3.3 0 6.6 0 10 0 C10 0.99 10 1.98 10 3 C9.01 3 8.02 3 7 3 C7 4.98 7 6.96 7 9 C6.01 9 5.02 9 4 9 C4.33 9.33 4.66 9.66 5 10 C5.66 10 6.32 10 7 10 C7 11.65 7 13.3 7 15 C6.34 15 5.68 15 5 15 C5 22.92 5 30.84 5 39 C5.66 39 6.32 39 7 39 C7 38.34 7 37.68 7 37 C8.32 37 9.64 37 11 37 C11 36.01 11 35.02 11 34 C11.99 34 12.98 34 14 34 C14 34.99 14 35.98 14 37 C15.98 37 17.96 37 20 37 C20 54.49 20 71.98 20 90 C17.03 90 14.06 90 11 90 C10.67 90.99 10.34 91.98 10 93 C9.34 93 8.68 93 8 93 C8 93.99 8 94.98 8 96 C8.99 96 9.98 96 11 96 C11 95.01 11 94.02 11 93 C13.97 93 16.94 93 20 93 C20 95.97 20 98.94 20 102 C17.03 102 14.06 102 11 102 C11 102.99 11 103.98 11 105 C12.98 105 14.96 105 17 105 C17.08075665 107.29109597 17.13907731 109.58299267 17.1875 111.875 C17.23970703 113.78925781 17.23970703 113.78925781 17.29296875 115.7421875 C17.19628906 116.81726563 17.09960938 117.89234375 17 119 C14 121 14 121 11 121 C11 121.99 11 122.98 11 124 C11.99 124 12.98 124 14 124 C14 124.99 14 125.98 14 127 C14.99 127 15.98 127 17 127 C17 126.01 17 125.02 17 124 C49.01 124 81.02 124 114 124 C114 124.99 114 125.98 114 127 C113.01 127 112.02 127 111 127 C111 131.29 111 135.58 111 140 C80.97 140 50.94 140 20 140 C20 140.66 20 141.32 20 142 C23.63 142 27.26 142 31 142 C27 145 27 145 24 145 C24 145.66 24 146.32 24 147 C42.81 147 61.62 147 81 147 C80.67 147.66 80.34 148.32 80 149 C79.15031143 148.99777939 78.30062286 148.99555878 77.42518616 148.99327087 C69.43463275 148.97326986 61.4440877 148.95802684 53.45351505 148.94818783 C49.34505715 148.94295954 45.23661986 148.93586287 41.12817383 148.92456055 C37.16653172 148.91372975 33.20490948 148.90772276 29.24325371 148.90512276 C27.72851689 148.90326886 26.21378121 148.8996489 24.69905281 148.89426994 C22.58458187 148.88705693 20.47019406 148.88600917 18.35571289 148.88647461 C17.14992081 148.884254 15.94412872 148.88203339 14.70179749 148.87974548 C12.08325599 148.69175539 12.08325599 148.69175539 11 150 C45.98 150 80.96 150 117 150 C117 150.33 117 150.66 117 151 C78.39 151 39.78 151 0 151 C0 101.17 0 51.34 0 0 Z " fill="#5E4441" transform="translate(0,0)"/>
<path d="M0 0 C27.72 0 55.44 0 84 0 C84 0.99 84 1.98 84 3 C60.24 3 36.48 3 12 3 C12 41.61 12 80.22 12 120 C43.02 120 74.04 120 106 120 C106 118.68 106 117.36 106 116 C106.99 116 107.98 116 109 116 C110.60346846 127.22427924 110 138.66176577 110 150 C73.7 149.67 37.4 149.34 0 149 C0.495 148.01 0.495 148.01 1 147 C23.44 147 45.88 147 69 147 C50.52 146.67 32.04 146.34 13 146 C13 145.34 13 144.68 13 144 C15.475 143.01 15.475 143.01 18 142 C15.03 141.67 12.06 141.34 9 141 C9 140.34 9 139.68 9 139 C39.03 139 69.06 139 100 139 C100 134.71 100 130.42 100 126 C100.99 126 101.98 126 103 126 C103 125.01 103 124.02 103 123 C70.99 123 38.98 123 6 123 C6 123.99 6 124.98 6 126 C5.01 126 4.02 126 3 126 C3 125.01 3 124.02 3 123 C2.01 123 1.02 123 0 123 C0 122.01 0 121.02 0 120 C2.97 119.01 2.97 119.01 6 118 C6 113.38 6 108.76 6 104 C4.02 104 2.04 104 0 104 C0 103.01 0 102.02 0 101 C2.97 101 5.94 101 9 101 C9 98.03 9 95.06 9 92 C6.03 92 3.06 92 0 92 C0 92.99 0 93.98 0 95 C-0.99 95 -1.98 95 -3 95 C-3 94.01 -3 93.02 -3 92 C-2.01 91.01 -1.02 90.02 0 89 C2.97 89 5.94 89 9 89 C9 71.51 9 54.02 9 36 C7.02 36 5.04 36 3 36 C3 35.01 3 34.02 3 33 C4.98 33 6.96 33 9 33 C9 30.36 9 27.72 9 25 C5.04 25.33 1.08 25.66 -3 26 C-3 25.34 -3 24.68 -3 24 C-2.01 24 -1.02 24 0 24 C0 23.34 0 22.68 0 22 C2.97 22 5.94 22 9 22 C9 15.73 9 9.46 9 3 C7.02 3 5.04 3 3 3 C3 3.99 3 4.98 3 6 C1.02 6.66 -0.96 7.32 -3 8 C-3 6.35 -3 4.7 -3 3 C-2.01 3 -1.02 3 0 3 C0 2.01 0 1.02 0 0 Z " fill="#41211D" transform="translate(11,1)"/>
<path d="M0 0 C0 4.62 0 9.24 0 14 C-25.41 14 -50.82 14 -77 14 C-77 13.67 -77 13.34 -77 13 C-81.62 12.34 -86.24 11.68 -91 11 C-91 9.02 -91 7.04 -91 5 C-90.01 5 -89.02 5 -88 5 C-88 4.01 -88 3.02 -88 2 C-58.71006073 0.7346616 -29.31644759 0 0 0 Z " fill="#AC9176" transform="translate(111,125)"/>
<path d="M0 0 C0.99 0 1.98 0 3 0 C3 1.65 3 3.3 3 5 C3.99 5 4.98 5 6 5 C6 5.99 6 6.98 6 8 C7.32 8 8.64 8 10 8 C10 9.32 10 10.64 10 12 C10.66 12 11.32 12 12 12 C12 13.65 12 15.3 12 17 C11.34 17 10.68 17 10 17 C10 17.99 10 18.98 10 20 C8.68 20 7.36 20 6 20 C6 21.32 6 22.64 6 24 C5.01 24 4.02 24 3 24 C3 31.26 3 38.52 3 46 C5.31 46 7.62 46 10 46 C10 45.01 10 44.02 10 43 C11.65 43 13.3 43 15 43 C15 42.01 15 41.02 15 40 C17.31 40 19.62 40 22 40 C22 39.01 22 38.02 22 37 C23.98 37 25.96 37 28 37 C28 37.66 28 38.32 28 39 C27.01 39 26.02 39 25 39 C25 41.31 25 43.62 25 46 C23.68 46 22.36 46 21 46 C21 46.99 21 47.98 21 49 C16.05 49 11.1 49 6 49 C6 49.99 6 50.98 6 52 C5.01 52 4.02 52 3 52 C3 54.97 3 57.94 3 61 C2.01 61 1.02 61 0 61 C0 58.03 0 55.06 0 52 C-0.99 52 -1.98 52 -3 52 C-3 51.01 -3 50.02 -3 49 C-8.28 49 -13.56 49 -19 49 C-19 48.01 -19 47.02 -19 46 C-19.99 46 -20.98 46 -22 46 C-22 43.69 -22 41.38 -22 39 C-22.99 39 -23.98 39 -25 39 C-25 38.34 -25 37.68 -25 37 C-23.02 37 -21.04 37 -19 37 C-19 37.66 -19 38.32 -19 39 C-16.69 39 -14.38 39 -12 39 C-12 40.32 -12 41.64 -12 43 C-10.35 43 -8.7 43 -7 43 C-7 41.68 -7 40.36 -7 39 C-7.99 39 -8.98 39 -10 39 C-10 38.34 -10 37.68 -10 37 C-11.98 37 -13.96 37 -16 37 C-16 36.01 -16 35.02 -16 34 C-16.99 34 -17.98 34 -19 34 C-19 33.01 -19 32.02 -19 31 C-19.99 31 -20.98 31 -22 31 C-22 29.68 -22 28.36 -22 27 C-22.99 27 -23.98 27 -25 27 C-25 24.69 -25 22.38 -25 20 C-25.99 20 -26.98 20 -28 20 C-28 18.35 -28 16.7 -28 15 C-26.02 15 -24.04 15 -22 15 C-22 15.66 -22 16.32 -22 17 C-20.02 17 -18.04 17 -16 17 C-16 17.99 -16 18.98 -16 20 C-14.68 20 -13.36 20 -12 20 C-12 21.32 -12 22.64 -12 24 C-11.01 24 -10.02 24 -9 24 C-9 24.99 -9 25.98 -9 27 C-8.01 27 -7.02 27 -6 27 C-6 29.97 -6 32.94 -6 36 C-5.01 36 -4.02 36 -3 36 C-3 38.31 -3 40.62 -3 43 C-3.99 43 -4.98 43 -6 43 C-6 43.99 -6 44.98 -6 46 C-4.02 46 -2.04 46 0 46 C0 38.74 0 31.48 0 24 C-1.32 24 -2.64 24 -4 24 C-4 23.01 -4 22.02 -4 21 C-4.99 20.67 -5.98 20.34 -7 20 C-7 19.01 -7 18.02 -7 17 C-7.66 17 -8.32 17 -9 17 C-9 15.35 -9 13.7 -9 12 C-8.01 12 -7.02 12 -6 12 C-6 10.68 -6 9.36 -6 8 C-5.01 8 -4.02 8 -3 8 C-3 7.01 -3 6.02 -3 5 C-2.01 5 -1.02 5 0 5 C0 3.35 0 1.7 0 0 Z " fill="#DCA349" transform="translate(67,28)"/>
<path d="M0 0 C3.3 0 6.6 0 10 0 C10 0.99 10 1.98 10 3 C9.01 3 8.02 3 7 3 C7 4.98 7 6.96 7 9 C6.01 9 5.02 9 4 9 C4.33 9.33 4.66 9.66 5 10 C5.66 10 6.32 10 7 10 C7 11.65 7 13.3 7 15 C6.34 15 5.68 15 5 15 C5.01160156 16.19496094 5.02320313 17.38992187 5.03515625 18.62109375 C5.1405473 34.30130573 5.1405473 34.30130573 4 42 C5.32 42.33 6.64 42.66 8 43 C8 43.66 8 44.32 8 45 C7.01 45 6.02 45 5 45 C5 61.83 5 78.66 5 96 C5.66 96.33 6.32 96.66 7 97 C6.505 97.99 6.505 97.99 6 99 C5.77532169 100.53668865 5.59203195 102.07968054 5.4375 103.625 C5.35371094 104.44226563 5.26992187 105.25953125 5.18359375 106.1015625 C5.12300781 106.72804688 5.06242188 107.35453125 5 108 C5.66 108 6.32 108 7 108 C7.33 107.01 7.66 106.02 8 105 C8.66 105 9.32 105 10 105 C10.33 105.99 10.66 106.98 11 108 C10.01 108 9.02 108 8 108 C8 109.32 8 110.64 8 112 C7.01 112 6.02 112 5 112 C5.00523682 112.60884033 5.01047363 113.21768066 5.01586914 113.8449707 C5.18272378 136.17181175 5.18272378 136.17181175 4 145 C4.99 145 5.98 145 7 145 C7 145.99 7 146.98 7 148 C7.99 148 8.98 148 10 148 C10 148.99 10 149.98 10 151 C6.7 151 3.4 151 0 151 C0 101.17 0 51.34 0 0 Z " fill="#4B2821" transform="translate(0,0)"/>
<path d="M0 0 C35.31 0 70.62 0 107 0 C107 0.33 107 0.66 107 1 C72.02 1 37.04 1 1 1 C1 1.99 1 2.98 1 4 C0.01 4 -0.98 4 -2 4 C-2 5.65 -2 7.3 -2 9 C-1.01 8.34 -0.02 7.68 1 7 C1.99 7 2.98 7 4 7 C4 6.01 4 5.02 4 4 C5.98 4 7.96 4 10 4 C10 10.27 10 16.54 10 23 C7.03 23 4.06 23 1 23 C1 23.66 1 24.32 1 25 C0.01 25 -0.98 25 -2 25 C-2 25.66 -2 26.32 -2 27 C-1.01 26.67 -0.02 26.34 1 26 C2.56118428 25.93259135 4.1250252 25.91485544 5.6875 25.9375 C6.89986328 25.95103516 6.89986328 25.95103516 8.13671875 25.96484375 C8.75160156 25.97644531 9.36648437 25.98804687 10 26 C10 28.64 10 31.28 10 34 C7.03 34 4.06 34 1 34 C1 34.99 1 35.98 1 37 C-0.32 37 -1.64 37 -3 37 C-3 37.66 -3 38.32 -3 39 C-3.66 39 -4.32 39 -5 39 C-5 31.08 -5 23.16 -5 15 C-4.34 15 -3.68 15 -3 15 C-3 13.35 -3 11.7 -3 10 C-3.66 10 -4.32 10 -5 10 C-5 10.66 -5 11.32 -5 12 C-5.66 11.67 -6.32 11.34 -7 11 C-6.67 10.34 -6.34 9.68 -6 9 C-5.01 9 -4.02 9 -3 9 C-3 7.02 -3 5.04 -3 3 C-2.01 3 -1.02 3 0 3 C0 2.01 0 1.02 0 0 Z " fill="#AD9289" transform="translate(10,0)"/>
<path d="M0 0 C-0.16298584 0.55719727 -0.32597168 1.11439453 -0.49389648 1.68847656 C-1.0427175 4.19510339 -1.11329385 6.41980924 -1.09765625 8.984375 C-1.09282227 10.38623047 -1.09282227 10.38623047 -1.08789062 11.81640625 C-1.07951172 12.78449219 -1.07113281 13.75257812 -1.0625 14.75 C-1.05798828 15.73355469 -1.05347656 16.71710937 -1.04882812 17.73046875 C-1.03706483 20.15370791 -1.02062684 22.57682273 -1 25 C-1.99 25 -2.98 25 -4 25 C-4 25.99 -4 26.98 -4 28 C-4.61875 27.649375 -5.2375 27.29875 -5.875 26.9375 C-6.57625 26.628125 -7.2775 26.31875 -8 26 C-8.66 26.33 -9.32 26.66 -10 27 C-10.12375 26.360625 -10.2475 25.72125 -10.375 25.0625 C-10.58125 24.381875 -10.7875 23.70125 -11 23 C-11.66 22.67 -12.32 22.34 -13 22 C-13.33 21.01 -13.66 20.02 -14 19 C-14.99 19 -15.98 19 -17 19 C-17 18.34 -17 17.68 -17 17 C-17.99 17 -18.98 17 -20 17 C-20 16.34 -20 15.68 -20 15 C-20.99 15 -21.98 15 -23 15 C-23 13.35 -23 11.7 -23 10 C-25.97 9.505 -25.97 9.505 -29 9 C-29 7.35 -29 5.7 -29 4 C-28.01 4 -27.02 4 -26 4 C-26 3.01 -26 2.02 -26 1 C-22.41673516 0.83183879 -18.83337798 0.66573123 -15.25 0.5 C-14.23421875 0.45230469 -13.2184375 0.40460937 -12.171875 0.35546875 C-11.1921875 0.31035156 -10.2125 0.26523438 -9.203125 0.21875 C-8.30239258 0.17685547 -7.40166016 0.13496094 -6.47363281 0.09179688 C-4.31702276 0.01176476 -2.15809454 0 0 0 Z " fill="#854C1E" transform="translate(121,0)"/>
<path d="M0 0 C28.05 0 56.1 0 85 0 C85 1.98 85 3.96 85 6 C59.59 6 34.18 6 8 6 C8 5.01 8 4.02 8 3 C5.36 3 2.72 3 0 3 C0 2.01 0 1.02 0 0 Z " fill="#DCC3A3" transform="translate(23,130)"/>
<path d="M0 0 C0.33 0 0.66 0 1 0 C1 2.64 1 5.28 1 8 C1.99 8.33 2.98 8.66 4 9 C4 14.94 4 20.88 4 27 C-32.3 26.67 -68.6 26.34 -106 26 C-105.67 25.34 -105.34 24.68 -105 24 C-82.56 24 -60.12 24 -37 24 C-55.48 23.67 -73.96 23.34 -93 23 C-93 22.34 -93 21.68 -93 21 C-63.3 21 -33.6 21 -3 21 C-3 17.04 -3 13.08 -3 9 C-2.01 9 -1.02 9 0 9 C0 6.03 0 3.06 0 0 Z " fill="#5F352E" transform="translate(117,124)"/>
<path d="M0 0 C1.98 0 3.96 0 6 0 C6 17.49 6 34.98 6 53 C3.03 52.67 0.06 52.34 -3 52 C-3 35.5 -3 19 -3 2 C-2.01 2 -1.02 2 0 2 C0 1.34 0 0.68 0 0 Z " fill="#965A43" transform="translate(14,37)"/>
<path d="M0 0 C20.79 0 41.58 0 63 0 C63 0.99 63 1.98 63 3 C61.92671196 3.0154612 61.92671196 3.0154612 60.83174133 3.03123474 C54.0785117 3.12933675 47.32536542 3.23186888 40.57227802 3.33933926 C37.10070672 3.39443147 33.62912681 3.44782891 30.1574707 3.49731445 C26.16348453 3.55432045 22.1696482 3.61876738 18.17578125 3.68359375 C16.93290848 3.70030624 15.69003571 3.71701874 14.40950012 3.73423767 C13.24867416 3.75418289 12.08784821 3.77412811 10.8918457 3.79467773 C9.87258499 3.81022202 8.85332428 3.8257663 7.80317688 3.84178162 C4.61036654 3.95612017 4.61036654 3.95612017 0 5 C0 39.32 0 73.64 0 109 C0.66 109 1.32 109 2 109 C2 109.99 2 110.98 2 112 C3.65 112 5.3 112 7 112 C7 112.66 7 113.32 7 114 C3.625 114.1875 3.625 114.1875 0 114 C-2.10848784 110.83726824 -2.24881314 110.10931054 -2.24050903 106.50117493 C-2.24325836 105.57990814 -2.24600769 104.65864136 -2.24884033 103.7094574 C-2.24164978 102.70101273 -2.23445923 101.69256805 -2.22705078 100.65356445 C-2.22734283 99.58998718 -2.22763489 98.52640991 -2.22793579 97.43060303 C-2.22654022 93.90808002 -2.21096817 90.3857674 -2.1953125 86.86328125 C-2.19158318 84.42376318 -2.18873583 81.98424361 -2.18673706 79.54472351 C-2.17909423 73.11835609 -2.1594401 66.69207883 -2.1373291 60.26574707 C-2.1168847 53.71038024 -2.10773835 47.15499888 -2.09765625 40.59960938 C-2.07619488 27.73303442 -2.04243453 14.866522 -2 2 C-1.34 2 -0.68 2 0 2 C0 1.34 0 0.68 0 0 Z " fill="#9A5C43" transform="translate(26,4)"/>
<path d="M0 0 C32.01 0 64.02 0 97 0 C97 0.99 97 1.98 97 3 C96.01 3 95.02 3 94 3 C94 2.34 94 1.68 94 1 C93.34 1.33 92.68 1.66 92 2 C90.33643309 2.11913561 88.66832215 2.17716779 87.00073242 2.20532227 C85.95242249 2.22526245 84.90411255 2.24520264 83.82403564 2.26574707 C82.67940857 2.2824646 81.53478149 2.29918213 80.35546875 2.31640625 C79.16983337 2.33723267 77.984198 2.35805908 76.76263428 2.3795166 C72.90432175 2.44560623 69.04593951 2.50433557 65.1875 2.5625 C62.56778747 2.60525016 59.94807717 2.6481373 57.32836914 2.69116211 C40.21823805 2.96325436 23.11222887 3.15450686 6 3 C6 3.99 6 4.98 6 6 C5.01 6 4.02 6 3 6 C3 7.98 3 9.96 3 12 C7.95 12.33 12.9 12.66 18 13 C18 13.33 18 13.66 18 14 C43.08 14.33 68.16 14.66 94 15 C94 15.33 94 15.66 94 16 C62.98 16 31.96 16 0 16 C0 15.01 0 14.02 0 13 C-0.99 13 -1.98 13 -3 13 C-3 9.7 -3 6.4 -3 3 C-2.01 3 -1.02 3 0 3 C0 2.01 0 1.02 0 0 Z " fill="#8B705A" transform="translate(17,124)"/>
<path d="M0 0 C0.99 0 1.98 0 3 0 C3.91657981 5.38490641 4.11138159 10.54230189 4 16 C1.66666667 16 -0.66666667 16 -3 16 C-3 18.31 -3 20.62 -3 23 C-3.99 23 -4.98 23 -6 23 C-6 18.71 -6 14.42 -6 10 C-5.01 10 -4.02 10 -3 10 C-3 9.01 -3 8.02 -3 7 C-34.02 7 -65.04 7 -97 7 C-96.67 6.01 -96.34 5.02 -96 4 C-64.32 4 -32.64 4 0 4 C0 2.68 0 1.36 0 0 Z " fill="#381D17" transform="translate(117,117)"/>
<path d="M0 0 C0.33 0 0.66 0 1 0 C1 1.98 1 3.96 1 6 C1.66 6 2.32 6 3 6 C3 5.34 3 4.68 3 4 C4.32 4 5.64 4 7 4 C7 3.01 7 2.02 7 1 C7.99 1 8.98 1 10 1 C10 2.65 10 4.3 10 6 C9.01 6 8.02 6 7 6 C7 22.5 7 39 7 56 C7.99 56.33 8.98 56.66 10 57 C9.01 57 8.02 57 7 57 C6.67 57.99 6.34 58.98 6 60 C5.34 60 4.68 60 4 60 C4 61.98 4 63.96 4 66 C3.34 66 2.68 66 2 66 C1.00706191 63.02118573 0.87880215 61.08512761 0.88647461 57.9777832 C0.88655014 56.95695145 0.88662567 55.93611969 0.88670349 54.88435364 C0.89186478 53.78427475 0.89702606 52.68419586 0.90234375 51.55078125 C0.9037587 50.4230278 0.90517365 49.29527435 0.90663147 48.13334656 C0.9122353 44.52637088 0.92478847 40.91945696 0.9375 37.3125 C0.94251451 34.86914152 0.9470775 32.42578207 0.95117188 29.98242188 C0.96220597 23.98826013 0.97894785 17.99413448 1 12 C1.99 12 2.98 12 4 12 C3.67 11.34 3.34 10.68 3 10 C2.01 9.67 1.02 9.34 0 9 C0 6.03 0 3.06 0 0 Z " fill="#693A2B" transform="translate(4,33)"/>
<path d="M0 0 C2.97 0 5.94 0 9 0 C9 2.97 9 5.94 9 9 C6.03 9 3.06 9 0 9 C0 9.99 0 10.98 0 12 C1.98 12 3.96 12 6 12 C6.08075665 14.29109597 6.13907731 16.58299267 6.1875 18.875 C6.22230469 20.15117188 6.25710937 21.42734375 6.29296875 22.7421875 C6.19628906 23.81726563 6.09960938 24.89234375 6 26 C3 28 3 28 0 28 C0 28.99 0 29.98 0 31 C-0.99 31 -1.98 31 -3 31 C-3.33 35.95 -3.66 40.9 -4 46 C-4.66 46 -5.32 46 -6 46 C-6 47.98 -6 49.96 -6 52 C-6.33 52 -6.66 52 -7 52 C-7.85983439 47.89190234 -7.84736797 45.06441693 -7 41 C-6.8599637 39.23547604 -6.7559922 37.46780956 -6.68359375 35.69921875 C-6.64169922 34.72275391 -6.59980469 33.74628906 -6.55664062 32.74023438 C-6.51732422 31.73283203 -6.47800781 30.72542969 -6.4375 29.6875 C-6.37272461 28.14739258 -6.37272461 28.14739258 -6.30664062 26.57617188 C-6.20093175 24.05090431 -6.09883532 21.52554438 -6 19 C-5.01 19 -4.02 19 -3 19 C-3 17.68 -3 16.36 -3 15 C-2.34 14.67 -1.68 14.34 -1 14 C-1 13.34 -1 12.68 -1 12 C-1.45375 12.495 -1.9075 12.99 -2.375 13.5 C-4 15 -4 15 -6 15 C-6 12.03 -6 9.06 -6 6 C-5.01 6 -4.02 6 -3 6 C-3 5.01 -3 4.02 -3 3 C-2.01 3 -1.02 3 0 3 C0 2.01 0 1.02 0 0 Z " fill="#714030" transform="translate(11,93)"/>
<path d="M0 0 C0.66 0 1.32 0 2 0 C2 0.99 2 1.98 2 3 C3.32 3 4.64 3 6 3 C5.25 8.75 5.25 8.75 3 11 C3.66 11.33 4.32 11.66 5 12 C5 12.99 5 13.98 5 15 C4.01 15.495 4.01 15.495 3 16 C2.67 16.99 2.34 17.98 2 19 C1.34 19 0.68 19 0 19 C0 22.3 0 25.6 0 29 C-0.99 29 -1.98 29 -3 29 C-3 29.66 -3 30.32 -3 31 C-1.35 31 0.3 31 2 31 C2 30.34 2 29.68 2 29 C3.32 29 4.64 29 6 29 C6 28.01 6 27.02 6 26 C8.97 26 11.94 26 15 26 C15.33 24.68 15.66 23.36 16 22 C16.66 22.33 17.32 22.66 18 23 C18 23.99 18 24.98 18 26 C19.32 26 20.64 26 22 26 C22 28.97 22 31.94 22 35 C21.01 35 20.02 35 19 35 C19 33.02 19 31.04 19 29 C16.69 29 14.38 29 12 29 C12 29.99 12 30.98 12 32 C9.69 32 7.38 32 5 32 C5 32.99 5 33.98 5 35 C3.35 35 1.7 35 0 35 C0 35.99 0 36.98 0 38 C-2.31 38 -4.62 38 -7 38 C-7 30.74 -7 23.48 -7 16 C-6.01 16 -5.02 16 -4 16 C-4 14.68 -4 13.36 -4 12 C-2.68 12 -1.36 12 0 12 C0 11.01 0 10.02 0 9 C0.66 9 1.32 9 2 9 C2 7.35 2 5.7 2 4 C1.34 4 0.68 4 0 4 C0 2.68 0 1.36 0 0 Z " fill="#844C23" transform="translate(77,36)"/>
<path d="M0 0 C0.66 0 1.32 0 2 0 C2 0.99 2 1.98 2 3 C1.34 3 0.68 3 0 3 C0 4.98 0 6.96 0 9 C0.66 9 1.32 9 2 9 C2.33 9.99 2.66 10.98 3 12 C3.66 12.33 4.32 12.66 5 13 C5 13.99 5 14.98 5 16 C6.32 16 7.64 16 9 16 C9 23.26 9 30.52 9 38 C7.02 38 5.04 38 3 38 C3 37.01 3 36.02 3 35 C3.99 35 4.98 35 6 35 C6 32.69 6 30.38 6 28 C5.01 28 4.02 28 3 28 C3 25.03 3 22.06 3 19 C2.01 19 1.02 19 0 19 C0 18.01 0 17.02 0 16 C-0.99 16 -1.98 16 -3 16 C-3 14.68 -3 13.36 -3 12 C-4.32 12 -5.64 12 -7 12 C-7 11.01 -7 10.02 -7 9 C-8.98 9 -10.96 9 -13 9 C-13 8.34 -13 7.68 -13 7 C-15.31 7 -17.62 7 -20 7 C-20 8.65 -20 10.3 -20 12 C-20.66 12 -21.32 12 -22 12 C-22 9.36 -22 6.72 -22 4 C-18.04 4 -14.08 4 -10 4 C-10 4.99 -10 5.98 -10 7 C-9.34 7 -8.68 7 -8 7 C-7.67 6.01 -7.34 5.02 -7 4 C-6.01 4.33 -5.02 4.66 -4 5 C-4 4.01 -4 3.02 -4 2 C-2.68 2 -1.36 2 0 2 C0 1.34 0 0.68 0 0 Z " fill="#703B1D" transform="translate(58,36)"/>
<path d="M0 0 C3.3 0 6.6 0 10 0 C10 0.99 10 1.98 10 3 C9.01 3 8.02 3 7 3 C7 4.98 7 6.96 7 9 C6.01 9 5.02 9 4 9 C3.67 9.99 3.34 10.98 3 12 C2.34 12 1.68 12 1 12 C1 53.91 1 95.82 1 139 C1.99 139.33 2.98 139.66 4 140 C4 141.65 4 143.3 4 145 C4.99 145 5.98 145 7 145 C7 145.99 7 146.98 7 148 C7.99 148 8.98 148 10 148 C10 148.99 10 149.98 10 151 C6.7 151 3.4 151 0 151 C0 101.17 0 51.34 0 0 Z " fill="#000000" transform="translate(0,0)"/>
<path d="M0 0 C1.98 0 3.96 0 6 0 C6 1.65 6 3.3 6 5 C5.01 5 4.02 5 3 5 C3 7.31 3 9.62 3 12 C2.01 12 1.02 12 0 12 C0 14.31 0 16.62 0 19 C-2.97 19 -5.94 19 -9 19 C-9 19.99 -9 20.98 -9 22 C-10.32 22 -11.64 22 -13 22 C-13 22.66 -13 23.32 -13 24 C-14.65 24 -16.3 24 -18 24 C-18 23.34 -18 22.68 -18 22 C-17.01 22 -16.02 22 -15 22 C-15 18.7 -15 15.4 -15 12 C-14.34 12 -13.68 12 -13 12 C-13 11.01 -13 10.02 -13 9 C-11.68 9 -10.36 9 -9 9 C-9 7.68 -9 6.36 -9 5 C-7.02 5 -5.04 5 -3 5 C-3 4.01 -3 3.02 -3 2 C-2.01 2 -1.02 2 0 2 C0 1.34 0 0.68 0 0 Z " fill="#F3BA5A" transform="translate(92,43)"/>
<path d="M0 0 C0.99 0 1.98 0 3 0 C3 0.99 3 1.98 3 3 C3.99 3 4.98 3 6 3 C6 3.99 6 4.98 6 6 C11.28 6 16.56 6 22 6 C22 6.99 22 7.98 22 9 C22.99 9 23.98 9 25 9 C25 11.97 25 14.94 25 18 C25.99 18 26.98 18 28 18 C28 15.03 28 12.06 28 9 C28.99 9 29.98 9 31 9 C31 8.01 31 7.02 31 6 C35.95 6 40.9 6 46 6 C46 5.01 46 4.02 46 3 C47.32 3 48.64 3 50 3 C50 2.01 50 1.02 50 0 C50.99 0 51.98 0 53 0 C53 1.32 53 2.64 53 4 C52.01 4 51.02 4 50 4 C50 4.66 50 5.32 50 6 C49.01 6 48.02 6 47 6 C47 6.99 47 7.98 47 9 C43.04 9 39.08 9 35 9 C35 10.98 35 12.96 35 15 C34.01 15.33 33.02 15.66 32 16 C31.505 17.485 31.505 17.485 31 19 C28 21 28 21 25 21 C25 20.34 25 19.68 25 19 C24.01 19 23.02 19 22 19 C22 17.68 22 16.36 22 15 C21.01 15 20.02 15 19 15 C19 13.02 19 11.04 19 9 C14.71 9 10.42 9 6 9 C5.67 8.34 5.34 7.68 5 7 C1.97065509 6.34227572 1.97065509 6.34227572 -1 6 C-0.67 4.02 -0.34 2.04 0 0 Z " fill="#703817" transform="translate(42,71)"/>
<path d="M0 0 C0.99 0 1.98 0 3 0 C3 0.66 3 1.32 3 2 C2.34 2 1.68 2 1 2 C1.10724733 16.14280233 1.22007426 30.28555069 1.33933926 44.42825699 C1.3945527 50.99496018 1.44797029 57.56166784 1.49731445 64.12841797 C1.54498113 70.46320256 1.59732495 76.79793267 1.65294075 83.13265228 C1.67335382 85.55199582 1.69206864 87.97135429 1.70907402 90.39072418 C1.73314104 93.77388415 1.76319275 97.15694114 1.79467773 100.54003906 C1.8004332 101.54488846 1.80618866 102.54973785 1.81211853 103.58503723 C1.82190735 104.50767868 1.83169617 105.43032013 1.84178162 106.38092041 C1.84823417 107.18103672 1.85468672 107.98115303 1.8613348 108.80551529 C1.99904355 110.98486343 2.39995512 112.90484078 3 115 C4.25321045 114.96970703 5.5064209 114.93941406 6.79760742 114.90820312 C11.55585044 114.79386196 16.31416712 114.68286431 21.07250977 114.57275391 C23.11159295 114.52512895 25.15065663 114.47665929 27.18969727 114.42724609 C41.12948538 114.09018731 55.0561611 113.93475295 69 114 C69 114.66 69 115.32 69 116 C46.04238007 117.43485125 23.00241533 117 0 117 C0 78.39 0 39.78 0 0 Z " fill="#71412F" transform="translate(23,4)"/>
<path d="M0 0 C28.05 0 56.1 0 85 0 C85 0.66 85 1.32 85 2 C85.66 2 86.32 2 87 2 C87 3.32 87 4.64 87 6 C86.34 6 85.68 6 85 6 C85 5.01 85 4.02 85 3 C56.95 3 28.9 3 0 3 C0 2.01 0 1.02 0 0 Z " fill="#C8AF91" transform="translate(23,127)"/>
<path d="M0 0 C0.33 0 0.66 0 1 0 C1.07410115 5.78406969 1.12857885 11.56786371 1.16479492 17.35229492 C1.17989082 19.32044283 1.20036948 21.28855706 1.22631836 23.2565918 C1.26266649 26.08390612 1.27971814 28.9107761 1.29296875 31.73828125 C1.30845261 32.61962234 1.32393646 33.50096344 1.33988953 34.40901184 C1.34022942 35.6399482 1.34022942 35.6399482 1.34057617 36.89575195 C1.34723801 37.61745071 1.35389984 38.33914948 1.36076355 39.0827179 C0.88863565 41.59184713 0.02738513 42.48697587 -2 44 C-2.99 44 -3.98 44 -5 44 C-5 44.99 -5 45.98 -5 47 C-5.99 47 -6.98 47 -8 47 C-8 46.01 -8 45.02 -8 44 C-8.99 44 -9.98 44 -11 44 C-11 43.01 -11 42.02 -11 41 C-9.02 40.34 -7.04 39.68 -5 39 C-5 34.38 -5 29.76 -5 25 C-6.98 25 -8.96 25 -11 25 C-11 24.01 -11 23.02 -11 22 C-8.03 22 -5.06 22 -2 22 C-2 19.03 -2 16.06 -2 13 C-4.97 13 -7.94 13 -11 13 C-11 13.99 -11 14.98 -11 16 C-11.99 16 -12.98 16 -14 16 C-14 15.01 -14 14.02 -14 13 C-11.23547967 11.61773984 -8.9538637 11.90474613 -5.875 11.9375 C-2.966875 11.9684375 -2.966875 11.9684375 0 12 C0 8.04 0 4.08 0 0 Z " fill="#482418" transform="translate(22,80)"/>
<path d="M0 0 C0.99 0 1.98 0 3 0 C3 24.42 3 48.84 3 74 C2.01 74 1.02 74 0 74 C0 49.58 0 25.16 0 0 Z " fill="#45251D" transform="translate(117,25)"/>
<path d="M0 0 C23.76 0 47.52 0 72 0 C72 0.99 72 1.98 72 3 C48.24 3 24.48 3 0 3 C0 2.01 0 1.02 0 0 Z " fill="#F9E2C2" transform="translate(36,130)"/>
<path d="M0 0 C6.27 0 12.54 0 19 0 C19 5.94 19 11.88 19 18 C18.01 18 17.02 18 16 18 C16 17.01 16 16.02 16 15 C15.01 15 14.02 15 13 15 C13 14.01 13 13.02 13 12 C11.68 11.67 10.36 11.34 9 11 C9 10.01 9 9.02 9 8 C8.01 8 7.02 8 6 8 C6 7.01 6 6.02 6 5 C5.01 5 4.02 5 3 5 C3 4.34 3 3.68 3 3 C2.01 3 1.02 3 0 3 C0 2.01 0 1.02 0 0 Z " fill="#D8A841" transform="translate(98,4)"/>
<path d="M0 0 C1.98 0 3.96 0 6 0 C6 0.66 6 1.32 6 2 C7.98 2 9.96 2 12 2 C12 2.99 12 3.98 12 5 C13.32 5 14.64 5 16 5 C16 6.32 16 7.64 16 9 C16.99 9 17.98 9 19 9 C19 9.99 19 10.98 19 12 C19.66 12 20.32 12 21 12 C21 14.97 21 17.94 21 21 C20.34 21 19.68 21 19 21 C19 19.02 19 17.04 19 15 C18.01 15 17.02 15 16 15 C16 14.01 16 13.02 16 12 C15.01 12 14.02 12 13 12 C13 11.01 13 10.02 13 9 C11.68 9 10.36 9 9 9 C9 9.99 9 10.98 9 12 C9.99 12 10.98 12 12 12 C12 12.99 12 13.98 12 15 C10.02 15 8.04 15 6 15 C6 14.01 6 13.02 6 12 C5.01 12 4.02 12 3 12 C3 9.69 3 7.38 3 5 C2.01 5 1.02 5 0 5 C0 3.35 0 1.7 0 0 Z " fill="#ECB84B" transform="translate(39,43)"/>
<path d="M0 0 C0.33 0 0.66 0 1 0 C1 2.97 1 5.94 1 9 C1.66 9 2.32 9 3 9 C3.33 8.01 3.66 7.02 4 6 C4.66 6 5.32 6 6 6 C6.33 6.99 6.66 7.98 7 9 C6.01 9 5.02 9 4 9 C4 10.32 4 11.64 4 13 C3.01 13 2.02 13 1 13 C1.00523682 13.64026123 1.01047363 14.28052246 1.01586914 14.94018555 C1.03672429 17.85594695 1.04968729 20.77169262 1.0625 23.6875 C1.07087891 24.69490234 1.07925781 25.70230469 1.08789062 26.74023438 C1.09111328 27.71669922 1.09433594 28.69316406 1.09765625 29.69921875 C1.10289307 30.59471436 1.10812988 31.49020996 1.11352539 32.4128418 C0.99840198 35.03641759 0.58234285 37.44293053 0 40 C-0.99 40 -1.98 40 -3 40 C-3 27.46 -3 14.92 -3 2 C-2.01 2 -1.02 2 0 2 C0 1.34 0 0.68 0 0 Z " fill="#38221E" transform="translate(4,99)"/>
<path d="M0 0 C0.33 0 0.66 0 1 0 C1 1.65 1 3.3 1 5 C1.66 5 2.32 5 3 5 C3 20.51 3 36.02 3 52 C3.99 52.33 4.98 52.66 6 53 C5.67 53.66 5.34 54.32 5 55 C4.34 55 3.68 55 3 55 C3 55.66 3 56.32 3 57 C2.01 57 1.02 57 0 57 C0 38.19 0 19.38 0 0 Z " fill="#36201C" transform="translate(1,44)"/>
<path d="M0 0 C0.99 0 1.98 0 3 0 C3 5.28 3 10.56 3 16 C-2.94 16 -8.88 16 -15 16 C-15 14.68 -15 13.36 -15 12 C-13.02 12 -11.04 12 -9 12 C-9 11.01 -9 10.02 -9 9 C-8.01 9 -7.02 9 -6 9 C-6 8.01 -6 7.02 -6 6 C-5.01 6 -4.02 6 -3 6 C-3 5.01 -3 4.02 -3 3 C-2.01 3 -1.02 3 0 3 C0 2.01 0 1.02 0 0 Z " fill="#D8A544" transform="translate(114,102)"/>
<path d="M0 0 C0.99 0 1.98 0 3 0 C3 17.49 3 34.98 3 53 C2.01 53 1.02 53 0 53 C0 35.51 0 18.02 0 0 Z " fill="#6E3B2A" transform="translate(17,37)"/>
<path d="M0 0 C36.3 0 72.6 0 110 0 C110 0.99 110 1.98 110 3 C73.7 2.67 37.4 2.34 0 2 C0 1.34 0 0.68 0 0 Z " fill="#301C1B" transform="translate(11,148)"/>
<path d="M0 0 C0.99 0 1.98 0 3 0 C3 16.5 3 33 3 50 C2.01 50 1.02 50 0 50 C0 33.5 0 17 0 0 Z " fill="#814B38" transform="translate(11,39)"/>
<path d="M0 0 C1.32 0 2.64 0 4 0 C4 0.99 4 1.98 4 3 C4.99 3 5.98 3 7 3 C7 3.99 7 4.98 7 6 C7.99 6 8.98 6 10 6 C10 7.98 10 9.96 10 12 C10.66 12 11.32 12 12 12 C12 9.03 12 6.06 12 3 C12.33 3 12.66 3 13 3 C13 5.97 13 8.94 13 12 C13.99 12 14.98 12 16 12 C16 14.31 16 16.62 16 19 C15.01 19 14.02 19 13 19 C12.67 19.99 12.34 20.98 12 22 C12 19.69 12 17.38 12 15 C11.01 15 10.02 15 9 15 C9 14.34 9 13.68 9 13 C7.02 13 5.04 13 3 13 C3 12.01 3 11.02 3 10 C2.01 10 1.02 10 0 10 C0 9.01 0 8.02 0 7 C-0.99 6.67 -1.98 6.34 -3 6 C-1.02 6 0.96 6 3 6 C3 5.01 3 4.02 3 3 C2.01 3 1.02 3 0 3 C0 2.01 0 1.02 0 0 Z " fill="#E3AA4A" transform="translate(48,52)"/>
<path d="M0 0 C2.97 0 5.94 0 9 0 C9 2.97 9 5.94 9 9 C6.03 9 3.06 9 0 9 C0 9.99 0 10.98 0 12 C-0.99 12.33 -1.98 12.66 -3 13 C-3.33 13.66 -3.66 14.32 -4 15 C-4.66 15 -5.32 15 -6 15 C-6 12.03 -6 9.06 -6 6 C-5.01 6 -4.02 6 -3 6 C-3 5.01 -3 4.02 -3 3 C-2.01 3 -1.02 3 0 3 C0 2.01 0 1.02 0 0 Z " fill="#935B1D" transform="translate(11,93)"/>
<path d="M0 0 C1.98 0 3.96 0 6 0 C6 0.99 6 1.98 6 3 C5.34 3 4.68 3 4 3 C4 4.32 4 5.64 4 7 C9.94 7 15.88 7 22 7 C22 7.99 22 8.98 22 10 C8.47 10 -5.06 10 -19 10 C-19 9.67 -19 9.34 -19 9 C-13.72 9 -8.44 9 -3 9 C-2.67 7.35 -2.34 5.7 -2 4 C-0.9375 1.6875 -0.9375 1.6875 0 0 Z " fill="#7D4A22" transform="translate(95,111)"/>
<path d="M0 0 C1.98 0 3.96 0 6 0 C6 0.66 6 1.32 6 2 C5.01 2 4.02 2 3 2 C3 4.31 3 6.62 3 9 C1.68 9 0.36 9 -1 9 C-1 9.99 -1 10.98 -1 12 C-4.96 12 -8.92 12 -13 12 C-12.67 10.02 -12.34 8.04 -12 6 C-10.35 6 -8.7 6 -7 6 C-7 5.01 -7 4.02 -7 3 C-4.69 3 -2.38 3 0 3 C0 2.01 0 1.02 0 0 Z " fill="#DCA248" transform="translate(89,65)"/>
<path d="M0 0 C0.99 0 1.98 0 3 0 C3 1.98 3 3.96 3 6 C2.01 6 1.02 6 0 6 C0 11.61 0 17.22 0 23 C-0.99 23 -1.98 23 -3 23 C-3 22.01 -3 21.02 -3 20 C-4.32 20 -5.64 20 -7 20 C-7 19.01 -7 18.02 -7 17 C-7.66 17 -8.32 17 -9 17 C-9 15.35 -9 13.7 -9 12 C-8.01 12 -7.02 12 -6 12 C-6 10.68 -6 9.36 -6 8 C-5.01 8 -4.02 8 -3 8 C-3 7.01 -3 6.02 -3 5 C-2.01 5 -1.02 5 0 5 C0 3.35 0 1.7 0 0 Z " fill="#E6B24E" transform="translate(67,28)"/>
<path d="M0 0 C-0.16298584 0.55719727 -0.32597168 1.11439453 -0.49389648 1.68847656 C-1.0427175 4.19510339 -1.11329385 6.41980924 -1.09765625 8.984375 C-1.09282227 10.38623047 -1.09282227 10.38623047 -1.08789062 11.81640625 C-1.07951172 12.78449219 -1.07113281 13.75257812 -1.0625 14.75 C-1.05798828 15.73355469 -1.05347656 16.71710937 -1.04882812 17.73046875 C-1.03706483 20.15370791 -1.02062684 22.57682273 -1 25 C-2.92536938 23.39441516 -3.91074167 22.52230522 -4.34057617 20.00708008 C-4.32486572 19.26868896 -4.30915527 18.53029785 -4.29296875 17.76953125 C-4.28330078 16.96708984 -4.27363281 16.16464844 -4.26367188 15.33789062 C-4.23853516 14.50451172 -4.21339844 13.67113281 -4.1875 12.8125 C-4.17396484 11.96751953 -4.16042969 11.12253906 -4.14648438 10.25195312 C-4.11115799 8.16769616 -4.05735139 6.08376723 -4 4 C-4.99966797 4.01740234 -4.99966797 4.01740234 -6.01953125 4.03515625 C-12.74230945 4.10097366 -19.317439 3.72383639 -26 3 C-26 2.34 -26 1.68 -26 1 C-22.41673516 0.83183879 -18.83337798 0.66573123 -15.25 0.5 C-14.23421875 0.45230469 -13.2184375 0.40460937 -12.171875 0.35546875 C-11.1921875 0.31035156 -10.2125 0.26523438 -9.203125 0.21875 C-8.30239258 0.17685547 -7.40166016 0.13496094 -6.47363281 0.09179688 C-4.31702276 0.01176476 -2.15809454 0 0 0 Z " fill="#5E3D20" transform="translate(121,0)"/>
<path d="M0 0 C0.79921875 0.00902344 1.5984375 0.01804687 2.421875 0.02734375 C3.02515625 0.03894531 3.6284375 0.05054687 4.25 0.0625 C4.25 2.7025 4.25 5.3425 4.25 8.0625 C1.28 8.0625 -1.69 8.0625 -4.75 8.0625 C-4.75 9.0525 -4.75 10.0425 -4.75 11.0625 C-6.07 11.0625 -7.39 11.0625 -8.75 11.0625 C-8.75 11.7225 -8.75 12.3825 -8.75 13.0625 C-9.41 13.0625 -10.07 13.0625 -10.75 13.0625 C-10.75 11.0825 -10.75 9.1025 -10.75 7.0625 C-10.09 7.0625 -9.43 7.0625 -8.75 7.0625 C-8.75 5.0825 -8.75 3.1025 -8.75 1.0625 C-5.75519083 0.1901588 -3.11424089 -0.04579766 0 0 Z " fill="#9F6227" transform="translate(15.75,25.9375)"/>
<path d="M0 0 C0.99 0 1.98 0 3 0 C3 0.99 3 1.98 3 3 C5.64 3 8.28 3 11 3 C11 3.99 11 4.98 11 6 C36.41 6 61.82 6 88 6 C88 6.33 88 6.66 88 7 C77.5598113 7.02320147 67.11962877 7.04095486 56.67941952 7.05181217 C51.83127365 7.05702393 46.98314546 7.06409053 42.13500977 7.07543945 C37.4536325 7.08632905 32.77227221 7.0922897 28.09088326 7.09487724 C26.3075795 7.09672055 24.52427665 7.10032005 22.74098015 7.10573006 C20.23737477 7.11302111 17.73383895 7.11398755 15.23022461 7.11352539 C14.13186028 7.1189183 14.13186028 7.1189183 13.01130676 7.12442017 C8.56149382 7.11556995 4.37624363 6.72248894 0 6 C0 4.02 0 2.04 0 0 Z " fill="#C4AA8B" transform="translate(20,130)"/>
<path d="M0 0 C0.66 0 1.32 0 2 0 C2 0.99 2 1.98 2 3 C1.34 3 0.68 3 0 3 C0 4.98 0 6.96 0 9 C0.66 9 1.32 9 2 9 C2 9.66 2 10.32 2 11 C0.1875 11.625 0.1875 11.625 -2 12 C-2.99 11.34 -3.98 10.68 -5 10 C-5.66 10.66 -6.32 11.32 -7 12 C-7 11.01 -7 10.02 -7 9 C-8.98 9 -10.96 9 -13 9 C-13 8.34 -13 7.68 -13 7 C-15.31 7 -17.62 7 -20 7 C-20 8.65 -20 10.3 -20 12 C-20.66 12 -21.32 12 -22 12 C-22 9.36 -22 6.72 -22 4 C-18.04 4 -14.08 4 -10 4 C-10 4.99 -10 5.98 -10 7 C-9.34 7 -8.68 7 -8 7 C-7.67 6.01 -7.34 5.02 -7 4 C-6.01 4.33 -5.02 4.66 -4 5 C-4 4.01 -4 3.02 -4 2 C-2.68 2 -1.36 2 0 2 C0 1.34 0 0.68 0 0 Z " fill="#7B4428" transform="translate(58,36)"/>
<path d="M0 0 C0.99 0 1.98 0 3 0 C3 0.66 3 1.32 3 2 C2.34 2 1.68 2 1 2 C1.10720123 16.16007341 1.22002044 30.32009246 1.33933926 44.48006916 C1.39457498 51.05464801 1.4479961 57.62923131 1.49731445 64.20385742 C1.54494831 70.5451216 1.59729088 76.88633081 1.65294075 83.22752953 C1.67336872 85.65049056 1.69208106 88.07346668 1.70907402 90.49645424 C1.73310812 93.88221324 1.76316424 97.26786798 1.79467773 100.65356445 C1.8004332 101.66200912 1.80618866 102.6704538 1.81211853 103.7094574 C1.82190735 104.63072418 1.83169617 105.55199097 1.84178162 106.50117493 C1.84823417 107.30221303 1.85468672 108.10325113 1.8613348 108.92856312 C1.92578386 111.19761339 1.92578386 111.19761339 3 114 C2.01 113.67 1.02 113.34 0 113 C0 75.71 0 38.42 0 0 Z " fill="#7B4C3D" transform="translate(23,4)"/>
<path d="M0 0 C0.66 0 1.32 0 2 0 C2 1.98 2 3.96 2 6 C3.32 6 4.64 6 6 6 C6 7.32 6 8.64 6 10 C6.99 10 7.98 10 9 10 C9 10.99 9 11.98 9 13 C9.99 13 10.98 13 12 13 C12 13.99 12 14.98 12 16 C13.98 16 15.96 16 18 16 C18 16.66 18 17.32 18 18 C18.99 18 19.98 18 21 18 C21 19.32 21 20.64 21 22 C19.35 22 17.7 22 16 22 C16 20.68 16 19.36 16 18 C13.69 18 11.38 18 9 18 C9 17.01 9 16.02 9 15 C6.03 15 3.06 15 0 15 C0 14.34 0 13.68 0 13 C0.99 13 1.98 13 3 13 C3 12.01 3 11.02 3 10 C2.01 9.67 1.02 9.34 0 9 C0 6.03 0 3.06 0 0 Z " fill="#804A1B" transform="translate(39,49)"/>
<path d="M0 0 C0.99 0 1.98 0 3 0 C3 12.54 3 25.08 3 38 C2.01 38 1.02 38 0 38 C0 36.68 0 35.36 0 34 C0.66 34 1.32 34 2 34 C2 33.01 2 32.02 2 31 C1.34 31 0.68 31 0 31 C0 20.77 0 10.54 0 0 Z " fill="#965A43" transform="translate(114,30)"/>
<path d="M0 0 C32.01 0 64.02 0 97 0 C97 0.99 97 1.98 97 3 C96.01 3 95.02 3 94 3 C94 2.34 94 1.68 94 1 C62.98 1 31.96 1 0 1 C0 0.67 0 0.34 0 0 Z " fill="#826757" transform="translate(17,124)"/>
<path d="M0 0 C0.99 0 1.98 0 3 0 C3 4.95 3 9.9 3 15 C-10.2 15 -23.4 15 -37 15 C-37 14.67 -37 14.34 -37 14 C-25.78 14 -14.56 14 -3 14 C-3 13.34 -3 12.68 -3 12 C-2.34 12 -1.68 12 -1 12 C-1.01160156 11.21753906 -1.02320313 10.43507812 -1.03515625 9.62890625 C-1.04417969 8.61699219 -1.05320313 7.60507813 -1.0625 6.5625 C-1.07410156 5.55316406 -1.08570313 4.54382813 -1.09765625 3.50390625 C-1 1 -1 1 0 0 Z " fill="#5E423D" transform="translate(118,133)"/>
<path d="M0 0 C0.99 0.33 1.98 0.66 3 1 C3 1.99 3 2.98 3 4 C4.32 4 5.64 4 7 4 C7 6.97 7 9.94 7 13 C6.01 13 5.02 13 4 13 C4 11.02 4 9.04 4 7 C1.69 7 -0.62 7 -3 7 C-3 7.66 -3 8.32 -3 9 C-5.97 9 -8.94 9 -12 9 C-12 8.34 -12 7.68 -12 7 C-11.01 7 -10.02 7 -9 7 C-9 6.01 -9 5.02 -9 4 C-6.03 4 -3.06 4 0 4 C0 2.68 0 1.36 0 0 Z " fill="#713C1A" transform="translate(92,58)"/>
<path d="M0 0 C1.98 0 3.96 0 6 0 C6 0.66 6 1.32 6 2 C8.31 2 10.62 2 13 2 C13 4.31 13 6.62 13 9 C11.02 9 9.04 9 7 9 C6.67 9.99 6.34 10.98 6 12 C6 11.01 6 10.02 6 9 C5.01 9 4.02 9 3 9 C3 6.69 3 4.38 3 2 C2.01 2 1.02 2 0 2 C0 1.34 0 0.68 0 0 Z " fill="#C48A36" transform="translate(42,65)"/>
<path d="M0 0 C0.99 0 1.98 0 3 0 C3 5.94 3 11.88 3 18 C2.01 18 1.02 18 0 18 C0 17.01 0 16.02 0 15 C-0.99 15 -1.98 15 -3 15 C-3 13.68 -3 12.36 -3 11 C-2.01 11 -1.02 11 0 11 C0 10.01 0 9.02 0 8 C-0.99 8 -1.98 8 -3 8 C-3.33 6.35 -3.66 4.7 -4 3 C-2.68 3.33 -1.36 3.66 0 4 C0 2.68 0 1.36 0 0 Z " fill="#E8B54C" transform="translate(114,4)"/>
<path d="M0 0 C0.99 0 1.98 0 3 0 C3 1.65 3 3.3 3 5 C2.01 5 1.02 5 0 5 C0 6.32 0 7.64 0 9 C-0.99 9 -1.98 9 -3 9 C-3 10.32 -3 11.64 -3 13 C-2.34 13 -1.68 13 -1 13 C-1 15 -1 15 -2.1875 16.625 C-4.55560662 18.42149467 -6.09897251 18.23521845 -9 18 C-9 17.34 -9 16.68 -9 16 C-8.01 16 -7.02 16 -6 16 C-6 12.7 -6 9.4 -6 6 C-5.34 6 -4.68 6 -4 6 C-4 5.01 -4 4.02 -4 3 C-2.68 3 -1.36 3 0 3 C0 2.01 0 1.02 0 0 Z " fill="#EFBE5D" transform="translate(83,49)"/>
<path d="M0 0 C1.65 0 3.3 0 5 0 C5 0.99 5 1.98 5 3 C6.32 3 7.64 3 9 3 C9 3.99 9 4.98 9 6 C9.99 6.33 10.98 6.66 12 7 C6.06 7 0.12 7 -6 7 C-6 5.68 -6 4.36 -6 3 C-4.02 3 -2.04 3 0 3 C0 2.01 0 1.02 0 0 Z " fill="#C88F36" transform="translate(105,111)"/>
<path d="M0 0 C0.33 0 0.66 0 1 0 C1 3.3 1 6.6 1 10 C2.32 10.33 3.64 10.66 5 11 C5.33 11.99 5.66 12.98 6 14 C5.67 14.66 5.34 15.32 5 16 C7.64 16 10.28 16 13 16 C13 16.66 13 17.32 13 18 C9.04 18 5.08 18 1 18 C1 17.34 1 16.68 1 16 C0.01 16 -0.98 16 -2 16 C-2 14.02 -2 12.04 -2 10 C-1.34 10 -0.68 10 0 10 C-0.33 9.01 -0.66 8.02 -1 7 C-0.72230092 4.6593935 -0.39460023 2.32375692 0 0 Z " fill="#543029" transform="translate(7,129)"/>
<path d="M0 0 C0 4.62 0 9.24 0 14 C-0.33 14 -0.66 14 -1 14 C-1 10.7 -1 7.4 -1 4 C-1.66 4 -2.32 4 -3 4 C-3 3.34 -3 2.68 -3 2 C-21.48 2 -39.96 2 -59 2 C-59 1.67 -59 1.34 -59 1 C-51.60266794 0.86941006 -44.20533258 0.73900839 -36.80799294 0.60884857 C-33.37329573 0.54840744 -29.93859969 0.48790091 -26.50390625 0.42724609 C-22.55729506 0.35755394 -18.61067894 0.2881441 -14.6640625 0.21875 C-13.42757965 0.19687622 -12.1910968 0.17500244 -10.91714478 0.15246582 C-9.77611298 0.13244507 -8.63508118 0.11242432 -7.45947266 0.09179688 C-5.94723618 0.06514954 -5.94723618 0.06514954 -4.40444946 0.03796387 C-2.93642808 0.01478527 -1.46820436 0 0 0 Z " fill="#A38970" transform="translate(111,125)"/>
<path d="M0 0 C0.99 0 1.98 0 3 0 C3 8.58 3 17.16 3 26 C2.01 25.67 1.02 25.34 0 25 C0 16.75 0 8.5 0 0 Z " fill="#935842" transform="translate(114,70)"/>
<path d="M0 0 C0.99 0 1.98 0 3 0 C3.33 0.99 3.66 1.98 4 3 C4.99 3.33 5.98 3.66 7 4 C7 4.99 7 5.98 7 7 C7.99 7 8.98 7 10 7 C10 7.99 10 8.98 10 10 C11.65 10.33 13.3 10.66 15 11 C15 11.66 15 12.32 15 13 C14.34 13 13.68 13 13 13 C13 13.99 13 14.98 13 16 C12.38125 15.649375 11.7625 15.29875 11.125 14.9375 C10.42375 14.628125 9.7225 14.31875 9 14 C8.01 14.495 8.01 14.495 7 15 C6.87625 14.360625 6.7525 13.72125 6.625 13.0625 C6.41875 12.381875 6.2125 11.70125 6 11 C5.34 10.67 4.68 10.34 4 10 C3.375 6.9375 3.375 6.9375 3 4 C2.01 4 1.02 4 0 4 C0 2.68 0 1.36 0 0 Z " fill="#7B4A1E" transform="translate(104,12)"/>
<path d="M0 0 C0.33 0 0.66 0 1 0 C1 2.97 1 5.94 1 9 C1.66 9 2.32 9 3 9 C3.33 8.01 3.66 7.02 4 6 C4.66 6 5.32 6 6 6 C6.33 6.99 6.66 7.98 7 9 C6.01 9 5.02 9 4 9 C4 10.32 4 11.64 4 13 C3.01 13 2.02 13 1 13 C1 20.26 1 27.52 1 35 C0.67 35 0.34 35 0 35 C-0.0289337 31.20834926 -0.04677601 27.41672673 -0.0625 23.625 C-0.07087891 22.54476562 -0.07925781 21.46453125 -0.08789062 20.3515625 C-0.09111328 19.3203125 -0.09433594 18.2890625 -0.09765625 17.2265625 C-0.10289307 16.27346191 -0.10812988 15.32036133 -0.11352539 14.33837891 C0 12 0 12 1 10 C-0.32 9.67 -1.64 9.34 -3 9 C-3 6.69 -3 4.38 -3 2 C-2.01 2 -1.02 2 0 2 C0 1.34 0 0.68 0 0 Z " fill="#553027" transform="translate(4,99)"/>
<path d="M0 0 C0.66 0 1.32 0 2 0 C2 0.99 2 1.98 2 3 C3.32 3 4.64 3 6 3 C5.25 8.75 5.25 8.75 3 11 C3.66 11.33 4.32 11.66 5 12 C5 12.99 5 13.98 5 15 C4.01 15.495 4.01 15.495 3 16 C2.67 16.99 2.34 17.98 2 19 C1.34 19 0.68 19 0 19 C0 18.01 0 17.02 0 16 C-0.99 16 -1.98 16 -3 16 C-3 14.68 -3 13.36 -3 12 C-2.01 12 -1.02 12 0 12 C0 11.01 0 10.02 0 9 C0.66 9 1.32 9 2 9 C2 7.35 2 5.7 2 4 C1.34 4 0.68 4 0 4 C0 2.68 0 1.36 0 0 Z " fill="#773F19" transform="translate(77,36)"/>
<path d="M0 0 C0.99 0 1.98 0 3 0 C3 4.95 3 9.9 3 15 C3.99 15.33 4.98 15.66 6 16 C5.01 16 4.02 16 3 16 C3 17.32 3 18.64 3 20 C2.01 20 1.02 20 0 20 C0 18.68 0 17.36 0 16 C-1.32 16 -2.64 16 -4 16 C-4 15.01 -4 14.02 -4 13 C-4.66 12.67 -5.32 12.34 -6 12 C-5.01 12 -4.02 12 -3 12 C-3 12.99 -3 13.98 -3 15 C-2.01 15 -1.02 15 0 15 C0 10.05 0 5.1 0 0 Z " fill="#CA8D36" transform="translate(67,36)"/>
<path d="M0 0 C0.99 0 1.98 0 3 0 C3.08075665 2.29109597 3.13907731 4.58299267 3.1875 6.875 C3.22230469 8.15117188 3.25710937 9.42734375 3.29296875 10.7421875 C3.19628906 11.81726563 3.09960938 12.89234375 3 14 C0 16 0 16 -3 16 C-3 16.99 -3 17.98 -3 19 C-3.99 19 -4.98 19 -6 19 C-6 17.68 -6 16.36 -6 15 C-5.34 14.67 -4.68 14.34 -4 14 C-3.34 13.01 -2.68 12.02 -2 11 C-1.34 11.33 -0.68 11.66 0 12 C0 8.04 0 4.08 0 0 Z " fill="#955D49" transform="translate(14,105)"/>
<path d="M0 0 C0.54245361 0.13712402 1.08490723 0.27424805 1.64379883 0.41552734 C11.87217231 2.6463373 22.26921288 2.45737148 32.6875 2.625 C34.66082319 2.66325086 36.63413096 2.70230653 38.60742188 2.7421875 C43.40482026 2.83741062 48.20229648 2.9217195 53 3 C53 3.33 53 3.66 53 4 C35.51 4 18.02 4 0 4 C0 2.68 0 1.36 0 0 Z " fill="#5E352B" transform="translate(23,117)"/>
<path d="M0 0 C2.31 0 4.62 0 7 0 C7 0.99 7 1.98 7 3 C7.99 3 8.98 3 10 3 C10 3.99 10 4.98 10 6 C10.66 6 11.32 6 12 6 C12 8.97 12 11.94 12 15 C11.34 15 10.68 15 10 15 C10 13.02 10 11.04 10 9 C9.01 9 8.02 9 7 9 C7 8.01 7 7.02 7 6 C6.01 6 5.02 6 4 6 C4 5.01 4 4.02 4 3 C2.68 3 1.36 3 0 3 C0 2.01 0 1.02 0 0 Z " fill="#EFBA59" transform="translate(48,49)"/>
<path d="M0 0 C1.98 0 3.96 0 6 0 C6 5.94 6 11.88 6 18 C5.01 18 4.02 18 3 18 C3 13.05 3 8.1 3 3 C2.01 3 1.02 3 0 3 C0 2.01 0 1.02 0 0 Z " fill="#875822" transform="translate(114,99)"/>
<path d="M0 0 C0.33 0 0.66 0 1 0 C1 2.97 1 5.94 1 9 C1.99 9 2.98 9 4 9 C4 11.31 4 13.62 4 16 C3.01 16 2.02 16 1 16 C0.67 16.99 0.34 17.98 0 19 C0 16.69 0 14.38 0 12 C-0.99 12 -1.98 12 -3 12 C-3 11.34 -3 10.68 -3 10 C-4.98 10 -6.96 10 -9 10 C-9 9.01 -9 8.02 -9 7 C-7.68 7 -6.36 7 -5 7 C-5 7.66 -5 8.32 -5 9 C-3.35 9 -1.7 9 0 9 C0 6.03 0 3.06 0 0 Z " fill="#BE843A" transform="translate(60,55)"/>
<path d="M0 0 C7.92 0 15.84 0 24 0 C24.33 0.66 24.66 1.32 25 2 C16.64251778 2.84327749 8.39802254 3.12190678 0 3 C0 2.01 0 1.02 0 0 Z " fill="#BDA283" transform="translate(23,127)"/>
<path d="M0 0 C0.99 0 1.98 0 3 0 C3 0.99 3 1.98 3 3 C5.64 3 8.28 3 11 3 C11 3.99 11 4.98 11 6 C15.62 6 20.24 6 25 6 C25 6.33 25 6.66 25 7 C22.14576808 7.02718316 19.29179985 7.04692705 16.4375 7.0625 C15.23770508 7.07506836 15.23770508 7.07506836 14.01367188 7.08789062 C9.22836896 7.10742247 4.71854949 6.80437018 0 6 C0 4.02 0 2.04 0 0 Z " fill="#BB9E82" transform="translate(20,130)"/>
<path d="M0 0 C3.96 0 7.92 0 12 0 C12 0.99 12 1.98 12 3 C12.99 3 13.98 3 15 3 C15 3.66 15 4.32 15 5 C13.02 5 11.04 5 9 5 C9 4.34 9 3.68 9 3 C6.69 3 4.38 3 2 3 C2 4.65 2 6.3 2 8 C1.34 8 0.68 8 0 8 C0 5.36 0 2.72 0 0 Z " fill="#6E381B" transform="translate(36,40)"/>
<path d="M0 0 C2.97 0 5.94 0 9 0 C9 1.65 9 3.3 9 5 C8.01 5 7.02 5 6 5 C6 5.66 6 6.32 6 7 C4.02 7 2.04 7 0 7 C0 4.69 0 2.38 0 0 Z " fill="#E3B55A" transform="translate(11,26)"/>
<path d="M0 0 C1.11375 0.4640625 1.11375 0.4640625 2.25 0.9375 C4.51138748 1.81121789 6.65335318 2.43356801 9 3 C9.66 3.33 10.32 3.66 11 4 C11 5.98 11 7.96 11 10 C9.35 10 7.7 10 6 10 C6 9.01 6 8.02 6 7 C5.01 7 4.02 7 3 7 C3 5.68 3 4.36 3 3 C2.01 3 1.02 3 0 3 C0 2.01 0 1.02 0 0 Z " fill="#763F18" transform="translate(52,45)"/>
<path d="M0 0 C1.98 0 3.96 0 6 0 C6 1.98 6 3.96 6 6 C5.01 6 4.02 6 3 6 C3 8.31 3 10.62 3 13 C2.01 13 1.02 13 0 13 C0 8.71 0 4.42 0 0 Z " fill="#331B15" transform="translate(111,127)"/>
<path d="M0 0 C0.99 0 1.98 0 3 0 C3.02685938 2.14576637 3.04633088 4.29162645 3.0625 6.4375 C3.07410156 7.63246094 3.08570313 8.82742187 3.09765625 10.05859375 C3 13 3 13 2 14 C1.76472227 16.34987262 1.58613583 18.70556039 1.4375 21.0625 C1.35371094 22.35285156 1.26992188 23.64320312 1.18359375 24.97265625 C1.12300781 25.97167969 1.06242188 26.97070312 1 28 C0.67 28 0.34 28 0 28 C0 18.76 0 9.52 0 0 Z " fill="#33201B" transform="translate(1,13)"/>
<path d="M0 0 C2.97 0 5.94 0 9 0 C9 1.98 9 3.96 9 6 C6.03 6 3.06 6 0 6 C0 4.02 0 2.04 0 0 Z " fill="#FADF88" transform="translate(11,93)"/>
<path d="M0 0 C0.99 0 1.98 0 3 0 C3 5.94 3 11.88 3 18 C2.01 18 1.02 18 0 18 C0 12.06 0 6.12 0 0 Z " fill="#713E2D" transform="translate(17,4)"/>
<path d="M0 0 C0.99 0 1.98 0 3 0 C3 5.94 3 11.88 3 18 C2.01 18 1.02 18 0 18 C0 12.06 0 6.12 0 0 Z " fill="#975D45" transform="translate(14,4)"/>
<path d="M0 0 C0.99 0 1.98 0 3 0 C3 5.28 3 10.56 3 16 C1.02 16 -0.96 16 -3 16 C-2.67 15.34 -2.34 14.68 -2 14 C-1.34 14 -0.68 14 0 14 C0 9.38 0 4.76 0 0 Z " fill="#6A3A29" transform="translate(17,105)"/>
<path d="M0 0 C0.99 0 1.98 0 3 0 C3 5.61 3 11.22 3 17 C2.34 17 1.68 17 1 17 C0.67 17.66 0.34 18.32 0 19 C0 12.73 0 6.46 0 0 Z " fill="#FAD186" transform="translate(67,56)"/>
<path d="M0 0 C1.81242052 -0.02687279 3.62495233 -0.04633715 5.4375 -0.0625 C6.44683594 -0.07410156 7.45617187 -0.08570313 8.49609375 -0.09765625 C11 0 11 0 12 1 C12.04092937 3.33297433 12.04241723 5.66705225 12 8 C11.34 8 10.68 8 10 8 C10 6.35 10 4.7 10 3 C7.69 3 5.38 3 3 3 C3 3.66 3 4.32 3 5 C1.68 4.67 0.36 4.34 -1 4 C-0.67 2.68 -0.34 1.36 0 0 Z " fill="#6B381B" transform="translate(89,40)"/>
<path d="M0 0 C0.99 0 1.98 0 3 0 C3 7.26 3 14.52 3 22 C1.02 22 -0.96 22 -3 22 C-3 21.01 -3 20.02 -3 19 C-2.01 19 -1.02 19 0 19 C0 17.68 0 16.36 0 15 C0.66 15 1.32 15 2 15 C2 11.04 2 7.08 2 3 C1.34 3 0.68 3 0 3 C0 2.01 0 1.02 0 0 Z " fill="#895318" transform="translate(64,52)"/>
<path d="M0 0 C1.65 0 3.3 0 5 0 C5 0.99 5 1.98 5 3 C6.98 3 8.96 3 11 3 C11 3.66 11 4.32 11 5 C11.99 5 12.98 5 14 5 C14 6.32 14 7.64 14 9 C12.35 9 10.7 9 9 9 C9 7.68 9 6.36 9 5 C6.69 5 4.38 5 2 5 C2 4.01 2 3.02 2 2 C1.34 2 0.68 2 0 2 C0 1.34 0 0.68 0 0 Z " fill="#703A0F" transform="translate(46,62)"/>
<path d="M0 0 C0.33 0 0.66 0 1 0 C1 3.3 1 6.6 1 10 C0.01 10 -0.98 10 -2 10 C-2 10.66 -2 11.32 -2 12 C-0.35 12 1.3 12 3 12 C3.33 11.34 3.66 10.68 4 10 C4 10.66 4 11.32 4 12 C6.97 12 9.94 12 13 12 C13 12.33 13 12.66 13 13 C10.69 13 8.38 13 6 13 C6 13.99 6 14.98 6 16 C5.34 16 4.68 16 4 16 C4 15.01 4 14.02 4 13 C3.01 13 2.02 13 1 13 C0.67 13.99 0.34 14.98 0 16 C-0.99 16 -1.98 16 -3 16 C-3 13.69 -3 11.38 -3 9 C-2.01 9 -1.02 9 0 9 C0 6.03 0 3.06 0 0 Z " fill="#A77030" transform="translate(76,55)"/>
<path d="M0 0 C5.28 0 10.56 0 16 0 C16.33 0.99 16.66 1.98 17 3 C11.39 3 5.78 3 0 3 C0 2.01 0 1.02 0 0 Z " fill="#F4DCBB" transform="translate(36,130)"/>
<path d="M0 0 C0.99 0 1.98 0 3 0 C3 2.97 3 5.94 3 9 C2.01 9 1.02 9 0 9 C-0.33 10.32 -0.66 11.64 -1 13 C-2 12 -2 12 -2.09765625 9.71484375 C-2.08605469 8.79832031 -2.07445313 7.88179687 -2.0625 6.9375 C-2.05347656 6.01839844 -2.04445313 5.09929688 -2.03515625 4.15234375 C-2.02355469 3.44207031 -2.01195313 2.73179688 -2 2 C-1.34 2 -0.68 2 0 2 C0 1.34 0 0.68 0 0 Z " fill="#743C1F" transform="translate(73,55)"/>
<path d="M0 0 C2.31 0 4.62 0 7 0 C7 1.65 7 3.3 7 5 C5.02 5 3.04 5 1 5 C1 6.32 1 7.64 1 9 C0.01 8.67 -0.98 8.34 -2 8 C-1.34 8 -0.68 8 0 8 C-0.99 6.35 -1.98 4.7 -3 3 C-2.01 2.67 -1.02 2.34 0 2 C0 1.34 0 0.68 0 0 Z " fill="#875029" transform="translate(82,43)"/>
<path d="M0 0 C2.97 0.33 5.94 0.66 9 1 C9 1.99 9 2.98 9 4 C8.01 4 7.02 4 6 4 C6 4.99 6 5.98 6 7 C5.01 7 4.02 7 3 7 C3 7.99 3 8.98 3 10 C2.01 10 1.02 10 0 10 C0 8.68 0 7.36 0 6 C0.99 6 1.98 6 3 6 C3 4.35 3 2.7 3 1 C2.01 0.67 1.02 0.34 0 0 Z " fill="#DEA846" transform="translate(83,48)"/>
<path d="M0 0 C0.99 0 1.98 0 3 0 C3 4.95 3 9.9 3 15 C2.01 15 1.02 15 0 15 C0 10.05 0 5.1 0 0 Z " fill="#804937" transform="translate(11,7)"/>
<path d="M0 0 C0.99 0 1.98 0 3 0 C3 2.97 3 5.94 3 9 C4.32 8.67 5.64 8.34 7 8 C7.66 8.66 8.32 9.32 9 10 C6 12 6 12 3 12 C3 11.34 3 10.68 3 10 C2.01 10 1.02 10 0 10 C0 6.7 0 3.4 0 0 Z " fill="#763F1B" transform="translate(64,80)"/>
<path d="M0 0 C1.98 0 3.96 0 6 0 C6 0.99 6 1.98 6 3 C7.98 3 9.96 3 12 3 C12 3.99 12 4.98 12 6 C9.03 6 6.06 6 3 6 C3 4.68 3 3.36 3 2 C2.01 2 1.02 2 0 2 C0 1.34 0 0.68 0 0 Z " fill="#EDBC5A" transform="translate(42,65)"/>
<path d="M0 0 C1.98 0 3.96 0 6 0 C6 0.66 6 1.32 6 2 C5.01 2 4.02 2 3 2 C3 3.32 3 4.64 3 6 C0.03 6 -2.94 6 -6 6 C-6 5.01 -6 4.02 -6 3 C-4.02 3 -2.04 3 0 3 C0 2.01 0 1.02 0 0 Z " fill="#EDBA61" transform="translate(89,65)"/>
<path d="M0 0 C1.32 0.66 2.64 1.32 4 2 C3.34 2 2.68 2 2 2 C2 3.98 2 5.96 2 8 C1.01 8.33 0.02 8.66 -1 9 C-1 9.66 -1 10.32 -1 11 C-2.32 10.67 -3.64 10.34 -5 10 C-5 9.34 -5 8.68 -5 8 C-4.01 7.34 -3.02 6.68 -2 6 C-0.78715124 2.94570927 -0.78715124 2.94570927 0 0 Z " fill="#6F3920" transform="translate(75,78)"/>
<path d="M0 0 C1.65 0 3.3 0 5 0 C5 0.66 5 1.32 5 2 C5.66 2 6.32 2 7 2 C7 2.99 7 3.98 7 5 C5.68 5 4.36 5 3 5 C3 5.99 3 6.98 3 8 C2.01 8 1.02 8 0 8 C0 5.36 0 2.72 0 0 Z " fill="#DC9C42" transform="translate(70,43)"/>
<path d="M0 0 C0.33 0 0.66 0 1 0 C1 2.64 1 5.28 1 8 C1.66 8.33 2.32 8.66 3 9 C2.01 9.495 2.01 9.495 1 10 C0.53476937 11.89533342 0.53476937 11.89533342 0.375 14.0625 C0.25125 15.361875 0.1275 16.66125 0 18 C-0.99 18 -1.98 18 -3 18 C-3 15.03 -3 12.06 -3 9 C-2.01 9 -1.02 9 0 9 C0 6.03 0 3.06 0 0 Z " fill="#715650" transform="translate(117,124)"/>
<path d="M0 0 C2.31 0 4.62 0 7 0 C7 0.99 7 1.98 7 3 C6.01 3 5.02 3 4 3 C4 3.99 4 4.98 4 6 C2.02 6 0.04 6 -2 6 C-2 5.01 -2 4.02 -2 3 C-1.34 3 -0.68 3 0 3 C0 2.01 0 1.02 0 0 Z " fill="#854F21" transform="translate(104,105)"/>
<path d="M0 0 C1.98 0.66 3.96 1.32 6 2 C6 3.32 6 4.64 6 6 C6.99 6 7.98 6 9 6 C9 6.99 9 7.98 9 9 C8.01 9 7.02 9 6 9 C6 8.34 6 7.68 6 7 C5.01 7 4.02 7 3 7 C3 6.34 3 5.68 3 5 C2.01 5 1.02 5 0 5 C0 3.35 0 1.7 0 0 Z " fill="#703B22" transform="translate(98,10)"/>
<path d="M0 0 C7.92 0 15.84 0 24 0 C24 0.99 24 1.98 24 3 C16.08 2.34 8.16 1.68 0 1 C0 0.67 0 0.34 0 0 Z " fill="#241412" transform="translate(97,148)"/>
<path d="M0 0 C0.99 0 1.98 0 3 0 C2.67 3.96 2.34 7.92 2 12 C1.34 12 0.68 12 0 12 C0 13.98 0 15.96 0 18 C-0.33 18 -0.66 18 -1 18 C-1.95627638 13.54629322 -1.90623315 10.09182255 -1.0625 5.625 C-0.86785156 4.56539062 -0.67320312 3.50578125 -0.47265625 2.4140625 C-0.23869141 1.21910156 -0.23869141 1.21910156 0 0 Z " fill="#66443B" transform="translate(5,127)"/>
<path d="M0 0 C1.32 0.33 2.64 0.66 4 1 C4 1.99 4 2.98 4 4 C4.99 4 5.98 4 7 4 C7 4.99 7 5.98 7 7 C5.0085944 7.38133299 3.00720923 7.71325582 1 8 C0 7 0 7 -0.0625 3.4375 C-0.041875 2.303125 -0.02125 1.16875 0 0 Z " fill="#CB902C" transform="translate(107,8)"/>
<path d="M0 0 C3.3 0 6.6 0 10 0 C10 0.99 10 1.98 10 3 C8.68 3 7.36 3 6 3 C6 3.66 6 4.32 6 5 C5.01 5 4.02 5 3 5 C3 4.34 3 3.68 3 3 C2.01 3 1.02 3 0 3 C0 2.01 0 1.02 0 0 Z " fill="#EFCF6D" transform="translate(98,4)"/>
<path d="M0 0 C0.66 0 1.32 0 2 0 C2 4.62 2 9.24 2 14 C0 13 0 13 -0.625 11.4375 C-1.1675645 7.91083076 -1.11703904 4.56969059 -1 1 C-0.67 0.67 -0.34 0.34 0 0 Z " fill="#351E19" transform="translate(118,133)"/>
<path d="M0 0 C0.99 0 1.98 0 3 0 C3 0.99 3 1.98 3 3 C4.98 3 6.96 3 9 3 C9 2.01 9 1.02 9 0 C9.99 0 10.98 0 12 0 C12 1.32 12 2.64 12 4 C9.03 4 6.06 4 3 4 C3 4.99 3 5.98 3 7 C2.01 6.67 1.02 6.34 0 6 C0.66 6 1.32 6 2 6 C2 5.34 2 4.68 2 4 C1.34 4 0.68 4 0 4 C0 2.68 0 1.36 0 0 Z " fill="#B87A2A" transform="translate(80,58)"/>
<path d="M0 0 C0.99 0.33 1.98 0.66 3 1 C3 2.65 3 4.3 3 6 C2.01 6 1.02 6 0 6 C0 6.99 0 7.98 0 9 C-0.99 9 -1.98 9 -3 9 C-2.5020163 5.26512223 -2.12508244 3.18762365 0 0 Z " fill="#72411D" transform="translate(64,27)"/>
<path d="M0 0 C0.99 0 1.98 0 3 0 C3 1.98 3 3.96 3 6 C0.36 6 -2.28 6 -5 6 C-4.67 5.01 -4.34 4.02 -4 3 C-2.68 3 -1.36 3 0 3 C0 2.01 0 1.02 0 0 Z " fill="#EFC159" transform="translate(105,111)"/>
<path d="M0 0 C0.99 0 1.98 0 3 0 C3 1.32 3 2.64 3 4 C2.01 4 1.02 4 0 4 C0 4.66 0 5.32 0 6 C-0.99 6 -1.98 6 -3 6 C-3 6.99 -3 7.98 -3 9 C-4.32 8.67 -5.64 8.34 -7 8 C-6.34 8 -5.68 8 -5 8 C-4.67 6.35 -4.34 4.7 -4 3 C-2.68 3 -1.36 3 0 3 C0 2.01 0 1.02 0 0 Z " fill="#733A1B" transform="translate(92,71)"/>
<path d="M0 0 C0.99 0 1.98 0 3 0 C3.66 1.32 4.32 2.64 5 4 C5.99 4 6.98 4 8 4 C8 4.99 8 5.98 8 7 C6.68 7 5.36 7 4 7 C4 6.34 4 5.68 4 5 C2.35 5 0.7 5 -1 5 C-0.67 3.35 -0.34 1.7 0 0 Z " fill="#E5A945" transform="translate(71,38)"/>
<path d="M0 0 C0.99 0 1.98 0 3 0 C3 0.99 3 1.98 3 3 C2.01 3 1.02 3 0 3 C0 3.99 0 4.98 0 6 C-2.31 6 -4.62 6 -7 6 C-7 5.01 -7 4.02 -7 3 C-5.5459375 2.814375 -5.5459375 2.814375 -4.0625 2.625 C-2.5465625 2.315625 -2.5465625 2.315625 -1 2 C-0.67 1.34 -0.34 0.68 0 0 Z " fill="#824712" transform="translate(77,68)"/>
<path d="M0 0 C0.99 0 1.98 0 3 0 C3 3.3 3 6.6 3 10 C2.01 10 1.02 10 0 10 C0 6.7 0 3.4 0 0 Z " fill="#745444" transform="translate(14,127)"/>
<path d="M0 0 C1.98 0 3.96 0 6 0 C6 0.99 6 1.98 6 3 C5.01 3 4.02 3 3 3 C3 4.32 3 5.64 3 7 C2.01 7 1.02 7 0 7 C0 4.69 0 2.38 0 0 Z " fill="#A7886B" transform="translate(17,127)"/>
<path d="M0 0 C1.98 0.66 3.96 1.32 6 2 C4.6875 3.5 4.6875 3.5 3 5 C2.01 5 1.02 5 0 5 C0 5.99 0 6.98 0 8 C-0.99 8 -1.98 8 -3 8 C-3 6.68 -3 5.36 -3 4 C-2.34 3.67 -1.68 3.34 -1 3 C-0.67 2.01 -0.34 1.02 0 0 Z " fill="#8A553F" transform="translate(11,116)"/>
<path d="M0 0 C2 1.8125 2 1.8125 4 4 C4 4.99 4 5.98 4 7 C5.65 7 7.3 7 9 7 C9 7.66 9 8.32 9 9 C5.625 9.1875 5.625 9.1875 2 9 C-0.29013653 5.5647952 -0.17842973 4.014669 0 0 Z " fill="#955A45" transform="translate(24,109)"/>
<path d="M0 0 C0.33 0 0.66 0 1 0 C1 2.97 1 5.94 1 9 C-0.32 9 -1.64 9 -3 9 C-3 6.69 -3 4.38 -3 2 C-2.01 2 -1.02 2 0 2 C0 1.34 0 0.68 0 0 Z " fill="#6B4225" transform="translate(4,99)"/>
<path d="M0 0 C0 0.99 0 1.98 0 3 C-4.54805635 3.17835515 -7.8794254 2.99785435 -12 1 C-8.00439392 -1.83022097 -4.57262677 -0.76210446 0 0 Z " fill="#ECBA5A" transform="translate(76,74)"/>
<path d="M0 0 C0.99 0 1.98 0 3 0 C3 1.65 3 3.3 3 5 C2.01 5 1.02 5 0 5 C0 5.99 0 6.98 0 8 C-0.99 8 -1.98 8 -3 8 C-3.33 6.35 -3.66 4.7 -4 3 C-2.68 3.33 -1.36 3.66 0 4 C0 2.68 0 1.36 0 0 Z " fill="#F8D370" transform="translate(114,4)"/>
<path d="M0 0 C0.99 0 1.98 0 3 0 C3 2.64 3 5.28 3 8 C2.67 7.34 2.34 6.68 2 6 C0.35 6 -1.3 6 -3 6 C-3 5.01 -3 4.02 -3 3 C-2.01 3 -1.02 3 0 3 C0 2.01 0 1.02 0 0 Z " fill="#F3CB6A" transform="translate(114,102)"/>
<path d="M0 0 C0.99 0 1.98 0 3 0 C3 2.31 3 4.62 3 7 C0.03 6.505 0.03 6.505 -3 6 C-3 5.01 -3 4.02 -3 3 C-2.01 3 -1.02 3 0 3 C0 2.01 0 1.02 0 0 Z " fill="#F7CE77" transform="translate(61,37)"/>
<path d="M0 0 C0.99 0 1.98 0 3 0 C4 3 4 3 3 6 C1.02 6 -0.96 6 -3 6 C-3 5.01 -3 4.02 -3 3 C-2.01 3 -1.02 3 0 3 C0 2.01 0 1.02 0 0 Z " fill="#EBAE49" transform="translate(86,55)"/>
<path d="M0 0 C0.99 0 1.98 0 3 0 C3 0.99 3 1.98 3 3 C4.32 3.33 5.64 3.66 7 4 C4.69 4 2.38 4 0 4 C0 4.99 0 5.98 0 7 C-0.99 7 -1.98 7 -3 7 C-3 5.68 -3 4.36 -3 3 C-2.01 3 -1.02 3 0 3 C0 2.01 0 1.02 0 0 Z " fill="#BF8B37" transform="translate(48,45)"/>
<path d="M0 0 C1.98 0 3.96 0 6 0 C6 0.66 6 1.32 6 2 C6.99 2 7.98 2 9 2 C9 2.99 9 3.98 9 5 C6.03 4.505 6.03 4.505 3 4 C3 3.34 3 2.68 3 2 C2.01 2 1.02 2 0 2 C0 1.34 0 0.68 0 0 Z " fill="#ECBE6C" transform="translate(39,43)"/>
<path d="M0 0 C1.65 1.32 3.3 2.64 5 4 C4.67 5.65 4.34 7.3 4 9 C3.01 9 2.02 9 1 9 C1 7.02 1 5.04 1 3 C0.01 3 -0.98 3 -2 3 C-2 2.34 -2 1.68 -2 1 C-1.34 0.67 -0.68 0.34 0 0 Z " fill="#723D1B" transform="translate(69,24)"/>
<path d="M0 0 C0.33 0 0.66 0 1 0 C1 3.63 1 7.26 1 11 C0.01 10.67 -0.98 10.34 -2 10 C-2.25 3.375 -2.25 3.375 0 0 Z " fill="#824934" transform="translate(13,106)"/>
<path d="M0 0 C0.99 0 1.98 0 3 0 C3 1.98 3 3.96 3 6 C2.01 6 1.02 6 0 6 C0 6.66 0 7.32 0 8 C-0.99 8 -1.98 8 -3 8 C-3 7.01 -3 6.02 -3 5 C-2.01 5 -1.02 5 0 5 C0 3.35 0 1.7 0 0 Z " fill="#F1C973" transform="translate(67,28)"/>
<path d="M0 0 C2.31 0 4.62 0 7 0 C7 0.99 7 1.98 7 3 C3.7 3.33 0.4 3.66 -3 4 C-3 3.34 -3 2.68 -3 2 C-2.01 2 -1.02 2 0 2 C0 1.34 0 0.68 0 0 Z " fill="#4F210F" transform="translate(11,23)"/>
<path d="M0 0 C0.66 0 1.32 0 2 0 C2 1.65 2 3.3 2 5 C1.34 5 0.68 5 0 5 C0 8.63 0 12.26 0 16 C-0.33 16 -0.66 16 -1 16 C-1 11.71 -1 7.42 -1 3 C-1.99 2.67 -2.98 2.34 -4 2 C-2.68 2 -1.36 2 0 2 C0 1.34 0 0.68 0 0 Z " fill="#4B2B26" transform="translate(5,10)"/>
<path d="M0 0 C2.97 0 5.94 0 9 0 C9 0.99 9 1.98 9 3 C6.03 3 3.06 3 0 3 C0 2.01 0 1.02 0 0 Z " fill="#C68A2D" transform="translate(83,71)"/>
<path d="M0 0 C0.99 0 1.98 0 3 0 C3 2.97 3 5.94 3 9 C2.01 8.67 1.02 8.34 0 8 C0 5.36 0 2.72 0 0 Z " fill="#000000" transform="translate(118,124)"/>
<path d="M0 0 C0.99 0 1.98 0 3 0 C3 1.98 3 3.96 3 6 C2.01 6 1.02 6 0 6 C0 5.34 0 4.68 0 4 C-2.31 4 -4.62 4 -7 4 C-7 3.67 -7 3.34 -7 3 C-4.69 3 -2.38 3 0 3 C0 2.01 0 1.02 0 0 Z " fill="#CD9433" transform="translate(55,58)"/>
<path d="M0 0 C0.66 0 1.32 0 2 0 C2.33 2.97 2.66 5.94 3 9 C2.01 9 1.02 9 0 9 C-1.15941038 5.52176885 -0.70820884 3.54104422 0 0 Z " fill="#72371B" transform="translate(96,49)"/>
<path d="M0 0 C1.98 0 3.96 0 6 0 C6 1.65 6 3.3 6 5 C5.01 5 4.02 5 3 5 C3 4.01 3 3.02 3 2 C1.02 2.33 -0.96 2.66 -3 3 C-2.01 2.67 -1.02 2.34 0 2 C0 1.34 0 0.68 0 0 Z " fill="#CFA154" transform="translate(92,43)"/>
<path d="M0 0 C0.33 0 0.66 0 1 0 C1 2.31 1 4.62 1 7 C-0.98 7.99 -0.98 7.99 -3 9 C-3 7.02 -3 5.04 -3 3 C-2.01 3 -1.02 3 0 3 C0 2.01 0 1.02 0 0 Z " fill="#824918" transform="translate(73,77)"/>
<path d="M0 0 C1.32 0 2.64 0 4 0 C4 0.99 4 1.98 4 3 C4.99 3 5.98 3 7 3 C7 3.99 7 4.98 7 6 C5.68 6 4.36 6 3 6 C3 5.01 3 4.02 3 3 C2.01 3 1.02 3 0 3 C0 2.01 0 1.02 0 0 Z " fill="#CF9630" transform="translate(48,52)"/>
<path d="M0 0 C0.99 0 1.98 0 3 0 C3 2.97 3 5.94 3 9 C2.01 8.34 1.02 7.68 0 7 C-0.1875 3.375 -0.1875 3.375 0 0 Z " fill="#C9872A" transform="translate(67,36)"/>
<path d="M0 0 C0.99 0 1.98 0 3 0 C3.33 0.99 3.66 1.98 4 3 C4.99 3.33 5.98 3.66 7 4 C7 4.99 7 5.98 7 7 C5.68 6.67 4.36 6.34 3 6 C3 5.34 3 4.68 3 4 C2.01 4 1.02 4 0 4 C0 2.68 0 1.36 0 0 Z " fill="#9A6123" transform="translate(104,12)"/>
<path d="M0 0 C0.66 0 1.32 0 2 0 C2.33 0.99 2.66 1.98 3 3 C2.01 3 1.02 3 0 3 C0 4.32 0 5.64 0 7 C-0.99 7 -1.98 7 -3 7 C-3 6.01 -3 5.02 -3 4 C-3.66 3.67 -4.32 3.34 -5 3 C-3.68 3 -2.36 3 -1 3 C-0.67 2.01 -0.34 1.02 0 0 Z " fill="#5B2B19" transform="translate(8,105)"/>
<path d="M0 0 C0.66 0.33 1.32 0.66 2 1 C1 4 1 4 -1 5 C-1.33 5.99 -1.66 6.98 -2 8 C-1.34 8 -0.68 8 0 8 C-0.33 9.32 -0.66 10.64 -1 12 C-1.66 12 -2.32 12 -3 12 C-3 9.03 -3 6.06 -3 3 C-2.01 3 -1.02 3 0 3 C0 2.01 0 1.02 0 0 Z " fill="#945E2B" transform="translate(8,96)"/>
<path d="M0 0 C0.66 0 1.32 0 2 0 C2 0.66 2 1.32 2 2 C2.99 2 3.98 2 5 2 C5 3.32 5 4.64 5 6 C3.35 6 1.7 6 0 6 C0 4.02 0 2.04 0 0 Z " fill="#7A4212" transform="translate(55,65)"/>
<path d="M0 0 C0.99 0 1.98 0 3 0 C3 0.99 3 1.98 3 3 C3.99 3.66 4.98 4.32 6 5 C3.03 5 0.06 5 -3 5 C-3 4.34 -3 3.68 -3 3 C-2.01 3 -1.02 3 0 3 C0 2.01 0 1.02 0 0 Z " fill="#80481A" transform="translate(83,62)"/>
<path d="M0 0 C0.33 1.32 0.66 2.64 1 4 C1.66 4 2.32 4 3 4 C3 6 3 6 1.8125 7.625 C-0.55560662 9.42149467 -2.09897251 9.23521845 -5 9 C-5 8.34 -5 7.68 -5 7 C-3.35 6.67 -1.7 6.34 0 6 C0 4.02 0 2.04 0 0 Z " fill="#DDA348" transform="translate(79,58)"/>
<path d="M0 0 C-0.33 4.29 -0.66 8.58 -1 13 C-1.33 13 -1.66 13 -2 13 C-2 10.36 -2 7.72 -2 5 C-2.66 5 -3.32 5 -4 5 C-4 4.01 -4 3.02 -4 2 C-1 0 -1 0 0 0 Z " fill="#512B19" transform="translate(22,21)"/>
<path d="M0 0 C1.98 0 3.96 0 6 0 C6 0.99 6 1.98 6 3 C4.02 3.66 2.04 4.32 0 5 C0 3.35 0 1.7 0 0 Z " fill="#4F2B23" transform="translate(8,4)"/>
<path d="M0 0 C2.97 0.495 2.97 0.495 6 1 C6 2.32 6 3.64 6 5 C4.68 5 3.36 5 2 5 C2 4.01 2 3.02 2 2 C1.34 2 0.68 2 0 2 C0 1.34 0 0.68 0 0 Z " fill="#DCAB51" transform="translate(58,43)"/>
<path d="M0 0 C0.99 0 1.98 0 3 0 C3 0.99 3 1.98 3 3 C3.99 3 4.98 3 6 3 C6 3.99 6 4.98 6 6 C4.68 6 3.36 6 2 6 C2 5.01 2 4.02 2 3 C1.34 3 0.68 3 0 3 C0 2.01 0 1.02 0 0 Z " fill="#F4CF68" transform="translate(108,108)"/>
<path d="M0 0 C0.33 0 0.66 0 1 0 C1 2.97 1 5.94 1 9 C0.67 8.01 0.34 7.02 0 6 C-0.99 6 -1.98 6 -3 6 C-3 4.68 -3 3.36 -3 2 C-2.01 2 -1.02 2 0 2 C0 1.34 0 0.68 0 0 Z " fill="#955E23" transform="translate(95,65)"/>
<path d="M0 0 C1.98 0 3.96 0 6 0 C6.33 1.32 6.66 2.64 7 4 C5.68 4.33 4.36 4.66 3 5 C3 4.01 3 3.02 3 2 C2.01 2 1.02 2 0 2 C0 1.34 0 0.68 0 0 Z " fill="#F6CC6E" transform="translate(42,65)"/>
<path d="M0 0 C0.99 0 1.98 0 3 0 C3 0.99 3 1.98 3 3 C2.01 3 1.02 3 0 3 C0 3.99 0 4.98 0 6 C-0.99 6 -1.98 6 -3 6 C-3 4.68 -3 3.36 -3 2 C-2.01 2 -1.02 2 0 2 C0 1.34 0 0.68 0 0 Z " fill="#CB8F27" transform="translate(86,52)"/>
<path d="M0 0 C0.66 0 1.32 0 2 0 C2.33 2.97 2.66 5.94 3 9 C2.01 9 1.02 9 0 9 C0 6.03 0 3.06 0 0 Z " fill="#6B351E" transform="translate(39,49)"/>
<path d="M0 0 C0.78375 0.33 1.5675 0.66 2.375 1 C4.84332497 2.11866511 4.84332497 2.11866511 7 2 C6.67 3.32 6.34 4.64 6 6 C5.01 6 4.02 6 3 6 C3 5.01 3 4.02 3 3 C2.01 3 1.02 3 0 3 C0 2.01 0 1.02 0 0 Z " fill="#6A371A" transform="translate(52,45)"/>
<path d="M0 0 C0.99 0 1.98 0 3 0 C3 1.65 3 3.3 3 5 C1.02 5 -0.96 5 -3 5 C-3 4.34 -3 3.68 -3 3 C-2.01 3 -1.02 3 0 3 C0 2.01 0 1.02 0 0 Z " fill="#673519" transform="translate(11,34)"/>
<path d="M0 0 C0.66 0 1.32 0 2 0 C2 0.99 2 1.98 2 3 C3.32 3.33 4.64 3.66 6 4 C3 6 3 6 0 6 C0 4.02 0 2.04 0 0 Z " fill="#C78C28" transform="translate(108,111)"/>
<path d="M0 0 C0.33 0.66 0.66 1.32 1 2 C-0.32 2.33 -1.64 2.66 -3 3 C-3 3.66 -3 4.32 -3 5 C-4.32 4.67 -5.64 4.34 -7 4 C-6.67 3.01 -6.34 2.02 -6 1 C-4.02 0.67 -2.04 0.34 0 0 Z " fill="#643115" transform="translate(92,61)"/>
<path d="M0 0 C1.9375 0.3125 1.9375 0.3125 4 1 C4.33 1.99 4.66 2.98 5 4 C4.67 4.66 4.34 5.32 4 6 C4.66 6.33 5.32 6.66 6 7 C5.01 7 4.02 7 3 7 C3 6.01 3 5.02 3 4 C2.01 3.67 1.02 3.34 0 3 C0 2.01 0 1.02 0 0 Z " fill="#95582A" transform="translate(92,55)"/>
<path d="M0 0 C0.99 0 1.98 0 3 0 C3 0.66 3 1.32 3 2 C3.66 2.33 4.32 2.66 5 3 C5 5.31 5 7.62 5 10 C4.34 10 3.68 10 3 10 C3 7.69 3 5.38 3 3 C2.01 3 1.02 3 0 3 C0 2.01 0 1.02 0 0 Z " fill="#DEAF55" transform="translate(39,45)"/>
<path d="M0 0 C0.33 0 0.66 0 1 0 C1 1.65 1 3.3 1 5 C1.66 5.33 2.32 5.66 3 6 C2.34 6 1.68 6 1 6 C0.67 6.99 0.34 7.98 0 9 C0 8.01 0 7.02 0 6 C-0.66 6 -1.32 6 -2 6 C-2 7.98 -2 9.96 -2 12 C-2.33 12 -2.66 12 -3 12 C-3 9.69 -3 7.38 -3 5 C-2.01 5 -1.02 5 0 5 C0 3.35 0 1.7 0 0 Z " fill="#824C1F" transform="translate(98,43)"/>
<path d="M0 0 C0 1.32 0 2.64 0 4 C-1.98 4 -3.96 4 -6 4 C-6 3.01 -6 2.02 -6 1 C-3.92446352 0.4465236 -2.15634036 0 0 0 Z " fill="#F1C660" transform="translate(95,45)"/>
<path d="M0 0 C0.99 0 1.98 0 3 0 C3 2.97 3 5.94 3 9 C0.23776722 6.23776722 0.42143709 3.79293383 0 0 Z " fill="#371C1A" transform="translate(11,124)"/>
<path d="M0 0 C0.33 0 0.66 0 1 0 C1.08159574 4.16138263 0.98248524 7.9472484 0 12 C-0.33 12 -0.66 12 -1 12 C-1.22162329 10.37675914 -1.42689803 8.751279 -1.625 7.125 C-1.74101562 6.22007813 -1.85703125 5.31515625 -1.9765625 4.3828125 C-1.98429687 3.59648438 -1.99203125 2.81015625 -2 2 C-1.34 1.34 -0.68 0.68 0 0 Z " fill="#482624" transform="translate(21,101)"/>
<path d="M0 0 C0 0.99 0 1.98 0 3 C-0.99 3 -1.98 3 -3 3 C-3 3.99 -3 4.98 -3 6 C-3.99 6 -4.98 6 -6 6 C-6 3 -6 3 -4.6875 1.3125 C-3 0 -3 0 0 0 Z " fill="#713A1E" transform="translate(117,96)"/>
<path d="M0 0 C0.91007812 0.00902344 1.82015625 0.01804687 2.7578125 0.02734375 C3.45648438 0.03894531 4.15515625 0.05054687 4.875 0.0625 C4.875 0.3925 4.875 0.7225 4.875 1.0625 C1.905 1.0625 -1.065 1.0625 -4.125 1.0625 C-4.125 2.0525 -4.125 3.0425 -4.125 4.0625 C-5.115 4.0625 -6.105 4.0625 -7.125 4.0625 C-7.125 3.0725 -7.125 2.0825 -7.125 1.0625 C-4.60024538 -0.19987731 -2.81299534 -0.03606404 0 0 Z " fill="#592F0F" transform="translate(15.125,91.9375)"/>
<path d="M0 0 C1.98 0.66 3.96 1.32 6 2 C6 3.32 6 4.64 6 6 C5.34 6 4.68 6 4 6 C4 5.34 4 4.68 4 4 C3.01 4 2.02 4 1 4 C0.67 2.68 0.34 1.36 0 0 Z " fill="#693317" transform="translate(98,10)"/>
<path d="M0 0 C0.99 0 1.98 0 3 0 C3 1.98 3 3.96 3 6 C2.01 6 1.02 6 0 6 C0 4.02 0 2.04 0 0 Z " fill="#DEB15B" transform="translate(11,93)"/>
<path d="M0 0 C0.99 0 1.98 0 3 0 C3 1.98 3 3.96 3 6 C2.01 6 1.02 6 0 6 C0 4.02 0 2.04 0 0 Z " fill="#D29F4C" transform="translate(17,93)"/>
<path d="M0 0 C0.99 0 1.98 0 3 0 C3 1.98 3 3.96 3 6 C2.01 6 1.02 6 0 6 C0 4.02 0 2.04 0 0 Z " fill="#8E511D" transform="translate(64,80)"/>
<path d="M0 0 C0.99 0 1.98 0 3 0 C3 1.98 3 3.96 3 6 C2.01 6 1.02 6 0 6 C0 4.02 0 2.04 0 0 Z " fill="#F6C15A" transform="translate(64,45)"/>
<path d="M0 0 C0.33 0 0.66 0 1 0 C1 1.98 1 3.96 1 6 C1.66 6 2.32 6 3 6 C3.33 5.34 3.66 4.68 4 4 C3.67 5.65 3.34 7.3 3 9 C2.01 9 1.02 9 0 9 C0 6.03 0 3.06 0 0 Z " fill="#734020" transform="translate(4,33)"/>
<path d="M0 0 C0.99 0.33 1.98 0.66 3 1 C3 2.32 3 3.64 3 5 C2.34 5 1.68 5 1 5 C0.67 5.99 0.34 6.98 0 8 C-0.38063221 5.6739143 -0.71269945 3.33944736 -1 1 C-0.67 0.67 -0.34 0.34 0 0 Z " fill="#7C4927" transform="translate(51,40)"/>
<path d="M0 0 C0.66 0 1.32 0 2 0 C2 3 2 3 0.625 4.5625 C0.08875 5.036875 -0.4475 5.51125 -1 6 C-1.66 6.66 -2.32 7.32 -3 8 C-3 6.02 -3 4.04 -3 2 C-2.01 2 -1.02 2 0 2 C0 1.34 0 0.68 0 0 Z " fill="#6B381F" transform="translate(58,36)"/>
<path d="M0 0 C1.98 0 3.96 0 6 0 C6 0.99 6 1.98 6 3 C4.02 3 2.04 3 0 3 C0 2.01 0 1.02 0 0 Z " fill="#562814" transform="translate(14,34)"/>
<path d="M0 0 C1.32 0 2.64 0 4 0 C4 0.66 4 1.32 4 2 C4.99 2 5.98 2 7 2 C6.67 2.99 6.34 3.98 6 5 C6 4.34 6 3.68 6 3 C4.02 3 2.04 3 0 3 C0 2.01 0 1.02 0 0 Z " fill="#A26229" transform="translate(51,62)"/>
<path d="M0 0 C0.99 0 1.98 0 3 0 C3 2.31 3 4.62 3 7 C2.67 6.34 2.34 5.68 2 5 C1.34 5 0.68 5 0 5 C0 3.35 0 1.7 0 0 Z " fill="#DBA645" transform="translate(114,9)"/>
<path d="M0 0 C0.99 0 1.98 0 3 0 C3 1.65 3 3.3 3 5 C2.01 5.33 1.02 5.66 0 6 C0 4.02 0 2.04 0 0 Z " fill="#683529" transform="translate(17,4)"/>
<path d="M0 0 C3.63 0 7.26 0 11 0 C11 0.33 11 0.66 11 1 C8.36 1 5.72 1 3 1 C3 1.66 3 2.32 3 3 C2.01 3 1.02 3 0 3 C0 2.01 0 1.02 0 0 Z " fill="#7F5424" transform="translate(95,3)"/>
</svg>
