<?xml version="1.0" encoding="UTF-8"?>
<svg version="1.1" xmlns="http://www.w3.org/2000/svg" width="88" height="124">
<path d="M0 0 C8.91 0 17.82 0 27 0 C27 1.32 27 2.64 27 4 C27.99 4 28.98 4 30 4 C30 7.96 30 11.92 30 16 C30.99 16 31.98 16 33 16 C33 16.99 33 17.98 33 19 C33.99 19 34.98 19 36 19 C36 23.29 36 27.58 36 32 C35.01 32 34.02 32 33 32 C33 32.99 33 33.98 33 35 C32.01 35 31.02 35 30 35 C30 37.64 30 40.28 30 43 C30.99 43.33 31.98 43.66 33 44 C33 45.65 33 47.3 33 49 C35.31 49 37.62 49 40 49 C40 49.66 40 50.32 40 51 C41.32 51 42.64 51 44 51 C44 51.99 44 52.98 44 54 C44.66 54 45.32 54 46 54 C46 54.66 46 55.32 46 56 C46.66 56 47.32 56 48 56 C48 56.99 48 57.98 48 59 C48.99 59 49.98 59 51 59 C51 59.99 51 60.98 51 62 C51.66 62 52.32 62 53 62 C53 65.3 53 68.6 53 72 C54.98 72.495 54.98 72.495 57 73 C57 80.59 57 88.18 57 96 C55.68 96 54.36 96 53 96 C53.05220703 97.15628906 53.05220703 97.15628906 53.10546875 98.3359375 C53.13253906 99.33882813 53.15960938 100.34171875 53.1875 101.375 C53.23970703 102.87160156 53.23970703 102.87160156 53.29296875 104.3984375 C53.19628906 105.25695312 53.09960938 106.11546875 53 107 C50.38058783 108.74627478 48.96175123 109.38722388 46 110 C46 110.66 46 111.32 46 112 C45.34 112 44.68 112 44 112 C44 112.99 44 113.98 44 115 C42.36395804 116.37073786 40.69321939 117.70055256 39 119 C38.54368698 119.69317322 38.08737396 120.38634644 37.61723328 121.1005249 C36 123 36 123 33.89289856 123.48101807 C32.67711372 123.4676944 32.67711372 123.4676944 31.43676758 123.45410156 C30.51603958 123.45379944 29.59531158 123.45349731 28.64668274 123.45318604 C27.16061775 123.42221832 27.16061775 123.42221832 25.64453125 123.390625 C24.62775803 123.38496521 23.6109848 123.37930542 22.56340027 123.37347412 C19.31262328 123.35106519 16.06294441 123.30085942 12.8125 123.25 C10.61004195 123.22994089 8.40756664 123.2116891 6.20507812 123.1953125 C0.8030101 123.1511858 -4.59841651 123.08422889 -10 123 C-10 122.01 -10 121.02 -10 120 C-10.66 120 -11.32 120 -12 120 C-12 119.34 -12 118.68 -12 118 C-12.99 118 -13.98 118 -15 118 C-16.6875 116.6875 -16.6875 116.6875 -18 115 C-18 114.01 -18 113.02 -18 112 C-18.99 112 -19.98 112 -21 112 C-21 111.34 -21 110.68 -21 110 C-21.99 109.67 -22.98 109.34 -24 109 C-24 108.34 -24 107.68 -24 107 C-24.99 106.67 -25.98 106.34 -27 106 C-27 102.7 -27 99.4 -27 96 C-28.32 95.67 -29.64 95.34 -31 95 C-31 88.07 -31 81.14 -31 74 C-29.02 73.01 -29.02 73.01 -27 72 C-27 68.7 -27 65.4 -27 62 C-26.34 62 -25.68 62 -25 62 C-24.34 60.02 -23.68 58.04 -23 56 C-22.34 56 -21.68 56 -21 56 C-21 55.34 -21 54.68 -21 54 C-20.01 54 -19.02 54 -18 54 C-17.67 53.01 -17.34 52.02 -17 51 C-16.01 51 -15.02 51 -14 51 C-14 50.34 -14 49.68 -14 49 C-11.69 49 -9.38 49 -7 49 C-7 47.35 -7 45.7 -7 44 C-5.515 43.505 -5.515 43.505 -4 43 C-4 40.36 -4 37.72 -4 35 C-4.99 35 -5.98 35 -7 35 C-7 34.01 -7 33.02 -7 32 C-7.99 32 -8.98 32 -10 32 C-10.0810206 29.89646505 -10.13919907 27.79204048 -10.1875 25.6875 C-10.22230469 24.51574219 -10.25710937 23.34398437 -10.29296875 22.13671875 C-10 19 -10 19 -8.67578125 17.08203125 C-7 16 -7 16 -4 16 C-4 12.04 -4 8.08 -4 4 C-3.01 4 -2.02 4 -1 4 C-0.67 2.68 -0.34 1.36 0 0 Z " fill="#2E7D92" transform="translate(31,0)"/>
<path d="M0 0 C8.91 0 17.82 0 27 0 C27 1.32 27 2.64 27 4 C27.99 4 28.98 4 30 4 C30 7.96 30 11.92 30 16 C30.99 16 31.98 16 33 16 C33 16.99 33 17.98 33 19 C33.99 19 34.98 19 36 19 C36 23.29 36 27.58 36 32 C35.01 32 34.02 32 33 32 C33 32.99 33 33.98 33 35 C32.01 35 31.02 35 30 35 C30 37.64 30 40.28 30 43 C30.99 43.33 31.98 43.66 33 44 C32.67 46.97 32.34 49.94 32 53 C33.98 53 35.96 53 38 53 C38 54.65 38 56.3 38 58 C38.99 58 39.98 58 41 58 C41 58.66 41 59.32 41 60 C42.32 60 43.64 60 45 60 C45 60.99 45 61.98 45 63 C45.99 63.33 46.98 63.66 48 64 C48.06058594 64.63808594 48.12117188 65.27617188 48.18359375 65.93359375 C48.26738281 66.75988281 48.35117188 67.58617188 48.4375 68.4375 C48.51871094 69.26121094 48.59992188 70.08492188 48.68359375 70.93359375 C48.78930815 72.98662025 48.78930815 72.98662025 50 74 C50.08669432 75.4887186 50.10703494 76.981445 50.09765625 78.47265625 C50.09443359 79.37177734 50.09121094 80.27089844 50.08789062 81.19726562 C50.07532227 82.61555664 50.07532227 82.61555664 50.0625 84.0625 C50.05798828 85.01189453 50.05347656 85.96128906 50.04882812 86.93945312 C50.0370011 89.29303065 50.02052025 91.64648477 50 94 C49.34 94 48.68 94 48 94 C48.020625 95.258125 48.04125 96.51625 48.0625 97.8125 C48.10886083 100.64051087 47.91692961 102.24921116 47 105 C44.9375 105.6875 44.9375 105.6875 43 106 C43 106.99 43 107.98 43 109 C42.34 109 41.68 109 41 109 C41 109.66 41 110.32 41 111 C40.01 111 39.02 111 38 111 C38 111.99 38 112.98 38 114 C37.01 114 36.02 114 35 114 C35 114.99 35 115.98 35 117 C29.76100772 117.87266212 24.74677147 118.13410177 19.44140625 118.09765625 C18.65225327 118.0962413 17.86310028 118.09482635 17.05003357 118.09336853 C14.55414885 118.08781555 12.05835715 118.07527208 9.5625 118.0625 C7.86002735 118.05747891 6.15755327 118.05291707 4.45507812 118.04882812 C0.30335012 118.03786158 -3.84830922 118.02062991 -8 118 C-8 116.02 -8 114.04 -8 112 C-6.68 112 -5.36 112 -4 112 C-4 112.66 -4 113.32 -4 114 C7.22 114 18.44 114 30 114 C30 113.01 30 112.02 30 111 C31.65 111 33.3 111 35 111 C35 110.01 35 109.02 35 108 C35.99 108 36.98 108 38 108 C38 107.34 38 106.68 38 106 C38.99 106 39.98 106 41 106 C41 104.02 41 102.04 41 100 C42.32 100 43.64 100 45 100 C45 97.69 45 95.38 45 93 C45.66 93 46.32 93 47 93 C47 86.73 47 80.46 47 74 C46.34 74 45.68 74 45 74 C45 71.36 45 68.72 45 66 C43.68 66 42.36 66 41 66 C41 65.01 41 64.02 41 63 C33.41 63 25.82 63 18 63 C18 62.01 18 61.02 18 60 C15.36 60 12.72 60 10 60 C10 59.01 10 58.02 10 57 C4.39 57 -1.22 57 -7 57 C-6.01 56.505 -6.01 56.505 -5 56 C-5 54.02 -5 52.04 -5 50 C-4.01 50 -3.02 50 -2 50 C-2 48.35 -2 46.7 -2 45 C-1.01 45 -0.02 45 1 45 C1 42.03 1 39.06 1 36 C1.99 36 2.98 36 4 36 C4 37.65 4 39.3 4 41 C10.27 41 16.54 41 23 41 C23 39.68 23 38.36 23 37 C23.99 37 24.98 37 26 37 C26 40.3 26 43.6 26 47 C26.66 47 27.32 47 28 47 C28 47.99 28 48.98 28 50 C28.99 50 29.98 50 31 50 C31 48.35 31 46.7 31 45 C30.01 45 29.02 45 28 45 C28 41.37 28 37.74 28 34 C29.32 34 30.64 34 32 34 C32 32.68 32 31.36 32 30 C32.66 30 33.32 30 34 30 C34 27.03 34 24.06 34 21 C33.34 21 32.68 21 32 21 C32 23.64 32 26.28 32 29 C31.01 29 30.02 29 29 29 C29 29.66 29 30.32 29 31 C27.02 31 25.04 31 23 31 C23 31.99 23 32.98 23 34 C16.73 34 10.46 34 4 34 C4 33.01 4 32.02 4 31 C1.03 31 -1.94 31 -5 31 C-5.33 27.7 -5.66 24.4 -6 21 C-6.99 20.67 -7.98 20.34 -9 20 C-8.34 20 -7.68 20 -7 20 C-7 18.68 -7 17.36 -7 16 C-6.01 16 -5.02 16 -4 16 C-4 12.04 -4 8.08 -4 4 C-3.01 4 -2.02 4 -1 4 C-0.67 2.68 -0.34 1.36 0 0 Z " fill="#7FADCB" transform="translate(31,0)"/>
<path d="M0 0 C4.95 0 9.9 0 15 0 C15 0.66 15 1.32 15 2 C17.97 2.495 17.97 2.495 21 3 C21 3.99 21 4.98 21 6 C18.69 6 16.38 6 14 6 C14 6.66 14 7.32 14 8 C16.91652174 8.16681109 16.91652174 8.16681109 20 8 C20.66 7.34 21.32 6.68 22 6 C24.43017578 5.77294922 24.43017578 5.77294922 27.4453125 5.8046875 C29.05986328 5.81435547 29.05986328 5.81435547 30.70703125 5.82421875 C31.83496094 5.84097656 32.96289062 5.85773438 34.125 5.875 C35.82849609 5.88853516 35.82849609 5.88853516 37.56640625 5.90234375 C40.37781299 5.92596902 43.18880298 5.95890987 46 6 C46 7.32 46 8.64 46 10 C40.72 10 35.44 10 30 10 C30 10.99 30 11.98 30 13 C28.35 13.66 26.7 14.32 25 15 C25 19.62 25 24.24 25 29 C25.99 29 26.98 29 28 29 C28 29.99 28 30.98 28 32 C28.66 32 29.32 32 30 32 C30.33 32.66 30.66 33.32 31 34 C36.94 34.33 42.88 34.66 49 35 C48.67 36.65 48.34 38.3 48 40 C47.34 40 46.68 40 46 40 C45.67 41.32 45.34 42.64 45 44 C44.34 44 43.68 44 43 44 C43 44.99 43 45.98 43 47 C41.02 47 39.04 47 37 47 C37 47.99 37 48.98 37 50 C26.77 50 16.54 50 6 50 C6 49.34 6 48.68 6 48 C4.02 47.67 2.04 47.34 0 47 C0 46.01 0 45.02 0 44 C-0.99 44 -1.98 44 -3 44 C-3 43.34 -3 42.68 -3 42 C-3.66 42 -4.32 42 -5 42 C-6.75747614 37.49646738 -7.19294408 33.82360189 -7 29 C-7.99 29 -8.98 29 -10 29 C-10 24.05 -10 19.1 -10 14 C-9.01 14 -8.02 14 -7 14 C-7 11.36 -7 8.72 -7 6 C-6.67 7.32 -6.34 8.64 -6 10 C-5.01 10 -4.02 10 -3 10 C-3 9.34 -3 8.68 -3 8 C-2.01 8 -1.02 8 0 8 C0 5.36 0 2.72 0 0 Z " fill="#2DD5DC" transform="translate(23,61)"/>
<path d="M0 0 C2.31 0 4.62 0 7 0 C7 0.66 7 1.32 7 2 C8.32 2 9.64 2 11 2 C11 2.99 11 3.98 11 5 C11.66 5 12.32 5 13 5 C13 5.66 13 6.32 13 7 C13.66 7 14.32 7 15 7 C15 7.99 15 8.98 15 10 C15.99 10 16.98 10 18 10 C18 10.99 18 11.98 18 13 C18.66 13 19.32 13 20 13 C20 16.3 20 19.6 20 23 C21.98 23.495 21.98 23.495 24 24 C24 31.59 24 39.18 24 47 C22.68 47 21.36 47 20 47 C20.05220703 48.15628906 20.05220703 48.15628906 20.10546875 49.3359375 C20.13253906 50.33882812 20.15960938 51.34171875 20.1875 52.375 C20.23970703 53.87160156 20.23970703 53.87160156 20.29296875 55.3984375 C20.19628906 56.25695312 20.09960938 57.11546875 20 58 C17.38058783 59.74627478 15.96175123 60.38722388 13 61 C13 61.66 13 62.32 13 63 C12.34 63 11.68 63 11 63 C11 63.99 11 64.98 11 66 C9.36395804 67.37073786 7.69321939 68.70055256 6 70 C5.54368698 70.69317322 5.08737396 71.38634644 4.61723328 72.1005249 C3 74 3 74 0.89289856 74.48101807 C-0.32288628 74.4676944 -0.32288628 74.4676944 -1.56323242 74.45410156 C-2.48396042 74.45379944 -3.40468842 74.45349731 -4.35331726 74.45318604 C-5.83938225 74.42221832 -5.83938225 74.42221832 -7.35546875 74.390625 C-8.37224197 74.38496521 -9.3890152 74.37930542 -10.43659973 74.37347412 C-13.68737672 74.35106519 -16.93705559 74.30085942 -20.1875 74.25 C-22.38995805 74.22994089 -24.59243336 74.2116891 -26.79492188 74.1953125 C-32.1969899 74.1511858 -37.59841651 74.08422889 -43 74 C-43 73.01 -43 72.02 -43 71 C-43.66 71 -44.32 71 -45 71 C-45 70.34 -45 69.68 -45 69 C-45.99 69 -46.98 69 -48 69 C-49.6875 67.6875 -49.6875 67.6875 -51 66 C-51 65.01 -51 64.02 -51 63 C-51.99 63 -52.98 63 -54 63 C-53.34 61.68 -52.68 60.36 -52 59 C-52.99 59 -53.98 59 -55 59 C-55 58.01 -55 57.02 -55 56 C-55.99 56 -56.98 56 -58 56 C-58 53.03 -58 50.06 -58 47 C-57.01 47 -56.02 47 -55 47 C-54.34 50.3 -53.68 53.6 -53 57 C-52.34 57 -51.68 57 -51 57 C-51 57.66 -51 58.32 -51 59 C-49.68 59.33 -48.36 59.66 -47 60 C-47 60.66 -47 61.32 -47 62 C-46.01 62 -45.02 62 -44 62 C-44 62.99 -44 63.98 -44 65 C-43.01 65 -42.02 65 -41 65 C-41 66.32 -41 67.64 -41 69 C-26.81 68.67 -12.62 68.34 2 68 C2 67.01 2 66.02 2 65 C2.99 65 3.98 65 5 65 C5 64.01 5 63.02 5 62 C5.99 62 6.98 62 8 62 C8 61.34 8 60.68 8 60 C8.66 60 9.32 60 10 60 C10 59.01 10 58.02 10 57 C11.32 56.67 12.64 56.34 14 56 C14.33 52.37 14.66 48.74 15 45 C15.66 45 16.32 45 17 45 C16.86179731 41.6871348 16.71316222 38.37482011 16.5625 35.0625 C16.52318359 34.11697266 16.48386719 33.17144531 16.44335938 32.19726562 C16.40146484 31.29814453 16.35957031 30.39902344 16.31640625 29.47265625 C16.27974854 28.64000244 16.24309082 27.80734863 16.20532227 26.94946289 C16.20632897 24.99661142 16.20632897 24.99661142 15 24 C14.71898054 21.68047431 14.55217375 19.36114486 14.37890625 17.03125 C14.25386719 16.3609375 14.12882812 15.690625 14 15 C13.01 14.505 13.01 14.505 12 14 C12 13.01 12 12.02 12 11 C10.68 11 9.36 11 8 11 C8 10.34 8 9.68 8 9 C7.01 9 6.02 9 5 9 C5 7.35 5 5.7 5 4 C3.02 4 1.04 4 -1 4 C-0.67 2.68 -0.34 1.36 0 0 Z " fill="#365A6C" transform="translate(64,49)"/>
<path d="M0 0 C0.66 0.33 1.32 0.66 2 1 C3.8863912 1.084915 5.77578515 1.107193 7.6640625 1.09765625 C9.34628906 1.09282227 9.34628906 1.09282227 11.0625 1.08789062 C12.8259375 1.07532227 12.8259375 1.07532227 14.625 1.0625 C15.80835937 1.05798828 16.99171875 1.05347656 18.2109375 1.04882812 C21.14067507 1.03701467 24.07031272 1.02054258 27 1 C27 1.99 27 2.98 27 4 C27.66 4 28.32 4 29 4 C29 6.97 29 9.94 29 13 C28.34 13 27.68 13 27 13 C27 14.32 27 15.64 27 17 C28.98 17 30.96 17 33 17 C33 17.66 33 18.32 33 19 C31.02 19 29.04 19 27 19 C27 19.99 27 20.98 27 22 C18.75 22 10.5 22 2 22 C2 21.01 2 20.02 2 19 C0.02 19 -1.96 19 -4 19 C-4 18.34 -4 17.68 -4 17 C-2.02 17 -0.04 17 2 17 C2 16.01 2 15.02 2 14 C0.68 14.33 -0.64 14.66 -2 15 C-1.01 15.33 -0.02 15.66 1 16 C-1.31 16.33 -3.62 16.66 -6 17 C-6 16.34 -6 15.68 -6 15 C-5.01 15 -4.02 15 -3 15 C-3 11.04 -3 7.08 -3 3 C-2.01 3 -1.02 3 0 3 C0 2.01 0 1.02 0 0 Z " fill="#613117" transform="translate(30,1)"/>
<path d="M0 0 C8.91 0 17.82 0 27 0 C27 1.32 27 2.64 27 4 C27.99 4 28.98 4 30 4 C30 7.96 30 11.92 30 16 C30.99 16 31.98 16 33 16 C33 16.99 33 17.98 33 19 C33.99 19 34.98 19 36 19 C36 23.29 36 27.58 36 32 C34.68 31.67 33.36 31.34 32 31 C32.66 30.67 33.32 30.34 34 30 C34 27.03 34 24.06 34 21 C33.34 21 32.68 21 32 21 C32 23.64 32 26.28 32 29 C31.01 29 30.02 29 29 29 C29 29.66 29 30.32 29 31 C27.02 31 25.04 31 23 31 C23 31.99 23 32.98 23 34 C16.73 34 10.46 34 4 34 C4 33.01 4 32.02 4 31 C1.03 31 -1.94 31 -5 31 C-5.33 27.7 -5.66 24.4 -6 21 C-6.99 20.67 -7.98 20.34 -9 20 C-8.34 20 -7.68 20 -7 20 C-6.67 19.01 -6.34 18.02 -6 17 C-5.01 16.67 -4.02 16.34 -3 16 C-3 12.37 -3 8.74 -3 5 C-2.67 5 -2.34 5 -2 5 C-2 8.3 -2 11.6 -2 15 C-1.01 15 -0.02 15 1 15 C1 15.99 1 16.98 1 18 C-0.98 18 -2.96 18 -5 18 C-5 18.66 -5 19.32 -5 20 C-3.02 20 -1.04 20 1 20 C1 20.99 1 21.98 1 23 C9.25 23 17.5 23 26 23 C26 22.01 26 21.02 26 20 C27.98 20 29.96 20 32 20 C32 19.34 32 18.68 32 18 C30.02 18 28.04 18 26 18 C26 16.68 26 15.36 26 14 C26.66 14 27.32 14 28 14 C28 11.03 28 8.06 28 5 C27.34 5 26.68 5 26 5 C26 4.01 26 3.02 26 2 C17.75 2 9.5 2 1 2 C0.67 2.99 0.34 3.98 0 5 C0 3.35 0 1.7 0 0 Z " fill="#6C9AB3" transform="translate(31,0)"/>
<path d="M0 0 C4.95 0 9.9 0 15 0 C15 0.66 15 1.32 15 2 C17.97 2.495 17.97 2.495 21 3 C21 3.99 21 4.98 21 6 C18.69 6 16.38 6 14 6 C14 6.66 14 7.32 14 8 C16.91652174 8.16681109 16.91652174 8.16681109 20 8 C20.66 7.34 21.32 6.68 22 6 C24.43017578 5.77294922 24.43017578 5.77294922 27.4453125 5.8046875 C29.05986328 5.81435547 29.05986328 5.81435547 30.70703125 5.82421875 C31.83496094 5.84097656 32.96289062 5.85773438 34.125 5.875 C35.82849609 5.88853516 35.82849609 5.88853516 37.56640625 5.90234375 C40.37781299 5.92596902 43.18880298 5.95890987 46 6 C46 7.32 46 8.64 46 10 C40.72 10 35.44 10 30 10 C30 10.99 30 11.98 30 13 C28.35 13.66 26.7 14.32 25 15 C25 19.62 25 24.24 25 29 C23.68 29 22.36 29 21 29 C21 29.99 21 30.98 21 32 C19.35 32 17.7 32 16 32 C15.67 31.01 15.34 30.02 15 29 C15.66 29 16.32 29 17 29 C17 27.35 17 25.7 17 24 C16.34 24 15.68 24 15 24 C15 23.01 15 22.02 15 21 C14.01 21 13.02 21 12 21 C12 19.02 12 17.04 12 15 C9.03 14.67 6.06 14.34 3 14 C3 11.03 3 8.06 3 5 C2.01 5 1.02 5 0 5 C0 3.35 0 1.7 0 0 Z " fill="#2ABDD2" transform="translate(23,61)"/>
<path d="M0 0 C0.33 0.99 0.66 1.98 1 3 C0.01 3 -0.98 3 -2 3 C-2 4.65 -2 6.3 -2 8 C-1.01 8 -0.02 8 1 8 C1 7.34 1 6.68 1 6 C2.32 6 3.64 6 5 6 C4.67 7.65 4.34 9.3 4 11 C3.34 11 2.68 11 2 11 C2 13.64 2 16.28 2 19 C1.34 19 0.68 19 0 19 C0 24.61 0 30.22 0 36 C0.66 36 1.32 36 2 36 C2 39.3 2 42.6 2 46 C2.66 46 3.32 46 4 46 C4 46.66 4 47.32 4 48 C4.66 48 5.32 48 6 48 C6 48.99 6 49.98 6 51 C6.99 51 7.98 51 9 51 C9 51.99 9 52.98 9 54 C9.99 54 10.98 54 12 54 C12 54.66 12 55.32 12 56 C13.485 56.495 13.485 56.495 15 57 C14.01 57 13.02 57 12 57 C12 57.66 12 58.32 12 59 C11.01 59 10.02 59 9 59 C9 58.01 9 57.02 9 56 C8.01 56 7.02 56 6 56 C6 55.34 6 54.68 6 54 C4.68 53.67 3.36 53.34 2 53 C2 52.34 2 51.68 2 51 C1.34 51 0.68 51 0 51 C-0.66 47.7 -1.32 44.4 -2 41 C-2.99 41 -3.98 41 -5 41 C-5 43.97 -5 46.94 -5 50 C-4.01 50 -3.02 50 -2 50 C-2 50.99 -2 51.98 -2 53 C-1.01 53 -0.02 53 1 53 C0.67 53.99 0.34 54.98 0 56 C-1.32 55.34 -2.64 54.68 -4 54 C-4 53.34 -4 52.68 -4 52 C-4.99 51.67 -5.98 51.34 -7 51 C-7 47.7 -7 44.4 -7 41 C-8.32 40.67 -9.64 40.34 -11 40 C-11 33.07 -11 26.14 -11 19 C-9.68 18.34 -8.36 17.68 -7 17 C-7 13.7 -7 10.4 -7 7 C-6.34 7 -5.68 7 -5 7 C-4.67 5.35 -4.34 3.7 -4 2 C-2.68 2 -1.36 2 0 2 C0 1.34 0 0.68 0 0 Z " fill="#72ADC7" transform="translate(11,55)"/>
<path d="M0 0 C0.103125 0.639375 0.20625 1.27875 0.3125 1.9375 C0.539375 2.618125 0.76625 3.29875 1 4 C1.99 4.33 2.98 4.66 4 5 C3.01 5 2.02 5 1 5 C1 8.63 1 12.26 1 16 C1.99 16 2.98 16 4 16 C4 16.66 4 17.32 4 18 C7.63 18 11.26 18 15 18 C15 17.34 15 16.68 15 16 C16.32 16 17.64 16 19 16 C19 16.66 19 17.32 19 18 C18.01 18 17.02 18 16 18 C16 19.65 16 21.3 16 23 C16.99 23 17.98 23 19 23 C19 23.99 19 24.98 19 26 C19.99 26.33 20.98 26.66 22 27 C22 29.97 22 32.94 22 36 C21.01 36 20.02 36 19 36 C19 34.68 19 33.36 19 32 C18.34 31.67 17.68 31.34 17 31 C17.33 30.67 17.66 30.34 18 30 C16.865625 29.855625 15.73125 29.71125 14.5625 29.5625 C11 29 11 29 10 28 C9.95936168 26.33382885 9.957279 24.66611905 10 23 C9.01 23 8.02 23 7 23 C7 22.34 7 21.68 7 21 C5.35 21 3.7 21 2 21 C2 21.66 2 22.32 2 23 C2.66 23 3.32 23 4 23 C4 24.98 4 26.96 4 29 C4.66 29 5.32 29 6 29 C6.33 29.99 6.66 30.98 7 32 C7.99 32.33 8.98 32.66 10 33 C10 33.99 10 34.98 10 36 C11.98 36 13.96 36 16 36 C16 36.99 16 37.98 16 39 C16.99 39 17.98 39 19 39 C19 39.99 19 40.98 19 42 C26.26 42 33.52 42 41 42 C41 41.01 41 40.02 41 39 C42.98 39 44.96 39 47 39 C47 37.35 47 35.7 47 34 C47.66 33.67 48.32 33.34 49 33 C49.65213292 30.97536745 49.65213292 30.97536745 50 29 C51.98 29 53.96 29 56 29 C55.67 30.65 55.34 32.3 55 34 C54.34 34 53.68 34 53 34 C52.67 35.32 52.34 36.64 52 38 C51.34 38 50.68 38 50 38 C50 38.99 50 39.98 50 41 C48.02 41 46.04 41 44 41 C44 41.99 44 42.98 44 44 C33.77 44 23.54 44 13 44 C13 43.34 13 42.68 13 42 C11.02 41.67 9.04 41.34 7 41 C7 40.01 7 39.02 7 38 C6.01 38 5.02 38 4 38 C4 37.34 4 36.68 4 36 C3.34 36 2.68 36 2 36 C0.24252386 31.49646738 -0.19294408 27.82360189 0 23 C-0.99 23 -1.98 23 -3 23 C-3 18.05 -3 13.1 -3 8 C-2.01 8 -1.02 8 0 8 C0 5.36 0 2.72 0 0 Z " fill="#1DBACC" transform="translate(16,67)"/>
<path d="M0 0 C5.28 0 10.56 0 16 0 C16 2.64 16 5.28 16 8 C16.99 8 17.98 8 19 8 C19 8.99 19 9.98 19 11 C20.65 11 22.3 11 24 11 C24 11.66 24 12.32 24 13 C25.32 13 26.64 13 28 13 C28 13.99 28 14.98 28 16 C28.99 16 29.98 16 31 16 C31 16.66 31 17.32 31 18 C31.99 18 32.98 18 34 18 C34 18.99 34 19.98 34 21 C27.4 21 20.8 21 14 21 C14 20.01 14 19.02 14 18 C11.36 18 8.72 18 6 18 C6 17.01 6 16.02 6 15 C0.39 15 -5.22 15 -11 15 C-10.34 14.67 -9.68 14.34 -9 14 C-9 12.02 -9 10.04 -9 8 C-8.01 8 -7.02 8 -6 8 C-6 7.34 -6 6.68 -6 6 C-4.02 5.67 -2.04 5.34 0 5 C0 3.35 0 1.7 0 0 Z " fill="#C1E4F2" transform="translate(35,42)"/>
<path d="M0 0 C0.98291016 0.00644531 1.96582031 0.01289062 2.97851562 0.01953125 C4.00267578 0.03628906 5.02683594 0.05304688 6.08203125 0.0703125 C7.11779297 0.07933594 8.15355469 0.08835937 9.22070312 0.09765625 C11.7788781 0.1212339 14.33658873 0.1541422 16.89453125 0.1953125 C16.89453125 0.8553125 16.89453125 1.5153125 16.89453125 2.1953125 C17.88453125 2.5253125 18.87453125 2.8553125 19.89453125 3.1953125 C19.89453125 7.4853125 19.89453125 11.7753125 19.89453125 16.1953125 C18.90453125 16.1953125 17.91453125 16.1953125 16.89453125 16.1953125 C16.89453125 17.1853125 16.89453125 18.1753125 16.89453125 19.1953125 C10.62453125 19.1953125 4.35453125 19.1953125 -2.10546875 19.1953125 C-2.10546875 18.2053125 -2.10546875 17.2153125 -2.10546875 16.1953125 C-4.08546875 16.1953125 -6.06546875 16.1953125 -8.10546875 16.1953125 C-8.1862254 13.90421653 -8.24454606 11.61231983 -8.29296875 9.3203125 C-8.32777344 8.04414062 -8.36257812 6.76796875 -8.3984375 5.453125 C-8.30175781 4.37804687 -8.20507812 3.30296875 -8.10546875 2.1953125 C-4.80258539 -0.00660974 -3.83084148 -0.04428718 0 0 Z " fill="#A6865D" transform="translate(56.10546875,73.8046875)"/>
<path d="M0 0 C3.22430866 4.83646298 3.09242903 7.26939984 3 13 C5.97 13 8.94 13 12 13 C12 13.99 12 14.98 12 16 C18.27 16 24.54 16 31 16 C31 15.01 31 14.02 31 13 C32.98 13 34.96 13 37 13 C37 12.34 37 11.68 37 11 C37.99 11 38.98 11 40 11 C40 8.36 40 5.72 40 3 C40.66 3 41.32 3 42 3 C42 5.97 42 8.94 42 12 C41.34 12 40.68 12 40 12 C40 13.32 40 14.64 40 16 C38.68 16 37.36 16 36 16 C36 19.63 36 23.26 36 27 C36.99 27 37.98 27 39 27 C39 28.65 39 30.3 39 32 C38.01 32 37.02 32 36 32 C36 31.01 36 30.02 36 29 C35.34 29 34.68 29 34 29 C34 25.7 34 22.4 34 19 C33.01 19 32.02 19 31 19 C31 20.32 31 21.64 31 23 C24.73 23 18.46 23 12 23 C12 21.35 12 19.7 12 18 C11.01 18 10.02 18 9 18 C9 20.97 9 23.94 9 27 C8.01 27 7.02 27 6 27 C6 28.65 6 30.3 6 32 C5.01 32 4.02 32 3 32 C3 32.99 3 33.98 3 35 C-1.16138263 35.08159574 -4.9472484 34.98248524 -9 34 C-7.515 33.505 -7.515 33.505 -6 33 C-6 32.34 -6 31.68 -6 31 C-3.69 31 -1.38 31 1 31 C1 29.35 1 27.7 1 26 C1.99 25.67 2.98 25.34 4 25 C4 22.36 4 19.72 4 17 C3.01 17 2.02 17 1 17 C1 16.01 1 15.02 1 14 C0.01 14 -0.98 14 -2 14 C-2 9.71 -2 5.42 -2 1 C-1.34 0.67 -0.68 0.34 0 0 Z " fill="#2A475A" transform="translate(23,18)"/>
<path d="M0 0 C2.31 0 4.62 0 7 0 C7 0.66 7 1.32 7 2 C8.32 2 9.64 2 11 2 C11 2.99 11 3.98 11 5 C11.66 5 12.32 5 13 5 C13 5.66 13 6.32 13 7 C13.66 7 14.32 7 15 7 C15 7.99 15 8.98 15 10 C15.99 10 16.98 10 18 10 C18 10.99 18 11.98 18 13 C18.66 13 19.32 13 20 13 C20 16.3 20 19.6 20 23 C21.32 23.33 22.64 23.66 24 24 C24 31.59 24 39.18 24 47 C22.68 47 21.36 47 20 47 C20.05220703 48.15628906 20.05220703 48.15628906 20.10546875 49.3359375 C20.13253906 50.33882812 20.15960938 51.34171875 20.1875 52.375 C20.23970703 53.87160156 20.23970703 53.87160156 20.29296875 55.3984375 C20.19628906 56.25695312 20.09960938 57.11546875 20 58 C17.38058783 59.74627478 15.96175123 60.38722388 13 61 C13 60.34 13 59.68 13 59 C13.66 59 14.32 59 15 59 C15 58.34 15 57.68 15 57 C14.01 56.67 13.02 56.34 12 56 C12.66 56 13.32 56 14 56 C14.33 52.37 14.66 48.74 15 45 C15.66 45 16.32 45 17 45 C16.86179731 41.6871348 16.71316222 38.37482011 16.5625 35.0625 C16.52318359 34.11697266 16.48386719 33.17144531 16.44335938 32.19726562 C16.40146484 31.29814453 16.35957031 30.39902344 16.31640625 29.47265625 C16.27974854 28.64000244 16.24309082 27.80734863 16.20532227 26.94946289 C16.20632897 24.99661142 16.20632897 24.99661142 15 24 C14.71898054 21.68047431 14.55217375 19.36114486 14.37890625 17.03125 C14.25386719 16.3609375 14.12882812 15.690625 14 15 C13.34 14.67 12.68 14.34 12 14 C12 13.01 12 12.02 12 11 C10.68 11 9.36 11 8 11 C8 10.34 8 9.68 8 9 C7.01 9 6.02 9 5 9 C5 7.35 5 5.7 5 4 C3.02 4 1.04 4 -1 4 C-0.67 2.68 -0.34 1.36 0 0 Z " fill="#8598A2" transform="translate(64,49)"/>
<path d="M0 0 C1.98 0 3.96 0 6 0 C6 2.64 6 5.28 6 8 C5.01 8 4.02 8 3 8 C3 8.66 3 9.32 3 10 C2.01 10 1.02 10 0 10 C-0.33 11.32 -0.66 12.64 -1 14 C-1.99 14 -2.98 14 -4 14 C-4 18.95 -4 23.9 -4 29 C-3.01 29 -2.02 29 -1 29 C-0.34 33.29 0.32 37.58 1 42 C1.66 42 2.32 42 3 42 C3 42.66 3 43.32 3 44 C3.99 44 4.98 44 6 44 C6 44.99 6 45.98 6 47 C7.98 47.33 9.96 47.66 12 48 C12 48.66 12 49.32 12 50 C22.23 50 32.46 50 43 50 C43 49.01 43 48.02 43 47 C44.98 47 46.96 47 49 47 C49 47.99 49 48.98 49 50 C47.35 50 45.7 50 44 50 C44 50.99 44 51.98 44 53 C32.78 53 21.56 53 10 53 C9.67 52.34 9.34 51.68 9 51 C8.01 50.67 7.02 50.34 6 50 C6 49.34 6 48.68 6 48 C5.01 48 4.02 48 3 48 C3 47.01 3 46.02 3 45 C2.01 45 1.02 45 0 45 C0 44.01 0 43.02 0 42 C-0.66 42 -1.32 42 -2 42 C-2 41.34 -2 40.68 -2 40 C-2.66 40 -3.32 40 -4 40 C-4 36.7 -4 33.4 -4 30 C-4.66 30 -5.32 30 -6 30 C-6 24.39 -6 18.78 -6 13 C-5.34 13 -4.68 13 -4 13 C-4 10.36 -4 7.72 -4 5 C-3.34 5 -2.68 5 -2 5 C-1.34 3.35 -0.68 1.7 0 0 Z " fill="#1E6984" transform="translate(17,61)"/>
<path d="M0 0 C3.29159316 -0.05790353 6.58305603 -0.09356261 9.875 -0.125 C10.81214844 -0.14175781 11.74929687 -0.15851562 12.71484375 -0.17578125 C13.61074219 -0.18222656 14.50664063 -0.18867187 15.4296875 -0.1953125 C16.25710449 -0.20578613 17.08452148 -0.21625977 17.93701172 -0.22705078 C20 0 20 0 22 2 C22 3.32 22 4.64 22 6 C21.01 6 20.02 6 19 6 C19 5.01 19 4.02 19 3 C17.35 3 15.7 3 14 3 C14.33 5.97 14.66 8.94 15 12 C14.34 12 13.68 12 13 12 C13 12.99 13 13.98 13 15 C8.71 15 4.42 15 0 15 C0 13.35 0 11.7 0 10 C-1.98 10 -3.96 10 -6 10 C-5.01 9.67 -4.02 9.34 -3 9 C-3 6.69 -3 4.38 -3 2 C-2.01 2 -1.02 2 0 2 C0 1.34 0 0.68 0 0 Z " fill="#925123" transform="translate(35,5)"/>
<path d="M0 0 C0.99 0 1.98 0 3 0 C3 2.97 3 5.94 3 9 C6.63 9 10.26 9 14 9 C13.01 9.495 13.01 9.495 12 10 C12 11.98 12 13.96 12 16 C12.99 16 13.98 16 15 16 C15 16.99 15 17.98 15 19 C15.66 19 16.32 19 17 19 C17 20.32 17 21.64 17 23 C16.34 23 15.68 23 15 23 C15 22.01 15 21.02 15 20 C14.01 20 13.02 20 12 20 C12 21.32 12 22.64 12 24 C11.01 24 10.02 24 9 24 C9 22.35 9 20.7 9 19 C9.99 19 10.98 19 12 19 C12 18.34 12 17.68 12 17 C10.68 17 9.36 17 8 17 C8 17.66 8 18.32 8 19 C4.37 19 0.74 19 -3 19 C-3 18.34 -3 17.68 -3 17 C-3.99 17 -4.98 17 -6 17 C-6 13.37 -6 9.74 -6 6 C-5.01 6 -4.02 6 -3 6 C-3 5.01 -3 4.02 -3 3 C-2.01 3 -1.02 3 0 3 C0 2.01 0 1.02 0 0 Z " fill="#4DF5F9" transform="translate(23,66)"/>
<path d="M0 0 C0.99 0 1.98 0 3 0 C3 1.65 3 3.3 3 5 C2.01 5 1.02 5 0 5 C0 5.99 0 6.98 0 8 C-0.99 8 -1.98 8 -3 8 C-3 8.99 -3 9.98 -3 11 C-8.23899228 11.87266212 -13.25322853 12.13410177 -18.55859375 12.09765625 C-19.34774673 12.0962413 -20.13689972 12.09482635 -20.94996643 12.09336853 C-23.44585115 12.08781555 -25.94164285 12.07527208 -28.4375 12.0625 C-30.13997265 12.05747891 -31.84244673 12.05291707 -33.54492188 12.04882812 C-37.69664988 12.03786158 -41.84830922 12.02062991 -46 12 C-46 10.02 -46 8.04 -46 6 C-44.68 6 -43.36 6 -42 6 C-42 6.66 -42 7.32 -42 8 C-30.78 8 -19.56 8 -8 8 C-8 7.01 -8 6.02 -8 5 C-6.35 5 -4.7 5 -3 5 C-3 4.01 -3 3.02 -3 2 C-2.01 2 -1.02 2 0 2 C0 1.34 0 0.68 0 0 Z " fill="#9DC5D9" transform="translate(69,106)"/>
<path d="M0 0 C7.26 0 14.52 0 22 0 C22 0.66 22 1.32 22 2 C22.66 2 23.32 2 24 2 C24 8.27 24 14.54 24 21 C23.34 21 22.68 21 22 21 C22 23.31 22 25.62 22 28 C20.68 28 19.36 28 18 28 C18 29.98 18 31.96 18 34 C17.01 34 16.02 34 15 34 C15 34.66 15 35.32 15 36 C14.01 36 13.02 36 12 36 C12 35.01 12 34.02 12 33 C12.99 32.505 12.99 32.505 14 32 C14.33 31.01 14.66 30.02 15 29 C15.66 29 16.32 29 17 29 C17.33 27.35 17.66 25.7 18 24 C12.06 24 6.12 24 0 24 C-0.33 23.01 -0.66 22.02 -1 21 C-1.66 21 -2.32 21 -3 21 C-3 20.01 -3 19.02 -3 18 C-2.01 18 -1.02 18 0 18 C0 18.99 0 19.98 0 21 C6.27 21 12.54 21 19 21 C19 20.01 19 19.02 19 18 C19.99 18 20.98 18 22 18 C21.88655624 15.8535247 21.75893655 13.70779408 21.625 11.5625 C21.55539063 10.36753906 21.48578125 9.17257813 21.4140625 7.94140625 C21.27742188 6.97074219 21.14078125 6.00007813 21 5 C20.34 4.67 19.68 4.34 19 4 C19 3.34 19 2.68 19 2 C12.73 2 6.46 2 0 2 C0 1.34 0 0.68 0 0 Z " fill="#226484" transform="translate(54,72)"/>
<path d="M0 0 C0.103125 0.639375 0.20625 1.27875 0.3125 1.9375 C0.539375 2.618125 0.76625 3.29875 1 4 C1.99 4.33 2.98 4.66 4 5 C3.01 5 2.02 5 1 5 C1 8.63 1 12.26 1 16 C1.99 16 2.98 16 4 16 C4 16.66 4 17.32 4 18 C7.63 18 11.26 18 15 18 C15 17.34 15 16.68 15 16 C16.32 16 17.64 16 19 16 C19 16.66 19 17.32 19 18 C18.01 18 17.02 18 16 18 C16 19.65 16 21.3 16 23 C16.99 23 17.98 23 19 23 C19 23.99 19 24.98 19 26 C19.99 26.33 20.98 26.66 22 27 C22 29.97 22 32.94 22 36 C21.01 36 20.02 36 19 36 C19 34.68 19 33.36 19 32 C18.34 31.67 17.68 31.34 17 31 C17.33 30.67 17.66 30.34 18 30 C16.865625 29.855625 15.73125 29.71125 14.5625 29.5625 C11 29 11 29 10 28 C9.95936168 26.33382885 9.957279 24.66611905 10 23 C9.01 23 8.02 23 7 23 C7 22.34 7 21.68 7 21 C5.35 21 3.7 21 2 21 C1.67 21.66 1.34 22.32 1 23 C0.01 22.67 -0.98 22.34 -2 22 C-2 17.38 -2 12.76 -2 8 C-1.34 8 -0.68 8 0 8 C0 5.36 0 2.72 0 0 Z " fill="#28BCCE" transform="translate(16,67)"/>
<path d="M0 0 C5.28 0 10.56 0 16 0 C16 0.99 16 1.98 16 3 C16.66 2.67 17.32 2.34 18 2 C19.99960012 1.960008 22.00047242 1.95653201 24 2 C23.67 2.66 23.34 3.32 23 4 C22.34 4 21.68 4 21 4 C21 8.62 21 13.24 21 18 C19.68 18 18.36 18 17 18 C17 18.99 17 19.98 17 21 C15.35 21 13.7 21 12 21 C11.67 20.01 11.34 19.02 11 18 C11.66 18 12.32 18 13 18 C13 16.35 13 14.7 13 13 C12.34 13 11.68 13 11 13 C11 11.68 11 10.36 11 9 C10.34 9 9.68 9 9 9 C9 7.68 9 6.36 9 5 C9.66 5 10.32 5 11 5 C11 4.01 11 3.02 11 2 C7.37 2 3.74 2 0 2 C0 1.34 0 0.68 0 0 Z " fill="#18AAC7" transform="translate(27,72)"/>
<path d="M0 0 C2.02558881 3.34939881 2.21738987 5.86962551 2.125 9.75 C2.10695313 10.73484375 2.08890625 11.7196875 2.0703125 12.734375 C2.03550781 13.85585937 2.03550781 13.85585937 2 15 C1.34 15 0.68 15 0 15 C-0.33 25.23 -0.66 35.46 -1 46 C-1.33 46 -1.66 46 -2 46 C-2 42.7 -2 39.4 -2 36 C-3.32 35.67 -4.64 35.34 -6 35 C-6 28.07 -6 21.14 -6 14 C-4.68 13.34 -3.36 12.68 -2 12 C-2 8.7 -2 5.4 -2 2 C-1.34 2 -0.68 2 0 2 C0 1.34 0 0.68 0 0 Z " fill="#4D5F69" transform="translate(6,60)"/>
<path d="M0 0 C5.94 0 11.88 0 18 0 C18 0.33 18 0.66 18 1 C13.05 1 8.1 1 3 1 C3 2.32 3 3.64 3 5 C6.96 5 10.92 5 15 5 C15 5.66 15 6.32 15 7 C13.02 7 11.04 7 9 7 C9 8.32 9 9.64 9 11 C10.98 11 12.96 11 15 11 C15 11.33 15 11.66 15 12 C10.71 12 6.42 12 2 12 C2 9.69 2 7.38 2 5 C1.34 5 0.68 5 0 5 C0.33 7.64 0.66 10.28 1 13 C5.33085971 14.29925791 9.51474352 15.343621 14 16 C14 16.33 14 16.66 14 17 C9.38 17 4.76 17 0 17 C0 16.34 0 15.68 0 15 C-0.99 15 -1.98 15 -3 15 C-3 10.71 -3 6.42 -3 2 C-2.01 2 -1.02 2 0 2 C0 1.34 0 0.68 0 0 Z " fill="#EDCE9D" transform="translate(54,75)"/>
<path d="M0 0 C0.66 0.33 1.32 0.66 2 1 C3.8863912 1.084915 5.77578515 1.107193 7.6640625 1.09765625 C9.34628906 1.09282227 9.34628906 1.09282227 11.0625 1.08789062 C12.8259375 1.07532227 12.8259375 1.07532227 14.625 1.0625 C15.80835937 1.05798828 16.99171875 1.05347656 18.2109375 1.04882812 C21.14067507 1.03701467 24.07031272 1.02054258 27 1 C27 1.99 27 2.98 27 4 C27.66 4 28.32 4 29 4 C29 6.97 29 9.94 29 13 C28.34 13 27.68 13 27 13 C26.855625 11.865625 26.71125 10.73125 26.5625 9.5625 C26.38828522 6.19222799 26.38828522 6.19222799 25 5 C23.51361008 4.84344973 22.02050873 4.74933057 20.52734375 4.68359375 C19.17866211 4.62075195 19.17866211 4.62075195 17.80273438 4.55664062 C16.85720703 4.51732422 15.91167969 4.47800781 14.9375 4.4375 C13.98810547 4.39431641 13.03871094 4.35113281 12.06054688 4.30664062 C9.70718647 4.20020724 7.35371646 4.09818992 5 4 C5 4.66 5 5.32 5 6 C4.01 6 3.02 6 2 6 C2 8.31 2 10.62 2 13 C1.01 13 0.02 13 -1 13 C-1.33 13.66 -1.66 14.32 -2 15 C-1.01 15.33 -0.02 15.66 1 16 C-1.31 16.33 -3.62 16.66 -6 17 C-6 16.34 -6 15.68 -6 15 C-5.01 15 -4.02 15 -3 15 C-3 11.04 -3 7.08 -3 3 C-2.01 3 -1.02 3 0 3 C0 2.01 0 1.02 0 0 Z " fill="#4C2F1D" transform="translate(30,1)"/>
<path d="M0 0 C4.29 0.33 8.58 0.66 13 1 C12.67 2.65 12.34 4.3 12 6 C11.34 6 10.68 6 10 6 C10 7.65 10 9.3 10 11 C8.02 11 6.04 11 4 11 C4 11.99 4 12.98 4 14 C-3.26 14 -10.52 14 -18 14 C-18 13.67 -18 13.34 -18 13 C-17.09636719 12.93941406 -16.19273438 12.87882812 -15.26171875 12.81640625 C-14.08222656 12.73261719 -12.90273438 12.64882812 -11.6875 12.5625 C-9.92986328 12.44068359 -9.92986328 12.44068359 -8.13671875 12.31640625 C-4.97409042 12.1132629 -4.97409042 12.1132629 -2 11 C-2 10.01 -2 9.02 -2 8 C-1.01 8 -0.02 8 1 8 C0.67 5.36 0.34 2.72 0 0 Z " fill="#1FC4CD" transform="translate(53,95)"/>
<path d="M0 0 C0.33 0.99 0.66 1.98 1 3 C0.01 3 -0.98 3 -2 3 C-2 4.65 -2 6.3 -2 8 C-1.01 8 -0.02 8 1 8 C1 7.34 1 6.68 1 6 C2.32 6 3.64 6 5 6 C4.67 7.65 4.34 9.3 4 11 C3.34 11 2.68 11 2 11 C2 13.64 2 16.28 2 19 C1.01 19 0.02 19 -1 19 C-1 24.94 -1 30.88 -1 37 C-1.66 37 -2.32 37 -3 37 C-4.5056904 31.19233704 -5.21824777 26.0018137 -5 20 C-4.34 20 -3.68 20 -3 20 C-3 16.37 -3 12.74 -3 9 C-3.99 8.67 -4.98 8.34 -6 8 C-5.34 8 -4.68 8 -4 8 C-4 6.02 -4 4.04 -4 2 C-2.68 2 -1.36 2 0 2 C0 1.34 0 0.68 0 0 Z " fill="#AFD4DF" transform="translate(11,55)"/>
<path d="M0 0 C0.33 0.99 0.66 1.98 1 3 C3.31 3 5.62 3 8 3 C8 3.99 8 4.98 8 6 C12.95 6.33 17.9 6.66 23 7 C23 7.33 23 7.66 23 8 C17.06 8 11.12 8 5 8 C5 8.99 5 9.98 5 11 C3.02 11 1.04 11 -1 11 C-1.33 11.66 -1.66 12.32 -2 13 C-2 12.34 -2 11.68 -2 11 C-3.32 11 -4.64 11 -6 11 C-6 11.66 -6 12.32 -6 13 C-6.99 13 -7.98 13 -9 13 C-9 11.35 -9 9.7 -9 8 C-8.01 8 -7.02 8 -6 8 C-7.32 7.34 -8.64 6.68 -10 6 C-9.34 6 -8.68 6 -8 6 C-8 5.34 -8 4.68 -8 4 C-7.01 4 -6.02 4 -5 4 C-5 3.34 -5 2.68 -5 2 C-3.35 2 -1.7 2 0 2 C0 1.34 0 0.68 0 0 Z " fill="#AAD1DF" transform="translate(18,50)"/>
<path d="M0 0 C1.98 0 3.96 0 6 0 C5.67 1.65 5.34 3.3 5 5 C4.34 5 3.68 5 3 5 C2.67 6.32 2.34 7.64 2 9 C1.34 9 0.68 9 0 9 C0 9.99 0 10.98 0 12 C-1.98 12 -3.96 12 -6 12 C-6 12.99 -6 13.98 -6 15 C-16.23 15 -26.46 15 -37 15 C-37 14.34 -37 13.68 -37 13 C-39.97 12.505 -39.97 12.505 -43 12 C-43 11.01 -43 10.02 -43 9 C-43.99 9 -44.98 9 -46 9 C-46 8.34 -46 7.68 -46 7 C-42.65626525 7.55728913 -39.96687001 8.35173889 -37 10 C-37 10.66 -37 11.32 -37 12 C-33.75921875 12.94466756 -30.72774345 13.19098828 -27.359375 13.31640625 C-26.28945313 13.35830078 -25.21953125 13.40019531 -24.1171875 13.44335938 C-23.00601563 13.48267578 -21.89484375 13.52199219 -20.75 13.5625 C-19.62335937 13.60568359 -18.49671875 13.64886719 -17.3359375 13.69335938 C-14.55741046 13.79932015 -11.77879609 13.90139142 -9 14 C-9 12.68 -9 11.36 -9 10 C-7.02 10 -5.04 10 -3 10 C-3 8.35 -3 6.7 -3 5 C-2.34 4.67 -1.68 4.34 -1 4 C-0.34786708 1.97536745 -0.34786708 1.97536745 0 0 Z " fill="#209AB3" transform="translate(66,96)"/>
<path d="M0 0 C10.23 0 20.46 0 31 0 C31 0.99 31 1.98 31 3 C29.02 3 27.04 3 25 3 C25 3.66 25 4.32 25 5 C17.74 5 10.48 5 3 5 C3 4.34 3 3.68 3 3 C2.01 3 1.02 3 0 3 C0 2.01 0 1.02 0 0 Z " fill="#DBEBF0" transform="translate(29,23)"/>
<path d="M0 0 C8.91 0 17.82 0 27 0 C27 1.32 27 2.64 27 4 C27.99 4 28.98 4 30 4 C30 7.96 30 11.92 30 16 C30.99 16 31.98 16 33 16 C33 16.99 33 17.98 33 19 C33.99 19 34.98 19 36 19 C36 23.29 36 27.58 36 32 C34.68 31.67 33.36 31.34 32 31 C32.66 30.67 33.32 30.34 34 30 C34 27.03 34 24.06 34 21 C33.34 21 32.68 21 32 21 C32 20.01 32 19.02 32 18 C30.02 18 28.04 18 26 18 C26 16.68 26 15.36 26 14 C26.66 14 27.32 14 28 14 C28 11.03 28 8.06 28 5 C27.34 5 26.68 5 26 5 C26 4.01 26 3.02 26 2 C17.75 2 9.5 2 1 2 C0.67 2.99 0.34 3.98 0 5 C0 3.35 0 1.7 0 0 Z " fill="#999290" transform="translate(31,0)"/>
<path d="M0 0 C1.98 0 3.96 0 6 0 C6 0.99 6 1.98 6 3 C4.35 3 2.7 3 1 3 C1 3.99 1 4.98 1 6 C-10.22 6 -21.44 6 -33 6 C-33.33 5.34 -33.66 4.68 -34 4 C-34.99 3.67 -35.98 3.34 -37 3 C-37 2.34 -37 1.68 -37 1 C-35.02 1 -33.04 1 -31 1 C-31 1.66 -31 2.32 -31 3 C-20.77 3 -10.54 3 0 3 C0 2.01 0 1.02 0 0 Z " fill="#1E5D76" transform="translate(60,108)"/>
<path d="M0 0 C0.66 0 1.32 0 2 0 C2 2.31 2 4.62 2 7 C5.465 6.505 5.465 6.505 9 6 C9 5.67 9 5.34 9 5 C12.63 5 16.26 5 20 5 C19.67 7.64 19.34 10.28 19 13 C12.73 13 6.46 13 0 13 C0 12.67 0 12.34 0 12 C2.64 11.67 5.28 11.34 8 11 C6.865625 10.690625 5.73125 10.38125 4.5625 10.0625 C1 9 1 9 0 8 C-0.14115161 5.32941149 -0.04247107 2.67567762 0 0 Z " fill="#9F7B4E" transform="translate(54,80)"/>
<path d="M0 0 C0.66 0 1.32 0 2 0 C3.05131414 18.99874844 3.05131414 18.99874844 3.25 27.125 C3.28867188 28.49011719 3.28867188 28.49011719 3.328125 29.8828125 C3.21984375 30.58148438 3.1115625 31.28015625 3 32 C0.38058783 33.74627478 -1.03824877 34.38722388 -4 35 C-4 34.34 -4 33.68 -4 33 C-3.34 33 -2.68 33 -2 33 C-2 32.34 -2 31.68 -2 31 C-2.99 30.67 -3.98 30.34 -5 30 C-4.34 30 -3.68 30 -3 30 C-2.67 26.37 -2.34 22.74 -2 19 C-1.34 19 -0.68 19 0 19 C0 12.73 0 6.46 0 0 Z " fill="#6693B1" transform="translate(81,75)"/>
<path d="M0 0 C2.91691525 -0.05401695 5.83282724 -0.09368066 8.75 -0.125 C9.575 -0.14175781 10.4 -0.15851562 11.25 -0.17578125 C12.04921875 -0.18222656 12.8484375 -0.18867187 13.671875 -0.1953125 C14.4050293 -0.20578613 15.13818359 -0.21625977 15.89355469 -0.22705078 C18.29896076 0.03222456 19.91251494 0.80774075 22 2 C21.01 2 20.02 2 19 2 C19 3.32 19 4.64 19 6 C12.73 6 6.46 6 0 6 C0 4.02 0 2.04 0 0 Z " fill="#73543A" transform="translate(35,35)"/>
<path d="M0 0 C0.495 1.485 0.495 1.485 1 3 C0.236875 3.5775 -0.52625 4.155 -1.3125 4.75 C-4.00214145 6.7822972 -4.00214145 6.7822972 -5.38850403 9.11224365 C-7 11 -7 11 -9.06913757 11.48101807 C-10.25827507 11.4676944 -10.25827507 11.4676944 -11.47143555 11.45410156 C-12.37214279 11.45379944 -13.27285004 11.45349731 -14.20085144 11.45318604 C-15.16968765 11.43254089 -16.13852386 11.41189575 -17.13671875 11.390625 C-18.62858452 11.38213531 -18.62858452 11.38213531 -20.15058899 11.37347412 C-23.33004711 11.3510672 -26.508382 11.30086205 -29.6875 11.25 C-31.84178061 11.22994062 -33.99607887 11.21168887 -36.15039062 11.1953125 C-41.43397758 11.15118852 -46.71690855 11.08423379 -52 11 C-51.67 9.68 -51.34 8.36 -51 7 C-51 7.66 -51 8.32 -51 9 C-36.81 9 -22.62 9 -8 9 C-8 8.34 -8 7.68 -8 7 C-7.34 7 -6.68 7 -6 7 C-5.67 6.01 -5.34 5.02 -5 4 C-4.34 4 -3.68 4 -3 4 C-3 3.34 -3 2.68 -3 2 C-2.01 1.34 -1.02 0.68 0 0 Z " fill="#828C94" transform="translate(74,112)"/>
<path d="M0 0 C0.99 0 1.98 0 3 0 C3 3.63 3 7.26 3 11 C2.01 11 1.02 11 0 11 C0 13.64 0 16.28 0 19 C-0.99 19 -1.98 19 -3 19 C-3 18.34 -3 17.68 -3 17 C-3.99 17 -4.98 17 -6 17 C-6 13.37 -6 9.74 -6 6 C-5.01 6 -4.02 6 -3 6 C-3 5.01 -3 4.02 -3 3 C-2.01 3 -1.02 3 0 3 C0 2.01 0 1.02 0 0 Z " fill="#D3F6FB" transform="translate(23,66)"/>
<path d="M0 0 C0.66 0 1.32 0 2 0 C2 0.66 2 1.32 2 2 C11.9 2 21.8 2 32 2 C32 3.98 32 5.96 32 8 C24.74 8 17.48 8 10 8 C9.67 8.66 9.34 9.32 9 10 C9 9.01 9 8.02 9 7 C14.28 7 19.56 7 25 7 C25 5.68 25 4.36 25 3 C21.0827588 3.10995451 17.16647155 3.24056734 13.25 3.375 C12.13882813 3.4059375 11.02765625 3.436875 9.8828125 3.46875 C8.27792969 3.52675781 8.27792969 3.52675781 6.640625 3.5859375 C5.16384277 3.63306885 5.16384277 3.63306885 3.65722656 3.68115234 C0.97304808 4.00323403 -0.64347139 4.7470887 -3 6 C-5.25 5.625 -5.25 5.625 -7 5 C-7 4.34 -7 3.68 -7 3 C-4.69 3 -2.38 3 0 3 C0 2.01 0 1.02 0 0 Z " fill="#21C3D4" transform="translate(44,64)"/>
<path d="M0 0 C0.99 0 1.98 0 3 0 C3 1.65 3 3.3 3 5 C9.27 5 15.54 5 22 5 C22 3.68 22 2.36 22 1 C22.99 1 23.98 1 25 1 C25 4.3 25 7.6 25 11 C25.66 11.33 26.32 11.66 27 12 C25.35 12 23.7 12 22 12 C22 10.02 22 8.04 22 6 C15.73 6 9.46 6 3 6 C3 7.65 3 9.3 3 11 C1.02 11.33 -0.96 11.66 -3 12 C-3 11.01 -3 10.02 -3 9 C-2.01 9 -1.02 9 0 9 C0 6.03 0 3.06 0 0 Z " fill="#6B8493" transform="translate(32,36)"/>
<path d="M0 0 C4.95 0 9.9 0 15 0 C15 0.66 15 1.32 15 2 C17.97 2.495 17.97 2.495 21 3 C21 3.99 21 4.98 21 6 C18.69 6 16.38 6 14 6 C14 5.01 14 4.02 14 3 C12.35 3 10.7 3 9 3 C9 3.99 9 4.98 9 6 C6.03 5.67 3.06 5.34 0 5 C0 3.35 0 1.7 0 0 Z " fill="#37DAE3" transform="translate(23,61)"/>
<path d="M0 0 C1.98 0 3.96 0 6 0 C6 2.97 6 5.94 6 9 C1.70394268 9.82222554 -2.33966603 10.11770795 -6.7109375 10.09765625 C-7.95488281 10.09443359 -9.19882812 10.09121094 -10.48046875 10.08789062 C-11.76566406 10.07951172 -13.05085938 10.07113281 -14.375 10.0625 C-15.68339844 10.05798828 -16.99179687 10.05347656 -18.33984375 10.04882812 C-21.55994281 10.03707594 -24.7799477 10.02064543 -28 10 C-28 8.68 -28 7.36 -28 6 C-27.01 6 -26.02 6 -25 6 C-25 6.66 -25 7.32 -25 8 C-17.74 8 -10.48 8 -3 8 C-3 7.34 -3 6.68 -3 6 C-1.02 6 0.96 6 3 6 C3 5.01 3 4.02 3 3 C2.01 3 1.02 3 0 3 C0 2.01 0 1.02 0 0 Z " fill="#A6D0E4" transform="translate(57,20)"/>
<path d="M0 0 C0.33 0.66 0.66 1.32 1 2 C1.99 2 2.98 2 4 2 C4 7.28 4 12.56 4 18 C3.01 18 2.02 18 1 18 C1 18.99 1 19.98 1 21 C-3.16138263 21.08159574 -6.9472484 20.98248524 -11 20 C-10.01 19.67 -9.02 19.34 -8 19 C-8 18.34 -8 17.68 -8 17 C-5.69 17 -3.38 17 -1 17 C-1 15.35 -1 13.7 -1 12 C-0.01 11.67 0.98 11.34 2 11 C2 8.36 2 5.72 2 3 C1.34 3 0.68 3 0 3 C0 2.01 0 1.02 0 0 Z " fill="#6F7E88" transform="translate(25,32)"/>
<path d="M0 0 C0.66 1.32 1.32 2.64 2 4 C5.29237055 3.89040282 8.58356887 3.75971069 11.875 3.625 C12.81214844 3.5940625 13.74929687 3.563125 14.71484375 3.53125 C15.61074219 3.49257813 16.50664063 3.45390625 17.4296875 3.4140625 C18.25710449 3.3826416 19.08452148 3.3512207 19.93701172 3.31884766 C22.21986085 3.17400863 22.21986085 3.17400863 24 1 C27.625 0.875 27.625 0.875 31 1 C31 1.66 31 2.32 31 3 C29.02 3 27.04 3 25 3 C25 3.99 25 4.98 25 6 C16.75 6 8.5 6 0 6 C0 5.01 0 4.02 0 3 C-1.98 3 -3.96 3 -6 3 C-6 2.34 -6 1.68 -6 1 C-4.02 0.67 -2.04 0.34 0 0 Z " fill="#4A3F3C" transform="translate(32,17)"/>
<path d="M0 0 C1.98 0 3.96 0 6 0 C6 0.99 6 1.98 6 3 C6.99 3 7.98 3 9 3 C9 3.66 9 4.32 9 5 C10.32 5 11.64 5 13 5 C13 5.99 13 6.98 13 8 C13.66 8 14.32 8 15 8 C15 11.3 15 14.6 15 18 C14.34 18 13.68 18 13 18 C13 15.69 13 13.38 13 11 C11.68 11 10.36 11 9 11 C9 10.01 9 9.02 9 8 C8.01 8 7.02 8 6 8 C6 7.01 6 6.02 6 5 C5.01 5 4.02 5 3 5 C3 4.34 3 3.68 3 3 C2.01 3 1.02 3 0 3 C0 2.01 0 1.02 0 0 Z " fill="#8DBFD8" transform="translate(63,55)"/>
<path d="M0 0 C7.26 0 14.52 0 22 0 C22 0.66 22 1.32 22 2 C22.66 2 23.32 2 24 2 C24.05384521 4.29141286 24.09272087 6.58318188 24.125 8.875 C24.14820312 10.15117188 24.17140625 11.42734375 24.1953125 12.7421875 C24 16 24 16 22 18 C21.95101562 17.07316406 21.90203125 16.14632812 21.8515625 15.19140625 C21.77679688 13.99386719 21.70203125 12.79632813 21.625 11.5625 C21.55539063 10.36753906 21.48578125 9.17257813 21.4140625 7.94140625 C21.27742188 6.97074219 21.14078125 6.00007813 21 5 C20.34 4.67 19.68 4.34 19 4 C19 3.34 19 2.68 19 2 C12.73 2 6.46 2 0 2 C0 1.34 0 0.68 0 0 Z " fill="#594337" transform="translate(54,72)"/>
<path d="M0 0 C5.94 0 11.88 0 18 0 C18 0.99 18 1.98 18 3 C20.31 3 22.62 3 25 3 C25 3.66 25 4.32 25 5 C21.7 5 18.4 5 15 5 C15 4.34 15 3.68 15 3 C10.05 3 5.1 3 0 3 C0 2.01 0 1.02 0 0 Z " fill="#196B7E" transform="translate(23,58)"/>
<path d="M0 0 C1.98 0 3.96 0 6 0 C6 2.64 6 5.28 6 8 C5.01 8 4.02 8 3 8 C3 8.66 3 9.32 3 10 C2.01 10 1.02 10 0 10 C-0.33 11.32 -0.66 12.64 -1 14 C-1.66 13.67 -2.32 13.34 -3 13 C-2.67 10.69 -2.34 8.38 -2 6 C-2.66 5.67 -3.32 5.34 -4 5 C-3.34 5 -2.68 5 -2 5 C-1.34 3.35 -0.68 1.7 0 0 Z " fill="#339AB5" transform="translate(17,61)"/>
<path d="M0 0 C7.59 0 15.18 0 23 0 C23 1.32 23 2.64 23 4 C15.14453364 4.31918373 7.73059495 3.35709504 0 2 C0 1.34 0 0.68 0 0 Z " fill="#3EE5EB" transform="translate(46,67)"/>
<path d="M0 0 C2.31 0 4.62 0 7 0 C7 0.66 7 1.32 7 2 C8.98 2 10.96 2 13 2 C13 2.99 13 3.98 13 5 C10.36 5 7.72 5 5 5 C5 4.34 5 3.68 5 3 C4.34 3 3.68 3 3 3 C2.67 4.98 2.34 6.96 2 9 C1.34 9 0.68 9 0 9 C0 8.34 0 7.68 0 7 C-0.99 6.67 -1.98 6.34 -3 6 C-3 4.68 -3 3.36 -3 2 C-2.01 2 -1.02 2 0 2 C0 1.34 0 0.68 0 0 Z " fill="#B8753F" transform="translate(35,5)"/>
<path d="M0 0 C3.22430866 4.83646298 3.09242903 7.26939984 3 13 C5.97 13 8.94 13 12 13 C12 13.33 12 13.66 12 14 C8.7 14 5.4 14 2 14 C1.67 14.99 1.34 15.98 1 17 C1 16.01 1 15.02 1 14 C0.01 14 -0.98 14 -2 14 C-2 9.71 -2 5.42 -2 1 C-1.34 0.67 -0.68 0.34 0 0 Z " fill="#314855" transform="translate(23,18)"/>
<path d="M0 0 C1.65 0 3.3 0 5 0 C5 0.66 5 1.32 5 2 C4.34 2 3.68 2 3 2 C3 3.32 3 4.64 3 6 C1.02 6.66 -0.96 7.32 -3 8 C-3 8.66 -3 9.32 -3 10 C-4.375 11.625 -4.375 11.625 -6 13 C-6.66 13 -7.32 13 -8 13 C-8.33 13.66 -8.66 14.32 -9 15 C-9 14.34 -9 13.68 -9 13 C-10.65 13 -12.3 13 -14 13 C-14 12.67 -14 12.34 -14 12 C-12.35 11.67 -10.7 11.34 -9 11 C-8.67 10.01 -8.34 9.02 -8 8 C-7.01 8 -6.02 8 -5 8 C-5 7.01 -5 6.02 -5 5 C-4.01 5 -3.02 5 -2 5 C-2 4.34 -2 3.68 -2 3 C-1.34 3 -0.68 3 0 3 C0 2.01 0 1.02 0 0 Z " fill="#3E5E72" transform="translate(74,106)"/>
<path d="M0 0 C0.33 0.66 0.66 1.32 1 2 C2.216875 1.979375 3.43375 1.95875 4.6875 1.9375 C7.91977322 1.93175884 10.84934741 2.21233685 14 3 C14 3.33 14 3.66 14 4 C12.02 4 10.04 4 8 4 C8 4.99 8 5.98 8 7 C4.7 7.33 1.4 7.66 -2 8 C-2 6.68 -2 5.36 -2 4 C-2.99 4 -3.98 4 -5 4 C-3.74458443 1.48916886 -2.49936512 1.12874554 0 0 Z " fill="#2FD3E4" transform="translate(45,67)"/>
<path d="M0 0 C0.33 0 0.66 0 1 0 C1.33 3.3 1.66 6.6 2 10 C2.99 10.33 3.98 10.66 5 11 C5 11.99 5 12.98 5 14 C5.99 14 6.98 14 8 14 C8 18.29 8 22.58 8 27 C6.68 26.67 5.36 26.34 4 26 C4.66 25.67 5.32 25.34 6 25 C6 22.03 6 19.06 6 16 C5.34 16 4.68 16 4 16 C4 15.01 4 14.02 4 13 C2.02 13 0.04 13 -2 13 C-2 11.68 -2 10.36 -2 9 C-1.34 9 -0.68 9 0 9 C0 6.03 0 3.06 0 0 Z " fill="#5E6E77" transform="translate(59,5)"/>
<path d="M0 0 C0.99 0 1.98 0 3 0 C3 6.93 3 13.86 3 21 C2.01 20.67 1.02 20.34 0 20 C0 13.4 0 6.8 0 0 Z " fill="#2F4D64" transform="translate(83,75)"/>
<path d="M0 0 C3.63 0 7.26 0 11 0 C10.67 2.64 10.34 5.28 10 8 C3.73 8 -2.54 8 -9 8 C-9 7.67 -9 7.34 -9 7 C-6.36 6.67 -3.72 6.34 -1 6 C-1 5.67 -1 5.34 -1 5 C2.07617188 4.70703125 2.07617188 4.70703125 5.15234375 4.4140625 C6.06693359 4.20910156 6.06693359 4.20910156 7 4 C7.33 3.34 7.66 2.68 8 2 C5.36 1.67 2.72 1.34 0 1 C0 0.67 0 0.34 0 0 Z " fill="#C4A073" transform="translate(63,85)"/>
<path d="M0 0 C0.99 0 1.98 0 3 0 C3 2.97 3 5.94 3 9 C2.01 9 1.02 9 0 9 C0 9.66 0 10.32 0 11 C-0.99 11 -1.98 11 -3 11 C-3 11.66 -3 12.32 -3 13 C-4.65 13 -6.3 13 -8 13 C-8.33 12.01 -8.66 11.02 -9 10 C-7.02 10 -5.04 10 -3 10 C-3 9.34 -3 8.68 -3 8 C-2.34 8 -1.68 8 -1 8 C-1.020625 6.865625 -1.04125 5.73125 -1.0625 4.5625 C-1 1 -1 1 0 0 Z " fill="#E6F7FA" transform="translate(38,42)"/>
<path d="M0 0 C0.99 0 1.98 0 3 0 C3 0.99 3 1.98 3 3 C9.27 3 15.54 3 22 3 C22 2.01 22 1.02 22 0 C22.66 0 23.32 0 24 0 C24 1.65 24 3.3 24 5 C16.74 5 9.48 5 2 5 C2 4.34 2 3.68 2 3 C1.34 3 0.68 3 0 3 C0 2.01 0 1.02 0 0 Z " fill="#4F4431" transform="translate(51,90)"/>
<path d="M0 0 C0.33 0 0.66 0 1 0 C1.61326035 9.3412692 2.1820896 18.63250185 2 28 C1.67 28 1.34 28 1 28 C0.67 26.02 0.34 24.04 0 22 C-1.32 21.67 -2.64 21.34 -4 21 C-4 17.04 -4 13.08 -4 9 C-3.67 9 -3.34 9 -3 9 C-2.67 11.97 -2.34 14.94 -2 18 C-1.34 18 -0.68 18 0 18 C0 12.06 0 6.12 0 0 Z " fill="#89B7CA" transform="translate(10,74)"/>
<path d="M0 0 C1.32 0 2.64 0 4 0 C4 5.61 4 11.22 4 17 C3.34 17 2.68 17 2 17 C0.4943096 11.19233704 -0.21824777 6.0018137 0 0 Z " fill="#C0E1F0" transform="translate(6,75)"/>
<path d="M0 0 C0.99 0.33 1.98 0.66 3 1 C2.67 3.31 2.34 5.62 2 8 C1.34 8 0.68 8 0 8 C0 8.66 0 9.32 0 10 C-2.64 10.66 -5.28 11.32 -8 12 C-8.33 10.68 -8.66 9.36 -9 8 C-8.01 8 -7.02 8 -6 8 C-6 7.34 -6 6.68 -6 6 C-4.02 5.67 -2.04 5.34 0 5 C0 3.35 0 1.7 0 0 Z " fill="#B5D8E6" transform="translate(35,42)"/>
<path d="M0 0 C2.475 0.495 2.475 0.495 5 1 C5 1.99 5 2.98 5 4 C5.66 4 6.32 4 7 4 C7 7.3 7 10.6 7 14 C5.68 13.67 4.36 13.34 3 13 C2.92652344 12.04287109 2.92652344 12.04287109 2.8515625 11.06640625 C2.77679688 10.24011719 2.70203125 9.41382812 2.625 8.5625 C2.55539063 7.73878906 2.48578125 6.91507812 2.4140625 6.06640625 C2.27742188 5.38449219 2.14078125 4.70257813 2 4 C1.34 3.67 0.68 3.34 0 3 C0 2.01 0 1.02 0 0 Z " fill="#3D6177" transform="translate(76,60)"/>
<path d="M0 0 C0.33 0 0.66 0 1 0 C1 4.62 1 9.24 1 14 C2.98 14.495 2.98 14.495 5 15 C6.81115956 16.81115956 6.38199448 19.61278227 6.5625 22.0625 C6.64628906 23.16722656 6.73007812 24.27195312 6.81640625 25.41015625 C6.87699219 26.26480469 6.93757813 27.11945313 7 28 C6.34 28 5.68 28 5 28 C3.24252386 23.49646738 2.80705592 19.82360189 3 15 C2.01 15 1.02 15 0 15 C0 10.05 0 5.1 0 0 Z " fill="#1EA1BA" transform="translate(13,75)"/>
<path d="M0 0 C1.65 0 3.3 0 5 0 C5 0.99 5 1.98 5 3 C5.99 3.33 6.98 3.66 8 4 C7.67 4.66 7.34 5.32 7 6 C5.35 5.67 3.7 5.34 2 5 C2 6.32 2 7.64 2 9 C2.66 9 3.32 9 4 9 C4 9.99 4 10.98 4 12 C2.35 12 0.7 12 -1 12 C-1 11.01 -1 10.02 -1 9 C-0.34 9 0.32 9 1 9 C0.67 6.03 0.34 3.06 0 0 Z " fill="#7E4219" transform="translate(49,8)"/>
<path d="M0 0 C1.32 0 2.64 0 4 0 C4 1.98 4 3.96 4 6 C-3.26 6 -10.52 6 -18 6 C-18.33 6.66 -18.66 7.32 -19 8 C-19 7.01 -19 6.02 -19 5 C-13.72 5 -8.44 5 -3 5 C-3 4.34 -3 3.68 -3 3 C-2.01 3 -1.02 3 0 3 C0 2.01 0 1.02 0 0 Z " fill="#37768D" transform="translate(72,66)"/>
<path d="M0 0 C1.98 0 3.96 0 6 0 C5.67 1.65 5.34 3.3 5 5 C4.34 5 3.68 5 3 5 C3 5.66 3 6.32 3 7 C2.01 7 1.02 7 0 7 C0 7.66 0 8.32 0 9 C-0.99 9 -1.98 9 -3 9 C-3 7.35 -3 5.7 -3 4 C-2.01 4 -1.02 4 0 4 C0 2.68 0 1.36 0 0 Z " fill="#4AEEF2" transform="translate(60,96)"/>
<path d="M0 0 C1.65 0 3.3 0 5 0 C5 0.66 5 1.32 5 2 C5.99 2 6.98 2 8 2 C8 4.31 8 6.62 8 9 C5.03 8.505 5.03 8.505 2 8 C2 6.02 2 4.04 2 2 C1.34 2 0.68 2 0 2 C0 1.34 0 0.68 0 0 Z " fill="#67EFF2" transform="translate(18,88)"/>
<path d="M0 0 C0.99 0.33 1.98 0.66 3 1 C2.34 1 1.68 1 1 1 C1 2.32 1 3.64 1 5 C0.34 5 -0.32 5 -1 5 C-1 7.31 -1 9.62 -1 12 C-0.01 12 0.98 12 2 12 C2.33 10.68 2.66 9.36 3 8 C3 10.64 3 13.28 3 16 C2.01 16 1.02 16 0 16 C0 15.34 0 14.68 0 14 C-0.99 14 -1.98 14 -3 14 C-3 10.37 -3 6.74 -3 3 C-2.01 3 -1.02 3 0 3 C0 2.01 0 1.02 0 0 Z " fill="#9CEDF2" transform="translate(20,69)"/>
<path d="M0 0 C0.99 0 1.98 0 3 0 C3 1.65 3 3.3 3 5 C2.01 5 1.02 5 0 5 C0 5.99 0 6.98 0 8 C-2.64 8 -5.28 8 -8 8 C-8 7.01 -8 6.02 -8 5 C-6.35 5 -4.7 5 -3 5 C-3 4.01 -3 3.02 -3 2 C-2.01 2 -1.02 2 0 2 C0 1.34 0 0.68 0 0 Z " fill="#8EBBDB" transform="translate(69,106)"/>
<path d="M0 0 C1.65 0.33 3.3 0.66 5 1 C5 3.31 5 5.62 5 8 C3.35 8 1.7 8 0 8 C0 7.01 0 6.02 0 5 C-1.32 4.67 -2.64 4.34 -4 4 C-3.67 3.01 -3.34 2.02 -3 1 C-2.01 1.33 -1.02 1.66 0 2 C0 1.34 0 0.68 0 0 Z " fill="#28D3DC" transform="translate(26,95)"/>
<path d="M0 0 C3.96 0 7.92 0 12 0 C12 0.66 12 1.32 12 2 C10.02 2 8.04 2 6 2 C6 3.32 6 4.64 6 6 C4.02 6 2.04 6 0 6 C0 4.02 0 2.04 0 0 Z " fill="#F7D9A1" transform="translate(57,80)"/>
<path d="M0 0 C0.33 1.32 0.66 2.64 1 4 C0.01 4 -0.98 4 -2 4 C-2 6.64 -2 9.28 -2 12 C-1.01 12.33 -0.02 12.66 1 13 C0.67 15.97 0.34 18.94 0 22 C-0.33 21.34 -0.66 20.68 -1 20 C-1.66 19.67 -2.32 19.34 -3 19 C-2.34 19 -1.68 19 -1 19 C-1 17.35 -1 15.7 -1 14 C-1.99 14 -2.98 14 -4 14 C-4 10.37 -4 6.74 -4 3 C-2.68 3 -1.36 3 0 3 C0 2.01 0 1.02 0 0 Z " fill="#94A3AA" transform="translate(63,31)"/>
<path d="M0 0 C1.65 0.33 3.3 0.66 5 1 C5 1.99 5 2.98 5 4 C4.195625 4.226875 3.39125 4.45375 2.5625 4.6875 C1.716875 5.120625 0.87125 5.55375 0 6 C-0.89386164 8.54775306 -0.89386164 8.54775306 -1 11 C-1.99 11 -2.98 11 -4 11 C-4 9.35 -4 7.7 -4 6 C-3.01 6 -2.02 6 -1 6 C-2.32 5.34 -3.64 4.68 -5 4 C-4.34 4 -3.68 4 -3 4 C-3 3.34 -3 2.68 -3 2 C-2.01 2 -1.02 2 0 2 C0 1.34 0 0.68 0 0 Z " fill="#3B5866" transform="translate(13,52)"/>
<path d="M0 0 C1.65 0 3.3 0 5 0 C5 2.97 5 5.94 5 9 C3.35 9 1.7 9 0 9 C-1.125 3.375 -1.125 3.375 0 0 Z " fill="#A76428" transform="translate(41,10)"/>
<path d="M0 0 C2.12472576 -0.05386629 4.24983652 -0.09273071 6.375 -0.125 C7.55835938 -0.14820313 8.74171875 -0.17140625 9.9609375 -0.1953125 C13 0 13 0 15 2 C15 3.32 15 4.64 15 6 C14.01 6 13.02 6 12 6 C12 5.01 12 4.02 12 3 C10.35 3 8.7 3 7 3 C6.67 3.66 6.34 4.32 6 5 C6 4.01 6 3.02 6 2 C4.02 2 2.04 2 0 2 C0 1.34 0 0.68 0 0 Z " fill="#A36231" transform="translate(42,5)"/>
<path d="M0 0 C0.33 0.66 0.66 1.32 1 2 C1.66 2 2.32 2 3 2 C3.33 2.66 3.66 3.32 4 4 C6.64 4 9.28 4 12 4 C12 6.97 12 9.94 12 13 C11.01 13 10.02 13 9 13 C9 11.68 9 10.36 9 9 C8.34 8.67 7.68 8.34 7 8 C7.33 7.67 7.66 7.34 8 7 C6.865625 6.855625 5.73125 6.71125 4.5625 6.5625 C1 6 1 6 0 5 C-0.04063832 3.33382885 -0.042721 1.66611905 0 0 Z " fill="#26C8D4" transform="translate(26,90)"/>
<path d="M0 0 C0.33 0 0.66 0 1 0 C1 4.29 1 8.58 1 13 C1.66 13.33 2.32 13.66 3 14 C2.34 14 1.68 14 1 14 C1 16.97 1 19.94 1 23 C1.99 23 2.98 23 4 23 C4 23.99 4 24.98 4 26 C4.99 26 5.98 26 7 26 C6.67 26.99 6.34 27.98 6 29 C4.68 28.34 3.36 27.68 2 27 C2 26.34 2 25.68 2 25 C1.34 25 0.68 25 0 25 C0 16.75 0 8.5 0 0 Z " fill="#7F97A3" transform="translate(5,82)"/>
<path d="M0 0 C0.99 0.33 1.98 0.66 3 1 C2.34 1 1.68 1 1 1 C1 5.62 1 10.24 1 15 C0.01 15 -0.98 15 -2 15 C-2 10.38 -2 5.76 -2 1 C-1.34 0.67 -0.68 0.34 0 0 Z " fill="#515346" transform="translate(50,75)"/>
<path d="M0 0 C1.98 0 3.96 0 6 0 C5.67 1.65 5.34 3.3 5 5 C4.34 5 3.68 5 3 5 C2.67 6.32 2.34 7.64 2 9 C1.67 8.34 1.34 7.68 1 7 C-0.32 7 -1.64 7 -3 7 C-3 6.34 -3 5.68 -3 5 C-2.34 4.67 -1.68 4.34 -1 4 C-0.34786708 1.97536745 -0.34786708 1.97536745 0 0 Z " fill="#299AB5" transform="translate(66,96)"/>
<path d="M0 0 C0.99 0 1.98 0 3 0 C3.99 3.96 4.98 7.92 6 12 C5.01 12 4.02 12 3 12 C3 11.01 3 10.02 3 9 C2.01 9 1.02 9 0 9 C0 6.03 0 3.06 0 0 Z " fill="#2B5167" transform="translate(6,96)"/>
<path d="M0 0 C0.99 0 1.98 0 3 0 C3 3.63 3 7.26 3 11 C1.02 11.33 -0.96 11.66 -3 12 C-3 11.01 -3 10.02 -3 9 C-2.01 9 -1.02 9 0 9 C0 6.03 0 3.06 0 0 Z " fill="#749EB2" transform="translate(32,36)"/>
<path d="M0 0 C1.98 0 3.96 0 6 0 C6 0.99 6 1.98 6 3 C13.26 3 20.52 3 28 3 C28 3.33 28 3.66 28 4 C24.0833957 4.0580966 20.16690237 4.09362893 16.25 4.125 C15.13882813 4.14175781 14.02765625 4.15851563 12.8828125 4.17578125 C11.27792969 4.18544922 11.27792969 4.18544922 9.640625 4.1953125 C8.65610352 4.20578613 7.67158203 4.21625977 6.65722656 4.22705078 C3.94026889 3.99489618 2.31887487 3.39036273 0 2 C0 1.34 0 0.68 0 0 Z " fill="#19AEC1" transform="translate(29,106)"/>
<path d="M0 0 C1.98 0 3.96 0 6 0 C5.67 0.66 5.34 1.32 5 2 C4.34 2 3.68 2 3 2 C3 6.62 3 11.24 3 16 C2.34 16 1.68 16 1 16 C0.67 10.72 0.34 5.44 0 0 Z " fill="#329FAF" transform="translate(45,74)"/>
<path d="M0 0 C0.33 0 0.66 0 1 0 C1 1.65 1 3.3 1 5 C0.34 5 -0.32 5 -1 5 C-1 7.31 -1 9.62 -1 12 C-1.33 10.68 -1.66 9.36 -2 8 C-8.93 8 -15.86 8 -23 8 C-23 7.67 -23 7.34 -23 7 C-16.07 7 -9.14 7 -2 7 C-2 5.35 -2 3.7 -2 2 C-1.34 2 -0.68 2 0 2 C0 1.34 0 0.68 0 0 Z " fill="#436973" transform="translate(77,88)"/>
<path d="M0 0 C0.33 0 0.66 0 1 0 C1.33 2.97 1.66 5.94 2 9 C-2.16138263 9.08159574 -5.9472484 8.98248524 -10 8 C-9.01 7.67 -8.02 7.34 -7 7 C-7 6.34 -7 5.68 -7 5 C-4.69 5 -2.38 5 0 5 C0 3.35 0 1.7 0 0 Z " fill="#334751" transform="translate(24,44)"/>
<path d="M0 0 C0.33 0 0.66 0 1 0 C1 3.3 1 6.6 1 10 C1.99 10 2.98 10 4 10 C4 10.99 4 11.98 4 13 C2.02 13 0.04 13 -2 13 C-2 13.66 -2 14.32 -2 15 C-0.02 15 1.96 15 4 15 C4 15.33 4 15.66 4 16 C2.02 16 0.04 16 -2 16 C-2.33 16.66 -2.66 17.32 -3 18 C-3 17.34 -3 16.68 -3 16 C-3.99 15.67 -4.98 15.34 -6 15 C-5.34 15 -4.68 15 -4 15 C-3.67 14.01 -3.34 13.02 -3 12 C-2.01 11.67 -1.02 11.34 0 11 C0 7.37 0 3.74 0 0 Z " fill="#959BA1" transform="translate(28,5)"/>
<path d="M0 0 C0.33 0 0.66 0 1 0 C1.33 2.64 1.66 5.28 2 8 C6.33085971 9.29925791 10.51474352 10.343621 15 11 C15 11.33 15 11.66 15 12 C10.38 12 5.76 12 1 12 C1 11.34 1 10.68 1 10 C0.01 9.67 -0.98 9.34 -2 9 C-1.34 9 -0.68 9 0 9 C0 6.03 0 3.06 0 0 Z " fill="#DFBE89" transform="translate(53,80)"/>
<path d="M0 0 C0.66 0 1.32 0 2 0 C2 2.97 2 5.94 2 9 C1.34 9 0.68 9 0 9 C0 10.32 0 11.64 0 13 C-4.455 12.01 -4.455 12.01 -9 11 C-9 10.67 -9 10.34 -9 10 C-7.02 10 -5.04 10 -3 10 C-3 9.34 -3 8.68 -3 8 C-2.01 8 -1.02 8 0 8 C0 5.36 0 2.72 0 0 Z " fill="#365770" transform="translate(63,21)"/>
<path d="M0 0 C2.31 0 4.62 0 7 0 C6.67 1.32 6.34 2.64 6 4 C6.99 4 7.98 4 9 4 C9 4.66 9 5.32 9 6 C7.68 6 6.36 6 5 6 C5 5.34 5 4.68 5 4 C3.02 4 1.04 4 -1 4 C-0.67 2.68 -0.34 1.36 0 0 Z " fill="#385261" transform="translate(64,49)"/>
<path d="M0 0 C1.98 0 3.96 0 6 0 C6 2.97 6 5.94 6 9 C5.01 9 4.02 9 3 9 C3 7.02 3 5.04 3 3 C2.01 3 1.02 3 0 3 C0 2.01 0 1.02 0 0 Z " fill="#7CA1B5" transform="translate(57,20)"/>
<path d="M0 0 C0.99 0 1.98 0 3 0 C3 0.99 3 1.98 3 3 C3.66 3 4.32 3 5 3 C5 4.32 5 5.64 5 7 C4.34 7 3.68 7 3 7 C3 6.01 3 5.02 3 4 C2.01 4 1.02 4 0 4 C0 5.32 0 6.64 0 8 C-0.99 8 -1.98 8 -3 8 C-3 6.35 -3 4.7 -3 3 C-2.01 3 -1.02 3 0 3 C0 2.01 0 1.02 0 0 Z " fill="#5AEFF4" transform="translate(35,82)"/>
<path d="M0 0 C4.62 0 9.24 0 14 0 C13.67 1.32 13.34 2.64 13 4 C8.71 3.34 4.42 2.68 0 2 C0 1.34 0 0.68 0 0 Z " fill="#35D8E5" transform="translate(46,67)"/>
<path d="M0 0 C0.33 0.99 0.66 1.98 1 3 C0.01 3 -0.98 3 -2 3 C-2 4.65 -2 6.3 -2 8 C-1.34 8.33 -0.68 8.66 0 9 C-0.66 9 -1.32 9 -2 9 C-2 12.3 -2 15.6 -2 19 C-2.33 19 -2.66 19 -3 19 C-3 15.7 -3 12.4 -3 9 C-3.99 8.67 -4.98 8.34 -6 8 C-5.34 8 -4.68 8 -4 8 C-4 6.02 -4 4.04 -4 2 C-2.68 2 -1.36 2 0 2 C0 1.34 0 0.68 0 0 Z " fill="#90A4AF" transform="translate(11,55)"/>
<path d="M0 0 C1.58467728 0.28427417 3.1677057 0.57774818 4.75 0.875 C6.07257812 1.11863281 6.07257812 1.11863281 7.421875 1.3671875 C10 2 10 2 14 4 C8.72 4 3.44 4 -2 4 C-1.34 3.67 -0.68 3.34 0 3 C0 2.01 0 1.02 0 0 Z " fill="#D1EDF6" transform="translate(26,53)"/>
<path d="M0 0 C0.33 0 0.66 0 1 0 C1.33 3.3 1.66 6.6 2 10 C2.99 10.33 3.98 10.66 5 11 C4.67 12.32 4.34 13.64 4 15 C4 14.34 4 13.68 4 13 C2.02 13 0.04 13 -2 13 C-2 11.68 -2 10.36 -2 9 C-1.34 9 -0.68 9 0 9 C0 6.03 0 3.06 0 0 Z " fill="#7B797C" transform="translate(59,5)"/>
<path d="M0 0 C1.32 0.33 2.64 0.66 4 1 C4 3.66666667 4 6.33333333 4 9 C3.01 9 2.02 9 1 9 C-0.4783226 6.04335481 -0.06032783 3.25770263 0 0 Z " fill="#42E7ED" transform="translate(31,96)"/>
<path d="M0 0 C0.33 0 0.66 0 1 0 C1.06058594 0.62648438 1.12117188 1.25296875 1.18359375 1.8984375 C1.26738281 2.71570313 1.35117188 3.53296875 1.4375 4.375 C1.51871094 5.18710938 1.59992188 5.99921875 1.68359375 6.8359375 C1.89090114 9.04272805 1.89090114 9.04272805 3 11 C2.34 11 1.68 11 1 11 C1 15.95 1 20.9 1 26 C0.67 26 0.34 26 0 26 C0 20.72 0 15.44 0 10 C-0.66 9.67 -1.32 9.34 -2 9 C-1.34 9 -0.68 9 0 9 C0 6.03 0 3.06 0 0 Z " fill="#7D98AA" transform="translate(78,64)"/>
<path d="M0 0 C0.99 0 1.98 0 3 0 C3 3.3 3 6.6 3 10 C2.01 10 1.02 10 0 10 C0 6.7 0 3.4 0 0 Z " fill="#345365" transform="translate(80,95)"/>
<path d="M0 0 C1.98 0 3.96 0 6 0 C6 0.66 6 1.32 6 2 C5.01 2 4.02 2 3 2 C3 3.98 3 5.96 3 8 C2.01 8 1.02 8 0 8 C0 5.36 0 2.72 0 0 Z " fill="#8AB3C8" transform="translate(26,21)"/>
<path d="M0 0 C4.16138263 -0.08159574 7.9472484 0.01751476 12 1 C12 1.33 12 1.66 12 2 C10.02 2 8.04 2 6 2 C6 2.99 6 3.98 6 5 C5.34 5 4.68 5 4 5 C4 4.34 4 3.68 4 3 C2.35 2.67 0.7 2.34 -1 2 C-0.67 1.34 -0.34 0.68 0 0 Z " fill="#2AC1CE" transform="translate(47,69)"/>
<path d="M0 0 C0.33 0 0.66 0 1 0 C1.08082094 1.95766281 1.13910778 3.91626728 1.1875 5.875 C1.22230469 6.96554688 1.25710937 8.05609375 1.29296875 9.1796875 C1.19628906 10.11039063 1.09960938 11.04109375 1 12 C-1.61941217 13.74627478 -3.03824877 14.38722388 -6 15 C-6 14.34 -6 13.68 -6 13 C-5.34 13 -4.68 13 -4 13 C-4 12.01 -4 11.02 -4 10 C-2.68 10 -1.36 10 0 10 C0 6.7 0 3.4 0 0 Z " fill="#A3ABB1" transform="translate(83,95)"/>
<path d="M0 0 C1.32 0 2.64 0 4 0 C3.67 1.65 3.34 3.3 3 5 C2.01 5 1.02 5 0 5 C0 7.31 0 9.62 0 12 C-0.33 12 -0.66 12 -1 12 C-1.02698189 10.37509046 -1.04638757 8.75005367 -1.0625 7.125 C-1.07410156 6.22007813 -1.08570313 5.31515625 -1.09765625 4.3828125 C-1 2 -1 2 0 0 Z " fill="#C0E1EC" transform="translate(12,61)"/>
<path d="M0 0 C1.65 0.33 3.3 0.66 5 1 C5 1.99 5 2.98 5 4 C5.66 4.33 6.32 4.66 7 5 C6.67 5.99 6.34 6.98 6 8 C5.34 8 4.68 8 4 8 C4 7.34 4 6.68 4 6 C2.35 6 0.7 6 -1 6 C0.32 5.67 1.64 5.34 3 5 C3 4.34 3 3.68 3 3 C2.01 3 1.02 3 0 3 C0 2.01 0 1.02 0 0 Z " fill="#627985" transform="translate(70,50)"/>
<path d="M0 0 C0.33 0.99 0.66 1.98 1 3 C1.99 3 2.98 3 4 3 C4 3.66 4 4.32 4 5 C4.66 5 5.32 5 6 5 C8 8 8 8 7.625 10.1875 C7.41875 10.785625 7.2125 11.38375 7 12 C7 11.01 7 10.02 7 9 C6.34 9 5.68 9 5 9 C5 8.34 5 7.68 5 7 C4.01 7 3.02 7 2 7 C0 4 0 4 0 0 Z " fill="#6C797E" transform="translate(14,111)"/>
<path d="M0 0 C1.65 0 3.3 0 5 0 C5 2 5 2 3.625 3.625 C2 5 2 5 0 5 C-0.33 5.66 -0.66 6.32 -1 7 C-1 6.34 -1 5.68 -1 5 C-2.65 5 -4.3 5 -6 5 C-6 4.67 -6 4.34 -6 4 C-4.35 3.67 -2.7 3.34 -1 3 C-0.67 2.01 -0.34 1.02 0 0 Z " fill="#33566B" transform="translate(66,114)"/>
<path d="M0 0 C1.32 0 2.64 0 4 0 C4 0.66 4 1.32 4 2 C4.66 2 5.32 2 6 2 C6 2.99 6 3.98 6 5 C4.02 5 2.04 5 0 5 C0 3.35 0 1.7 0 0 Z " fill="#8CBAD0" transform="translate(23,112)"/>
<path d="M0 0 C0 0.66 0 1.32 0 2 C-0.66 2 -1.32 2 -2 2 C-2 2.66 -2 3.32 -2 4 C-0.02 4 1.96 4 4 4 C4.33 3.34 4.66 2.68 5 2 C5 2.99 5 3.98 5 5 C3.02 5 1.04 5 -1 5 C-1.33 5.66 -1.66 6.32 -2 7 C-2 6.34 -2 5.68 -2 5 C-2.99 5 -3.98 5 -5 5 C-5 4.01 -5 3.02 -5 2 C-2 0 -2 0 0 0 Z " fill="#82ADC0" transform="translate(18,56)"/>
<path d="M0 0 C0.33 0.99 0.66 1.98 1 3 C2.98 3 4.96 3 7 3 C7 3.66 7 4.32 7 5 C4.69 5.33 2.38 5.66 0 6 C0 5.01 0 4.02 0 3 C-0.99 3 -1.98 3 -3 3 C-3.33 3.66 -3.66 4.32 -4 5 C-4 4.01 -4 3.02 -4 2 C-2.68 2 -1.36 2 0 2 C0 1.34 0 0.68 0 0 Z " fill="#89A9B8" transform="translate(18,50)"/>
<path d="M0 0 C3.96 0 7.92 0 12 0 C12 0.99 12 1.98 12 3 C10.02 3 8.04 3 6 3 C6 2.34 6 1.68 6 1 C4.02 1 2.04 1 0 1 C0 0.67 0 0.34 0 0 Z " fill="#7AA5C0" transform="translate(54,114)"/>
<path d="M0 0 C5.94 0 11.88 0 18 0 C18 0.99 18 1.98 18 3 C17.01 3 16.02 3 15 3 C15 2.34 15 1.68 15 1 C10.05 1 5.1 1 0 1 C0 0.67 0 0.34 0 0 Z " fill="#2BABBF" transform="translate(54,66)"/>
<path d="M0 0 C0.99 0 1.98 0 3 0 C3 2.64 3 5.28 3 8 C2.01 8 1.02 8 0 8 C0 5.36 0 2.72 0 0 Z " fill="#91BDD7" transform="translate(51,42)"/>
<path d="M0 0 C1.21236328 0.04060547 1.21236328 0.04060547 2.44921875 0.08203125 C3.06410156 0.11683594 3.67898437 0.15164062 4.3125 0.1875 C2.9925 0.5175 1.6725 0.8475 0.3125 1.1875 C0.3125 1.8475 0.3125 2.5075 0.3125 3.1875 C-2.3275 3.1875 -4.9675 3.1875 -7.6875 3.1875 C-5.26849268 0.20484049 -3.789448 -0.16475861 0 0 Z " fill="#36E6ED" transform="translate(30.6875,81.8125)"/>
<path d="M0 0 C0.99 0 1.98 0 3 0 C3 3.63 3 7.26 3 11 C2.01 11 1.02 11 0 11 C0.66 8.03 1.32 5.06 2 2 C1.34 2 0.68 2 0 2 C0 1.34 0 0.68 0 0 Z " fill="#B0F8FA" transform="translate(23,66)"/>
<path d="M0 0 C0.66 0 1.32 0 2 0 C2 0.66 2 1.32 2 2 C4.31 2 6.62 2 9 2 C9 2.66 9 3.32 9 4 C6.03 4 3.06 4 0 4 C0 2.68 0 1.36 0 0 Z " fill="#7CA9BF" transform="translate(60,51)"/>
<path d="M0 0 C0.66 0 1.32 0 2 0 C2 1.32 2 2.64 2 4 C1.34 4 0.68 4 0 4 C0 4.99 0 5.98 0 7 C-0.66 7 -1.32 7 -2 7 C-2.33 5.35 -2.66 3.7 -3 2 C-2.01 2 -1.02 2 0 2 C0 1.34 0 0.68 0 0 Z " fill="#6CF4F7" transform="translate(51,98)"/>
<path d="M0 0 C0.66 0 1.32 0 2 0 C2.33 2.97 2.66 5.94 3 9 C2.01 9 1.02 9 0 9 C0 6.03 0 3.06 0 0 Z " fill="#106383" transform="translate(13,91)"/>
<path d="M0 0 C0.99 0 1.98 0 3 0 C3 0.99 3 1.98 3 3 C3.66 3.33 4.32 3.66 5 4 C4.34 4 3.68 4 3 4 C3 4.66 3 5.32 3 6 C2.01 6 1.02 6 0 6 C0 4.02 0 2.04 0 0 Z " fill="#3BE0E4" transform="translate(35,86)"/>
<path d="M0 0 C1.98 0 3.96 0 6 0 C6 0.66 6 1.32 6 2 C4.35 2.33 2.7 2.66 1 3 C1 3.66 1 4.32 1 5 C0.34 5 -0.32 5 -1 5 C-0.67 3.35 -0.34 1.7 0 0 Z " fill="#25627F" transform="translate(17,61)"/>
<path d="M0 0 C2.64 0 5.28 0 8 0 C6.68 0.33 5.36 0.66 4 1 C3.67 2.32 3.34 3.64 3 5 C2.01 4.34 1.02 3.68 0 3 C0 2.01 0 1.02 0 0 Z " fill="#1C4158" transform="translate(54,32)"/>
<path d="M0 0 C1.98 0 3.96 0 6 0 C5.67 1.32 5.34 2.64 5 4 C3.35 3.67 1.7 3.34 0 3 C0 2.01 0 1.02 0 0 Z " fill="#94BFD2" transform="translate(54,26)"/>
<path d="M0 0 C0.99 0.66 1.98 1.32 3 2 C3 3.32 3 4.64 3 6 C2.01 6 1.02 6 0 6 C0 5.01 0 4.02 0 3 C-1.65 3 -3.3 3 -5 3 C-5 2.67 -5 2.34 -5 2 C-3.35 2 -1.7 2 0 2 C0 1.34 0 0.68 0 0 Z " fill="#91562B" transform="translate(54,5)"/>
<path d="M0 0 C0.66 0 1.32 0 2 0 C2 1.98 2 3.96 2 6 C0.35 6 -1.3 6 -3 6 C-3 5.34 -3 4.68 -3 4 C-2.34 3.67 -1.68 3.34 -1 3 C-0.67 2.01 -0.34 1.02 0 0 Z " fill="#24B6CB" transform="translate(66,97)"/>
<path d="M0 0 C1.65 0 3.3 0 5 0 C5 1.65 5 3.3 5 5 C4.01 5 3.02 5 2 5 C2 4.01 2 3.02 2 2 C1.34 2 0.68 2 0 2 C0 1.34 0 0.68 0 0 Z " fill="#84F9F9" transform="translate(18,88)"/>
<path d="M0 0 C2.89932357 2.39509338 3.50168276 4.31245243 4 8 C2.68 7.67 1.36 7.34 0 7 C0 4.69 0 2.38 0 0 Z " fill="#2CC3DC" transform="translate(14,82)"/>
<path d="M0 0 C1.98 0 3.96 0 6 0 C5.67 1.65 5.34 3.3 5 5 C4.34 5 3.68 5 3 5 C3 3.68 3 2.36 3 1 C2.01 0.67 1.02 0.34 0 0 Z " fill="#51DFE2" transform="translate(60,96)"/>
<path d="M0 0 C2.64 0 5.28 0 8 0 C8 0.66 8 1.32 8 2 C4.71303767 2.79953138 3.28976808 3.09658936 0 2 C0 1.34 0 0.68 0 0 Z " fill="#4DF6F9" transform="translate(23,64)"/>
</svg>
