<?xml version="1.0" encoding="UTF-8"?>
<svg version="1.1" xmlns="http://www.w3.org/2000/svg" width="73" height="148">
<path d="M0 0 C6.27 0 12.54 0 19 0 C19.495 1.98 19.495 1.98 20 4 C21.65 4 23.3 4 25 4 C25 4.66 25 5.32 25 6 C25.99 6 26.98 6 28 6 C28 6.99 28 7.98 28 9 C28.99 9.33 29.98 9.66 31 10 C31 14.29 31 18.58 31 23 C33.31 23 35.62 23 38 23 C38 23.99 38 24.98 38 26 C39.32 26 40.64 26 42 26 C45.05954874 28.447639 46.29454432 30.20085886 47 34 C47.21495577 37.20591179 47.18510265 40.41255133 47.1875 43.625 C47.19974609 44.49640625 47.21199219 45.3678125 47.22460938 46.265625 C47.22654297 47.09835938 47.22847656 47.93109375 47.23046875 48.7890625 C47.23457764 49.54912598 47.23868652 50.30918945 47.24291992 51.09228516 C47 53 47 53 45 55 C44.01 55 43.02 55 42 55 C42 56.98 42 58.96 42 61 C38.40537669 63.25998595 35.43404325 63.20868087 31.25 63.125 C30.07953125 63.10695312 28.9090625 63.08890625 27.703125 63.0703125 C26.81109375 63.04710937 25.9190625 63.02390625 25 63 C25 64.65 25 66.3 25 68 C24.34 68 23.68 68 23 68 C23 69.32 23 70.64 23 72 C23.66 72 24.32 72 25 72 C25.08131463 73.43655854 25.13933559 74.8744483 25.1875 76.3125 C25.23970703 77.51326172 25.23970703 77.51326172 25.29296875 78.73828125 C25 81 25 81 23.61328125 82.79296875 C22 84 22 84 20 84 C20 104.13 20 124.26 20 145 C19.01 145 18.02 145 17 145 C17 145.99 17 146.98 17 148 C13.27257322 148.34703629 9.71439979 148.53444601 6 148 C2 143.72093023 2 143.72093023 2 140 C1.44699219 140.16242188 0.89398437 140.32484375 0.32421875 140.4921875 C-2.2417004 141.05280849 -4.56299677 141.13275333 -7.1875 141.125 C-8.06792969 141.12757813 -8.94835937 141.13015625 -9.85546875 141.1328125 C-12 141 -12 141 -13 140 C-13.07313567 137.46950598 -13.09247527 134.96695163 -13.0625 132.4375 C-13.05798828 131.72658203 -13.05347656 131.01566406 -13.04882812 130.28320312 C-13.03700864 128.52209987 -13.01907263 126.76103964 -13 125 C-10.36 125 -7.72 125 -5 125 C-5 123.68 -5 122.36 -5 121 C-7.64 121 -10.28 121 -13 121 C-13 116.38 -13 111.76 -13 107 C-5.08 106.505 -5.08 106.505 3 106 C3 98.74 3 91.48 3 84 C2.01 84 1.02 84 0 84 C0 83.01 0 82.02 0 81 C-0.66 81 -1.32 81 -2 81 C-2 78.03 -2 75.06 -2 72 C-1.34 72 -0.68 72 0 72 C0 70.68 0 69.36 0 68 C-0.66 68 -1.32 68 -2 68 C-2 66.35 -2 64.7 -2 63 C-6.29 63 -10.58 63 -15 63 C-15.495 61.515 -15.495 61.515 -16 60 C-17.32 60 -18.64 60 -20 60 C-20 59.01 -20 58.02 -20 57 C-20.99 57 -21.98 57 -23 57 C-23 55.35 -23 53.7 -23 52 C-23.99 52 -24.98 52 -26 52 C-26 46.06 -26 40.12 -26 34 C-25.01 34 -24.02 34 -23 34 C-23 32.35 -23 30.7 -23 29 C-22.01 29 -21.02 29 -20 29 C-20 28.01 -20 27.02 -20 26 C-18.68 26 -17.36 26 -16 26 C-15.67 25.01 -15.34 24.02 -15 23 C-12.69 23 -10.38 23 -8 23 C-8.05220703 21.53626953 -8.05220703 21.53626953 -8.10546875 20.04296875 C-8.13253906 18.77066406 -8.15960937 17.49835937 -8.1875 16.1875 C-8.23970703 14.29064453 -8.23970703 14.29064453 -8.29296875 12.35546875 C-8 9 -8 9 -6.67578125 7.05078125 C-5 6 -5 6 -2 6 C-2 5.34 -2 4.68 -2 4 C-1.34 4 -0.68 4 0 4 C0 2.68 0 1.36 0 0 Z M9 14 C8.67 14.99 8.34 15.98 8 17 C7.01 17 6.02 17 5 17 C5 17.99 5 18.98 5 20 C8.3 20.33 11.6 20.66 15 21 C15 18.69 15 16.38 15 14 C13.02 14 11.04 14 9 14 Z M-7 36 C-7 36.99 -7 37.98 -7 39 C-7.66 39 -8.32 39 -9 39 C-9 39.66 -9 40.32 -9 41 C-9.66 41 -10.32 41 -11 41 C-11 42.32 -11 43.64 -11 45 C-10.34 45 -9.68 45 -9 45 C-9 45.66 -9 46.32 -9 47 C-8.34 47 -7.68 47 -7 47 C-7 47.99 -7 48.98 -7 50 C-4.69 50 -2.38 50 0 50 C0 49.01 0 48.02 0 47 C1.32 47 2.64 47 4 47 C4 46.34 4 45.68 4 45 C4.66 45 5.32 45 6 45 C6 44.01 6 43.02 6 42 C8.64 42 11.28 42 14 42 C14.33 41.01 14.66 40.02 15 39 C11.41672247 37.99782936 11.41672247 37.99782936 8 39 C8 39.66 8 40.32 8 41 C5.36 41 2.72 41 0 41 C0 40.34 0 39.68 0 39 C-0.66 39 -1.32 39 -2 39 C-2 38.01 -2 37.02 -2 36 C-3.65 36 -5.3 36 -7 36 Z M25 36 C24.34 37.65 23.68 39.3 23 41 C20.69 41 18.38 41 16 41 C16.309375 41.61875 16.61875 42.2375 16.9375 42.875 C17.625 44.25 18.3125 45.625 19 47 C19.99 47.33 20.98 47.66 22 48 C22.33 48.66 22.66 49.32 23 50 C24.98 50 26.96 50 29 50 C29 49.01 29 48.02 29 47 C29.99 47 30.98 47 32 47 C32 46.34 32 45.68 32 45 C32.99 44.67 33.98 44.34 35 44 C35 43.01 35 42.02 35 41 C33.36368108 39.95107762 31.69514137 38.95093297 30 38 C29.67 37.34 29.34 36.68 29 36 C27.68 36 26.36 36 25 36 Z " fill="#3B3634" transform="translate(26,0)"/>
<path d="M0 0 C4.62 0 9.24 0 14 0 C14 0.66 14 1.32 14 2 C14.598125 2.12375 15.19625 2.2475 15.8125 2.375 C18 3 18 3 21 5 C21.40843923 7.71203652 21.13336867 10.2437142 21 13 C21.99 13 22.98 13 24 13 C24 9.7 24 6.4 24 3 C24.66 3 25.32 3 26 3 C26.05380578 5.79192205 26.09357669 8.5828141 26.125 11.375 C26.14175781 12.1690625 26.15851563 12.963125 26.17578125 13.78125 C26.19335473 15.85492015 26.10335168 17.92883241 26 20 C25.34 20.66 24.68 21.32 24 22 C23.01 22 22.02 22 21 22 C21 23.98 21 25.96 21 28 C17.40537669 30.25998595 14.43404325 30.20868087 10.25 30.125 C9.07953125 30.10695313 7.9090625 30.08890625 6.703125 30.0703125 C5.81109375 30.04710938 4.9190625 30.02390625 4 30 C4 31.65 4 33.3 4 35 C3.34 35 2.68 35 2 35 C2 36.32 2 37.64 2 39 C2.66 39 3.32 39 4 39 C4.08131463 40.43655854 4.13933559 41.8744483 4.1875 43.3125 C4.23970703 44.51326172 4.23970703 44.51326172 4.29296875 45.73828125 C4 48 4 48 2.61328125 49.79296875 C1 51 1 51 -1 51 C-1 71.13 -1 91.26 -1 112 C-1.99 112 -2.98 112 -4 112 C-4 112.99 -4 113.98 -4 115 C-7.72742678 115.34703629 -11.28560021 115.53444601 -15 115 C-19 110.72093023 -19 110.72093023 -19 107 C-19.55300781 107.16242188 -20.10601562 107.32484375 -20.67578125 107.4921875 C-23.2417004 108.05280849 -25.56299677 108.13275333 -28.1875 108.125 C-29.06792969 108.12757813 -29.94835937 108.13015625 -30.85546875 108.1328125 C-33 108 -33 108 -34 107 C-34.07313567 104.46950598 -34.09247527 101.96695163 -34.0625 99.4375 C-34.05798828 98.72658203 -34.05347656 98.01566406 -34.04882812 97.28320312 C-34.03700864 95.52209987 -34.01907263 93.76103964 -34 92 C-31.36 92 -28.72 92 -26 92 C-26 90.68 -26 89.36 -26 88 C-28.64 88 -31.28 88 -34 88 C-34 83.38 -34 78.76 -34 74 C-26.08 73.505 -26.08 73.505 -18 73 C-17.67 65.41 -17.34 57.82 -17 50 C-17.99 50 -18.98 50 -20 50 C-20 49.01 -20 48.02 -20 47 C-20.66 47 -21.32 47 -22 47 C-22 44.69 -22 42.38 -22 40 C-21.34 40 -20.68 40 -20 40 C-20 38.02 -20 36.04 -20 34 C-20.66 34 -21.32 34 -22 34 C-22 32.02 -22 30.04 -22 28 C-26.29 28 -30.58 28 -35 28 C-35 27.34 -35 26.68 -35 26 C-30.05 26 -25.1 26 -20 26 C-20 27.98 -20 29.96 -20 32 C-19.01 32 -18.02 32 -17 32 C-17 32.66 -17 33.32 -17 34 C-16.01 34 -15.02 34 -14 34 C-14 34.99 -14 35.98 -14 37 C-13.01 37 -12.02 37 -11 37 C-11 37.99 -11 38.98 -11 40 C-10.34 40 -9.68 40 -9 40 C-9 39.01 -9 38.02 -9 37 C-7.68 37 -6.36 37 -5 37 C-5 36.01 -5 35.02 -5 34 C-4.01 34 -3.02 34 -2 34 C-2 33.34 -2 32.68 -2 32 C-1.34 32 -0.68 32 0 32 C0.33 30.02 0.66 28.04 1 26 C3.64 26 6.28 26 9 26 C9 25.34 9 24.68 9 24 C10.65 24 12.3 24 14 24 C13.25640327 18.44946714 13.25640327 18.44946714 12 13 C12.66 12.67 13.32 12.34 14 12 C14 10.35 14 8.7 14 7 C11.525 6.01 11.525 6.01 9 5 C9 4.01 9 3.02 9 2 C7.02 2 5.04 2 3 2 C3 2.66 3 3.32 3 4 C2.01 3.67 1.02 3.34 0 3 C0 2.01 0 1.02 0 0 Z " fill="#5B5453" transform="translate(47,33)"/>
<path d="M0 0 C0.33 0.99 0.66 1.98 1 3 C-0.32 3 -1.64 3 -3 3 C-3 3.99 -3 4.98 -3 6 C-3.99 6 -4.98 6 -6 6 C-6 7.65 -6 9.3 -6 11 C-6.99 11 -7.98 11 -9 11 C-9 16.28 -9 21.56 -9 27 C-8.01 27 -7.02 27 -6 27 C-6 22.38 -6 17.76 -6 13 C-5.01 12.67 -4.02 12.34 -3 12 C-3 11.01 -3 10.02 -3 9 C-1.68 9 -0.36 9 1 9 C1 10.65 1 12.3 1 14 C0.01 14 -0.98 14 -2 14 C-2 17.3 -2 20.6 -2 24 C-1.01 24 -0.02 24 1 24 C1 24.99 1 25.98 1 27 C1.99 27 2.98 27 4 27 C4 27.99 4 28.98 4 30 C9.28 30 14.56 30 20 30 C20 29.01 20 28.02 20 27 C20.99 27 21.98 27 23 27 C23 26.01 23 25.02 23 24 C23.99 24 24.98 24 26 24 C26 23.34 26 22.68 26 22 C26.99 22 27.98 22 29 22 C29 22.66 29 23.32 29 24 C29.99 24 30.98 24 32 24 C32 24.99 32 25.98 32 27 C32.99 27 33.98 27 35 27 C35 27.99 35 28.98 35 30 C38.3 30 41.6 30 45 30 C45 29.34 45 28.68 45 28 C42.69 28 40.38 28 38 28 C37.505 26.515 37.505 26.515 37 25 C36.34 25 35.68 25 35 25 C35 24.34 35 23.68 35 23 C36.32 23.33 37.64 23.66 39 24 C39 24.66 39 25.32 39 26 C40.98 26 42.96 26 45 26 C45 25.01 45 24.02 45 23 C45.99 23 46.98 23 48 23 C48 22.34 48 21.68 48 21 C48.66 20.67 49.32 20.34 50 20 C50.495 18.515 50.495 18.515 51 17 C50.360625 16.87625 49.72125 16.7525 49.0625 16.625 C48.0415625 16.315625 48.0415625 16.315625 47 16 C46.505 15.01 46.505 15.01 46 14 C50.875 14.875 50.875 14.875 52 16 C52.04063832 17.66617115 52.042721 19.33388095 52 21 C51.01 21.33 50.02 21.66 49 22 C49.495 22.7734375 49.495 22.7734375 50 23.5625 C51.32010877 26.78026512 51.13242105 29.5570528 51 33 C49.35 33 47.7 33 46 33 C46 33.66 46 34.32 46 35 C43.36 35 40.72 35 38 35 C37.67 36.98 37.34 38.96 37 41 C36.34 41 35.68 41 35 41 C35 41.66 35 42.32 35 43 C34.01 43 33.02 43 32 43 C32 43.99 32 44.98 32 46 C30.68 46 29.36 46 28 46 C28 46.99 28 47.98 28 49 C27.34 49 26.68 49 26 49 C26 48.01 26 47.02 26 46 C25.01 46 24.02 46 23 46 C23 45.01 23 44.02 23 43 C22.01 43 21.02 43 20 43 C20 42.34 20 41.68 20 41 C19.01 41 18.02 41 17 41 C17 39.02 17 37.04 17 35 C12.05 35 7.1 35 2 35 C2 35.66 2 36.32 2 37 C6.29 37 10.58 37 15 37 C15 38.98 15 40.96 15 43 C15.66 43 16.32 43 17 43 C17 44.98 17 46.96 17 49 C16.34 49 15.68 49 15 49 C15 51.31 15 53.62 15 56 C15.66 56 16.32 56 17 56 C17 56.99 17 57.98 17 59 C17.99 59 18.98 59 20 59 C20 64.94 20 70.88 20 77 C19.67 77 19.34 77 19 77 C19 71.39 19 65.78 19 60 C18.01 60 17.02 60 16 60 C16 59.01 16 58.02 16 57 C15.34 57 14.68 57 14 57 C14 54.03 14 51.06 14 48 C14.66 48 15.32 48 16 48 C16 46.68 16 45.36 16 44 C15.34 44 14.68 44 14 44 C14 42.35 14 40.7 14 39 C9.71 39 5.42 39 1 39 C0.505 37.515 0.505 37.515 0 36 C-1.32 36 -2.64 36 -4 36 C-4 35.01 -4 34.02 -4 33 C-4.99 33 -5.98 33 -7 33 C-7 31.35 -7 29.7 -7 28 C-7.99 28 -8.98 28 -10 28 C-10 22.06 -10 16.12 -10 10 C-9.01 10 -8.02 10 -7 10 C-7 8.35 -7 6.7 -7 5 C-6.01 5 -5.02 5 -4 5 C-4 4.01 -4 3.02 -4 2 C-2.68 2 -1.36 2 0 2 C0 1.34 0 0.68 0 0 Z " fill="#615A56" transform="translate(10,24)"/>
<path d="M0 0 C4.62 0 9.24 0 14 0 C14 0.66 14 1.32 14 2 C14.598125 2.12375 15.19625 2.2475 15.8125 2.375 C18 3 18 3 21 5 C21.40843923 7.71203652 21.13336867 10.2437142 21 13 C21.99 13 22.98 13 24 13 C24 9.7 24 6.4 24 3 C24.66 3 25.32 3 26 3 C26.05380578 5.79192205 26.09357669 8.5828141 26.125 11.375 C26.14175781 12.1690625 26.15851563 12.963125 26.17578125 13.78125 C26.19335473 15.85492015 26.10335168 17.92883241 26 20 C25.34 20.66 24.68 21.32 24 22 C23.01 22 22.02 22 21 22 C20.67 23.32 20.34 24.64 20 26 C19.01 26 18.02 26 17 26 C17 26.66 17 27.32 17 28 C12.38 28 7.76 28 3 28 C3 29.98 3 31.96 3 34 C2.01 34 1.02 34 0 34 C0 35.98 0 37.96 0 40 C-0.66 40 -1.32 40 -2 40 C-2 40.66 -2 41.32 -2 42 C-3.32 42 -4.64 42 -6 42 C-6 42.99 -6 43.98 -6 45 C-8.64 45 -11.28 45 -14 45 C-14 44.01 -14 43.02 -14 42 C-14.99 42 -15.98 42 -17 42 C-17 41.34 -17 40.68 -17 40 C-17.99 40 -18.98 40 -20 40 C-20 38.02 -20 36.04 -20 34 C-20.66 34 -21.32 34 -22 34 C-22 32.02 -22 30.04 -22 28 C-26.29 28 -30.58 28 -35 28 C-35 27.34 -35 26.68 -35 26 C-30.05 26 -25.1 26 -20 26 C-20 27.98 -20 29.96 -20 32 C-19.01 32 -18.02 32 -17 32 C-17 32.66 -17 33.32 -17 34 C-16.01 34 -15.02 34 -14 34 C-14 34.99 -14 35.98 -14 37 C-13.01 37 -12.02 37 -11 37 C-11 37.99 -11 38.98 -11 40 C-10.34 40 -9.68 40 -9 40 C-9 39.01 -9 38.02 -9 37 C-7.68 37 -6.36 37 -5 37 C-5 36.01 -5 35.02 -5 34 C-4.01 34 -3.02 34 -2 34 C-2 33.34 -2 32.68 -2 32 C-1.34 32 -0.68 32 0 32 C0.33 30.02 0.66 28.04 1 26 C3.64 26 6.28 26 9 26 C9 25.34 9 24.68 9 24 C10.65 24 12.3 24 14 24 C13.25640327 18.44946714 13.25640327 18.44946714 12 13 C12.66 12.67 13.32 12.34 14 12 C14 10.35 14 8.7 14 7 C11.525 6.01 11.525 6.01 9 5 C9 4.01 9 3.02 9 2 C7.02 2 5.04 2 3 2 C3 2.66 3 3.32 3 4 C2.01 3.67 1.02 3.34 0 3 C0 2.01 0 1.02 0 0 Z " fill="#393434" transform="translate(47,33)"/>
<path d="M0 0 C1.32 0.33 2.64 0.66 4 1 C2.625 2.5 2.625 2.5 1 4 C0.34 4 -0.32 4 -1 4 C-1 24.13 -1 44.26 -1 65 C-1.99 65 -2.98 65 -4 65 C-4 65.99 -4 66.98 -4 68 C-7.63 68 -11.26 68 -15 68 C-15.66 66.68 -16.32 65.36 -17 64 C-16.01 64 -15.02 64 -14 64 C-14 47.83 -14 31.66 -14 15 C-13.01 15 -12.02 15 -11 15 C-11 17.31 -11 19.62 -11 22 C-10.01 22 -9.02 22 -8 22 C-8 24.97 -8 27.94 -8 31 C-7.01 31.33 -6.02 31.66 -5 32 C-5 41.57 -5 51.14 -5 61 C-4.34 61 -3.68 61 -3 61 C-2.67 41.86 -2.34 22.72 -2 3 C-1.34 3 -0.68 3 0 3 C0 2.01 0 1.02 0 0 Z " fill="#584D4A" transform="translate(47,80)"/>
<path d="M0 0 C0.33 0.66 0.66 1.32 1 2 C1.99 2 2.98 2 4 2 C4 2.99 4 3.98 4 5 C4.99 5.33 5.98 5.66 7 6 C7 10.29 7 14.58 7 19 C9.31 19 11.62 19 14 19 C14 19.99 14 20.98 14 22 C15.32 22 16.64 22 18 22 C21.02392723 24.24634594 21.8954964 25.54715105 22.75 29.25 C22.8325 30.1575 22.915 31.065 23 32 C22.34 32 21.68 32 21 32 C21 35.3 21 38.6 21 42 C20.01 42 19.02 42 18 42 C17.95875 40.741875 17.9175 39.48375 17.875 38.1875 C17.69235511 35.99010474 17.69235511 35.99010474 17 34 C14.08158143 31.91367303 14.08158143 31.91367303 11 31 C11 30.34 11 29.68 11 29 C6.38 29 1.76 29 -3 29 C-2.67 29.99 -2.34 30.98 -2 32 C-1.34 32.33 -0.68 32.66 0 33 C0 32.34 0 31.68 0 31 C1.98 31 3.96 31 6 31 C5.67 31.99 5.34 32.98 5 34 C5 33.34 5 32.68 5 32 C3.68 32 2.36 32 1 32 C0.690625 33.2065625 0.690625 33.2065625 0.375 34.4375 C-0.305625 35.7059375 -0.305625 35.7059375 -1 37 C-4.125 37.8125 -4.125 37.8125 -7 38 C-6.34 39.32 -5.68 40.64 -5 42 C-5.99 42 -6.98 42 -8 42 C-8 41.01 -8 40.02 -8 39 C-10.97 39 -13.94 39 -17 39 C-17.33 39.66 -17.66 40.32 -18 41 C-18 40.01 -18 39.02 -18 38 C-14.92382812 37.70703125 -14.92382812 37.70703125 -11.84765625 37.4140625 C-10.93306641 37.20910156 -10.93306641 37.20910156 -10 37 C-9.67 36.34 -9.34 35.68 -9 35 C-10.65 34.67 -12.3 34.34 -14 34 C-14 33.01 -14 32.02 -14 31 C-13.01 31 -12.02 31 -11 31 C-11 31.99 -11 32.98 -11 34 C-10.01 34 -9.02 34 -8 34 C-8 31.36 -8 28.72 -8 26 C-7.01 26 -6.02 26 -5 26 C-5 25.01 -5 24.02 -5 23 C3.415 22.505 3.415 22.505 12 22 C12.33 21.34 12.66 20.68 13 20 C10.36 20 7.72 20 5 20 C5 15.38 5 10.76 5 6 C4.34 6 3.68 6 3 6 C3 5.01 3 4.02 3 3 C2.01 3 1.02 3 0 3 C0 2.01 0 1.02 0 0 Z " fill="#A19D9C" transform="translate(50,4)"/>
<path d="M0 0 C1.65 0 3.3 0 5 0 C5 0.99 5 1.98 5 3 C5.99 3 6.98 3 8 3 C8 3.99 8 4.98 8 6 C8.66 6 9.32 6 10 6 C10 10.62 10 15.24 10 20 C12.64 20 15.28 20 18 20 C17.505 21.485 17.505 21.485 17 23 C13.04 23 9.08 23 5 23 C5 21.02 5 19.04 5 17 C5.99 17 6.98 17 8 17 C8 14.36 8 11.72 8 9 C7.01 9 6.02 9 5 9 C4.67 8.34 4.34 7.68 4 7 C3.67 10.3 3.34 13.6 3 17 C2.01 17 1.02 17 0 17 C0 17.99 0 18.98 0 20 C-1.98 20 -3.96 20 -6 20 C-5.67 19.01 -5.34 18.02 -5 17 C-4.34 17 -3.68 17 -3 17 C-3 14.36 -3 11.72 -3 9 C-5.97 9 -8.94 9 -12 9 C-12 9.99 -12 10.98 -12 12 C-12.99 12 -13.98 12 -15 12 C-15 13.65 -15 15.3 -15 17 C-13.35 17 -11.7 17 -10 17 C-10 17.99 -10 18.98 -10 20 C-12.64 20 -15.28 20 -18 20 C-18 15.38 -18 10.76 -18 6 C-16.68 6 -15.36 6 -14 6 C-14 5.34 -14 4.68 -14 4 C-8.26157749 3.79586639 -3.39460953 3.72858546 2 6 C2 5.34 2 4.68 2 4 C1.34 4 0.68 4 0 4 C0 2.68 0 1.36 0 0 Z " fill="#4D4645" transform="translate(45,4)"/>
<path d="M0 0 C0.33 0.99 0.66 1.98 1 3 C-0.32 3 -1.64 3 -3 3 C-3 3.99 -3 4.98 -3 6 C-3.99 6 -4.98 6 -6 6 C-6 7.65 -6 9.3 -6 11 C-6.99 11 -7.98 11 -9 11 C-9 16.28 -9 21.56 -9 27 C-8.01 27 -7.02 27 -6 27 C-6 22.38 -6 17.76 -6 13 C-5.01 12.67 -4.02 12.34 -3 12 C-3 11.01 -3 10.02 -3 9 C-1.68 9 -0.36 9 1 9 C1 10.65 1 12.3 1 14 C0.01 14 -0.98 14 -2 14 C-2 17.3 -2 20.6 -2 24 C-1.01 24 -0.02 24 1 24 C1 24.99 1 25.98 1 27 C1.99 27 2.98 27 4 27 C4 27.99 4 28.98 4 30 C5.98 30.33 7.96 30.66 10 31 C9.67 32.32 9.34 33.64 9 35 C6.69 35 4.38 35 2 35 C2 35.66 2 36.32 2 37 C6.29 37 10.58 37 15 37 C15 38.98 15 40.96 15 43 C15.66 43 16.32 43 17 43 C17 44.98 17 46.96 17 49 C16.34 49 15.68 49 15 49 C15 51.31 15 53.62 15 56 C15.66 56 16.32 56 17 56 C17 56.99 17 57.98 17 59 C17.99 59 18.98 59 20 59 C20 64.94 20 70.88 20 77 C19.67 77 19.34 77 19 77 C19 71.39 19 65.78 19 60 C18.01 60 17.02 60 16 60 C16 59.01 16 58.02 16 57 C15.34 57 14.68 57 14 57 C14 54.03 14 51.06 14 48 C14.66 48 15.32 48 16 48 C16 46.68 16 45.36 16 44 C15.34 44 14.68 44 14 44 C14 42.35 14 40.7 14 39 C9.71 39 5.42 39 1 39 C0.505 37.515 0.505 37.515 0 36 C-1.32 36 -2.64 36 -4 36 C-4 35.01 -4 34.02 -4 33 C-4.99 33 -5.98 33 -7 33 C-7 31.35 -7 29.7 -7 28 C-7.99 28 -8.98 28 -10 28 C-10 22.06 -10 16.12 -10 10 C-9.01 10 -8.02 10 -7 10 C-7 8.35 -7 6.7 -7 5 C-6.01 5 -5.02 5 -4 5 C-4 4.01 -4 3.02 -4 2 C-2.68 2 -1.36 2 0 2 C0 1.34 0 0.68 0 0 Z " fill="#BDB6B5" transform="translate(10,24)"/>
<path d="M0 0 C1.65 0 3.3 0 5 0 C5 11.22 5 22.44 5 34 C4.01 34 3.02 34 2 34 C2 32.35 2 30.7 2 29 C-3.28 29 -8.56 29 -14 29 C-14 24.71 -14 20.42 -14 16 C-7.375 15.75 -7.375 15.75 -4 18 C-6.31 18 -8.62 18 -11 18 C-10.67 18.99 -10.34 19.98 -10 21 C-6.7 21 -3.4 21 0 21 C0 20.34 0 19.68 0 19 C0.66 19 1.32 19 2 19 C2 14.71 2 10.42 2 6 C1.01 6 0.02 6 -1 6 C-1 5.34 -1 4.68 -1 4 C-0.01 4 0.98 4 2 4 C2 3.01 2 2.02 2 1 C1.34 0.67 0.68 0.34 0 0 Z " fill="#372723" transform="translate(28,110)"/>
<path d="M0 0 C6.27 0 12.54 0 19 0 C19.92538169 3.70152678 20.08174162 4.63458162 19 8 C19.66 8 20.32 8 21 8 C21 8.66 21 9.32 21 10 C19.33388095 10.042721 17.66617115 10.04063832 16 10 C15.67 9.67 15.34 9.34 15 9 C13.31816052 8.76712992 11.6287584 8.58735834 9.9375 8.4375 C9.01839844 8.35371094 8.09929688 8.26992187 7.15234375 8.18359375 C6.44207031 8.12300781 5.73179688 8.06242188 5 8 C5 8.66 5 9.32 5 10 C3.68 10 2.36 10 1 10 C1 10.99 1 11.98 1 13 C0.34 13 -0.32 13 -1 13 C-1 15.64 -1 18.28 -1 21 C-1.99 21 -2.98 21 -4 21 C-4.04898437 20.28972656 -4.09796875 19.57945313 -4.1484375 18.84765625 C-4.22320312 17.92855469 -4.29796875 17.00945313 -4.375 16.0625 C-4.44460937 15.14597656 -4.51421875 14.22945312 -4.5859375 13.28515625 C-4.79089844 12.15400391 -4.79089844 12.15400391 -5 11 C-5.66 10.67 -6.32 10.34 -7 10 C-7 14.62 -7 19.24 -7 24 C-9.64 24 -12.28 24 -15 24 C-15 23.67 -15 23.34 -15 23 C-12.69 23 -10.38 23 -8 23 C-8.03480469 22.02417969 -8.06960937 21.04835938 -8.10546875 20.04296875 C-8.13253906 18.77066406 -8.15960937 17.49835937 -8.1875 16.1875 C-8.22230469 14.92292969 -8.25710937 13.65835937 -8.29296875 12.35546875 C-8 9 -8 9 -6.67578125 7.05078125 C-5 6 -5 6 -2 6 C-2 5.34 -2 4.68 -2 4 C-1.34 4 -0.68 4 0 4 C0 2.68 0 1.36 0 0 Z " fill="#646262" transform="translate(26,0)"/>
<path d="M0 0 C0.99 0 1.98 0 3 0 C2.83628906 0.56203125 2.67257813 1.1240625 2.50390625 1.703125 C1.97135003 4.13059056 1.90101319 6.26889681 1.9375 8.75 C1.95103516 9.94882812 1.95103516 9.94882812 1.96484375 11.171875 C1.97644531 11.77515625 1.98804688 12.3784375 2 13 C2.99 13 3.98 13 5 13 C5 13.99 5 14.98 5 16 C5.66 16 6.32 16 7 16 C7 16.66 7 17.32 7 18 C9.97 18 12.94 18 16 18 C16 17.01 16 16.02 16 15 C16.99 15 17.98 15 19 15 C19 14.01 19 13.02 19 12 C19.99 12 20.98 12 22 12 C22 11.34 22 10.68 22 10 C24.97 10 27.94 10 31 10 C31 10.99 31 11.98 31 13 C31.99 13 32.98 13 34 13 C34 13.99 34 14.98 34 16 C34.66 16 35.32 16 36 16 C36.495 16.99 36.495 16.99 37 18 C39.32156597 18.40729228 41.6568787 18.74438677 44 19 C44 19.66 44 20.32 44 21 C40.7 21 37.4 21 34 21 C34 20.01 34 19.02 34 18 C33.01 18 32.02 18 31 18 C31 17.01 31 16.02 31 15 C30.01 15 29.02 15 28 15 C28 14.34 28 13.68 28 13 C27.01 13 26.02 13 25 13 C25 13.66 25 14.32 25 15 C24.01 15 23.02 15 22 15 C22 15.99 22 16.98 22 18 C21.01 18 20.02 18 19 18 C19 18.99 19 19.98 19 21 C13.72 21 8.44 21 3 21 C3 20.01 3 19.02 3 18 C2.01 18 1.02 18 0 18 C0 17.01 0 16.02 0 15 C-0.99 15 -1.98 15 -3 15 C-4.125 7.25 -4.125 7.25 -3 5 C-2.01 5 -1.02 5 0 5 C0 3.35 0 1.7 0 0 Z " fill="#2E231F" transform="translate(11,33)"/>
<path d="M0 0 C4.62 0 9.24 0 14 0 C14 0.66 14 1.32 14 2 C14.598125 2.12375 15.19625 2.2475 15.8125 2.375 C18 3 18 3 21 5 C21.40843923 7.71203652 21.13336867 10.2437142 21 13 C21.99 13 22.98 13 24 13 C24 9.7 24 6.4 24 3 C24.66 3 25.32 3 26 3 C26.05380578 5.79192205 26.09357669 8.5828141 26.125 11.375 C26.15013672 12.56609375 26.15013672 12.56609375 26.17578125 13.78125 C26.19335473 15.85492015 26.10335168 17.92883241 26 20 C25.34 20.66 24.68 21.32 24 22 C23.01 21.67 22.02 21.34 21 21 C21.66 21 22.32 21 23 21 C23 20.34 23 19.68 23 19 C21.35 19 19.7 19 18 19 C17.67 19.66 17.34 20.32 17 21 C16.01 21 15.02 21 14 21 C12.74335022 18.09399739 12 16.20395416 12 13 C12.66 12.67 13.32 12.34 14 12 C14 10.35 14 8.7 14 7 C11.525 6.01 11.525 6.01 9 5 C9 4.01 9 3.02 9 2 C7.02 2 5.04 2 3 2 C3 2.66 3 3.32 3 4 C2.01 3.67 1.02 3.34 0 3 C0 2.01 0 1.02 0 0 Z " fill="#3B3433" transform="translate(47,33)"/>
<path d="M0 0 C0.33 0.99 0.66 1.98 1 3 C1.99 3 2.98 3 4 3 C4 5.64 4 8.28 4 11 C3.01 11 2.02 11 1 11 C1 12.98 1 14.96 1 17 C-0.65 17 -2.3 17 -4 17 C-4 17.99 -4 18.98 -4 20 C-4.99 20 -5.98 20 -7 20 C-7 22.64 -7 25.28 -7 28 C-7.99 28 -8.98 28 -10 28 C-10 27.01 -10 26.02 -10 25 C-10.99 25 -11.98 25 -13 25 C-13 25.99 -13 26.98 -13 28 C-13.99 28 -14.98 28 -16 28 C-16 28.66 -16 29.32 -16 30 C-17.98 30 -19.96 30 -22 30 C-22 29.34 -22 28.68 -22 28 C-22.66 28 -23.32 28 -24 28 C-24 27.34 -24 26.68 -24 26 C-21.29120665 24.64560332 -18.99066732 24.93498549 -16 25 C-14.515 19.555 -14.515 19.555 -13 14 C-10.03 14 -7.06 14 -4 14 C-4 13.01 -4 12.02 -4 11 C-3.01 11 -2.02 11 -1 11 C-1.01160156 10.28972656 -1.02320312 9.57945313 -1.03515625 8.84765625 C-1.04417969 7.92855469 -1.05320312 7.00945313 -1.0625 6.0625 C-1.07410156 5.14597656 -1.08570312 4.22945312 -1.09765625 3.28515625 C-1 1 -1 1 0 0 Z " fill="#605957" transform="translate(49,10)"/>
<path d="M0 0 C0.90105469 0.02707031 1.80210938 0.05414062 2.73046875 0.08203125 C3.76107422 0.13423828 3.76107422 0.13423828 4.8125 0.1875 C4.8125 1.1775 4.8125 2.1675 4.8125 3.1875 C6.1325 3.1875 7.4525 3.1875 8.8125 3.1875 C8.8125 4.1775 8.8125 5.1675 8.8125 6.1875 C10.4625 6.1875 12.1125 6.1875 13.8125 6.1875 C13.8125 6.8475 13.8125 7.5075 13.8125 8.1875 C11.1725 8.5175 8.5325 8.8475 5.8125 9.1875 C5.8125 9.8475 5.8125 10.5075 5.8125 11.1875 C6.4725 11.1875 7.1325 11.1875 7.8125 11.1875 C7.8125 11.8475 7.8125 12.5075 7.8125 13.1875 C9.7925 13.1875 11.7725 13.1875 13.8125 13.1875 C13.8125 12.5275 13.8125 11.8675 13.8125 11.1875 C14.8025 11.5175 15.7925 11.8475 16.8125 12.1875 C16.1525 12.1875 15.4925 12.1875 14.8125 12.1875 C14.8125 12.8475 14.8125 13.5075 14.8125 14.1875 C12.1725 14.1875 9.5325 14.1875 6.8125 14.1875 C6.8125 13.5275 6.8125 12.8675 6.8125 12.1875 C6.1525 12.1875 5.4925 12.1875 4.8125 12.1875 C4.8125 11.1975 4.8125 10.2075 4.8125 9.1875 C3.1625 9.1875 1.5125 9.1875 -0.1875 9.1875 C-0.1875 10.1775 -0.1875 11.1675 -0.1875 12.1875 C-0.8475 12.1875 -1.5075 12.1875 -2.1875 12.1875 C-2.1875 12.8475 -2.1875 13.5075 -2.1875 14.1875 C-2.8475 14.1875 -3.5075 14.1875 -4.1875 14.1875 C-4.1875 15.5075 -4.1875 16.8275 -4.1875 18.1875 C-3.5275 18.1875 -2.8675 18.1875 -2.1875 18.1875 C-2.1875 18.8475 -2.1875 19.5075 -2.1875 20.1875 C-1.5275 20.1875 -0.8675 20.1875 -0.1875 20.1875 C-0.1875 21.1775 -0.1875 22.1675 -0.1875 23.1875 C2.1225 23.1875 4.4325 23.1875 6.8125 23.1875 C6.8125 22.1975 6.8125 21.2075 6.8125 20.1875 C8.1325 20.5175 9.4525 20.8475 10.8125 21.1875 C9.8225 21.1875 8.8325 21.1875 7.8125 21.1875 C7.8125 22.1775 7.8125 23.1675 7.8125 24.1875 C4.8425 24.1875 1.8725 24.1875 -1.1875 24.1875 C-1.1875 23.5275 -1.1875 22.8675 -1.1875 22.1875 C-1.8475 22.1875 -2.5075 22.1875 -3.1875 22.1875 C-3.1875 21.1975 -3.1875 20.2075 -3.1875 19.1875 C-4.1775 19.1875 -5.1675 19.1875 -6.1875 19.1875 C-6.40995393 17.58523045 -6.61496669 15.98053233 -6.8125 14.375 C-6.92851562 13.48167969 -7.04453125 12.58835937 -7.1640625 11.66796875 C-7.1875 9.1875 -7.1875 9.1875 -5.1875 6.1875 C-6.1775 6.1875 -7.1675 6.1875 -8.1875 6.1875 C-8.1875 3.1875 -8.1875 3.1875 -7.01171875 1.51171875 C-4.56536496 -0.26411409 -2.9895229 -0.11647492 0 0 Z " fill="#797475" transform="translate(19.1875,26.8125)"/>
<path d="M0 0 C1.95825873 -0.02694851 3.91662226 -0.04637218 5.875 -0.0625 C6.96554688 -0.07410156 8.05609375 -0.08570312 9.1796875 -0.09765625 C12 0 12 0 14 1 C14 1.99 14 2.98 14 4 C13.01 4 12.02 4 11 4 C11 4.66 11 5.32 11 6 C11.99 6 12.98 6 14 6 C14 10.29 14 14.58 14 19 C13.34 19 12.68 19 12 19 C12 19.66 12 20.32 12 21 C8.7 21 5.4 21 2 21 C1.67 21.66 1.34 22.32 1 23 C1 21.35 1 19.7 1 18 C3.64 18 6.28 18 9 18 C9 14.7 9 11.4 9 8 C6.36 8 3.72 8 1 8 C0.67 5.36 0.34 2.72 0 0 Z " fill="#524846" transform="translate(16,110)"/>
<path d="M0 0 C0.99 0 1.98 0 3 0 C3 2.31 3 4.62 3 7 C1.68 7 0.36 7 -1 7 C-1 7.99 -1 8.98 -1 10 C-1.66 10 -2.32 10 -3 10 C-2.99777939 10.63813629 -2.99555878 11.27627258 -2.99327087 11.93374634 C-2.97112035 18.5848942 -2.9560526 25.23603155 -2.94506836 31.88720703 C-2.94004453 34.36833115 -2.93322434 36.84945232 -2.92456055 39.33056641 C-2.91240964 42.90007253 -2.90675212 46.46953945 -2.90234375 50.0390625 C-2.89718246 51.14553131 -2.89202118 52.25200012 -2.88670349 53.39199829 C-2.88634206 58.37162319 -2.92749234 63.1087713 -4 68 C-4.66 68 -5.32 68 -6 68 C-6 53.48 -6 38.96 -6 24 C-5.34 24 -4.68 24 -4 24 C-4 19.38 -4 14.76 -4 10 C-5.32 9.67 -6.64 9.34 -8 9 C-7.34 8.34 -6.68 7.68 -6 7 C-5.01 7 -4.02 7 -3 7 C-3 6.34 -3 5.68 -3 5 C-2.01 5 -1.02 5 0 5 C0 3.35 0 1.7 0 0 Z " fill="#272224" transform="translate(48,73)"/>
<path d="M0 0 C2.64 0 5.28 0 8 0 C8 0.99 8 1.98 8 3 C9.65 3 11.3 3 13 3 C13 3.99 13 4.98 13 6 C9.37 6 5.74 6 2 6 C2.33 6.99 2.66 7.98 3 9 C3.66 9.33 4.32 9.66 5 10 C5 9.34 5 8.68 5 8 C6.98 8 8.96 8 11 8 C10.67 8.99 10.34 9.98 10 11 C10 10.34 10 9.68 10 9 C8.68 9 7.36 9 6 9 C5.690625 10.2065625 5.690625 10.2065625 5.375 11.4375 C4.92125 12.283125 4.4675 13.12875 4 14 C0.875 14.8125 0.875 14.8125 -2 15 C-1.34 16.32 -0.68 17.64 0 19 C-0.99 19 -1.98 19 -3 19 C-3 18.01 -3 17.02 -3 16 C-5.97 16 -8.94 16 -12 16 C-12.33 16.66 -12.66 17.32 -13 18 C-13 17.01 -13 16.02 -13 15 C-9.92382812 14.70703125 -9.92382812 14.70703125 -6.84765625 14.4140625 C-6.23792969 14.27742188 -5.62820312 14.14078125 -5 14 C-4.67 13.34 -4.34 12.68 -4 12 C-5.65 11.67 -7.3 11.34 -9 11 C-9 10.01 -9 9.02 -9 8 C-8.01 8 -7.02 8 -6 8 C-6 8.99 -6 9.98 -6 11 C-5.01 11 -4.02 11 -3 11 C-3 8.36 -3 5.72 -3 3 C-2.01 3 -1.02 3 0 3 C0 2.01 0 1.02 0 0 Z " fill="#483F3E" transform="translate(45,27)"/>
<path d="M0 0 C0.99 0.33 1.98 0.66 3 1 C2.67 6.28 2.34 11.56 2 17 C-0.31 17 -2.62 17 -5 17 C-5.33 17.99 -5.66 18.98 -6 20 C-6.66 20 -7.32 20 -8 20 C-8 20.99 -8 21.98 -8 23 C-9.32 23 -10.64 23 -12 23 C-12 23.99 -12 24.98 -12 26 C-12.66 26.33 -13.32 26.66 -14 27 C-14.47001033 30.27555608 -14.47001033 30.27555608 -14.625 34.0625 C-14.69976562 35.35285156 -14.77453125 36.64320312 -14.8515625 37.97265625 C-14.90054687 38.97167969 -14.94953125 39.97070312 -15 41 C-15.99 41 -16.98 41 -18 41 C-18 35.72 -18 30.44 -18 25 C-17.01 25 -16.02 25 -15 25 C-15 23.35 -15 21.7 -15 20 C-14.01 20 -13.02 20 -12 20 C-12 19.01 -12 18.02 -12 17 C-10.68 17 -9.36 17 -8 17 C-8 16.01 -8 15.02 -8 14 C-5.36 14 -2.72 14 0 14 C0 9.38 0 4.76 0 0 Z " fill="#38302F" transform="translate(19,10)"/>
<path d="M0 0 C0.33 0 0.66 0 1 0 C1 2.31 1 4.62 1 7 C-2.59462331 9.25998595 -5.56595675 9.20868087 -9.75 9.125 C-10.92046875 9.10695313 -12.0909375 9.08890625 -13.296875 9.0703125 C-14.63492188 9.03550781 -14.63492188 9.03550781 -16 9 C-16 10.65 -16 12.3 -16 14 C-16.66 14 -17.32 14 -18 14 C-18 15.32 -18 16.64 -18 18 C-17.34 18.33 -16.68 18.66 -16 19 C-16.99 19 -17.98 19 -19 19 C-19 20.65 -19 22.3 -19 24 C-19.99 24 -20.98 24 -22 24 C-22 24.66 -22 25.32 -22 26 C-26.95 26 -31.9 26 -37 26 C-37 25.34 -37 24.68 -37 24 C-37.99 24 -38.98 24 -40 24 C-40 22.35 -40 20.7 -40 19 C-39.01 19 -38.02 19 -37 19 C-37 19.66 -37 20.32 -37 21 C-36.01 21 -35.02 21 -34 21 C-34 21.99 -34 22.98 -34 24 C-31.36 24 -28.72 24 -26 24 C-26 23.01 -26 22.02 -26 21 C-24.68 21 -23.36 21 -22 21 C-22 20.34 -22 19.68 -22 19 C-21.34 19 -20.68 19 -20 19 C-20 17.02 -20 15.04 -20 13 C-19.01 13 -18.02 13 -17 13 C-17 11.02 -17 9.04 -17 7 C-12.38 7 -7.76 7 -3 7 C-3 6.34 -3 5.68 -3 5 C-2.01 5 -1.02 5 0 5 C0 3.35 0 1.7 0 0 Z " fill="#989696" transform="translate(67,54)"/>
<path d="M0 0 C1.32 0.33 2.64 0.66 4 1 C2.625 2.5 2.625 2.5 1 4 C0.34 4 -0.32 4 -1 4 C-1 23.47 -1 42.94 -1 63 C-2.98 63 -4.96 63 -7 63 C-9.26566343 63.43941523 -9.26566343 63.43941523 -11 64 C-11 61.69 -11 59.38 -11 57 C-10.01 57 -9.02 57 -8 57 C-8 55.02 -8 53.04 -8 51 C-7.34 51 -6.68 51 -6 51 C-5.67 49.68 -5.34 48.36 -5 47 C-5 51.62 -5 56.24 -5 61 C-4.34 61 -3.68 61 -3 61 C-2.67 41.86 -2.34 22.72 -2 3 C-1.34 3 -0.68 3 0 3 C0 2.01 0 1.02 0 0 Z " fill="#474244" transform="translate(47,80)"/>
<path d="M0 0 C2.475 0.495 2.475 0.495 5 1 C5 1.66 5 2.32 5 3 C4.01 3 3.02 3 2 3 C2 4.65 2 6.3 2 8 C1.01 8 0.02 8 -1 8 C-1 8.66 -1 9.32 -1 10 C-5.62 10 -10.24 10 -15 10 C-15 11.98 -15 13.96 -15 16 C-15.99 16 -16.98 16 -18 16 C-18 17.98 -18 19.96 -18 22 C-18.66 22 -19.32 22 -20 22 C-20 22.66 -20 23.32 -20 24 C-20.99 24 -21.98 24 -23 24 C-23 23.34 -23 22.68 -23 22 C-22.34 22 -21.68 22 -21 22 C-21.66 20.02 -22.32 18.04 -23 16 C-22.01 16 -21.02 16 -20 16 C-20 15.34 -20 14.68 -20 14 C-19.34 14 -18.68 14 -18 14 C-17.67 12.02 -17.34 10.04 -17 8 C-14.36 8 -11.72 8 -9 8 C-9 7.34 -9 6.68 -9 6 C-7.35 6 -5.7 6 -4 6 C-4 5.01 -4 4.02 -4 3 C-3.01 3 -2.02 3 -1 3 C-0.67 2.01 -0.34 1.02 0 0 Z " fill="#252020" transform="translate(65,51)"/>
<path d="M0 0 C0.66 0 1.32 0 2 0 C2 1.65 2 3.3 2 5 C2.99 5 3.98 5 5 5 C5 5.66 5 6.32 5 7 C8.96 7 12.92 7 17 7 C16.01 8.485 16.01 8.485 15 10 C12.03 10 9.06 10 6 10 C6 18.25 6 26.5 6 35 C0.39 35 -5.22 35 -11 35 C-11 38.96 -11 42.92 -11 47 C-8.36 47 -5.72 47 -3 47 C-3 48.65 -3 50.3 -3 52 C-3.33 50.68 -3.66 49.36 -4 48 C-6.64 48 -9.28 48 -12 48 C-12 43.38 -12 38.76 -12 34 C-4.08 33.505 -4.08 33.505 4 33 C4.33 25.41 4.66 17.82 5 10 C4.01 10 3.02 10 2 10 C2 9.01 2 8.02 2 7 C1.34 7 0.68 7 0 7 C0 4.69 0 2.38 0 0 Z " fill="#5F5D5E" transform="translate(25,73)"/>
<path d="M0 0 C0.99 0 1.98 0 3 0 C3 12.87 3 25.74 3 39 C2.01 39 1.02 39 0 39 C0 26.13 0 13.26 0 0 Z " fill="#A8A6A8" transform="translate(33,95)"/>
<path d="M0 0 C0.99 0 1.98 0 3 0 C3 2.97 3 5.94 3 9 C3.99 9 4.98 9 6 9 C6 10.65 6 12.3 6 14 C5.01 14 4.02 14 3 14 C3 13.01 3 12.02 3 11 C2.01 11 1.02 11 0 11 C0 11.99 0 12.98 0 14 C-0.99 14 -1.98 14 -3 14 C-3 14.66 -3 15.32 -3 16 C-4.98 16 -6.96 16 -9 16 C-9 15.34 -9 14.68 -9 14 C-9.66 14 -10.32 14 -11 14 C-11 13.34 -11 12.68 -11 12 C-8.29120665 10.64560332 -5.99066732 10.93498549 -3 11 C-2.01 7.37 -1.02 3.74 0 0 Z " fill="#373233" transform="translate(36,24)"/>
<path d="M0 0 C4.62 0 9.24 0 14 0 C14 0.66 14 1.32 14 2 C14.99 2 15.98 2 17 2 C17.8723412 4.99480917 18.10829766 7.63575911 18.0625 10.75 C18.05347656 11.54921875 18.04445313 12.3484375 18.03515625 13.171875 C18.02355469 13.77515625 18.01195313 14.3784375 18 15 C16.68 15 15.36 15 14 15 C13.67 15.66 13.34 16.32 13 17 C12.67 15.68 12.34 14.36 12 13 C12.66 12.67 13.32 12.34 14 12 C14 10.35 14 8.7 14 7 C11.525 6.01 11.525 6.01 9 5 C9 4.01 9 3.02 9 2 C7.02 2 5.04 2 3 2 C3 2.66 3 3.32 3 4 C2.01 3.67 1.02 3.34 0 3 C0 2.01 0 1.02 0 0 Z " fill="#3D302E" transform="translate(47,33)"/>
<path d="M0 0 C6.625 -0.25 6.625 -0.25 10 2 C7.36 2 4.72 2 2 2 C2.33 4.64 2.66 7.28 3 10 C5.10388569 10.05402274 7.20816714 10.09280256 9.3125 10.125 C10.48425781 10.14820313 11.65601563 10.17140625 12.86328125 10.1953125 C16.16393661 10.25320618 16.16393661 10.25320618 19 8 C19 11.3 19 14.6 19 18 C18.01 18 17.02 18 16 18 C16 16.35 16 14.7 16 13 C10.72 13 5.44 13 0 13 C0 8.71 0 4.42 0 0 Z " fill="#211C1D" transform="translate(14,126)"/>
<path d="M0 0 C-0.33 2.97 -0.66 5.94 -1 9 C-1.66 9 -2.32 9 -3 9 C-3 9.66 -3 10.32 -3 11 C-3.99 11 -4.98 11 -6 11 C-6 11.99 -6 12.98 -6 14 C-8.86724686 13.42655063 -9.8614515 13.1385485 -12 11 C-11.63318342 8.06546739 -11.13562754 7.13562754 -9 5 C-8.01 5 -7.02 5 -6 5 C-6 3.68 -6 2.36 -6 1 C-3 0 -3 0 0 0 Z " fill="#574F4C" transform="translate(48,56)"/>
<path d="M0 0 C2.31 0 4.62 0 7 0 C7 5.28 7 10.56 7 16 C6.34 16 5.68 16 5 16 C5 15.01 5 14.02 5 13 C4.01 13 3.02 13 2 13 C2 10.69 2 8.38 2 6 C1.34 6 0.68 6 0 6 C0 4.02 0 2.04 0 0 Z " fill="#5A4842" transform="translate(34,89)"/>
<path d="M0 0 C2.97 0 5.94 0 9 0 C9 2.64 9 5.28 9 8 C8.67 8 8.34 8 8 8 C8 5.69 8 3.38 8 1 C5.02934491 1.34227572 5.02934491 1.34227572 2 2 C1.67 2.66 1.34 3.32 1 4 C0.01 4 -0.98 4 -2 4 C-2 4.99 -2 5.98 -2 7 C0.97 7 3.94 7 7 7 C6.67 8.32 6.34 9.64 6 11 C5.01 11 4.02 11 3 11 C3 11.99 3 12.98 3 14 C2.01 14 1.02 14 0 14 C0 14.99 0 15.98 0 17 C-0.99 17 -1.98 17 -3 17 C-3 16.01 -3 15.02 -3 14 C-3.99 14 -4.98 14 -6 14 C-6 13.01 -6 12.02 -6 11 C-3.36 11 -0.72 11 2 11 C2 10.01 2 9.02 2 8 C0.35 8 -1.3 8 -3 8 C-3 6.35 -3 4.7 -3 3 C-2.01 3 -1.02 3 0 3 C0 2.01 0 1.02 0 0 Z " fill="#B4B1B1" transform="translate(33,13)"/>
<path d="M0 0 C4.875 0.875 4.875 0.875 6 2 C6.04063832 3.66617115 6.042721 5.33388095 6 7 C5.01 7.33 4.02 7.66 3 8 C3.33 8.5775 3.66 9.155 4 9.75 C5 12 5 12 5 16 C3.02 16 1.04 16 -1 16 C-1 15.34 -1 14.68 -1 14 C-3.31 14 -5.62 14 -8 14 C-8.33 13.01 -8.66 12.02 -9 11 C-9.66 11 -10.32 11 -11 11 C-11 10.34 -11 9.68 -11 9 C-9.68 9.33 -8.36 9.66 -7 10 C-7 10.66 -7 11.32 -7 12 C-5.02 12 -3.04 12 -1 12 C-1 11.01 -1 10.02 -1 9 C-0.01 9 0.98 9 2 9 C2 8.34 2 7.68 2 7 C2.66 6.67 3.32 6.34 4 6 C4.33 5.01 4.66 4.02 5 3 C4.360625 2.87625 3.72125 2.7525 3.0625 2.625 C2.0415625 2.315625 2.0415625 2.315625 1 2 C0.67 1.34 0.34 0.68 0 0 Z " fill="#3F3B3A" transform="translate(56,38)"/>
<path d="M0 0 C0.99 1.485 0.99 1.485 2 3 C4.14327419 3.28846456 4.14327419 3.28846456 6.5 3.0625 C8.90625 2.91015625 8.90625 2.91015625 11 3 C11.66 3.66 12.32 4.32 13 5 C13.33 4.34 13.66 3.68 14 3 C14 4.98 14 6.96 14 9 C11.85423363 9.02685938 9.70837355 9.04633088 7.5625 9.0625 C6.36753906 9.07410156 5.17257813 9.08570313 3.94140625 9.09765625 C1 9 1 9 0 8 C-0.14115161 5.32941149 -0.04247107 2.67567762 0 0 Z " fill="#5C4943" transform="translate(16,128)"/>
<path d="M0 0 C0.33 1.32 0.66 2.64 1 4 C0.01 4 -0.98 4 -2 4 C-2 4.66 -2 5.32 -2 6 C-0.35 6 1.3 6 3 6 C3 6.99 3 7.98 3 9 C2.34 9 1.68 9 1 9 C1 11.64 1 14.28 1 17 C0.01 17 -0.98 17 -2 17 C-2.04898437 16.28972656 -2.09796875 15.57945313 -2.1484375 14.84765625 C-2.22320312 13.92855469 -2.29796875 13.00945313 -2.375 12.0625 C-2.44460937 11.14597656 -2.51421875 10.22945312 -2.5859375 9.28515625 C-2.79089844 8.15400391 -2.79089844 8.15400391 -3 7 C-3.66 6.67 -4.32 6.34 -5 6 C-5 10.62 -5 15.24 -5 20 C-7.64 20 -10.28 20 -13 20 C-13 19.67 -13 19.34 -13 19 C-10.69 19 -8.38 19 -6 19 C-6.03480469 18.02417969 -6.06960937 17.04835938 -6.10546875 16.04296875 C-6.13253906 14.77066406 -6.15960937 13.49835937 -6.1875 12.1875 C-6.22230469 10.92292969 -6.25710937 9.65835937 -6.29296875 8.35546875 C-6 5 -6 5 -4.67578125 3.05078125 C-3 2 -3 2 0 2 C0 1.34 0 0.68 0 0 Z " fill="#A5A3A2" transform="translate(24,4)"/>
<path d="M0 0 C1.9375 0.625 1.9375 0.625 4 2 C4.75 5.125 4.75 5.125 5 8 C4.34 8 3.68 8 3 8 C3 11.3 3 14.6 3 18 C2.01 18 1.02 18 0 18 C-0.16276042 15.98177083 -0.32552083 13.96354167 -0.48828125 11.9453125 C-0.87393036 9.60480784 -0.87393036 9.60480784 -4 8 C-4 7.01 -4 6.02 -4 5 C-4.66 5 -5.32 5 -6 5 C-6 4.01 -6 3.02 -6 2 C-5.01 2 -4.02 2 -3 2 C-3 2.99 -3 3.98 -3 5 C-2.01 5 -1.02 5 0 5 C0 5.66 0 6.32 0 7 C0.99 7 1.98 7 3 7 C2.67 6.01 2.34 5.02 2 4 C1.34 3.67 0.68 3.34 0 3 C0 2.01 0 1.02 0 0 Z " fill="#948B8B" transform="translate(68,28)"/>
<path d="M0 0 C0.66 0 1.32 0 2 0 C2 4.29 2 8.58 2 13 C4.64 13 7.28 13 10 13 C9.67 13.99 9.34 14.98 9 16 C5.04 16 1.08 16 -3 16 C-3 14.02 -3 12.04 -3 10 C-2.01 10 -1.02 10 0 10 C0 6.7 0 3.4 0 0 Z " fill="#232121" transform="translate(53,11)"/>
<path d="M0 0 C2.64 0 5.28 0 8 0 C8 0.99 8 1.98 8 3 C8.99 3 9.98 3 11 3 C11 3.99 11 4.98 11 6 C11.66 6 12.32 6 13 6 C13.33 6.66 13.66 7.32 14 8 C16.32156597 8.40729228 18.6568787 8.74438677 21 9 C21 9.66 21 10.32 21 11 C17.7 11 14.4 11 11 11 C11 10.01 11 9.02 11 8 C10.01 8 9.02 8 8 8 C8 7.01 8 6.02 8 5 C7.01 5 6.02 5 5 5 C5 4.01 5 3.02 5 2 C3.35 2 1.7 2 0 2 C0 1.34 0 0.68 0 0 Z " fill="#282527" transform="translate(34,43)"/>
<path d="M0 0 C0.99 0 1.98 0 3 0 C3 0.66 3 1.32 3 2 C3.99 1.34 4.98 0.68 6 0 C9.125 0.25 9.125 0.25 12 1 C12.33 1.66 12.66 2.32 13 3 C12.01 3 11.02 3 10 3 C10 3.99 10 4.98 10 6 C6.37 6 2.74 6 -1 6 C-1.66 4.68 -2.32 3.36 -3 2 C-2.01 2 -1.02 2 0 2 C0 1.34 0 0.68 0 0 Z " fill="#686768" transform="translate(33,142)"/>
<path d="M0 0 C1.32 0.33 2.64 0.66 4 1 C2.625 2.5 2.625 2.5 1 4 C0.34 4 -0.32 4 -1 4 C-1 21.49 -1 38.98 -1 57 C-1.33 57 -1.66 57 -2 57 C-2 39.18 -2 21.36 -2 3 C-1.34 3 -0.68 3 0 3 C0 2.01 0 1.02 0 0 Z " fill="#F5F5F5" transform="translate(47,80)"/>
<path d="M0 0 C1.95825873 -0.02694851 3.91662226 -0.04637218 5.875 -0.0625 C6.96554688 -0.07410156 8.05609375 -0.08570312 9.1796875 -0.09765625 C12 0 12 0 14 1 C14 1.99 14 2.98 14 4 C13.01 4 12.02 4 11 4 C11 4.99 11 5.98 11 7 C10.01 6.67 9.02 6.34 8 6 C8 5.01 8 4.02 8 3 C6.35 3 4.7 3 3 3 C3 4.32 3 5.64 3 7 C2.34 7 1.68 7 1 7 C0.67 4.69 0.34 2.38 0 0 Z " fill="#7A7370" transform="translate(16,110)"/>
<path d="M0 0 C0.99 0 1.98 0 3 0 C3 0.66 3 1.32 3 2 C3.99 2 4.98 2 6 2 C6 2.99 6 3.98 6 5 C6.99 5 7.98 5 9 5 C9 5.99 9 6.98 9 8 C8.01 8 7.02 8 6 8 C6 7.34 6 6.68 6 6 C4.35 6 2.7 6 1 6 C0.67 5.01 0.34 4.02 0 3 C0 3.99 0 4.98 0 6 C-0.99 6 -1.98 6 -3 6 C-3 6.99 -3 7.98 -3 9 C-3.99 9 -4.98 9 -6 9 C-6 7.68 -6 6.36 -6 5 C-5.01 5 -4.02 5 -3 5 C-3 4.01 -3 3.02 -3 2 C-2.01 2 -1.02 2 0 2 C0 1.34 0 0.68 0 0 Z " fill="#908B8A" transform="translate(36,46)"/>
<path d="M0 0 C4.95 0 9.9 0 15 0 C15 1.98 15 3.96 15 6 C15.99 6 16.98 6 18 6 C18 8.31 18 10.62 18 13 C17.34 13 16.68 13 16 13 C16 11.35 16 9.7 16 8 C15.01 8 14.02 8 13 8 C13 6.02 13 4.04 13 2 C8.71 2 4.42 2 0 2 C0 1.34 0 0.68 0 0 Z " fill="#271F1F" transform="translate(12,59)"/>
<path d="M0 0 C1.32 0 2.64 0 4 0 C4 0.99 4 1.98 4 3 C5.65 3 7.3 3 9 3 C9 3.66 9 4.32 9 5 C6.36 5.33 3.72 5.66 1 6 C1 6.66 1 7.32 1 8 C1.66 8 2.32 8 3 8 C3 8.66 3 9.32 3 10 C4.98 10 6.96 10 9 10 C9 9.34 9 8.68 9 8 C9.99 8.33 10.98 8.66 12 9 C11.34 9 10.68 9 10 9 C10 9.66 10 10.32 10 11 C7.36 11 4.72 11 2 11 C2 10.34 2 9.68 2 9 C1.34 9 0.68 9 0 9 C0 8.01 0 7.02 0 6 C-1.65 6 -3.3 6 -5 6 C-5 5.67 -5 5.34 -5 5 C-3.35 5 -1.7 5 0 5 C-0.2784375 4.0409375 -0.2784375 4.0409375 -0.5625 3.0625 C-0.706875 2.381875 -0.85125 1.70125 -1 1 C-0.67 0.67 -0.34 0.34 0 0 Z " fill="#837D7D" transform="translate(24,30)"/>
<path d="M0 0 C4.95 0 9.9 0 15 0 C15 1.32 15 2.64 15 4 C15.66 4 16.32 4 17 4 C17 4.66 17 5.32 17 6 C15.35 6 13.7 6 12 6 C12 5.01 12 4.02 12 3 C8.04 3 4.08 3 0 3 C0 2.01 0 1.02 0 0 Z " fill="#8B8686" transform="translate(30,4)"/>
<path d="M0 0 C1.98 0 3.96 0 6 0 C6 0.99 6 1.98 6 3 C5.01 3 4.02 3 3 3 C3 4.65 3 6.3 3 8 C4.65 8 6.3 8 8 8 C8 8.99 8 9.98 8 11 C5.36 11 2.72 11 0 11 C0 7.37 0 3.74 0 0 Z " fill="#241F21" transform="translate(27,13)"/>
<path d="M0 0 C1.76923828 0.04060547 1.76923828 0.04060547 3.57421875 0.08203125 C4.47785156 0.11683594 5.38148437 0.15164062 6.3125 0.1875 C6.3125 2.1875 6.3125 2.1875 5.3125 3.8125 C2.11164107 6.01309052 -0.86643517 5.37542122 -4.6875 5.1875 C-4.6875 4.5275 -4.6875 3.8675 -4.6875 3.1875 C-6.3375 3.1875 -7.9875 3.1875 -9.6875 3.1875 C-6.99455929 -0.5165087 -4.35133403 -0.12924755 0 0 Z " fill="#675854" transform="translate(23.6875,53.8125)"/>
<path d="M0 0 C1.50433594 0.01353516 1.50433594 0.01353516 3.0390625 0.02734375 C3.80992188 0.03894531 4.58078125 0.05054688 5.375 0.0625 C5.375 1.0525 5.375 2.0425 5.375 3.0625 C3.725 3.0625 2.075 3.0625 0.375 3.0625 C0.375 3.7225 0.375 4.3825 0.375 5.0625 C-2.265 5.0625 -4.905 5.0625 -7.625 5.0625 C-7.625 3.7425 -7.625 2.4225 -7.625 1.0625 C-4.98041621 -0.25979189 -2.94738699 -0.03427194 0 0 Z " fill="#6E5B57" transform="translate(55.625,53.9375)"/>
<path d="M0 0 C1.65 0.33 3.3 0.66 5 1 C5 1.66 5 2.32 5 3 C4.01 3 3.02 3 2 3 C2 4.65 2 6.3 2 8 C1.01 8 0.02 8 -1 8 C-1 7.34 -1 6.68 -1 6 C-1.66 6 -2.32 6 -3 6 C-3 6.66 -3 7.32 -3 8 C-4.98 8 -6.96 8 -9 8 C-9 7.34 -9 6.68 -9 6 C-7.35 6 -5.7 6 -4 6 C-4 5.01 -4 4.02 -4 3 C-3.01 3 -2.02 3 -1 3 C-0.67 2.01 -0.34 1.02 0 0 Z " fill="#332F2D" transform="translate(65,51)"/>
<path d="M0 0 C1.32 0 2.64 0 4 0 C4 1.65 4 3.3 4 5 C3.01 5 2.02 5 1 5 C0.67 7.64 0.34 10.28 0 13 C-0.99 13 -1.98 13 -3 13 C-3 10.03 -3 7.06 -3 4 C-2.01 3.67 -1.02 3.34 0 3 C0 2.01 0 1.02 0 0 Z " fill="#816C6B" transform="translate(7,33)"/>
<path d="M0 0 C0.99 0 1.98 0 3 0 C2.67 2.31 2.34 4.62 2 7 C1.34 7 0.68 7 0 7 C0 9.64 0 12.28 0 15 C-0.99 15 -1.98 15 -3 15 C-4.125 7.25 -4.125 7.25 -3 5 C-2.01 5 -1.02 5 0 5 C0 3.35 0 1.7 0 0 Z " fill="#5C3E39" transform="translate(11,33)"/>
<path d="M0 0 C0.99 0 1.98 0 3 0 C3 2.97 3 5.94 3 9 C3.99 9 4.98 9 6 9 C6 10.65 6 12.3 6 14 C5.01 14 4.02 14 3 14 C3 13.01 3 12.02 3 11 C1.68 11 0.36 11 -1 11 C-0.67 7.37 -0.34 3.74 0 0 Z " fill="#2E292A" transform="translate(36,24)"/>
<path d="M0 0 C0.33 0 0.66 0 1 0 C1 1.65 1 3.3 1 5 C3.64 5 6.28 5 9 5 C9 8.3 9 11.6 9 15 C7.68 14.67 6.36 14.34 5 14 C5.33 11.69 5.66 9.38 6 7 C3.69 7 1.38 7 -1 7 C-0.67 4.69 -0.34 2.38 0 0 Z " fill="#2B2525" transform="translate(16,113)"/>
<path d="M0 0 C0.99 0 1.98 0 3 0 C2.76228882 0.74781738 2.76228882 0.74781738 2.51977539 1.51074219 C1.8044961 4.93628827 1.76415926 8.34247117 1.68359375 11.828125 C1.66281265 12.57713074 1.64203156 13.32613647 1.62062073 14.09783936 C1.55542912 16.48180288 1.49638217 18.86587312 1.4375 21.25 C1.39428584 22.86980254 1.35067063 24.48959443 1.30664062 26.109375 C1.19977904 30.07280832 1.09842667 34.0363486 1 38 C1.66 38.33 2.32 38.66 3 39 C2.01 39 1.02 39 0 39 C0 26.13 0 13.26 0 0 Z " fill="#8D8383" transform="translate(33,95)"/>
<path d="M0 0 C4.95 0 9.9 0 15 0 C13 2 13 2 10.3984375 2.1953125 C9.40070312 2.17210938 8.40296875 2.14890625 7.375 2.125 C5.87066406 2.09792969 5.87066406 2.09792969 4.3359375 2.0703125 C3.56507812 2.04710938 2.79421875 2.02390625 2 2 C2 4.97 2 7.94 2 11 C1.01 11.495 1.01 11.495 0 12 C0 8.04 0 4.08 0 0 Z " fill="#1B181A" transform="translate(14,108)"/>
<path d="M0 0 C0.99 0 1.98 0 3 0 C3 0.99 3 1.98 3 3 C3.99 3 4.98 3 6 3 C6 3.66 6 4.32 6 5 C7.98 5 9.96 5 12 5 C12 4.34 12 3.68 12 3 C12.66 3.33 13.32 3.66 14 4 C13.67 4.66 13.34 5.32 13 6 C9.9375 6.625 9.9375 6.625 7 7 C7.66 8.32 8.32 9.64 9 11 C8.01 11 7.02 11 6 11 C6 10.01 6 9.02 6 8 C3.03 8 0.06 8 -3 8 C-3.33 8.66 -3.66 9.32 -4 10 C-4 9.01 -4 8.02 -4 7 C-0.92382812 6.70703125 -0.92382812 6.70703125 2.15234375 6.4140625 C2.76207031 6.27742188 3.37179688 6.14078125 4 6 C4.33 5.34 4.66 4.68 5 4 C3.35 3.67 1.7 3.34 0 3 C0 2.01 0 1.02 0 0 Z " fill="#DCDCDD" transform="translate(36,35)"/>
<path d="M0 0 C0.99 0 1.98 0 3 0 C3 4.95 3 9.9 3 15 C2.01 15 1.02 15 0 15 C0 10.05 0 5.1 0 0 Z " fill="#2A2628" transform="translate(1,36)"/>
<path d="M0 0 C1.98 0 3.96 0 6 0 C6 1.98 6 3.96 6 6 C5.01 6 4.02 6 3 6 C3 6.99 3 7.98 3 9 C2.01 9 1.02 9 0 9 C0 6.03 0 3.06 0 0 Z " fill="#7E7775" transform="translate(39,24)"/>
<path d="M0 0 C0.90105469 0.02707031 1.80210938 0.05414062 2.73046875 0.08203125 C3.76107422 0.13423828 3.76107422 0.13423828 4.8125 0.1875 C4.8125 1.1775 4.8125 2.1675 4.8125 3.1875 C2.1725 3.1875 -0.4675 3.1875 -3.1875 3.1875 C-3.1875 3.8475 -3.1875 4.5075 -3.1875 5.1875 C-4.8375 5.5175 -6.4875 5.8475 -8.1875 6.1875 C-8.1875 3.1875 -8.1875 3.1875 -7.01171875 1.51171875 C-4.56536496 -0.26411409 -2.9895229 -0.11647492 0 0 Z " fill="#908584" transform="translate(19.1875,26.8125)"/>
<path d="M0 0 C4.55384615 -0.36923077 4.55384615 -0.36923077 6.8125 1.5 C7.204375 1.995 7.59625 2.49 8 3 C8 2.34 8 1.68 8 1 C9.98 1 11.96 1 14 1 C13.67 1.99 13.34 2.98 13 4 C13 3.34 13 2.68 13 2 C11.68 2 10.36 2 9 2 C9 2.66 9 3.32 9 4 C8.01 4 7.02 4 6 4 C6 4.66 6 5.32 6 6 C4.02 6 2.04 6 0 6 C0 4.02 0 2.04 0 0 Z " fill="#4F494C" transform="translate(42,34)"/>
<path d="M0 0 C3.63 0 7.26 0 11 0 C11 0.99 11 1.98 11 3 C12.32 3.33 13.64 3.66 15 4 C15 4.66 15 5.32 15 6 C12.03 5.505 12.03 5.505 9 5 C9 4.01 9 3.02 9 2 C7.02 2 5.04 2 3 2 C3 2.66 3 3.32 3 4 C2.01 3.67 1.02 3.34 0 3 C0 2.01 0 1.02 0 0 Z " fill="#292325" transform="translate(47,33)"/>
<path d="M0 0 C1.65 0 3.3 0 5 0 C5 0.99 5 1.98 5 3 C5.99 3 6.98 3 8 3 C8 3.99 8 4.98 8 6 C8.66 6.33 9.32 6.66 10 7 C9.34 7 8.68 7 8 7 C8 7.66 8 8.32 8 9 C7.01 9 6.02 9 5 9 C5 8.01 5 7.02 5 6 C4.34 6 3.68 6 3 6 C3 5.01 3 4.02 3 3 C2.01 3 1.02 3 0 3 C0 2.01 0 1.02 0 0 Z " fill="#332F31" transform="translate(45,4)"/>
<path d="M0 0 C0.66 0 1.32 0 2 0 C2 3.63 2 7.26 2 11 C0.02 11 -1.96 11 -4 11 C-3.67 10.01 -3.34 9.02 -3 8 C-2.34 8 -1.68 8 -1 8 C-1.020625 6.865625 -1.04125 5.73125 -1.0625 4.5625 C-1 1 -1 1 0 0 Z " fill="#1F1B1C" transform="translate(43,13)"/>
<path d="M0 0 C3.3 0 6.6 0 10 0 C10.33 0.66 10.66 1.32 11 2 C8.03 2 5.06 2 2 2 C2 2.99 2 3.98 2 5 C-1.75 6.125 -1.75 6.125 -4 5 C-4 4.01 -4 3.02 -4 2 C-2.68 2 -1.36 2 0 2 C0 1.34 0 0.68 0 0 Z " fill="#514B4B" transform="translate(31,8)"/>
<path d="M0 0 C0.99 0.33 1.98 0.66 3 1 C2.67 6.28 2.34 11.56 2 17 C0.35 16.67 -1.3 16.34 -3 16 C-2.01 15.67 -1.02 15.34 0 15 C0 10.05 0 5.1 0 0 Z " fill="#201E1E" transform="translate(19,10)"/>
<path d="M0 0 C0.33 0.66 0.66 1.32 1 2 C2.65391846 2.39171753 4.32345271 2.72057545 6 3 C6.99 3.33 7.98 3.66 9 4 C9 3.01 9 2.02 9 1 C9.66 1 10.32 1 11 1 C11.042721 2.66611905 11.04063832 4.33382885 11 6 C10 7 10 7 6.9375 7.0625 C5.968125 7.041875 4.99875 7.02125 4 7 C4 6.01 4 5.02 4 4 C2.68 4 1.36 4 0 4 C0 2.68 0 1.36 0 0 Z " fill="#473E3B" transform="translate(24,26)"/>
<path d="M0 0 C1.32 0.66 2.64 1.32 4 2 C3.67 2.99 3.34 3.98 3 5 C2.01 5.33 1.02 5.66 0 6 C-0.33 6.66 -0.66 7.32 -1 8 C-1.99 8 -2.98 8 -4 8 C-4 6.02 -4 4.04 -4 2 C-2.68 2 -1.36 2 0 2 C0 1.34 0 0.68 0 0 Z " fill="#6B5D5A" transform="translate(65,46)"/>
<path d="M0 0 C0.33 0.66 0.66 1.32 1 2 C2.65 2 4.3 2 6 2 C5.01 2.33 4.02 2.66 3 3 C3 3.66 3 4.32 3 5 C2.01 5 1.02 5 0 5 C0 5.99 0 6.98 0 8 C-0.99 8 -1.98 8 -3 8 C-3 7.34 -3 6.68 -3 6 C-3.99 5.67 -4.98 5.34 -6 5 C-5.01 5 -4.02 5 -3 5 C-3 4.01 -3 3.02 -3 2 C-2.01 2 -1.02 2 0 2 C0 1.34 0 0.68 0 0 Z " fill="#444443" transform="translate(33,43)"/>
<path d="M0 0 C0 1.32 0 2.64 0 4 C0.99 4.33 1.98 4.66 3 5 C3 5.99 3 6.98 3 8 C2.01 8 1.02 8 0 8 C0 7.34 0 6.68 0 6 C-0.99 6 -1.98 6 -3 6 C-3 5.01 -3 4.02 -3 3 C-3.99 3 -4.98 3 -6 3 C-6 2.34 -6 1.68 -6 1 C-3 0 -3 0 0 0 Z " fill="#2F2C2B" transform="translate(68,27)"/>
<path d="M0 0 C1.98 0 3.96 0 6 0 C6 0.99 6 1.98 6 3 C5.01 3 4.02 3 3 3 C3 4.65 3 6.3 3 8 C2.01 8 1.02 8 0 8 C0 5.36 0 2.72 0 0 Z " fill="#5F5B5B" transform="translate(33,134)"/>
<path d="M0 0 C0.99 0.33 1.98 0.66 3 1 C3.1875 3.875 3.1875 3.875 3 7 C2.01 7.66 1.02 8.32 0 9 C-0.33 8.01 -0.66 7.02 -1 6 C-2.65 6 -4.3 6 -6 6 C-4.71034824 4.62437146 -3.37310707 3.29233607 -2 2 C-1.34 2 -0.68 2 0 2 C0 1.34 0 0.68 0 0 Z " fill="#462E25" transform="translate(30,127)"/>
<path d="M0 0 C0.99 0 1.98 0 3 0 C3 3.63 3 7.26 3 11 C2.01 11 1.02 11 0 11 C0 7.37 0 3.74 0 0 Z " fill="#6C6565" transform="translate(36,102)"/>
<path d="M0 0 C3.3 0 6.6 0 10 0 C10 0.99 10 1.98 10 3 C7.03 3 4.06 3 1 3 C0.67 3.66 0.34 4.32 0 5 C0 3.35 0 1.7 0 0 Z " fill="#8B868A" transform="translate(17,128)"/>
<path d="M0 0 C0.66 0 1.32 0 2 0 C2 3.96 2 7.92 2 12 C1.01 12.495 1.01 12.495 0 13 C-2.125 12.0625 -2.125 12.0625 -4 11 C-2.68 10.67 -1.36 10.34 0 10 C0 6.7 0 3.4 0 0 Z " fill="#272326" transform="translate(31,98)"/>
<path d="M0 0 C0.99 0 1.98 0 3 0 C2.979375 0.763125 2.95875 1.52625 2.9375 2.3125 C2.87057159 5.10185786 2.87057159 5.10185786 4 8 C3.01 8.495 3.01 8.495 2 9 C1.34 8.67 0.68 8.34 0 8 C0 6.68 0 5.36 0 4 C-0.66 4 -1.32 4 -2 4 C-1.34 2.68 -0.68 1.36 0 0 Z " fill="#66463A" transform="translate(36,91)"/>
<path d="M0 0 C0.99 0.33 1.98 0.66 3 1 C3 1.66 3 2.32 3 3 C3.99 3 4.98 3 6 3 C6 4.65 6 6.3 6 8 C4.68 8 3.36 8 2 8 C2 7.01 2 6.02 2 5 C1.34 5 0.68 5 0 5 C0 3.35 0 1.7 0 0 Z " fill="#231E1E" transform="translate(5,51)"/>
<path d="M0 0 C0.66 0 1.32 0 2 0 C2 3.63 2 7.26 2 11 C0.35 11 -1.3 11 -3 11 C-3 10.01 -3 9.02 -3 8 C-2.01 8 -1.02 8 0 8 C0 5.36 0 2.72 0 0 Z " fill="#5C5656" transform="translate(25,13)"/>
<path d="M0 0 C3.96 0 7.92 0 12 0 C12 0.33 12 0.66 12 1 C9.69 1 7.38 1 5 1 C5 1.66 5 2.32 5 3 C4.34 3 3.68 3 3 3 C3 4.32 3 5.64 3 7 C2.34 7 1.68 7 1 7 C0.67 4.69 0.34 2.38 0 0 Z " fill="#6F6768" transform="translate(16,110)"/>
<path d="M0 0 C0.99 0 1.98 0 3 0 C3 1.65 3 3.3 3 5 C-0.63 5 -4.26 5 -8 5 C-7.67 4.34 -7.34 3.68 -7 3 C-4.69 3 -2.38 3 0 3 C0 2.01 0 1.02 0 0 Z " fill="#201B1C" transform="translate(27,49)"/>
<path d="M0 0 C1.65 0 3.3 0 5 0 C5.33 1.65 5.66 3.3 6 5 C3.36 5 0.72 5 -2 5 C-1.34 4.67 -0.68 4.34 0 4 C0 2.68 0 1.36 0 0 Z " fill="#5F403B" transform="translate(19,113)"/>
<path d="M0 0 C0.33 0.99 0.66 1.98 1 3 C1.99 3 2.98 3 4 3 C4 5.31 4 7.62 4 10 C1.5 8.3125 1.5 8.3125 -1 6 C-1.375 3.3125 -1.375 3.3125 -1 1 C-0.67 0.67 -0.34 0.34 0 0 Z " fill="#777473" transform="translate(49,10)"/>
<path d="M0 0 C0.99 0 1.98 0 3 0 C3 0.99 3 1.98 3 3 C3.99 3 4.98 3 6 3 C6 3.99 6 4.98 6 6 C4.02 6 2.04 6 0 6 C0 4.02 0 2.04 0 0 Z " fill="#6F6666" transform="translate(27,59)"/>
<path d="M0 0 C0.66 0 1.32 0 2 0 C2.33 0.66 2.66 1.32 3 2 C5.32156597 2.40729228 7.6568787 2.74438677 10 3 C10 3.66 10 4.32 10 5 C6.7 5 3.4 5 0 5 C0 3.35 0 1.7 0 0 Z " fill="#211A19" transform="translate(45,49)"/>
<path d="M0 0 C2.97 0 5.94 0 9 0 C9 0.99 9 1.98 9 3 C6.03 3 3.06 3 0 3 C0 2.01 0 1.02 0 0 Z " fill="#1F1B1D" transform="translate(33,10)"/>
<path d="M0 0 C0.99 1.485 0.99 1.485 2 3 C4.20725073 3.36362818 4.20725073 3.36362818 6.625 3.1875 C7.44226563 3.16042969 8.25953125 3.13335937 9.1015625 3.10546875 C9.72804688 3.07066406 10.35453125 3.03585938 11 3 C8 5 8 5 5.3125 4.625 C4.549375 4.41875 3.78625 4.2125 3 4 C3 5.32 3 6.64 3 8 C2.01 8 1.02 8 0 8 C0 5.36 0 2.72 0 0 Z " fill="#564C4B" transform="translate(16,128)"/>
<path d="M0 0 C3.63 0 7.26 0 11 0 C10.01 1.485 10.01 1.485 9 3 C5.375 3.1875 5.375 3.1875 2 3 C2 2.34 2 1.68 2 1 C1.34 0.67 0.68 0.34 0 0 Z " fill="#4A4646" transform="translate(31,80)"/>
<path d="M0 0 C0.99 0 1.98 0 3 0 C3 0.99 3 1.98 3 3 C3.99 3 4.98 3 6 3 C6 3.99 6 4.98 6 6 C4.33388095 6.042721 2.66617115 6.04063832 1 6 C0 5 0 5 -0.0625 2.4375 C-0.041875 1.633125 -0.02125 0.82875 0 0 Z " fill="#463E3D" transform="translate(30,67)"/>
<path d="M0 0 C0 1.98 0 3.96 0 6 C-0.33 5.01 -0.66 4.02 -1 3 C-1.66 3 -2.32 3 -3 3 C-3 3.99 -3 4.98 -3 6 C-3.99 5.67 -4.98 5.34 -6 5 C-6 3.68 -6 2.36 -6 1 C-3 0 -3 0 0 0 Z " fill="#48413E" transform="translate(48,56)"/>
<path d="M0 0 C0.66 0 1.32 0 2 0 C2 2.64 2 5.28 2 8 C1.01 8 0.02 8 -1 8 C-1.33 8.66 -1.66 9.32 -2 10 C-2.33 8.68 -2.66 7.36 -3 6 C-2.34 5.67 -1.68 5.34 -1 5 C-0.34444881 2.47266765 -0.34444881 2.47266765 0 0 Z " fill="#262020" transform="translate(62,40)"/>
<path d="M0 0 C0.99 0 1.98 0 3 0 C3 1.32 3 2.64 3 4 C5.64 4 8.28 4 11 4 C11 4.33 11 4.66 11 5 C6.71 5 2.42 5 -2 5 C-1.34 4.67 -0.68 4.34 0 4 C0 2.68 0 1.36 0 0 Z " fill="#453634" transform="translate(19,132)"/>
<path d="M0 0 C0.66 0.33 1.32 0.66 2 1 C1.6875 3.875 1.6875 3.875 1 7 C0.01 7.66 -0.98 8.32 -2 9 C-2 6.36 -2 3.72 -2 1 C-1.34 0.67 -0.68 0.34 0 0 Z " fill="#575152" transform="translate(27,116)"/>
<path d="M0 0 C0.66 0 1.32 0 2 0 C2.33 0.66 2.66 1.32 3 2 C5.52733235 2.65555119 5.52733235 2.65555119 8 3 C8 3.66 8 4.32 8 5 C5.69 5 3.38 5 1 5 C0.67 5.66 0.34 6.32 0 7 C0 4.69 0 2.38 0 0 Z " fill="#463F3C" transform="translate(11,54)"/>
<path d="M0 0 C0.99 0 1.98 0 3 0 C3 1.32 3 2.64 3 4 C2.01 4 1.02 4 0 4 C0 4.99 0 5.98 0 7 C-0.99 7 -1.98 7 -3 7 C-3 5.68 -3 4.36 -3 3 C-2.01 3 -1.02 3 0 3 C0 2.01 0 1.02 0 0 Z " fill="#938E8C" transform="translate(33,48)"/>
<path d="M0 0 C0.99 0 1.98 0 3 0 C3 2.64 3 5.28 3 8 C2.01 8 1.02 8 0 8 C0 5.36 0 2.72 0 0 Z " fill="#9B857F" transform="translate(4,38)"/>
<path d="M0 0 C2.64 0 5.28 0 8 0 C7.67 0.99 7.34 1.98 7 3 C4.03 3 1.06 3 -2 3 C-1.34 2.67 -0.68 2.34 0 2 C0 1.34 0 0.68 0 0 Z " fill="#4E4549" transform="translate(16,30)"/>
<path d="M0 0 C2.64 0 5.28 0 8 0 C8 0.99 8 1.98 8 3 C5.36 3 2.72 3 0 3 C0 2.01 0 1.02 0 0 Z " fill="#948F8E" transform="translate(53,27)"/>
<path d="M0 0 C0.99 0 1.98 0 3 0 C2.67 3.3 2.34 6.6 2 10 C1.01 10.33 0.02 10.66 -1 11 C-0.67 7.37 -0.34 3.74 0 0 Z " fill="#1F1919" transform="translate(36,24)"/>
<path d="M0 0 C2.64 0 5.28 0 8 0 C8 0.99 8 1.98 8 3 C5.36 3 2.72 3 0 3 C0 2.01 0 1.02 0 0 Z " fill="#2F2C2D" transform="translate(27,21)"/>
<path d="M0 0 C4.95 0 9.9 0 15 0 C14.67 0.66 14.34 1.32 14 2 C10.7 1.67 7.4 1.34 4 1 C4 1.66 4 2.32 4 3 C2.68 3 1.36 3 0 3 C0 2.01 0 1.02 0 0 Z " fill="#787270" transform="translate(27,7)"/>
<path d="M0 0 C0.99 0 1.98 0 3 0 C3.33 2.97 3.66 5.94 4 9 C3.34 9 2.68 9 2 9 C2 8.01 2 7.02 2 6 C1.01 6 0.02 6 -1 6 C-1 5.34 -1 4.68 -1 4 C-0.01 4 0.98 4 2 4 C2 3.01 2 2.02 2 1 C1.34 0.67 0.68 0.34 0 0 Z " fill="#413130" transform="translate(28,110)"/>
<path d="M0 0 C0.33 0 0.66 0 1 0 C1 3.63 1 7.26 1 11 C0.67 10.34 0.34 9.68 0 9 C-1.65 9 -3.3 9 -5 9 C-5.33 9.66 -5.66 10.32 -6 11 C-6 10.01 -6 9.02 -6 8 C-4.68 8 -3.36 8 -2 8 C-2 7.34 -2 6.68 -2 6 C-1.34 6 -0.68 6 0 6 C0 4.02 0 2.04 0 0 Z " fill="#5B5659" transform="translate(47,67)"/>
<path d="M0 0 C1.32 0.33 2.64 0.66 4 1 C4 1.66 4 2.32 4 3 C5.98 3 7.96 3 10 3 C10 2.01 10 1.02 10 0 C10.99 0.33 11.98 0.66 13 1 C12.34 1 11.68 1 11 1 C11 1.99 11 2.98 11 4 C8.03 4 5.06 4 2 4 C2 3.34 2 2.68 2 2 C1.34 2 0.68 2 0 2 C0 1.34 0 0.68 0 0 Z " fill="#D2D3D3" transform="translate(45,47)"/>
<path d="M0 0 C0.33 0.66 0.66 1.32 1 2 C0.67 2.66 0.34 3.32 0 4 C-0.99 4 -1.98 4 -3 4 C-3 4.99 -3 5.98 -3 7 C-3.99 7 -4.98 7 -6 7 C-6 6.01 -6 5.02 -6 4 C-5.34 4 -4.68 4 -4 4 C-4 3.01 -4 2.02 -4 1 C-2.68 0.67 -1.36 0.34 0 0 Z " fill="#8C8A8B" transform="translate(39,20)"/>
<path d="M0 0 C0.99 0 1.98 0 3 0 C3 2.31 3 4.62 3 7 C1.68 6.67 0.36 6.34 -1 6 C-0.67 4.02 -0.34 2.04 0 0 Z " fill="#363435" transform="translate(48,73)"/>
<path d="M0 0 C4.29 0 8.58 0 13 0 C13 0.33 13 0.66 13 1 C11.2984375 1.2165625 11.2984375 1.2165625 9.5625 1.4375 C6.19222799 1.61171478 6.19222799 1.61171478 5 3 C3.33382885 3.04063832 1.66611905 3.042721 0 3 C0 2.01 0 1.02 0 0 Z " fill="#453F3D" transform="translate(14,51)"/>
<path d="M0 0 C1.98 0 3.96 0 6 0 C6 1.65 6 3.3 6 5 C5.01 5 4.02 5 3 5 C3 4.01 3 3.02 3 2 C2.01 2 1.02 2 0 2 C0 1.34 0 0.68 0 0 Z " fill="#48403E" transform="translate(27,57)"/>
<path d="M0 0 C0.99 0 1.98 0 3 0 C3 0.99 3 1.98 3 3 C2.34 3 1.68 3 1 3 C1 3.66 1 4.32 1 5 C-0.98 5 -2.96 5 -5 5 C-5 4.34 -5 3.68 -5 3 C-3.35 3 -1.7 3 0 3 C0 2.01 0 1.02 0 0 Z " fill="#493E3E" transform="translate(61,54)"/>
<path d="M0 0 C2.31 0 4.62 0 7 0 C5.875 2 5.875 2 4 4 C0.8125 4.25 0.8125 4.25 -2 4 C-1.34 2.68 -0.68 1.36 0 0 Z " fill="#71645E" transform="translate(23,55)"/>
<path d="M0 0 C2.76276177 0.52268466 5.3260876 1.10869587 8 2 C8 2.66 8 3.32 8 4 C6.02 4 4.04 4 2 4 C2 3.34 2 2.68 2 2 C1.34 2 0.68 2 0 2 C0 1.34 0 0.68 0 0 Z " fill="#232021" transform="translate(25,36)"/>
<path d="M0 0 C0.99 0 1.98 0 3 0 C3 2.97 3 5.94 3 9 C2.34 9 1.68 9 1 9 C0.67 6.03 0.34 3.06 0 0 Z " fill="#1F1919" transform="translate(1,36)"/>
<path d="M0 0 C0.99 0 1.98 0 3 0 C3 2.31 3 4.62 3 7 C2.01 6.67 1.02 6.34 0 6 C0 4.02 0 2.04 0 0 Z " fill="#3A3937" transform="translate(39,105)"/>
<path d="M0 0 C0.99 0 1.98 0 3 0 C3.33 1.32 3.66 2.64 4 4 C3.34 4 2.68 4 2 4 C1.67 5.32 1.34 6.64 1 8 C1.66 8.33 2.32 8.66 3 9 C2.01 9 1.02 9 0 9 C0 6.03 0 3.06 0 0 Z " fill="#504948" transform="translate(4,48)"/>
<path d="M0 0 C0.33 0.99 0.66 1.98 1 3 C3.01508358 3.73323796 3.01508358 3.73323796 5 4 C5 4.66 5 5.32 5 6 C2.03 5.505 2.03 5.505 -1 5 C-0.67 3.35 -0.34 1.7 0 0 Z " fill="#211A19" transform="translate(57,33)"/>
<path d="M0 0 C0.33 0 0.66 0 1 0 C1 3.3 1 6.6 1 10 C-0.32 10.33 -1.64 10.66 -3 11 C-3 10.01 -3 9.02 -3 8 C-2.01 8 -1.02 8 0 8 C0 5.36 0 2.72 0 0 Z " fill="#3D3A38" transform="translate(53,13)"/>
<path d="M0 0 C0.99 0 1.98 0 3 0 C3 0.99 3 1.98 3 3 C2.34 3 1.68 3 1 3 C1 3.66 1 4.32 1 5 C0.01 5 -0.98 5 -2 5 C-1.125 1.125 -1.125 1.125 0 0 Z " fill="#49423D" transform="translate(38,62)"/>
<path d="M0 0 C0.66 0 1.32 0 2 0 C2 1.98 2 3.96 2 6 C0.35 5.67 -1.3 5.34 -3 5 C-3 4.34 -3 3.68 -3 3 C-2.01 3 -1.02 3 0 3 C0 2.01 0 1.02 0 0 Z " fill="#696264" transform="translate(45,59)"/>
<path d="M0 0 C0.33 0.99 0.66 1.98 1 3 C1.66 3 2.32 3 3 3 C2.34 4.32 1.68 5.64 1 7 C0.01 6.67 -0.98 6.34 -2 6 C-1.34 6 -0.68 6 0 6 C0 5.34 0 4.68 0 4 C-0.66 3.67 -1.32 3.34 -2 3 C-1.34 2.01 -0.68 1.02 0 0 Z " fill="#807E7E" transform="translate(70,48)"/>
<path d="M0 0 C0.99 0 1.98 0 3 0 C3 2.64 3 5.28 3 8 C2.01 8 1.02 8 0 8 C0 7.34 0 6.68 0 6 C0.66 6 1.32 6 2 6 C1.34 4.02 0.68 2.04 0 0 Z " fill="#2B2526" transform="translate(42,67)"/>
<path d="M0 0 C0.33 0.66 0.66 1.32 1 2 C2.98 2 4.96 2 7 2 C7 2.99 7 3.98 7 5 C6.01 5 5.02 5 4 5 C4 4.34 4 3.68 4 3 C2.35 3 0.7 3 -1 3 C-0.67 2.01 -0.34 1.02 0 0 Z " fill="#797371" transform="translate(38,49)"/>
<path d="M0 0 C0.99 0.33 1.98 0.66 3 1 C3 3.31 3 5.62 3 8 C2.34 8 1.68 8 1 8 C0.67 5.36 0.34 2.72 0 0 Z " fill="#5D4C4C" transform="translate(64,36)"/>
<path d="M0 0 C4.875 0.875 4.875 0.875 6 2 C6.04063832 3.66617115 6.042721 5.33388095 6 7 C5.01 7.495 5.01 7.495 4 8 C4.33 6.35 4.66 4.7 5 3 C4.360625 2.87625 3.72125 2.7525 3.0625 2.625 C2.381875 2.41875 1.70125 2.2125 1 2 C0.67 1.34 0.34 0.68 0 0 Z " fill="#999798" transform="translate(56,38)"/>
<path d="M0 0 C1.65 0 3.3 0 5 0 C5 0.99 5 1.98 5 3 C3.02 3 1.04 3 -1 3 C-0.67 2.01 -0.34 1.02 0 0 Z " fill="#312D2E" transform="translate(40,21)"/>
</svg>
