<?xml version="1.0" encoding="UTF-8"?>
<svg version="1.1" xmlns="http://www.w3.org/2000/svg" width="105" height="147">
<path d="M0 0 C11.22 0 22.44 0 34 0 C34 0.66 34 1.32 34 2 C35.65 2.33 37.3 2.66 39 3 C39 3.66 39 4.32 39 5 C40.32 5 41.64 5 43 5 C43 5.99 43 6.98 43 8 C43.99 8.33 44.98 8.66 46 9 C46 9.66 46 10.32 46 11 C46.99 11 47.98 11 49 11 C49 11.99 49 12.98 49 14 C49.99 14.33 50.98 14.66 52 15 C52 15.66 52 16.32 52 17 C52.99 17 53.98 17 55 17 C55 19.31 55 21.62 55 24 C55.99 24 56.98 24 58 24 C58 33.9 58 43.8 58 54 C59.32 54 60.64 54 62 54 C62 54.99 62 55.98 62 57 C63.485 57.495 63.485 57.495 65 58 C65 58.66 65 59.32 65 60 C65.99 60 66.98 60 68 60 C68 62.97 68 65.94 68 69 C68.66 69 69.32 69 70 69 C70 83.52 70 98.04 70 113 C69.34 113 68.68 113 68 113 C68.020625 113.94875 68.04125 114.8975 68.0625 115.875 C68 119 68 119 67 121 C66.34 121 65.68 121 65 121 C65 122.65 65 124.3 65 126 C64.01 126 63.02 126 62 126 C61.505 127.485 61.505 127.485 61 129 C59.34997172 130.35386936 57.6825613 131.68678142 56 133 C55.34 133.99 54.68 134.98 54 136 C53.34 136 52.68 136 52 136 C51.67 136.99 51.34 137.98 51 139 C50.34 139 49.68 139 49 139 C49 139.66 49 140.32 49 141 C47.02 141 45.04 141 43 141 C43 141.99 43 142.98 43 144 C42.36191406 144.13277344 41.72382812 144.26554688 41.06640625 144.40234375 C39.82697266 144.66724609 39.82697266 144.66724609 38.5625 144.9375 C37.73878906 145.11152344 36.91507812 145.28554687 36.06640625 145.46484375 C34.02338796 145.80752994 34.02338796 145.80752994 33 147 C30.6243148 147.0883967 28.27791326 147.11530305 25.90234375 147.09765625 C24.83905602 147.09553383 24.83905602 147.09553383 23.75428772 147.09336853 C21.48198288 147.08775443 19.20977525 147.07519963 16.9375 147.0625 C15.40039204 147.05748681 13.86328255 147.05292359 12.32617188 147.04882812 C8.55074358 147.03778042 4.77538829 147.02050641 1 147 C1 146.34 1 145.68 1 145 C-1.31 144.67 -3.62 144.34 -6 144 C-6 143.01 -6 142.02 -6 141 C-8.64 141 -11.28 141 -14 141 C-14 140.01 -14 139.02 -14 138 C-14.66 138 -15.32 138 -16 138 C-17.68762851 136.3545622 -19.3540349 134.68711423 -21 133 C-21.66 132.67 -22.32 132.34 -23 132 C-23 131.01 -23 130.02 -23 129 C-23.99 128.67 -24.98 128.34 -26 128 C-26 126.35 -26 124.7 -26 123 C-26.99 123 -27.98 123 -29 123 C-29 122.34 -29 121.68 -29 121 C-29.99 120.67 -30.98 120.34 -32 120 C-33.35439668 117.29120665 -33.06501451 114.99066732 -33 112 C-33.66 111.67 -34.32 111.34 -35 111 C-35 97.14 -35 83.28 -35 69 C-34.34 69 -33.68 69 -33 69 C-33 66.03 -33 63.06 -33 60 C-32.01 60 -31.02 60 -30 60 C-30 59.01 -30 58.02 -30 57 C-28.68 57 -27.36 57 -26 57 C-25.67 46.11 -25.34 35.22 -25 24 C-24.34 24 -23.68 24 -23 24 C-22.67 21.69 -22.34 19.38 -22 17 C-21.01 17 -20.02 17 -19 17 C-19 16.01 -19 15.02 -19 14 C-18.01 14 -17.02 14 -16 14 C-16 13.01 -16 12.02 -16 11 C-15.34 11 -14.68 11 -14 11 C-14 10.01 -14 9.02 -14 8 C-13.195625 7.87625 -12.39125 7.7525 -11.5625 7.625 C-10.716875 7.41875 -9.87125 7.2125 -9 7 C-8.67 6.34 -8.34 5.68 -8 5 C-7.34 5 -6.68 5 -6 5 C-6 4.01 -6 3.02 -6 2 C-4.02 2 -2.04 2 0 2 C0 1.34 0 0.68 0 0 Z M8 18 C8 18.99 8 19.98 8 21 C6.02 21 4.04 21 2 21 C1.67 22.32 1.34 23.64 1 25 C0.01 25 -0.98 25 -2 25 C-2 26.32 -2 27.64 -2 29 C-2.99 29 -3.98 29 -5 29 C-5 36.26 -5 43.52 -5 51 C-4.01 51 -3.02 51 -2 51 C-2 51.99 -2 52.98 -2 54 C-0.68 54 0.64 54 2 54 C2 54.99 2 55.98 2 57 C2.66 57 3.32 57 4 57 C4.33 57.99 4.66 58.98 5 60 C6.98 60 8.96 60 11 60 C11 60.99 11 61.98 11 63 C14.96 63 18.92 63 23 63 C23 62.01 23 61.02 23 60 C24.98 60 26.96 60 29 60 C29 59.01 29 58.02 29 57 C30.98 57 32.96 57 35 57 C35 56.01 35 55.02 35 54 C35.99 53.67 36.98 53.34 38 53 C38 52.34 38 51.68 38 51 C38.66 51 39.32 51 40 51 C40 43.74 40 36.48 40 29 C39.01 29 38.02 29 37 29 C37 27.68 37 26.36 37 25 C36.34 25 35.68 25 35 25 C34.505 23.02 34.505 23.02 34 21 C32.35 21 30.7 21 29 21 C29 20.01 29 19.02 29 18 C22.07 18 15.14 18 8 18 Z " fill="#8C939E" transform="translate(35,0)"/>
<path d="M0 0 C7.92 0 15.84 0 24 0 C24 0.99 24 1.98 24 3 C24.66 3.33 25.32 3.66 26 4 C25.01 4 24.02 4 23 4 C23 3.01 23 2.02 23 1 C22.01 1 21.02 1 20 1 C20 2.98 20 4.96 20 7 C20.99 7 21.98 7 23 7 C23 8.65 23 10.3 23 12 C30.26 12 37.52 12 45 12 C45 11.34 45 10.68 45 10 C47.31 10 49.62 10 52 10 C52 9.01 52 8.02 52 7 C53.98 7 55.96 7 58 7 C58 6.01 58 5.02 58 4 C58.99 4 59.98 4 61 4 C61 3.01 61 2.02 61 1 C66.28 1 71.56 1 77 1 C77 1.99 77 2.98 77 4 C77.99 4 78.98 4 80 4 C80 4.99 80 5.98 80 7 C80.99 7 81.98 7 83 7 C83 9.64 83 12.28 83 15 C83.99 15 84.98 15 86 15 C86 25.56 86 36.12 86 47 C85.01 47 84.02 47 83 47 C83 50.96 83 54.92 83 59 C82.01 59 81.02 59 80 59 C80 54.05 80 49.1 80 44 C80.99 44 81.98 44 83 44 C83 42.02 83 40.04 83 38 C82.01 38 81.02 38 80 38 C79.67 38.99 79.34 39.98 79 41 C78.34 41 77.68 41 77 41 C77 41.99 77 42.98 77 44 C76.01 44 75.02 44 74 44 C74 44.99 74 45.98 74 47 C74.99 47 75.98 47 77 47 C77 48.32 77 49.64 77 51 C76.01 51 75.02 51 74 51 C74 51.66 74 52.32 74 53 C71.69 53 69.38 53 67 53 C67 53.99 67 54.98 67 56 C69.31 56 71.62 56 74 56 C74 58.31 74 60.62 74 63 C74.99 63 75.98 63 77 63 C77 62.01 77 61.02 77 60 C77.99 60 78.98 60 80 60 C80.33 60.66 80.66 61.32 81 62 C82.485 62.495 82.485 62.495 84 63 C83.34 63.99 82.68 64.98 82 66 C82.3121764 68.64632287 82.3121764 68.64632287 83 71 C83.99 71 84.98 71 86 71 C86 69.35 86 67.7 86 66 C87.485 66.495 87.485 66.495 89 67 C88.34 67 87.68 67 87 67 C87 68.65 87 70.3 87 72 C86.01 72 85.02 72 84 72 C83.67 72.66 83.34 73.32 83 74 C83 73.34 83 72.68 83 72 C82.01 72 81.02 72 80 72 C80 71.34 80 70.68 80 70 C78.02 69.67 76.04 69.34 74 69 C74 69.99 74 70.98 74 72 C73.01 72 72.02 72 71 72 C71 72.99 71 73.98 71 75 C69.68 75 68.36 75 67 75 C67 75.99 67 76.98 67 78 C65.02 78 63.04 78 61 78 C61 78.99 61 79.98 61 81 C59.02 81 57.04 81 55 81 C55 81.99 55 82.98 55 84 C44.44 84 33.88 84 23 84 C23 83.01 23 82.02 23 81 C23.99 81 24.98 81 26 81 C26 81.66 26 82.32 26 83 C35.24 83 44.48 83 54 83 C54 82.34 54 81.68 54 81 C52.48019531 81.01740234 52.48019531 81.01740234 50.9296875 81.03515625 C49.57812686 81.04454209 48.2265642 81.05364143 46.875 81.0625 C45.87726562 81.07506836 45.87726562 81.07506836 44.859375 81.08789062 C40.79318646 81.10782292 36.9879908 80.78890161 33 80 C33 79.34 33 78.68 33 78 C34.98 78 36.96 78 39 78 C39 76.68 39 75.36 39 74 C37.72125 73.855625 36.4425 73.71125 35.125 73.5625 C32.74307106 73.29357254 31.15547309 73.07773654 29 72 C29 71.34 29 70.68 29 70 C34.16391829 68.2786939 39.59291236 68.94646448 45 69 C45 62.73 45 56.46 45 50 C45.99 50 46.98 50 48 50 C48 49.01 48 48.02 48 47 C48.66 47 49.32 47 50 47 C50 44.03 50 41.06 50 38 C50.66 38 51.32 38 52 38 C52 37.01 52 36.02 52 35 C50.68 35 49.36 35 48 35 C48 34.01 48 33.02 48 32 C47.01 32 46.02 32 45 32 C45 31.01 45 30.02 45 29 C41.04 29 37.08 29 33 29 C33 30.98 33 32.96 33 35 C30.69 35 28.38 35 26 35 C26 38.96 26 42.92 26 47 C26.99 47 27.98 47 29 47 C29 48.32 29 49.64 29 51 C26 53 26 53 23 53 C23 53.99 23 54.98 23 56 C22.01 56.495 22.01 56.495 21 57 C20.855625 57.639375 20.71125 58.27875 20.5625 58.9375 C20 61 20 61 17 63 C16.01 63 15.02 63 14 63 C14 60.69 14 58.38 14 56 C13.01 56 12.02 56 11 56 C11 55.34 11 54.68 11 54 C9.02 54 7.04 54 5 54 C5 54.66 5 55.32 5 56 C4.01 56 3.02 56 2 56 C2 59.3 2 62.6 2 66 C1.34 66 0.68 66 0 66 C0 65.01 0 64.02 0 63 C-0.99 63 -1.98 63 -3 63 C-3 60.69 -3 58.38 -3 56 C-3.66 56 -4.32 56 -5 56 C-5 53.03 -5 50.06 -5 47 C-5.66 47 -6.32 47 -7 47 C-7 36.44 -7 25.88 -7 15 C-5.68 15 -4.36 15 -3 15 C-3 11.37 -3 7.74 -3 4 C-2.01 4 -1.02 4 0 4 C0 2.68 0 1.36 0 0 Z " fill="#E5B046" transform="translate(13,54)"/>
<path d="M0 0 C0.99 0 1.98 0 3 0 C3 8.91 3 17.82 3 27 C7.29 27 11.58 27 16 27 C16 19.41 16 11.82 16 4 C16.99 4 17.98 4 19 4 C19 11.59 19 19.18 19 27 C20.32 27 21.64 27 23 27 C23 27.99 23 28.98 23 30 C16.4 30 9.8 30 3 30 C3 31.32 3 32.64 3 34 C2.01 34 1.02 34 0 34 C0 37.63 0 41.26 0 45 C-1.32 45 -2.64 45 -4 45 C-4 55.56 -4 66.12 -4 77 C-3.34 77 -2.68 77 -2 77 C-2 79.97 -2 82.94 -2 86 C-1.34 86 -0.68 86 0 86 C0 88.31 0 90.62 0 93 C0.99 93 1.98 93 3 93 C3 93.99 3 94.98 3 96 C3.66 96 4.32 96 5 96 C5 92.7 5 89.4 5 86 C5.99 86 6.98 86 8 86 C8 85.34 8 84.68 8 84 C9.98 84 11.96 84 14 84 C14 84.66 14 85.32 14 86 C14.99 86 15.98 86 17 86 C17 88.31 17 90.62 17 93 C19.97 92.01 19.97 92.01 23 91 C23.33 89.35 23.66 87.7 24 86 C24.66 86 25.32 86 26 86 C26 85.01 26 84.02 26 83 C28.97 82.01 28.97 82.01 32 81 C32 79.68 32 78.36 32 77 C31.01 77 30.02 77 29 77 C29 73.04 29 69.08 29 65 C31.31 65 33.62 65 36 65 C36 63.02 36 61.04 36 59 C39.96 59 43.92 59 48 59 C48 59.99 48 60.98 48 62 C48.99 62 49.98 62 51 62 C51 62.99 51 63.98 51 65 C52.32 65 53.64 65 55 65 C55 65.99 55 66.98 55 68 C54.34 68 53.68 68 53 68 C53 70.97 53 73.94 53 77 C52.34 77 51.68 77 51 77 C51 77.99 51 78.98 51 80 C50.01 80 49.02 80 48 80 C48 86.27 48 92.54 48 99 C40.08 99.495 40.08 99.495 32 100 C32 100.66 32 101.32 32 102 C36.39436211 102.85743651 40.52572076 103.08948558 45 103 C44.01 103.33 43.02 103.66 42 104 C42 105.32 42 106.64 42 108 C40.02 108 38.04 108 36 108 C36 108.66 36 109.32 36 110 C42.93 110.33 49.86 110.66 57 111 C57 111.66 57 112.32 57 113 C47.76 113 38.52 113 29 113 C29 112.34 29 111.68 29 111 C28.01 111 27.02 111 26 111 C26 111.99 26 112.98 26 114 C36.56 114 47.12 114 58 114 C58 113.01 58 112.02 58 111 C59.98 111 61.96 111 64 111 C64 110.01 64 109.02 64 108 C65.98 108 67.96 108 70 108 C70 107.01 70 106.02 70 105 C71.32 105 72.64 105 74 105 C74 104.01 74 103.02 74 102 C74.99 102 75.98 102 77 102 C77 101.01 77 100.02 77 99 C78.98 99.33 80.96 99.66 83 100 C83 100.66 83 101.32 83 102 C83.99 102 84.98 102 86 102 C86 102.99 86 103.98 86 105 C84.36739286 106.37482707 82.69774938 107.70647667 81 109 C80.34 109.99 79.68 110.98 79 112 C78.34 112 77.68 112 77 112 C76.505 113.485 76.505 113.485 76 115 C75.34 115 74.68 115 74 115 C74 115.66 74 116.32 74 117 C72.02 117 70.04 117 68 117 C68 117.99 68 118.98 68 120 C67.36191406 120.13277344 66.72382812 120.26554687 66.06640625 120.40234375 C64.82697266 120.66724609 64.82697266 120.66724609 63.5625 120.9375 C62.32693359 121.19853516 62.32693359 121.19853516 61.06640625 121.46484375 C59.02338796 121.80752994 59.02338796 121.80752994 58 123 C55.6243148 123.0883967 53.27791326 123.11530305 50.90234375 123.09765625 C49.83905602 123.09553383 49.83905602 123.09553383 48.75428772 123.09336853 C46.48198288 123.08775443 44.20977525 123.07519963 41.9375 123.0625 C40.40039204 123.05748681 38.86328255 123.05292359 37.32617188 123.04882812 C33.55074358 123.03778042 29.77538829 123.02050641 26 123 C26 122.34 26 121.68 26 121 C23.69 120.67 21.38 120.34 19 120 C19 119.01 19 118.02 19 117 C16.36 117 13.72 117 11 117 C11 116.01 11 115.02 11 114 C10.34 114 9.68 114 9 114 C7.31237149 112.3545622 5.6459651 110.68711423 4 109 C3.34 108.67 2.68 108.34 2 108 C2 107.01 2 106.02 2 105 C1.01 104.67 0.02 104.34 -1 104 C-1 102.35 -1 100.7 -1 99 C-1.99 99 -2.98 99 -4 99 C-4 98.34 -4 97.68 -4 97 C-4.99 96.67 -5.98 96.34 -7 96 C-8.35439668 93.29120665 -8.06501451 90.99066732 -8 88 C-8.66 87.67 -9.32 87.34 -10 87 C-10 73.14 -10 59.28 -10 45 C-9.34 45 -8.68 45 -8 45 C-8 42.03 -8 39.06 -8 36 C-7.01 36 -6.02 36 -5 36 C-5 35.01 -5 34.02 -5 33 C-3.68 33 -2.36 33 -1 33 C-0.67 22.11 -0.34 11.22 0 0 Z " fill="#91561B" transform="translate(10,24)"/>
<path d="M0 0 C8.25 0 16.5 0 25 0 C25 1.32 25 2.64 25 4 C26.65 4 28.3 4 30 4 C30 4.99 30 5.98 30 7 C30.99 7 31.98 7 33 7 C33 7.99 33 8.98 33 10 C33.66 10 34.32 10 35 10 C35 10.99 35 11.98 35 13 C35.66 13 36.32 13 37 13 C37 13.99 37 14.98 37 16 C37.99 16 38.98 16 40 16 C40 17.98 40 19.96 40 22 C39.34 22 38.68 22 38 22 C38 27.94 38 33.88 38 40 C40.97 40 43.94 40 47 40 C47 31.42 47 22.84 47 14 C46.01 14 45.02 14 44 14 C44 11.69 44 9.38 44 7 C44.99 7 45.98 7 47 7 C47 8.98 47 10.96 47 13 C47.99 13 48.98 13 50 13 C50 22.9 50 32.8 50 43 C51.32 43 52.64 43 54 43 C54 43.99 54 44.98 54 46 C55.485 46.495 55.485 46.495 57 47 C57 47.66 57 48.32 57 49 C57.99 49 58.98 49 60 49 C60 51.97 60 54.94 60 58 C60.66 58 61.32 58 62 58 C62 72.52 62 87.04 62 102 C61.34 102 60.68 102 60 102 C60 103.98 60 105.96 60 108 C58.68 108.33 57.36 108.66 56 109 C56 110.65 56 112.3 56 114 C55.01 114 54.02 114 53 114 C52.34 112.02 51.68 110.04 51 108 C51.66 107.34 52.32 106.68 53 106 C52.01 106 51.02 106 50 106 C50 105.01 50 104.02 50 103 C49.01 103 48.02 103 47 103 C47 103.99 47 104.98 47 106 C46.01 106 45.02 106 44 106 C44 103.69 44 101.38 44 99 C41.69 99 39.38 99 37 99 C37 98.01 37 97.02 37 96 C39.31 96 41.62 96 44 96 C44 95.34 44 94.68 44 94 C44.99 94 45.98 94 47 94 C47 92.68 47 91.36 47 90 C46.01 90 45.02 90 44 90 C44 89.01 44 88.02 44 87 C44.99 87 45.98 87 47 87 C47 86.01 47 85.02 47 84 C48.3125 82.3125 48.3125 82.3125 50 81 C50.99 81 51.98 81 53 81 C53 82.98 53 84.96 53 87 C52.01 87 51.02 87 50 87 C50 91.95 50 96.9 50 102 C50.99 102 51.98 102 53 102 C53 98.04 53 94.08 53 90 C53.99 90 54.98 90 56 90 C56 79.44 56 68.88 56 58 C55.01 58 54.02 58 53 58 C53 55.36 53 52.72 53 50 C52.01 50 51.02 50 50 50 C50 49.01 50 48.02 50 47 C49.01 47 48.02 47 47 47 C47 46.01 47 45.02 47 44 C41.72 44 36.44 44 31 44 C31 44.99 31 45.98 31 47 C30.01 47 29.02 47 28 47 C28 47.99 28 48.98 28 50 C26.02 50 24.04 50 22 50 C22 50.99 22 51.98 22 53 C19.69 53 17.38 53 15 53 C15 53.66 15 54.32 15 55 C7.74 55 0.48 55 -7 55 C-7 53.35 -7 51.7 -7 50 C-7.99 50 -8.98 50 -10 50 C-10 48.02 -10 46.04 -10 44 C-9.01 44 -8.02 44 -7 44 C-7 44.99 -7 45.98 -7 47 C-3.7 47.66 -0.4 48.32 3 49 C3 49.99 3 50.98 3 52 C6.96 52 10.92 52 15 52 C15 51.01 15 50.02 15 49 C16.98 49 18.96 49 21 49 C21 48.01 21 47.02 21 46 C22.98 46 24.96 46 27 46 C27 45.01 27 44.02 27 43 C28.375 41.3125 28.375 41.3125 30 40 C30.66 40 31.32 40 32 40 C32 32.74 32 25.48 32 18 C31.01 18 30.02 18 29 18 C29 16.68 29 15.36 29 14 C28.34 14 27.68 14 27 14 C26.505 12.515 26.505 12.515 26 11 C23.525 10.505 23.525 10.505 21 10 C21 9.01 21 8.02 21 7 C14.07 7 7.14 7 0 7 C0 7.99 0 8.98 0 10 C-2.31 10 -4.62 10 -7 10 C-7 7.69 -7 5.38 -7 3 C-5.02 3 -3.04 3 -1 3 C-0.67 2.01 -0.34 1.02 0 0 Z " fill="#AE772F" transform="translate(43,11)"/>
<path d="M0 0 C0 0.66 0 1.32 0 2 C0.99 2.66 1.98 3.32 3 4 C3.34057617 6.24658203 3.34057617 6.24658203 3.29296875 9.0078125 C3.2784668 10.48701172 3.2784668 10.48701172 3.26367188 11.99609375 C3.23853516 13.02863281 3.21339844 14.06117187 3.1875 15.125 C3.16719727 16.68541016 3.16719727 16.68541016 3.14648438 18.27734375 C3.11105228 20.85207627 3.06165221 23.4257833 3 26 C2.01 26 1.02 26 0 26 C-0.495 27.485 -0.495 27.485 -1 29 C-1.66 29 -2.32 29 -3 29 C-3 29.99 -3 30.98 -3 32 C-3.99 32 -4.98 32 -6 32 C-6 32.99 -6 33.98 -6 35 C-5.01 35 -4.02 35 -3 35 C-3 36.32 -3 37.64 -3 39 C-3.99 39 -4.98 39 -6 39 C-6 39.66 -6 40.32 -6 41 C-8.31 41 -10.62 41 -13 41 C-13 41.99 -13 42.98 -13 44 C-10.69 44 -8.38 44 -6 44 C-6 46.31 -6 48.62 -6 51 C-5.01 51 -4.02 51 -3 51 C-3 50.01 -3 49.02 -3 48 C-2.01 48 -1.02 48 0 48 C0.33 48.66 0.66 49.32 1 50 C1.99 50.33 2.98 50.66 4 51 C3.34 51.99 2.68 52.98 2 54 C2.3121764 56.64632287 2.3121764 56.64632287 3 59 C3.99 59 4.98 59 6 59 C6 57.35 6 55.7 6 54 C6.99 54.33 7.98 54.66 9 55 C8.34 55 7.68 55 7 55 C7 56.65 7 58.3 7 60 C6.01 60 5.02 60 4 60 C3.505 60.99 3.505 60.99 3 62 C3 61.34 3 60.68 3 60 C2.01 60 1.02 60 0 60 C0 59.34 0 58.68 0 58 C-2.97 57.505 -2.97 57.505 -6 57 C-6 57.99 -6 58.98 -6 60 C-6.99 60 -7.98 60 -9 60 C-9 60.99 -9 61.98 -9 63 C-10.32 63 -11.64 63 -13 63 C-13 63.99 -13 64.98 -13 66 C-14.98 66 -16.96 66 -19 66 C-19 66.99 -19 67.98 -19 69 C-20.98 69 -22.96 69 -25 69 C-25 69.99 -25 70.98 -25 72 C-35.56 72 -46.12 72 -57 72 C-57 71.01 -57 70.02 -57 69 C-56.01 69 -55.02 69 -54 69 C-54 69.66 -54 70.32 -54 71 C-44.76 71 -35.52 71 -26 71 C-26 70.34 -26 69.68 -26 69 C-27.01320313 69.01160156 -28.02640625 69.02320313 -29.0703125 69.03515625 C-30.42187314 69.04454209 -31.7734358 69.05364143 -33.125 69.0625 C-34.12273438 69.07506836 -34.12273438 69.07506836 -35.140625 69.08789062 C-39.20681354 69.10782292 -43.0120092 68.78890161 -47 68 C-47 67.34 -47 66.68 -47 66 C-45.02 66 -43.04 66 -41 66 C-41 64.68 -41 63.36 -41 62 C-43.64 61.67 -46.28 61.34 -49 61 C-49 60.67 -49 60.34 -49 60 C-43.06 60 -37.12 60 -31 60 C-31 58.02 -31 56.04 -31 54 C-30.34 54 -29.68 54 -29 54 C-29 52.68 -29 51.36 -29 50 C-28.01 50 -27.02 50 -26 50 C-25.67 49.01 -25.34 48.02 -25 47 C-24.01 47 -23.02 47 -22 47 C-22.83333333 44.83333333 -22.83333333 44.83333333 -25 44 C-24.67 43.01 -24.34 42.02 -24 41 C-25.485 41.495 -25.485 41.495 -27 42 C-26.63335554 37.44444252 -26.29981129 33.41601064 -23.12109375 29.953125 C-21.70945289 28.81169089 -20.26215972 27.71244147 -18.77734375 26.66796875 C-16.52828894 24.55731732 -16.47777296 22.97992413 -16 20 C-15.34 19.67 -14.68 19.34 -14 19 C-13.34 18.01 -12.68 17.02 -12 16 C-10.02 16.33 -8.04 16.66 -6 17 C-6 16.01 -6 15.02 -6 14 C-7.32 14 -8.64 14 -10 14 C-10 12.68 -10 11.36 -10 10 C-10.99 10 -11.98 10 -13 10 C-13 7.69 -13 5.38 -13 3 C-12.01 3 -11.02 3 -10 3 C-10 2.01 -10 1.02 -10 0 C-3.375 -1.125 -3.375 -1.125 0 0 Z " fill="#C88B31" transform="translate(93,66)"/>
<path d="M0 0 C3.96 0 7.92 0 12 0 C12 0.99 12 1.98 12 3 C12.99 3 13.98 3 15 3 C15 3.99 15 4.98 15 6 C16.32 6 17.64 6 19 6 C19 6.99 19 7.98 19 9 C18.34 9 17.68 9 17 9 C17 11.97 17 14.94 17 18 C16.34 18 15.68 18 15 18 C15 18.99 15 19.98 15 21 C14.01 21 13.02 21 12 21 C12 27.27 12 33.54 12 40 C4.08 40.495 4.08 40.495 -4 41 C-4 41.66 -4 42.32 -4 43 C0.39436211 43.85743651 4.52572076 44.08948558 9 44 C8.01 44.33 7.02 44.66 6 45 C6 46.32 6 47.64 6 49 C4.02 49 2.04 49 0 49 C0 49.66 0 50.32 0 51 C6.93 51.33 13.86 51.66 21 52 C21 52.66 21 53.32 21 54 C11.76 54 2.52 54 -7 54 C-7 53.34 -7 52.68 -7 52 C-7.63808594 51.95101562 -8.27617188 51.90203125 -8.93359375 51.8515625 C-9.75988281 51.77679688 -10.58617188 51.70203125 -11.4375 51.625 C-12.26121094 51.55539063 -13.08492187 51.48578125 -13.93359375 51.4140625 C-14.95646484 51.20910156 -14.95646484 51.20910156 -16 51 C-16.33 50.34 -16.66 49.68 -17 49 C-19.52733235 48.34444881 -19.52733235 48.34444881 -22 48 C-22 47.01 -22 46.02 -22 45 C-22.99 45 -23.98 45 -25 45 C-25 44.34 -25 43.68 -25 43 C-25.99 43 -26.98 43 -28 43 C-28 42.01 -28 41.02 -28 40 C-28.99 40 -29.98 40 -31 40 C-31 35.71 -31 31.42 -31 27 C-30.01 27 -29.02 27 -28 27 C-28 26.34 -28 25.68 -28 25 C-26.02 25 -24.04 25 -22 25 C-22 25.66 -22 26.32 -22 27 C-21.01 27 -20.02 27 -19 27 C-19 29.31 -19 31.62 -19 34 C-17.02 33.34 -15.04 32.68 -13 32 C-12.67 30.35 -12.34 28.7 -12 27 C-11.34 27 -10.68 27 -10 27 C-10 26.01 -10 25.02 -10 24 C-8.02 23.34 -6.04 22.68 -4 22 C-4 20.68 -4 19.36 -4 18 C-4.99 18 -5.98 18 -7 18 C-7 14.04 -7 10.08 -7 6 C-4.69 6 -2.38 6 0 6 C0 4.02 0 2.04 0 0 Z " fill="#D8A03F" transform="translate(46,83)"/>
<path d="M0 0 C7.92 0 15.84 0 24 0 C24 0.99 24 1.98 24 3 C24.66 3.33 25.32 3.66 26 4 C25.01 4 24.02 4 23 4 C23 3.01 23 2.02 23 1 C22.01 1 21.02 1 20 1 C20 2.98 20 4.96 20 7 C20.99 7 21.98 7 23 7 C23 8.65 23 10.3 23 12 C32.57 12.33 42.14 12.66 52 13 C52 13.99 52 14.98 52 16 C44.74 16 37.48 16 30 16 C30 16.99 30 17.98 30 19 C28.68 19 27.36 19 26 19 C26 19.99 26 20.98 26 22 C25.01 22 24.02 22 23 22 C23 23.32 23 24.64 23 26 C22.34 26 21.68 26 21 26 C21 26.99 21 27.98 21 29 C19.68 29 18.36 29 17 29 C17 29.66 17 30.32 17 31 C16.01 31 15.02 31 14 31 C14 32.32 14 33.64 14 35 C13.01 35 12.02 35 11 35 C11 35.99 11 36.98 11 38 C9.02 38 7.04 38 5 38 C5 38.99 5 39.98 5 41 C5.99 41 6.98 41 8 41 C8 41.99 8 42.98 8 44 C6.35 44 4.7 44 3 44 C3 44.99 3 45.98 3 47 C3.66 47 4.32 47 5 47 C5 47.99 5 48.98 5 50 C4.01 50 3.02 50 2 50 C2 49.34 2 48.68 2 48 C1.34 48 0.68 48 0 48 C0 46.68 0 45.36 0 44 C-0.99 44 -1.98 44 -3 44 C-3 46.97 -3 49.94 -3 53 C-2.01 53 -1.02 53 0 53 C0 54.98 0 56.96 0 59 C-0.99 59 -1.98 59 -3 59 C-3 58.01 -3 57.02 -3 56 C-3.66 56 -4.32 56 -5 56 C-5 53.03 -5 50.06 -5 47 C-5.66 47 -6.32 47 -7 47 C-7 36.44 -7 25.88 -7 15 C-5.68 15 -4.36 15 -3 15 C-3 11.37 -3 7.74 -3 4 C-2.01 4 -1.02 4 0 4 C0 2.68 0 1.36 0 0 Z " fill="#F6DB7F" transform="translate(13,54)"/>
<path d="M0 0 C0.99 0 1.98 0 3 0 C3 8.91 3 17.82 3 27 C7.29 27 11.58 27 16 27 C16 19.41 16 11.82 16 4 C16.99 4 17.98 4 19 4 C19 11.59 19 19.18 19 27 C20.32 27 21.64 27 23 27 C23 27.99 23 28.98 23 30 C16.4 30 9.8 30 3 30 C3 31.32 3 32.64 3 34 C2.01 34 1.02 34 0 34 C0 37.63 0 41.26 0 45 C-1.32 45 -2.64 45 -4 45 C-4 55.56 -4 66.12 -4 77 C-3.34 77 -2.68 77 -2 77 C-2 79.97 -2 82.94 -2 86 C-1.34 86 -0.68 86 0 86 C0 87.32 0 88.64 0 90 C-0.99 90 -1.98 90 -3 90 C-3 91.98 -3 93.96 -3 96 C-2.01 96 -1.02 96 0 96 C0 96.99 0 97.98 0 99 C2.31 99.33 4.62 99.66 7 100 C7.99 102.97 8.98 105.94 10 109 C7.6875 109.625 7.6875 109.625 5 110 C4.01 109.34 3.02 108.68 2 108 C2 107.01 2 106.02 2 105 C1.01 104.67 0.02 104.34 -1 104 C-1 102.35 -1 100.7 -1 99 C-1.99 99 -2.98 99 -4 99 C-4 98.34 -4 97.68 -4 97 C-4.99 96.67 -5.98 96.34 -7 96 C-8.35439668 93.29120665 -8.06501451 90.99066732 -8 88 C-8.66 87.67 -9.32 87.34 -10 87 C-10 73.14 -10 59.28 -10 45 C-9.34 45 -8.68 45 -8 45 C-8 42.03 -8 39.06 -8 36 C-7.01 36 -6.02 36 -5 36 C-5 35.01 -5 34.02 -5 33 C-3.68 33 -2.36 33 -1 33 C-0.67 22.11 -0.34 11.22 0 0 Z " fill="#886342" transform="translate(10,24)"/>
<path d="M0 0 C0 0.66 0 1.32 0 2 C0.99 2.66 1.98 3.32 3 4 C3.34057617 6.24658203 3.34057617 6.24658203 3.29296875 9.0078125 C3.28330078 9.99394531 3.27363281 10.98007813 3.26367188 11.99609375 C3.23853516 13.02863281 3.21339844 14.06117187 3.1875 15.125 C3.16719727 16.68541016 3.16719727 16.68541016 3.14648438 18.27734375 C3.11105228 20.85207627 3.06165221 23.4257833 3 26 C2.01 26 1.02 26 0 26 C-0.33 26.99 -0.66 27.98 -1 29 C-1.66 29 -2.32 29 -3 29 C-3 29.99 -3 30.98 -3 32 C-3.99 32 -4.98 32 -6 32 C-6 32.99 -6 33.98 -6 35 C-5.01 35 -4.02 35 -3 35 C-3 36.32 -3 37.64 -3 39 C-3.99 39 -4.98 39 -6 39 C-6 39.66 -6 40.32 -6 41 C-8.31 41 -10.62 41 -13 41 C-13 40.01 -13 39.02 -13 38 C-13.99 38 -14.98 38 -16 38 C-16 38.99 -16 39.98 -16 41 C-16.99 41 -17.98 41 -19 41 C-19 41.99 -19 42.98 -19 44 C-21.97 44.495 -21.97 44.495 -25 45 C-24.67 43.68 -24.34 42.36 -24 41 C-25.485 41.495 -25.485 41.495 -27 42 C-26.63335554 37.44444252 -26.29981129 33.41601064 -23.12109375 29.953125 C-21.70945289 28.81169089 -20.26215972 27.71244147 -18.77734375 26.66796875 C-16.52828894 24.55731732 -16.47777296 22.97992413 -16 20 C-15.34 19.67 -14.68 19.34 -14 19 C-13.34 18.01 -12.68 17.02 -12 16 C-10.02 16.33 -8.04 16.66 -6 17 C-6 16.01 -6 15.02 -6 14 C-7.32 14 -8.64 14 -10 14 C-10 12.68 -10 11.36 -10 10 C-10.99 10 -11.98 10 -13 10 C-13 7.69 -13 5.38 -13 3 C-12.01 3 -11.02 3 -10 3 C-10 2.01 -10 1.02 -10 0 C-3.375 -1.125 -3.375 -1.125 0 0 Z " fill="#D29738" transform="translate(93,66)"/>
<path d="M0 0 C3.96 0 7.92 0 12 0 C12 0.99 12 1.98 12 3 C12.99 3 13.98 3 15 3 C15 3.99 15 4.98 15 6 C16.32 6 17.64 6 19 6 C19 6.99 19 7.98 19 9 C18.34 9 17.68 9 17 9 C17 11.97 17 14.94 17 18 C16.34 18 15.68 18 15 18 C15 18.99 15 19.98 15 21 C14.01 21 13.02 21 12 21 C12 27.27 12 33.54 12 40 C8.04 40 4.08 40 0 40 C0 33.73 0 27.46 0 21 C-0.99 21 -1.98 21 -3 21 C-3 20.01 -3 19.02 -3 18 C-4.32 18 -5.64 18 -7 18 C-7 14.04 -7 10.08 -7 6 C-4.69 6 -2.38 6 0 6 C0 4.02 0 2.04 0 0 Z " fill="#2F1C14" transform="translate(46,83)"/>
<path d="M0 0 C8.25 0 16.5 0 25 0 C25 1.32 25 2.64 25 4 C26.65 4 28.3 4 30 4 C30 4.99 30 5.98 30 7 C30.99 7 31.98 7 33 7 C33 7.99 33 8.98 33 10 C33.66 10 34.32 10 35 10 C35 10.99 35 11.98 35 13 C35.66 13 36.32 13 37 13 C37 13.99 37 14.98 37 16 C37.99 16 38.98 16 40 16 C40 17.98 40 19.96 40 22 C39.34 22 38.68 22 38 22 C38 27.94 38 33.88 38 40 C40.97 40 43.94 40 47 40 C47 31.42 47 22.84 47 14 C46.01 14 45.02 14 44 14 C44 11.69 44 9.38 44 7 C44.99 7 45.98 7 47 7 C47 8.98 47 10.96 47 13 C47.99 13 48.98 13 50 13 C50 22.9 50 32.8 50 43 C43.73 43 37.46 43 31 43 C31.33 34.75 31.66 26.5 32 18 C31.01 18 30.02 18 29 18 C29 16.68 29 15.36 29 14 C28.34 14 27.68 14 27 14 C26.505 12.515 26.505 12.515 26 11 C23.525 10.505 23.525 10.505 21 10 C21 9.01 21 8.02 21 7 C14.07 7 7.14 7 0 7 C0 7.99 0 8.98 0 10 C-2.31 10 -4.62 10 -7 10 C-7 7.69 -7 5.38 -7 3 C-5.02 3 -3.04 3 -1 3 C-0.67 2.01 -0.34 1.02 0 0 Z " fill="#5C616E" transform="translate(43,11)"/>
<path d="M0 0 C1.65 0 3.3 0 5 0 C5 0.66 5 1.32 5 2 C4.01 2 3.02 2 2 2 C2 3.32 2 4.64 2 6 C0.35 6 -1.3 6 -3 6 C-3 6.99 -3 7.98 -3 9 C-3.99 9 -4.98 9 -6 9 C-6 17.25 -6 25.5 -6 34 C-5.01 34 -4.02 34 -3 34 C-3 29.71 -3 25.42 -3 21 C-2.01 21 -1.02 21 0 21 C0 18.03 0 15.06 0 12 C0.66 12 1.32 12 2 12 C2 11.01 2 10.02 2 9 C2.99 9 3.98 9 5 9 C5 8.01 5 7.02 5 6 C6.98 6 8.96 6 11 6 C11 6.66 11 7.32 11 8 C11.66 8 12.32 8 13 8 C13.33 7.34 13.66 6.68 14 6 C15.125 13.75 15.125 13.75 14 16 C13.01 16 12.02 16 11 16 C11 17.32 11 18.64 11 20 C10.01 20 9.02 20 8 20 C8 27.26 8 34.52 8 42 C7.67 42 7.34 42 7 42 C7 34.41 7 26.82 7 19 C6.01 19 5.02 19 4 19 C4 26.59 4 34.18 4 42 C-0.29 42 -4.58 42 -9 42 C-9.16749457 37.47954554 -9.32806608 32.95891882 -9.48217773 28.43798828 C-9.53560391 26.89950922 -9.59093379 25.36109506 -9.64819336 23.82275391 C-9.73008748 21.61374914 -9.80517099 19.40460276 -9.87890625 17.1953125 C-9.90594131 16.50567413 -9.93297638 15.81603577 -9.96083069 15.10549927 C-10.11387171 10.22774341 -10.11387171 10.22774341 -9 8 C-8.01 8 -7.02 8 -6 8 C-6 7.01 -6 6.02 -6 5 C-5.01 5 -4.02 5 -3 5 C-3 4.34 -3 3.68 -3 3 C-2.01 3 -1.02 3 0 3 C0 2.01 0 1.02 0 0 Z " fill="#777E8A" transform="translate(22,9)"/>
<path d="M0 0 C0.99 0 1.98 0 3 0 C3 0.99 3 1.98 3 3 C3.99 3 4.98 3 6 3 C6 3.99 6 4.98 6 6 C6.66 6 7.32 6 8 6 C8 6.99 8 7.98 8 9 C8.99 9 9.98 9 11 9 C11 9.99 11 10.98 11 12 C11.99 12 12.98 12 14 12 C14 12.66 14 13.32 14 14 C14.99 14 15.98 14 17 14 C17 14.99 17 15.98 17 17 C18.65 17 20.3 17 22 17 C22.33 17.99 22.66 18.98 23 20 C24.98 20 26.96 20 29 20 C29 22.97 29 25.94 29 29 C29.92748047 28.99476318 30.85496094 28.98952637 31.81054688 28.98413086 C35.28451166 28.96698673 38.75843082 28.95450035 42.23242188 28.94506836 C43.72982497 28.94007057 45.22722327 28.9332701 46.72460938 28.92456055 C48.88933505 28.91229377 51.05399565 28.90672603 53.21875 28.90234375 C55.1668457 28.89448853 55.1668457 28.89448853 57.15429688 28.88647461 C61.18086673 29.0053392 65.01415096 29.43973231 69 30 C69 30.33 69 30.66 69 31 C67.865625 31.144375 66.73125 31.28875 65.5625 31.4375 C62.19222799 31.61171478 62.19222799 31.61171478 61 33 C58.6243148 33.0883967 56.27791326 33.11530305 53.90234375 33.09765625 C52.83905602 33.09553383 52.83905602 33.09553383 51.75428772 33.09336853 C49.48198288 33.08775443 47.20977525 33.07519963 44.9375 33.0625 C43.40039204 33.05748681 41.86328255 33.05292359 40.32617188 33.04882812 C36.55074358 33.03778042 32.77538829 33.02050641 29 33 C29 32.34 29 31.68 29 31 C26.69 30.67 24.38 30.34 22 30 C22 29.01 22 28.02 22 27 C19.36 27 16.72 27 14 27 C14 26.01 14 25.02 14 24 C13.34 24 12.68 24 12 24 C10.375 22 10.375 22 9 20 C9.99 19.67 10.98 19.34 12 19 C11.690625 18.236875 11.38125 17.47375 11.0625 16.6875 C10.32106407 14.81210323 9.63771783 12.91315348 9 11 C5.99152582 9.77479736 5.99152582 9.77479736 3 9 C3 8.01 3 7.02 3 6 C2.01 6 1.02 6 0 6 C0 4.02 0 2.04 0 0 Z " fill="#6C5140" transform="translate(7,114)"/>
<path d="M0 0 C7.59 0 15.18 0 23 0 C22.67 0.99 22.34 1.98 22 3 C18.7 3 15.4 3 12 3 C12 3.99 12 4.98 12 6 C9.03 6 6.06 6 3 6 C3 6.66 3 7.32 3 8 C1.02 8 -0.96 8 -3 8 C-3 8.99 -3 9.98 -3 11 C-4.98 11.33 -6.96 11.66 -9 12 C-9 12.99 -9 13.98 -9 15 C-9.99 15 -10.98 15 -12 15 C-12 15.99 -12 16.98 -12 18 C-12.66 18 -13.32 18 -14 18 C-14 20.97 -14 23.94 -14 27 C-14.99 27 -15.98 27 -17 27 C-17 31.29 -17 35.58 -17 40 C-17.99 40 -18.98 40 -20 40 C-20 31.75 -20 23.5 -20 15 C-19.01 15 -18.02 15 -17 15 C-17 14.01 -17 13.02 -17 12 C-15.35 12 -13.7 12 -12 12 C-12 10.68 -12 9.36 -12 8 C-11.01 8 -10.02 8 -9 8 C-9 7.34 -9 6.68 -9 6 C-10.65 6 -12.3 6 -14 6 C-14 6.99 -14 7.98 -14 9 C-14.99 8.67 -15.98 8.34 -17 8 C-16.34 8 -15.68 8 -15 8 C-15 7.01 -15 6.02 -15 5 C-10.66726186 4.07155611 -7.33273814 4.07155611 -3 5 C-3 4.34 -3 3.68 -3 3 C-2.01 3 -1.02 3 0 3 C0 2.01 0 1.02 0 0 Z " fill="#C2CCD3" transform="translate(36,3)"/>
<path d="M0 0 C3.3 0 6.6 0 10 0 C10 2.31 10 4.62 10 7 C10.99 7 11.98 7 13 7 C13 6.01 13 5.02 13 4 C13.99 4 14.98 4 16 4 C16.33 4.66 16.66 5.32 17 6 C17.99 6.33 18.98 6.66 20 7 C19.01 8.485 19.01 8.485 18 10 C18.3121764 12.64632287 18.3121764 12.64632287 19 15 C19.99 15 20.98 15 22 15 C22 13.35 22 11.7 22 10 C22.99 10.33 23.98 10.66 25 11 C24.34 11 23.68 11 23 11 C23 12.65 23 14.3 23 16 C22.01 16 21.02 16 20 16 C19.67 16.66 19.34 17.32 19 18 C19 17.34 19 16.68 19 16 C18.01 16 17.02 16 16 16 C16 15.34 16 14.68 16 14 C13.03 13.505 13.03 13.505 10 13 C10 13.99 10 14.98 10 16 C9.01 16 8.02 16 7 16 C7 16.99 7 17.98 7 19 C3.7 19 0.4 19 -3 19 C-3 18.34 -3 17.68 -3 17 C-3.66 17 -4.32 17 -5 17 C-5.33 14.69 -5.66 12.38 -6 10 C-4.68 10 -3.36 10 -2 10 C-2 9.01 -2 8.02 -2 7 C-1.34 7 -0.68 7 0 7 C0 4.69 0 2.38 0 0 Z " fill="#AF7732" transform="translate(77,110)"/>
<path d="M0 0 C7.92 0 15.84 0 24 0 C24 0.99 24 1.98 24 3 C24.66 3.33 25.32 3.66 26 4 C25.01 4 24.02 4 23 4 C23 3.01 23 2.02 23 1 C16.4 1 9.8 1 3 1 C3.33 1.66 3.66 2.32 4 3 C7.04581269 3.46954261 7.04581269 3.46954261 10.5625 3.625 C11.76003906 3.69976562 12.95757812 3.77453125 14.19140625 3.8515625 C15.11824219 3.90054688 16.04507812 3.94953125 17 4 C17 5.65 17 7.3 17 9 C16.01 9.33 15.02 9.66 14 10 C14 10.66 14 11.32 14 12 C14.99 12 15.98 12 17 12 C17 13.32 17 14.64 17 16 C16.01 16 15.02 16 14 16 C14 15.01 14 14.02 14 13 C12.35 13 10.7 13 9 13 C9 13.66 9 14.32 9 15 C9.66 15 10.32 15 11 15 C11 17.31 11 19.62 11 22 C10.01 22 9.02 22 8 22 C8 22.99 8 23.98 8 25 C6.02 25 4.04 25 2 25 C2 24.01 2 23.02 2 22 C1.34 22 0.68 22 0 22 C0 17.05 0 12.1 0 7 C-0.99 7 -1.98 7 -3 7 C-3 6.01 -3 5.02 -3 4 C-2.01 4 -1.02 4 0 4 C0 2.68 0 1.36 0 0 Z " fill="#E5B143" transform="translate(13,54)"/>
<path d="M0 0 C0.99 0 1.98 0 3 0 C3 0.99 3 1.98 3 3 C4.32 3 5.64 3 7 3 C7 3.99 7 4.98 7 6 C6.34 6 5.68 6 5 6 C5 8.97 5 11.94 5 15 C4.34 13.68 3.68 12.36 3 11 C2.34 11 1.68 11 1 11 C0.67 12.65 0.34 14.3 0 16 C-0.66 16 -1.32 16 -2 16 C-2.33 21.94 -2.66 27.88 -3 34 C-4.98 34 -6.96 34 -9 34 C-9 27.73 -9 21.46 -9 15 C-9.99 15 -10.98 15 -12 15 C-12 12.03 -12 9.06 -12 6 C-11.01 6 -10.02 6 -9 6 C-9 5.01 -9 4.02 -9 3 C-7.02 3 -5.04 3 -3 3 C-3 3.66 -3 4.32 -3 5 C-2.01 5 -1.02 5 0 5 C0 3.35 0 1.7 0 0 Z " fill="#43332B" transform="translate(58,86)"/>
<path d="M0 0 C0.495 1.485 0.495 1.485 1 3 C8.59 3 16.18 3 24 3 C24 3.99 24 4.98 24 6 C24.99 6.33 25.98 6.66 27 7 C27 7.66 27 8.32 27 9 C27.99 9 28.98 9 30 9 C30 11.97 30 14.94 30 18 C29.67 18 29.34 18 29 18 C29 15.36 29 12.72 29 10 C28.01 10 27.02 10 26 10 C26 12.64 26 15.28 26 18 C25.01 18 24.02 18 23 18 C23 15.36 23 12.72 23 10 C22.01 10 21.02 10 20 10 C20 9.01 20 8.02 20 7 C19.01 7 18.02 7 17 7 C17 6.01 17 5.02 17 4 C11.72 4 6.44 4 1 4 C1 4.99 1 5.98 1 7 C0.01 7 -0.98 7 -2 7 C-2 7.99 -2 8.98 -2 10 C-3.98 10 -5.96 10 -8 10 C-8 10.99 -8 11.98 -8 13 C-10.31 13 -12.62 13 -15 13 C-15 13.66 -15 14.32 -15 15 C-22.26 15 -29.52 15 -37 15 C-37 13.35 -37 11.7 -37 10 C-37.99 10 -38.98 10 -40 10 C-40 8.02 -40 6.04 -40 4 C-39.01 4 -38.02 4 -37 4 C-37 4.99 -37 5.98 -37 7 C-33.7 7.66 -30.4 8.32 -27 9 C-27 9.99 -27 10.98 -27 12 C-23.04 12 -19.08 12 -15 12 C-15 11.01 -15 10.02 -15 9 C-13.02 9 -11.04 9 -9 9 C-9 8.01 -9 7.02 -9 6 C-7.02 6 -5.04 6 -3 6 C-3 5.01 -3 4.02 -3 3 C-1.5 1.3125 -1.5 1.3125 0 0 Z " fill="#A69985" transform="translate(73,51)"/>
<path d="M0 0 C0.99 0.33 1.98 0.66 3 1 C3 2.32 3 3.64 3 5 C3.020625 6.27875 3.04125 7.5575 3.0625 8.875 C3.06899136 12.34138699 2.68133942 15.5933029 2 19 C2.66 19 3.32 19 4 19 C4.33 20.32 4.66 21.64 5 23 C5.33 22.34 5.66 21.68 6 21 C6 22.32 6 23.64 6 25 C5.01 25 4.02 25 3 25 C2.67 26.32 2.34 27.64 2 29 C1.01 28.67 0.02 28.34 -1 28 C-1 29.32 -1 30.64 -1 32 C-1.66 32 -2.32 32 -3 32 C-3 33.98 -3 35.96 -3 38 C-9.6 38 -16.2 38 -23 38 C-23 37.34 -23 36.68 -23 36 C-17.83608171 34.2786939 -12.40708764 34.94646448 -7 35 C-7 28.73 -7 22.46 -7 16 C-6.01 16 -5.02 16 -4 16 C-4 15.01 -4 14.02 -4 13 C-3.34 13 -2.68 13 -2 13 C-2 10.03 -2 7.06 -2 4 C-1.34 4 -0.68 4 0 4 C0 2.68 0 1.36 0 0 Z " fill="#DBA84D" transform="translate(65,88)"/>
<path d="M0 0 C0.99 0 1.98 0 3 0 C3 8.91 3 17.82 3 27 C7.29 27 11.58 27 16 27 C16 19.41 16 11.82 16 4 C16.99 4 17.98 4 19 4 C19 11.59 19 19.18 19 27 C20.32 27 21.64 27 23 27 C23 27.99 23 28.98 23 30 C16.4 30 9.8 30 3 30 C3 31.32 3 32.64 3 34 C2.01 34 1.02 34 0 34 C0 22.78 0 11.56 0 0 Z " fill="#3A373E" transform="translate(10,24)"/>
<path d="M0 0 C1.65 0 3.3 0 5 0 C5 0.66 5 1.32 5 2 C4.01 2 3.02 2 2 2 C2 3.32 2 4.64 2 6 C0.35 6 -1.3 6 -3 6 C-3 6.99 -3 7.98 -3 9 C-3.99 9 -4.98 9 -6 9 C-6 17.25 -6 25.5 -6 34 C-5.01 34 -4.02 34 -3 34 C-3 29.71 -3 25.42 -3 21 C-2.01 21 -1.02 21 0 21 C0 26.94 0 32.88 0 39 C-0.99 39 -1.98 39 -3 39 C-3 39.99 -3 40.98 -3 42 C-4.98 42 -6.96 42 -9 42 C-9.16749457 37.47954554 -9.32806608 32.95891882 -9.48217773 28.43798828 C-9.53560391 26.89950922 -9.59093379 25.36109506 -9.64819336 23.82275391 C-9.73008748 21.61374914 -9.80517099 19.40460276 -9.87890625 17.1953125 C-9.90594131 16.50567413 -9.93297638 15.81603577 -9.96083069 15.10549927 C-10.11387171 10.22774341 -10.11387171 10.22774341 -9 8 C-8.01 8 -7.02 8 -6 8 C-6 7.01 -6 6.02 -6 5 C-5.01 5 -4.02 5 -3 5 C-3 4.34 -3 3.68 -3 3 C-2.01 3 -1.02 3 0 3 C0 2.01 0 1.02 0 0 Z " fill="#7E828B" transform="translate(22,9)"/>
<path d="M0 0 C0.33 0 0.66 0 1 0 C1 4.95 1 9.9 1 15 C-0.32 15 -1.64 15 -3 15 C-3 25.56 -3 36.12 -3 47 C-2.34 47 -1.68 47 -1 47 C-1 49.64 -1 52.28 -1 55 C-1.680625 54.0409375 -1.680625 54.0409375 -2.375 53.0625 C-3.83921726 50.90297594 -3.83921726 50.90297594 -6 50 C-6 38.78 -6 27.56 -6 16 C-6.99 15.67 -7.98 15.34 -9 15 C-8.34 15 -7.68 15 -7 15 C-7 12.03 -7 9.06 -7 6 C-6.01 6 -5.02 6 -4 6 C-4 5.01 -4 4.02 -4 3 C-2.68 3 -1.36 3 0 3 C0 2.01 0 1.02 0 0 Z " fill="#A77D50" transform="translate(9,54)"/>
<path d="M0 0 C0.99 0 1.98 0 3 0 C3 1.98 3 3.96 3 6 C3.99 6 4.98 6 6 6 C6 15.9 6 25.8 6 36 C-0.27 36 -6.54 36 -13 36 C-13 35.01 -13 34.02 -13 33 C-12.34 33 -11.68 33 -11 33 C-11 25.74 -11 18.48 -11 11 C-10.34 11 -9.68 11 -9 11 C-9 18.26 -9 25.52 -9 33 C-5.04 33 -1.08 33 3 33 C3 24.42 3 15.84 3 7 C2.01 7 1.02 7 0 7 C0 4.69 0 2.38 0 0 Z " fill="#332B2F" transform="translate(87,18)"/>
<path d="M0 0 C4.95 0 9.9 0 15 0 C15 0.66 15 1.32 15 2 C15.66 2 16.32 2 17 2 C17 3.32 17 4.64 17 6 C15.68 6 14.36 6 13 6 C13 6.66 13 7.32 13 8 C14.48011371 7.69201674 15.95907325 7.378482 17.4375 7.0625 C18.67306641 6.80146484 18.67306641 6.80146484 19.93359375 6.53515625 C21.97661204 6.19247006 21.97661204 6.19247006 23 5 C25.33297433 4.95907063 27.66705225 4.95758277 30 5 C30 4.34 30 3.68 30 3 C31.98 3 33.96 3 36 3 C36 3.99 36 4.98 36 6 C34.02 6 32.04 6 30 6 C30 6.99 30 7.98 30 9 C28.02 9 26.04 9 24 9 C24 9.99 24 10.98 24 12 C13.44 12 2.88 12 -8 12 C-8 11.01 -8 10.02 -8 9 C-7.01 9 -6.02 9 -5 9 C-5 9.66 -5 10.32 -5 11 C4.24 11 13.48 11 23 11 C23 10.34 23 9.68 23 9 C21.98679687 9.01160156 20.97359375 9.02320313 19.9296875 9.03515625 C18.57812686 9.04454209 17.2265642 9.05364143 15.875 9.0625 C15.20984375 9.07087891 14.5446875 9.07925781 13.859375 9.08789062 C9.79318646 9.10782292 5.9879908 8.78890161 2 8 C2 7.34 2 6.68 2 6 C3.98 6 5.96 6 8 6 C8 4.68 8 3.36 8 2 C5.36 1.67 2.72 1.34 0 1 C0 0.67 0 0.34 0 0 Z " fill="#CA9136" transform="translate(44,126)"/>
<path d="M0 0 C7.26 0 14.52 0 22 0 C22.33 1.65 22.66 3.3 23 5 C20.14839609 5.81434143 17.63373869 6.11881242 14.671875 6.09765625 C13.87265625 6.09443359 13.0734375 6.09121094 12.25 6.08789062 C11.425 6.07951172 10.6 6.07113281 9.75 6.0625 C8.90953125 6.05798828 8.0690625 6.05347656 7.203125 6.04882812 C5.13538599 6.03707961 3.06768376 6.01914522 1 6 C1 6.99 1 7.98 1 9 C-1.31 9 -3.62 9 -6 9 C-6 6.69 -6 4.38 -6 2 C-4.02 2 -2.04 2 0 2 C0 1.34 0 0.68 0 0 Z " fill="#5B5F6B" transform="translate(42,12)"/>
<path d="M0 0 C1.32 0 2.64 0 4 0 C4 0.66 4 1.32 4 2 C5.32 2.33 6.64 2.66 8 3 C8 3.66 8 4.32 8 5 C8.99 5 9.98 5 11 5 C11 5.99 11 6.98 11 8 C11.99 8.33 12.98 8.66 14 9 C14 9.66 14 10.32 14 11 C14.99 11.33 15.98 11.66 17 12 C16.01 12 15.02 12 14 12 C14 14.31 14 16.62 14 19 C14.99 19 15.98 19 17 19 C17 27.58 17 36.16 17 45 C16.01 45 15.02 45 14 45 C13.67 36.09 13.34 27.18 13 18 C12.34 18 11.68 18 11 18 C11 16.02 11 14.04 11 12 C9.68 12 8.36 12 7 12 C7 11.01 7 10.02 7 9 C6.01 9 5.02 9 4 9 C4 7.02 4 5.04 4 3 C2.68 2.67 1.36 2.34 0 2 C0 1.34 0 0.68 0 0 Z " fill="#6C6E76" transform="translate(73,6)"/>
<path d="M0 0 C11.22 0 22.44 0 34 0 C34 0.66 34 1.32 34 2 C35.32 2 36.64 2 38 2 C38 2.99 38 3.98 38 5 C36.35 5 34.7 5 33 5 C33 4.34 33 3.68 33 3 C22.44 3 11.88 3 1 3 C1 3.99 1 4.98 1 6 C0.01 6 -0.98 6 -2 6 C-2 6.66 -2 7.32 -2 8 C-3.98 8 -5.96 8 -8 8 C-8 7.01 -8 6.02 -8 5 C-7.34 5 -6.68 5 -6 5 C-6 4.01 -6 3.02 -6 2 C-4.02 2 -2.04 2 0 2 C0 1.34 0 0.68 0 0 Z " fill="#4B4953" transform="translate(35,0)"/>
<path d="M0 0 C0.33 0 0.66 0 1 0 C1 1.98 1 3.96 1 6 C1.66 6 2.32 6 3 6 C4.3308911 8.66178221 4.11268993 10.68739396 4.09765625 13.6640625 C4.09443359 14.78554688 4.09121094 15.90703125 4.08789062 17.0625 C4.07951172 18.238125 4.07113281 19.41375 4.0625 20.625 C4.05798828 21.80835937 4.05347656 22.99171875 4.04882812 24.2109375 C4.03701467 27.14067507 4.02054258 30.07031272 4 33 C2.02 33 0.04 33 -2 33 C-2 27.06 -2 21.12 -2 15 C-1.34 15 -0.68 15 0 15 C0 10.05 0 5.1 0 0 Z " fill="#78818D" transform="translate(83,18)"/>
<path d="M0 0 C0.99 0 1.98 0 3 0 C3 2.64 3 5.28 3 8 C3.99 8 4.98 8 6 8 C6 22.52 6 37.04 6 52 C5.34 52 4.68 52 4 52 C2.99225922 42.78442698 2.69087049 33.57138177 2.4375 24.3125 C2.39418922 22.82095454 2.35057152 21.32941795 2.30664062 19.83789062 C2.20089527 16.22535571 2.09928034 12.61271906 2 9 C1.34 8.67 0.68 8.34 0 8 C0 5.36 0 2.72 0 0 Z " fill="#352017" transform="translate(99,61)"/>
<path d="M0 0 C0.99 0 1.98 0 3 0 C3 0.99 3 1.98 3 3 C6.3 3.66 9.6 4.32 13 5 C13 5.99 13 6.98 13 8 C16.96 8 20.92 8 25 8 C25 7.34 25 6.68 25 6 C27.31 6 29.62 6 32 6 C32 6.99 32 7.98 32 9 C29.69 9 27.38 9 25 9 C25 9.66 25 10.32 25 11 C17.74 11 10.48 11 3 11 C3 9.35 3 7.7 3 6 C2.01 6 1.02 6 0 6 C0 4.02 0 2.04 0 0 Z " fill="#66503E" transform="translate(33,55)"/>
<path d="M0 0 C0.99 0 1.98 0 3 0 C3 10.56 3 21.12 3 32 C2.01 32 1.02 32 0 32 C0 35.96 0 39.92 0 44 C-0.99 44 -1.98 44 -3 44 C-3 39.05 -3 34.1 -3 29 C-2.01 29 -1.02 29 0 29 C0 19.43 0 9.86 0 0 Z " fill="#DEA448" transform="translate(96,69)"/>
<path d="M0 0 C0.33 0 0.66 0 1 0 C1.02712066 1.43739513 1.04645067 2.87493863 1.0625 4.3125 C1.07410156 5.11300781 1.08570312 5.91351563 1.09765625 6.73828125 C1 9 1 9 0 12 C-0.99 12 -1.98 12 -3 12 C-3 18.27 -3 24.54 -3 31 C-6.96 31 -10.92 31 -15 31 C-15 28.03 -15 25.06 -15 22 C-14.01 22 -13.02 22 -12 22 C-12 23.98 -12 25.96 -12 28 C-10.02 28 -8.04 28 -6 28 C-6.01160156 26.86820313 -6.02320313 25.73640625 -6.03515625 24.5703125 C-6.04453454 23.08854331 -6.0536347 21.60677235 -6.0625 20.125 C-6.07087891 19.37863281 -6.07925781 18.63226563 -6.08789062 17.86328125 C-6.11328125 12.2265625 -6.11328125 12.2265625 -5 10 C-4.34 10 -3.68 10 -3 10 C-3 8.02 -3 6.04 -3 4 C-2.01 4.33 -1.02 4.66 0 5 C0 3.35 0 1.7 0 0 Z " fill="#321E14" transform="translate(61,92)"/>
<path d="M0 0 C8.25 0 16.5 0 25 0 C25 0.99 25 1.98 25 3 C26.98 3 28.96 3 31 3 C31 3.66 31 4.32 31 5 C20.77 5 10.54 5 0 5 C0 3.35 0 1.7 0 0 Z " fill="#8C521D" transform="translate(36,138)"/>
<path d="M0 0 C0.99 0 1.98 0 3 0 C3 0.99 3 1.98 3 3 C3.99 3 4.98 3 6 3 C6 3.99 6 4.98 6 6 C6.66 6 7.32 6 8 6 C8 6.99 8 7.98 8 9 C8.99 9 9.98 9 11 9 C11 9.99 11 10.98 11 12 C11.99 12 12.98 12 14 12 C14 12.66 14 13.32 14 14 C14.99 14 15.98 14 17 14 C17 14.99 17 15.98 17 17 C18.65 17 20.3 17 22 17 C22.33 17.99 22.66 18.98 23 20 C24.98 20 26.96 20 29 20 C29 20.33 29 20.66 29 21 C27.02 21 25.04 21 23 21 C23 21.66 23 22.32 23 23 C21.33388095 23.042721 19.66617115 23.04063832 18 23 C17.67 22.67 17.34 22.34 17 22 C16.030625 22.020625 15.06125 22.04125 14.0625 22.0625 C11 22 11 22 9 20 C9.99 19.67 10.98 19.34 12 19 C11.690625 18.236875 11.38125 17.47375 11.0625 16.6875 C10.32106407 14.81210323 9.63771783 12.91315348 9 11 C5.99152582 9.77479736 5.99152582 9.77479736 3 9 C3 8.01 3 7.02 3 6 C2.01 6 1.02 6 0 6 C0 4.02 0 2.04 0 0 Z " fill="#9A601E" transform="translate(7,114)"/>
<path d="M0 0 C1.98 0 3.96 0 6 0 C6 5.61 6 11.22 6 17 C4.68 17.33 3.36 17.66 2 18 C2 19.65 2 21.3 2 23 C1.01 23 0.02 23 -1 23 C-2.125 20.25 -2.125 20.25 -3 17 C-2.7009375 16.4121875 -2.401875 15.824375 -2.09375 15.21875 C-0.61793792 12.22495978 -0.57410023 9.56833711 -0.375 6.25 C-0.30023438 5.07953125 -0.22546875 3.9090625 -0.1484375 2.703125 C-0.09945312 1.81109375 -0.05046875 0.9190625 0 0 Z " fill="#83542C" transform="translate(97,102)"/>
<path d="M0 0 C0.66 0 1.32 0 2 0 C2.33 1.65 2.66 3.3 3 5 C4.65 5 6.3 5 8 5 C8 6.32 8 7.64 8 9 C8.99 9 9.98 9 11 9 C11 10.98 11 12.96 11 15 C10.01 15 9.02 15 8 15 C8 15.99 8 16.98 8 18 C6.02 18 4.04 18 2 18 C2 17.01 2 16.02 2 15 C1.34 15 0.68 15 0 15 C0 10.05 0 5.1 0 0 Z " fill="#A78A50" transform="translate(13,61)"/>
<path d="M0 0 C1.98 0 3.96 0 6 0 C6 0.66 6 1.32 6 2 C6.99 2 7.98 2 9 2 C9 4.31 9 6.62 9 9 C8.01 9 7.02 9 6 9 C6 9.99 6 10.98 6 12 C3.03 12 0.06 12 -3 12 C-3 8.7 -3 5.4 -3 2 C-2.01 2 -1.02 2 0 2 C0 1.34 0 0.68 0 0 Z " fill="#706452" transform="translate(18,108)"/>
<path d="M0 0 C0.99 0.33 1.98 0.66 3 1 C3 11.56 3 22.12 3 33 C1.515 33.495 1.515 33.495 0 34 C-0.66 33.67 -1.32 33.34 -2 33 C-2 37.29 -2 41.58 -2 46 C-3.32 46.66 -4.64 47.32 -6 48 C-6 47.01 -6 46.02 -6 45 C-5.01 45 -4.02 45 -3 45 C-3 40.71 -3 36.42 -3 32 C-2.01 32 -1.02 32 0 32 C0 21.44 0 10.88 0 0 Z " fill="#945D25" transform="translate(99,69)"/>
<path d="M0 0 C7.59 0 15.18 0 23 0 C22.67 0.99 22.34 1.98 22 3 C18.7 3 15.4 3 12 3 C12 3.99 12 4.98 12 6 C9.03 6 6.06 6 3 6 C3 6.66 3 7.32 3 8 C0.69 8.33 -1.62 8.66 -4 9 C-4.66 8.01 -5.32 7.02 -6 6 C-4.02 6 -2.04 6 0 6 C0 4.02 0 2.04 0 0 Z " fill="#BFC8D3" transform="translate(36,3)"/>
<path d="M0 0 C2.31 0 4.62 0 7 0 C7 0.99 7 1.98 7 3 C7.66 3 8.32 3 9 3 C9 4.98 9 6.96 9 9 C8.34 9 7.68 9 7 9 C7 9.99 7 10.98 7 12 C4.69 12 2.38 12 0 12 C0 11.01 0 10.02 0 9 C-0.99 9 -1.98 9 -3 9 C-3 6.69 -3 4.38 -3 2 C-2.01 2 -1.02 2 0 2 C0 1.34 0 0.68 0 0 Z " fill="#666261" transform="translate(83,67)"/>
<path d="M0 0 C0.99 0 1.98 0 3 0 C3.02477941 4.8929813 3.04289763 9.7859258 3.05493164 14.67895508 C3.05995023 16.34237301 3.06676652 18.00578656 3.07543945 19.66918945 C3.08761357 22.06462693 3.09325314 24.46000591 3.09765625 26.85546875 C3.10281754 27.5952446 3.10797882 28.33502045 3.11329651 29.09721375 C3.11370241 32.86083154 2.90758309 36.34140381 2 40 C1.34 40 0.68 40 0 40 C0 26.8 0 13.6 0 0 Z " fill="#482816" transform="translate(0,70)"/>
<path d="M0 0 C4.08718695 -0.24042276 7.17679443 0.57741188 11 2 C11 1.34 11 0.68 11 0 C12.98 0 14.96 0 17 0 C17 2.97 17 5.94 17 9 C14.69 9 12.38 9 10 9 C10 8.01 10 7.02 10 6 C7.36 6 4.72 6 2 6 C2 5.01 2 4.02 2 3 C1.34 3 0.68 3 0 3 C0 2.01 0 1.02 0 0 Z " fill="#7F4F24" transform="translate(19,135)"/>
<path d="M0 0 C0.99 0 1.98 0 3 0 C3 0.66 3 1.32 3 2 C3.99 2 4.98 2 6 2 C6 2.99 6 3.98 6 5 C4.36739286 6.37482707 2.69774938 7.70647667 1 9 C0.01 10.485 0.01 10.485 -1 12 C-1.66 12 -2.32 12 -3 12 C-3.33 12.99 -3.66 13.98 -4 15 C-4.66 15 -5.32 15 -6 15 C-6.33 15.66 -6.66 16.32 -7 17 C-7 16.01 -7 15.02 -7 14 C-8.65 14 -10.3 14 -12 14 C-12 12.68 -12 11.36 -12 10 C-10.72125 9.7525 -9.4425 9.505 -8.125 9.25 C-4.73252682 8.48009414 -4.73252682 8.48009414 -2.5 5.875 C-2.335 5.25625 -2.17 4.6375 -2 4 C-1.34 4 -0.68 4 0 4 C-0.33 3.01 -0.66 2.02 -1 1 C-0.67 0.67 -0.34 0.34 0 0 Z " fill="#78563E" transform="translate(90,124)"/>
<path d="M0 0 C0.99 0 1.98 0 3 0 C3 1.32 3 2.64 3 4 C3.66 4 4.32 4 5 4 C5 4.66 5 5.32 5 6 C5.99 6 6.98 6 8 6 C8.33 5.34 8.66 4.68 9 4 C9 4.99 9 5.98 9 7 C10.65 7.33 12.3 7.66 14 8 C14 8.33 14 8.66 14 9 C12.02 9 10.04 9 8 9 C8 9.99 8 10.98 8 12 C7.01 12 6.02 12 5 12 C5 15.3 5 18.6 5 22 C4.34 22 3.68 22 3 22 C3 21.01 3 20.02 3 19 C2.01 19 1.02 19 0 19 C0 17.68 0 16.36 0 15 C0.99 15 1.98 15 3 15 C3 13.02 3 11.04 3 9 C2.01 9 1.02 9 0 9 C0 6.03 0 3.06 0 0 Z " fill="#E4B757" transform="translate(10,98)"/>
<path d="M0 0 C0.99 0 1.98 0 3 0 C3 7.59 3 15.18 3 23 C0.69 23 -1.62 23 -4 23 C-4 22.01 -4 21.02 -4 20 C-3.01 20 -2.02 20 -1 20 C-1.01160156 18.72382812 -1.02320313 17.44765625 -1.03515625 16.1328125 C-1.04453417 14.46354313 -1.05363437 12.79427217 -1.0625 11.125 C-1.07087891 10.28324219 -1.07925781 9.44148438 -1.08789062 8.57421875 C-1.09111328 7.76855469 -1.09433594 6.96289062 -1.09765625 6.1328125 C-1.10289307 5.38918457 -1.10812988 4.64555664 -1.11352539 3.87939453 C-1 2 -1 2 0 0 Z " fill="#616773" transform="translate(23,28)"/>
<path d="M0 0 C3.96 0 7.92 0 12 0 C12 0.99 12 1.98 12 3 C11.07767578 3.03867188 11.07767578 3.03867188 10.13671875 3.078125 C5.04764174 3.2336047 5.04764174 3.2336047 1.125 6.0625 C0.75375 6.701875 0.3825 7.34125 0 8 C-0.99 8 -1.98 8 -3 8 C-3 11.3 -3 14.6 -3 18 C-4.32 18 -5.64 18 -7 18 C-7 14.04 -7 10.08 -7 6 C-4.69 6 -2.38 6 0 6 C0 4.02 0 2.04 0 0 Z " fill="#694118" transform="translate(46,83)"/>
<path d="M0 0 C1.32 0.33 2.64 0.66 4 1 C4 1.99 4 2.98 4 4 C4.66 4 5.32 4 6 4 C6 5.32 6 6.64 6 8 C4.948125 8.12375 3.89625 8.2475 2.8125 8.375 C-0.86890305 8.83476853 -0.86890305 8.83476853 -3.625 10.0625 C-6.24705404 11.09752133 -8.20703859 11.15959779 -11 11 C-11 10.34 -11 9.68 -11 9 C-9.68 9 -8.36 9 -7 9 C-7 7.68 -7 6.36 -7 5 C-7.66 5 -8.32 5 -9 5 C-9 4.34 -9 3.68 -9 3 C-8.01 3 -7.02 3 -6 3 C-6 3.66 -6 4.32 -6 5 C-5.34 5 -4.68 5 -4 5 C-3.67 4.01 -3.34 3.02 -3 2 C-2.01 2.33 -1.02 2.66 0 3 C0 3.99 0 4.98 0 6 C0.99 6 1.98 6 3 6 C3 4.68 3 3.36 3 2 C2.01 2 1.02 2 0 2 C0 1.34 0 0.68 0 0 Z " fill="#BC7D29" transform="translate(68,123)"/>
<path d="M0 0 C1.32 0.33 2.64 0.66 4 1 C4 9.58 4 18.16 4 27 C3.01 27 2.02 27 1 27 C0.67 18.09 0.34 9.18 0 0 Z " fill="#595C6B" transform="translate(86,24)"/>
<path d="M0 0 C0.99 0 1.98 0 3 0 C3 5.94 3 11.88 3 18 C2.01 18 1.02 18 0 18 C0 18.99 0 19.98 0 21 C-0.99 21 -1.98 21 -3 21 C-3 18.36 -3 15.72 -3 13 C-2.01 13 -1.02 13 0 13 C0 8.71 0 4.42 0 0 Z " fill="#848F9C" transform="translate(19,30)"/>
<path d="M0 0 C7.92 0 15.84 0 24 0 C24 0.99 24 1.98 24 3 C24.66 3.33 25.32 3.66 26 4 C25.01 4 24.02 4 23 4 C23 3.01 23 2.02 23 1 C16.4 1 9.8 1 3 1 C3.33 1.66 3.66 2.32 4 3 C6.35599235 3.46751788 6.35599235 3.46751788 9.0625 3.625 C10.44115234 3.73714844 10.44115234 3.73714844 11.84765625 3.8515625 C12.55792969 3.90054688 13.26820312 3.94953125 14 4 C14 4.33 14 4.66 14 5 C7.375 6.125 7.375 6.125 4 5 C4 5.66 4 6.32 4 7 C1.69 7 -0.62 7 -3 7 C-3 6.01 -3 5.02 -3 4 C-2.01 4 -1.02 4 0 4 C0 2.68 0 1.36 0 0 Z " fill="#BFA165" transform="translate(13,54)"/>
<path d="M0 0 C0 2.31 0 4.62 0 7 C-0.66 7 -1.32 7 -2 7 C-2 11.29 -2 15.58 -2 20 C-2.99 20 -3.98 20 -5 20 C-5 13.73 -5 7.46 -5 1 C-1 0 -1 0 0 0 Z " fill="#D2DCE8" transform="translate(21,23)"/>
<path d="M0 0 C1.65 0 3.3 0 5 0 C5.33 1.32 5.66 2.64 6 4 C5.01 4 4.02 4 3 4 C3 5.32 3 6.64 3 8 C2.01 8 1.02 8 0 8 C0 15.26 0 22.52 0 30 C-0.33 30 -0.66 30 -1 30 C-1 22.41 -1 14.82 -1 7 C-1.66 7 -2.32 7 -3 7 C-3 5.68 -3 4.36 -3 3 C-2.01 3 -1.02 3 0 3 C0 2.01 0 1.02 0 0 Z " fill="#63646C" transform="translate(30,21)"/>
<path d="M0 0 C2.31 0.33 4.62 0.66 7 1 C7.99 3.97 8.98 6.94 10 10 C7.6875 10.625 7.6875 10.625 5 11 C4.01 10.34 3.02 9.68 2 9 C2 8.01 2 7.02 2 6 C1.34 6 0.68 6 0 6 C0 4.02 0 2.04 0 0 Z " fill="#724E2F" transform="translate(10,123)"/>
<path d="M0 0 C4.95 0 9.9 0 15 0 C15 0.99 15 1.98 15 3 C12.69 3 10.38 3 8 3 C7.67 3.99 7.34 4.98 7 6 C5.906875 5.814375 4.81375 5.62875 3.6875 5.4375 C0.06375867 4.7421932 0.06375867 4.7421932 -3 6 C-3 5.01 -3 4.02 -3 3 C-2.01 3 -1.02 3 0 3 C0 2.01 0 1.02 0 0 Z " fill="#F2CE77" transform="translate(74,55)"/>
<path d="M0 0 C8.25 0 16.5 0 25 0 C25 1.32 25 2.64 25 4 C26.65 4 28.3 4 30 4 C30 4.99 30 5.98 30 7 C27.36 7 24.72 7 22 7 C21.67 7.99 21.34 8.98 21 10 C21 9.01 21 8.02 21 7 C20.01 6.67 19.02 6.34 18 6 C19.32 6 20.64 6 22 6 C22 5.01 22 4.02 22 3 C19.27498092 2.09166031 17.37766029 1.81640015 14.55078125 1.68359375 C13.70322266 1.64169922 12.85566406 1.59980469 11.98242188 1.55664062 C11.10134766 1.51732422 10.22027344 1.47800781 9.3125 1.4375 C8.41982422 1.39431641 7.52714844 1.35113281 6.60742188 1.30664062 C4.40509892 1.20064647 2.20266527 1.09857949 0 1 C0 0.67 0 0.34 0 0 Z " fill="#717884" transform="translate(43,11)"/>
<path d="M0 0 C0.99 0 1.98 0 3 0 C3 0.66 3 1.32 3 2 C4.65 2 6.3 2 8 2 C8.33 2.99 8.66 3.98 9 5 C10.98 5 12.96 5 15 5 C15 5.33 15 5.66 15 6 C13.02 6 11.04 6 9 6 C9 6.66 9 7.32 9 8 C7.33388095 8.042721 5.66617115 8.04063832 4 8 C3.67 7.67 3.34 7.34 3 7 C1.5459375 7.0309375 1.5459375 7.0309375 0.0625 7.0625 C-3 7 -3 7 -5 5 C-4.01 4.67 -3.02 4.34 -2 4 C-0.79117904 1.99983534 -0.79117904 1.99983534 0 0 Z " fill="#98622B" transform="translate(21,129)"/>
<path d="M0 0 C1.32 0 2.64 0 4 0 C4 3.63 4 7.26 4 11 C1.69 11 -0.62 11 -3 11 C-3 8.36 -3 5.72 -3 3 C-2.01 3 -1.02 3 0 3 C0 2.01 0 1.02 0 0 Z " fill="#92632A" transform="translate(6,58)"/>
<path d="M0 0 C0.99 0 1.98 0 3 0 C3 1.65 3 3.3 3 5 C2.01 5.495 2.01 5.495 1 6 C0.7215625 6.65355469 0.443125 7.30710938 0.15625 7.98046875 C-1 10 -1 10 -3.09375 10.86328125 C-3.8878125 11.01152344 -4.681875 11.15976563 -5.5 11.3125 C-6.2940625 11.47363281 -7.088125 11.63476562 -7.90625 11.80078125 C-10 12 -10 12 -12 11 C-12 10.34 -12 9.68 -12 9 C-10.35 9 -8.7 9 -7 9 C-7 8.01 -7 7.02 -7 6 C-5.68 6 -4.36 6 -3 6 C-3 5.01 -3 4.02 -3 3 C-2.01 3 -1.02 3 0 3 C0 2.01 0 1.02 0 0 Z " fill="#9B5D1F" transform="translate(87,123)"/>
<path d="M0 0 C0.99 0 1.98 0 3 0 C3 0.99 3 1.98 3 3 C4.32 3 5.64 3 7 3 C7 3.66 7 4.32 7 5 C7.99 5 8.98 5 10 5 C10 7.97 10 10.94 10 14 C9.67 14 9.34 14 9 14 C9 11.36 9 8.72 9 6 C8.01 6 7.02 6 6 6 C6 8.64 6 11.28 6 14 C5.01 14 4.02 14 3 14 C3 11.36 3 8.72 3 6 C2.01 6 1.02 6 0 6 C0 4.02 0 2.04 0 0 Z " fill="#A4805F" transform="translate(93,55)"/>
<path d="M0 0 C1.98 0 3.96 0 6 0 C5.67 1.98 5.34 3.96 5 6 C-2.92 6 -10.84 6 -19 6 C-19 5.67 -19 5.34 -19 5 C-15.04 5 -11.08 5 -7 5 C-7 4.34 -7 3.68 -7 3 C-4.69 3 -2.38 3 0 3 C0 2.01 0 1.02 0 0 Z " fill="#DBB568" transform="translate(65,61)"/>
<path d="M0 0 C0.99 0 1.98 0 3 0 C3 4.95 3 9.9 3 15 C3.66 15 4.32 15 5 15 C5 15.99 5 16.98 5 18 C3.35 18 1.7 18 0 18 C0 15.03 0 12.06 0 9 C-1.32 8.67 -2.64 8.34 -4 8 C-2.68 8 -1.36 8 0 8 C0 5.36 0 2.72 0 0 Z " fill="#D4B564" transform="translate(10,61)"/>
<path d="M0 0 C7.59 0 15.18 0 23 0 C23 0.66 23 1.32 23 2 C20.25500157 2.77234239 17.80980733 3.12807679 14.9609375 3.1328125 C13.84332031 3.13474609 13.84332031 3.13474609 12.703125 3.13671875 C11.93484375 3.13285156 11.1665625 3.12898438 10.375 3.125 C9.59898438 3.12886719 8.82296875 3.13273437 8.0234375 3.13671875 C2.25340266 3.12670133 2.25340266 3.12670133 0 2 C0 1.34 0 0.68 0 0 Z " fill="#36343E" transform="translate(42,15)"/>
<path d="M0 0 C1.98 0 3.96 0 6 0 C6 0.99 6 1.98 6 3 C6.99 3 7.98 3 9 3 C9 4.98 9 6.96 9 9 C8.01 9 7.02 9 6 9 C6 9.99 6 10.98 6 12 C4.02 12 2.04 12 0 12 C0 11.01 0 10.02 0 9 C1.32 9 2.64 9 4 9 C4 6.69 4 4.38 4 2 C2.68 2 1.36 2 0 2 C0 1.34 0 0.68 0 0 Z " fill="#585451" transform="translate(15,67)"/>
<path d="M0 0 C0.99 0.33 1.98 0.66 3 1 C3 5 3 9 3 13 C2.01 13 1.02 13 0 13 C0 13.99 0 14.98 0 16 C-0.99 16 -1.98 16 -3 16 C-2.67 12.04 -2.34 8.08 -2 4 C-1.34 4 -0.68 4 0 4 C0 2.68 0 1.36 0 0 Z " fill="#E7B653" transform="translate(65,88)"/>
<path d="M0 0 C0.99 0 1.98 0 3 0 C3 2.64 3 5.28 3 8 C3.99 8.33 4.98 8.66 6 9 C5.34 9 4.68 9 4 9 C4 19.56 4 30.12 4 41 C3.67 41 3.34 41 3 41 C2.67 30.44 2.34 19.88 2 9 C1.34 8.67 0.68 8.34 0 8 C0 5.36 0 2.72 0 0 Z " fill="#603822" transform="translate(99,61)"/>
<path d="M0 0 C2 3 2 3 2 5 C2.66 5 3.32 5 4 5 C4 8.3 4 11.6 4 15 C4.99 15 5.98 15 7 15 C7 16.98 7 18.96 7 21 C6.01 21 5.02 21 4 21 C4 20.01 4 19.02 4 18 C3.34 18 2.68 18 2 18 C2 15.03 2 12.06 2 9 C1.34 9 0.68 9 0 9 C0 6.03 0 3.06 0 0 Z " fill="#FBDF8B" transform="translate(6,92)"/>
<path d="M0 0 C7.26 0 14.52 0 22 0 C22 0.66 22 1.32 22 2 C15.4 2 8.8 2 2 2 C2 3.32 2 4.64 2 6 C1.01 6 0.02 6 -1 6 C-0.67 4.02 -0.34 2.04 0 0 Z " fill="#452A15" transform="translate(11,52)"/>
<path d="M0 0 C3.63 0 7.26 0 11 0 C11 0.99 11 1.98 11 3 C8.36 3 5.72 3 3 3 C3 3.99 3 4.98 3 6 C0.69 6.33 -1.62 6.66 -4 7 C-4.66 6.01 -5.32 5.02 -6 4 C-4.02 4 -2.04 4 0 4 C0 2.68 0 1.36 0 0 Z " fill="#E8F0F5" transform="translate(36,5)"/>
<path d="M0 0 C0.99 0 1.98 0 3 0 C3 6.27 3 12.54 3 19 C2.01 19 1.02 19 0 19 C0 13.72 0 8.44 0 3 C0.66 3 1.32 3 2 3 C2 2.34 2 1.68 2 1 C1.34 0.67 0.68 0.34 0 0 Z " fill="#905D27" transform="translate(43,104)"/>
<path d="M0 0 C0.33 0 0.66 0 1 0 C1 4.95 1 9.9 1 15 C0.01 15.495 0.01 15.495 -1 16 C-1.66 15.67 -2.32 15.34 -3 15 C-3 19.29 -3 23.58 -3 28 C-4.98 28.99 -4.98 28.99 -7 30 C-7 29.01 -7 28.02 -7 27 C-6.01 27 -5.02 27 -4 27 C-4 22.71 -4 18.42 -4 14 C-3.01 14 -2.02 14 -1 14 C-1.01160156 13.07316406 -1.02320312 12.14632812 -1.03515625 11.19140625 C-1.04417969 9.99386719 -1.05320312 8.79632813 -1.0625 7.5625 C-1.07410156 6.36753906 -1.08570312 5.17257813 -1.09765625 3.94140625 C-1 1 -1 1 0 0 Z " fill="#9B5E1B" transform="translate(100,87)"/>
<path d="M0 0 C0.99 0 1.98 0 3 0 C3 0.99 3 1.98 3 3 C4.32 3 5.64 3 7 3 C7 3.99 7 4.98 7 6 C6.34 6 5.68 6 5 6 C5 8.97 5 11.94 5 15 C4.34 13.68 3.68 12.36 3 11 C2.01 10.67 1.02 10.34 0 10 C0 6.7 0 3.4 0 0 Z " fill="#4A2C1A" transform="translate(58,86)"/>
<path d="M0 0 C0.99 0.33 1.98 0.66 3 1 C2.01 2.485 2.01 2.485 1 4 C1.3121764 6.64632287 1.3121764 6.64632287 2 9 C2.99 9 3.98 9 5 9 C5 7.35 5 5.7 5 4 C5.99 4.33 6.98 4.66 8 5 C7.34 5 6.68 5 6 5 C6 6.65 6 8.3 6 10 C5.01 10 4.02 10 3 10 C2.67 10.66 2.34 11.32 2 12 C2 11.34 2 10.68 2 10 C1.01 10 0.02 10 -1 10 C-1 9.34 -1 8.68 -1 8 C-1.99 8 -2.98 8 -4 8 C-4 6.68 -4 5.36 -4 4 C-3.01 4 -2.02 4 -1 4 C-0.67 2.68 -0.34 1.36 0 0 Z " fill="#945715" transform="translate(94,116)"/>
<path d="M0 0 C2.31 0 4.62 0 7 0 C7 2.31 7 4.62 7 7 C4.69 7 2.38 7 0 7 C0 4.69 0 2.38 0 0 Z " fill="#8691A7" transform="translate(80,110)"/>
<path d="M0 0 C1.24546405 2.49092811 0.7767578 3.41080733 0 6 C0.66 6 1.32 6 2 6 C2 6.99 2 7.98 2 9 C1.01 9 0.02 9 -1 9 C-1 11.31 -1 13.62 -1 16 C-0.01 16 0.98 16 2 16 C2 16.99 2 17.98 2 19 C1.01 19 0.02 19 -1 19 C-2.95031692 14.92276266 -3.21581971 11.68307578 -3.125 7.1875 C-3.10695313 6.02605469 -3.08890625 4.86460938 -3.0703125 3.66796875 C-3.04710938 2.78753906 -3.02390625 1.90710937 -3 1 C-2.01 0.67 -1.02 0.34 0 0 Z " fill="#DAAD57" transform="translate(81,60)"/>
<path d="M0 0 C0.99 0 1.98 0 3 0 C3 4.95 3 9.9 3 15 C2.67 15 2.34 15 2 15 C1.67 13.02 1.34 11.04 1 9 C-0.32 9 -1.64 9 -3 9 C-3 7.02 -3 5.04 -3 3 C-2.01 3 -1.02 3 0 3 C0 2.01 0 1.02 0 0 Z " fill="#BFC6CE" transform="translate(19,15)"/>
<path d="M0 0 C0.33 0 0.66 0 1 0 C1 1.65 1 3.3 1 5 C0.01 5.33 -0.98 5.66 -2 6 C-2 6.66 -2 7.32 -2 8 C-1.01 8 -0.02 8 1 8 C1 9.32 1 10.64 1 12 C0.01 12 -0.98 12 -2 12 C-2 11.01 -2 10.02 -2 9 C-3.65 9 -5.3 9 -7 9 C-7 9.66 -7 10.32 -7 11 C-6.34 11.33 -5.68 11.66 -5 12 C-5.99 12 -6.98 12 -8 12 C-8 10.68 -8 9.36 -8 8 C-9.65 8 -11.3 8 -13 8 C-13 7.67 -13 7.34 -13 7 C-11.7625 6.855625 -10.525 6.71125 -9.25 6.5625 C-6.43495501 6.21311498 -3.7298503 5.79620634 -1 5 C-0.67 3.35 -0.34 1.7 0 0 Z " fill="#E0BA61" transform="translate(29,58)"/>
<path d="M0 0 C0.66 0 1.32 0 2 0 C2 2.97 2 5.94 2 9 C2.66 9 3.32 9 4 9 C4 11.64 4 14.28 4 17 C3.319375 16.0409375 3.319375 16.0409375 2.625 15.0625 C1.16078274 12.90297594 1.16078274 12.90297594 -1 12 C-1.02687279 10.18757948 -1.04633715 8.37504767 -1.0625 6.5625 C-1.07410156 5.55316406 -1.08570313 4.54382813 -1.09765625 3.50390625 C-1 1 -1 1 0 0 Z " fill="#9E682A" transform="translate(4,92)"/>
<path d="M0 0 C1.98 0 3.96 0 6 0 C6 0.99 6 1.98 6 3 C6.66 3.33 7.32 3.66 8 4 C7.67 4.99 7.34 5.98 7 7 C4.69 7 2.38 7 0 7 C0 4.69 0 2.38 0 0 Z " fill="#6F717E" transform="translate(36,14)"/>
<path d="M0 0 C1.98 0 3.96 0 6 0 C6 1.32 6 2.64 6 4 C6.66 4.33 7.32 4.66 8 5 C7.34 5 6.68 5 6 5 C6 12.26 6 19.52 6 27 C5.67 27 5.34 27 5 27 C5 19.74 5 12.48 5 5 C4.01 5 3.02 5 2 5 C2 3.68 2 2.36 2 1 C1.34 0.67 0.68 0.34 0 0 Z " fill="#818287" transform="translate(70,24)"/>
<path d="M0 0 C0.99 0 1.98 0 3 0 C3 3.3 3 6.6 3 10 C1.68 10 0.36 10 -1 10 C-1.33 10.66 -1.66 11.32 -2 12 C-2 9.03 -2 6.06 -2 3 C-1.34 3 -0.68 3 0 3 C0 2.01 0 1.02 0 0 Z " fill="#8F96A0" transform="translate(24,18)"/>
<path d="M0 0 C1.98 0 3.96 0 6 0 C6 0.99 6 1.98 6 3 C4.02 3 2.04 3 0 3 C0 3.66 0 4.32 0 5 C-3.96 5 -7.92 5 -12 5 C-10.68 4.34 -9.36 3.68 -8 3 C-7.67 2.67 -7.34 2.34 -7 2 C-4.66702567 1.95907063 -2.33294775 1.95758277 0 2 C0 1.34 0 0.68 0 0 Z " fill="#CE933C" transform="translate(74,129)"/>
<path d="M0 0 C0.99 0 1.98 0 3 0 C3 1.98 3 3.96 3 6 C4.98 6 6.96 6 9 6 C9 6.99 9 7.98 9 9 C6.03 9 3.06 9 0 9 C0 6.03 0 3.06 0 0 Z " fill="#5D4F3E" transform="translate(15,111)"/>
<path d="M0 0 C0 0.99 0 1.98 0 3 C-7.26 3 -14.52 3 -22 3 C-22 2.67 -22 2.34 -22 2 C-19.64655194 1.66076424 -17.2924516 1.32849466 -14.9375 1 C-14.28072266 0.90460938 -13.62394531 0.80921875 -12.94726562 0.7109375 C-8.59861237 0.11112326 -4.38670929 -0.09127093 0 0 Z " fill="#F4CF76" transform="translate(65,67)"/>
<path d="M0 0 C2.31 0 4.62 0 7 0 C7 0.99 7 1.98 7 3 C8.98 3 10.96 3 13 3 C13 3.66 13 4.32 13 5 C13.99 5.33 14.98 5.66 16 6 C13.03 6 10.06 6 7 6 C6.67 5.01 6.34 4.02 6 3 C4.02 3 2.04 3 0 3 C0 2.01 0 1.02 0 0 Z " fill="#874E1A" transform="translate(61,138)"/>
<path d="M0 0 C0.66 0 1.32 0 2 0 C2 1.98 2 3.96 2 6 C1.34 6 0.68 6 0 6 C0 6.99 0 7.98 0 9 C-2.31 9 -4.62 9 -7 9 C-7 8.01 -7 7.02 -7 6 C-5.68 6 -4.36 6 -3 6 C-3 5.01 -3 4.02 -3 3 C-2.34 3 -1.68 3 -1 3 C-0.67 2.01 -0.34 1.02 0 0 Z " fill="#514E4C" transform="translate(90,70)"/>
<path d="M0 0 C0.99 0 1.98 0 3 0 C3 0.66 3 1.32 3 2 C3.66 2 4.32 2 5 2 C5 2.99 5 3.98 5 5 C5.99 4.67 6.98 4.34 8 4 C8 4.66 8 5.32 8 6 C7.34 6 6.68 6 6 6 C6 6.99 6 7.98 6 9 C6.66 9 7.32 9 8 9 C8 9.99 8 10.98 8 12 C7.01 12 6.02 12 5 12 C5 11.34 5 10.68 5 10 C4.34 10 3.68 10 3 10 C1.875 5.25 1.875 5.25 3 3 C2.01 3 1.02 3 0 3 C0 2.01 0 1.02 0 0 Z " fill="#F1CD69" transform="translate(10,92)"/>
<path d="M0 0 C0.99 0 1.98 0 3 0 C2.67 1.65 2.34 3.3 2 5 C-5.625 7 -5.625 7 -9 7 C-8.34 5.68 -7.68 4.36 -7 3 C-4.69 3 -2.38 3 0 3 C0 2.01 0 1.02 0 0 Z " fill="#E5D290" transform="translate(21,76)"/>
<path d="M0 0 C6.6 0 13.2 0 20 0 C20 0.33 20 0.66 20 1 C18.92878906 1.12117188 17.85757813 1.24234375 16.75390625 1.3671875 C15.35671248 1.53597601 13.95958009 1.70527313 12.5625 1.875 C11.85544922 1.95363281 11.14839844 2.03226562 10.41992188 2.11328125 C8.60326568 2.33927676 6.79937478 2.66300727 5 3 C4.67 3.66 4.34 4.32 4 5 C3.01 5 2.02 5 1 5 C0.67 3.35 0.34 1.7 0 0 Z " fill="#F9DE8C" transform="translate(38,67)"/>
<path d="M0 0 C1.65 0 3.3 0 5 0 C5 0.66 5 1.32 5 2 C4.01 2 3.02 2 2 2 C2 3.32 2 4.64 2 6 C0.35 6 -1.3 6 -3 6 C-3 6.99 -3 7.98 -3 9 C-3.99 9 -4.98 9 -6 9 C-6 7.68 -6 6.36 -6 5 C-5.01 5 -4.02 5 -3 5 C-3 4.34 -3 3.68 -3 3 C-2.01 3 -1.02 3 0 3 C0 2.01 0 1.02 0 0 Z " fill="#46494F" transform="translate(22,9)"/>
<path d="M0 0 C0.99 0 1.98 0 3 0 C3 0.66 3 1.32 3 2 C12.57 2 22.14 2 32 2 C32 2.33 32 2.66 32 3 C21.44 3 10.88 3 0 3 C0 2.01 0 1.02 0 0 Z " fill="#BD8337" transform="translate(36,135)"/>
<path d="M0 0 C0 0.66 0 1.32 0 2 C0.33 2.66 0.66 3.32 1 4 C1.13415472 6.6723621 1.04318541 9.32250488 1 12 C-0.32 12.33 -1.64 12.66 -3 13 C-3 12.01 -3 11.02 -3 10 C-2.34 10 -1.68 10 -1 10 C-1 8.02 -1 6.04 -1 4 C-1.66 4 -2.32 4 -3 4 C-3 3.01 -3 2.02 -3 1 C-5.31 1 -7.62 1 -10 1 C-10 0.67 -10 0.34 -10 0 C-3.375 -1.125 -3.375 -1.125 0 0 Z " fill="#C2974D" transform="translate(93,66)"/>
<path d="M0 0 C1.98 0 3.96 0 6 0 C6 1.98 6 3.96 6 6 C4.02 6 2.04 6 0 6 C0 4.02 0 2.04 0 0 Z " fill="#8A95AF" transform="translate(18,111)"/>
<path d="M0 0 C0.99 0 1.98 0 3 0 C3 3.3 3 6.6 3 10 C2.01 10 1.02 10 0 10 C-1.36952673 7.26094655 -1.12621361 5.02912668 -1 2 C-0.67 1.34 -0.34 0.68 0 0 Z " fill="#554038" transform="translate(3,110)"/>
<path d="M0 0 C0.99 0 1.98 0 3 0 C3 3.96 3 7.92 3 12 C2.01 12 1.02 12 0 12 C0 8.04 0 4.08 0 0 Z " fill="#8E561A" transform="translate(39,89)"/>
<path d="M0 0 C2.64 0 5.28 0 8 0 C9.24546405 2.49092811 8.7767578 3.41080733 8 6 C7.01 6 6.02 6 5 6 C4.67 5.34 4.34 4.68 4 4 C1.97536745 3.34786708 1.97536745 3.34786708 0 3 C0 2.01 0 1.02 0 0 Z " fill="#363740" transform="translate(65,18)"/>
<path d="M0 0 C2.97 0 5.94 0 9 0 C9.33 1.98 9.66 3.96 10 6 C8.68 5.67 7.36 5.34 6 5 C6 4.34 6 3.68 6 3 C4.02 3 2.04 3 0 3 C0 2.01 0 1.02 0 0 Z " fill="#8C5F38" transform="translate(68,138)"/>
<path d="M0 0 C1.65 0 3.3 0 5 0 C5.33 0.66 5.66 1.32 6 2 C5.67 2.66 5.34 3.32 5 4 C6.65 4.33 8.3 4.66 10 5 C10 5.33 10 5.66 10 6 C7.36 6 4.72 6 2 6 C2 5.01 2 4.02 2 3 C1.34 3 0.68 3 0 3 C0 2.01 0 1.02 0 0 Z " fill="#533729" transform="translate(19,135)"/>
<path d="M0 0 C2.64 0 5.28 0 8 0 C8 0.66 8 1.32 8 2 C9.32 2 10.64 2 12 2 C12 1.34 12 0.68 12 0 C12.99 0 13.98 0 15 0 C15 0.99 15 1.98 15 3 C14.01 3 13.02 3 12 3 C12 3.99 12 4.98 12 6 C11.01 6 10.02 6 9 6 C9 5.01 9 4.02 9 3 C8.01 3 7.02 3 6 3 C6 2.34 6 1.68 6 1 C4.02 1 2.04 1 0 1 C0 0.67 0 0.34 0 0 Z " fill="#C89A43" transform="translate(18,107)"/>
<path d="M0 0 C0.99 0 1.98 0 3 0 C3 3.63 3 7.26 3 11 C2.01 11 1.02 11 0 11 C0 7.37 0 3.74 0 0 Z " fill="#F6CF7F" transform="translate(58,105)"/>
<path d="M0 0 C0 2.97 0 5.94 0 9 C-0.33 8.34 -0.66 7.68 -1 7 C-2.98 7.33 -4.96 7.66 -7 8 C-6.34 7.67 -5.68 7.34 -5 7 C-5 5.35 -5 3.7 -5 2 C-1.125 0 -1.125 0 0 0 Z " fill="#86582E" transform="translate(7,103)"/>
<path d="M0 0 C0.99 0 1.98 0 3 0 C3 0.99 3 1.98 3 3 C1.02 3 -0.96 3 -3 3 C-3 3.66 -3 4.32 -3 5 C-3.99 5 -4.98 5 -6 5 C-6 4.34 -6 3.68 -6 3 C-7.65 3 -9.3 3 -11 3 C-11 3.99 -11 4.98 -11 6 C-11.99 5.67 -12.98 5.34 -14 5 C-13.34 5 -12.68 5 -12 5 C-12 4.01 -12 3.02 -12 2 C-7.66726186 1.07155611 -4.33273814 1.07155611 0 2 C0 1.34 0 0.68 0 0 Z " fill="#AAAEB4" transform="translate(33,6)"/>
<path d="M0 0 C0.99 0 1.98 0 3 0 C3 0.66 3 1.32 3 2 C3.99 2 4.98 2 6 2 C6 2.99 6 3.98 6 5 C3 7 3 7 0 7 C-0.38133299 5.0085944 -0.71325582 3.00720923 -1 1 C-0.67 0.67 -0.34 0.34 0 0 Z " fill="#6C472B" transform="translate(90,124)"/>
<path d="M0 0 C0.66 0 1.32 0 2 0 C2 3.3 2 6.6 2 10 C1.34 10 0.68 10 0 10 C0 9.01 0 8.02 0 7 C-0.99 7 -1.98 7 -3 7 C-3 5.68 -3 4.36 -3 3 C-2.01 3 -1.02 3 0 3 C0 2.01 0 1.02 0 0 Z " fill="#DCB167" transform="translate(13,110)"/>
<path d="M0 0 C5.94 0 11.88 0 18 0 C18 0.99 18 1.98 18 3 C18.66 3.33 19.32 3.66 20 4 C19.01 4 18.02 4 17 4 C17 3.01 17 2.02 17 1 C16.01 1 15.02 1 14 1 C14 1.99 14 2.98 14 4 C13.01 4 12.02 4 11 4 C11 3.01 11 2.02 11 1 C7.37 1 3.74 1 0 1 C0 0.67 0 0.34 0 0 Z " fill="#A5845B" transform="translate(79,54)"/>
<path d="M0 0 C2.64 0 5.28 0 8 0 C8 0.99 8 1.98 8 3 C5.36 3 2.72 3 0 3 C-0.33 3.99 -0.66 4.98 -1 6 C-1 5.01 -1 4.02 -1 3 C-1.99 2.67 -2.98 2.34 -4 2 C-2.68 2 -1.36 2 0 2 C0 1.34 0 0.68 0 0 Z " fill="#5D5F6B" transform="translate(65,15)"/>
<path d="M0 0 C2.97 0 5.94 0 9 0 C9 0.66 9 1.32 9 2 C8.34 2 7.68 2 7 2 C6.67 2.99 6.34 3.98 6 5 C5.34 5 4.68 5 4 5 C4 4.34 4 3.68 4 3 C2.68 3 1.36 3 0 3 C0 2.01 0 1.02 0 0 Z " fill="#DEB15E" transform="translate(15,120)"/>
<path d="M0 0 C1.98 0 3.96 0 6 0 C6 0.99 6 1.98 6 3 C5.01 3 4.02 3 3 3 C3 3.66 3 4.32 3 5 C1.02 5 -0.96 5 -3 5 C-3 4.34 -3 3.68 -3 3 C-2.01 3 -1.02 3 0 3 C0 2.01 0 1.02 0 0 Z " fill="#505359" transform="translate(30,3)"/>
<path d="M0 0 C0.66 0 1.32 0 2 0 C2 2.31 2 4.62 2 7 C-0.31 7 -2.62 7 -5 7 C-5 6.01 -5 5.02 -5 4 C-3.35 4 -1.7 4 0 4 C0 2.68 0 1.36 0 0 Z " fill="#59616A" transform="translate(24,44)"/>
<path d="M0 0 C0.33 0.66 0.66 1.32 1 2 C2.32 2 3.64 2 5 2 C5 2.99 5 3.98 5 5 C3.35 5 1.7 5 0 5 C0 4.34 0 3.68 0 3 C-3.63 3 -7.26 3 -11 3 C-11 2.67 -11 2.34 -11 2 C-7.37 2 -3.74 2 0 2 C0 1.34 0 0.68 0 0 Z " fill="#5C5D64" transform="translate(68,0)"/>
<path d="M0 0 C1.98 0 3.96 0 6 0 C6 0.66 6 1.32 6 2 C6.66 2.33 7.32 2.66 8 3 C7.01 3 6.02 3 5 3 C5 3.66 5 4.32 5 5 C3.68 4.67 2.36 4.34 1 4 C0.67 2.68 0.34 1.36 0 0 Z " fill="#C7882B" transform="translate(52,129)"/>
<path d="M0 0 C0.33 1.32 0.66 2.64 1 4 C1.66 4 2.32 4 3 4 C3 4.66 3 5.32 3 6 C2.34 6 1.68 6 1 6 C1 11.28 1 16.56 1 22 C0.67 22 0.34 22 0 22 C-0.19555932 19.27119539 -0.38170447 16.54228931 -0.5625 13.8125 C-0.61857422 13.04357422 -0.67464844 12.27464844 -0.73242188 11.48242188 C-0.99141557 7.45938647 -1.06573607 3.93927628 0 0 Z " fill="#BD893D" transform="translate(42,101)"/>
<path d="M0 0 C0.66 0 1.32 0 2 0 C2 3.96 2 7.92 2 12 C1.01 12 0.02 12 -1 12 C-0.67 8.04 -0.34 4.08 0 0 Z " fill="#F1CE79" transform="translate(63,92)"/>
<path d="M0 0 C0.99 0 1.98 0 3 0 C3 0.99 3 1.98 3 3 C4.98 3 6.96 3 9 3 C9 3.66 9 4.32 9 5 C6.03 5 3.06 5 0 5 C0 3.35 0 1.7 0 0 Z " fill="#BC9445" transform="translate(36,61)"/>
<path d="M0 0 C0.99 0 1.98 0 3 0 C3 0.99 3 1.98 3 3 C3.99 3 4.98 3 6 3 C6 3.99 6 4.98 6 6 C4.02 6 2.04 6 0 6 C0 4.02 0 2.04 0 0 Z " fill="#735332" transform="translate(33,55)"/>
<path d="M0 0 C0.66 0 1.32 0 2 0 C2 0.99 2 1.98 2 3 C2.99 3.33 3.98 3.66 5 4 C3.71073008 4.36279456 2.41846728 4.71496698 1.125 5.0625 C0.04605469 5.35833984 0.04605469 5.35833984 -1.0546875 5.66015625 C-3 6 -3 6 -5 5 C-5 4.34 -5 3.68 -5 3 C-3.35 3 -1.7 3 0 3 C0 2.01 0 1.02 0 0 Z " fill="#8C5116" transform="translate(80,129)"/>
<path d="M0 0 C2.97 0 5.94 0 9 0 C9.33 0.66 9.66 1.32 10 2 C6.78548731 3.60725635 3.56387464 3.05748185 0 3 C0 2.01 0 1.02 0 0 Z " fill="#E4AF4E" transform="translate(30,131)"/>
<path d="M0 0 C0.99 0 1.98 0 3 0 C3.125 6.75 3.125 6.75 2 9 C1.34 9 0.68 9 0 9 C0 6.03 0 3.06 0 0 Z " fill="#97A0AE" transform="translate(81,39)"/>
<path d="M0 0 C1.32 0 2.64 0 4 0 C4 1.98 4 3.96 4 6 C2.68 6 1.36 6 0 6 C0 4.02 0 2.04 0 0 Z " fill="#9DA8B8" transform="translate(83,70)"/>
<path d="M0 0 C1.32 0 2.64 0 4 0 C4 1.98 4 3.96 4 6 C2.68 6 1.36 6 0 6 C0 4.02 0 2.04 0 0 Z " fill="#A4ACBF" transform="translate(15,70)"/>
<path d="M0 0 C0.99 0 1.98 0 3 0 C3 2.64 3 5.28 3 8 C2.01 8 1.02 8 0 8 C0 5.36 0 2.72 0 0 Z " fill="#341C0D" transform="translate(99,61)"/>
<path d="M0 0 C0.99 0 1.98 0 3 0 C3 2.64 3 5.28 3 8 C2.01 8 1.02 8 0 8 C0 5.36 0 2.72 0 0 Z " fill="#FCDA79" transform="translate(10,61)"/>
<path d="M0 0 C0.99 0 1.98 0 3 0 C3 2.64 3 5.28 3 8 C2.01 8 1.02 8 0 8 C0 5.36 0 2.72 0 0 Z " fill="#361D10" transform="translate(3,61)"/>
<path d="M0 0 C0.99 0 1.98 0 3 0 C3 0.99 3 1.98 3 3 C3.66 3 4.32 3 5 3 C5 3.99 5 4.98 5 6 C3.35 6 1.7 6 0 6 C0 4.02 0 2.04 0 0 Z " fill="#6A421C" transform="translate(93,55)"/>
<path d="M0 0 C0.99 0 1.98 0 3 0 C3 2.64 3 5.28 3 8 C2.01 8 1.02 8 0 8 C0 5.36 0 2.72 0 0 Z " fill="#8D96A3" transform="translate(16,43)"/>
<path d="M0 0 C0.99 0 1.98 0 3 0 C3 1.98 3 3.96 3 6 C3.99 6.33 4.98 6.66 6 7 C4.02 7 2.04 7 0 7 C0 4.69 0 2.38 0 0 Z " fill="#3C3D45" transform="translate(87,18)"/>
<path d="M0 0 C0.99 0.33 1.98 0.66 3 1 C2.34 1 1.68 1 1 1 C1 2.65 1 4.3 1 6 C0.01 6 -0.98 6 -2 6 C-2.33 6.66 -2.66 7.32 -3 8 C-3 7.34 -3 6.68 -3 6 C-3.99 6 -4.98 6 -6 6 C-5.34 4.68 -4.68 3.36 -4 2 C-3.67 2.99 -3.34 3.98 -3 5 C-2.01 5 -1.02 5 0 5 C0 3.35 0 1.7 0 0 Z " fill="#A79381" transform="translate(99,120)"/>
<path d="M0 0 C1.65 0 3.3 0 5 0 C5 0.99 5 1.98 5 3 C4.01 3 3.02 3 2 3 C2 3.99 2 4.98 2 6 C1.01 5.67 0.02 5.34 -1 5 C-0.67 3.35 -0.34 1.7 0 0 Z " fill="#DDE6EF" transform="translate(22,15)"/>
<path d="M0 0 C1.98 0 3.96 0 6 0 C6 0.66 6 1.32 6 2 C6.99 2.33 7.98 2.66 9 3 C6.03 3 3.06 3 0 3 C0 2.01 0 1.02 0 0 Z " fill="#3A2119" transform="translate(68,141)"/>
<path d="M0 0 C1.32 0.33 2.64 0.66 4 1 C4 1.99 4 2.98 4 4 C4.66 4 5.32 4 6 4 C6 5.32 6 6.64 6 8 C5.01 8 4.02 8 3 8 C3 6.02 3 4.04 3 2 C2.01 2 1.02 2 0 2 C0 1.34 0 0.68 0 0 Z " fill="#B57623" transform="translate(68,123)"/>
<path d="M0 0 C1.32 0 2.64 0 4 0 C4 0.99 4 1.98 4 3 C2.68 3 1.36 3 0 3 C0 3.66 0 4.32 0 5 C-0.99 5 -1.98 5 -3 5 C-3 4.01 -3 3.02 -3 2 C-2.01 2 -1.02 2 0 2 C0 1.34 0 0.68 0 0 Z " fill="#CE933E" transform="translate(83,123)"/>
<path d="M0 0 C2.31 0 4.62 0 7 0 C7 0.99 7 1.98 7 3 C4.69 3 2.38 3 0 3 C0 2.01 0 1.02 0 0 Z " fill="#514439" transform="translate(80,117)"/>
<path d="M0 0 C0.99 0 1.98 0 3 0 C3 2.31 3 4.62 3 7 C2.01 7 1.02 7 0 7 C0 4.69 0 2.38 0 0 Z " fill="#3E230D" transform="translate(99,113)"/>
<path d="M0 0 C0.99 0 1.98 0 3 0 C3 2.31 3 4.62 3 7 C2.01 7 1.02 7 0 7 C0 4.69 0 2.38 0 0 Z " fill="#564838" transform="translate(87,110)"/>
<path d="M0 0 C0.33 1.32 0.66 2.64 1 4 C-2 6 -2 6 -5 6 C-5 5.01 -5 4.02 -5 3 C-2.5 1.3125 -2.5 1.3125 0 0 Z " fill="#E6B250" transform="translate(41,101)"/>
<path d="M0 0 C1.32 0 2.64 0 4 0 C4 0.99 4 1.98 4 3 C3.34 3 2.68 3 2 3 C2 5.97 2 8.94 2 12 C1.67 12 1.34 12 1 12 C0.67 8.04 0.34 4.08 0 0 Z " fill="#8A6128" transform="translate(61,89)"/>
<path d="M0 0 C2.31 0 4.62 0 7 0 C7 0.99 7 1.98 7 3 C4.69 3 2.38 3 0 3 C0 2.01 0 1.02 0 0 Z " fill="#583A1A" transform="translate(58,61)"/>
<path d="M0 0 C0.33 0.99 0.66 1.98 1 3 C1.99 3 2.98 3 4 3 C4 3.99 4 4.98 4 6 C4.99 6 5.98 6 7 6 C6.67 6.66 6.34 7.32 6 8 C4.125 7.6875 4.125 7.6875 2 7 C0 4 0 4 0 0 Z " fill="#EBB255" transform="translate(89,55)"/>
<path d="M0 0 C3 0 3 0 4.6875 1.5 C5.120625 1.995 5.55375 2.49 6 3 C6.33 2.01 6.66 1.02 7 0 C7 1.32 7 2.64 7 4 C5.1875 4.625 5.1875 4.625 3 5 C2.01 4.34 1.02 3.68 0 3 C0 2.01 0 1.02 0 0 Z " fill="#C8892F" transform="translate(83,101)"/>
<path d="M0 0 C0.99 0 1.98 0 3 0 C3 3.3 3 6.6 3 10 C2.67 10 2.34 10 2 10 C1.67 8.35 1.34 6.7 1 5 C0.67 5 0.34 5 0 5 C0 3.35 0 1.7 0 0 Z " fill="#858E99" transform="translate(24,18)"/>
<path d="M0 0 C0.99 0 1.98 0 3 0 C3 3 3 3 1.6875 4.6875 C0 6 0 6 -3 6 C-3 5.01 -3 4.02 -3 3 C-2.01 3 -1.02 3 0 3 C0 2.01 0 1.02 0 0 Z " fill="#ECB14B" transform="translate(33,107)"/>
<path d="M0 0 C0.33 0.66 0.66 1.32 1 2 C1.99 2 2.98 2 4 2 C4 3.32 4 4.64 4 6 C3.01 6 2.02 6 1 6 C1 5.01 1 4.02 1 3 C-0.65 3 -2.3 3 -4 3 C-2.68 2.67 -1.36 2.34 0 2 C0 1.34 0 0.68 0 0 Z " fill="#E9C45E" transform="translate(26,64)"/>
<path d="M0 0 C0.99 0 1.98 0 3 0 C3 1.32 3 2.64 3 4 C3.66 4 4.32 4 5 4 C4.67 4.99 4.34 5.98 4 7 C3.67 6.34 3.34 5.68 3 5 C2.01 4.67 1.02 4.34 0 4 C0 2.68 0 1.36 0 0 Z " fill="#FDE085" transform="translate(30,57)"/>
<path d="M0 0 C1.32 0 2.64 0 4 0 C4 0.66 4 1.32 4 2 C4.99 2 5.98 2 7 2 C7 2.99 7 3.98 7 5 C6.01 5 5.02 5 4 5 C4 4.34 4 3.68 4 3 C2.68 2.67 1.36 2.34 0 2 C0 1.34 0 0.68 0 0 Z " fill="#3C3E47" transform="translate(73,6)"/>
<path d="M0 0 C1.98 0 3.96 0 6 0 C6 0.99 6 1.98 6 3 C4.02 3 2.04 3 0 3 C0 2.01 0 1.02 0 0 Z " fill="#3B2417" transform="translate(30,141)"/>
<path d="M0 0 C1.98 0 3.96 0 6 0 C6 0.99 6 1.98 6 3 C4.02 3 2.04 3 0 3 C0 2.01 0 1.02 0 0 Z " fill="#3A2010" transform="translate(77,138)"/>
<path d="M0 0 C1.98 0 3.96 0 6 0 C6 0.99 6 1.98 6 3 C4.02 3 2.04 3 0 3 C0 2.01 0 1.02 0 0 Z " fill="#955D2F" transform="translate(30,138)"/>
<path d="M0 0 C1.65 0 3.3 0 5 0 C5 0.99 5 1.98 5 3 C2.625 3.625 2.625 3.625 0 4 C-0.66 3.34 -1.32 2.68 -2 2 C-1.34 2 -0.68 2 0 2 C0 1.34 0 0.68 0 0 Z " fill="#8A4F1A" transform="translate(24,132)"/>
<path d="M0 0 C0.99 0 1.98 0 3 0 C3 1.98 3 3.96 3 6 C2.01 6 1.02 6 0 6 C0 4.02 0 2.04 0 0 Z " fill="#B17E2F" transform="translate(58,117)"/>
<path d="M0 0 C0.99 0 1.98 0 3 0 C3 1.98 3 3.96 3 6 C2.01 6 1.02 6 0 6 C0 4.02 0 2.04 0 0 Z " fill="#D69B4A" transform="translate(90,114)"/>
<path d="M0 0 C0.99 0 1.98 0 3 0 C3 1.98 3 3.96 3 6 C2.01 6 1.02 6 0 6 C0 4.02 0 2.04 0 0 Z " fill="#584F44" transform="translate(24,111)"/>
<path d="M0 0 C0.33 0.99 0.66 1.98 1 3 C1.66 3 2.32 3 3 3 C2.34 5.31 1.68 7.62 1 10 C0.67 10 0.34 10 0 10 C0 8.02 0 6.04 0 4 C-0.99 3.67 -1.98 3.34 -3 3 C-2.01 3 -1.02 3 0 3 C0 2.01 0 1.02 0 0 Z " fill="#CEA85C" transform="translate(61,101)"/>
<path d="M0 0 C1.98 0 3.96 0 6 0 C6 0.99 6 1.98 6 3 C4.02 3 2.04 3 0 3 C0 2.01 0 1.02 0 0 Z " fill="#3E3037" transform="translate(83,76)"/>
<path d="M0 0 C1.98 0 3.96 0 6 0 C6 0.99 6 1.98 6 3 C5.34 3 4.68 3 4 3 C4 4.98 4 6.96 4 9 C3.67 9 3.34 9 3 9 C3 6.36 3 3.72 3 1 C2.01 0.67 1.02 0.34 0 0 Z " fill="#956B3D" transform="translate(0,69)"/>
<path d="M0 0 C0.99 0 1.98 0 3 0 C3 1.98 3 3.96 3 6 C2.01 6 1.02 6 0 6 C0 4.02 0 2.04 0 0 Z " fill="#55474D" transform="translate(80,70)"/>
<path d="M0 0 C1.98 0 3.96 0 6 0 C6 0.99 6 1.98 6 3 C4.02 3 2.04 3 0 3 C0 2.01 0 1.02 0 0 Z " fill="#DAB162" transform="translate(10,58)"/>
<path d="M0 0 C1.98 0 3.96 0 6 0 C6 0.99 6 1.98 6 3 C4.02 3 2.04 3 0 3 C0 2.01 0 1.02 0 0 Z " fill="#4C331B" transform="translate(65,58)"/>
<path d="M0 0 C1.98 0 3.96 0 6 0 C6 0.99 6 1.98 6 3 C4.02 3 2.04 3 0 3 C0 2.01 0 1.02 0 0 Z " fill="#313039" transform="translate(36,18)"/>
<path d="M0 0 C0.99 0 1.98 0 3 0 C3 1.98 3 3.96 3 6 C2.01 6 1.02 6 0 6 C0 4.02 0 2.04 0 0 Z " fill="#989EA6" transform="translate(16,18)"/>
<path d="M0 0 C0.33 0 0.66 0 1 0 C1 2.64 1 5.28 1 8 C-0.98 8.99 -0.98 8.99 -3 10 C-3 8.68 -3 7.36 -3 6 C-2.01 6 -1.02 6 0 6 C0 4.02 0 2.04 0 0 Z " fill="#D79D3D" transform="translate(96,92)"/>
</svg>
