<?xml version="1.0" encoding="UTF-8"?>
<svg version="1.1" xmlns="http://www.w3.org/2000/svg" width="113" height="192">
<path d="M0 0 C10.56 0 21.12 0 32 0 C32 0.99 32 1.98 32 3 C34.31 3 36.62 3 39 3 C39.495 4.485 39.495 4.485 40 6 C41.65 6 43.3 6 45 6 C45 6.99 45 7.98 45 9 C46.32 9 47.64 9 49 9 C51 12 51 12 51 15 C51.99 15 52.98 15 54 15 C54 15.99 54 16.98 54 18 C55.65 18.66 57.3 19.32 59 20 C59 21.98 59 23.96 59 26 C59.99 26 60.98 26 62 26 C62 40.52 62 55.04 62 70 C61.01 70 60.02 70 59 70 C59 71.65 59 73.3 59 75 C58.34 75 57.68 75 57 75 C56.896875 75.70125 56.79375 76.4025 56.6875 77.125 C55.67214692 81.37102199 54.10117285 84.89882715 51 88 C50.01 88 49.02 88 48 88 C48 88.99 48 89.98 48 91 C47.01 91 46.02 91 45 91 C45 91.99 45 92.98 45 94 C43.35 94 41.7 94 40 94 C40 94.66 40 95.32 40 96 C39.01 96 38.02 96 37 96 C37 96.99 37 97.98 37 99 C34.36 99 31.72 99 29 99 C28.505 100.485 28.505 100.485 28 102 C21.73 102 15.46 102 9 102 C6.82278362 105.81613312 6.82278362 105.81613312 6.5 109.6875 C6.335 110.780625 6.17 111.87375 6 113 C5.01 113.495 5.01 113.495 4 114 C4 116.97 4 119.94 4 123 C3.01 123 2.02 123 1 123 C1 123.99 1 124.98 1 126 C0.34 126 -0.32 126 -1 126 C-1 126.99 -1 127.98 -1 129 C-1.66 129.33 -2.32 129.66 -3 130 C-3.65555119 132.52733235 -3.65555119 132.52733235 -4 135 C-4.99 135 -5.98 135 -7 135 C-7 138.3 -7 141.6 -7 145 C-7.99 144.67 -8.98 144.34 -10 144 C-10 147.3 -10 150.6 -10 154 C-10.99 154 -11.98 154 -13 154 C-13 156.97 -13 159.94 -13 163 C-13.99 163 -14.98 163 -16 163 C-16 164.65 -16 166.3 -16 168 C-16.66 168 -17.32 168 -18 168 C-18 169.98 -18 171.96 -18 174 C-18.99 174.33 -19.98 174.66 -21 175 C-21 177.97 -21 180.94 -21 184 C-21.99 184 -22.98 184 -24 184 C-24 184.99 -24 185.98 -24 187 C-29.61 187 -35.22 187 -41 187 C-41 186.34 -41 185.68 -41 185 C-42.32 184.67 -43.64 184.34 -45 184 C-45 183.34 -45 182.68 -45 182 C-45.99 181.67 -46.98 181.34 -48 181 C-48 177.37 -48 173.74 -48 170 C-47.01 169.67 -46.02 169.34 -45 169 C-45 168.01 -45 167.02 -45 166 C-44.01 166 -43.02 166 -42 166 C-42.020625 165.195625 -42.04125 164.39125 -42.0625 163.5625 C-42 161 -42 161 -41 160 C-40.63239269 157.67182036 -40.29758419 155.3381615 -40 153 C-39.01 153 -38.02 153 -37 153 C-37 150.69 -37 148.38 -37 146 C-36.01 146 -35.02 146 -34 146 C-34 144.02 -34 142.04 -34 140 C-33.34 140 -32.68 140 -32 140 C-31.67 137.36 -31.34 134.72 -31 132 C-30.34 132 -29.68 132 -29 132 C-29 130.35 -29 128.7 -29 127 C-28.34 127 -27.68 127 -27 127 C-26.67 124.03 -26.34 121.06 -26 118 C-25.01 118 -24.02 118 -23 118 C-23 114.7 -23 111.4 -23 108 C-22.01 108 -21.02 108 -20 108 C-20 107.01 -20 106.02 -20 105 C-19.01 105 -18.02 105 -17 105 C-17 103.35 -17 101.7 -17 100 C-16.34 100 -15.68 100 -15 100 C-15 97.36 -15 94.72 -15 92 C-15.99 91.505 -15.99 91.505 -17 91 C-17 90.01 -17 89.02 -17 88 C-18.32 88 -19.64 88 -21 88 C-21 87.01 -21 86.02 -21 85 C-21.66 85 -22.32 85 -23 85 C-23 84.34 -23 83.68 -23 83 C-24.485 82.505 -24.485 82.505 -26 82 C-26 80.68 -26 79.36 -26 78 C-27.485 77.505 -27.485 77.505 -29 77 C-28.67 75.68 -28.34 74.36 -28 73 C-28.99 73 -29.98 73 -31 73 C-31 72.01 -31 71.02 -31 70 C-31.99 70 -32.98 70 -34 70 C-34 57.46 -34 44.92 -34 32 C-33.01 32 -32.02 32 -31 32 C-31 30.02 -31 28.04 -31 26 C-30.01 26 -29.02 26 -28 26 C-27.855625 25.4225 -27.71125 24.845 -27.5625 24.25 C-27.376875 23.5075 -27.19125 22.765 -27 22 C-26.87625 21.319375 -26.7525 20.63875 -26.625 19.9375 C-25.86123548 17.56982997 -24.96403581 16.51079678 -23 15 C-22.01 15 -21.02 15 -20 15 C-20 14.01 -20 13.02 -20 12 C-19.01 12 -18.02 12 -17 12 C-17 11.01 -17 10.02 -17 9 C-15.9375 7.3125 -15.9375 7.3125 -14 6 C-10.3125 5.8125 -10.3125 5.8125 -7 6 C-6.67 5.01 -6.34 4.02 -6 3 C-4.02 3 -2.04 3 0 3 C0 2.01 0 1.02 0 0 Z " fill="#5B3322" transform="translate(49,0)"/>
<path d="M0 0 C7.59 0 15.18 0 23 0 C23 0.99 23 1.98 23 3 C24.98 3 26.96 3 29 3 C29 3.99 29 4.98 29 6 C29.99 6 30.98 6 32 6 C32 6.99 32 7.98 32 9 C32.99 9 33.98 9 35 9 C35 9.99 35 10.98 35 12 C35.99 12 36.98 12 38 12 C38 14.31 38 16.62 38 19 C38.66 19 39.32 19 40 19 C40 27.58 40 36.16 40 45 C39.34 45 38.68 45 38 45 C38 46.98 38 48.96 38 51 C37.01 51 36.02 51 35 51 C35 52.65 35 54.3 35 56 C34.01 56 33.02 56 32 56 C32 56.99 32 57.98 32 59 C31.01 59 30.02 59 29 59 C29 59.66 29 60.32 29 61 C28.01 61 27.02 61 26 61 C26 61.66 26 62.32 26 63 C24.02 63 22.04 63 20 63 C20 63.99 20 64.98 20 66 C13.73 66 7.46 66 1 66 C1 65.34 1 64.68 1 64 C-1.31 64 -3.62 64 -6 64 C-6 63.01 -6 62.02 -6 61 C-6.99 61 -7.98 61 -9 61 C-9 60.34 -9 59.68 -9 59 C-9.99 59 -10.98 59 -12 59 C-12 58.01 -12 57.02 -12 56 C-12.66 56 -13.32 56 -14 56 C-14 54.35 -14 52.7 -14 51 C-14.99 51 -15.98 51 -17 51 C-17 49.02 -17 47.04 -17 45 C-17.99 45 -18.98 45 -20 45 C-20 36.75 -20 28.5 -20 20 C-19.01 20 -18.02 20 -17 20 C-17 18.35 -17 16.7 -17 15 C-16.01 15 -15.02 15 -14 15 C-14 13.02 -14 11.04 -14 9 C-13.34 9 -12.68 9 -12 9 C-12 8.01 -12 7.02 -12 6 C-10.68 6 -9.36 6 -8 6 C-8 5.01 -8 4.02 -8 3 C-5.36 3 -2.72 3 0 3 C0 2.01 0 1.02 0 0 Z " fill="#C6E1E6" transform="translate(53,18)"/>
<path d="M0 0 C10.56 0 21.12 0 32 0 C32 0.99 32 1.98 32 3 C34.31 3 36.62 3 39 3 C39.495 4.485 39.495 4.485 40 6 C41.65 6 43.3 6 45 6 C45 6.99 45 7.98 45 9 C46.32 9 47.64 9 49 9 C51 12 51 12 51 15 C51.99 15 52.98 15 54 15 C54 15.99 54 16.98 54 18 C55.65 18.66 57.3 19.32 59 20 C59 21.98 59 23.96 59 26 C59.99 26 60.98 26 62 26 C62 40.52 62 55.04 62 70 C61.01 70 60.02 70 59 70 C59 71.65 59 73.3 59 75 C58.34 75 57.68 75 57 75 C56.896875 75.70125 56.79375 76.4025 56.6875 77.125 C55.67214692 81.37102199 54.10117285 84.89882715 51 88 C50.01 88 49.02 88 48 88 C48 88.99 48 89.98 48 91 C47.01 91 46.02 91 45 91 C45 91.99 45 92.98 45 94 C43.35 94 41.7 94 40 94 C40 94.66 40 95.32 40 96 C39.01 96 38.02 96 37 96 C37 96.99 37 97.98 37 99 C34.36 99 31.72 99 29 99 C28.67 99.66 28.34 100.32 28 101 C28 100.01 28 99.02 28 98 C30.64 98 33.28 98 36 98 C36 97.01 36 96.02 36 95 C36.66 95 37.32 95 38 95 C38 94.34 38 93.68 38 93 C36.02 93 34.04 93 32 93 C32 93.66 32 94.32 32 95 C28.52334905 96.06888524 25.32862522 96.11475767 21.703125 96.09765625 C19.89521484 96.09282227 19.89521484 96.09282227 18.05078125 96.08789062 C16.79652344 96.07951172 15.54226562 96.07113281 14.25 96.0625 C12.98027344 96.05798828 11.71054687 96.05347656 10.40234375 96.04882812 C7.26818164 96.03704556 4.13411459 96.02059416 1 96 C1 95.01 1 94.02 1 93 C-1.97 93 -4.94 93 -8 93 C-8 92.01 -8 91.02 -8 90 C-8.66 90 -9.32 90 -10 90 C-10 89.01 -10 88.02 -10 87 C-10.99 87 -11.98 87 -13 87 C-13 86.01 -13 85.02 -13 84 C-14.32 84 -15.64 84 -17 84 C-17 83.34 -17 82.68 -17 82 C-18.485 81.505 -18.485 81.505 -20 81 C-22 78 -22 78 -21.75 75.875 C-21 74 -21 74 -19 73 C-18.34 73.33 -17.68 73.66 -17 74 C-17 74.99 -17 75.98 -17 77 C-16.01 77 -15.02 77 -14 77 C-14 77.66 -14 78.32 -14 79 C-13.01 79 -12.02 79 -11 79 C-11 79.99 -11 80.98 -11 82 C-10.01 82 -9.02 82 -8 82 C-8 82.99 -8 83.98 -8 85 C-7.01 85 -6.02 85 -5 85 C-5 85.66 -5 86.32 -5 87 C-3.02 87 -1.04 87 1 87 C1 88.32 1 89.64 1 91 C9.91 90.67 18.82 90.34 28 90 C28 89.01 28 88.02 28 87 C29.32 87 30.64 87 32 87 C32 86.01 32 85.02 32 84 C33.32 84 34.64 84 36 84 C36 83.34 36 82.68 36 82 C36.99 82 37.98 82 39 82 C39 81.01 39 80.02 39 79 C39.99 79 40.98 79 42 79 C42 78.34 42 77.68 42 77 C42.99 77 43.98 77 45 77 C45 75.35 45 73.7 45 72 C45.66 72 46.32 72 47 72 C47 70.02 47 68.04 47 66 C47.99 66 48.98 66 50 66 C50 63.03 50 60.06 50 57 C50.99 57 51.98 57 53 57 C53 51.39 53 45.78 53 40 C52.01 40 51.02 40 50 40 C50 37.69 50 35.38 50 33 C49.01 33 48.02 33 47 33 C47 30.03 47 27.06 47 24 C46.34 24 45.68 24 45 24 C45 23.01 45 22.02 45 21 C44.01 21 43.02 21 42 21 C42 20.01 42 19.02 42 18 C41.01 18 40.02 18 39 18 C39 17.34 39 16.68 39 16 C37.02 16 35.04 16 33 16 C33 15.01 33 14.02 33 13 C31.02 13 29.04 13 27 13 C27 12.01 27 11.02 27 10 C18.75 10 10.5 10 2 10 C2 10.99 2 11.98 2 13 C-0.31 13 -2.62 13 -5 13 C-5 13.66 -5 14.32 -5 15 C-5.99 15 -6.98 15 -8 15 C-8 15.99 -8 16.98 -8 18 C-8.66 18 -9.32 18 -10 18 C-10 18.99 -10 19.98 -10 21 C-10.99 21 -11.98 21 -13 21 C-13 21.99 -13 22.98 -13 24 C-14.32 24 -15.64 24 -17 24 C-17 24.99 -17 25.98 -17 27 C-17.66 27 -18.32 27 -19 27 C-19 28.98 -19 30.96 -19 33 C-19.99 33 -20.98 33 -22 33 C-22 36.3 -22 39.6 -22 43 C-22.99 43 -23.98 43 -25 43 C-25 47.95 -25 52.9 -25 58 C-24.01 58 -23.02 58 -22 58 C-22 61.63 -22 65.26 -22 69 C-21.34 69 -20.68 69 -20 69 C-20.33 70.32 -20.66 71.64 -21 73 C-22.32 72.67 -23.64 72.34 -25 72 C-25 71.01 -25 70.02 -25 69 C-25.99 69 -26.98 69 -28 69 C-28 67.02 -28 65.04 -28 63 C-28.66 63 -29.32 63 -30 63 C-30 53.1 -30 43.2 -30 33 C-30.99 33 -31.98 33 -33 33 C-33 44.88 -33 56.76 -33 69 C-32.01 69 -31.02 69 -30 69 C-30 69.99 -30 70.98 -30 72 C-29.34 72.33 -28.68 72.66 -28 73 C-28.99 73 -29.98 73 -31 73 C-31 72.01 -31 71.02 -31 70 C-31.99 70 -32.98 70 -34 70 C-34 57.46 -34 44.92 -34 32 C-33.01 32 -32.02 32 -31 32 C-31 30.02 -31 28.04 -31 26 C-30.01 26 -29.02 26 -28 26 C-27.855625 25.4225 -27.71125 24.845 -27.5625 24.25 C-27.376875 23.5075 -27.19125 22.765 -27 22 C-26.87625 21.319375 -26.7525 20.63875 -26.625 19.9375 C-25.86123548 17.56982997 -24.96403581 16.51079678 -23 15 C-22.01 15 -21.02 15 -20 15 C-20 14.01 -20 13.02 -20 12 C-19.01 12 -18.02 12 -17 12 C-17 11.01 -17 10.02 -17 9 C-15.9375 7.3125 -15.9375 7.3125 -14 6 C-10.3125 5.8125 -10.3125 5.8125 -7 6 C-6.67 5.01 -6.34 4.02 -6 3 C-4.02 3 -2.04 3 0 3 C0 2.01 0 1.02 0 0 Z " fill="#E4B231" transform="translate(49,0)"/>
<path d="M0 0 C8.25 0 16.5 0 25 0 C25 0.99 25 1.98 25 3 C26.98 3 28.96 3 31 3 C31 3.99 31 4.98 31 6 C32.98 6 34.96 6 37 6 C37 6.66 37 7.32 37 8 C37.99 8 38.98 8 40 8 C40 8.99 40 9.98 40 11 C40.99 11 41.98 11 43 11 C43 11.99 43 12.98 43 14 C43.66 14 44.32 14 45 14 C45 16.97 45 19.94 45 23 C45.99 23 46.98 23 48 23 C48 25.31 48 27.62 48 30 C48.99 30 49.98 30 51 30 C51 35.61 51 41.22 51 47 C50.01 47 49.02 47 48 47 C48 49.97 48 52.94 48 56 C47.01 56 46.02 56 45 56 C45 57.98 45 59.96 45 62 C44.34 62 43.68 62 43 62 C43 63.65 43 65.3 43 67 C42.01 67 41.02 67 40 67 C40 67.66 40 68.32 40 69 C39.01 69 38.02 69 37 69 C37 69.99 37 70.98 37 72 C36.01 72 35.02 72 34 72 C34 72.66 34 73.32 34 74 C32.68 74 31.36 74 30 74 C29.505 75.485 29.505 75.485 29 77 C29 76.34 29 75.68 29 75 C26.69 75 24.38 75 22 75 C22 75.66 22 76.32 22 77 C15.73 77 9.46 77 3 77 C3 76.01 3 75.02 3 74 C9.27 74 15.54 74 22 74 C22 73.01 22 72.02 22 71 C23.98 71 25.96 71 28 71 C28 70.34 28 69.68 28 69 C28.99 69 29.98 69 31 69 C31 68.34 31 67.68 31 67 C31.99 67 32.98 67 34 67 C34 66.01 34 65.02 34 64 C34.99 64 35.98 64 37 64 C37 62.35 37 60.7 37 59 C37.99 59 38.98 59 40 59 C40 57.02 40 55.04 40 53 C40.66 53 41.32 53 42 53 C42 44.42 42 35.84 42 27 C41.34 27 40.68 27 40 27 C40 24.69 40 22.38 40 20 C39.01 20 38.02 20 37 20 C37 19.01 37 18.02 37 17 C36.01 17 35.02 17 34 17 C34 16.01 34 15.02 34 14 C33.01 14 32.02 14 31 14 C31 13.01 31 12.02 31 11 C29.02 11 27.04 11 25 11 C25 10.01 25 9.02 25 8 C17.41 8 9.82 8 2 8 C2 8.99 2 9.98 2 11 C-0.64 11 -3.28 11 -6 11 C-6 11.99 -6 12.98 -6 14 C-7.32 14 -8.64 14 -10 14 C-10 14.99 -10 15.98 -10 17 C-10.66 17 -11.32 17 -12 17 C-12 18.98 -12 20.96 -12 23 C-12.99 23 -13.98 23 -15 23 C-15 24.65 -15 26.3 -15 28 C-15.99 28 -16.98 28 -18 28 C-18 36.25 -18 44.5 -18 53 C-17.01 53 -16.02 53 -15 53 C-15 54.98 -15 56.96 -15 59 C-14.01 59 -13.02 59 -12 59 C-12 60.65 -12 62.3 -12 64 C-11.34 64 -10.68 64 -10 64 C-10 64.99 -10 65.98 -10 67 C-9.01 67 -8.02 67 -7 67 C-7 67.66 -7 68.32 -7 69 C-9.475 69.99 -9.475 69.99 -12 71 C-12.33 68.69 -12.66 66.38 -13 64 C-14.32 64 -15.64 64 -17 64 C-17.33 63.34 -17.66 62.68 -18 62 C-18.99 61.67 -19.98 61.34 -21 61 C-21 60.34 -21 59.68 -21 59 C-20.34 59 -19.68 59 -19 59 C-19 57.02 -19 55.04 -19 53 C-20.32 52.67 -21.64 52.34 -23 52 C-23 46.72 -23 41.44 -23 36 C-23.66 35.67 -24.32 35.34 -25 35 C-24.505 34.505 -24.505 34.505 -24 34 C-23.76712992 32.31816052 -23.58735834 30.6287584 -23.4375 28.9375 C-23.35371094 28.01839844 -23.26992188 27.09929688 -23.18359375 26.15234375 C-23.12300781 25.44207031 -23.06242187 24.73179688 -23 24 C-22.67 24 -22.34 24 -22 24 C-21.67 21.69 -21.34 19.38 -21 17 C-20.34 17 -19.68 17 -19 17 C-19 16.01 -19 15.02 -19 14 C-17.68 14 -16.36 14 -15 14 C-15 13.01 -15 12.02 -15 11 C-14.01 11 -13.02 11 -12 11 C-12 10.01 -12 9.02 -12 8 C-11.34 8 -10.68 8 -10 8 C-10 7.01 -10 6.02 -10 5 C-9.01 5 -8.02 5 -7 5 C-7 4.34 -7 3.68 -7 3 C-4.69 3 -2.38 3 0 3 C0 2.01 0 1.02 0 0 Z " fill="#8D5F23" transform="translate(51,10)"/>
<path d="M0 0 C2.31 0.33 4.62 0.66 7 1 C7 2.65 7 4.3 7 6 C7.99 6 8.98 6 10 6 C10.495 8.475 10.495 8.475 11 11 C11.33 11 11.66 11 12 11 C12 12.98 12 14.96 12 17 C12.99 17 13.98 17 15 17 C15 26.24 15 35.48 15 45 C14.01 45 13.02 45 12 45 C12 46.98 12 48.96 12 51 C11.34 51 10.68 51 10 51 C10 52.65 10 54.3 10 56 C9.01 56 8.02 56 7 56 C7 56.99 7 57.98 7 59 C6.01 59 5.02 59 4 59 C4 60.65 4 62.3 4 64 C3.01 64 2.02 64 1 64 C1 64.99 1 65.98 1 67 C0.34 67 -0.32 67 -1 67 C-1 67.66 -1 68.32 -1 69 C-1.99 69 -2.98 69 -4 69 C-4 70.98 -4 72.96 -4 75 C-2.02 75 -0.04 75 2 75 C2 75.33 2 75.66 2 76 C0.35 76 -1.3 76 -3 76 C-3 76.66 -3 77.32 -3 78 C-3.99 78 -4.98 78 -6 78 C-6 78.99 -6 79.98 -6 81 C-8.64 81 -11.28 81 -14 81 C-14.33 81.66 -14.66 82.32 -15 83 C-15 82.01 -15 81.02 -15 80 C-12.36 80 -9.72 80 -7 80 C-7 79.01 -7 78.02 -7 77 C-6.34 77 -5.68 77 -5 77 C-5 76.34 -5 75.68 -5 75 C-6.98 75 -8.96 75 -11 75 C-11 75.66 -11 76.32 -11 77 C-14.47665095 78.06888524 -17.67137478 78.11475767 -21.296875 78.09765625 C-23.10478516 78.09282227 -23.10478516 78.09282227 -24.94921875 78.08789062 C-26.20347656 78.07951172 -27.45773438 78.07113281 -28.75 78.0625 C-30.01972656 78.05798828 -31.28945313 78.05347656 -32.59765625 78.04882812 C-35.73181836 78.03704556 -38.86588541 78.02059416 -42 78 C-42 77.01 -42 76.02 -42 75 C-44.97 75 -47.94 75 -51 75 C-51 74.01 -51 73.02 -51 72 C-51.66 72 -52.32 72 -53 72 C-53 71.01 -53 70.02 -53 69 C-53.99 69 -54.98 69 -56 69 C-56 68.01 -56 67.02 -56 66 C-57.32 66 -58.64 66 -60 66 C-60 65.34 -60 64.68 -60 64 C-60.99 63.67 -61.98 63.34 -63 63 C-65 60 -65 60 -64.75 57.875 C-64 56 -64 56 -62 55 C-61.34 55.33 -60.68 55.66 -60 56 C-60 56.99 -60 57.98 -60 59 C-59.01 59 -58.02 59 -57 59 C-57 59.66 -57 60.32 -57 61 C-56.01 61 -55.02 61 -54 61 C-54 61.99 -54 62.98 -54 64 C-53.01 64 -52.02 64 -51 64 C-51 64.99 -51 65.98 -51 67 C-50.01 67 -49.02 67 -48 67 C-48 67.66 -48 68.32 -48 69 C-46.02 69 -44.04 69 -42 69 C-42 70.32 -42 71.64 -42 73 C-33.09 72.67 -24.18 72.34 -15 72 C-15 71.01 -15 70.02 -15 69 C-13.68 69 -12.36 69 -11 69 C-11 68.01 -11 67.02 -11 66 C-9.68 66 -8.36 66 -7 66 C-7 65.34 -7 64.68 -7 64 C-6.01 64 -5.02 64 -4 64 C-4 63.01 -4 62.02 -4 61 C-3.01 61 -2.02 61 -1 61 C-1 60.34 -1 59.68 -1 59 C-0.01 59 0.98 59 2 59 C2 57.35 2 55.7 2 54 C2.66 54 3.32 54 4 54 C4 52.02 4 50.04 4 48 C4.99 48 5.98 48 7 48 C7 45.03 7 42.06 7 39 C7.99 39 8.98 39 10 39 C10 33.39 10 27.78 10 22 C9.01 22 8.02 22 7 22 C7 19.69 7 17.38 7 15 C6.01 15 5.02 15 4 15 C4 12.03 4 9.06 4 6 C3.34 6 2.68 6 2 6 C2 5.01 2 4.02 2 3 C1.01 2.67 0.02 2.34 -1 2 C-0.67 1.34 -0.34 0.68 0 0 Z " fill="#EFB033" transform="translate(92,18)"/>
<path d="M0 0 C0.99 0 1.98 0 3 0 C3 9.9 3 19.8 3 30 C3.66 30 4.32 30 5 30 C5 31.98 5 33.96 5 36 C5.99 36 6.98 36 8 36 C8 36.99 8 37.98 8 39 C9.32 39 10.64 39 12 39 C12.33 38.01 12.66 37.02 13 36 C12.34 36 11.68 36 11 36 C11 32.37 11 28.74 11 25 C10.01 25 9.02 25 8 25 C8 20.05 8 15.1 8 10 C8.99 10 9.98 10 11 10 C11 6.7 11 3.4 11 0 C11.99 0 12.98 0 14 0 C13.7834375 0.7734375 13.7834375 0.7734375 13.5625 1.5625 C12.01622003 8.26304655 12.06566228 14.32820169 12.5 21.125 C12.54769531 21.87910156 12.59539063 22.63320313 12.64453125 23.41015625 C12.76246268 25.27347291 12.88115889 27.13674114 13 29 C13.99 29.33 14.98 29.66 16 30 C16 31.98 16 33.96 16 36 C15.34 36 14.68 36 14 36 C14 36.66 14 37.32 14 38 C15.32 38.33 16.64 38.66 18 39 C18 39.66 18 40.32 18 41 C19.32 41 20.64 41 22 41 C22.66 42.98 23.32 44.96 24 47 C24.33 46.67 24.66 46.34 25 46 C26.99958364 45.95919217 29.00045254 45.95745644 31 46 C31 46.99 31 47.98 31 49 C33.31 49 35.62 49 38 49 C38 50.65 38 52.3 38 54 C44.27 54 50.54 54 57 54 C57 53.34 57 52.68 57 52 C59.31 52 61.62 52 64 52 C64 52.66 64 53.32 64 54 C63.01 54 62.02 54 61 54 C61 54.99 61 55.98 61 57 C57.79217914 57.95376567 54.91812604 58.11621181 51.578125 58.09765625 C50.55332031 58.09443359 49.52851562 58.09121094 48.47265625 58.08789062 C47.40917969 58.07951172 46.34570312 58.07113281 45.25 58.0625 C44.17105469 58.05798828 43.09210937 58.05347656 41.98046875 58.04882812 C39.32025617 58.03705727 36.66015635 58.02061399 34 58 C34 56.68 34 55.36 34 54 C32.02 54 30.04 54 28 54 C28 53.34 28 52.68 28 52 C27.01 52 26.02 52 25 52 C25 51.01 25 50.02 25 49 C24.01 49 23.02 49 22 49 C22 48.01 22 47.02 22 46 C21.01 46 20.02 46 19 46 C19 45.34 19 44.68 19 44 C18.01 44 17.02 44 16 44 C16 43.01 16 42.02 16 41 C14.02 41.495 14.02 41.495 12 42 C12.57381478 45.32812571 13.59380748 46.69842455 16 49 C16 49.66 16 50.32 16 51 C17.32 51 18.64 51 20 51 C20 51.99 20 52.98 20 54 C19.01 54 18.02 54 17 54 C17 54.99 17 55.98 17 57 C17.99 57 18.98 57 20 57 C20 60.63 20 64.26 20 68 C19.01 68 18.02 68 17 68 C17 69.65 17 71.3 17 73 C16.01 73 15.02 73 14 73 C14 73.99 14 74.98 14 76 C16.64 76 19.28 76 22 76 C22 76.66 22 77.32 22 78 C23.98 78 25.96 78 28 78 C28 78.99 28 79.98 28 81 C28.99 81 29.98 81 31 81 C31 81.66 31 82.32 31 83 C31.66 83 32.32 83 33 83 C33 83.99 33 84.98 33 86 C26.84765625 86.09765625 26.84765625 86.09765625 25 86 C24.505 85.505 24.505 85.505 24 85 C22.15108054 84.76636119 20.29511969 84.58696365 18.4375 84.4375 C16.91962891 84.31181641 16.91962891 84.31181641 15.37109375 84.18359375 C14.58863281 84.12300781 13.80617188 84.06242187 13 84 C13 81.36 13 78.72 13 76 C12.34 76 11.68 76 11 76 C11 79.3 11 82.6 11 86 C10.01 86 9.02 86 8 86 C8 88.64 8 91.28 8 94 C7.34 94 6.68 94 6 94 C6.33 91.03 6.66 88.06 7 85 C7.99 85 8.98 85 10 85 C10 81.7 10 78.4 10 75 C10.99 75 11.98 75 13 75 C13 74.01 13 73.02 13 72 C13.99 72 14.98 72 16 72 C16 70.35 16 68.7 16 67 C16.66 67 17.32 67 18 67 C18 64.36 18 61.72 18 59 C17.34 58.67 16.68 58.34 16 58 C16 57.01 16 56.02 16 55 C14.68 55 13.36 55 12 55 C12 54.01 12 53.02 12 52 C11.34 52 10.68 52 10 52 C10 51.34 10 50.68 10 50 C9.01 49.67 8.02 49.34 7 49 C7 47.68 7 46.36 7 45 C6.01 44.67 5.02 44.34 4 44 C4.33 42.35 4.66 40.7 5 39 C4.34 39 3.68 39 3 39 C3 38.01 3 37.02 3 36 C2.01 36 1.02 36 0 36 C0 24.12 0 12.24 0 0 Z " fill="#9A5910" transform="translate(16,33)"/>
<path d="M0 0 C2.64 0 5.28 0 8 0 C8 1.98 8 3.96 8 6 C7.01 6 6.02 6 5 6 C5 6.99 5 7.98 5 9 C3.35 9 1.7 9 0 9 C-0.12375 9.804375 -0.2475 10.60875 -0.375 11.4375 C-0.58125 12.283125 -0.7875 13.12875 -1 14 C-1.99 14.495 -1.99 14.495 -3 15 C-3.33 15.99 -3.66 16.98 -4 18 C-6.0625 18.6875 -6.0625 18.6875 -8 19 C-8 20.32 -8 21.64 -8 23 C-6.68 23.66 -5.36 24.32 -4 25 C-4 29.62 -4 34.24 -4 39 C-2.02 39.33 -0.04 39.66 2 40 C1.34 41.32 0.68 42.64 0 44 C0 43.01 0 42.02 0 41 C-0.66 41 -1.32 41 -2 41 C-2.6878236 43.35367713 -2.6878236 43.35367713 -3 46 C-2.34 46.99 -1.68 47.98 -1 49 C-1 50.32 -1 51.64 -1 53 C-0.01 53 0.98 53 2 53 C2 53.99 2 54.98 2 56 C2.99 56 3.98 56 5 56 C5 56.66 5 57.32 5 58 C7.31 58 9.62 58 12 58 C12 58.66 12 59.32 12 60 C17.28 60 22.56 60 28 60 C28 60.99 28 61.98 28 63 C21.73 63 15.46 63 9 63 C9 62.34 9 61.68 9 61 C6.69 61 4.38 61 2 61 C2 60.01 2 59.02 2 58 C1.01 58 0.02 58 -1 58 C-1 57.34 -1 56.68 -1 56 C-1.99 56 -2.98 56 -4 56 C-4 55.01 -4 54.02 -4 53 C-4.66 53 -5.32 53 -6 53 C-6 51.35 -6 49.7 -6 48 C-6.99 48 -7.98 48 -9 48 C-9 46.02 -9 44.04 -9 42 C-9.99 42 -10.98 42 -12 42 C-12 33.75 -12 25.5 -12 17 C-11.01 17 -10.02 17 -9 17 C-9 15.35 -9 13.7 -9 12 C-8.01 12 -7.02 12 -6 12 C-6 10.02 -6 8.04 -6 6 C-5.34 6 -4.68 6 -4 6 C-4 5.01 -4 4.02 -4 3 C-2.68 3 -1.36 3 0 3 C0 2.01 0 1.02 0 0 Z " fill="#C6E1E9" transform="translate(45,21)"/>
<path d="M0 0 C0.66 0 1.32 0 2 0 C2 0.99 2 1.98 2 3 C4.97 3 7.94 3 11 3 C11 3.99 11 4.98 11 6 C26.345 5.505 26.345 5.505 42 5 C42 4.34 42 3.68 42 3 C43.98 3 45.96 3 48 3 C48 3.66 48 4.32 48 5 C47.34 5 46.68 5 46 5 C46 5.99 46 6.98 46 8 C43.36 8 40.72 8 38 8 C38 9.32 38 10.64 38 12 C31.73 12 25.46 12 19 12 C17.04783565 15.90432869 16.49360009 18.72213252 16 23 C14.35 23.33 12.7 23.66 11 24 C11 23.34 11 22.68 11 22 C10.01 22 9.02 22 8 22 C8 21.01 8 20.02 8 19 C5.36 19 2.72 19 0 19 C0 18.01 0 17.02 0 16 C-0.99 16 -1.98 16 -3 16 C-3 15.34 -3 14.68 -3 14 C-2.01 14 -1.02 14 0 14 C0 9.38 0 4.76 0 0 Z " fill="#8C5B28" transform="translate(39,90)"/>
<path d="M0 0 C0.33 0 0.66 0 1 0 C1 1.98 1 3.96 1 6 C0.34 6 -0.32 6 -1 6 C-1 8.64 -1 11.28 -1 14 C-1.99 14 -2.98 14 -4 14 C-4 15.98 -4 17.96 -4 20 C-4.66 20 -5.32 20 -6 20 C-6 21.98 -6 23.96 -6 26 C-5.34 26.33 -4.68 26.66 -4 27 C-4.66 27 -5.32 27 -6 27 C-6.33 27.66 -6.66 28.32 -7 29 C-7 28.34 -7 27.68 -7 27 C-7.66 27 -8.32 27 -9 27 C-9 29.31 -9 31.62 -9 34 C-10.485 34.495 -10.485 34.495 -12 35 C-12 36.65 -12 38.3 -12 40 C-12.99 40 -13.98 40 -15 40 C-15 40.99 -15 41.98 -15 43 C-13.02 43 -11.04 43 -9 43 C-9 43.66 -9 44.32 -9 45 C-7.35 45 -5.7 45 -4 45 C-4 45.99 -4 46.98 -4 48 C-1.36 48 1.28 48 4 48 C4 50.64 4 53.28 4 56 C5.32 56.33 6.64 56.66 8 57 C7.01 57 6.02 57 5 57 C5 57.99 5 58.98 5 60 C-0.61 60 -6.22 60 -12 60 C-12 59.34 -12 58.68 -12 58 C-13.32 57.67 -14.64 57.34 -16 57 C-16 56.34 -16 55.68 -16 55 C-16.99 54.67 -17.98 54.34 -19 54 C-19 50.37 -19 46.74 -19 43 C-17.515 42.505 -17.515 42.505 -16 42 C-16 41.01 -16 40.02 -16 39 C-15.01 39 -14.02 39 -13 39 C-13.020625 38.195625 -13.04125 37.39125 -13.0625 36.5625 C-13 34 -13 34 -12 33 C-11.63239269 30.67182036 -11.29758419 28.3381615 -11 26 C-10.01 26 -9.02 26 -8 26 C-8 23.69 -8 21.38 -8 19 C-7.01 19 -6.02 19 -5 19 C-5 17.02 -5 15.04 -5 13 C-4.34 13 -3.68 13 -3 13 C-2.67 10.36 -2.34 7.72 -2 5 C-1.34 5 -0.68 5 0 5 C0 3.35 0 1.7 0 0 Z " fill="#9B774C" transform="translate(20,127)"/>
<path d="M0 0 C0.33 0 0.66 0 1 0 C1 2.97 1 5.94 1 9 C0.01 9 -0.98 9 -2 9 C-2 9.99 -2 10.98 -2 12 C-2.66 12 -3.32 12 -4 12 C-4 12.99 -4 13.98 -4 15 C-4.66 15.33 -5.32 15.66 -6 16 C-6.65555119 18.52733235 -6.65555119 18.52733235 -7 21 C-7.99 21 -8.98 21 -10 21 C-10 24.3 -10 27.6 -10 31 C-10.33 31 -10.66 31 -11 31 C-11.04898438 30.21753906 -11.09796875 29.43507812 -11.1484375 28.62890625 C-11.22320312 27.61699219 -11.29796875 26.60507813 -11.375 25.5625 C-11.44460937 24.55316406 -11.51421875 23.54382813 -11.5859375 22.50390625 C-11.72257812 21.67761719 -11.85921875 20.85132813 -12 20 C-12.66 19.67 -13.32 19.34 -14 19 C-14 18.34 -14 17.68 -14 17 C-14.66 17 -15.32 17 -16 17 C-16 19.64 -16 22.28 -16 25 C-16.99 25 -17.98 25 -19 25 C-19 26.65 -19 28.3 -19 30 C-19.99 30 -20.98 30 -22 30 C-22 31.65 -22 33.3 -22 35 C-22.99 35 -23.98 35 -25 35 C-25 38.3 -25 41.6 -25 45 C-25.99 44.67 -26.98 44.34 -28 44 C-27.34 44 -26.68 44 -26 44 C-26.14037521 42.18706911 -26.28744889 40.3746557 -26.4375 38.5625 C-26.51871094 37.55316406 -26.59992187 36.54382813 -26.68359375 35.50390625 C-26.73211468 33.06359221 -26.73211468 33.06359221 -28 32 C-28 34.31 -28 36.62 -28 39 C-28.99 39.495 -28.99 39.495 -30 40 C-30.65555119 42.52733235 -30.65555119 42.52733235 -31 45 C-31.66 45 -32.32 45 -33 45 C-32.938125 45.94875 -32.87625 46.8975 -32.8125 47.875 C-32.874375 48.90625 -32.93625 49.9375 -33 51 C-36 53 -36 53 -39 53 C-39 52.01 -39 51.02 -39 50 C-38.01 50 -37.02 50 -36 50 C-36.061875 48.824375 -36.12375 47.64875 -36.1875 46.4375 C-36.21144173 41.96039699 -34.9879056 38.9758112 -33 35 C-32.34 35 -31.68 35 -31 35 C-31 33.35 -31 31.7 -31 30 C-30.01 30 -29.02 30 -28 30 C-28 28.02 -28 26.04 -28 24 C-27.01 24 -26.02 24 -25 24 C-25 21.36 -25 18.72 -25 16 C-24.34 16 -23.68 16 -23 16 C-23 13.36 -23 10.72 -23 8 C-21.68 8 -20.36 8 -19 8 C-19 9.98 -19 11.96 -19 14 C-18.01 14.33 -17.02 14.66 -16 15 C-15.01 15.33 -14.02 15.66 -13 16 C-12.67 14.02 -12.34 12.04 -12 10 C-11.67 10 -11.34 10 -11 10 C-11 12.97 -11 15.94 -11 19 C-10.01 19 -9.02 19 -8 19 C-8 17.02 -8 15.04 -8 13 C-7.01 13 -6.02 13 -5 13 C-5 12.01 -5 11.02 -5 10 C-4.34 10 -3.68 10 -3 10 C-3 9.34 -3 8.68 -3 8 C-2.01 8 -1.02 8 0 8 C0 5.36 0 2.72 0 0 Z " fill="#B97047" transform="translate(52,114)"/>
<path d="M0 0 C0.66 0 1.32 0 2 0 C2 0.99 2 1.98 2 3 C2.99 3 3.98 3 5 3 C5 4.65 5 6.3 5 8 C5.99 8 6.98 8 8 8 C8 21.86 8 35.72 8 50 C7.01 50 6.02 50 5 50 C5 51.65 5 53.3 5 55 C4.01 55 3.02 55 2 55 C2 56.65 2 58.3 2 60 C1.34 60 0.68 60 0 60 C0 61.65 0 63.3 0 65 C-0.99 65 -1.98 65 -3 65 C-3 65.99 -3 66.98 -3 68 C-3.99 68 -4.98 68 -6 68 C-6 68.99 -6 69.98 -6 71 C-6.66 71 -7.32 71 -8 71 C-8 71.99 -8 72.98 -8 74 C-9.98 74 -11.96 74 -14 74 C-14 72.02 -14 70.04 -14 68 C-13.01 68 -12.02 68 -11 68 C-11 67.34 -11 66.68 -11 66 C-10.34 66 -9.68 66 -9 66 C-9 65.01 -9 64.02 -9 63 C-8.01 63 -7.02 63 -6 63 C-6 61.35 -6 59.7 -6 58 C-5.01 58 -4.02 58 -3 58 C-3 57.01 -3 56.02 -3 55 C-2.01 55 -1.02 55 0 55 C0 53.35 0 51.7 0 50 C0.66 50 1.32 50 2 50 C2 48.02 2 46.04 2 44 C2.99 44 3.98 44 5 44 C5 34.76 5 25.52 5 16 C4.01 16 3.02 16 2 16 C1.67 14.35 1.34 12.7 1 11 C0.67 11 0.34 11 0 11 C0 7.37 0 3.74 0 0 Z " fill="#3B220F" transform="translate(102,19)"/>
<path d="M0 0 C1.65 0 3.3 0 5 0 C5 0.99 5 1.98 5 3 C4.01 3 3.02 3 2 3 C2 4.98 2 6.96 2 9 C1.34 9 0.68 9 0 9 C0 10.98 0 12.96 0 15 C-0.99 15 -1.98 15 -3 15 C-3 16.65 -3 18.3 -3 20 C-3.99 20 -4.98 20 -6 20 C-6 28.25 -6 36.5 -6 45 C-5.01 45 -4.02 45 -3 45 C-3 46.98 -3 48.96 -3 51 C-2.01 51 -1.02 51 0 51 C0 52.65 0 54.3 0 56 C0.66 56 1.32 56 2 56 C2 56.99 2 57.98 2 59 C2.99 59 3.98 59 5 59 C5 59.66 5 60.32 5 61 C3.35 61.66 1.7 62.32 0 63 C-0.33 60.69 -0.66 58.38 -1 56 C-2.32 56 -3.64 56 -5 56 C-5.33 55.34 -5.66 54.68 -6 54 C-6.99 53.67 -7.98 53.34 -9 53 C-9 52.34 -9 51.68 -9 51 C-8.34 51 -7.68 51 -7 51 C-7 49.02 -7 47.04 -7 45 C-8.32 44.67 -9.64 44.34 -11 44 C-11 38.72 -11 33.44 -11 28 C-11.66 27.67 -12.32 27.34 -13 27 C-12.67 26.67 -12.34 26.34 -12 26 C-11.76712992 24.31816052 -11.58735834 22.6287584 -11.4375 20.9375 C-11.35371094 20.01839844 -11.26992188 19.09929688 -11.18359375 18.15234375 C-11.12300781 17.44207031 -11.06242187 16.73179688 -11 16 C-10.67 16 -10.34 16 -10 16 C-9.67 13.69 -9.34 11.38 -9 9 C-8.34 9 -7.68 9 -7 9 C-7 8.01 -7 7.02 -7 6 C-5.68 6 -4.36 6 -3 6 C-3 5.01 -3 4.02 -3 3 C-2.01 3 -1.02 3 0 3 C0 2.01 0 1.02 0 0 Z " fill="#8F5716" transform="translate(39,18)"/>
<path d="M0 0 C0.66 0 1.32 0 2 0 C2 0.66 2 1.32 2 2 C2.99 2.33 3.98 2.66 5 3 C5 6.3 5 9.6 5 13 C4.34 13 3.68 13 3 13 C3 15.97 3 18.94 3 22 C1.68 22 0.36 22 -1 22 C-1 24.64 -1 27.28 -1 30 C-1.66 30.33 -2.32 30.66 -3 31 C-3.65213292 33.02463255 -3.65213292 33.02463255 -4 35 C-4.66 35 -5.32 35 -6 35 C-6.66 34.34 -7.32 33.68 -8 33 C-8.66 33 -9.32 33 -10 33 C-10 33.66 -10 34.32 -10 35 C-9.34 35.33 -8.68 35.66 -8 36 C-8.495 38.475 -8.495 38.475 -9 41 C-10.98 40.67 -12.96 40.34 -15 40 C-15 37.69 -15 35.38 -15 33 C-14.01 33 -13.02 33 -12 33 C-12 31.35 -12 29.7 -12 28 C-11.01 28 -10.02 28 -9 28 C-9 24.7 -9 21.4 -9 18 C-8.01 18 -7.02 18 -6 18 C-6 16.35 -6 14.7 -6 13 C-5.01 13 -4.02 13 -3 13 C-3 11.35 -3 9.7 -3 8 C-2.01 8 -1.02 8 0 8 C0 5.36 0 2.72 0 0 Z " fill="#532B1B" transform="translate(36,131)"/>
<path d="M0 0 C0.99 0.33 1.98 0.66 3 1 C3 1.99 3 2.98 3 4 C3.99 4 4.98 4 6 4 C6 4.66 6 5.32 6 6 C6.99 6 7.98 6 9 6 C9 6.99 9 7.98 9 9 C9.99 9 10.98 9 12 9 C12 9.99 12 10.98 12 12 C12.99 12 13.98 12 15 12 C15 12.66 15 13.32 15 14 C16.98 14 18.96 14 21 14 C21 15.32 21 16.64 21 18 C28.59 18 36.18 18 44 18 C44 18.66 44 19.32 44 20 C46.31 20 48.62 20 51 20 C51 19.01 51 18.02 51 17 C52.65 17 54.3 17 56 17 C56 17.99 56 18.98 56 20 C54.68 20 53.36 20 52 20 C52 20.66 52 21.32 52 22 C48.52334905 23.06888524 45.32862522 23.11475767 41.703125 23.09765625 C40.49785156 23.09443359 39.29257813 23.09121094 38.05078125 23.08789062 C36.79652344 23.07951172 35.54226562 23.07113281 34.25 23.0625 C32.98027344 23.05798828 31.71054687 23.05347656 30.40234375 23.04882812 C27.26818164 23.03704556 24.13411459 23.02059416 21 23 C21 22.01 21 21.02 21 20 C18.03 20 15.06 20 12 20 C12 19.01 12 18.02 12 17 C11.34 17 10.68 17 10 17 C10 16.01 10 15.02 10 14 C9.01 14 8.02 14 7 14 C7 13.01 7 12.02 7 11 C5.68 11 4.36 11 3 11 C3 10.34 3 9.68 3 9 C2.01 8.67 1.02 8.34 0 8 C-2 5 -2 5 -1.6875 2.875 C-1 1 -1 1 0 0 Z " fill="#EDAA23" transform="translate(29,73)"/>
<path d="M0 0 C1.98 0 3.96 0 6 0 C6 5.61 6 11.22 6 17 C5.01 17 4.02 17 3 17 C3 17.66 3 18.32 3 19 C3.99 19 4.98 19 6 19 C6 19.99 6 20.98 6 22 C8.64 22 11.28 22 14 22 C14 22.99 14 23.98 14 25 C14.99 25 15.98 25 17 25 C17 25.66 17 26.32 17 27 C17.66 27 18.32 27 19 27 C19 29.64 19 32.28 19 35 C18.01 35 17.02 35 16 35 C16 35.66 16 36.32 16 37 C15.34 37 14.68 37 14 37 C14 37.99 14 38.98 14 40 C13.01 40 12.02 40 11 40 C11 41.98 11 43.96 11 46 C10.01 46 9.02 46 8 46 C7.67 44.02 7.34 42.04 7 40 C6.67 40 6.34 40 6 40 C6 38.35 6 36.7 6 35 C5.01 35 4.02 35 3 35 C3 34.01 3 33.02 3 32 C0.03 32 -2.94 32 -6 32 C-6 28.7 -6 25.4 -6 22 C-5.34 22 -4.68 22 -4 22 C-4 24.64 -4 27.28 -4 30 C-3.21753906 29.98839844 -2.43507813 29.97679688 -1.62890625 29.96484375 C-0.61699219 29.95582031 0.39492188 29.94679688 1.4375 29.9375 C2.44683594 29.92589844 3.45617187 29.91429688 4.49609375 29.90234375 C7 30 7 30 8 31 C9.34747084 31.23075082 10.70377565 31.41153063 12.0625 31.5625 C13.361875 31.706875 14.66125 31.85125 16 32 C16 31.01 16 30.02 16 29 C15.34 29 14.68 29 14 29 C14 28.34 14 27.68 14 27 C13.01 27 12.02 27 11 27 C11 26.01 11 25.02 11 24 C9.02 24 7.04 24 5 24 C5 23.34 5 22.68 5 22 C2.36 22 -0.28 22 -3 22 C-3 21.01 -3 20.02 -3 19 C-2.01 19 -1.02 19 0 19 C0 17.35 0 15.7 0 14 C0.99 14 1.98 14 3 14 C3 10.37 3 6.74 3 3 C2.01 3 1.02 3 0 3 C0 2.01 0 1.02 0 0 Z " fill="#684012" transform="translate(33,87)"/>
<path d="M0 0 C1.98 0 3.96 0 6 0 C6 0.66 6 1.32 6 2 C7.32 2 8.64 2 10 2 C12 5 12 5 12 8 C12.99 8 13.98 8 15 8 C15 8.99 15 9.98 15 11 C16.65 11.66 18.3 12.32 20 13 C20 14.98 20 16.96 20 19 C20.99 19 21.98 19 23 19 C23 33.52 23 48.04 23 63 C22.01 63 21.02 63 20 63 C20 64.65 20 66.3 20 68 C19.34 68 18.68 68 18 68 C17.896875 68.70125 17.79375 69.4025 17.6875 70.125 C16.67214692 74.37102199 15.10117285 77.89882715 12 81 C11.01 81 10.02 81 9 81 C9 81.99 9 82.98 9 84 C8.01 83.67 7.02 83.34 6 83 C6.66 83 7.32 83 8 83 C8 82.01 8 81.02 8 80 C8.99 80 9.98 80 11 80 C11 79.01 11 78.02 11 77 C11.99 77 12.98 77 14 77 C14 75.35 14 73.7 14 72 C14.66 72 15.32 72 16 72 C16 70.35 16 68.7 16 67 C16.99 67 17.98 67 19 67 C19 65.35 19 63.7 19 62 C19.99 62 20.98 62 22 62 C22 48.14 22 34.28 22 20 C21.01 20 20.02 20 19 20 C19 18.35 19 16.7 19 15 C18.01 15 17.02 15 16 15 C16 14.01 16 13.02 16 12 C15.34 12 14.68 12 14 12 C14 13.65 14 15.3 14 17 C13.01 17 12.02 17 11 17 C11 15.35 11 13.7 11 12 C10.01 12.33 9.02 12.66 8 13 C6.68 13 5.36 13 4 13 C3.67 12.34 3.34 11.68 3 11 C2.01 11 1.02 11 0 11 C0 10.34 0 9.68 0 9 C-1.98 9 -3.96 9 -6 9 C-6 8.01 -6 7.02 -6 6 C-2.71303767 5.20046862 -1.28976808 4.90341064 2 6 C2 6.99 2 7.98 2 9 C2.99 9 3.98 9 5 9 C5 8.01 5 7.02 5 6 C4.34 6 3.68 6 3 6 C3 5.01 3 4.02 3 3 C2.01 3 1.02 3 0 3 C0 2.01 0 1.02 0 0 Z " fill="#DBC8A9" transform="translate(88,7)"/>
<path d="M0 0 C0.99 0.33 1.98 0.66 3 1 C2.67 1.33 2.34 1.66 2 2 C1.92794489 3.68608966 1.91613932 5.37500659 1.9375 7.0625 C1.95103516 8.44115234 1.95103516 8.44115234 1.96484375 9.84765625 C1.97644531 10.55792969 1.98804688 11.26820313 2 12 C1.34 12 0.68 12 0 12 C0 13.98 0 15.96 0 18 C-0.99 18 -1.98 18 -3 18 C-3 20.31 -3 22.62 -3 25 C-1.02 25.33 0.96 25.66 3 26 C3.08226668 22.95613276 2.97608217 20.92824652 2 18 C2.99 17.67 3.98 17.34 5 17 C5.33 17.99 5.66 18.98 6 20 C6.66 20 7.32 20 8 20 C8.33 18.35 8.66 16.7 9 15 C9.66 15 10.32 15 11 15 C11 12.36 11 9.72 11 7 C12.32 7.33 13.64 7.66 15 8 C14.01 8 13.02 8 12 8 C12 10.97 12 13.94 12 17 C11.01 17 10.02 17 9 17 C9 18.65 9 20.3 9 22 C8.34 22 7.68 22 7 22 C7 23.98 7 25.96 7 28 C6.01 28.33 5.02 28.66 4 29 C3.67 31.64 3.34 34.28 3 37 C2.01 37 1.02 37 0 37 C0 34.36 0 31.72 0 29 C-2.64 29 -5.28 29 -8 29 C-8 28.01 -8 27.02 -8 26 C-7.01 26 -6.02 26 -5 26 C-5 25.34 -5 24.68 -5 24 C-6.98 24 -8.96 24 -11 24 C-11 23.01 -11 22.02 -11 21 C-9.02 20.34 -7.04 19.68 -5 19 C-5 17.02 -5 15.04 -5 13 C-4.34 13 -3.68 13 -3 13 C-3 11.35 -3 9.7 -3 8 C-2.01 7.67 -1.02 7.34 0 7 C0 4.69 0 2.38 0 0 Z " fill="#813F20" transform="translate(24,146)"/>
<path d="M0 0 C10.56 0 21.12 0 32 0 C32 1.32 32 2.64 32 4 C33.98 4 35.96 4 38 4 C38 4.66 38 5.32 38 6 C35.69 6 33.38 6 31 6 C31 5.34 31 4.68 31 4 C21.1 4 11.2 4 1 4 C1 4.99 1 5.98 1 7 C-0.98 7 -2.96 7 -5 7 C-5 7.99 -5 8.98 -5 10 C-7.64 10 -10.28 10 -13 10 C-13 10.99 -13 11.98 -13 13 C-13.99 13 -14.98 13 -16 13 C-16 13.99 -16 14.98 -16 16 C-16.99 16 -17.98 16 -19 16 C-19 15.01 -19 14.02 -19 13 C-18.34 13 -17.68 13 -17 13 C-17 11.68 -17 10.36 -17 9 C-15.9375 7.25 -15.9375 7.25 -14 6 C-10.3125 5.8125 -10.3125 5.8125 -7 6 C-6.67 5.01 -6.34 4.02 -6 3 C-4.02 3 -2.04 3 0 3 C0 2.01 0 1.02 0 0 Z " fill="#B3A99C" transform="translate(49,0)"/>
<path d="M0 0 C2.97 0 5.94 0 9 0 C9.33 1.98 9.66 3.96 10 6 C9.01 6 8.02 6 7 6 C7 6.66 7 7.32 7 8 C3.53846154 11 3.53846154 11 1 11 C1 11.99 1 12.98 1 14 C-0.32 14 -1.64 14 -3 14 C-3 14.66 -3 15.32 -3 16 C-3.66 16 -4.32 16 -5 16 C-5 16.99 -5 17.98 -5 19 C-7 20.6875 -7 20.6875 -9 22 C-9 21.34 -9 20.68 -9 20 C-9.99 20 -10.98 20 -12 20 C-12 17.36 -12 14.72 -12 12 C-11.01 11.67 -10.02 11.34 -9 11 C-8.67 9.35 -8.34 7.7 -8 6 C-6.35 6 -4.7 6 -3 6 C-3 5.01 -3 4.02 -3 3 C-2.01 3 -1.02 3 0 3 C0 2.01 0 1.02 0 0 Z " fill="#F7FCFC" transform="translate(53,24)"/>
<path d="M0 0 C1.32 0 2.64 0 4 0 C4 3.63 4 7.26 4 11 C3.01 11 2.02 11 1 11 C1 12.65 1 14.3 1 16 C0.01 16 -0.98 16 -2 16 C-2 16.99 -2 17.98 -2 19 C0.64 19 3.28 19 6 19 C6 19.66 6 20.32 6 21 C7.98 21 9.96 21 12 21 C12 21.99 12 22.98 12 24 C12.99 24 13.98 24 15 24 C15 24.66 15 25.32 15 26 C15.66 26 16.32 26 17 26 C17 26.99 17 27.98 17 29 C10.84765625 29.09765625 10.84765625 29.09765625 9 29 C8.67 28.67 8.34 28.34 8 28 C6.15108054 27.76636119 4.29511969 27.58696365 2.4375 27.4375 C1.42558594 27.35371094 0.41367187 27.26992187 -0.62890625 27.18359375 C-1.80259766 27.09271484 -1.80259766 27.09271484 -3 27 C-3 24.36 -3 21.72 -3 19 C-3.66 19 -4.32 19 -5 19 C-5 22.3 -5 25.6 -5 29 C-5.99 29 -6.98 29 -8 29 C-8 31.64 -8 34.28 -8 37 C-8.66 37 -9.32 37 -10 37 C-9.505 32.545 -9.505 32.545 -9 28 C-8.01 28 -7.02 28 -6 28 C-6 24.7 -6 21.4 -6 18 C-5.01 18 -4.02 18 -3 18 C-3 17.01 -3 16.02 -3 15 C-2.01 15 -1.02 15 0 15 C0 13.35 0 11.7 0 10 C0.66 10 1.32 10 2 10 C2.04125 8.72125 2.0825 7.4425 2.125 6.125 C2.15980469 5.04605469 2.15980469 5.04605469 2.1953125 3.9453125 C2.18331689 1.76136355 2.18331689 1.76136355 0 0 Z " fill="#BCA482" transform="translate(32,90)"/>
<path d="M0 0 C0.99 0 1.98 0 3 0 C3 0.66 3 1.32 3 2 C4.32 2 5.64 2 7 2 C7 2.66 7 3.32 7 4 C8.65 4.33 10.3 4.66 12 5 C12 5.66 12 6.32 12 7 C11.34 7 10.68 7 10 7 C10 9.97 10 12.94 10 16 C10.99 16 11.98 16 13 16 C13 13.03 13 10.06 13 7 C13.99 7 14.98 7 16 7 C16 6.34 16 5.68 16 5 C22.6 5 29.2 5 36 5 C36 5.33 36 5.66 36 6 C29.73 6 23.46 6 17 6 C15.04783565 9.90432869 14.49360009 12.72213252 14 17 C12.35 17.33 10.7 17.66 9 18 C9 17.34 9 16.68 9 16 C8.01 16 7.02 16 6 16 C6 15.01 6 14.02 6 13 C3.36 13 0.72 13 -2 13 C-2 12.01 -2 11.02 -2 10 C-2.99 10 -3.98 10 -5 10 C-5 9.34 -5 8.68 -5 8 C-4.01 8 -3.02 8 -2 8 C-2 6.02 -2 4.04 -2 2 C-1.34 2 -0.68 2 0 2 C0 1.34 0 0.68 0 0 Z " fill="#C6A87E" transform="translate(41,96)"/>
<path d="M0 0 C0.99 0 1.98 0 3 0 C3 0.99 3 1.98 3 3 C5.31 3 7.62 3 10 3 C10 4.65 10 6.3 10 8 C16.27 8 22.54 8 29 8 C29 7.34 29 6.68 29 6 C31.31 6 33.62 6 36 6 C36 6.66 36 7.32 36 8 C35.01 8 34.02 8 33 8 C33 8.99 33 9.98 33 11 C29.79217914 11.95376567 26.91812604 12.11621181 23.578125 12.09765625 C22.55332031 12.09443359 21.52851562 12.09121094 20.47265625 12.08789062 C19.40917969 12.07951172 18.34570312 12.07113281 17.25 12.0625 C16.17105469 12.05798828 15.09210937 12.05347656 13.98046875 12.04882812 C11.32025617 12.03705727 8.66015635 12.02061399 6 12 C6 10.68 6 9.36 6 8 C4.02 8 2.04 8 0 8 C0 7.34 0 6.68 0 6 C-0.99 6 -1.98 6 -3 6 C-3 5.01 -3 4.02 -3 3 C-2.01 3 -1.02 3 0 3 C0 2.01 0 1.02 0 0 Z " fill="#95590F" transform="translate(44,79)"/>
<path d="M0 0 C1.98 0 3.96 0 6 0 C6 0.99 6 1.98 6 3 C6.99 3 7.98 3 9 3 C9 3.99 9 4.98 9 6 C9.99 6 10.98 6 12 6 C12 6.99 12 7.98 12 9 C12.99 9 13.98 9 15 9 C15 11.31 15 13.62 15 16 C15.66 16 16.32 16 17 16 C17 24.58 17 33.16 17 42 C16.34 42 15.68 42 15 42 C15 43.98 15 45.96 15 48 C14.01 48 13.02 48 12 48 C12 46.02 12 44.04 12 42 C12.66 42 13.32 42 14 42 C14 33.75 14 25.5 14 17 C13.34 17 12.68 17 12 17 C12 15.02 12 13.04 12 11 C11.01 11 10.02 11 9 11 C9 10.34 9 9.68 9 9 C8.01 9 7.02 9 6 9 C6 8.01 6 7.02 6 6 C5.01 6 4.02 6 3 6 C3 5.01 3 4.02 3 3 C2.01 3 1.02 3 0 3 C0 2.01 0 1.02 0 0 Z " fill="#8EA7AE" transform="translate(76,21)"/>
<path d="M0 0 C0.66 0 1.32 0 2 0 C2.23752275 5.10673922 1.87634598 8.90715256 -1.625 12.8125 C-2.07875 13.204375 -2.5325 13.59625 -3 14 C-2.34 14 -1.68 14 -1 14 C-1 14.66 -1 15.32 -1 16 C-1.66 16 -2.32 16 -3 16 C-3 16.99 -3 17.98 -3 19 C-3.99 19 -4.98 19 -6 19 C-6 19.66 -6 20.32 -6 21 C-7.32 21 -8.64 21 -10 21 C-10.33 21.99 -10.66 22.98 -11 24 C-11 23.34 -11 22.68 -11 22 C-13.31 22 -15.62 22 -18 22 C-18 22.66 -18 23.32 -18 24 C-24.27 24 -30.54 24 -37 24 C-37 23.01 -37 22.02 -37 21 C-30.73 21 -24.46 21 -18 21 C-18 20.01 -18 19.02 -18 18 C-16.02 18 -14.04 18 -12 18 C-12 17.34 -12 16.68 -12 16 C-11.01 16 -10.02 16 -9 16 C-9 15.34 -9 14.68 -9 14 C-8.01 14 -7.02 14 -6 14 C-6 13.01 -6 12.02 -6 11 C-5.01 11 -4.02 11 -3 11 C-3 9.35 -3 7.7 -3 6 C-2.01 6 -1.02 6 0 6 C0 4.02 0 2.04 0 0 Z " fill="#6A4E29" transform="translate(91,63)"/>
<path d="M0 0 C0.33 0 0.66 0 1 0 C1 2.97 1 5.94 1 9 C0.01 9 -0.98 9 -2 9 C-2 9.99 -2 10.98 -2 12 C-2.66 12 -3.32 12 -4 12 C-4 12.99 -4 13.98 -4 15 C-4.99 15.495 -4.99 15.495 -6 16 C-6.65555119 18.52733235 -6.65555119 18.52733235 -7 21 C-7.99 21 -8.98 21 -10 21 C-10 24.3 -10 27.6 -10 31 C-10.33 31 -10.66 31 -11 31 C-11.04898438 30.21753906 -11.09796875 29.43507812 -11.1484375 28.62890625 C-11.22320312 27.61699219 -11.29796875 26.60507813 -11.375 25.5625 C-11.44460937 24.55316406 -11.51421875 23.54382813 -11.5859375 22.50390625 C-11.72257812 21.67761719 -11.85921875 20.85132813 -12 20 C-12.66 19.67 -13.32 19.34 -14 19 C-14 18.34 -14 17.68 -14 17 C-14.66 17 -15.32 17 -16 17 C-16 19.64 -16 22.28 -16 25 C-16.99 25 -17.98 25 -19 25 C-19 26.65 -19 28.3 -19 30 C-19.99 30 -20.98 30 -22 30 C-22 31.65 -22 33.3 -22 35 C-22.99 35 -23.98 35 -25 35 C-25 38.3 -25 41.6 -25 45 C-25.99 44.67 -26.98 44.34 -28 44 C-27.34 44 -26.68 44 -26 44 C-26.33 40.37 -26.66 36.74 -27 33 C-26.34 33 -25.68 33 -25 33 C-25 31.02 -25 29.04 -25 27 C-24.01 27 -23.02 27 -22 27 C-22 24.36 -22 21.72 -22 19 C-21.01 19 -20.02 19 -19 19 C-19 17.35 -19 15.7 -19 14 C-17 14.66666667 -15 15.33333333 -13 16 C-12.67 14.02 -12.34 12.04 -12 10 C-11.67 10 -11.34 10 -11 10 C-11 12.97 -11 15.94 -11 19 C-10.01 19 -9.02 19 -8 19 C-8 17.02 -8 15.04 -8 13 C-7.01 13 -6.02 13 -5 13 C-5 12.01 -5 11.02 -5 10 C-4.34 10 -3.68 10 -3 10 C-3 9.34 -3 8.68 -3 8 C-2.01 8 -1.02 8 0 8 C0 5.36 0 2.72 0 0 Z " fill="#803D1E" transform="translate(52,114)"/>
<path d="M0 0 C3.96 0 7.92 0 12 0 C12 0.99 12 1.98 12 3 C12.99 3 13.98 3 15 3 C15 5.64 15 8.28 15 11 C12.83125748 10.49396008 11.00032373 10.00016187 9 9 C9 7.02 9 5.04 9 3 C7.68 3 6.36 3 5 3 C5 5.64 5 8.28 5 11 C4.34 11 3.68 11 3 11 C3 13.64 3 16.28 3 19 C2.01 19 1.02 19 0 19 C0 20.98 0 22.96 0 25 C-0.99 24.67 -1.98 24.34 -3 24 C-2.34 24 -1.68 24 -1 24 C-1.57021934 18.6496441 -2.20734361 13.32212148 -3 8 C-2.01 8 -1.02 8 0 8 C0 5.36 0 2.72 0 0 Z " fill="#593120" transform="translate(24,119)"/>
<path d="M0 0 C0.99 0 1.98 0 3 0 C3 3.63 3 7.26 3 11 C2.01 11 1.02 11 0 11 C0 12.65 0 14.3 0 16 C-0.66 16 -1.32 16 -2 16 C-2 17.65 -2 19.3 -2 21 C-2.99 21 -3.98 21 -5 21 C-5 21.99 -5 22.98 -5 24 C-5.99 24 -6.98 24 -8 24 C-8 24.99 -8 25.98 -8 27 C-8.66 27 -9.32 27 -10 27 C-10 27.99 -10 28.98 -10 30 C-11.98 30 -13.96 30 -16 30 C-16 28.02 -16 26.04 -16 24 C-15.01 24 -14.02 24 -13 24 C-13 23.34 -13 22.68 -13 22 C-12.34 22 -11.68 22 -11 22 C-11 21.01 -11 20.02 -11 19 C-10.01 19 -9.02 19 -8 19 C-8 17.35 -8 15.7 -8 14 C-7.01 14 -6.02 14 -5 14 C-5 13.01 -5 12.02 -5 11 C-4.01 11 -3.02 11 -2 11 C-2 9.35 -2 7.7 -2 6 C-1.34 6 -0.68 6 0 6 C0 4.02 0 2.04 0 0 Z " fill="#613A0E" transform="translate(104,63)"/>
<path d="M0 0 C2.31 0 4.62 0 7 0 C7.33 0.99 7.66 1.98 8 3 C9.65 3 11.3 3 13 3 C13 3.33 13 3.66 13 4 C11.02 4 9.04 4 7 4 C7 4.99 7 5.98 7 7 C7.99 7 8.98 7 10 7 C10 7.99 10 8.98 10 10 C10.66 10 11.32 10 12 10 C12 10.99 12 11.98 12 13 C11.01 13 10.02 13 9 13 C9 12.01 9 11.02 9 10 C4.38 10 -0.24 10 -5 10 C-5 9.01 -5 8.02 -5 7 C-8.96 7 -12.92 7 -17 7 C-17 5.68 -17 4.36 -17 3 C-13.04 3 -9.08 3 -5 3 C-5 2.34 -5 1.68 -5 1 C-3.68 1 -2.36 1 -1 1 C-1 1.66 -1 2.32 -1 3 C1.31 3 3.62 3 6 3 C6 2.34 6 1.68 6 1 C4.02 1 2.04 1 0 1 C0 0.67 0 0.34 0 0 Z " fill="#EABA3E" transform="translate(81,3)"/>
<path d="M0 0 C0.66 0 1.32 0 2 0 C2 0.66 2 1.32 2 2 C2.99 2 3.98 2 5 2 C5 7.61 5 13.22 5 19 C4.01 19 3.02 19 2 19 C2 21.97 2 24.94 2 28 C1.01 28 0.02 28 -1 28 C-1 29.98 -1 31.96 -1 34 C-1.66 34 -2.32 34 -3 34 C-3 35.65 -3 37.3 -3 39 C-3.99 39 -4.98 39 -6 39 C-6.33 39.66 -6.66 40.32 -7 41 C-7 40.34 -7 39.68 -7 39 C-7.66 39 -8.32 39 -9 39 C-8.67 38.01 -8.34 37.02 -8 36 C-7.34 36 -6.68 36 -6 36 C-5.24758891 32.34543185 -4.59950296 28.68266103 -4 25 C-2.68 25 -1.36 25 0 25 C0 16.75 0 8.5 0 0 Z " fill="#A56823" transform="translate(97,38)"/>
<path d="M0 0 C0.33 0 0.66 0 1 0 C1 3.3 1 6.6 1 10 C0.01 10 -0.98 10 -2 10 C-2 14.95 -2 19.9 -2 25 C-1.01 25 -0.02 25 1 25 C1 28.63 1 32.26 1 36 C1.66 36 2.32 36 3 36 C2.67 37.32 2.34 38.64 2 40 C0.68 39.67 -0.64 39.34 -2 39 C-2 38.01 -2 37.02 -2 36 C-2.99 36 -3.98 36 -5 36 C-5 34.02 -5 32.04 -5 30 C-5.66 30 -6.32 30 -7 30 C-7 27.36 -7 24.72 -7 22 C-6.34 22 -5.68 22 -5 22 C-4.67 16.72 -4.34 11.44 -4 6 C-2.68 6 -1.36 6 0 6 C0 4.02 0 2.04 0 0 Z " fill="#E8A725" transform="translate(26,33)"/>
<path d="M0 0 C0 1.98 0 3.96 0 6 C0.99 6 1.98 6 3 6 C3 7.65 3 9.3 3 11 C2.34 11 1.68 11 1 11 C1 19.25 1 27.5 1 36 C-0.32 36 -1.64 36 -3 36 C-3 27.42 -3 18.84 -3 10 C-3.66 10 -4.32 10 -5 10 C-5.3669579 3.51707705 -5.3669579 3.51707705 -3.625 1.0625 C-2 0 -2 0 0 0 Z " fill="#574737" transform="translate(96,27)"/>
<path d="M0 0 C0.99 0 1.98 0 3 0 C3 8.25 3 16.5 3 25 C3.99 25 4.98 25 6 25 C6 26.98 6 28.96 6 31 C6.99 31 7.98 31 9 31 C9 32.65 9 34.3 9 36 C9.66 36 10.32 36 11 36 C11 36.99 11 37.98 11 39 C11.99 39 12.98 39 14 39 C14 39.66 14 40.32 14 41 C12.35 41.66 10.7 42.32 9 43 C8.67 40.69 8.34 38.38 8 36 C6.68 36 5.36 36 4 36 C3.67 35.34 3.34 34.68 3 34 C2.01 33.67 1.02 33.34 0 33 C0 32.34 0 31.68 0 31 C0.66 31 1.32 31 2 31 C2 29.02 2 27.04 2 25 C1.34 25 0.68 25 0 25 C0 16.75 0 8.5 0 0 Z " fill="#4D3420" transform="translate(30,38)"/>
<path d="M0 0 C0.99 0 1.98 0 3 0 C3 9.9 3 19.8 3 30 C3.66 30 4.32 30 5 30 C5 31.98 5 33.96 5 36 C5.99 36 6.98 36 8 36 C8 38.64 8 41.28 8 44 C6.68 43.67 5.36 43.34 4 43 C4.33 41.68 4.66 40.36 5 39 C4.34 39 3.68 39 3 39 C3 38.01 3 37.02 3 36 C2.01 36 1.02 36 0 36 C0 24.12 0 12.24 0 0 Z " fill="#413222" transform="translate(16,33)"/>
<path d="M0 0 C8.25 0 16.5 0 25 0 C25 0.99 25 1.98 25 3 C26.98 3 28.96 3 31 3 C31 4.65 31 6.3 31 8 C29.35 8 27.7 8 26 8 C26 7.01 26 6.02 26 5 C18.08 5 10.16 5 2 5 C2 4.34 2 3.68 2 3 C1.34 3 0.68 3 0 3 C0 2.01 0 1.02 0 0 Z " fill="#A4661E" transform="translate(51,10)"/>
<path d="M0 0 C2.31 0.33 4.62 0.66 7 1 C7 2.65 7 4.3 7 6 C7.99 6 8.98 6 10 6 C10.33 7.65 10.66 9.3 11 11 C11.33 11 11.66 11 12 11 C12 12.98 12 14.96 12 17 C12.99 17 13.98 17 15 17 C15 18.65 15 20.3 15 22 C11.71303767 22.79953138 10.28976808 23.09658936 7 22 C7 19.69 7 17.38 7 15 C6.01 15 5.02 15 4 15 C4 12.03 4 9.06 4 6 C3.34 6 2.68 6 2 6 C2 5.01 2 4.02 2 3 C1.01 2.67 0.02 2.34 -1 2 C-0.67 1.34 -0.34 0.68 0 0 Z " fill="#EBA626" transform="translate(92,18)"/>
<path d="M0 0 C0 7.59 0 15.18 0 23 C-0.99 23 -1.98 23 -3 23 C-3 24.98 -3 26.96 -3 29 C-3.66 29 -4.32 29 -5 29 C-5 27.02 -5 25.04 -5 23 C-5.99 23 -6.98 23 -8 23 C-8 21.02 -8 19.04 -8 17 C-7.01 17 -6.02 17 -5 17 C-5 11.72 -5 6.44 -5 1 C-1 0 -1 0 0 0 Z " fill="#F8CE67" transform="translate(107,40)"/>
<path d="M0 0 C0.99 0.33 1.98 0.66 3 1 C2.34 1 1.68 1 1 1 C1 2.98 1 4.96 1 7 C0.01 7 -0.98 7 -2 7 C-2 8.65 -2 10.3 -2 12 C-2.99 12 -3.98 12 -5 12 C-5 14.64 -5 17.28 -5 20 C-8.96 20.495 -8.96 20.495 -13 21 C-13 32.88 -13 44.76 -13 57 C-12.01 57 -11.02 57 -10 57 C-10 57.99 -10 58.98 -10 60 C-9.34 60.33 -8.68 60.66 -8 61 C-8.99 61 -9.98 61 -11 61 C-11 60.01 -11 59.02 -11 58 C-11.99 58 -12.98 58 -14 58 C-14 45.46 -14 32.92 -14 20 C-13.01 20 -12.02 20 -11 20 C-11 18.02 -11 16.04 -11 14 C-10.01 14 -9.02 14 -8 14 C-7.855625 13.4225 -7.71125 12.845 -7.5625 12.25 C-7.376875 11.5075 -7.19125 10.765 -7 10 C-6.87625 9.319375 -6.7525 8.63875 -6.625 7.9375 C-5.86123548 5.56982997 -4.96403581 4.51079678 -3 3 C-2.01 3 -1.02 3 0 3 C0 2.01 0 1.02 0 0 Z " fill="#CAC2B4" transform="translate(29,12)"/>
<path d="M0 0 C0.66 0 1.32 0 2 0 C2 0.99 2 1.98 2 3 C2.99 3 3.98 3 5 3 C5 3.66 5 4.32 5 5 C5.99 5 6.98 5 8 5 C8 5.99 8 6.98 8 8 C8.99 8 9.98 8 11 8 C11 8.66 11 9.32 11 10 C13.31 10 15.62 10 18 10 C18 10.66 18 11.32 18 12 C23.28 12 28.56 12 34 12 C34 12.99 34 13.98 34 15 C27.73 15 21.46 15 15 15 C15 14.34 15 13.68 15 13 C12.69 13 10.38 13 8 13 C8 12.01 8 11.02 8 10 C7.01 10 6.02 10 5 10 C5 9.34 5 8.68 5 8 C4.01 8 3.02 8 2 8 C2 7.01 2 6.02 2 5 C1.34 5 0.68 5 0 5 C0 3.35 0 1.7 0 0 Z " fill="#89A2A5" transform="translate(39,69)"/>
<path d="M0 0 C0.66 0 1.32 0 2 0 C2 2.64 2 5.28 2 8 C2.74765625 7.97679688 3.4953125 7.95359375 4.265625 7.9296875 C5.25046875 7.91164063 6.2353125 7.89359375 7.25 7.875 C8.22453125 7.85179688 9.1990625 7.82859375 10.203125 7.8046875 C13.0196498 8.00137219 14.60949036 8.55431084 17 10 C17 10.99 17 11.98 17 13 C18.65 13 20.3 13 22 13 C22 13.66 22 14.32 22 15 C21.34 15 20.68 15 20 15 C20 15.99 20 16.98 20 18 C19.01 18 18.02 18 17 18 C17 19.98 17 21.96 17 24 C16.01 24 15.02 24 14 24 C13.67 22.02 13.34 20.04 13 18 C12.67 18 12.34 18 12 18 C12 16.35 12 14.7 12 13 C11.01 13 10.02 13 9 13 C9 12.01 9 11.02 9 10 C6.03 10 3.06 10 0 10 C0 6.7 0 3.4 0 0 Z " fill="#48281C" transform="translate(27,109)"/>
<path d="M0 0 C8.58 0 17.16 0 26 0 C26 0.66 26 1.32 26 2 C22.04 2 18.08 2 14 2 C14 3.32 14 4.64 14 6 C7.4 6 0.8 6 -6 6 C-6 5.01 -6 4.02 -6 3 C-4.02 3 -2.04 3 0 3 C0 2.01 0 1.02 0 0 Z " fill="#F9E68A" transform="translate(50,4)"/>
<path d="M0 0 C1.32 0.33 2.64 0.66 4 1 C3.01 1 2.02 1 1 1 C1 3.97 1 6.94 1 10 C0.01 10 -0.98 10 -2 10 C-2 11.65 -2 13.3 -2 15 C-2.66 15 -3.32 15 -4 15 C-4 16.98 -4 18.96 -4 21 C-4.99 21.33 -5.98 21.66 -7 22 C-7.33 24.64 -7.66 27.28 -8 30 C-8.99 30 -9.98 30 -11 30 C-11 27.36 -11 24.72 -11 22 C-12.65 22 -14.3 22 -16 22 C-16 21.34 -16 20.68 -16 20 C-13.29120665 18.64560332 -10.99066732 18.93498549 -8 19 C-7.91773332 15.95613276 -8.02391783 13.92824652 -9 11 C-8.01 10.67 -7.02 10.34 -6 10 C-5.67 10.99 -5.34 11.98 -5 13 C-4.34 13 -3.68 13 -3 13 C-2.67 11.35 -2.34 9.7 -2 8 C-1.34 8 -0.68 8 0 8 C0 5.36 0 2.72 0 0 Z " fill="#8D807F" transform="translate(35,153)"/>
<path d="M0 0 C0.99 0 1.98 0 3 0 C3.10251672 5.12583611 3.03590199 9.94997778 2 15 C0.68 15 -0.64 15 -2 15 C-1.98839844 15.81984375 -1.97679687 16.6396875 -1.96484375 17.484375 C-1.95130859 19.10085937 -1.95130859 19.10085937 -1.9375 20.75 C-1.92589844 21.81734375 -1.91429687 22.8846875 -1.90234375 23.984375 C-1.98489913 26.53368501 -2.25382442 28.57933591 -3 31 C-3.66 31 -4.32 31 -5 31 C-5 23.74 -5 16.48 -5 9 C-3.35 8.67 -1.7 8.34 0 8 C0 5.36 0 2.72 0 0 Z " fill="#E8C14F" transform="translate(24,24)"/>
<path d="M0 0 C10.23 0 20.46 0 31 0 C31 0.99 31 1.98 31 3 C32.98 3 34.96 3 37 3 C37 3.66 37 4.32 37 5 C34.69 5 32.38 5 30 5 C30 4.34 30 3.68 30 3 C20.1 3 10.2 3 0 3 C0 2.01 0 1.02 0 0 Z " fill="#453419" transform="translate(50,1)"/>
<path d="M0 0 C0.99 0 1.98 0 3 0 C3 3.63 3 7.26 3 11 C2.01 11 1.02 11 0 11 C0 11.99 0 12.98 0 14 C-1.32 14 -2.64 14 -4 14 C-4 14.66 -4 15.32 -4 16 C-4.66 16 -5.32 16 -6 16 C-6 16.66 -6 17.32 -6 18 C-7.65 18.33 -9.3 18.66 -11 19 C-11 18.01 -11 17.02 -11 16 C-10.01 16 -9.02 16 -8 16 C-8 15.34 -8 14.68 -8 14 C-7.01 14 -6.02 14 -5 14 C-5 12.35 -5 10.7 -5 9 C-4.34 9 -3.68 9 -3 9 C-3 7.02 -3 5.04 -3 3 C-2.01 3 -1.02 3 0 3 C0 2.01 0 1.02 0 0 Z " fill="#EAB33F" transform="translate(99,63)"/>
<path d="M0 0 C1.32 0 2.64 0 4 0 C4 0.66 4 1.32 4 2 C6.31 2 8.62 2 11 2 C11 1.34 11 0.68 11 0 C18.92 0 26.84 0 35 0 C35 0.66 35 1.32 35 2 C27.41 2 19.82 2 12 2 C12 2.99 12 3.98 12 5 C9.36 5 6.72 5 4 5 C4 5.99 4 6.98 4 8 C2.68 8 1.36 8 0 8 C0 7.01 0 6.02 0 5 C0.99 5 1.98 5 3 5 C3 4.01 3 3.02 3 2 C2.01 2 1.02 2 0 2 C0 1.34 0 0.68 0 0 Z " fill="#36241B" transform="translate(41,16)"/>
<path d="M0 0 C0.99 0.33 1.98 0.66 3 1 C3 3.97 3 6.94 3 10 C0.50907189 11.24546405 -0.41080733 10.7767578 -3 10 C-3 10.99 -3 11.98 -3 13 C-4.98 13 -6.96 13 -9 13 C-9 11.35 -9 9.7 -9 8 C-8.01 8 -7.02 8 -6 8 C-6 7.01 -6 6.02 -6 5 C-5.01 5 -4.02 5 -3 5 C-3 4.01 -3 3.02 -3 2 C-2.01 2 -1.02 2 0 2 C0 1.34 0 0.68 0 0 Z " fill="#F2F9FA" transform="translate(82,64)"/>
<path d="M0 0 C2.31 0 4.62 0 7 0 C7.33 0.99 7.66 1.98 8 3 C9.65 3 11.3 3 13 3 C13 3.33 13 3.66 13 4 C11.02 4 9.04 4 7 4 C7 4.99 7 5.98 7 7 C7.99 7 8.98 7 10 7 C10 7.99 10 8.98 10 10 C10.66 10 11.32 10 12 10 C12 10.99 12 11.98 12 13 C11.01 13 10.02 13 9 13 C9 12.01 9 11.02 9 10 C4.38 10 -0.24 10 -5 10 C-5 9.01 -5 8.02 -5 7 C-2.03 7 0.94 7 4 7 C4 6.01 4 5.02 4 4 C2.35 4 0.7 4 -1 4 C-1 3.67 -1 3.34 -1 3 C1.31 3 3.62 3 6 3 C6 2.34 6 1.68 6 1 C4.02 1 2.04 1 0 1 C0 0.67 0 0.34 0 0 Z " fill="#E6B445" transform="translate(81,3)"/>
<path d="M0 0 C0.94101562 0.00322266 1.88203125 0.00644531 2.8515625 0.00976562 C3.83640625 0.01814453 4.82125 0.02652344 5.8359375 0.03515625 C6.82851562 0.03966797 7.82109375 0.04417969 8.84375 0.04882812 C11.2995391 0.0606348 13.75520854 0.07710225 16.2109375 0.09765625 C16.2109375 0.75765625 16.2109375 1.41765625 16.2109375 2.09765625 C9.9409375 2.09765625 3.6709375 2.09765625 -2.7890625 2.09765625 C-2.7890625 3.08765625 -2.7890625 4.07765625 -2.7890625 5.09765625 C-3.7790625 5.09765625 -4.7690625 5.09765625 -5.7890625 5.09765625 C-5.7890625 8.06765625 -5.7890625 11.03765625 -5.7890625 14.09765625 C-6.7790625 14.09765625 -7.7690625 14.09765625 -8.7890625 14.09765625 C-8.7890625 11.12765625 -8.7890625 8.15765625 -8.7890625 5.09765625 C-8.1290625 5.09765625 -7.4690625 5.09765625 -6.7890625 5.09765625 C-6.7890625 3.77765625 -6.7890625 2.45765625 -6.7890625 1.09765625 C-4.33631109 -0.12871945 -2.7384844 -0.01649689 0 0 Z " fill="#44260F" transform="translate(59.7890625,97.90234375)"/>
<path d="M0 0 C0.33 0 0.66 0 1 0 C1 1.98 1 3.96 1 6 C0.34 6 -0.32 6 -1 6 C-1 8.64 -1 11.28 -1 14 C-1.99 14 -2.98 14 -4 14 C-4 15.98 -4 17.96 -4 20 C-4.66 20 -5.32 20 -6 20 C-6 21.98 -6 23.96 -6 26 C-5.34 26.33 -4.68 26.66 -4 27 C-4.66 27 -5.32 27 -6 27 C-6.33 27.66 -6.66 28.32 -7 29 C-7 28.34 -7 27.68 -7 27 C-7.66 27 -8.32 27 -9 27 C-9 29.31 -9 31.62 -9 34 C-10.485 34.495 -10.485 34.495 -12 35 C-12 36.65 -12 38.3 -12 40 C-12.99 40 -13.98 40 -15 40 C-15 40.99 -15 41.98 -15 43 C-15.99 42.67 -16.98 42.34 -18 42 C-17.34 42 -16.68 42 -16 42 C-16 41.01 -16 40.02 -16 39 C-15.01 39 -14.02 39 -13 39 C-13.020625 38.195625 -13.04125 37.39125 -13.0625 36.5625 C-13 34 -13 34 -12 33 C-11.63239269 30.67182036 -11.29758419 28.3381615 -11 26 C-10.01 26 -9.02 26 -8 26 C-8 23.69 -8 21.38 -8 19 C-7.01 19 -6.02 19 -5 19 C-5 17.02 -5 15.04 -5 13 C-4.34 13 -3.68 13 -3 13 C-2.67 10.36 -2.34 7.72 -2 5 C-1.34 5 -0.68 5 0 5 C0 3.35 0 1.7 0 0 Z " fill="#C8C1BE" transform="translate(20,127)"/>
<path d="M0 0 C0.99 0 1.98 0 3 0 C3 0.66 3 1.32 3 2 C3.99 2 4.98 2 6 2 C6 5.3 6 8.6 6 12 C5.01 12 4.02 12 3 12 C3 11.34 3 10.68 3 10 C0.36 10 -2.28 10 -5 10 C-5 9.34 -5 8.68 -5 8 C-4.01 8 -3.02 8 -2 8 C-2 6.02 -2 4.04 -2 2 C-1.34 2 -0.68 2 0 2 C0 1.34 0 0.68 0 0 Z " fill="#E8B434" transform="translate(41,96)"/>
<path d="M0 0 C0.99 0 1.98 0 3 0 C3 0.99 3 1.98 3 3 C3.99 3 4.98 3 6 3 C6 3.99 6 4.98 6 6 C6.66 6 7.32 6 8 6 C8 6.99 8 7.98 8 9 C7.34 9 6.68 9 6 9 C5.67 9.99 5.34 10.98 5 12 C3.35 12 1.7 12 0 12 C0 11.01 0 10.02 0 9 C-0.99 9 -1.98 9 -3 9 C-3 7.02 -3 5.04 -3 3 C-1.35 3 0.3 3 2 3 C2 2.34 2 1.68 2 1 C1.34 0.67 0.68 0.34 0 0 Z " fill="#AE6816" transform="translate(88,18)"/>
<path d="M0 0 C0.66 0 1.32 0 2 0 C3.35439668 2.70879335 3.06501451 5.00933268 3 8 C2.01 8 1.02 8 0 8 C0 9.65 0 11.3 0 13 C0.66 13 1.32 13 2 13 C2 13.99 2 14.98 2 16 C3.98 16 5.96 16 8 16 C8 16.66 8 17.32 8 18 C5.36 18 2.72 18 0 18 C0 17.34 0 16.68 0 16 C-1.98 16 -3.96 16 -6 16 C-6 15.01 -6 14.02 -6 13 C-5.01 13 -4.02 13 -3 13 C-3 11.35 -3 9.7 -3 8 C-2.34 7.67 -1.68 7.34 -1 7 C-0.59270772 4.67843403 -0.25561323 2.3431213 0 0 Z " fill="#3C2114" transform="translate(11,154)"/>
<path d="M0 0 C2.6875 -0.3125 2.6875 -0.3125 6 0 C8.875 2.375 8.875 2.375 11 5 C11 5.66 11 6.32 11 7 C12.32 7 13.64 7 15 7 C15 7.99 15 8.98 15 10 C14.01 10 13.02 10 12 10 C11.67 10.99 11.34 11.98 11 13 C11 12.34 11 11.68 11 11 C9.68 11 8.36 11 7 11 C7 10.01 7 9.02 7 8 C6.34 8 5.68 8 5 8 C5 7.34 5 6.68 5 6 C4.01 5.67 3.02 5.34 2 5 C2 3.68 2 2.36 2 1 C1.34 0.67 0.68 0.34 0 0 Z " fill="#917252" transform="translate(21,77)"/>
<path d="M0 0 C0.99 0 1.98 0 3 0 C3 8.25 3 16.5 3 25 C2.01 25 1.02 25 0 25 C0 16.75 0 8.5 0 0 Z " fill="#94B2B8" transform="translate(33,38)"/>
<path d="M0 0 C0.33 0.66 0.66 1.32 1 2 C3.02463255 2.65213292 3.02463255 2.65213292 5 3 C5 3.66 5 4.32 5 5 C6.32 5 7.64 5 9 5 C9.66 6.98 10.32 8.96 11 11 C12.32 10.67 13.64 10.34 15 10 C15 10.99 15 11.98 15 13 C13.02 13 11.04 13 9 13 C9 12.01 9 11.02 9 10 C8.01 10 7.02 10 6 10 C6 9.34 6 8.68 6 8 C5.01 8 4.02 8 3 8 C3 7.01 3 6.02 3 5 C1.02463255 5.34786708 1.02463255 5.34786708 -1 6 C-1.33 6.66 -1.66 7.32 -2 8 C-2.99 8 -3.98 8 -5 8 C-5 6.35 -5 4.7 -5 3 C-3.68 3 -2.36 3 -1 3 C-0.67 2.01 -0.34 1.02 0 0 Z " fill="#A56616" transform="translate(29,69)"/>
<path d="M0 0 C0.99 0 1.98 0 3 0 C3 1.65 3 3.3 3 5 C2.01 5 1.02 5 0 5 C0 5.99 0 6.98 0 8 C-0.99 8 -1.98 8 -3 8 C-3 8.99 -3 9.98 -3 11 C-3.66 11 -4.32 11 -5 11 C-5 11.99 -5 12.98 -5 14 C-6.98 14 -8.96 14 -11 14 C-11 12.35 -11 10.7 -11 9 C-9.68 9 -8.36 9 -7 9 C-7 8.34 -7 7.68 -7 7 C-5.07335866 5.39446555 -3.24366996 4.12183498 -1 3 C-0.67 2.01 -0.34 1.02 0 0 Z " fill="#5E3712" transform="translate(99,79)"/>
<path d="M0 0 C0.33 0 0.66 0 1 0 C1.33 2.64 1.66 5.28 2 8 C1.01 8 0.02 8 -1 8 C-1 9.98 -1 11.96 -1 14 C-1.66 14 -2.32 14 -3 14 C-3 15.65 -3 17.3 -3 19 C-3.99 19 -4.98 19 -6 19 C-6.33 19.66 -6.66 20.32 -7 21 C-7 20.34 -7 19.68 -7 19 C-7.66 19 -8.32 19 -9 19 C-8.505 17.515 -8.505 17.515 -8 16 C-7.34 16 -6.68 16 -6 16 C-5.24758891 12.34543185 -4.59950296 8.68266103 -4 5 C-2.68 5 -1.36 5 0 5 C0 3.35 0 1.7 0 0 Z " fill="#9E691E" transform="translate(97,58)"/>
<path d="M0 0 C7.59 0 15.18 0 23 0 C23 0.99 23 1.98 23 3 C15.41 3 7.82 3 0 3 C0 2.01 0 1.02 0 0 Z " fill="#85A0A8" transform="translate(53,18)"/>
<path d="M0 0 C0 1.65 0 3.3 0 5 C-0.66 5 -1.32 5 -2 5 C-2 13.25 -2 21.5 -2 30 C-2.66 29.67 -3.32 29.34 -4 29 C-4 23.72 -4 18.44 -4 13 C-4.66 12.67 -5.32 12.34 -6 12 C-5.67 11.67 -5.34 11.34 -5 11 C-4.71778828 8.41977858 -4.55179803 5.83969815 -4.37890625 3.25 C-4.25386719 2.5075 -4.12882812 1.765 -4 1 C-2 0 -2 0 0 0 Z " fill="#8E5722" transform="translate(32,33)"/>
<path d="M0 0 C3.96 0 7.92 0 12 0 C12 0.99 12 1.98 12 3 C12.99 3 13.98 3 15 3 C15 5.64 15 8.28 15 11 C12.83125748 10.49396008 11.00032373 10.00016187 9 9 C9 7.02 9 5.04 9 3 C4.545 2.01 4.545 2.01 0 1 C0 0.67 0 0.34 0 0 Z " fill="#8B4B2A" transform="translate(24,119)"/>
<path d="M0 0 C2 2 2 2 2 5 C1.34 5 0.68 5 0 5 C0.061875 6.175625 0.061875 6.175625 0.125 7.375 C0 10 0 10 -2 12 C-2.45811675 13.97235333 -2.45811675 13.97235333 -2.625 16.125 C-2.74875 17.40375 -2.8725 18.6825 -3 20 C-3.99 20 -4.98 20 -6 20 C-6 20.99 -6 21.98 -6 23 C-6.66 23 -7.32 23 -8 23 C-8 21.35 -8 19.7 -8 18 C-7.01 18 -6.02 18 -5 18 C-5 15.36 -5 12.72 -5 10 C-4.34 10 -3.68 10 -3 10 C-3.020625 9.05125 -3.04125 8.1025 -3.0625 7.125 C-3 4 -3 4 -2 2 C-1.34 2 -0.68 2 0 2 C0 1.34 0 0.68 0 0 Z " fill="#733C22" transform="translate(19,144)"/>
<path d="M0 0 C7.59 0 15.18 0 23 0 C23 0.99 23 1.98 23 3 C20.2915983 3.02714434 17.58347279 3.04690846 14.875 3.0625 C13.73417969 3.07506836 13.73417969 3.07506836 12.5703125 3.08789062 C8.2610356 3.10646509 4.24483526 2.86117265 0 2 C0 1.34 0 0.68 0 0 Z " fill="#854508" transform="translate(53,10)"/>
<path d="M0 0 C2.64 0 5.28 0 8 0 C8 0.99 8 1.98 8 3 C6.02 3 4.04 3 2 3 C2 3.99 2 4.98 2 6 C1.01 6 0.02 6 -1 6 C-1 6.99 -1 7.98 -1 9 C-1.99 9 -2.98 9 -4 9 C-4 9.66 -4 10.32 -4 11 C-4.66 11 -5.32 11 -6 11 C-6 9.35 -6 7.7 -6 6 C-5.34 6 -4.68 6 -4 6 C-4 5.01 -4 4.02 -4 3 C-2.68 3 -1.36 3 0 3 C0 2.01 0 1.02 0 0 Z " fill="#9AAFBA" transform="translate(45,21)"/>
<path d="M0 0 C0.99 0 1.98 0 3 0 C4 3 4 3 3.0625 5.1875 C2.5365625 6.0846875 2.5365625 6.0846875 2 7 C2.66 7.33 3.32 7.66 4 8 C3.67 9.65 3.34 11.3 3 13 C0.03 12.505 0.03 12.505 -3 12 C-3 9.69 -3 7.38 -3 5 C-2.01 5 -1.02 5 0 5 C0 3.35 0 1.7 0 0 Z " fill="#5F2C13" transform="translate(24,159)"/>
<path d="M0 0 C1.32 0 2.64 0 4 0 C3.67 3.63 3.34 7.26 3 11 C1.02 11 -0.96 11 -3 11 C-3 8.36 -3 5.72 -3 3 C-2.01 3 -1.02 3 0 3 C0 2.01 0 1.02 0 0 Z " fill="#F4FDFC" transform="translate(44,49)"/>
<path d="M0 0 C0.66 0 1.32 0 2 0 C2 0.99 2 1.98 2 3 C2.99 3 3.98 3 5 3 C5 7.29 5 11.58 5 16 C4.01 16 3.02 16 2 16 C1.67 14.35 1.34 12.7 1 11 C0.67 11 0.34 11 0 11 C0 7.37 0 3.74 0 0 Z " fill="#A66111" transform="translate(102,19)"/>
<path d="M0 0 C1.98 0 3.96 0 6 0 C6 0.99 6 1.98 6 3 C6.99 3 7.98 3 9 3 C9 3.99 9 4.98 9 6 C9.66 6 10.32 6 11 6 C11 6.99 11 7.98 11 9 C11.99 9 12.98 9 14 9 C14 9.66 14 10.32 14 11 C9.48279689 11.36625971 9.48279689 11.36625971 7.1875 9.625 C6 8 6 8 6 6 C5.01 6 4.02 6 3 6 C3 5.01 3 4.02 3 3 C2.01 3 1.02 3 0 3 C0 2.01 0 1.02 0 0 Z " fill="#563518" transform="translate(88,7)"/>
<path d="M0 0 C0.99 0 1.98 0 3 0 C3 0.99 3 1.98 3 3 C2.01 3 1.02 3 0 3 C0 3.66 0 4.32 0 5 C-1.375 6.625 -1.375 6.625 -3 8 C-3.66 8 -4.32 8 -5 8 C-5 8.99 -5 9.98 -5 11 C-7.31 11 -9.62 11 -12 11 C-12 10.01 -12 9.02 -12 8 C-10.68 8 -9.36 8 -8 8 C-8 7.01 -8 6.02 -8 5 C-6.68 5 -5.36 5 -4 5 C-4 4.01 -4 3.02 -4 2 C-2.68 2 -1.36 2 0 2 C0 1.34 0 0.68 0 0 Z " fill="#F5D465" transform="translate(85,82)"/>
<path d="M0 0 C2.64 0 5.28 0 8 0 C7.01 0.495 7.01 0.495 6 1 C6 1.66 6 2.32 6 3 C5.01 3 4.02 3 3 3 C3 3.66 3 4.32 3 5 C2.01 5 1.02 5 0 5 C-0.33 6.32 -0.66 7.64 -1 9 C-1.66 9 -2.32 9 -3 9 C-3 9.66 -3 10.32 -3 11 C-3.99 11 -4.98 11 -6 11 C-6 9.35 -6 7.7 -6 6 C-5.01 6 -4.02 6 -3 6 C-3 5.01 -3 4.02 -3 3 C-2.01 3 -1.02 3 0 3 C0 2.01 0 1.02 0 0 Z " fill="#EED26F" transform="translate(33,13)"/>
<path d="M0 0 C1.98 0 3.96 0 6 0 C6 0.99 6 1.98 6 3 C6.66 3 7.32 3 8 3 C8 3.66 8 4.32 8 5 C6.35 5 4.7 5 3 5 C3 5.99 3 6.98 3 8 C2.01 8 1.02 8 0 8 C0 7.01 0 6.02 0 5 C-1.65 5 -3.3 5 -5 5 C-5 4.01 -5 3.02 -5 2 C-3.35 2 -1.7 2 0 2 C0 1.34 0 0.68 0 0 Z " fill="#663D11" transform="translate(82,16)"/>
<path d="M0 0 C0.66 0 1.32 0 2 0 C2 0.66 2 1.32 2 2 C2.99 2.33 3.98 2.66 5 3 C5 5.97 5 8.94 5 12 C4.01 12 3.02 12 2 12 C1.67 11.34 1.34 10.68 1 10 C-0.32 10.99 -1.64 11.98 -3 13 C-3 11.35 -3 9.7 -3 8 C-2.01 8 -1.02 8 0 8 C0 5.36 0 2.72 0 0 Z " fill="#4A2112" transform="translate(36,131)"/>
<path d="M0 0 C6.27 0 12.54 0 19 0 C19 0.99 19 1.98 19 3 C12.73 3 6.46 3 0 3 C0 2.01 0 1.02 0 0 Z " fill="#403020" transform="translate(54,84)"/>
<path d="M0 0 C0.33 0.66 0.66 1.32 1 2 C6.28 2 11.56 2 17 2 C17 2.99 17 3.98 17 5 C10.73 5 4.46 5 -2 5 C-2 4.34 -2 3.68 -2 3 C-1.34 3 -0.68 3 0 3 C0 2.01 0 1.02 0 0 Z " fill="#98B3BB" transform="translate(56,79)"/>
<path d="M0 0 C0.66 0 1.32 0 2 0 C2 0.99 2 1.98 2 3 C4.97 3 7.94 3 11 3 C11 5.31 11 7.62 11 10 C10.34 10 9.68 10 9 10 C9 9.34 9 8.68 9 8 C7.68 8 6.36 8 5 8 C5 7.34 5 6.68 5 6 C4.01 6 3.02 6 2 6 C2 6.66 2 7.32 2 8 C1.34 8 0.68 8 0 8 C0 5.36 0 2.72 0 0 Z " fill="#985607" transform="translate(39,90)"/>
<path d="M0 0 C1.65 0 3.3 0 5 0 C5 0.99 5 1.98 5 3 C3.68 3 2.36 3 1 3 C1 3.66 1 4.32 1 5 C-2.47665095 6.06888524 -5.67137478 6.11475767 -9.296875 6.09765625 C-10.50214844 6.09443359 -11.70742187 6.09121094 -12.94921875 6.08789062 C-14.20347656 6.07951172 -15.45773438 6.07113281 -16.75 6.0625 C-18.01972656 6.05798828 -19.28945313 6.05347656 -20.59765625 6.04882812 C-23.73181836 6.03704556 -26.86588541 6.02059416 -30 6 C-30 5.67 -30 5.34 -30 5 C-29.23333008 4.97494385 -28.46666016 4.9498877 -27.67675781 4.92407227 C-24.20100717 4.80798577 -20.72551908 4.68531634 -17.25 4.5625 C-16.0434375 4.52318359 -14.836875 4.48386719 -13.59375 4.44335938 C-11.85351562 4.38051758 -11.85351562 4.38051758 -10.078125 4.31640625 C-9.00981445 4.27974854 -7.94150391 4.24309082 -6.84082031 4.20532227 C-4.41688848 4.03013091 -2.32113288 3.68801513 0 3 C0 2.01 0 1.02 0 0 Z " fill="#C7881D" transform="translate(80,90)"/>
<path d="M0 0 C1.98 0 3.96 0 6 0 C6 0.99 6 1.98 6 3 C5.01 3 4.02 3 3 3 C3 3.99 3 4.98 3 6 C1.35 6 -0.3 6 -2 6 C-2.33 7.65 -2.66 9.3 -3 11 C-3.99 11.33 -4.98 11.66 -6 12 C-5.67 10.02 -5.34 8.04 -5 6 C-4.34 6 -3.68 6 -3 6 C-3 5.01 -3 4.02 -3 3 C-2.01 3 -1.02 3 0 3 C0 2.01 0 1.02 0 0 Z " fill="#D3EBF1" transform="translate(47,24)"/>
<path d="M0 0 C0.99 0 1.98 0 3 0 C3 0.99 3 1.98 3 3 C2.34 3 1.68 3 1 3 C1 4.98 1 6.96 1 9 C0.01 9 -0.98 9 -2 9 C-2 10.65 -2 12.3 -2 14 C-2.99 14 -3.98 14 -5 14 C-5 12.35 -5 10.7 -5 9 C-4.34 9 -3.68 9 -3 9 C-3 6.69 -3 4.38 -3 2 C-2.01 2 -1.02 2 0 2 C0 1.34 0 0.68 0 0 Z " fill="#4E3E2D" transform="translate(38,24)"/>
<path d="M0 0 C0.99 0.33 1.98 0.66 3 1 C2.67 1.33 2.34 1.66 2 2 C1.92794489 3.68608966 1.91613932 5.37500659 1.9375 7.0625 C1.95103516 8.44115234 1.95103516 8.44115234 1.96484375 9.84765625 C1.97644531 10.55792969 1.98804688 11.26820313 2 12 C1.34 12 0.68 12 0 12 C-0.33 13.32 -0.66 14.64 -1 16 C-1.66 16 -2.32 16 -3 16 C-4.25541557 12.23375329 -3.37061958 10.62811066 -2 7 C-1.34 7 -0.68 7 0 7 C0 4.69 0 2.38 0 0 Z " fill="#8C4722" transform="translate(24,146)"/>
<path d="M0 0 C0.33 0 0.66 0 1 0 C1 8.25 1 16.5 1 25 C1.66 25 2.32 25 3 25 C3 26.98 3 28.96 3 31 C2.34 31 1.68 31 1 31 C1 31.66 1 32.32 1 33 C0.01 33 -0.98 33 -2 33 C-2 32.34 -2 31.68 -2 31 C-1.34 31 -0.68 31 0 31 C0 20.77 0 10.54 0 0 Z " fill="#564736" transform="translate(32,38)"/>
<path d="M0 0 C0 3.63 0 7.26 0 11 C-1.65 10.67 -3.3 10.34 -5 10 C-5 7.03 -5 4.06 -5 1 C-1 0 -1 0 0 0 Z " fill="#F7CA49" transform="translate(107,40)"/>
<path d="M0 0 C0.99 0 1.98 0 3 0 C3 3.3 3 6.6 3 10 C3.66 9.34 4.32 8.68 5 8 C5.66 8.33 6.32 8.66 7 9 C7 10.98 7 12.96 7 15 C5.68 14.67 4.36 14.34 3 14 C3 13.34 3 12.68 3 12 C2.01 11.67 1.02 11.34 0 11 C0 7.37 0 3.74 0 0 Z " fill="#8B8988" transform="translate(1,170)"/>
<path d="M0 0 C0.33 0 0.66 0 1 0 C1 2.97 1 5.94 1 9 C0.01 9 -0.98 9 -2 9 C-2 9.99 -2 10.98 -2 12 C-2.66 12 -3.32 12 -4 12 C-4 12.99 -4 13.98 -4 15 C-4.99 15.495 -4.99 15.495 -6 16 C-6.65555119 18.52733235 -6.65555119 18.52733235 -7 21 C-7.99 21 -8.98 21 -10 21 C-10 24.3 -10 27.6 -10 31 C-10.33 31 -10.66 31 -11 31 C-11 27.37 -11 23.74 -11 20 C-10.01 20 -9.02 20 -8 20 C-8 17.69 -8 15.38 -8 13 C-7.01 13 -6.02 13 -5 13 C-5 12.01 -5 11.02 -5 10 C-4.34 10 -3.68 10 -3 10 C-3 9.34 -3 8.68 -3 8 C-2.01 8 -1.02 8 0 8 C0 5.36 0 2.72 0 0 Z " fill="#D8D5D3" transform="translate(52,114)"/>
<path d="M0 0 C0.99 0 1.98 0 3 0 C3 1.65 3 3.3 3 5 C2.01 5 1.02 5 0 5 C-0.0825 5.598125 -0.165 6.19625 -0.25 6.8125 C-1.21576779 9.62932273 -2.48868567 10.47799132 -5 12 C-5.66 12 -6.32 12 -7 12 C-7 12.66 -7 13.32 -7 14 C-8.32 13.67 -9.64 13.34 -11 13 C-10.01 13 -9.02 13 -8 13 C-8 12.34 -8 11.68 -8 11 C-7.34 11 -6.68 11 -6 11 C-6 10.01 -6 9.02 -6 8 C-5.01 8 -4.02 8 -3 8 C-3 6.35 -3 4.7 -3 3 C-2.01 3 -1.02 3 0 3 C0 2.01 0 1.02 0 0 Z " fill="#A15F13" transform="translate(99,74)"/>
<path d="M0 0 C1.32 0 2.64 0 4 0 C4 0.66 4 1.32 4 2 C6.64 2 9.28 2 12 2 C12 2.99 12 3.98 12 5 C9.36 5 6.72 5 4 5 C4 5.99 4 6.98 4 8 C2.68 8 1.36 8 0 8 C0 7.01 0 6.02 0 5 C0.99 5 1.98 5 3 5 C3 4.01 3 3.02 3 2 C2.01 2 1.02 2 0 2 C0 1.34 0 0.68 0 0 Z " fill="#4D351C" transform="translate(41,16)"/>
<path d="M0 0 C3.63 0 7.26 0 11 0 C11 1.65 11 3.3 11 5 C8.36 5 5.72 5 3 5 C3 4.01 3 3.02 3 2 C2.01 2 1.02 2 0 2 C0 1.34 0 0.68 0 0 Z " fill="#F7D77C" transform="translate(5,173)"/>
<path d="M0 0 C4.95 0 9.9 0 15 0 C15 0.99 15 1.98 15 3 C10.05 3 5.1 3 0 3 C0 2.01 0 1.02 0 0 Z " fill="#3A2211" transform="translate(8,183)"/>
<path d="M0 0 C1.32 0 2.64 0 4 0 C4 3.63 4 7.26 4 11 C0 10 0 10 -2 8 C-1.34 8 -0.68 8 0 8 C0 5.36 0 2.72 0 0 Z " fill="#AD633E" transform="translate(29,122)"/>
<path d="M0 0 C0.99 0 1.98 0 3 0 C3 4.95 3 9.9 3 15 C2.01 15 1.02 15 0 15 C0 10.05 0 5.1 0 0 Z " fill="#8C5104" transform="translate(99,41)"/>
<path d="M0 0 C4.95 0 9.9 0 15 0 C15 0.99 15 1.98 15 3 C10.05 3 5.1 3 0 3 C0 2.01 0 1.02 0 0 Z " fill="#E8C966" transform="translate(36,10)"/>
<path d="M0 0 C0.33 0 0.66 0 1 0 C1 2.97 1 5.94 1 9 C1.99 9.33 2.98 9.66 4 10 C1.03 9.505 1.03 9.505 -2 9 C-2 8.34 -2 7.68 -2 7 C-2.66 7 -3.32 7 -4 7 C-4 9.64 -4 12.28 -4 15 C-4.99 14.67 -5.98 14.34 -7 14 C-6.34 14 -5.68 14 -5 14 C-5 12.02 -5 10.04 -5 8 C-5.66 8 -6.32 8 -7 8 C-7 6.68 -7 5.36 -7 4 C-4 5 -4 5 -1 6 C-0.67 4.02 -0.34 2.04 0 0 Z " fill="#7D3D1B" transform="translate(40,124)"/>
<path d="M0 0 C2.31 0 4.62 0 7 0 C7 0.66 7 1.32 7 2 C6.01 2 5.02 2 4 2 C4 2.99 4 3.98 4 5 C2.68 5 1.36 5 0 5 C0 4.34 0 3.68 0 3 C-5.94 3 -11.88 3 -18 3 C-18 2.67 -18 2.34 -18 2 C-12.06 2 -6.12 2 0 2 C0 1.34 0 0.68 0 0 Z " fill="#A76F28" transform="translate(73,85)"/>
<path d="M0 0 C0.99 0 1.98 0 3 0 C3 2.97 3 5.94 3 9 C2.01 9 1.02 9 0 9 C0 10.65 0 12.3 0 14 C-0.99 13.67 -1.98 13.34 -3 13 C-3 11.35 -3 9.7 -3 8 C-2.01 8 -1.02 8 0 8 C0 5.36 0 2.72 0 0 Z " fill="#F8D86F" transform="translate(24,24)"/>
<path d="M0 0 C1.32 0 2.64 0 4 0 C6 3 6 3 6 6 C6.99 6 7.98 6 9 6 C9 6.99 9 7.98 9 9 C9.66 9 10.32 9 11 9 C11 9.99 11 10.98 11 12 C11.66 12.33 12.32 12.66 13 13 C12.01 13 11.02 13 10 13 C10 12.01 10 11.02 10 10 C9.34 10 8.68 10 8 10 C8 11.65 8 13.3 8 15 C7.01 15 6.02 15 5 15 C5 13.02 5 11.04 5 9 C5.99 9 6.98 9 8 9 C8 8.34 8 7.68 8 7 C7.01 7 6.02 7 5 7 C5 6.01 5 5.02 5 4 C4.34 4 3.68 4 3 4 C3 3.01 3 2.02 3 1 C2.01 0.67 1.02 0.34 0 0 Z " fill="#B99A75" transform="translate(94,9)"/>
<path d="M0 0 C1.65 0 3.3 0 5 0 C5 2.64 5 5.28 5 8 C2.36 8 -0.28 8 -3 8 C-3 7.01 -3 6.02 -3 5 C-1.35 5 0.3 5 2 5 C2 4.01 2 3.02 2 2 C1.34 2 0.68 2 0 2 C0 1.34 0 0.68 0 0 Z " fill="#69461E" transform="translate(47,114)"/>
<path d="M0 0 C0.66 0 1.32 0 2 0 C2 1.98 2 3.96 2 6 C2.99 6 3.98 6 5 6 C5 8.64 5 11.28 5 14 C3.68 13.67 2.36 13.34 1 13 C1.33 11.68 1.66 10.36 2 9 C1.34 9 0.68 9 0 9 C0 6.03 0 3.06 0 0 Z " fill="#744A19" transform="translate(19,63)"/>
<path d="M0 0 C0.33 0 0.66 0 1 0 C1 10.23 1 20.46 1 31 C0.01 31 -0.98 31 -2 31 C-2 29.02 -2 27.04 -2 25 C-1.34 25 -0.68 25 0 25 C0 16.75 0 8.5 0 0 Z " fill="#B1D1D6" transform="translate(90,38)"/>
<path d="M0 0 C0 1.98 0 3.96 0 6 C-0.99 6.495 -0.99 6.495 -2 7 C-2.65213292 9.02463255 -2.65213292 9.02463255 -3 11 C-4.32 10.67 -5.64 10.34 -7 10 C-6.34 9.67 -5.68 9.34 -5 9 C-5 6.36 -5 3.72 -5 1 C-2 0 -2 0 0 0 Z " fill="#8B4624" transform="translate(35,132)"/>
<path d="M0 0 C0.66 0 1.32 0 2 0 C2 2.64 2 5.28 2 8 C5.3 8 8.6 8 12 8 C12 8.66 12 9.32 12 10 C8.04 10 4.08 10 0 10 C0 6.7 0 3.4 0 0 Z " fill="#3A1B0B" transform="translate(27,109)"/>
<path d="M0 0 C2.64 0.33 5.28 0.66 8 1 C7.01 1.495 7.01 1.495 6 2 C6 2.66 6 3.32 6 4 C7.98 4 9.96 4 12 4 C11.67 4.66 11.34 5.32 11 6 C8.03 6 5.06 6 2 6 C2 5.01 2 4.02 2 3 C1.34 3 0.68 3 0 3 C0 2.01 0 1.02 0 0 Z " fill="#E39E1C" transform="translate(39,87)"/>
<path d="M0 0 C1.98 0 3.96 0 6 0 C6 0.99 6 1.98 6 3 C5.01 3 4.02 3 3 3 C3 3.66 3 4.32 3 5 C2.01 5 1.02 5 0 5 C0 5.66 0 6.32 0 7 C-1.98 7 -3.96 7 -6 7 C-6 6.34 -6 5.68 -6 5 C-3 3 -3 3 0 3 C0 2.01 0 1.02 0 0 Z " fill="#A5B8BA" transform="translate(79,74)"/>
<path d="M0 0 C1.10844919 3.32534757 0.84454356 5.62182575 0 9 C-1.65 9.33 -3.3 9.66 -5 10 C-5 7.69 -5 5.38 -5 3 C-3.35 2.67 -1.7 2.34 0 2 C0 1.34 0 0.68 0 0 Z " fill="#ADCFD9" transform="translate(41,30)"/>
<path d="M0 0 C0.66 0 1.32 0 2 0 C2.2366787 5.08859211 1.78215763 8.75293168 -1.4375 12.8125 C-3 14 -3 14 -6 14 C-6 13.01 -6 12.02 -6 11 C-5.01 11 -4.02 11 -3 11 C-3 9.35 -3 7.7 -3 6 C-2.01 6 -1.02 6 0 6 C0 4.02 0 2.04 0 0 Z " fill="#3D2D1F" transform="translate(91,63)"/>
<path d="M0 0 C2.475 0.99 2.475 0.99 5 2 C5 2.99 5 3.98 5 5 C4.01 5.495 4.01 5.495 3 6 C2.34786708 8.02463255 2.34786708 8.02463255 2 10 C1.34 10 0.68 10 0 10 C0 8.35 0 6.7 0 5 C-0.99 5 -1.98 5 -3 5 C-3 4.01 -3 3.02 -3 2 C-2.01 2 -1.02 2 0 2 C0 1.34 0 0.68 0 0 Z " fill="#522711" transform="translate(39,117)"/>
<path d="M0 0 C0.66 0 1.32 0 2 0 C2 0.99 2 1.98 2 3 C2.99 3 3.98 3 5 3 C5 3.66 5 4.32 5 5 C6.98 5 8.96 5 11 5 C11 6.32 11 7.64 11 9 C9.35 9 7.7 9 6 9 C6 8.34 6 7.68 6 7 C4.02 6.34 2.04 5.68 0 5 C0 3.35 0 1.7 0 0 Z " fill="#EDAB27" transform="translate(39,82)"/>
<path d="M0 0 C0.99 0 1.98 0 3 0 C3 1.98 3 3.96 3 6 C0.03 6 -2.94 6 -6 6 C-6 5.01 -6 4.02 -6 3 C-4.02 3 -2.04 3 0 3 C0 2.01 0 1.02 0 0 Z " fill="#D28D27" transform="translate(16,175)"/>
<path d="M0 0 C2.31 0 4.62 0 7 0 C7 0.66 7 1.32 7 2 C9.64 2 12.28 2 15 2 C15 2.99 15 3.98 15 5 C7.575 4.01 7.575 4.01 0 3 C0 2.01 0 1.02 0 0 Z " fill="#A06820" transform="translate(29,114)"/>
<path d="M0 0 C1.98 0 3.96 0 6 0 C6 0.66 6 1.32 6 2 C5.34 2 4.68 2 4 2 C4 2.99 4 3.98 4 5 C1.36 5 -1.28 5 -4 5 C-4 4.01 -4 3.02 -4 2 C-2.68 2 -1.36 2 0 2 C0 1.34 0 0.68 0 0 Z " fill="#4C2C0F" transform="translate(81,93)"/>
<path d="M0 0 C0.99 0 1.98 0 3 0 C3 3.96 3 7.92 3 12 C2.01 12 1.02 12 0 12 C0 8.04 0 4.08 0 0 Z " fill="#DEAA2F" transform="translate(104,51)"/>
<path d="M0 0 C0.99 0 1.98 0 3 0 C3 2.64 3 5.28 3 8 C1.35 8.33 -0.3 8.66 -2 9 C-2 7.02 -2 5.04 -2 3 C-1.34 3 -0.68 3 0 3 C0 2.01 0 1.02 0 0 Z " fill="#6E531E" transform="translate(21,24)"/>
<path d="M0 0 C0.66 0 1.32 0 2 0 C3.28571429 7.42857143 3.28571429 7.42857143 2 11 C1.34 11 0.68 11 0 11 C0 9.35 0 7.7 0 6 C-0.66 6 -1.32 6 -2 6 C-2 4.68 -2 3.36 -2 2 C-1.34 2 -0.68 2 0 2 C0 1.34 0 0.68 0 0 Z " fill="#EEA716" transform="translate(99,26)"/>
<path d="M0 0 C3.96 0 7.92 0 12 0 C12 0.99 12 1.98 12 3 C8.04 3 4.08 3 0 3 C0 2.01 0 1.02 0 0 Z " fill="#E8A725" transform="translate(64,7)"/>
<path d="M0 0 C0 2.31 0 4.62 0 7 C-0.99 7 -1.98 7 -3 7 C-3 8.98 -3 10.96 -3 13 C-3.99 12.67 -4.98 12.34 -6 12 C-5.34 12 -4.68 12 -4 12 C-4.33 8.7 -4.66 5.4 -5 2 C-2 0 -2 0 0 0 Z " fill="#864525" transform="translate(27,131)"/>
<path d="M0 0 C0.99 0 1.98 0 3 0 C3 0.99 3 1.98 3 3 C4.98 3 6.96 3 9 3 C9 3.33 9 3.66 9 4 C7.35 4 5.7 4 4 4 C4 4.66 4 5.32 4 6 C3.01 6 2.02 6 1 6 C1 6.99 1 7.98 1 9 C-1.64 9 -4.28 9 -7 9 C-7.33 9.66 -7.66 10.32 -8 11 C-8 10.01 -8 9.02 -8 8 C-5.36 8 -2.72 8 0 8 C0 7.01 0 6.02 0 5 C0.66 5 1.32 5 2 5 C2 4.34 2 3.68 2 3 C1.34 3 0.68 3 0 3 C0 2.01 0 1.02 0 0 Z " fill="#B8A89B" transform="translate(85,90)"/>
<path d="M0 0 C0.99 0 1.98 0 3 0 C3 2.31 3 4.62 3 7 C2.01 7 1.02 7 0 7 C0 7.99 0 8.98 0 10 C-0.66 10 -1.32 10 -2 10 C-2 7.69 -2 5.38 -2 3 C-1.34 3 -0.68 3 0 3 C0 2.01 0 1.02 0 0 Z " fill="#FDE076" transform="translate(99,63)"/>
<path d="M0 0 C0.99 0 1.98 0 3 0 C2.34 2.64 1.68 5.28 1 8 C-1.97 8 -4.94 8 -8 8 C-8 7.01 -8 6.02 -8 5 C-6.35 5 -4.7 5 -3 5 C-3 5.66 -3 6.32 -3 7 C-2.01 7 -1.02 7 0 7 C0 4.69 0 2.38 0 0 Z " fill="#C37C18" transform="translate(47,101)"/>
<path d="M0 0 C0.99 0 1.98 0 3 0 C3 0.99 3 1.98 3 3 C5.31 3 7.62 3 10 3 C10 3.66 10 4.32 10 5 C5.71 5 1.42 5 -3 5 C-3 4.34 -3 3.68 -3 3 C-2.01 3 -1.02 3 0 3 C0 2.01 0 1.02 0 0 Z " fill="#5A3917" transform="translate(44,79)"/>
<path d="M0 0 C3.63 0 7.26 0 11 0 C11 0.99 11 1.98 11 3 C7.37 3 3.74 3 0 3 C0 2.01 0 1.02 0 0 Z " fill="#F4CD4F" transform="translate(53,7)"/>
<path d="M0 0 C0.66 0.33 1.32 0.66 2 1 C1.814375 2.0725 1.62875 3.145 1.4375 4.25 C1.0695432 7.40391546 0.95534657 9.09818492 2 12 C-1 14 -1 14 -4 14 C-4 13.01 -4 12.02 -4 11 C-3.01 11 -2.02 11 -1 11 C-1.020625 9.741875 -1.04125 8.48375 -1.0625 7.1875 C-1.10886083 4.35948913 -0.91692961 2.75078884 0 0 Z " fill="#A0603A" transform="translate(17,153)"/>
<path d="M0 0 C0.33 0.99 0.66 1.98 1 3 C0.34 3 -0.32 3 -1 3 C-1 5.31 -1 7.62 -1 10 C-1.66 10 -2.32 10 -3 10 C-3.33 10.99 -3.66 11.98 -4 13 C-5.36503641 8.49537986 -4.67563646 5.35665479 -3 1 C-2.01 0.67 -1.02 0.34 0 0 Z " fill="#BC7149" transform="translate(22,149)"/>
<path d="M0 0 C0.33 0 0.66 0 1 0 C1 3.3 1 6.6 1 10 C0.01 10 -0.98 10 -2 10 C-2 10.99 -2 11.98 -2 13 C-2.66 13 -3.32 13 -4 13 C-4 10.69 -4 8.38 -4 6 C-2.68 6 -1.36 6 0 6 C0 4.02 0 2.04 0 0 Z " fill="#E4A320" transform="translate(26,33)"/>
<path d="M0 0 C0.33 0.66 0.66 1.32 1 2 C1.66 2 2.32 2 3 2 C3 3.32 3 4.64 3 6 C0.03 6 -2.94 6 -6 6 C-6 5.01 -6 4.02 -6 3 C-4.02 3 -2.04 3 0 3 C0 2.01 0 1.02 0 0 Z " fill="#F6D778" transform="translate(50,4)"/>
<path d="M0 0 C2.64 0 5.28 0 8 0 C8 0.99 8 1.98 8 3 C8.99 3 9.98 3 11 3 C11 3.66 11 4.32 11 5 C9.02 5 7.04 5 5 5 C5 4.01 5 3.02 5 2 C3.35 2 1.7 2 0 2 C0 1.34 0 0.68 0 0 Z " fill="#703605" transform="translate(39,109)"/>
<path d="M0 0 C2.31 0 4.62 0 7 0 C7.33 0.99 7.66 1.98 8 3 C9.65 3 11.3 3 13 3 C13 3.33 13 3.66 13 4 C11.02 4 9.04 4 7 4 C7 4.66 7 5.32 7 6 C6.01 6 5.02 6 4 6 C4 5.34 4 4.68 4 4 C2.35 4 0.7 4 -1 4 C-1 3.67 -1 3.34 -1 3 C1.31 3 3.62 3 6 3 C6 2.34 6 1.68 6 1 C4.02 1 2.04 1 0 1 C0 0.67 0 0.34 0 0 Z " fill="#A69271" transform="translate(81,3)"/>
<path d="M0 0 C2.64 0 5.28 0 8 0 C8 0.66 8 1.32 8 2 C8.66 2 9.32 2 10 2 C10 2.66 10 3.32 10 4 C7.69 4 5.38 4 3 4 C3 3.34 3 2.68 3 2 C2.01 2 1.02 2 0 2 C0 1.34 0 0.68 0 0 Z " fill="#F4CC62" transform="translate(33,112)"/>
<path d="M0 0 C0 0.99 0 1.98 0 3 C0.99 3.33 1.98 3.66 3 4 C1.35 4.33 -0.3 4.66 -2 5 C-2 5.66 -2 6.32 -2 7 C-2.99 7 -3.98 7 -5 7 C-5 6.01 -5 5.02 -5 4 C-4.01 4 -3.02 4 -2 4 C-2 3.34 -2 2.68 -2 2 C-3.98 2 -5.96 2 -8 2 C-8 1.67 -8 1.34 -8 1 C-5.23735711 0.40267181 -2.83967231 0 0 0 Z " fill="#6B3B1D" transform="translate(21,168)"/>
<path d="M0 0 C0.99 0 1.98 0 3 0 C3 1.65 3 3.3 3 5 C2.34 5 1.68 5 1 5 C0.67 7.31 0.34 9.62 0 12 C-0.66 12 -1.32 12 -2 12 C-2 10.02 -2 8.04 -2 6 C-1.34 6 -0.68 6 0 6 C0 4.02 0 2.04 0 0 Z " fill="#38221B" transform="translate(16,141)"/>
<path d="M0 0 C0 1.65 0 3.3 0 5 C-0.66 5 -1.32 5 -2 5 C-2 6.32 -2 7.64 -2 9 C-2.99 9 -3.98 9 -5 9 C-5.36666667 3.5 -5.36666667 3.5 -3.625 1.125 C-2 0 -2 0 0 0 Z " fill="#5F3917" transform="translate(96,27)"/>
<path d="M0 0 C2.31 0 4.62 0 7 0 C7 3.3 7 6.6 7 10 C6.34 10 5.68 10 5 10 C5 7.36 5 4.72 5 2 C3.35 2 1.7 2 0 2 C0 1.34 0 0.68 0 0 Z " fill="#391A0B" transform="translate(19,173)"/>
<path d="M0 0 C0.66 0 1.32 0 2 0 C3.35439668 2.70879335 3.06501451 5.00933268 3 8 C2.01 8 1.02 8 0 8 C0 9.65 0 11.3 0 13 C-0.33 13 -0.66 13 -1 13 C-0.67 8.71 -0.34 4.42 0 0 Z " fill="#49281D" transform="translate(11,154)"/>
<path d="M0 0 C0.99 0 1.98 0 3 0 C3 2.97 3 5.94 3 9 C2.01 9 1.02 9 0 9 C0 6.03 0 3.06 0 0 Z " fill="#FBDC78" transform="translate(41,96)"/>
<path d="M0 0 C0.99 0 1.98 0 3 0 C3 0.99 3 1.98 3 3 C2.34 3 1.68 3 1 3 C1 3.99 1 4.98 1 6 C-0.98 6 -2.96 6 -5 6 C-5 5.01 -5 4.02 -5 3 C-3.35 3 -1.7 3 0 3 C0 2.01 0 1.02 0 0 Z " fill="#3C2717" transform="translate(93,87)"/>
<path d="M0 0 C1.98 0 3.96 0 6 0 C6 1.65 6 3.3 6 5 C4.35 5 2.7 5 1 5 C0.67 3.35 0.34 1.7 0 0 Z " fill="#9B5E14" transform="translate(76,13)"/>
<path d="M0 0 C0 0.99 0 1.98 0 3 C-2.64 3 -5.28 3 -8 3 C-8 2.01 -8 1.02 -8 0 C-5.13822943 -1.43088528 -3.06624227 -0.59991697 0 0 Z " fill="#D69219" transform="translate(90,13)"/>
<path d="M0 0 C0 0.99 0 1.98 0 3 C-3.96 3 -7.92 3 -12 3 C-7.09396701 -0.67952474 -5.82490317 -0.29124516 0 0 Z " fill="#904C08" transform="translate(76,10)"/>
<path d="M0 0 C2.97 0.495 2.97 0.495 6 1 C6 1.66 6 2.32 6 3 C6.66 3 7.32 3 8 3 C8 3.99 8 4.98 8 6 C6.35 6 4.7 6 3 6 C2.87625 5.195625 2.7525 4.39125 2.625 3.5625 C2.315625 2.2940625 2.315625 2.2940625 2 1 C1.34 0.67 0.68 0.34 0 0 Z " fill="#DE9C26" transform="translate(41,113)"/>
<path d="M0 0 C0.93423645 3.01031744 1.04449911 3.86650268 0 7 C-0.99 7 -1.98 7 -3 7 C-3 6.01 -3 5.02 -3 4 C-3.99 4 -4.98 4 -6 4 C-6 3.01 -6 2.02 -6 1 C-5.01 1 -4.02 1 -3 1 C-3 1.66 -3 2.32 -3 3 C-2.01 2.01 -1.02 1.02 0 0 Z " fill="#624220" transform="translate(91,23)"/>
<path d="M0 0 C2.64 0 5.28 0 8 0 C7.01 0.495 7.01 0.495 6 1 C6 1.66 6 2.32 6 3 C5.01 3 4.02 3 3 3 C3 3.66 3 4.32 3 5 C2.01 5 1.02 5 0 5 C0 3.35 0 1.7 0 0 Z " fill="#F3D778" transform="translate(33,13)"/>
<path d="M0 0 C0.33 0.99 0.66 1.98 1 3 C1.66 3 2.32 3 3 3 C3 3.99 3 4.98 3 6 C3.99 6 4.98 6 6 6 C6 6.66 6 7.32 6 8 C1.48279689 8.36625971 1.48279689 8.36625971 -0.8125 6.625 C-2 5 -2 5 -2 3 C-1.34 3 -0.68 3 0 3 C0 2.01 0 1.02 0 0 Z " fill="#64411D" transform="translate(96,10)"/>
<path d="M0 0 C0.66 0 1.32 0 2 0 C1.67 1.32 1.34 2.64 1 4 C0.34 4 -0.32 4 -1 4 C-1 4.66 -1 5.32 -1 6 C-2.65 6.33 -4.3 6.66 -6 7 C-6 6.01 -6 5.02 -6 4 C-5.01 4 -4.02 4 -3 4 C-3 3.34 -3 2.68 -3 2 C-2.01 2 -1.02 2 0 2 C0 1.34 0 0.68 0 0 Z " fill="#FCD86C" transform="translate(94,75)"/>
<path d="M0 0 C1.98 0 3.96 0 6 0 C6 0.99 6 1.98 6 3 C5.01 3 4.02 3 3 3 C3 3.99 3 4.98 3 6 C2.34 6 1.68 6 1 6 C0.67 4.02 0.34 2.04 0 0 Z " fill="#C1DFE5" transform="translate(47,24)"/>
<path d="M0 0 C0.66 0 1.32 0 2 0 C2 0.99 2 1.98 2 3 C2.99 3 3.98 3 5 3 C5 4.65 5 6.3 5 8 C4.01 8 3.02 8 2 8 C2 7.01 2 6.02 2 5 C1.34 5 0.68 5 0 5 C0 3.35 0 1.7 0 0 Z " fill="#4B2C0E" transform="translate(102,19)"/>
<path d="M0 0 C-0.33 0.99 -0.66 1.98 -1 3 C-3.31 2.67 -5.62 2.34 -8 2 C-8 1.34 -8 0.68 -8 0 C-8.99 -0.33 -9.98 -0.66 -11 -1 C-6.74938644 -2.41687119 -4.28148375 -1.19320039 0 0 Z " fill="#A25D0B" transform="translate(52,85)"/>
<path d="M0 0 C0.33 0 0.66 0 1 0 C1 1.98 1 3.96 1 6 C1.99 6 2.98 6 4 6 C3.67 7.32 3.34 8.64 3 10 C1.68 9.67 0.36 9.34 -1 9 C-0.67 6.03 -0.34 3.06 0 0 Z " fill="#EFAE2B" transform="translate(25,63)"/>
<path d="M0 0 C0.33 0 0.66 0 1 0 C1 3.3 1 6.6 1 10 C1.99 10.33 2.98 10.66 4 11 C3.01 11 2.02 11 1 11 C1 12.98 1 14.96 1 17 C0.67 17 0.34 17 0 17 C-0.89316269 11.06390334 -0.97040422 5.93024803 0 0 Z " fill="#A76512" transform="translate(98,46)"/>
<path d="M0 0 C2.475 0.495 2.475 0.495 5 1 C5 2.65 5 4.3 5 6 C3.68 5.67 2.36 5.34 1 5 C0.67 3.35 0.34 1.7 0 0 Z " fill="#925516" transform="translate(94,32)"/>
<path d="M0 0 C1.98 0 3.96 0 6 0 C6 1.65 6 3.3 6 5 C5.01 5 4.02 5 3 5 C3 4.34 3 3.68 3 3 C2.01 3 1.02 3 0 3 C0 2.01 0 1.02 0 0 Z " fill="#94B0B5" transform="translate(82,27)"/>
<path d="M0 0 C2.64 0 5.28 0 8 0 C8 0.99 8 1.98 8 3 C5.36 3 2.72 3 0 3 C0 2.01 0 1.02 0 0 Z " fill="#8CA5A8" transform="translate(45,21)"/>
<path d="M0 0 C2.64 0 5.28 0 8 0 C8 0.99 8 1.98 8 3 C5.36 3 2.72 3 0 3 C0 2.01 0 1.02 0 0 Z " fill="#E4A22A" transform="translate(76,10)"/>
<path d="M0 0 C2.64 0 5.28 0 8 0 C8 0.99 8 1.98 8 3 C5.36 3 2.72 3 0 3 C0 2.01 0 1.02 0 0 Z " fill="#483415" transform="translate(36,7)"/>
<path d="M0 0 C0.99 0.33 1.98 0.66 3 1 C3 2.98 3 4.96 3 7 C1.68 6.67 0.36 6.34 -1 6 C-1 5.34 -1 4.68 -1 4 C-1.66 3.67 -2.32 3.34 -3 3 C-2.01 3 -1.02 3 0 3 C0 2.01 0 1.02 0 0 Z " fill="#9A8570" transform="translate(5,178)"/>
<path d="M0 0 C1.98 0 3.96 0 6 0 C6 0.66 6 1.32 6 2 C7.65 2 9.3 2 11 2 C11 2.33 11 2.66 11 3 C7.37 3 3.74 3 0 3 C0 2.01 0 1.02 0 0 Z " fill="#A0752A" transform="translate(5,170)"/>
<path d="M0 0 C0.33 0 0.66 0 1 0 C0.67 4.29 0.34 8.58 0 13 C-1.32 12.67 -2.64 12.34 -4 12 C-3.34 11.67 -2.68 11.34 -2 11 C-1.37722015 8.72502965 -1.37722015 8.72502965 -1 6 C-0.814375 4.906875 -0.62875 3.81375 -0.4375 2.6875 C-0.2209375 1.3571875 -0.2209375 1.3571875 0 0 Z " fill="#7C4D16" transform="translate(93,63)"/>
<path d="M0 0 C0.6875 1.75 0.6875 1.75 1 4 C-0.25 6.25 -0.25 6.25 -2 8 C-2.99 8 -3.98 8 -5 8 C-5 6.35 -5 4.7 -5 3 C-3.68 3 -2.36 3 -1 3 C-0.67 2.01 -0.34 1.02 0 0 Z " fill="#BE8323" transform="translate(29,69)"/>
<path d="M0 0 C0.99 0.495 0.99 0.495 2 1 C1.98839844 1.59167969 1.97679688 2.18335938 1.96484375 2.79296875 C1.91677614 7.00231785 1.93993117 10.8922333 3 15 C2.01 15 1.02 15 0 15 C0 10.05 0 5.1 0 0 Z " fill="#A46102" transform="translate(24,43)"/>
<path d="M0 0 C2.31 0 4.62 0 7 0 C7 0.66 7 1.32 7 2 C7.66 2.33 8.32 2.66 9 3 C6.03 3 3.06 3 0 3 C0 2.01 0 1.02 0 0 Z " fill="#8A4B08" transform="translate(46,13)"/>
<path d="M0 0 C1.32 0 2.64 0 4 0 C4.33 0.99 4.66 1.98 5 3 C3.625 4.5 3.625 4.5 2 6 C1.34 6 0.68 6 0 6 C0 4.02 0 2.04 0 0 Z " fill="#57240A" transform="translate(21,165)"/>
<path d="M0 0 C0.66 0 1.32 0 2 0 C2 2.31 2 4.62 2 7 C0.35 7.33 -1.3 7.66 -3 8 C-3 7.01 -3 6.02 -3 5 C-2.01 5 -1.02 5 0 5 C0 3.35 0 1.7 0 0 Z " fill="#332216" transform="translate(33,101)"/>
<path d="M0 0 C2.64 0 5.28 0 8 0 C8 0.66 8 1.32 8 2 C7.34 2 6.68 2 6 2 C6 2.66 6 3.32 6 4 C5.01 4 4.02 4 3 4 C3 3.34 3 2.68 3 2 C2.01 2 1.02 2 0 2 C0 1.34 0 0.68 0 0 Z " fill="#774D1E" transform="translate(82,77)"/>
<path d="M0 0 C0.99 0.33 1.98 0.66 3 1 C3 1.99 3 2.98 3 4 C2.34 4 1.68 4 1 4 C0.67 5.32 0.34 6.64 0 8 C-2 5 -2 5 -1.6875 2.875 C-1 1 -1 1 0 0 Z " fill="#DF991F" transform="translate(29,73)"/>
<path d="M0 0 C0.66 0 1.32 0 2 0 C2 0.99 2 1.98 2 3 C2.99 3 3.98 3 5 3 C5 3.66 5 4.32 5 5 C5.99 5.33 6.98 5.66 8 6 C2.25 6.125 2.25 6.125 0 5 C0 3.35 0 1.7 0 0 Z " fill="#98B7BF" transform="translate(39,69)"/>
<path d="M0 0 C1.65 0 3.3 0 5 0 C5.33 1.32 5.66 2.64 6 4 C5.01 4.33 4.02 4.66 3 5 C3 4.34 3 3.68 3 3 C2.01 3 1.02 3 0 3 C0 2.01 0 1.02 0 0 Z " fill="#996122" transform="translate(85,21)"/>
<path d="M0 0 C0.33 0 0.66 0 1 0 C1 2.97 1 5.94 1 9 C1.99 9.33 2.98 9.66 4 10 C1.03 9.505 1.03 9.505 -2 9 C-1.34 6.03 -0.68 3.06 0 0 Z " fill="#663B2B" transform="translate(40,124)"/>
<path d="M0 0 C1.32 0 2.64 0 4 0 C4 1.65 4 3.3 4 5 C2.68 5 1.36 5 0 5 C-0.5625 3.0625 -0.5625 3.0625 -1 1 C-0.67 0.67 -0.34 0.34 0 0 Z " fill="#F1B020" transform="translate(102,36)"/>
<path d="M0 0 C1.32 0 2.64 0 4 0 C4 0.99 4 1.98 4 3 C3.01 3 2.02 3 1 3 C1 3.99 1 4.98 1 6 C0.01 6 -0.98 6 -2 6 C-2 5.01 -2 4.02 -2 3 C-1.34 3 -0.68 3 0 3 C0 2.01 0 1.02 0 0 Z " fill="#634F29" transform="translate(32,10)"/>
<path d="M0 0 C1.32 0 2.64 0 4 0 C4 1.65 4 3.3 4 5 C2.68 5 1.36 5 0 5 C0 3.35 0 1.7 0 0 Z " fill="#AD6F10" transform="translate(19,176)"/>
<path d="M0 0 C2 3 2 3 2 7 C1.34 7 0.68 7 0 7 C-2 5 -2 5 -3 3 C-2.01 2.01 -1.02 1.02 0 0 Z " fill="#4A2615" transform="translate(30,159)"/>
<path d="M0 0 C0.33 0 0.66 0 1 0 C1.33 3.3 1.66 6.6 2 10 C2.66 10 3.32 10 4 10 C4 10.99 4 11.98 4 13 C3.01 13 2.02 13 1 13 C0.67 8.71 0.34 4.42 0 0 Z " fill="#E0981D" transform="translate(20,56)"/>
<path d="M0 0 C2.31 0 4.62 0 7 0 C7 0.99 7 1.98 7 3 C4.69 3 2.38 3 0 3 C0 2.01 0 1.02 0 0 Z " fill="#E8B036" transform="translate(44,10)"/>
<path d="M0 0 C0.66 0.33 1.32 0.66 2 1 C2 1.66 2 2.32 2 3 C2.66 3.33 3.32 3.66 4 4 C3.34 4 2.68 4 2 4 C2 5.98 2 7.96 2 10 C1.67 10 1.34 10 1 10 C0.87625 9.030625 0.7525 8.06125 0.625 7.0625 C0.41875 6.051875 0.2125 5.04125 0 4 C-0.66 3.67 -1.32 3.34 -2 3 C-2 2.34 -2 1.68 -2 1 C-1.34 0.67 -0.68 0.34 0 0 Z " fill="#63423A" transform="translate(28,163)"/>
<path d="M0 0 C0.66 0 1.32 0 2 0 C2 1.65 2 3.3 2 5 C2.99 5.33 3.98 5.66 5 6 C4.01 6 3.02 6 2 6 C2 6.66 2 7.32 2 8 C1.34 8 0.68 8 0 8 C0 5.36 0 2.72 0 0 Z " fill="#995B18" transform="translate(39,90)"/>
<path d="M0 0 C1.32 0 2.64 0 4 0 C3.67 3.63 3.34 7.26 3 11 C2.67 11 2.34 11 2 11 C1.77213542 9.01432292 1.54427083 7.02864583 1.31640625 5.04296875 C1.02829265 2.80603607 1.02829265 2.80603607 0 0 Z " fill="#E8F6F8" transform="translate(44,49)"/>
<path d="M0 0 C0 0.66 0 1.32 0 2 C-0.99 2 -1.98 2 -3 2 C-3 2.99 -3 3.98 -3 5 C-3.66 5 -4.32 5 -5 5 C-5.33 5.99 -5.66 6.98 -6 8 C-5.74438677 5.6568787 -5.40729228 3.32156597 -5 1 C-3 0 -3 0 0 0 Z " fill="#E1AA29" transform="translate(44,13)"/>
<path d="M0 0 C0.99 0 1.98 0 3 0 C3 1.98 3 3.96 3 6 C2.01 6 1.02 6 0 6 C0 4.02 0 2.04 0 0 Z " fill="#2F1E16" transform="translate(41,127)"/>
<path d="M0 0 C0.66 0 1.32 0 2 0 C2 0.66 2 1.32 2 2 C2.99 2 3.98 2 5 2 C5 2.66 5 3.32 5 4 C3.35 4.66 1.7 5.32 0 6 C-1.125 2.25 -1.125 2.25 0 0 Z " fill="#5A3918" transform="translate(39,75)"/>
<path d="M0 0 C0.99 0 1.98 0 3 0 C3 1.98 3 3.96 3 6 C2.01 6 1.02 6 0 6 C0 4.02 0 2.04 0 0 Z " fill="#90A4AC" transform="translate(88,63)"/>
<path d="M0 0 C0.99 0 1.98 0 3 0 C3 1.98 3 3.96 3 6 C2.01 6 1.02 6 0 6 C0 4.02 0 2.04 0 0 Z " fill="#A76810" transform="translate(104,63)"/>
<path d="M0 0 C0.99 0 1.98 0 3 0 C3 1.98 3 3.96 3 6 C2.01 6 1.02 6 0 6 C0 4.02 0 2.04 0 0 Z " fill="#96B6B6" transform="translate(36,63)"/>
<path d="M0 0 C0.99 0 1.98 0 3 0 C3 1.98 3 3.96 3 6 C2.01 6 1.02 6 0 6 C0 4.02 0 2.04 0 0 Z " fill="#D6A231" transform="translate(99,57)"/>
<path d="M0 0 C0.33 0.99 0.66 1.98 1 3 C1.66 3 2.32 3 3 3 C3 4.65 3 6.3 3 8 C2.01 8 1.02 8 0 8 C0 5.36 0 2.72 0 0 Z " fill="#A06D21" transform="translate(32,24)"/>
<path d="M0 0 C1.98 0.99 1.98 0.99 4 2 C3.67 2.66 3.34 3.32 3 4 C2.34 4 1.68 4 1 4 C1 5.32 1 6.64 1 8 C1.66 8.33 2.32 8.66 3 9 C2.01 9 1.02 9 0 9 C0 6.03 0 3.06 0 0 Z " fill="#DA941D" transform="translate(96,24)"/>
<path d="M0 0 C0.66 0 1.32 0 2 0 C2 1.65 2 3.3 2 5 C0.35 5.33 -1.3 5.66 -3 6 C-3 5.01 -3 4.02 -3 3 C-2.01 3 -1.02 3 0 3 C0 2.01 0 1.02 0 0 Z " fill="#985410" transform="translate(36,21)"/>
<path d="M0 0 C1.98 0 3.96 0 6 0 C6 0.99 6 1.98 6 3 C4.02 3 2.04 3 0 3 C0 2.01 0 1.02 0 0 Z " fill="#839DA1" transform="translate(76,21)"/>
<path d="M0 0 C2.475 0.99 2.475 0.99 5 2 C5 2.33 5 2.66 5 3 C3.35 3 1.7 3 0 3 C0 3.66 0 4.32 0 5 C-0.99 5 -1.98 5 -3 5 C-3 4.01 -3 3.02 -3 2 C-2.01 2 -1.02 2 0 2 C0 1.34 0 0.68 0 0 Z " fill="#623412" transform="translate(39,117)"/>
<path d="M0 0 C1.65 0 3.3 0 5 0 C5 0.99 5 1.98 5 3 C3.02 3 1.04 3 -1 3 C-0.67 2.01 -0.34 1.02 0 0 Z " fill="#D49927" transform="translate(83,87)"/>
<path d="M0 0 C-0.99 0.495 -0.99 0.495 -2 1 C-2 1.66 -2 2.32 -2 3 C-3.98 3 -5.96 3 -8 3 C-8 2.34 -8 1.68 -8 1 C-5.07175348 0.02391783 -3.04386724 -0.08226668 0 0 Z " fill="#E1A231" transform="translate(93,84)"/>
<path d="M0 0 C2.31 0 4.62 0 7 0 C7 0.99 7 1.98 7 3 C5.35 3 3.7 3 2 3 C2 2.34 2 1.68 2 1 C1.34 0.67 0.68 0.34 0 0 Z " fill="#FAD25D" transform="translate(78,7)"/>
</svg>
