<?xml version="1.0" encoding="UTF-8"?>
<svg version="1.1" xmlns="http://www.w3.org/2000/svg" width="60" height="144">
<path d="M0 0 C1.10923828 -0.00386719 2.21847656 -0.00773438 3.36132812 -0.01171875 C4.51955078 -0.00011719 5.67777344 0.01148437 6.87109375 0.0234375 C8.03318359 0.01183594 9.19527344 0.00023438 10.39257812 -0.01171875 C11.50052734 -0.00785156 12.60847656 -0.00398437 13.75 0 C15.27669312 0.00507568 15.27669312 0.00507568 16.83422852 0.01025391 C17.65076904 0.13835449 18.46730957 0.26645508 19.30859375 0.3984375 C21.59873028 3.8336423 21.48702348 5.3837685 21.30859375 9.3984375 C24.27859375 9.3984375 27.24859375 9.3984375 30.30859375 9.3984375 C30.30859375 10.3884375 30.30859375 11.3784375 30.30859375 12.3984375 C31.29859375 12.3984375 32.28859375 12.3984375 33.30859375 12.3984375 C33.30859375 15.3684375 33.30859375 18.3384375 33.30859375 21.3984375 C32.31859375 21.3984375 31.32859375 21.3984375 30.30859375 21.3984375 C30.39238281 22.02492188 30.47617187 22.65140625 30.5625 23.296875 C30.66433594 24.11414063 30.76617187 24.93140625 30.87109375 25.7734375 C31.02771484 26.99160156 31.02771484 26.99160156 31.1875 28.234375 C31.30859375 30.3984375 31.30859375 30.3984375 30.30859375 32.3984375 C29.31859375 32.3984375 28.32859375 32.3984375 27.30859375 32.3984375 C27.30859375 37.0184375 27.30859375 41.6384375 27.30859375 46.3984375 C26.64859375 46.3984375 25.98859375 46.3984375 25.30859375 46.3984375 C25.30859375 52.0084375 25.30859375 57.6184375 25.30859375 63.3984375 C26.29859375 63.3984375 27.28859375 63.3984375 28.30859375 63.3984375 C28.61796875 62.5940625 28.92734375 61.7896875 29.24609375 60.9609375 C30.30859375 58.3984375 30.30859375 58.3984375 31.30859375 57.3984375 C33.64156808 57.35750813 35.975646 57.35602027 38.30859375 57.3984375 C39.71825394 61.97983313 40.01300924 65.85543214 37.99609375 70.2734375 C37.43921875 70.9746875 36.88234375 71.6759375 36.30859375 72.3984375 C35.31859375 72.3984375 34.32859375 72.3984375 33.30859375 72.3984375 C33.30859375 73.7184375 33.30859375 75.0384375 33.30859375 76.3984375 C34.29859375 76.7284375 35.28859375 77.0584375 36.30859375 77.3984375 C36.30859375 78.0584375 36.30859375 78.7184375 36.30859375 79.3984375 C37.29859375 79.3984375 38.28859375 79.3984375 39.30859375 79.3984375 C39.33548591 80.87750642 39.35493996 82.35671233 39.37109375 83.8359375 C39.38269531 84.65964844 39.39429688 85.48335938 39.40625 86.33203125 C39.30859375 88.3984375 39.30859375 88.3984375 38.30859375 89.3984375 C36.62250409 89.47049261 34.93358716 89.48229818 33.24609375 89.4609375 C31.86744141 89.44740234 31.86744141 89.44740234 30.4609375 89.43359375 C29.39552734 89.41619141 29.39552734 89.41619141 28.30859375 89.3984375 C28.30859375 87.4184375 28.30859375 85.4384375 28.30859375 83.3984375 C27.64859375 83.3984375 26.98859375 83.3984375 26.30859375 83.3984375 C25.97859375 88.3484375 25.64859375 93.2984375 25.30859375 98.3984375 C25.96859375 98.3984375 26.62859375 98.3984375 27.30859375 98.3984375 C27.30859375 101.3684375 27.30859375 104.3384375 27.30859375 107.3984375 C28.29859375 107.7284375 29.28859375 108.0584375 30.30859375 108.3984375 C30.30859375 111.0384375 30.30859375 113.6784375 30.30859375 116.3984375 C31.29859375 116.3984375 32.28859375 116.3984375 33.30859375 116.3984375 C33.30859375 121.3484375 33.30859375 126.2984375 33.30859375 131.3984375 C32.64859375 131.3984375 31.98859375 131.3984375 31.30859375 131.3984375 C30.97859375 132.3884375 30.64859375 133.3784375 30.30859375 134.3984375 C27.39820479 135.8143024 24.46209175 136.69766017 21.30859375 137.3984375 C21.30859375 138.0584375 21.30859375 138.7184375 21.30859375 139.3984375 C20.64859375 139.3984375 19.98859375 139.3984375 19.30859375 139.3984375 C19.30859375 140.3884375 19.30859375 141.3784375 19.30859375 142.3984375 C11.71859375 142.3984375 4.12859375 142.3984375 -3.69140625 142.3984375 C-3.69140625 141.4084375 -3.69140625 140.4184375 -3.69140625 139.3984375 C-4.35140625 139.3984375 -5.01140625 139.3984375 -5.69140625 139.3984375 C-5.69140625 138.7384375 -5.69140625 138.0784375 -5.69140625 137.3984375 C-6.68140625 137.3984375 -7.67140625 137.3984375 -8.69140625 137.3984375 C-9.02140625 136.4084375 -9.35140625 135.4184375 -9.69140625 134.3984375 C-12.66140625 134.3984375 -15.63140625 134.3984375 -18.69140625 134.3984375 C-18.69140625 133.4084375 -18.69140625 132.4184375 -18.69140625 131.3984375 C-19.35140625 131.3984375 -20.01140625 131.3984375 -20.69140625 131.3984375 C-20.69140625 128.4284375 -20.69140625 125.4584375 -20.69140625 122.3984375 C-19.70140625 121.9034375 -19.70140625 121.9034375 -18.69140625 121.3984375 C-18.03585506 118.87110515 -18.03585506 118.87110515 -17.69140625 116.3984375 C-16.70140625 116.3984375 -15.71140625 116.3984375 -14.69140625 116.3984375 C-14.69140625 111.4484375 -14.69140625 106.4984375 -14.69140625 101.3984375 C-13.20640625 100.9034375 -13.20640625 100.9034375 -11.69140625 100.3984375 C-11.80479829 97.75162846 -11.93153498 95.10666232 -12.06640625 92.4609375 C-12.09734375 91.70619141 -12.12828125 90.95144531 -12.16015625 90.17382812 C-12.26403775 88.24336355 -12.47036239 86.31901669 -12.69140625 84.3984375 C-13.35140625 84.0684375 -14.01140625 83.7384375 -14.69140625 83.3984375 C-14.69140625 76.7984375 -14.69140625 70.1984375 -14.69140625 63.3984375 C-13.70140625 63.3984375 -12.71140625 63.3984375 -11.69140625 63.3984375 C-11.80485001 61.2519622 -11.9324697 59.10623158 -12.06640625 56.9609375 C-12.13601563 55.76597656 -12.205625 54.57101563 -12.27734375 53.33984375 C-12.41398438 52.36917969 -12.550625 51.39851563 -12.69140625 50.3984375 C-13.35140625 50.0684375 -14.01140625 49.7384375 -14.69140625 49.3984375 C-14.69140625 43.7884375 -14.69140625 38.1784375 -14.69140625 32.3984375 C-15.68140625 32.3984375 -16.67140625 32.3984375 -17.69140625 32.3984375 C-17.69140625 28.7684375 -17.69140625 25.1384375 -17.69140625 21.3984375 C-18.68140625 21.3984375 -19.67140625 21.3984375 -20.69140625 21.3984375 C-20.69140625 17.4384375 -20.69140625 13.4784375 -20.69140625 9.3984375 C-19.70140625 9.3984375 -18.71140625 9.3984375 -17.69140625 9.3984375 C-17.69140625 8.4084375 -17.69140625 7.4184375 -17.69140625 6.3984375 C-15.3584585 6.35602027 -13.02438058 6.35750813 -10.69140625 6.3984375 C-10.36140625 6.7284375 -10.03140625 7.0584375 -9.69140625 7.3984375 C-9.58828125 6.8003125 -9.48515625 6.2021875 -9.37890625 5.5859375 C-7.79011819 0.53070276 -4.98650846 0.01655992 0 0 Z " fill="#CFB28E" transform="translate(20.69140625,0.6015625)"/>
<path d="M0 0 C1.10923828 -0.00386719 2.21847656 -0.00773438 3.36132812 -0.01171875 C4.51955078 -0.00011719 5.67777344 0.01148437 6.87109375 0.0234375 C8.03318359 0.01183594 9.19527344 0.00023438 10.39257812 -0.01171875 C11.50052734 -0.00785156 12.60847656 -0.00398437 13.75 0 C15.27669312 0.00507568 15.27669312 0.00507568 16.83422852 0.01025391 C17.65076904 0.13835449 18.46730957 0.26645508 19.30859375 0.3984375 C21.59873028 3.8336423 21.48702348 5.3837685 21.30859375 9.3984375 C24.27859375 9.3984375 27.24859375 9.3984375 30.30859375 9.3984375 C30.30859375 10.3884375 30.30859375 11.3784375 30.30859375 12.3984375 C31.29859375 12.3984375 32.28859375 12.3984375 33.30859375 12.3984375 C33.30859375 15.3684375 33.30859375 18.3384375 33.30859375 21.3984375 C32.31859375 21.3984375 31.32859375 21.3984375 30.30859375 21.3984375 C30.39238281 22.02492188 30.47617187 22.65140625 30.5625 23.296875 C30.66433594 24.11414063 30.76617187 24.93140625 30.87109375 25.7734375 C31.02771484 26.99160156 31.02771484 26.99160156 31.1875 28.234375 C31.30859375 30.3984375 31.30859375 30.3984375 30.30859375 32.3984375 C29.31859375 32.3984375 28.32859375 32.3984375 27.30859375 32.3984375 C27.30859375 37.0184375 27.30859375 41.6384375 27.30859375 46.3984375 C26.64859375 46.3984375 25.98859375 46.3984375 25.30859375 46.3984375 C25.30859375 52.0084375 25.30859375 57.6184375 25.30859375 63.3984375 C26.29859375 63.3984375 27.28859375 63.3984375 28.30859375 63.3984375 C28.80359375 62.4084375 28.80359375 62.4084375 29.30859375 61.3984375 C29.30859375 62.3884375 29.30859375 63.3784375 29.30859375 64.3984375 C27.32859375 64.3984375 25.34859375 64.3984375 23.30859375 64.3984375 C23.30859375 58.4584375 23.30859375 52.5184375 23.30859375 46.3984375 C22.64859375 46.3984375 21.98859375 46.3984375 21.30859375 46.3984375 C21.30859375 52.3384375 21.30859375 58.2784375 21.30859375 64.3984375 C11.73859375 64.3984375 2.16859375 64.3984375 -7.69140625 64.3984375 C-7.69140625 59.1184375 -7.69140625 53.8384375 -7.69140625 48.3984375 C-8.68140625 48.3984375 -9.67140625 48.3984375 -10.69140625 48.3984375 C-10.69140625 53.6784375 -10.69140625 58.9584375 -10.69140625 64.3984375 C-11.68140625 64.3984375 -12.67140625 64.3984375 -13.69140625 64.3984375 C-13.69140625 67.0384375 -13.69140625 69.6784375 -13.69140625 72.3984375 C-14.02140625 72.3984375 -14.35140625 72.3984375 -14.69140625 72.3984375 C-14.69140625 69.4284375 -14.69140625 66.4584375 -14.69140625 63.3984375 C-13.70140625 63.3984375 -12.71140625 63.3984375 -11.69140625 63.3984375 C-11.80485001 61.2519622 -11.9324697 59.10623158 -12.06640625 56.9609375 C-12.13601563 55.76597656 -12.205625 54.57101563 -12.27734375 53.33984375 C-12.41398438 52.36917969 -12.550625 51.39851563 -12.69140625 50.3984375 C-13.35140625 50.0684375 -14.01140625 49.7384375 -14.69140625 49.3984375 C-14.69140625 43.7884375 -14.69140625 38.1784375 -14.69140625 32.3984375 C-15.68140625 32.3984375 -16.67140625 32.3984375 -17.69140625 32.3984375 C-17.69140625 28.7684375 -17.69140625 25.1384375 -17.69140625 21.3984375 C-18.68140625 21.3984375 -19.67140625 21.3984375 -20.69140625 21.3984375 C-20.69140625 17.4384375 -20.69140625 13.4784375 -20.69140625 9.3984375 C-19.70140625 9.3984375 -18.71140625 9.3984375 -17.69140625 9.3984375 C-17.69140625 8.4084375 -17.69140625 7.4184375 -17.69140625 6.3984375 C-15.3584585 6.35602027 -13.02438058 6.35750813 -10.69140625 6.3984375 C-10.36140625 6.7284375 -10.03140625 7.0584375 -9.69140625 7.3984375 C-9.58828125 6.8003125 -9.48515625 6.2021875 -9.37890625 5.5859375 C-7.79011819 0.53070276 -4.98650846 0.01655992 0 0 Z " fill="#BD8F5A" transform="translate(20.69140625,0.6015625)"/>
<path d="M0 0 C0.66 0 1.32 0 2 0 C2 5.94 2 11.88 2 18 C3.98 18 5.96 18 8 18 C8.144375 17.030625 8.28875 16.06125 8.4375 15.0625 C9 12 9 12 10 11 C12.33297433 10.95907063 14.66705225 10.95758277 17 11 C18.40966019 15.58139563 18.70441549 19.45699464 16.6875 23.875 C16.130625 24.57625 15.57375 25.2775 15 26 C14.01 26 13.02 26 12 26 C12 27.32 12 28.64 12 30 C12.66 30 13.32 30 14 30 C14 31.32 14 32.64 14 34 C14.66 34 15.32 34 16 34 C16 36.64 16 39.28 16 42 C13.36 42 10.72 42 8 42 C8 40.02 8 38.04 8 36 C7.34 36 6.68 36 6 36 C6 35.34 6 34.68 6 34 C5.01 34 4.02 34 3 34 C3 40.27 3 46.54 3 53 C3.66 53 4.32 53 5 53 C5 55.97 5 58.94 5 62 C4.01 62 3.02 62 2 62 C2 59.03 2 56.06 2 53 C1.34 53 0.68 53 0 53 C0 46.73 0 40.46 0 34 C-1.65 34 -3.3 34 -5 34 C-5 33.01 -5 32.02 -5 31 C-9.29 31 -13.58 31 -18 31 C-18 31.99 -18 32.98 -18 34 C-20.64 34 -23.28 34 -26 34 C-26 34.99 -26 35.98 -26 37 C-26.99 37 -27.98 37 -29 37 C-29 42.94 -29 48.88 -29 55 C-29.99 55 -30.98 55 -32 55 C-32 48.73 -32 42.46 -32 36 C-32.99 36 -33.98 36 -35 36 C-35 33.36 -35 30.72 -35 28 C-34.01 28 -33.02 28 -32 28 C-32 27.34 -32 26.68 -32 26 C-32.99 26 -33.98 26 -35 26 C-35 23.36 -35 20.72 -35 18 C-34.01 18 -33.02 18 -32 18 C-32 12.72 -32 7.44 -32 2 C-31.01 2 -30.02 2 -29 2 C-29 7.28 -29 12.56 -29 18 C-19.43 18 -9.86 18 0 18 C0 12.06 0 6.12 0 0 Z " fill="#4E260F" transform="translate(42,47)"/>
<path d="M0 0 C2.97 0 5.94 0 9 0 C9 0.99 9 1.98 9 3 C9.99 3 10.98 3 12 3 C12 5.97 12 8.94 12 12 C11.67 12 11.34 12 11 12 C11 9.36 11 6.72 11 4 C10.01 4 9.02 4 8 4 C8 5.65 8 7.3 8 9 C5 8 5 8 3 7 C3 9.64 3 12.28 3 15 C2.01 15 1.02 15 0 15 C0 21.93 0 28.86 0 36 C-0.99 36 -1.98 36 -3 36 C-3.66 41.94 -4.32 47.88 -5 54 C-11.27 54 -17.54 54 -24 54 C-24 53.34 -24 52.68 -24 52 C-24.66 52 -25.32 52 -26 52 C-26 46.06 -26 40.12 -26 34 C-25.34 34 -24.68 34 -24 34 C-24 25.75 -24 17.5 -24 9 C-17.73 9 -11.46 9 -5 9 C-5 12.63 -5 16.26 -5 20 C-4.34 20 -3.68 20 -3 20 C-3 17.36 -3 14.72 -3 12 C-2.01 12 -1.02 12 0 12 C0 10.02 0 8.04 0 6 C1.98 6 3.96 6 6 6 C6 5.01 6 4.02 6 3 C6.66 3 7.32 3 8 3 C8 2.34 8 1.68 8 1 C5.36 1 2.72 1 0 1 C0 0.67 0 0.34 0 0 Z " fill="#F7D994" transform="translate(42,10)"/>
<path d="M0 0 C0.99 0 1.98 0 3 0 C3.33 3.63 3.66 7.26 4 11 C4.66 10.67 5.32 10.34 6 10 C5.67 12.31 5.34 14.62 5 17 C4.01 17.33 3.02 17.66 2 18 C1.34 17.67 0.68 17.34 0 17 C0 19.64 0 22.28 0 25 C0.66 25 1.32 25 2 25 C2 24.34 2 23.68 2 23 C2.99 23 3.98 23 5 23 C5 22.01 5 21.02 5 20 C5.99 20 6.98 20 8 20 C8 18.35 8 16.7 8 15 C8.99 15 9.98 15 11 15 C11 16.65 11 18.3 11 20 C17.93 20 24.86 20 32 20 C31.2981424 13.59628479 31.2981424 13.59628479 30 10 C30.66 10 31.32 10 32 10 C32 10.66 32 11.32 32 12 C32.99 12 33.98 12 35 12 C35 15.63 35 19.26 35 23 C35.99 23 36.98 23 38 23 C38 23.99 38 24.98 38 26 C39.65 26 41.3 26 43 26 C43 23.03 43 20.06 43 17 C42.34 17 41.68 17 41 17 C41 13.7 41 10.4 41 7 C41.66 7 42.32 7 43 7 C43 9.64 43 12.28 43 15 C43.99 15 44.98 15 46 15 C46 19.29 46 23.58 46 28 C45.01 28 44.02 28 43 28 C43 28.99 43 29.98 43 31 C41.35 31 39.7 31 38 31 C38 32.32 38 33.64 38 35 C37.01 35 36.02 35 35 35 C35 35.66 35 36.32 35 37 C34.34 37 33.68 37 33 37 C33 37.99 33 38.98 33 40 C25.41 40 17.82 40 10 40 C10 39.01 10 38.02 10 37 C9.34 37 8.68 37 8 37 C8 36.34 8 35.68 8 35 C7.01 35 6.02 35 5 35 C5 33.02 5 31.04 5 29 C4.34 29 3.68 29 3 29 C3 29.66 3 30.32 3 31 C1.02 31 -0.96 31 -3 31 C-3 30.01 -3 29.02 -3 28 C-3.99 28 -4.98 28 -6 28 C-6 25.69 -6 23.38 -6 21 C-5.01 21 -4.02 21 -3 21 C-3 19.02 -3 17.04 -3 15 C-2.01 15 -1.02 15 0 15 C0 10.05 0 5.1 0 0 Z " fill="#B08D64" transform="translate(7,103)"/>
<path d="M0 0 C1.25425781 0.00902344 2.50851563 0.01804687 3.80078125 0.02734375 C4.75339844 0.03894531 5.70601562 0.05054687 6.6875 0.0625 C6.67589844 1.36703125 6.66429688 2.6715625 6.65234375 4.015625 C6.41714418 18.08067813 6.41714418 18.08067813 7.6875 32.0625 C8.1825 32.5575 8.1825 32.5575 8.6875 33.0625 C8.6875 35.3725 8.6875 37.6825 8.6875 40.0625 C2.0875 40.0625 -4.5125 40.0625 -11.3125 40.0625 C-11.3125 38.4125 -11.3125 36.7625 -11.3125 35.0625 C-10.6525 35.0625 -9.9925 35.0625 -9.3125 35.0625 C-9.3125 30.1125 -9.3125 25.1625 -9.3125 20.0625 C-10.3025 20.0625 -11.2925 20.0625 -12.3125 20.0625 C-12.3125 22.0425 -12.3125 24.0225 -12.3125 26.0625 C-13.3025 26.0625 -14.2925 26.0625 -15.3125 26.0625 C-15.19803375 23.02010755 -15.07129267 19.97905331 -14.9375 16.9375 C-14.9065625 16.0815625 -14.875625 15.225625 -14.84375 14.34375 C-14.62364982 9.5749128 -14.12089517 5.54673193 -12.3125 1.0625 C-8.15623632 0.05323521 -4.26884906 -0.03989579 0 0 Z " fill="#EEC980" transform="translate(30.3125,82.9375)"/>
<path d="M0 0 C1.11826172 0.00966797 2.23652344 0.01933594 3.38867188 0.02929688 C5.13954102 0.06700195 5.13954102 0.06700195 6.92578125 0.10546875 C8.10462891 0.11900391 9.28347656 0.13253906 10.49804688 0.14648438 C13.41191536 0.18187549 16.3248707 0.23125066 19.23828125 0.29296875 C19.89828125 1.61296875 20.55828125 2.93296875 21.23828125 4.29296875 C20.24828125 4.29296875 19.25828125 4.29296875 18.23828125 4.29296875 C18.23828125 3.63296875 18.23828125 2.97296875 18.23828125 2.29296875 C10.64828125 2.29296875 3.05828125 2.29296875 -4.76171875 2.29296875 C-4.76171875 2.95296875 -4.76171875 3.61296875 -4.76171875 4.29296875 C2.16828125 4.29296875 9.09828125 4.29296875 16.23828125 4.29296875 C16.23828125 5.28296875 16.23828125 6.27296875 16.23828125 7.29296875 C16.89828125 7.29296875 17.55828125 7.29296875 18.23828125 7.29296875 C18.23828125 8.94296875 18.23828125 10.59296875 18.23828125 12.29296875 C17.57828125 12.29296875 16.91828125 12.29296875 16.23828125 12.29296875 C16.23828125 11.63296875 16.23828125 10.97296875 16.23828125 10.29296875 C14.58828125 10.29296875 12.93828125 10.29296875 11.23828125 10.29296875 C11.23828125 9.30296875 11.23828125 8.31296875 11.23828125 7.29296875 C7.60828125 7.29296875 3.97828125 7.29296875 0.23828125 7.29296875 C0.23828125 8.28296875 0.23828125 9.27296875 0.23828125 10.29296875 C-0.75171875 10.29296875 -1.74171875 10.29296875 -2.76171875 10.29296875 C-2.76171875 11.28296875 -2.76171875 12.27296875 -2.76171875 13.29296875 C-1.11171875 13.29296875 0.53828125 13.29296875 2.23828125 13.29296875 C2.23828125 12.63296875 2.23828125 11.97296875 2.23828125 11.29296875 C3.22828125 11.29296875 4.21828125 11.29296875 5.23828125 11.29296875 C5.23828125 11.95296875 5.23828125 12.61296875 5.23828125 13.29296875 C8.53828125 13.29296875 11.83828125 13.29296875 15.23828125 13.29296875 C15.23828125 13.95296875 15.23828125 14.61296875 15.23828125 15.29296875 C8.30828125 15.29296875 1.37828125 15.29296875 -5.76171875 15.29296875 C-5.76171875 11.99296875 -5.76171875 8.69296875 -5.76171875 5.29296875 C-6.42171875 5.29296875 -7.08171875 5.29296875 -7.76171875 5.29296875 C-7.76171875 6.94296875 -7.76171875 8.59296875 -7.76171875 10.29296875 C-8.75171875 10.29296875 -9.74171875 10.29296875 -10.76171875 10.29296875 C-10.76171875 12.93296875 -10.76171875 15.57296875 -10.76171875 18.29296875 C-9.77171875 18.29296875 -8.78171875 18.29296875 -7.76171875 18.29296875 C-7.76171875 20.93296875 -7.76171875 23.57296875 -7.76171875 26.29296875 C-7.10171875 26.29296875 -6.44171875 26.29296875 -5.76171875 26.29296875 C-5.76171875 23.65296875 -5.76171875 21.01296875 -5.76171875 18.29296875 C-5.43171875 18.29296875 -5.10171875 18.29296875 -4.76171875 18.29296875 C-4.76171875 21.26296875 -4.76171875 24.23296875 -4.76171875 27.29296875 C-5.75171875 27.29296875 -6.74171875 27.29296875 -7.76171875 27.29296875 C-7.76171875 29.93296875 -7.76171875 32.57296875 -7.76171875 35.29296875 C-8.42171875 35.29296875 -9.08171875 35.29296875 -9.76171875 35.29296875 C-10.09171875 44.86296875 -10.42171875 54.43296875 -10.76171875 64.29296875 C-11.75171875 64.29296875 -12.74171875 64.29296875 -13.76171875 64.29296875 C-13.76171875 66.93296875 -13.76171875 69.57296875 -13.76171875 72.29296875 C-14.09171875 72.29296875 -14.42171875 72.29296875 -14.76171875 72.29296875 C-14.76171875 69.32296875 -14.76171875 66.35296875 -14.76171875 63.29296875 C-13.77171875 63.29296875 -12.78171875 63.29296875 -11.76171875 63.29296875 C-11.87516251 61.14649345 -12.0027822 59.00076283 -12.13671875 56.85546875 C-12.20632813 55.66050781 -12.2759375 54.46554688 -12.34765625 53.234375 C-12.48429688 52.26371094 -12.6209375 51.29304688 -12.76171875 50.29296875 C-13.42171875 49.96296875 -14.08171875 49.63296875 -14.76171875 49.29296875 C-14.76171875 43.68296875 -14.76171875 38.07296875 -14.76171875 32.29296875 C-15.75171875 32.29296875 -16.74171875 32.29296875 -17.76171875 32.29296875 C-17.76171875 28.66296875 -17.76171875 25.03296875 -17.76171875 21.29296875 C-18.75171875 21.29296875 -19.74171875 21.29296875 -20.76171875 21.29296875 C-20.76171875 17.33296875 -20.76171875 13.37296875 -20.76171875 9.29296875 C-19.77171875 9.29296875 -18.78171875 9.29296875 -17.76171875 9.29296875 C-17.76171875 8.30296875 -17.76171875 7.31296875 -17.76171875 6.29296875 C-15.428771 6.25055152 -13.09469308 6.25203938 -10.76171875 6.29296875 C-10.43171875 6.62296875 -10.10171875 6.95296875 -9.76171875 7.29296875 C-9.65859375 6.69484375 -9.55546875 6.09671875 -9.44921875 5.48046875 C-7.84191796 0.36632989 -5.03437234 -0.07666557 0 0 Z " fill="#C3A888" transform="translate(20.76171875,0.70703125)"/>
<path d="M0 0 C2.97 0 5.94 0 9 0 C9 0.99 9 1.98 9 3 C9.99 3 10.98 3 12 3 C12 5.97 12 8.94 12 12 C11.67 12 11.34 12 11 12 C11 9.36 11 6.72 11 4 C10.01 4 9.02 4 8 4 C8 5.65 8 7.3 8 9 C5 8 5 8 3 7 C3 9.64 3 12.28 3 15 C2.01 15 1.02 15 0 15 C0 21.93 0 28.86 0 36 C-0.99 36 -1.98 36 -3 36 C-3.66 41.94 -4.32 47.88 -5 54 C-11.27 54 -17.54 54 -24 54 C-24 53.34 -24 52.68 -24 52 C-24.66 52 -25.32 52 -26 52 C-26 47.05 -26 42.1 -26 37 C-24 39 -24 39 -23.8046875 40.9453125 C-23.86979167 42.96354167 -23.93489583 44.98177083 -24 47 C-19.99799622 48.60080151 -16.95443764 47.29279692 -13 46 C-13 44.68 -13 43.36 -13 42 C-12.01 42 -11.02 42 -10 42 C-10 41.01 -10 40.02 -10 39 C-8.35 39 -6.7 39 -5 39 C-5 35.37 -5 31.74 -5 28 C-5.66 28 -6.32 28 -7 28 C-7 25.36 -7 22.72 -7 20 C-7.99 19.67 -8.98 19.34 -10 19 C-10 15.7 -10 12.4 -10 9 C-8.35 9 -6.7 9 -5 9 C-5 12.63 -5 16.26 -5 20 C-4.34 20 -3.68 20 -3 20 C-3 17.36 -3 14.72 -3 12 C-2.01 12 -1.02 12 0 12 C0 10.02 0 8.04 0 6 C1.98 6 3.96 6 6 6 C6 5.01 6 4.02 6 3 C6.66 3 7.32 3 8 3 C8 2.34 8 1.68 8 1 C5.36 1 2.72 1 0 1 C0 0.67 0 0.34 0 0 Z " fill="#D9AE6B" transform="translate(42,10)"/>
<path d="M0 0 C0.66 0 1.32 0 2 0 C2 2.64 2 5.28 2 8 C2.99 8 3.98 8 5 8 C5 12.29 5 16.58 5 21 C4.01 21 3.02 21 2 21 C2 21.99 2 22.98 2 24 C0.35 24 -1.3 24 -3 24 C-3 24.99 -3 25.98 -3 27 C-3.99 27 -4.98 27 -6 27 C-6 26.01 -6 25.02 -6 24 C-5.34 24 -4.68 24 -4 24 C-4 22.35 -4 20.7 -4 19 C-5.65 19 -7.3 19 -9 19 C-9 20.65 -9 22.3 -9 24 C-11.31 24 -13.62 24 -16 24 C-16 24.99 -16 25.98 -16 27 C-19.63 27 -23.26 27 -27 27 C-27 26.01 -27 25.02 -27 24 C-27.66 24 -28.32 24 -29 24 C-29 23.34 -29 22.68 -29 22 C-27.68 22 -26.36 22 -25 22 C-25 22.66 -25 23.32 -25 24 C-23.68 24 -22.36 24 -21 24 C-21 23.34 -21 22.68 -21 22 C-21.99 22 -22.98 22 -24 22 C-24 21.01 -24 20.02 -24 19 C-21.36 19 -18.72 19 -16 19 C-16 19.99 -16 20.98 -16 22 C-14.35 22 -12.7 22 -11 22 C-11 20.02 -11 18.04 -11 16 C-17.27 16 -23.54 16 -30 16 C-30 16.66 -30 17.32 -30 18 C-30.99 18 -31.98 18 -33 18 C-33 20.97 -33 23.94 -33 27 C-33.66 27 -34.32 27 -35 27 C-35 25.02 -35 23.04 -35 21 C-35.99 21 -36.98 21 -38 21 C-38 20.01 -38 19.02 -38 18 C-37.34 18 -36.68 18 -36 18 C-36 16.35 -36 14.7 -36 13 C-35.01 13 -34.02 13 -33 13 C-33 11.35 -33 9.7 -33 8 C-32.01 8 -31.02 8 -30 8 C-30 9.65 -30 11.3 -30 13 C-23.07 13 -16.14 13 -9 13 C-9.7018576 6.59628479 -9.7018576 6.59628479 -11 3 C-10.34 3 -9.68 3 -9 3 C-9 3.66 -9 4.32 -9 5 C-8.01 5 -7.02 5 -6 5 C-6 8.63 -6 12.26 -6 16 C-5.01 16 -4.02 16 -3 16 C-3 16.99 -3 17.98 -3 19 C-1.35 19 0.3 19 2 19 C2 16.03 2 13.06 2 10 C1.34 10 0.68 10 0 10 C0 6.7 0 3.4 0 0 Z " fill="#72471C" transform="translate(48,110)"/>
<path d="M0 0 C7.59 0 15.18 0 23 0 C23 0.66 23 1.32 23 2 C23.99 2 24.98 2 26 2 C26 3.98 26 5.96 26 8 C28.64 8 31.28 8 34 8 C34 8.66 34 9.32 34 10 C33.34 10 32.68 10 32 10 C32 10.99 32 11.98 32 13 C30.02 13 28.04 13 26 13 C26 14.98 26 16.96 26 19 C25.01 19 24.02 19 23 19 C23 21.64 23 24.28 23 27 C22.34 27 21.68 27 21 27 C21 23.37 21 19.74 21 16 C13.74 16 6.48 16 -1 16 C-1 18.64 -1 21.28 -1 24 C-1.66 24 -2.32 24 -3 24 C-3 21.36 -3 18.72 -3 16 C-3.99 16 -4.98 16 -6 16 C-6 13.36 -6 10.72 -6 8 C-5.01 8 -4.02 8 -3 8 C-3 6.35 -3 4.7 -3 3 C-2.34 3 -1.68 3 -1 3 C-1 6.3 -1 9.6 -1 13 C5.93 13 12.86 13 20 13 C20 12.34 20 11.68 20 11 C16.7 11 13.4 11 10 11 C10 10.34 10 9.68 10 9 C9.01 9 8.02 9 7 9 C7 9.66 7 10.32 7 11 C5.35 11 3.7 11 2 11 C2 10.01 2 9.02 2 8 C2.99 8 3.98 8 5 8 C5 7.01 5 6.02 5 5 C8.63 5 12.26 5 16 5 C16 5.99 16 6.98 16 8 C17.65 8 19.3 8 21 8 C21 8.66 21 9.32 21 10 C21.66 10 22.32 10 23 10 C23 8.35 23 6.7 23 5 C22.34 5 21.68 5 21 5 C21 4.01 21 3.02 21 2 C14.07 2 7.14 2 0 2 C0 1.34 0 0.68 0 0 Z " fill="#653D18" transform="translate(16,3)"/>
<path d="M0 0 C3.625 -0.1875 3.625 -0.1875 7 0 C8.40966019 4.58139563 8.70441549 8.45699464 6.6875 12.875 C6.130625 13.57625 5.57375 14.2775 5 15 C4.01 15 3.02 15 2 15 C2 16.32 2 17.64 2 19 C2.66 19 3.32 19 4 19 C4 20.32 4 21.64 4 23 C4.66 23 5.32 23 6 23 C6 25.64 6 28.28 6 31 C3.36 31 0.72 31 -2 31 C-2 29.02 -2 27.04 -2 25 C-2.66 25 -3.32 25 -4 25 C-4 24.34 -4 23.68 -4 23 C-4.99 23 -5.98 23 -7 23 C-7 29.27 -7 35.54 -7 42 C-6.34 42 -5.68 42 -5 42 C-5 44.97 -5 47.94 -5 51 C-5.99 51 -6.98 51 -8 51 C-9.1922117 41.33456945 -9.09622024 31.71824449 -9 22 C-7.68 22 -6.36 22 -5 22 C-5 20.35 -5 18.7 -5 17 C-4.01 17 -3.02 17 -2 17 C-2 16.34 -2 15.68 -2 15 C-2.99 14.67 -3.98 14.34 -5 14 C-5 12.68 -5 11.36 -5 10 C-4.01 10 -3.02 10 -2 10 C-2.04125 8.906875 -2.0825 7.81375 -2.125 6.6875 C-2 3 -2 3 0 0 Z " fill="#5E3723" transform="translate(52,58)"/>
<path d="M0 0 C3.63 0 7.26 0 11 0 C11 0.66 11 1.32 11 2 C10.01 2 9.02 2 8 2 C8.0870005 3.62600941 8.1951781 5.25089678 8.3125 6.875 C8.39951172 8.23238281 8.39951172 8.23238281 8.48828125 9.6171875 C8.7882039 12.36221601 8.7882039 12.36221601 12 14 C12.328125 16.96875 12.328125 16.96875 12.25 20.5 C12.23453125 21.6653125 12.2190625 22.830625 12.203125 24.03125 C12 27 12 27 11 29 C10.01 29 9.02 29 8 29 C7.67 27.68 7.34 26.36 7 25 C5.02 25.33 3.04 25.66 1 26 C0.67 23.69 0.34 21.38 0 19 C-1.98 18.67 -3.96 18.34 -6 18 C-6 14.37 -6 10.74 -6 7 C-4.35 6.67 -2.7 6.34 -1 6 C-0.67 4.02 -0.34 2.04 0 0 Z " fill="#F9DA95" transform="translate(24,84)"/>
<path d="M0 0 C0.33 0.66 0.66 1.32 1 2 C1.99 2 2.98 2 4 2 C4.02689216 3.47906892 4.04634621 4.95827483 4.0625 6.4375 C4.07410156 7.26121094 4.08570312 8.08492187 4.09765625 8.93359375 C4 11 4 11 3 12 C1.31391034 12.07205511 -0.37500659 12.08386068 -2.0625 12.0625 C-2.98160156 12.05347656 -3.90070312 12.04445313 -4.84765625 12.03515625 C-5.55792969 12.02355469 -6.26820312 12.01195313 -7 12 C-7 10.02 -7 8.04 -7 6 C-7.66 6 -8.32 6 -9 6 C-9.33 10.95 -9.66 15.9 -10 21 C-9.34 21 -8.68 21 -8 21 C-8 23.97 -8 26.94 -8 30 C-7.01 30.33 -6.02 30.66 -5 31 C-5 33.64 -5 36.28 -5 39 C-4.01 39 -3.02 39 -2 39 C-2 43.95 -2 48.9 -2 54 C-2.66 54 -3.32 54 -4 54 C-4.33 54.99 -4.66 55.98 -5 57 C-8.0625 58.1875 -8.0625 58.1875 -11 59 C-11 58.01 -11 57.02 -11 56 C-9.35 56 -7.7 56 -6 56 C-6 55.01 -6 54.02 -6 53 C-5.01 53 -4.02 53 -3 53 C-3 48.71 -3 44.42 -3 40 C-3.99 40 -4.98 40 -6 40 C-6 37.36 -6 34.72 -6 32 C-6.66 32 -7.32 32 -8 32 C-8 35.3 -8 38.6 -8 42 C-7.34 42 -6.68 42 -6 42 C-6 44.97 -6 47.94 -6 51 C-7.65 51 -9.3 51 -11 51 C-11 50.01 -11 49.02 -11 48 C-11.99 48 -12.98 48 -14 48 C-14 47.34 -14 46.68 -14 46 C-12.35 46.33 -10.7 46.66 -9 47 C-9 45.35 -9 43.7 -9 42 C-9.66 42 -10.32 42 -11 42 C-11.33 38.7 -11.66 35.4 -12 32 C-12.66 32 -13.32 32 -14 32 C-14 28.7 -14 25.4 -14 22 C-13.34 22 -12.68 22 -12 22 C-12 24.97 -12 27.94 -12 31 C-11.01 31 -10.02 31 -9 31 C-9 28.03 -9 25.06 -9 22 C-9.66 22 -10.32 22 -11 22 C-11 15.73 -11 9.46 -11 3 C-10.01 3 -9.02 3 -8 3 C-8 3.66 -8 4.32 -8 5 C-7.34 5 -6.68 5 -6 5 C-6 6.98 -6 8.96 -6 11 C-3.36 11 -0.72 11 2 11 C2 8.36 2 5.72 2 3 C1.34 3 0.68 3 0 3 C0 2.01 0 1.02 0 0 Z " fill="#D0BCA6" transform="translate(56,78)"/>
<path d="M0 0 C2 2 2 2 2.1953125 3.9453125 C2.13020833 5.96354167 2.06510417 7.98177083 2 10 C6.00200378 11.60080151 9.04556236 10.29279692 13 9 C13 7.68 13 6.36 13 5 C13.99 5 14.98 5 16 5 C16 4.01 16 3.02 16 2 C17.65 2 19.3 2 21 2 C21 6.95 21 11.9 21 17 C14.73 17 8.46 17 2 17 C2 16.34 2 15.68 2 15 C1.34 15 0.68 15 0 15 C0 10.05 0 5.1 0 0 Z " fill="#E5BF77" transform="translate(16,47)"/>
<path d="M0 0 C7.59 0 15.18 0 23 0 C23 0.66 23 1.32 23 2 C23.99 2 24.98 2 26 2 C26 3.98 26 5.96 26 8 C28.64 8 31.28 8 34 8 C34 8.66 34 9.32 34 10 C33.34 10 32.68 10 32 10 C31.67 10.99 31.34 11.98 31 13 C31 12.34 31 11.68 31 11 C27.7 11 24.4 11 21 11 C20.67 11.66 20.34 12.32 20 13 C20 12.34 20 11.68 20 11 C16.7 11 13.4 11 10 11 C10 10.34 10 9.68 10 9 C9.01 9 8.02 9 7 9 C7 9.66 7 10.32 7 11 C5.35 11 3.7 11 2 11 C2 10.01 2 9.02 2 8 C2.99 8 3.98 8 5 8 C5 7.01 5 6.02 5 5 C8.63 5 12.26 5 16 5 C16 5.99 16 6.98 16 8 C17.65 8 19.3 8 21 8 C21 8.66 21 9.32 21 10 C21.66 10 22.32 10 23 10 C23 8.35 23 6.7 23 5 C22.34 5 21.68 5 21 5 C21 4.01 21 3.02 21 2 C14.07 2 7.14 2 0 2 C0 1.34 0 0.68 0 0 Z " fill="#6F5034" transform="translate(16,3)"/>
<path d="M0 0 C0.99 0 1.98 0 3 0 C3 2.64 3 5.28 3 8 C2.34 8 1.68 8 1 8 C1.08378906 8.62648438 1.16757812 9.25296875 1.25390625 9.8984375 C1.35574219 10.71570312 1.45757812 11.53296875 1.5625 12.375 C1.66691406 13.18710937 1.77132812 13.99921875 1.87890625 14.8359375 C2 17 2 17 1 19 C-0.32 19 -1.64 19 -3 19 C-3 23.29 -3 27.58 -3 32 C-4.65 32 -6.3 32 -8 32 C-8 25.07 -8 18.14 -8 11 C-7.01 11 -6.02 11 -5 11 C-5 8.36 -5 5.72 -5 3 C-2 4 -2 4 0 5 C0 3.35 0 1.7 0 0 Z " fill="#BC8B4C" transform="translate(50,14)"/>
<path d="M0 0 C0.5625 1.9375 0.5625 1.9375 1 4 C0.67 4.33 0.34 4.66 0 5 C-0.2117387 7.62908881 -0.37634379 10.24158062 -0.5 12.875 C-0.86654713 20.59964139 -0.86654713 20.59964139 -2 24 C-1.01 24 -0.02 24 1 24 C1 22.02 1 20.04 1 18 C1.99 18 2.98 18 4 18 C4 22.95 4 27.9 4 33 C3.34 33 2.68 33 2 33 C2 34.65 2 36.3 2 38 C1.67 38 1.34 38 1 38 C1 36.35 1 34.7 1 33 C0.01 33 -0.98 33 -2 33 C-2 34.65 -2 36.3 -2 38 C-2.99 38 -3.98 38 -5 38 C-5 38.99 -5 39.98 -5 41 C-5.99 41 -6.98 41 -8 41 C-8 41.66 -8 42.32 -8 43 C-8.66 43 -9.32 43 -10 43 C-10 40.36 -10 37.72 -10 35 C-8.35 35 -6.7 35 -5 35 C-4.67 29.72 -4.34 24.44 -4 19 C-3.34 19 -2.68 19 -2 19 C-2.02320313 17.96359375 -2.04640625 16.9271875 -2.0703125 15.859375 C-2.08907667 14.48959056 -2.10727618 13.1197983 -2.125 11.75 C-2.14175781 11.06808594 -2.15851562 10.38617188 -2.17578125 9.68359375 C-2.21213482 5.9391765 -2.07944349 3.17647273 0 0 Z " fill="#CC9F5D" transform="translate(17,85)"/>
<path d="M0 0 C5.61 0 11.22 0 17 0 C17 1.98 17 3.96 17 6 C14.36 6 11.72 6 9 6 C9 6.99 9 7.98 9 9 C8.01 9 7.02 9 6 9 C6 14.94 6 20.88 6 27 C5.01 27 4.02 27 3 27 C3 20.73 3 14.46 3 8 C2.01 8 1.02 8 0 8 C0 5.36 0 2.72 0 0 Z " fill="#53311B" transform="translate(7,75)"/>
<path d="M0 0 C7.92 0 15.84 0 24 0 C24 0.99 24 1.98 24 3 C24.66 3 25.32 3 26 3 C26 4.65 26 6.3 26 8 C25.34 8 24.68 8 24 8 C24 7.34 24 6.68 24 6 C22.35 6 20.7 6 19 6 C19 5.01 19 4.02 19 3 C15.37 3 11.74 3 8 3 C8 3.99 8 4.98 8 6 C7.01 6 6.02 6 5 6 C5 6.99 5 7.98 5 9 C6.65 9 8.3 9 10 9 C10 8.34 10 7.68 10 7 C10.99 7 11.98 7 13 7 C13 7.66 13 8.32 13 9 C16.3 9 19.6 9 23 9 C23 9.66 23 10.32 23 11 C16.07 11 9.14 11 2 11 C2 7.7 2 4.4 2 1 C1.34 0.67 0.68 0.34 0 0 Z " fill="#A17241" transform="translate(13,5)"/>
<path d="M0 0 C0 4.62 0 9.24 0 14 C-2.475 13.505 -2.475 13.505 -5 13 C-5 9.7 -5 6.4 -5 3 C-4.01 3 -3.02 3 -2 3 C-2 2.34 -2 1.68 -2 1 C-5.63 1 -9.26 1 -13 1 C-12.979375 1.969375 -12.95875 2.93875 -12.9375 3.9375 C-13 7 -13 7 -14 8 C-15.65 8 -17.3 8 -19 8 C-19 11.63 -19 15.26 -19 19 C-18.01 19.33 -17.02 19.66 -16 20 C-16.99 20 -17.98 20 -19 20 C-19 21.98 -19 23.96 -19 26 C-19.99 26 -20.98 26 -22 26 C-21.88553375 22.95760755 -21.75879267 19.91655331 -21.625 16.875 C-21.5940625 16.0190625 -21.563125 15.163125 -21.53125 14.28125 C-21.31114982 9.5124128 -20.80839517 5.48423193 -19 1 C-12.72211269 -0.52445829 -6.42450816 -0.06004213 0 0 Z " fill="#E6C077" transform="translate(37,83)"/>
<path d="M0 0 C0.33 0 0.66 0 1 0 C1 5.28 1 10.56 1 16 C1.66 16 2.32 16 3 16 C3 11.71 3 7.42 3 3 C3.33 3 3.66 3 4 3 C4 7.62 4 12.24 4 17 C3.34 17 2.68 17 2 17 C2 22.61 2 28.22 2 34 C2.99 34 3.98 34 5 34 C5.33 33.34 5.66 32.68 6 32 C6 32.99 6 33.98 6 35 C4.02 35 2.04 35 0 35 C0 29.06 0 23.12 0 17 C-0.66 17 -1.32 17 -2 17 C-2 22.94 -2 28.88 -2 35 C-3.65 35 -5.3 35 -7 35 C-6.85870713 32.58299013 -6.71213513 30.16649571 -6.5625 27.75 C-6.50352539 26.72712891 -6.50352539 26.72712891 -6.44335938 25.68359375 C-6.23333528 22.35551959 -5.98065998 19.19744598 -5 16 C-3.35 16 -1.7 16 0 16 C0 10.72 0 5.44 0 0 Z " fill="#B5884D" transform="translate(44,30)"/>
<path d="M0 0 C3.625 -0.1875 3.625 -0.1875 7 0 C8.3839131 4.49771758 8.52832344 8.37980811 7.0625 12.875 C5 15 5 15 2.796875 15.30859375 C0.51009446 15.31218932 -1.72400094 15.21471689 -4 15 C-4.33 13.35 -4.66 11.7 -5 10 C-4.01 10 -3.02 10 -2 10 C-2.04125 8.906875 -2.0825 7.81375 -2.125 6.6875 C-2 3 -2 3 0 0 Z " fill="#854A2E" transform="translate(52,58)"/>
<path d="M0 0 C0.66 0 1.32 0 2 0 C2 0.99 2 1.98 2 3 C2.99 3 3.98 3 5 3 C5 6.3 5 9.6 5 13 C5.66 13 6.32 13 7 13 C8.60725635 16.21451269 8.05748185 19.43612536 8 23 C8.66 23 9.32 23 10 23 C10 24.65 10 26.3 10 28 C8.35 27.67 6.7 27.34 5 27 C5 24.03 5 21.06 5 18 C4.01 18 3.02 18 2 18 C2 17.34 2 16.68 2 16 C1.34 16 0.68 16 0 16 C-0.1958009 14.08416353 -0.38132214 12.16727461 -0.5625 10.25 C-0.66691406 9.18265625 -0.77132812 8.1153125 -0.87890625 7.015625 C-0.98560074 4.35858796 -0.81930395 2.50039428 0 0 Z " fill="#DBB169" transform="translate(37,97)"/>
<path d="M0 0 C3.63 0 7.26 0 11 0 C11 0.99 11 1.98 11 3 C13.64 3 16.28 3 19 3 C19 3.66 19 4.32 19 5 C20.65 5 22.3 5 24 5 C24 5.99 24 6.98 24 8 C19.71 8 15.42 8 11 8 C11 7.01 11 6.02 11 5 C6.38 5.33 1.76 5.66 -3 6 C-3 5.01 -3 4.02 -3 3 C-2.01 3 -1.02 3 0 3 C0 2.01 0 1.02 0 0 Z " fill="#58250C" transform="translate(13,70)"/>
<path d="M0 0 C0.66 0 1.32 0 2 0 C2.08694042 4.10403363 2.14037149 8.20783129 2.1875 12.3125 C2.22520508 14.06336914 2.22520508 14.06336914 2.26367188 15.84960938 C2.27333984 16.96787109 2.28300781 18.08613281 2.29296875 19.23828125 C2.3086792 20.26993408 2.32438965 21.30158691 2.34057617 22.36450195 C2 25 2 25 0.48168945 26.86010742 C-0.00726807 27.23627197 -0.49622559 27.61243652 -1 28 C-1.66 27.67 -2.32 27.34 -3 27 C-3 21.06 -3 15.12 -3 9 C-2.01 9 -1.02 9 0 9 C0 6.03 0 3.06 0 0 Z " fill="#C99F5B" transform="translate(16,19)"/>
<path d="M0 0 C1.32 0 2.64 0 4 0 C4 1.32 4 2.64 4 4 C4.66 4 5.32 4 6 4 C6 5.32 6 6.64 6 8 C6.66 8 7.32 8 8 8 C8 10.64 8 13.28 8 16 C5.36 16 2.72 16 0 16 C0 12.37 0 8.74 0 5 C0.99 5 1.98 5 3 5 C3 4.01 3 3.02 3 2 C2.01 2 1.02 2 0 2 C0 1.34 0 0.68 0 0 Z " fill="#A47459" transform="translate(50,73)"/>
<path d="M0 0 C6.27 0 12.54 0 19 0 C19 1.98 19 3.96 19 6 C17.35 6 15.7 6 14 6 C14 5.01 14 4.02 14 3 C11.03 3 8.06 3 5 3 C5 3.66 5 4.32 5 5 C3.35 5 1.7 5 0 5 C-0.33 5.99 -0.66 6.98 -1 8 C-1.33 6.35 -1.66 4.7 -2 3 C-1.34 3 -0.68 3 0 3 C0 2.01 0 1.02 0 0 Z " fill="#AB7B46" transform="translate(18,126)"/>
<path d="M0 0 C0.66 0 1.32 0 2 0 C2 3.3 2 6.6 2 10 C4.97 10 7.94 10 11 10 C11 10.66 11 11.32 11 12 C6.545 12.495 6.545 12.495 2 13 C2 15.64 2 18.28 2 21 C1.34 21 0.68 21 0 21 C0 18.36 0 15.72 0 13 C-0.99 13 -1.98 13 -3 13 C-3 10.36 -3 7.72 -3 5 C-2.01 5 -1.02 5 0 5 C0 3.35 0 1.7 0 0 Z " fill="#5B381C" transform="translate(13,6)"/>
<path d="M0 0 C3.63 0 7.26 0 11 0 C11 0.66 11 1.32 11 2 C13.64 2 16.28 2 19 2 C19 2.99 19 3.98 19 5 C20.98 5 22.96 5 25 5 C25.33 6.32 25.66 7.64 26 9 C24.35 9.33 22.7 9.66 21 10 C21 9.01 21 8.02 21 7 C19.35 7 17.7 7 16 7 C16 6.34 16 5.68 16 5 C13.36 5 10.72 5 8 5 C8 4.01 8 3.02 8 2 C5.36 2 2.72 2 0 2 C0 1.34 0 0.68 0 0 Z " fill="#A05C34" transform="translate(16,68)"/>
<path d="M0 0 C0.66 0 1.32 0 2 0 C2 2.64 2 5.28 2 8 C2.99 8 3.98 8 5 8 C5 12.29 5 16.58 5 21 C4.01 21 3.02 21 2 21 C2 21.99 2 22.98 2 24 C0.35 24 -1.3 24 -3 24 C-3 22.35 -3 20.7 -3 19 C-1.35 19 0.3 19 2 19 C2 16.03 2 13.06 2 10 C1.34 10 0.68 10 0 10 C0 6.7 0 3.4 0 0 Z " fill="#55341B" transform="translate(48,110)"/>
<path d="M0 0 C1.65 0 3.3 0 5 0 C5 1.65 5 3.3 5 5 C4.34 5 3.68 5 3 5 C3 5.99 3 6.98 3 8 C3.99 8.33 4.98 8.66 6 9 C5.01 9 4.02 9 3 9 C3 9.66 3 10.32 3 11 C2.34 11 1.68 11 1 11 C1 11.99 1 12.98 1 14 C-6.59 14 -14.18 14 -22 14 C-22 13.01 -22 12.02 -22 11 C-22.66 10.67 -23.32 10.34 -24 10 C-23.01 10 -22.02 10 -21 10 C-21 10.99 -21 11.98 -21 13 C-14.07 13 -7.14 13 0 13 C0 12.01 0 11.02 0 10 C0.66 10 1.32 10 2 10 C2 9.34 2 8.68 2 8 C-0.97 7.34 -3.94 6.68 -7 6 C-7 5.67 -7 5.34 -7 5 C-4.69 5 -2.38 5 0 5 C0 3.35 0 1.7 0 0 Z " fill="#C9A98B" transform="translate(39,129)"/>
<path d="M0 0 C3.63 0 7.26 0 11 0 C11 1.98 11 3.96 11 6 C8.36 6 5.72 6 3 6 C3 6.99 3 7.98 3 9 C2.01 8.67 1.02 8.34 0 8 C0.66 8 1.32 8 2 8 C2 7.34 2 6.68 2 6 C0.35 6 -1.3 6 -3 6 C-3 5.01 -3 4.02 -3 3 C-2.01 3 -1.02 3 0 3 C0 2.01 0 1.02 0 0 Z " fill="#844A24" transform="translate(13,75)"/>
<path d="M0 0 C2.31 0 4.62 0 7 0 C6.01 0.495 6.01 0.495 5 1 C5 2.32 5 3.64 5 5 C4.01 5 3.02 5 2 5 C2 5.99 2 6.98 2 8 C3.65 8 5.3 8 7 8 C7 7.34 7 6.68 7 6 C7.99 6 8.98 6 10 6 C10 6.66 10 7.32 10 8 C13.3 8 16.6 8 20 8 C20 8.66 20 9.32 20 10 C13.4 10 6.8 10 0 10 C0 6.7 0 3.4 0 0 Z " fill="#B3854C" transform="translate(16,6)"/>
<path d="M0 0 C0.33 0 0.66 0 1 0 C1 6.93 1 13.86 1 21 C0.01 21 -0.98 21 -2 21 C-2.33 24.96 -2.66 28.92 -3 33 C-3.33 33 -3.66 33 -4 33 C-3.67 26.07 -3.34 19.14 -3 12 C-3.66 11.67 -4.32 11.34 -5 11 C-4.67 10.01 -4.34 9.02 -4 8 C-2.68 8 -1.36 8 0 8 C0 5.36 0 2.72 0 0 Z " fill="#DBAF66" transform="translate(41,25)"/>
<path d="M0 0 C0.33 0 0.66 0 1 0 C1 5.28 1 10.56 1 16 C1.66 16 2.32 16 3 16 C3 11.71 3 7.42 3 3 C3.33 3 3.66 3 4 3 C4 7.62 4 12.24 4 17 C3.34 17 2.68 17 2 17 C2 22.61 2 28.22 2 34 C2.99 34 3.98 34 5 34 C5.33 33.34 5.66 32.68 6 32 C6 32.99 6 33.98 6 35 C4.02 35 2.04 35 0 35 C0 29.06 0 23.12 0 17 C-0.66 16.67 -1.32 16.34 -2 16 C-1.34 16 -0.68 16 0 16 C0 10.72 0 5.44 0 0 Z " fill="#B09C88" transform="translate(44,30)"/>
<path d="M0 0 C1.65 0 3.3 0 5 0 C5.18451025 12.66970387 5.18451025 12.66970387 4 18 C4.66 18 5.32 18 6 18 C6 21.96 6 25.92 6 30 C5.67 30 5.34 30 5 30 C5 26.37 5 22.74 5 19 C4.34 19 3.68 19 3 19 C3 16.36 3 13.72 3 11 C2.01 10.67 1.02 10.34 0 10 C0 6.7 0 3.4 0 0 Z " fill="#E6C37B" transform="translate(32,19)"/>
<path d="M0 0 C0 0.66 0 1.32 0 2 C-0.66 2 -1.32 2 -2 2 C-2 2.99 -2 3.98 -2 5 C-8.93 5 -15.86 5 -23 5 C-23 4.01 -23 3.02 -23 2 C-21.89140625 1.93941406 -20.7828125 1.87882813 -19.640625 1.81640625 C-18.1770718 1.73197049 -16.71353075 1.64732401 -15.25 1.5625 C-14.15558594 1.50352539 -14.15558594 1.50352539 -13.0390625 1.44335938 C-8.95575605 1.21896325 -8.95575605 1.21896325 -4.94433594 0.48022461 C-3 0 -3 0 0 0 Z " fill="#50341E" transform="translate(41,137)"/>
<path d="M0 0 C0 6.27 0 12.54 0 19 C-0.99 19 -1.98 19 -3 19 C-4.2062252 15.38132441 -4.10816918 12.07493749 -4.0625 8.3125 C-4.05798828 7.61060547 -4.05347656 6.90871094 -4.04882812 6.18554688 C-4.03706927 4.45699462 -4.01913454 2.72848635 -4 1 C-1 0 -1 0 0 0 Z " fill="#A67A43" transform="translate(42,81)"/>
<path d="M0 0 C6.27 0.33 12.54 0.66 19 1 C19 1.33 19 1.66 19 2 C15.37 2 11.74 2 8 2 C8 2.66 8 3.32 8 4 C7.01 4 6.02 4 5 4 C5 4.99 5 5.98 5 7 C3.02 7 1.04 7 -1 7 C-0.67 4.69 -0.34 2.38 0 0 Z " fill="#633118" transform="translate(8,66)"/>
<path d="M0 0 C0.33 0.66 0.66 1.32 1 2 C1.99 2 2.98 2 4 2 C4 3.65 4 5.3 4 7 C3.34 7 2.68 7 2 7 C2.33 13.6 2.66 20.2 3 27 C2.34 27 1.68 27 1 27 C1 20.73 1 14.46 1 8 C-0.65 8 -2.3 8 -4 8 C-4 7.01 -4 6.02 -4 5 C-2.68 4.34 -1.36 3.68 0 3 C0 2.01 0 1.02 0 0 Z " fill="#5F3215" transform="translate(41,73)"/>
<path d="M0 0 C1.93816735 0.1141866 3.87555099 0.24173423 5.8125 0.375 C6.89144531 0.44460937 7.97039063 0.51421875 9.08203125 0.5859375 C12 1 12 1 15 3 C15 3.66 15 4.32 15 5 C14.01 5 13.02 5 12 5 C12 6.65 12 8.3 12 10 C11.34 10 10.68 10 10 10 C10 8.35 10 6.7 10 5 C9.01 5 8.02 5 7 5 C7 4.34 7 3.68 7 3 C4.69 3 2.38 3 0 3 C0 2.01 0 1.02 0 0 Z " fill="#59210B" transform="translate(35,70)"/>
<path d="M0 0 C7.59 0 15.18 0 23 0 C23 0.99 23 1.98 23 3 C23.66 3 24.32 3 25 3 C25 4.65 25 6.3 25 8 C24.67 6.68 24.34 5.36 24 4 C23.01 4 22.02 4 21 4 C21 3.34 21 2.68 21 2 C14.07 2 7.14 2 0 2 C0 1.34 0 0.68 0 0 Z " fill="#553419" transform="translate(16,3)"/>
<path d="M0 0 C0.99 0 1.98 0 3 0 C3 0.66 3 1.32 3 2 C6.63 2 10.26 2 14 2 C14 1.34 14 0.68 14 0 C15.98 0 17.96 0 20 0 C20 0.99 20 1.98 20 3 C15.90996141 4.14982602 11.96822949 4.11094256 7.75 4.0625 C7.00492188 4.05798828 6.25984375 4.05347656 5.4921875 4.04882812 C3.6614236 4.03709246 1.83070127 4.0191585 0 4 C0 2.68 0 1.36 0 0 Z " fill="#B3844F" transform="translate(18,135)"/>
<path d="M0 0 C0.66 0 1.32 0 2 0 C2 3.3 2 6.6 2 10 C1.01 10.495 1.01 10.495 0 11 C-0.46954261 14.04581269 -0.46954261 14.04581269 -0.625 17.5625 C-0.69976562 18.76003906 -0.77453125 19.95757812 -0.8515625 21.19140625 C-0.90054688 22.11824219 -0.94953125 23.04507813 -1 24 C-1.66 24 -2.32 24 -3 24 C-3 18.72 -3 13.44 -3 8 C-2.01 8 -1.02 8 0 8 C0 5.36 0 2.72 0 0 Z " fill="#51331B" transform="translate(48,22)"/>
<path d="M0 0 C0.99 0 1.98 0 3 0 C3 2.64 3 5.28 3 8 C2.34 8 1.68 8 1 8 C1.08378906 8.62648438 1.16757812 9.25296875 1.25390625 9.8984375 C1.35574219 10.71570312 1.45757812 11.53296875 1.5625 12.375 C1.66691406 13.18710937 1.77132812 13.99921875 1.87890625 14.8359375 C2 17 2 17 1 19 C0.01 18.67 -0.98 18.34 -2 18 C-1.34 18 -0.68 18 0 18 C0 14.7 0 11.4 0 8 C-0.66 8 -1.32 8 -2 8 C-2 10.64 -2 13.28 -2 16 C-2.33 16 -2.66 16 -3 16 C-3 12.37 -3 8.74 -3 5 C-2.01 5 -1.02 5 0 5 C0 3.35 0 1.7 0 0 Z " fill="#82664B" transform="translate(50,14)"/>
<path d="M0 0 C0.66 0 1.32 0 2 0 C2 3.96 2 7.92 2 12 C2.66 12 3.32 12 4 12 C4 15.3 4 18.6 4 22 C2.11656068 18.23312136 1.77942165 16.97041037 2 13 C1.01 13 0.02 13 -1 13 C-1.02696365 11.20841511 -1.04637917 9.41671527 -1.0625 7.625 C-1.07410156 6.62726562 -1.08570313 5.62953125 -1.09765625 4.6015625 C-1 2 -1 2 0 0 Z " fill="#B1844D" transform="translate(11,36)"/>
<path d="M0 0 C3.63 0 7.26 0 11 0 C11 0.99 11 1.98 11 3 C12.65 3 14.3 3 16 3 C16 3.66 16 4.32 16 5 C12.7 5 9.4 5 6 5 C6 4.34 6 3.68 6 3 C4.02 3 2.04 3 0 3 C0 2.01 0 1.02 0 0 Z " fill="#623815" transform="translate(21,8)"/>
<path d="M0 0 C0 0.66 0 1.32 0 2 C-0.99 2 -1.98 2 -3 2 C-3 2.99 -3 3.98 -3 5 C-7.16138263 5.08159574 -10.9472484 4.98248524 -15 4 C-15 3.01 -15 2.02 -15 1 C-13.25021843 0.83105557 -11.50016388 0.66493691 -9.75 0.5 C-8.77546875 0.4071875 -7.8009375 0.314375 -6.796875 0.21875 C-4.53697847 0.04199832 -2.26679807 0 0 0 Z " fill="#74391B" transform="translate(50,66)"/>
<path d="M0 0 C0.99 0 1.98 0 3 0 C3 5.28 3 10.56 3 16 C2.01 16 1.02 16 0 16 C0 10.72 0 5.44 0 0 Z " fill="#53341C" transform="translate(10,49)"/>
<path d="M0 0 C0.99 0 1.98 0 3 0 C3 5.28 3 10.56 3 16 C2.01 16 1.02 16 0 16 C0 10.72 0 5.44 0 0 Z " fill="#5A3A1C" transform="translate(7,33)"/>
<path d="M0 0 C0.33 0 0.66 0 1 0 C1 6.27 1 12.54 1 19 C1.66 19 2.32 19 3 19 C3 21.97 3 24.94 3 28 C2.01 28 1.02 28 0 28 C0 18.76 0 9.52 0 0 Z " fill="#765842" transform="translate(44,81)"/>
<path d="M0 0 C1.65 0 3.3 0 5 0 C5 0.66 5 1.32 5 2 C4.01 2 3.02 2 2 2 C2 2.99 2 3.98 2 5 C1.34 5 0.68 5 0 5 C0 7.31 0 9.62 0 12 C-0.99 12 -1.98 12 -3 12 C-3 8.7 -3 5.4 -3 2 C-2.01 2 -1.02 2 0 2 C0 1.34 0 0.68 0 0 Z " fill="#5B3F26" transform="translate(4,9)"/>
<path d="M0 0 C0.99 0.33 1.98 0.66 3 1 C2.34 1 1.68 1 1 1 C1.33 2.32 1.66 3.64 2 5 C2.33 4.34 2.66 3.68 3 3 C4.65 3 6.3 3 8 3 C8.33 2.34 8.66 1.68 9 1 C9 1.99 9 2.98 9 4 C9.99 4 10.98 4 12 4 C12 4.66 12 5.32 12 6 C10.68 6 9.36 6 8 6 C8 5.34 8 4.68 8 4 C6.68 4 5.36 4 4 4 C4 4.66 4 5.32 4 6 C4.66 6.33 5.32 6.66 6 7 C5.01 7 4.02 7 3 7 C3 8.32 3 9.64 3 11 C2.01 11 1.02 11 0 11 C0 7.37 0 3.74 0 0 Z " fill="#96693F" transform="translate(15,128)"/>
<path d="M0 0 C0.99 0 1.98 0 3 0 C3 4.95 3 9.9 3 15 C2.01 15 1.02 15 0 15 C0 10.05 0 5.1 0 0 Z " fill="#5D3B1F" transform="translate(7,103)"/>
<path d="M0 0 C0.33 0 0.66 0 1 0 C1 4.29 1 8.58 1 13 C1.99 13.33 2.98 13.66 4 14 C3.01 14 2.02 14 1 14 C1 15.98 1 17.96 1 20 C0.01 20 -0.98 20 -2 20 C-1.86177801 16.85378318 -1.71314916 13.70814434 -1.5625 10.5625 C-1.52318359 9.66466797 -1.48386719 8.76683594 -1.44335938 7.84179688 C-1.40146484 6.98779297 -1.35957031 6.13378906 -1.31640625 5.25390625 C-1.27974854 4.46314697 -1.24309082 3.6723877 -1.20532227 2.85766602 C-1 1 -1 1 0 0 Z " fill="#DBB269" transform="translate(17,89)"/>
<path d="M0 0 C3.71888239 0.50712033 6.73454239 1.11608215 10 3 C9.01 3 8.02 3 7 3 C7 7.95 7 12.9 7 18 C6.67 18 6.34 18 6 18 C6 13.38 6 8.76 6 4 C3.36 4 0.72 4 -2 4 C-1.34 2.68 -0.68 1.36 0 0 Z " fill="#D0A55C" transform="translate(31,79)"/>
<path d="M0 0 C0.66 0 1.32 0 2 0 C2 2.64 2 5.28 2 8 C-0.64 8 -3.28 8 -6 8 C-6 6.02 -6 4.04 -6 2 C-5.01 2 -4.02 2 -3 2 C-3 2.99 -3 3.98 -3 5 C-2.01 5 -1.02 5 0 5 C0 3.35 0 1.7 0 0 Z " fill="#4D2817" transform="translate(56,81)"/>
<path d="M0 0 C0.66 0 1.32 0 2 0 C2 4.95 2 9.9 2 15 C2.99 15.33 3.98 15.66 5 16 C4.01 16.99 3.02 17.98 2 19 C1.34 18.67 0.68 18.34 0 18 C0 12.06 0 6.12 0 0 Z " fill="#E3B776" transform="translate(13,28)"/>
<path d="M0 0 C1.65 0.33 3.3 0.66 5 1 C5 1.99 5 2.98 5 4 C4.01 4 3.02 4 2 4 C2 6.97 2 9.94 2 13 C1.34 13 0.68 13 0 13 C0 11.02 0 9.04 0 7 C-0.99 7 -1.98 7 -3 7 C-3 6.34 -3 5.68 -3 5 C-2.01 5 -1.02 5 0 5 C0 3.35 0 1.7 0 0 Z " fill="#5E3718" transform="translate(13,124)"/>
<path d="M0 0 C3.625 -0.1875 3.625 -0.1875 7 0 C8.05147939 3.41730801 8.36370888 6.43565297 8 10 C6 12.875 6 12.875 4 15 C4 13.35 4 11.7 4 10 C4.66 10 5.32 10 6 10 C6 7.36 6 4.72 6 2 C4.35 2 2.7 2 1 2 C1 2.66 1 3.32 1 4 C0.01 3.67 -0.98 3.34 -2 3 C-1.34 2.01 -0.68 1.02 0 0 Z " fill="#D8D1CD" transform="translate(52,58)"/>
<path d="M0 0 C0.99 0 1.98 0 3 0 C3 2.97 3 5.94 3 9 C1.35 9 -0.3 9 -2 9 C-2 8.01 -2 7.02 -2 6 C-2.99 6 -3.98 6 -5 6 C-5 5.34 -5 4.68 -5 4 C-2.525 4.495 -2.525 4.495 0 5 C0 3.35 0 1.7 0 0 Z " fill="#BE9056" transform="translate(47,120)"/>
<path d="M0 0 C3.96 0 7.92 0 12 0 C12.33 0.99 12.66 1.98 13 3 C6.73 3 0.46 3 -6 3 C-6 2.67 -6 2.34 -6 2 C-4.02 2 -2.04 2 0 2 C0 1.34 0 0.68 0 0 Z " fill="#6F4920" transform="translate(24,16)"/>
<path d="M0 0 C0.33 0 0.66 0 1 0 C1.125 6.625 1.125 6.625 0 10 C-0.99 10 -1.98 10 -3 10 C-3 10.66 -3 11.32 -3 12 C-3.66 12 -4.32 12 -5 12 C-5 9.36 -5 6.72 -5 4 C-3.35 4 -1.7 4 0 4 C0 2.68 0 1.36 0 0 Z " fill="#BF8C4B" transform="translate(12,116)"/>
<path d="M0 0 C1.03348696 3.10046087 1.17755913 4.05610218 0 7 C-0.99 7.33 -1.98 7.66 -3 8 C-3.66 7.67 -4.32 7.34 -5 7 C-5 8.32 -5 9.64 -5 11 C-5.99 11 -6.98 11 -8 11 C-8 9.02 -8 7.04 -8 5 C-6.02 5 -4.04 5 -2 5 C-1.34 3.35 -0.68 1.7 0 0 Z " fill="#B7864E" transform="translate(12,113)"/>
<path d="M0 0 C2.97 0 5.94 0 9 0 C9 0.99 9 1.98 9 3 C9.99 3 10.98 3 12 3 C12 5.97 12 8.94 12 12 C11.67 12 11.34 12 11 12 C11 9.36 11 6.72 11 4 C10.01 4 9.02 4 8 4 C8 5.65 8 7.3 8 9 C5 8 5 8 3 6 C3.99 6 4.98 6 6 6 C6 5.01 6 4.02 6 3 C6.66 3 7.32 3 8 3 C8 2.34 8 1.68 8 1 C5.36 1 2.72 1 0 1 C0 0.67 0 0.34 0 0 Z " fill="#CFB79D" transform="translate(42,10)"/>
<path d="M0 0 C4.62 0 9.24 0 14 0 C14 1.65 14 3.3 14 5 C12.68 5 11.36 5 10 5 C10 4.01 10 3.02 10 2 C8.081875 2.061875 8.081875 2.061875 6.125 2.125 C3.9453125 2.1953125 3.9453125 2.1953125 2 2 C1.34 1.34 0.68 0.68 0 0 Z " fill="#BA8E55" transform="translate(23,126)"/>
<path d="M0 0 C2.1640625 -0.29296875 2.1640625 -0.29296875 4.625 -0.1875 C5.44226563 -0.16042969 6.25953125 -0.13335937 7.1015625 -0.10546875 C8.04128906 -0.05326172 8.04128906 -0.05326172 9 0 C9 0.66 9 1.32 9 2 C4.545 2.495 4.545 2.495 0 3 C0 5.64 0 8.28 0 11 C-0.66 11 -1.32 11 -2 11 C-2.25 3.375 -2.25 3.375 0 0 Z " fill="#5B3310" transform="translate(15,16)"/>
<path d="M0 0 C0.99 0 1.98 0 3 0 C3 1.65 3 3.3 3 5 C3.66 5 4.32 5 5 5 C5 5.99 5 6.98 5 8 C5.99 8 6.98 8 8 8 C8 8.66 8 9.32 8 10 C6.35 10 4.7 10 3 10 C3 9.01 3 8.02 3 7 C2.01 7 1.02 7 0 7 C0 4.69 0 2.38 0 0 Z " fill="#4F371F" transform="translate(1,124)"/>
<path d="M0 0 C0.66 0 1.32 0 2 0 C2 2.64 2 5.28 2 8 C2.99 8 3.98 8 5 8 C4.7834375 8.7734375 4.7834375 8.7734375 4.5625 9.5625 C3.84190099 12.68509571 3.42733561 15.82550692 3 19 C2.67 19 2.34 19 2 19 C2 16.03 2 13.06 2 10 C1.34 10 0.68 10 0 10 C0 6.7 0 3.4 0 0 Z " fill="#5F3E21" transform="translate(48,110)"/>
<path d="M0 0 C2.31 0 4.62 0 7 0 C6.01 0.495 6.01 0.495 5 1 C5 2.32 5 3.64 5 5 C4.01 5 3.02 5 2 5 C2 5.99 2 6.98 2 8 C2.66 8.33 3.32 8.66 4 9 C2.68 9 1.36 9 0 9 C0 6.03 0 3.06 0 0 Z " fill="#C08C52" transform="translate(16,6)"/>
<path d="M0 0 C0.33 0 0.66 0 1 0 C1 3.3 1 6.6 1 10 C1.66 10 2.32 10 3 10 C4.60725635 13.21451269 4.05748185 16.43612536 4 20 C3.34 19.67 2.68 19.34 2 19 C1.66666667 17.33333333 1.33333333 15.66666667 1 14 C0.34 13.67 -0.32 13.34 -1 13 C-0.67 9.7 -0.34 6.4 0 3 C-0.66 2.67 -1.32 2.34 -2 2 C-1.34 2 -0.68 2 0 2 C0 1.34 0 0.68 0 0 Z " fill="#D5A55F" transform="translate(41,100)"/>
<path d="M0 0 C0 0.66 0 1.32 0 2 C-0.66 2 -1.32 2 -2 2 C-2.33 2.99 -2.66 3.98 -3 5 C-3 4.34 -3 3.68 -3 3 C-9.27 3 -15.54 3 -22 3 C-22.33 3.66 -22.66 4.32 -23 5 C-23 4.01 -23 3.02 -23 2 C-21.89140625 1.93941406 -20.7828125 1.87882813 -19.640625 1.81640625 C-18.1770718 1.73197049 -16.71353075 1.64732401 -15.25 1.5625 C-14.15558594 1.50352539 -14.15558594 1.50352539 -13.0390625 1.44335938 C-8.95575605 1.21896325 -8.95575605 1.21896325 -4.94433594 0.48022461 C-3 0 -3 0 0 0 Z " fill="#6F4E29" transform="translate(41,137)"/>
<path d="M0 0 C0.66 0.66 1.32 1.32 2 2 C2.8971875 1.505 2.8971875 1.505 3.8125 1 C6 0 6 0 9 0 C9 1.65 9 3.3 9 5 C6.36 5 3.72 5 1 5 C0.67 3.35 0.34 1.7 0 0 Z " fill="#623927" transform="translate(47,68)"/>
<path d="M0 0 C3.63 0 7.26 0 11 0 C11 0.99 11 1.98 11 3 C12.32 3.33 13.64 3.66 15 4 C12.69 4 10.38 4 8 4 C8 3.34 8 2.68 8 2 C5.36 2 2.72 2 0 2 C0 1.34 0 0.68 0 0 Z " fill="#C07440" transform="translate(16,68)"/>
<path d="M0 0 C0.99 0 1.98 0 3 0 C3 4.62 3 9.24 3 14 C2.67 14 2.34 14 2 14 C1.67 12.35 1.34 10.7 1 9 C0.67 9 0.34 9 0 9 C0 6.03 0 3.06 0 0 Z " fill="#B88B4A" transform="translate(38,82)"/>
<path d="M0 0 C0.33 0 0.66 0 1 0 C1.33 6.6 1.66 13.2 2 20 C1.01 20 0.02 20 -1 20 C-1.33 18.35 -1.66 16.7 -2 15 C-1.34 15 -0.68 15 0 15 C0 10.05 0 5.1 0 0 Z " fill="#F1CC86" transform="translate(18,29)"/>
<path d="M0 0 C0.99 0 1.98 0 3 0 C3 3.3 3 6.6 3 10 C2.01 10 1.02 10 0 10 C0 6.7 0 3.4 0 0 Z " fill="#5A3C20" transform="translate(4,22)"/>
<path d="M0 0 C0.66 0 1.32 0 2 0 C2.08131463 1.43655854 2.13933559 2.8744483 2.1875 4.3125 C2.23970703 5.51326172 2.23970703 5.51326172 2.29296875 6.73828125 C1.93801608 9.47851584 1.10633718 10.29171079 -1 12 C-1.02698189 10.37509046 -1.04638757 8.75005367 -1.0625 7.125 C-1.07410156 6.22007813 -1.08570313 5.31515625 -1.09765625 4.3828125 C-1 2 -1 2 0 0 Z " fill="#B3854D" transform="translate(11,104)"/>
<path d="M0 0 C2.97 0 5.94 0 9 0 C9 0.66 9 1.32 9 2 C11.31 2 13.62 2 16 2 C16 2.33 16 2.66 16 3 C13.36 3 10.72 3 8 3 C8 2.34 8 1.68 8 1 C7.01 1 6.02 1 5 1 C5 1.66 5 2.32 5 3 C3.35 3 1.7 3 0 3 C0 2.01 0 1.02 0 0 Z " fill="#976631" transform="translate(18,11)"/>
<path d="M0 0 C-0.33 1.32 -0.66 2.64 -1 4 C-2.32 3.67 -3.64 3.34 -5 3 C-5 3.66 -5 4.32 -5 5 C-5.66 5 -6.32 5 -7 5 C-7 3.35 -7 1.7 -7 0 C-4.3333581 -1.33332095 -2.83319697 -0.67102033 0 0 Z " fill="#DCB66F" transform="translate(26,118)"/>
<path d="M0 0 C0.33 0 0.66 0 1 0 C1 2.64 1 5.28 1 8 C1.66 8 2.32 8 3 8 C3 8.66 3 9.32 3 10 C2.34 10 1.68 10 1 10 C1 13.3 1 16.6 1 20 C0.67 20 0.34 20 0 20 C0 16.7 0 13.4 0 10 C-0.66 9.67 -1.32 9.34 -2 9 C-1.34 9 -0.68 9 0 9 C0 6.03 0 3.06 0 0 Z " fill="#93765D" transform="translate(47,100)"/>
<path d="M0 0 C0 0.66 0 1.32 0 2 C-0.99 2 -1.98 2 -3 2 C-3 2.99 -3 3.98 -3 5 C-4.98 5 -6.96 5 -9 5 C-8.01 4.67 -7.02 4.34 -6 4 C-6 2.68 -6 1.36 -6 0 C-3 -1 -3 -1 0 0 Z " fill="#7D422B" transform="translate(16,68)"/>
<path d="M0 0 C0.33 0 0.66 0 1 0 C1.125 7.75 1.125 7.75 0 10 C-0.66 10 -1.32 10 -2 10 C-2.33 10.66 -2.66 11.32 -3 12 C-2.67 9.36 -2.34 6.72 -2 4 C-1.34 4 -0.68 4 0 4 C0 2.68 0 1.36 0 0 Z " fill="#CC9B57" transform="translate(18,106)"/>
<path d="M0 0 C2.31 0 4.62 0 7 0 C7 0.66 7 1.32 7 2 C6.01 2 5.02 2 4 2 C4 3.65 4 5.3 4 7 C3.34 7 2.68 7 2 7 C1.34 4.69 0.68 2.38 0 0 Z " fill="#431A0A" transform="translate(43,73)"/>
<path d="M0 0 C1.65 0.33 3.3 0.66 5 1 C4.01 1.33 3.02 1.66 2 2 C2 3.98 2 5.96 2 8 C1.01 8 0.02 8 -1 8 C-0.67 5.36 -0.34 2.72 0 0 Z " fill="#E3B874" transform="translate(16,101)"/>
<path d="M0 0 C1.98 0 3.96 0 6 0 C6.33 1.32 6.66 2.64 7 4 C5.35 4 3.7 4 2 4 C2 3.01 2 2.02 2 1 C1.34 0.67 0.68 0.34 0 0 Z " fill="#59250F" transform="translate(25,66)"/>
<path d="M0 0 C0 1.65 0 3.3 0 5 C-0.66 5 -1.32 5 -2 5 C-2 4.34 -2 3.68 -2 3 C-3.65 3 -5.3 3 -7 3 C-5.26536375 -0.4692725 -3.90371498 0 0 0 Z " fill="#B07F4C" transform="translate(39,8)"/>
<path d="M0 0 C1.65 0 3.3 0 5 0 C5 2.31 5 4.62 5 7 C4.34 7 3.68 7 3 7 C3 5.35 3 3.7 3 2 C2.01 2 1.02 2 0 2 C0 1.34 0 0.68 0 0 Z " fill="#442214" transform="translate(53,60)"/>
<path d="M0 0 C0.99 0 1.98 0 3 0 C3 1.98 3 3.96 3 6 C2.01 6 1.02 6 0 6 C0 4.02 0 2.04 0 0 Z " fill="#60401E" transform="translate(4,118)"/>
<path d="M0 0 C0.66 0.33 1.32 0.66 2 1 C2 1.99 2 2.98 2 4 C0.68 4 -0.64 4 -2 4 C-2.33 4.66 -2.66 5.32 -3 6 C-3 5.01 -3 4.02 -3 3 C-3.99 2.67 -4.98 2.34 -6 2 C-4.02 2 -2.04 2 0 2 C0 1.34 0 0.68 0 0 Z " fill="#B48D62" transform="translate(13,100)"/>
<path d="M0 0 C0.33 0 0.66 0 1 0 C1 2.31 1 4.62 1 7 C-1.475 6.01 -1.475 6.01 -4 5 C-3.67 3.68 -3.34 2.36 -3 1 C-2.01 1.99 -1.02 2.98 0 4 C0 2.68 0 1.36 0 0 Z " fill="#EBC886" transform="translate(36,24)"/>
<path d="M0 0 C0.33 0 0.66 0 1 0 C1 3.63 1 7.26 1 11 C0.01 11 -0.98 11 -2 11 C-2 10.01 -2 9.02 -2 8 C-1.34 8 -0.68 8 0 8 C0 5.36 0 2.72 0 0 Z " fill="#7A5734" transform="translate(44,126)"/>
<path d="M0 0 C0.99 0 1.98 0 3 0 C3.33 1.32 3.66 2.64 4 4 C2.35 4.33 0.7 4.66 -1 5 C-0.67 3.35 -0.34 1.7 0 0 Z " fill="#914D2B" transform="translate(38,73)"/>
</svg>
