<?xml version="1.0" encoding="UTF-8"?>
<svg version="1.1" xmlns="http://www.w3.org/2000/svg" width="113" height="127">
<path d="M0 0 C2.79272532 -0.32972869 5.35858484 -0.46803627 8.15625 -0.46875 C8.97315308 -0.47636353 9.79005615 -0.48397705 10.63171387 -0.49182129 C12.36674953 -0.50264409 14.10185046 -0.50546656 15.83691406 -0.50097656 C18.46273713 -0.50001366 21.08554404 -0.54140576 23.7109375 -0.5859375 C32.85476011 -0.65155662 40.27134661 -0.48185043 48 5 C48.79664062 5.54076172 49.59328125 6.08152344 50.4140625 6.63867188 C55.78473316 10.35419949 55.78473316 10.35419949 57 14 C57.66 14 58.32 14 59 14 C59 14.66 59 15.32 59 16 C59.66 16 60.32 16 61 16 C61 16.66 61 17.32 61 18 C61.66 18 62.32 18 63 18 C63 18.66 63 19.32 63 20 C63.66 20 64.32 20 65 20 C65 20.66 65 21.32 65 22 C66.485 22.495 66.485 22.495 68 23 C72 29.05714286 72 29.05714286 72 34 C72.99 34 73.98 34 75 34 C75 35.32 75 36.64 75 38 C76.485 38.495 76.485 38.495 78 39 C78 56.16 78 73.32 78 91 C76.515 91.495 76.515 91.495 75 92 C74.30840599 93.84725052 74.30840599 93.84725052 74 96 C73.66666667 97.33333333 73.33333333 98.66666667 73 100 C72.01 100 71.02 100 70 100 C70 100.99 70 101.98 70 103 C69.34 103 68.68 103 68 103 C67.9175 103.61875 67.835 104.2375 67.75 104.875 C67 107 67 107 64.9375 108.25 C64.298125 108.4975 63.65875 108.745 63 109 C63 109.66 63 110.32 63 111 C62.34 111 61.68 111 61 111 C61 111.66 61 112.32 61 113 C59.35 113.66 57.7 114.32 56 115 C56 115.99 56 116.98 56 118 C55.34 118 54.68 118 54 118 C54 118.66 54 119.32 54 120 C43.06779382 126.43664179 33.92294141 128.0013261 21.31567383 127.63793945 C18.64534165 127.56128988 15.97796059 127.53532372 13.30664062 127.51757812 C11.60412661 127.49503244 9.90164614 127.46974809 8.19921875 127.44140625 C7.40351974 127.42976944 6.60782074 127.41813263 5.78800964 127.40614319 C0.23597691 127.23597691 0.23597691 127.23597691 -2 125 C-4.57061311 124.35232207 -4.57061311 124.35232207 -7 124 C-7 123.34 -7 122.68 -7 122 C-8.98 122 -10.96 122 -13 122 C-13 121.34 -13 120.68 -13 120 C-13.66 120 -14.32 120 -15 120 C-15 119.34 -15 118.68 -15 118 C-16.32 117.67 -17.64 117.34 -19 117 C-19 116.34 -19 115.68 -19 115 C-19.66 115 -20.32 115 -21 115 C-21 114.34 -21 113.68 -21 113 C-21.66 113 -22.32 113 -23 113 C-23 112.34 -23 111.68 -23 111 C-24.65 110.34 -26.3 109.68 -28 109 C-28 108.34 -28 107.68 -28 107 C-28.66 107 -29.32 107 -30 107 C-30.495 104.525 -30.495 104.525 -31 102 C-31.66 102 -32.32 102 -33 102 C-35.65064634 97.38395776 -35.3309854 93.13929148 -35.3125 87.9375 C-35.32861328 87.02677734 -35.34472656 86.11605469 -35.36132812 85.17773438 C-35.36197266 84.30310547 -35.36261719 83.42847656 -35.36328125 82.52734375 C-35.36626221 81.73062256 -35.36924316 80.93390137 -35.37231445 80.11303711 C-34.91072163 77.49330867 -34.09588804 76.59195519 -32 75 C-31.34 75 -30.68 75 -30 75 C-30 74.34 -30 73.68 -30 73 C-23.73526757 71.55429252 -17.78279532 71.69378995 -11.9375 74.4375 C-11.298125 74.953125 -10.65875 75.46875 -10 76 C-10 76.66 -10 77.32 -10 78 C-8.865625 78.309375 -7.73125 78.61875 -6.5625 78.9375 C-3 80 -3 80 -2 81 C-0.48530552 81.23192865 1.03754562 81.41215238 2.5625 81.5625 C3.80193359 81.68818359 3.80193359 81.68818359 5.06640625 81.81640625 C5.70449219 81.87699219 6.34257813 81.93757813 7 82 C7 81.34 7 80.68 7 80 C9.90600261 78.74335022 11.79604584 78 15 78 C15 77.01 15 76.02 15 75 C15.66 75 16.32 75 17 75 C17.28875 74.05125 17.5775 73.1025 17.875 72.125 C19 69 19 69 21 67 C21.06082886 64.81363275 21.06082886 64.81363275 20.6875 62.4375 C20.53861328 61.22900391 20.53861328 61.22900391 20.38671875 59.99609375 C20.19478523 58.00821651 20.19478523 58.00821651 19 57 C18.95919217 55.00041636 18.95745644 52.99954746 19 51 C18.34 51 17.68 51 17 51 C16.34 49.02 15.68 47.04 15 45 C14.34 45 13.68 45 13 45 C13 44.01 13 43.02 13 42 C12.34 42 11.68 42 11 42 C11 41.34 11 40.68 11 40 C8.18743719 39.97315688 5.37512759 39.95323812 2.5625 39.9375 C1.76005859 39.92912109 0.95761719 39.92074219 0.13085938 39.91210938 C-1.91295221 39.9034857 -3.95683902 39.9477185 -6 40 C-6.33 40.33 -6.66 40.66 -7 41 C-13.25792439 41.52454337 -19.07569872 41.0787022 -25 39 C-27.41335378 36.63092794 -27.96537769 35.29484802 -28.36328125 31.90625 C-28.34652344 30.7821875 -28.32976563 29.658125 -28.3125 28.5 C-28.30863281 27.3759375 -28.30476563 26.251875 -28.30078125 25.09375 C-27.86859064 20.64836089 -26.43327036 17.86105863 -23 15 C-22.34 15 -21.68 15 -21 15 C-20.6596875 13.824375 -20.6596875 13.824375 -20.3125 12.625 C-19 10 -19 10 -16.6875 8.875 C-15.800625 8.58625 -14.91375 8.2975 -14 8 C-13.21625 7.505 -12.4325 7.01 -11.625 6.5 C-9 5 -9 5 -5.3125 4 C-1.74460887 3.30616669 -1.74460887 3.30616669 0 0 Z " fill="#9DDAEB" transform="translate(35,0)"/>
<path d="M0 0 C4.58982793 -0.04964866 9.17949754 -0.08583672 13.76953125 -0.10986328 C15.32912929 -0.11988557 16.8887087 -0.13350705 18.44824219 -0.15087891 C20.69731254 -0.1752941 22.94613322 -0.1865209 25.1953125 -0.1953125 C25.8861795 -0.20563507 26.57704651 -0.21595764 27.28884888 -0.22659302 C31.57260162 -0.22757315 35.01712278 0.43394351 39 2 C39 2.66 39 3.32 39 4 C39.66 4 40.32 4 41 4 C41 4.66 41 5.32 41 6 C42.32 6 43.64 6 45 6 C45 6.66 45 7.32 45 8 C45.99 8 46.98 8 48 8 C48 8.66 48 9.32 48 10 C48.66 10 49.32 10 50 10 C50 10.66 50 11.32 50 12 C50.66 12 51.32 12 52 12 C52.625 13.875 52.625 13.875 53 16 C51 18 51 18 48.375 18.125 C47.59125 18.08375 46.8075 18.0425 46 18 C45.505 16.02 45.505 16.02 45 14 C44.34 14 43.68 14 43 14 C43 13.01 43 12.02 43 11 C41.02 11 39.04 11 37 11 C37 10.34 37 9.68 37 9 C35.02 9 33.04 9 31 9 C31 8.01 31 7.02 31 6 C21.1 6 11.2 6 1 6 C1 6.99 1 7.98 1 9 C-1.31 9 -3.62 9 -6 9 C-6 9.66 -6 10.32 -6 11 C-7.98 11 -9.96 11 -12 11 C-12 11.99 -12 12.98 -12 14 C-12.66 14 -13.32 14 -14 14 C-14 14.66 -14 15.32 -14 16 C-14.66 16 -15.32 16 -16 16 C-16 16.66 -16 17.32 -16 18 C-16.66 18 -17.32 18 -18 18 C-18 18.66 -18 19.32 -18 20 C-18.66 20 -19.32 20 -20 20 C-20 21.65 -20 23.3 -20 25 C-17.36 25 -14.72 25 -12 25 C-12 24.34 -12 23.68 -12 23 C-5.73 23 0.54 23 7 23 C7 23.66 7 24.32 7 25 C9.31 25 11.62 25 14 25 C14 25.66 14 26.32 14 27 C14.66 27 15.32 27 16 27 C16 27.66 16 28.32 16 29 C17.175625 29.0928125 17.175625 29.0928125 18.375 29.1875 C19.24125 29.455625 20.1075 29.72375 21 30 C22.25 32.375 22.25 32.375 23 35 C23.33 35.99 23.66 36.98 24 38 C24.66 38 25.32 38 26 38 C26 38.99 26 39.98 26 41 C26.66 41 27.32 41 28 41 C28 43.97 28 46.94 28 50 C28.66 50 29.32 50 30 50 C30 55.94 30 61.88 30 68 C28.515 68.495 28.515 68.495 27 69 C27 70.32 27 71.64 27 73 C26.01 73 25.02 73 24 73 C24.1546875 74.1446875 24.1546875 74.1446875 24.3125 75.3125 C24.209375 76.199375 24.10625 77.08625 24 78 C21.5625 79.6875 21.5625 79.6875 19 81 C18.67 81.66 18.34 82.32 18 83 C17.34 83 16.68 83 16 83 C16 83.99 16 84.98 16 86 C14.02 86 12.04 86 10 86 C10 86.66 10 87.32 10 88 C3.73 88 -2.54 88 -9 88 C-9 87.34 -9 86.68 -9 86 C-10.32 86 -11.64 86 -13 86 C-13 85.34 -13 84.68 -13 84 C-14.65 84 -16.3 84 -18 84 C-18 83.01 -18 82.02 -18 81 C-18.66 81 -19.32 81 -20 81 C-20 80.01 -20 79.02 -20 78 C-21.98 78 -23.96 78 -26 78 C-26 81.3 -26 84.6 -26 88 C-25.34 88 -24.68 88 -24 88 C-24 88.99 -24 89.98 -24 91 C-23.34 91 -22.68 91 -22 91 C-22 91.99 -22 92.98 -22 94 C-21.34 94 -20.68 94 -20 94 C-20 94.66 -20 95.32 -20 96 C-19.34 96 -18.68 96 -18 96 C-18 96.66 -18 97.32 -18 98 C-17.34 98 -16.68 98 -16 98 C-16 98.66 -16 99.32 -16 100 C-15.34 100 -14.68 100 -14 100 C-14 101.32 -14 102.64 -14 104 C-12.68 104 -11.36 104 -10 104 C-10 104.99 -10 105.98 -10 107 C-8.02 107 -6.04 107 -4 107 C-4 107.66 -4 108.32 -4 109 C-1.69 109 0.62 109 3 109 C3 109.66 3 110.32 3 111 C7.50020684 110.86015544 12.00010606 110.71205005 16.5 110.5625 C17.7684375 110.52318359 19.036875 110.48386719 20.34375 110.44335938 C26.62282914 110.23078638 32.78483581 109.93384411 39 109 C39 110.98 39 112.96 39 115 C37.35 115 35.7 115 34 115 C34 115.66 34 116.32 34 117 C29.23115433 117.07425143 24.4626464 117.12864936 19.69335938 117.16479492 C18.07155494 117.17986565 16.44979116 117.20032593 14.828125 117.22631836 C12.49468954 117.26277829 10.16179369 117.27974314 7.828125 117.29296875 C7.10506165 117.30845261 6.38199829 117.32393646 5.63702393 117.33988953 C1.39779276 117.34130131 -0.87332532 116.88676573 -4 114 C-6.14733927 113.29485154 -6.14733927 113.29485154 -8 113 C-8 112.34 -8 111.68 -8 111 C-9.98 111 -11.96 111 -14 111 C-14 110.01 -14 109.02 -14 108 C-15.98 107.67 -17.96 107.34 -20 107 C-20 106.34 -20 105.68 -20 105 C-20.804375 105.309375 -20.804375 105.309375 -21.625 105.625 C-24.83267308 106.1314747 -27.01317066 105.15400225 -30 104 C-30 103.34 -30 102.68 -30 102 C-30.66 102 -31.32 102 -32 102 C-32.495 99.525 -32.495 99.525 -33 97 C-33.66 97 -34.32 97 -35 97 C-37.65064634 92.38395776 -37.3309854 88.13929148 -37.3125 82.9375 C-37.32861328 82.02677734 -37.34472656 81.11605469 -37.36132812 80.17773438 C-37.36197266 79.30310547 -37.36261719 78.42847656 -37.36328125 77.52734375 C-37.36626221 76.73062256 -37.36924316 75.93390137 -37.37231445 75.11303711 C-36.91072163 72.49330867 -36.09588804 71.59195519 -34 70 C-33.34 70 -32.68 70 -32 70 C-32 69.34 -32 68.68 -32 68 C-25.73526757 66.55429252 -19.78279532 66.69378995 -13.9375 69.4375 C-13.298125 69.953125 -12.65875 70.46875 -12 71 C-12 71.66 -12 72.32 -12 73 C-10.865625 73.309375 -9.73125 73.61875 -8.5625 73.9375 C-5 75 -5 75 -4 76 C-2.48530552 76.23192865 -0.96245438 76.41215238 0.5625 76.5625 C1.80193359 76.68818359 1.80193359 76.68818359 3.06640625 76.81640625 C3.70449219 76.87699219 4.34257813 76.93757813 5 77 C5 76.34 5 75.68 5 75 C7.90600261 73.74335022 9.79604584 73 13 73 C13 72.01 13 71.02 13 70 C13.66 70 14.32 70 15 70 C15.28875 69.05125 15.5775 68.1025 15.875 67.125 C17 64 17 64 19 62 C19.06082886 59.81363275 19.06082886 59.81363275 18.6875 57.4375 C18.53861328 56.22900391 18.53861328 56.22900391 18.38671875 54.99609375 C18.19478523 53.00821651 18.19478523 53.00821651 17 52 C16.95919217 50.00041636 16.95745644 47.99954746 17 46 C16.34 46 15.68 46 15 46 C14.34 44.02 13.68 42.04 13 40 C12.34 40 11.68 40 11 40 C11 39.01 11 38.02 11 37 C10.34 37 9.68 37 9 37 C9 36.34 9 35.68 9 35 C6.18743719 34.97315688 3.37512759 34.95323812 0.5625 34.9375 C-0.23994141 34.92912109 -1.04238281 34.92074219 -1.86914062 34.91210938 C-3.91295221 34.9034857 -5.95683902 34.9477185 -8 35 C-8.33 35.33 -8.66 35.66 -9 36 C-14.39881588 36.34568689 -19.69982429 36.11582647 -25 35 C-25.495 33.515 -25.495 33.515 -26 32 C-25.01 32 -24.02 32 -23 32 C-23.33 31.01 -23.66 30.02 -24 29 C-24.90923887 18.53630017 -24.90923887 18.53630017 -22.1875 13.9375 C-21.465625 13.298125 -20.74375 12.65875 -20 12 C-19.55527344 11.49726563 -19.11054688 10.99453125 -18.65234375 10.4765625 C-16.64668426 8.68427105 -14.94971964 8.17133703 -12.375 7.4375 C-10.01593777 6.79864318 -10.01593777 6.79864318 -8 6 C-7.67 5.34 -7.34 4.68 -7 4 C-4.6859378 3.26924352 -2.35171131 2.59861742 0 2 C0 1.34 0 0.68 0 0 Z " fill="#A0DEF0" transform="translate(37,5)"/>
<path d="M0 0 C7.59 0 15.18 0 23 0 C23 0.99 23 1.98 23 3 C24.65 3 26.3 3 28 3 C28 3.66 28 4.32 28 5 C29.65 5 31.3 5 33 5 C33 5.66 33 6.32 33 7 C33.99 7 34.98 7 36 7 C36 7.99 36 8.98 36 10 C36.99 10 37.98 10 39 10 C39 10.99 39 11.98 39 13 C40.32 13 41.64 13 43 13 C43 14.32 43 15.64 43 17 C43.66 17 44.32 17 45 17 C45 18.32 45 19.64 45 21 C45.99 21 46.98 21 48 21 C48 22.98 48 24.96 48 27 C48.66 27 49.32 27 50 27 C50 28.98 50 30.96 50 33 C50.66 33 51.32 33 52 33 C52 33.99 52 34.98 52 36 C51.34 36 50.68 36 50 36 C50 37.32 50 38.64 50 40 C51.32 40 52.64 40 54 40 C54 41.32 54 42.64 54 44 C53.34 44 52.68 44 52 44 C52 48.29 52 52.58 52 57 C51.01 57.495 51.01 57.495 50 58 C49.34227572 61.02934491 49.34227572 61.02934491 49 64 C48.34 64 47.68 64 47 64 C46.67 66.31 46.34 68.62 46 71 C45.01 71 44.02 71 43 71 C43 71.99 43 72.98 43 74 C42.34 74 41.68 74 41 74 C40.95875 74.556875 40.9175 75.11375 40.875 75.6875 C39.52636494 79.2517498 37.03329722 80.816026 34 83 C33.01 83 32.02 83 31 83 C31 83.66 31 84.32 31 85 C30.01 85 29.02 85 28 85 C28 85.66 28 86.32 28 87 C25.69 87 23.38 87 21 87 C21 87.66 21 88.32 21 89 C18.36 89 15.72 89 13 89 C13 89.66 13 90.32 13 91 C8.38 91 3.76 91 -1 91 C-1.495 90.01 -1.495 90.01 -2 89 C-4.80980673 88.30772968 -4.80980673 88.30772968 -8.0625 87.875 C-9.16722656 87.70742187 -10.27195312 87.53984375 -11.41015625 87.3671875 C-12.69212891 87.18542969 -12.69212891 87.18542969 -14 87 C-14 86.34 -14 85.68 -14 85 C-14.99 85 -15.98 85 -17 85 C-17.33 83.68 -17.66 82.36 -18 81 C-17.01 81 -16.02 81 -15 81 C-15 81.66 -15 82.32 -15 83 C-12.31222198 83.0544207 -9.62556788 83.09387266 -6.9375 83.125 C-6.18533203 83.14175781 -5.43316406 83.15851563 -4.65820312 83.17578125 C0.25635668 83.21833155 4.28173367 82.54161177 9 81 C10.99488234 80.63729412 12.9937811 80.29359301 15 80 C15 79.34 15 78.68 15 78 C17.475 77.505 17.475 77.505 20 77 C20 75.35 20 73.7 20 72 C20.99 71.67 21.98 71.34 23 71 C23.33 69.35 23.66 67.7 24 66 C25.98 65.505 25.98 65.505 28 65 C28 63.35 28 61.7 28 60 C28.66 59.67 29.32 59.34 30 59 C30.33 49.76 30.66 40.52 31 31 C30.01 31 29.02 31 28 31 C28 29.68 28 28.36 28 27 C27.34 27 26.68 27 26 27 C26 26.34 26 25.68 26 25 C25.34 25 24.68 25 24 25 C24 24.34 24 23.68 24 23 C23.01 22.67 22.02 22.34 21 22 C18.3125 19.6875 18.3125 19.6875 16 17 C16 15.68 16 14.36 16 13 C14.35 13 12.7 13 11 13 C11 12.34 11 11.68 11 11 C9.02 11 7.04 11 5 11 C4.67 10.34 4.34 9.68 4 9 C-1.94 9 -7.88 9 -14 9 C-10.20027176 5.20027176 -8.92946517 4.23236629 -4 3 C-2.68 3 -1.36 3 0 3 C0 2.01 0 1.02 0 0 Z " fill="#F2F2F3" transform="translate(40,14)"/>
<path d="M0 0 C9.9 0 19.8 0 30 0 C30 0.99 30 1.98 30 3 C31.98 3 33.96 3 36 3 C36 3.66 36 4.32 36 5 C37.98 5 39.96 5 42 5 C42 5.99 42 6.98 42 8 C42.66 8 43.32 8 44 8 C44.495 9.98 44.495 9.98 45 12 C45.66 12 46.32 12 47 12 C47 12.66 47 13.32 47 14 C47.66 14 48.32 14 49 14 C49 14.66 49 15.32 49 16 C49.99 16 50.98 16 52 16 C52 16.66 52 17.32 52 18 C52.66 18 53.32 18 54 18 C54 18.66 54 19.32 54 20 C54.66 20 55.32 20 56 20 C56 21.32 56 22.64 56 24 C56.66 24 57.32 24 58 24 C58 25.32 58 26.64 58 28 C57.34 28 56.68 28 56 28 C56 27.34 56 26.68 56 26 C55.34 26 54.68 26 54 26 C54 24.35 54 22.7 54 21 C52.35 21 50.7 21 49 21 C49 20.34 49 19.68 49 19 C48.34 19 47.68 19 47 19 C47 18.01 47 17.02 47 16 C45.02 16 43.04 16 41 16 C41 15.01 41 14.02 41 13 C40.01 13 39.02 13 38 13 C38 12.01 38 11.02 38 10 C37.01 10 36.02 10 35 10 C35 9.34 35 8.68 35 8 C33.35 8 31.7 8 30 8 C30 7.34 30 6.68 30 6 C28.35 6 26.7 6 25 6 C25 5.01 25 4.02 25 3 C17.41 3 9.82 3 2 3 C2 3.99 2 4.98 2 6 C1.31292969 6.19335938 0.62585938 6.38671875 -0.08203125 6.5859375 C-0.98308594 6.84632812 -1.88414063 7.10671875 -2.8125 7.375 C-3.70582031 7.63023438 -4.59914063 7.88546875 -5.51953125 8.1484375 C-8.20467896 8.95266661 -8.20467896 8.95266661 -11 11 C-5.39 11 0.22 11 6 11 C6.495 12.485 6.495 12.485 7 14 C8.98 14 10.96 14 13 14 C13 14.66 13 15.32 13 16 C14.65 16 16.3 16 18 16 C18 17.32 18 18.64 18 20 C18.5775 20.2475 19.155 20.495 19.75 20.75 C22.32939979 22.18299988 24.06121592 23.78424676 26 26 C26 26.66 26 27.32 26 28 C26.66 28 27.32 28 28 28 C28 28.66 28 29.32 28 30 C28.66 30 29.32 30 30 30 C30 31.32 30 32.64 30 34 C30.99 34 31.98 34 33 34 C33 43.24 33 52.48 33 62 C32.01 62.33 31.02 62.66 30 63 C30 64.65 30 66.3 30 68 C28.02 68.495 28.02 68.495 26 69 C26 70.65 26 72.3 26 74 C24.02 74.495 24.02 74.495 22 75 C22 76.65 22 78.3 22 80 C19.525 80.495 19.525 80.495 17 81 C17 81.66 17 82.32 17 83 C16.14535156 83.20496094 15.29070313 83.40992187 14.41015625 83.62109375 C13.30542969 83.89050781 12.20070312 84.15992187 11.0625 84.4375 C9.96035156 84.70433594 8.85820313 84.97117187 7.72265625 85.24609375 C5.10578746 85.72995725 5.10578746 85.72995725 4 87 C-1.72120437 87.42564759 -7.34429288 86.82264831 -13 86 C-13 85.34 -13 84.68 -13 84 C-13.99 84 -14.98 84 -16 84 C-15.67 85.32 -15.34 86.64 -15 88 C-14.01 88 -13.02 88 -12 88 C-12 88.99 -12 89.98 -12 91 C-11.01 91 -10.02 91 -9 91 C-8.67 92.65 -8.34 94.3 -8 96 C-7.113125 96.144375 -6.22625 96.28875 -5.3125 96.4375 C-2.52882354 96.91019978 0.23483757 97.43070185 3 98 C3 98.66 3 99.32 3 100 C12.57 99.67 22.14 99.34 32 99 C32 98.01 32 97.02 32 96 C33.65 96 35.3 96 37 96 C37 95.34 37 94.68 37 94 C38.11375 93.773125 39.2275 93.54625 40.375 93.3125 C44.13607673 92.41632127 44.13607673 92.41632127 45.25 89.5625 C45.62125 88.2940625 45.62125 88.2940625 46 87 C47.5 85.1875 47.5 85.1875 49 84 C49.66 84 50.32 84 51 84 C51 83.34 51 82.68 51 82 C51.99 81.67 52.98 81.34 54 81 C56.85823855 76.71264217 57.80748725 71.9688031 59 67 C59.66 67 60.32 67 61 67 C60.67 55.78 60.34 44.56 60 33 C59.34 33 58.68 33 58 33 C58.33 31.68 58.66 30.36 59 29 C59.66 29 60.32 29 61 29 C61 29.99 61 30.98 61 32 C61.66 32 62.32 32 63 32 C63 34.64 63 37.28 63 40 C63.66 40 64.32 40 65 40 C65 49.24 65 58.48 65 68 C64.34 68 63.68 68 63 68 C63 70.64 63 73.28 63 76 C62.34 76 61.68 76 61 76 C61 77.32 61 78.64 61 80 C60.34 80 59.68 80 59 80 C59 80.66 59 81.32 59 82 C58.01 82.495 58.01 82.495 57 83 C56.505 84.485 56.505 84.485 56 86 C55.34 86 54.68 86 54 86 C54 87.32 54 88.64 54 90 C53.34 90 52.68 90 52 90 C52 90.66 52 91.32 52 92 C51.01 92 50.02 92 49 92 C49 92.66 49 93.32 49 94 C48.34 94 47.68 94 47 94 C47 94.66 47 95.32 47 96 C46.01 96 45.02 96 44 96 C43.979375 96.598125 43.95875 97.19625 43.9375 97.8125 C43 100 43 100 39.875 101.75 C36.2145557 103.15203353 32.91567391 103.23973514 29 103 C29 103.66 29 104.32 29 105 C20.09 105 11.18 105 2 105 C2 104.34 2 103.68 2 103 C-0.31 103 -2.62 103 -5 103 C-5 102.34 -5 101.68 -5 101 C-6.98 101 -8.96 101 -11 101 C-11 100.01 -11 99.02 -11 98 C-12.32 98 -13.64 98 -15 98 C-15 96.68 -15 95.36 -15 94 C-15.66 94 -16.32 94 -17 94 C-17 93.34 -17 92.68 -17 92 C-17.66 92 -18.32 92 -19 92 C-19 91.34 -19 90.68 -19 90 C-19.66 90 -20.32 90 -21 90 C-21 89.34 -21 88.68 -21 88 C-21.66 88 -22.32 88 -23 88 C-23 87.01 -23 86.02 -23 85 C-23.66 85 -24.32 85 -25 85 C-25 84.01 -25 83.02 -25 82 C-25.66 82 -26.32 82 -27 82 C-27 78.7 -27 75.4 -27 72 C-25.02 72 -23.04 72 -21 72 C-21 72.99 -21 73.98 -21 75 C-20.34 75 -19.68 75 -19 75 C-19 75.99 -19 76.98 -19 78 C-17.35 78 -15.7 78 -14 78 C-14 78.66 -14 79.32 -14 80 C-12.68 80 -11.36 80 -10 80 C-10 80.66 -10 81.32 -10 82 C-3.73 82 2.54 82 9 82 C9 81.34 9 80.68 9 80 C10.98 80 12.96 80 15 80 C15 79.01 15 78.02 15 77 C15.66 77 16.32 77 17 77 C17.495 75.515 17.495 75.515 18 74 C18.66 73.71125 19.32 73.4225 20 73.125 C22.29150599 72.1446618 22.29150599 72.1446618 22.75 69.375 C22.8325 68.59125 22.915 67.8075 23 67 C23.99 67 24.98 67 26 67 C26 65.68 26 64.36 26 63 C26.66 62.67 27.32 62.34 28 62 C28.33 56.06 28.66 50.12 29 44 C28.34 44 27.68 44 27 44 C27 41.03 27 38.06 27 35 C26.34 35 25.68 35 25 35 C25 34.01 25 33.02 25 32 C24.34 32 23.68 32 23 32 C20.25624329 29.04518508 20 28.22528092 20 24 C18.35 23.67 16.7 23.34 15 23 C15 22.34 15 21.68 15 21 C14.34 21 13.68 21 13 21 C13 20.34 13 19.68 13 19 C10.69 19 8.38 19 6 19 C6 18.34 6 17.68 6 17 C-0.27 17 -6.54 17 -13 17 C-13 17.66 -13 18.32 -13 19 C-15.64 19 -18.28 19 -21 19 C-21 17.35 -21 15.7 -21 14 C-20.34 14 -19.68 14 -19 14 C-19 13.34 -19 12.68 -19 12 C-18.34 12 -17.68 12 -17 12 C-17 11.34 -17 10.68 -17 10 C-16.34 10 -15.68 10 -15 10 C-15 9.34 -15 8.68 -15 8 C-14.34 8 -13.68 8 -13 8 C-13 7.01 -13 6.02 -13 5 C-11.02 5 -9.04 5 -7 5 C-7 4.34 -7 3.68 -7 3 C-4.69 3 -2.38 3 0 3 C0 2.01 0 1.02 0 0 Z " fill="#627894" transform="translate(38,11)"/>
<path d="M0 0 C4.58982793 -0.04964866 9.17949754 -0.08583672 13.76953125 -0.10986328 C15.32912929 -0.11988557 16.8887087 -0.13350705 18.44824219 -0.15087891 C20.69731254 -0.1752941 22.94613322 -0.1865209 25.1953125 -0.1953125 C25.8861795 -0.20563507 26.57704651 -0.21595764 27.28884888 -0.22659302 C31.57260162 -0.22757315 35.01712278 0.43394351 39 2 C39 2.66 39 3.32 39 4 C39.66 4 40.32 4 41 4 C41 4.66 41 5.32 41 6 C42.32 6 43.64 6 45 6 C45 6.66 45 7.32 45 8 C45.99 8 46.98 8 48 8 C48 8.66 48 9.32 48 10 C48.66 10 49.32 10 50 10 C50 10.66 50 11.32 50 12 C50.66 12 51.32 12 52 12 C52.625 13.875 52.625 13.875 53 16 C51 18 51 18 48.375 18.125 C47.59125 18.08375 46.8075 18.0425 46 18 C45.505 16.02 45.505 16.02 45 14 C44.34 14 43.68 14 43 14 C43 13.01 43 12.02 43 11 C41.02 11 39.04 11 37 11 C37 10.34 37 9.68 37 9 C35.02 9 33.04 9 31 9 C31 8.01 31 7.02 31 6 C21.1 6 11.2 6 1 6 C1 6.99 1 7.98 1 9 C-1.31 9 -3.62 9 -6 9 C-6 9.66 -6 10.32 -6 11 C-7.98 11 -9.96 11 -12 11 C-12 11.99 -12 12.98 -12 14 C-12.66 14 -13.32 14 -14 14 C-14 14.66 -14 15.32 -14 16 C-14.66 16 -15.32 16 -16 16 C-16 16.66 -16 17.32 -16 18 C-16.66 18 -17.32 18 -18 18 C-18 18.66 -18 19.32 -18 20 C-18.66 20 -19.32 20 -20 20 C-20 21.65 -20 23.3 -20 25 C-17.36 25 -14.72 25 -12 25 C-12 24.34 -12 23.68 -12 23 C-5.73 23 0.54 23 7 23 C7 23.66 7 24.32 7 25 C9.31 25 11.62 25 14 25 C14 25.66 14 26.32 14 27 C14.66 27 15.32 27 16 27 C16 27.66 16 28.32 16 29 C17.175625 29.0928125 17.175625 29.0928125 18.375 29.1875 C19.24125 29.455625 20.1075 29.72375 21 30 C22.25 32.375 22.25 32.375 23 35 C23.33 35.99 23.66 36.98 24 38 C24.66 38 25.32 38 26 38 C26 38.99 26 39.98 26 41 C26.66 41 27.32 41 28 41 C28 43.97 28 46.94 28 50 C28.66 50 29.32 50 30 50 C30 55.94 30 61.88 30 68 C29.01 68.33 28.02 68.66 27 69 C27 70.32 27 71.64 27 73 C26.01 73 25.02 73 24 73 C24.1546875 74.1446875 24.1546875 74.1446875 24.3125 75.3125 C24.209375 76.199375 24.10625 77.08625 24 78 C21.5625 79.6875 21.5625 79.6875 19 81 C18.67 81.66 18.34 82.32 18 83 C17.34 83 16.68 83 16 83 C16 83.66 16 84.32 16 85 C13.69 85 11.38 85 9 85 C9 84.01 9 83.02 9 82 C9.66 82 10.32 82 11 82 C11.495 80.02 11.495 80.02 12 78 C12.66 78 13.32 78 14 78 C14 77.34 14 76.68 14 76 C14.66 76 15.32 76 16 76 C16.495 74.515 16.495 74.515 17 73 C17.66 73 18.32 73 19 73 C19 72.01 19 71.02 19 70 C19.66 70 20.32 70 21 70 C21 69.34 21 68.68 21 68 C21.66 68 22.32 68 23 68 C23.05454409 65.64551325 23.0939279 63.29232125 23.125 60.9375 C23.14820313 59.62652344 23.17140625 58.31554688 23.1953125 56.96484375 C22.99906136 52.98094565 22.22806465 49.7797101 21 46 C20.66666667 44.70833333 20.33333333 43.41666667 20 42.125 C19.505 40.578125 19.505 40.578125 19 39 C18.01 38.505 18.01 38.505 17 38 C17 37.34 17 36.68 17 36 C16.01 36 15.02 36 14 36 C11.8125 34.125 11.8125 34.125 10 32 C10 31.34 10 30.68 10 30 C8.68 30 7.36 30 6 30 C6 29.34 6 28.68 6 28 C0.72 28 -4.56 28 -10 28 C-10 28.66 -10 29.32 -10 30 C-13.96 30 -17.92 30 -22 30 C-22 31.32 -22 32.64 -22 34 C-23.32 33.67 -24.64 33.34 -26 33 C-24.515 32.505 -24.515 32.505 -23 32 C-23.33 31.01 -23.66 30.02 -24 29 C-24.90923887 18.53630017 -24.90923887 18.53630017 -22.1875 13.9375 C-21.465625 13.298125 -20.74375 12.65875 -20 12 C-19.33291016 11.24589844 -19.33291016 11.24589844 -18.65234375 10.4765625 C-16.64668426 8.68427105 -14.94971964 8.17133703 -12.375 7.4375 C-10.01593777 6.79864318 -10.01593777 6.79864318 -8 6 C-7.67 5.34 -7.34 4.68 -7 4 C-4.6859378 3.26924352 -2.35171131 2.59861742 0 2 C0 1.34 0 0.68 0 0 Z " fill="#A2DFF0" transform="translate(37,5)"/>
<path d="M0 0 C0.66 0 1.32 0 2 0 C2 0.99 2 1.98 2 3 C2.66 3 3.32 3 4 3 C4 3.66 4 4.32 4 5 C5.65 5 7.3 5 9 5 C9 6.65 9 8.3 9 10 C9.66 10 10.32 10 11 10 C11 10.66 11 11.32 11 12 C11.66 12 12.32 12 13 12 C13.33 10.68 13.66 9.36 14 8 C14 9.32 14 10.64 14 12 C14.99 12.495 14.99 12.495 16 13 C15.34 13.33 14.68 13.66 14 14 C13.67 14.99 13.34 15.98 13 17 C13.66 17 14.32 17 15 17 C16.31191997 23.95214281 16.11058058 30.88444903 16.0625 37.9375 C16.05798828 39.19369141 16.05347656 40.44988281 16.04882812 41.74414062 C16.03709681 44.82947663 16.020681 47.91471316 16 51 C15.34 51 14.68 51 14 51 C13.814375 52.0209375 13.814375 52.0209375 13.625 53.0625 C12.61942903 57.78868357 11.69833685 61.95249472 9 66 C8.01 66 7.02 66 6 66 C6 66.66 6 67.32 6 68 C5.34 68 4.68 68 4 68 C3.505 69.485 3.505 69.485 3 71 C2.34 71 1.68 71 1 71 C0.731875 71.78375 0.46375 72.5675 0.1875 73.375 C-1 76 -1 76 -4 78 C-5.32 78 -6.64 78 -8 78 C-8 78.66 -8 79.32 -8 80 C-9.65 80 -11.3 80 -13 80 C-13 80.99 -13 81.98 -13 83 C-16.6464806 83.8410478 -19.99950907 84.11764968 -23.73828125 84.09765625 C-25.33833008 84.09282227 -25.33833008 84.09282227 -26.97070312 84.08789062 C-28.62489258 84.07532227 -28.62489258 84.07532227 -30.3125 84.0625 C-31.43462891 84.05798828 -32.55675781 84.05347656 -33.71289062 84.04882812 C-36.4753151 84.03707313 -39.23762998 84.02064077 -42 84 C-42 83.34 -42 82.68 -42 82 C-43.0725 81.855625 -44.145 81.71125 -45.25 81.5625 C-47.91662949 81.16250558 -50.41399729 80.72408076 -53 80 C-53.495 77.525 -53.495 77.525 -54 75 C-54.99 74.67 -55.98 74.34 -57 74 C-52.17639811 73.80705592 -48.50353262 74.24252386 -44 76 C-44 76.66 -44 77.32 -44 78 C-39.38 78 -34.76 78 -30 78 C-30 77.34 -30 76.68 -30 76 C-27.36 76 -24.72 76 -22 76 C-22 75.34 -22 74.68 -22 74 C-19.69 74 -17.38 74 -15 74 C-15 73.34 -15 72.68 -15 72 C-14.01 72 -13.02 72 -12 72 C-12 71.34 -12 70.68 -12 70 C-10.906875 69.443125 -9.81375 68.88625 -8.6875 68.3125 C-5.28288077 66.39740168 -3.83669914 64.48006153 -2 61 C-1.34 61 -0.68 61 0 61 C0 60.01 0 59.02 0 58 C0.99 58 1.98 58 3 58 C3.33 55.69 3.66 53.38 4 51 C4.66 51 5.32 51 6 51 C6 49.02 6 47.04 6 45 C7.485 44.505 7.485 44.505 9 44 C9 39.71 9 35.42 9 31 C9.66 31 10.32 31 11 31 C11 29.68 11 28.36 11 27 C9.68 27 8.36 27 7 27 C7 25.68 7 24.36 7 23 C7.66 23 8.32 23 9 23 C9 22.01 9 21.02 9 20 C8.34 20 7.68 20 7 20 C7 18.02 7 16.04 7 14 C6.34 14 5.68 14 5 14 C5 12.02 5 10.04 5 8 C4.01 8 3.02 8 2 8 C2 6.68 2 5.36 2 4 C1.34 4 0.68 4 0 4 C0 2.68 0 1.36 0 0 Z " fill="#9896AE" transform="translate(83,27)"/>
<path d="M0 0 C7.59 0 15.18 0 23 0 C23 0.99 23 1.98 23 3 C24.65 3 26.3 3 28 3 C28 3.66 28 4.32 28 5 C29.65 5 31.3 5 33 5 C33 5.66 33 6.32 33 7 C33.99 7 34.98 7 36 7 C36 7.99 36 8.98 36 10 C36.99 10 37.98 10 39 10 C39 10.99 39 11.98 39 13 C40.32 13 41.64 13 43 13 C43 14.32 43 15.64 43 17 C43.66 17 44.32 17 45 17 C45 18.32 45 19.64 45 21 C45.99 21 46.98 21 48 21 C48 22.98 48 24.96 48 27 C48.66 27 49.32 27 50 27 C50 28.98 50 30.96 50 33 C50.66 33 51.32 33 52 33 C52 33.99 52 34.98 52 36 C51.34 36 50.68 36 50 36 C50 37.32 50 38.64 50 40 C51.32 40 52.64 40 54 40 C54 41.32 54 42.64 54 44 C53.34 44 52.68 44 52 44 C52 48.29 52 52.58 52 57 C51.01 57.495 51.01 57.495 50 58 C49.34227572 61.02934491 49.34227572 61.02934491 49 64 C48.34 64 47.68 64 47 64 C46.67 66.31 46.34 68.62 46 71 C45.01 71 44.02 71 43 71 C43 71.99 43 72.98 43 74 C42.34 74 41.68 74 41 74 C40.95875 74.556875 40.9175 75.11375 40.875 75.6875 C39.52636494 79.2517498 37.03329722 80.816026 34 83 C33.01 83 32.02 83 31 83 C31 83.66 31 84.32 31 85 C30.01 85 29.02 85 28 85 C28 85.66 28 86.32 28 87 C25.69 87 23.38 87 21 87 C21 87.66 21 88.32 21 89 C18.36 89 15.72 89 13 89 C13 89.66 13 90.32 13 91 C8.38 91 3.76 91 -1 91 C-1.33 90.34 -1.66 89.68 -2 89 C-4.52733235 88.34444881 -4.52733235 88.34444881 -7 88 C-7 87.67 -7 87.34 -7 87 C-1.06 87.33 4.88 87.66 11 88 C11.495 86.515 11.495 86.515 12 85 C14.31 85 16.62 85 19 85 C19.495 83.515 19.495 83.515 20 82 C21.64551962 81.28272222 23.31422289 80.61674772 25 80 C25.66 79.34 26.32 78.68 27 78 C29.625 77.875 29.625 77.875 32 78 C32 77.34 32 76.68 32 76 C32.99 76 33.98 76 35 76 C35.103125 75.360625 35.20625 74.72125 35.3125 74.0625 C35.539375 73.381875 35.76625 72.70125 36 72 C36.99 71.67 37.98 71.34 39 71 C40.24498609 68.67730041 40.24498609 68.67730041 41.1875 65.9375 C41.53167969 65.01839844 41.87585938 64.09929687 42.23046875 63.15234375 C42.61138672 62.08693359 42.61138672 62.08693359 43 61 C43.66 61 44.32 61 45 61 C45 52.75 45 44.5 45 36 C44.34 36 43.68 36 43 36 C42.34 32.37 41.68 28.74 41 25 C40.34 25 39.68 25 39 25 C39 23.68 39 22.36 39 21 C37.68 20.34 36.36 19.68 35 19 C35 18.34 35 17.68 35 17 C32.525 16.01 32.525 16.01 30 15 C30 14.34 30 13.68 30 13 C29.34 13 28.68 13 28 13 C27.236875 12.195625 26.47375 11.39125 25.6875 10.5625 C22.92345437 7.92701463 21.71162552 7.31813933 18 7 C17.67 5.02 17.34 3.04 17 1 C8.585 1.495 8.585 1.495 0 2 C0 1.34 0 0.68 0 0 Z " fill="#D3D2D9" transform="translate(40,14)"/>
<path d="M0 0 C2.79272532 -0.32972869 5.35858484 -0.46803627 8.15625 -0.46875 C8.97315308 -0.47636353 9.79005615 -0.48397705 10.63171387 -0.49182129 C12.36674953 -0.50264409 14.10185046 -0.50546656 15.83691406 -0.50097656 C18.46273713 -0.50001366 21.08554404 -0.54140576 23.7109375 -0.5859375 C32.85476011 -0.65155662 40.27134661 -0.48185043 48 5 C48.79664062 5.54076172 49.59328125 6.08152344 50.4140625 6.63867188 C55.78473316 10.35419949 55.78473316 10.35419949 57 14 C57.66 14 58.32 14 59 14 C59 14.66 59 15.32 59 16 C59.66 16 60.32 16 61 16 C61 16.66 61 17.32 61 18 C61.66 18 62.32 18 63 18 C63 18.66 63 19.32 63 20 C63.66 20 64.32 20 65 20 C65 20.66 65 21.32 65 22 C66.485 22.495 66.485 22.495 68 23 C69.99396257 25.66083969 72 28.61242325 72 32 C71.34 32 70.68 32 70 32 C69.67 33.32 69.34 34.64 69 36 C67.5 34.625 67.5 34.625 66 33 C66 32.34 66 31.68 66 31 C65.34 31 64.68 31 64 31 C63.505 29.02 63.505 29.02 63 27 C62.34 27 61.68 27 61 27 C60.505 24.03 60.505 24.03 60 21 C59.01 21 58.02 21 57 21 C57 20.34 57 19.68 57 19 C56.01 19 55.02 19 54 19 C54 18.34 54 17.68 54 17 C53.34 17 52.68 17 52 17 C52 16.34 52 15.68 52 15 C51.34 15 50.68 15 50 15 C50 14.34 50 13.68 50 13 C49.01 13 48.02 13 47 13 C47 12.34 47 11.68 47 11 C45.68 11 44.36 11 43 11 C43 10.34 43 9.68 43 9 C42.34 9 41.68 9 41 9 C41 8.34 41 7.68 41 7 C40.195625 7.020625 39.39125 7.04125 38.5625 7.0625 C36 7 36 7 35 6 C32.55391002 5.84019563 30.13268942 5.74070553 27.68359375 5.68359375 C26.95253922 5.66281265 26.22148468 5.64203156 25.46827698 5.62062073 C23.12478344 5.55504976 20.78117461 5.49620568 18.4375 5.4375 C16.85220145 5.39432192 15.26691471 5.35070787 13.68164062 5.30664062 C9.78787963 5.1993608 5.89400228 5.0981151 2 5 C2 5.66 2 6.32 2 7 C-0.64738916 8.4606285 -1.89448334 9 -5 9 C-5.33 9.99 -5.66 10.98 -6 12 C-7.99609375 12.94921875 -7.99609375 12.94921875 -10.4375 13.6875 C-11.24058594 13.93886719 -12.04367188 14.19023437 -12.87109375 14.44921875 C-15 15 -15 15 -17 15 C-17.99 17.475 -17.99 17.475 -19 20 C-19.66 20 -20.32 20 -21 20 C-21 25.61 -21 31.22 -21 37 C-22.32 37.66 -23.64 38.32 -25 39 C-28.18112186 35.57546776 -28.38107846 33.1000319 -28.3125 28.5 C-28.30863281 27.3759375 -28.30476563 26.251875 -28.30078125 25.09375 C-27.86859064 20.64836089 -26.43327036 17.86105863 -23 15 C-22.34 15 -21.68 15 -21 15 C-20.773125 14.21625 -20.54625 13.4325 -20.3125 12.625 C-19 10 -19 10 -16.6875 8.875 C-15.800625 8.58625 -14.91375 8.2975 -14 8 C-13.21625 7.505 -12.4325 7.01 -11.625 6.5 C-9 5 -9 5 -5.3125 4 C-1.74460887 3.30616669 -1.74460887 3.30616669 0 0 Z " fill="#87C1D5" transform="translate(35,0)"/>
<path d="M0 0 C0.66 0 1.32 0 2 0 C2 0.99 2 1.98 2 3 C2.66 3 3.32 3 4 3 C4 5.64 4 8.28 4 11 C4.66 11 5.32 11 6 11 C6 20.24 6 29.48 6 39 C5.34 39 4.68 39 4 39 C4 41.64 4 44.28 4 47 C3.34 47 2.68 47 2 47 C2 48.32 2 49.64 2 51 C1.34 51 0.68 51 0 51 C0 51.66 0 52.32 0 53 C-0.99 53.495 -0.99 53.495 -2 54 C-2.33 54.99 -2.66 55.98 -3 57 C-3.66 57 -4.32 57 -5 57 C-5 58.32 -5 59.64 -5 61 C-5.66 61 -6.32 61 -7 61 C-7 61.66 -7 62.32 -7 63 C-7.99 63 -8.98 63 -10 63 C-10 63.66 -10 64.32 -10 65 C-10.66 65 -11.32 65 -12 65 C-12 65.66 -12 66.32 -12 67 C-12.99 67 -13.98 67 -15 67 C-15.020625 67.598125 -15.04125 68.19625 -15.0625 68.8125 C-16 71 -16 71 -19.125 72.75 C-22.7854443 74.15203353 -26.08432609 74.23973514 -30 74 C-30 74.66 -30 75.32 -30 76 C-38.91 76 -47.82 76 -57 76 C-57 75.34 -57 74.68 -57 74 C-59.31 74 -61.62 74 -64 74 C-64 73.34 -64 72.68 -64 72 C-65.98 72 -67.96 72 -70 72 C-70 71.01 -70 70.02 -70 69 C-71.32 69 -72.64 69 -74 69 C-74 67.68 -74 66.36 -74 65 C-74.66 65 -75.32 65 -76 65 C-76 64.34 -76 63.68 -76 63 C-74.68 63 -73.36 63 -72 63 C-72 63.66 -72 64.32 -72 65 C-71.01 65 -70.02 65 -69 65 C-69 65.66 -69 66.32 -69 67 C-68.154375 66.95875 -67.30875 66.9175 -66.4375 66.875 C-62.57786731 67.01535028 -59.66311987 67.82780164 -56 69 C-56 69.66 -56 70.32 -56 71 C-46.43 70.67 -36.86 70.34 -27 70 C-27 69.01 -27 68.02 -27 67 C-25.35 67 -23.7 67 -22 67 C-22 66.34 -22 65.68 -22 65 C-20.88625 64.773125 -19.7725 64.54625 -18.625 64.3125 C-14.86392327 63.41632127 -14.86392327 63.41632127 -13.75 60.5625 C-13.5025 59.716875 -13.255 58.87125 -13 58 C-11.5 56.1875 -11.5 56.1875 -10 55 C-9.34 55 -8.68 55 -8 55 C-8 54.34 -8 53.68 -8 53 C-7.01 52.67 -6.02 52.34 -5 52 C-2.14176145 47.71264217 -1.19251275 42.9688031 0 38 C0.66 38 1.32 38 2 38 C1.67 26.78 1.34 15.56 1 4 C0.34 4 -0.32 4 -1 4 C-0.67 2.68 -0.34 1.36 0 0 Z " fill="#717695" transform="translate(97,40)"/>
<path d="M0 0 C5.28 0 10.56 0 16 0 C16 0.66 16 1.32 16 2 C17.32 2 18.64 2 20 2 C22.25 3.875 22.25 3.875 24 6 C24 6.66 24 7.32 24 8 C24.99 8 25.98 8 27 8 C27 8.66 27 9.32 27 10 C27.99 10.33 28.98 10.66 30 11 C30.9140625 13.90625 30.9140625 13.90625 31.625 17.5 C32.13116586 21.56977475 32.13116586 21.56977475 34 25 C34.09927286 26.9562593 34.12969729 28.91622909 34.125 30.875 C34.12886719 32.47988281 34.12886719 32.47988281 34.1328125 34.1171875 C34 37 34 37 33 40 C32.34 40 31.68 40 31 40 C31 40.66 31 41.32 31 42 C30.34 42 29.68 42 29 42 C29 42.99 29 43.98 29 45 C27.625 46.6875 27.625 46.6875 26 48 C25.34 48 24.68 48 24 48 C24 48.66 24 49.32 24 50 C23.34 50 22.68 50 22 50 C21.67 51.32 21.34 52.64 21 54 C20.34 54 19.68 54 19 54 C19 54.99 19 55.98 19 57 C21.31 57 23.62 57 26 57 C26 57.33 26 57.66 26 58 C24.02 58 22.04 58 20 58 C20 58.66 20 59.32 20 60 C13.73 60 7.46 60 1 60 C1 59.67 1 59.34 1 59 C5.95 58.505 5.95 58.505 11 58 C11 57.01 11 56.02 11 55 C8.69 55 6.38 55 4 55 C4.33 54.01 4.66 53.02 5 52 C5.99 51.505 5.99 51.505 7 51 C6.67 50.34 6.34 49.68 6 49 C8.97 49 11.94 49 15 49 C15 48.34 15 47.68 15 47 C17.90600261 45.74335022 19.79604584 45 23 45 C23 44.01 23 43.02 23 42 C23.66 42 24.32 42 25 42 C25.28875 41.05125 25.5775 40.1025 25.875 39.125 C27 36 27 36 29 34 C29.06082886 31.81363275 29.06082886 31.81363275 28.6875 29.4375 C28.53861328 28.22900391 28.53861328 28.22900391 28.38671875 26.99609375 C28.19478523 25.00821651 28.19478523 25.00821651 27 24 C26.95919217 22.00041636 26.95745644 19.99954746 27 18 C26.34 18 25.68 18 25 18 C24.34 16.02 23.68 14.04 23 12 C22.34 12 21.68 12 21 12 C21 11.01 21 10.02 21 9 C20.34 9 19.68 9 19 9 C19 8.34 19 7.68 19 7 C16.18743719 6.97315688 13.37512759 6.95323812 10.5625 6.9375 C9.76005859 6.92912109 8.95761719 6.92074219 8.13085938 6.91210938 C6.08704779 6.9034857 4.04316098 6.9477185 2 7 C1.67 7.33 1.34 7.66 1 8 C-4.39881588 8.34568689 -9.69982429 8.11582647 -15 7 C-14.01 6.67 -13.02 6.34 -12 6 C-12 4.68 -12 3.36 -12 2 C-8.04 2 -4.08 2 0 2 C0 1.34 0 0.68 0 0 Z " fill="#95C0CC" transform="translate(27,33)"/>
<path d="M0 0 C8.58077055 -0.24911914 16.58173087 0.30117812 25 2 C25 2.66 25 3.32 25 4 C25.99 4 26.98 4 28 4 C28 4.66 28 5.32 28 6 C28.763125 5.938125 29.52625 5.87625 30.3125 5.8125 C33 6 33 6 34.5 7.1875 C34.995 7.785625 35.49 8.38375 36 9 C36.886875 9.825 37.77375 10.65 38.6875 11.5 C41 14 41 14 41 17 C41.66 17 42.32 17 43 17 C43 18.32 43 19.64 43 21 C43.66 21 44.32 21 45 21 C47.56780471 24.8415976 47.22688882 28.8139175 47.125 33.25 C47.11597656 33.99507812 47.10695312 34.74015625 47.09765625 35.5078125 C47.07418358 37.33868059 47.03831525 39.16938238 47 41 C45.68 40.34 44.36 39.68 43 39 C43 38.34 43 37.68 43 37 C42.34 37 41.68 37 41 37 C41 39.97 41 42.94 41 46 C40.01 46.33 39.02 46.66 38 47 C38 39.41 38 31.82 38 24 C37.01 24 36.02 24 35 24 C35 22.68 35 21.36 35 20 C34.34 20 33.68 20 33 20 C33 19.34 33 18.68 33 18 C32.34 18 31.68 18 31 18 C31 17.34 31 16.68 31 16 C30.01 15.67 29.02 15.34 28 15 C25.3125 12.6875 25.3125 12.6875 23 10 C23 8.68 23 7.36 23 6 C21.35 6 19.7 6 18 6 C18 5.34 18 4.68 18 4 C16.02 4 14.04 4 12 4 C11.67 3.34 11.34 2.68 11 2 C8.41394668 1.5316735 8.41394668 1.5316735 5.4375 1.375 C3.91962891 1.26285156 3.91962891 1.26285156 2.37109375 1.1484375 C1.19740234 1.07496094 1.19740234 1.07496094 0 1 C0 0.67 0 0.34 0 0 Z " fill="#D7D7DC" transform="translate(33,21)"/>
<path d="M0 0 C0 0.66 0 1.32 0 2 C2.97 2.495 2.97 2.495 6 3 C6 3.99 6 4.98 6 6 C7.98 6 9.96 6 12 6 C12 6.66 12 7.32 12 8 C12.763125 8.12375 13.52625 8.2475 14.3125 8.375 C17 9 17 9 20 11 C22.60793391 11.2402117 25.11887145 11.37263695 27.73046875 11.4140625 C28.85609978 11.44311172 28.85609978 11.44311172 30.00447083 11.4727478 C32.39869867 11.53247459 34.79297477 11.57890065 37.1875 11.625 C38.8118698 11.6631862 40.43621948 11.70223831 42.06054688 11.7421875 C46.04020105 11.83817025 50.01995001 11.92222636 54 12 C54 11.34 54 10.68 54 10 C55.65 10 57.3 10 59 10 C59 9.34 59 8.68 59 8 C61.97 8 64.94 8 68 8 C68.495 9.485 68.495 9.485 69 11 C59.33504205 17.52698459 50.85982081 17.83067513 39.54199219 17.5625 C36.84514913 17.49930046 34.15064064 17.48045289 31.453125 17.46875 C29.73695039 17.45043987 28.0207996 17.42969795 26.3046875 17.40625 C25.49957733 17.39775024 24.69446716 17.38925049 23.86495972 17.38049316 C18.23467482 17.23467482 18.23467482 17.23467482 16 15 C13.42938689 14.35232207 13.42938689 14.35232207 11 14 C11 13.34 11 12.68 11 12 C9.02 12 7.04 12 5 12 C5 11.34 5 10.68 5 10 C4.34 10 3.68 10 3 10 C3 9.34 3 8.68 3 8 C1.68 7.67 0.36 7.34 -1 7 C-1 6.34 -1 5.68 -1 5 C-1.66 5 -2.32 5 -3 5 C-3 4.34 -3 3.68 -3 3 C-3.66 3 -4.32 3 -5 3 C-5 2.34 -5 1.68 -5 1 C-5.66 0.67 -6.32 0.34 -7 0 C-4.3333581 -1.33332095 -2.83319697 -0.67102033 0 0 Z " fill="#A2CEDB" transform="translate(17,110)"/>
<path d="M0 0 C0.33 0.66 0.66 1.32 1 2 C3.52733235 2.65555119 3.52733235 2.65555119 6 3 C6 4.32 6 5.64 6 7 C7.32 7 8.64 7 10 7 C10 7.99 10 8.98 10 10 C11.98 10 13.96 10 16 10 C16 10.66 16 11.32 16 12 C18.31 12 20.62 12 23 12 C23 12.66 23 13.32 23 14 C27.50020684 13.86015544 32.00010606 13.71205005 36.5 13.5625 C37.7684375 13.52318359 39.036875 13.48386719 40.34375 13.44335938 C46.62282914 13.23078638 52.78483581 12.93384411 59 12 C59 13.98 59 15.96 59 18 C57.35 18 55.7 18 54 18 C54 18.66 54 19.32 54 20 C49.23115433 20.07425143 44.4626464 20.12864936 39.69335938 20.16479492 C38.07155494 20.17986565 36.44979116 20.20032593 34.828125 20.22631836 C32.49468954 20.26277829 30.16179369 20.27974314 27.828125 20.29296875 C27.10506165 20.30845261 26.38199829 20.32393646 25.63702393 20.33988953 C21.39779276 20.34130131 19.12667468 19.88676573 16 17 C13.85266073 16.29485154 13.85266073 16.29485154 12 16 C12 15.34 12 14.68 12 14 C10.02 14 8.04 14 6 14 C6 13.01 6 12.02 6 11 C3.03 10.505 3.03 10.505 0 10 C0 9.34 0 8.68 0 8 C-0.66 8 -1.32 8 -2 8 C-2.6875 5.6875 -2.6875 5.6875 -3 3 C-1.5625 1.1875 -1.5625 1.1875 0 0 Z " fill="#A0DDEF" transform="translate(17,102)"/>
<path d="M0 0 C0.103125 0.639375 0.20625 1.27875 0.3125 1.9375 C0.6528125 2.9584375 0.6528125 2.9584375 1 4 C1.99 4.33 2.98 4.66 4 5 C4 22.16 4 39.32 4 57 C2.515 57.495 2.515 57.495 1 58 C0.30840599 59.84725052 0.30840599 59.84725052 0 62 C-0.33333333 63.33333333 -0.66666667 64.66666667 -1 66 C-1.99 66 -2.98 66 -4 66 C-4 66.99 -4 67.98 -4 69 C-4.66 69 -5.32 69 -6 69 C-6.0825 69.61875 -6.165 70.2375 -6.25 70.875 C-7 73 -7 73 -9.0625 74.25 C-9.701875 74.4975 -10.34125 74.745 -11 75 C-11 75.66 -11 76.32 -11 77 C-11.66 77 -12.32 77 -13 77 C-13 77.66 -13 78.32 -13 79 C-15.475 79.99 -15.475 79.99 -18 81 C-18 81.99 -18 82.98 -18 84 C-18.66 84 -19.32 84 -20 84 C-20 84.66 -20 85.32 -20 86 C-20.99 85.67 -21.98 85.34 -23 85 C-22.34 85 -21.68 85 -21 85 C-21 84.34 -21 83.68 -21 83 C-20.34 83 -19.68 83 -19 83 C-19.185625 82.21625 -19.37125 81.4325 -19.5625 80.625 C-20 78 -20 78 -19 76 C-18.34 76 -17.68 76 -17 76 C-17 75.01 -17 74.02 -17 73 C-16.34 73 -15.68 73 -15 73 C-15 72.34 -15 71.68 -15 71 C-14.34 71 -13.68 71 -13 71 C-12.67 69.68 -12.34 68.36 -12 67 C-8.25 65.875 -8.25 65.875 -6 67 C-6 66.01 -6 65.02 -6 64 C-5.01 64 -4.02 64 -3 64 C-3 62.35 -3 60.7 -3 59 C-2.34 59 -1.68 59 -1 59 C-1.185625 57.865625 -1.37125 56.73125 -1.5625 55.5625 C-1.706875 54.386875 -1.85125 53.21125 -2 52 C-1.67 51.67 -1.34 51.34 -1 51 C-0.85221642 48.3707473 -0.7649732 45.76441466 -0.71875 43.1328125 C-0.70034058 42.34228485 -0.68193115 41.5517572 -0.66296387 40.73727417 C-0.60403364 38.19992735 -0.55131615 35.66251156 -0.5 33.125 C-0.43235845 29.79412785 -0.35862547 26.46347107 -0.28125 23.1328125 C-0.26767456 22.36397736 -0.25409912 21.59514221 -0.2401123 20.80300903 C-0.16605069 17.62527513 -0.01180137 15.03540412 1 12 C-0.32 11.67 -1.64 11.34 -3 11 C-3 8.03 -3 5.06 -3 2 C-2.34 2 -1.68 2 -1 2 C-0.67 1.34 -0.34 0.68 0 0 Z " fill="#9ECCDC" transform="translate(109,34)"/>
<path d="M0 0 C9.9 0 19.8 0 30 0 C30 0.99 30 1.98 30 3 C31.98 3 33.96 3 36 3 C36 3.66 36 4.32 36 5 C37.98 5 39.96 5 42 5 C42 5.99 42 6.98 42 8 C42.66 8 43.32 8 44 8 C44.495 9.98 44.495 9.98 45 12 C45.66 12 46.32 12 47 12 C47 12.66 47 13.32 47 14 C47.66 14 48.32 14 49 14 C49 14.66 49 15.32 49 16 C49.99 16 50.98 16 52 16 C52 16.66 52 17.32 52 18 C52.66 18 53.32 18 54 18 C54 18.66 54 19.32 54 20 C54.66 20 55.32 20 56 20 C56 21.32 56 22.64 56 24 C56.66 24 57.32 24 58 24 C58 25.32 58 26.64 58 28 C57.34 28 56.68 28 56 28 C56 27.34 56 26.68 56 26 C55.34 26 54.68 26 54 26 C54 24.35 54 22.7 54 21 C52.35 21 50.7 21 49 21 C49 20.34 49 19.68 49 19 C48.34 19 47.68 19 47 19 C47 18.01 47 17.02 47 16 C45.02 16 43.04 16 41 16 C41 15.01 41 14.02 41 13 C40.01 13 39.02 13 38 13 C38 12.01 38 11.02 38 10 C37.01 10 36.02 10 35 10 C35 9.34 35 8.68 35 8 C33.35 8 31.7 8 30 8 C30 7.34 30 6.68 30 6 C28.35 6 26.7 6 25 6 C25 5.01 25 4.02 25 3 C17.41 3 9.82 3 2 3 C2 3.99 2 4.98 2 6 C0.43840941 6.48212214 -1.12431928 6.96055873 -2.6875 7.4375 C-3.55761719 7.70433594 -4.42773438 7.97117187 -5.32421875 8.24609375 C-7.87025921 8.96344529 -10.4003423 9.517541 -13 10 C-13 10.66 -13 11.32 -13 12 C-14.32 12 -15.64 12 -17 12 C-17 11.34 -17 10.68 -17 10 C-16.34 10 -15.68 10 -15 10 C-15 9.34 -15 8.68 -15 8 C-14.34 8 -13.68 8 -13 8 C-13 7.01 -13 6.02 -13 5 C-11.02 5 -9.04 5 -7 5 C-7 4.34 -7 3.68 -7 3 C-4.69 3 -2.38 3 0 3 C0 2.01 0 1.02 0 0 Z " fill="#4D6280" transform="translate(38,11)"/>
<path d="M0 0 C1.98 0 3.96 0 6 0 C6 0.99 6 1.98 6 3 C6.66 3 7.32 3 8 3 C8 3.99 8 4.98 8 6 C9.65 6 11.3 6 13 6 C13 7.32 13 8.64 13 10 C22.95677188 12.63630839 30.92267415 12.86463189 40.625 8.9375 C43 8 43 8 45.75 7.5 C46.4925 7.335 47.235 7.17 48 7 C48.33 6.34 48.66 5.68 49 5 C49 5.99 49 6.98 49 8 C47.35 8.33 45.7 8.66 44 9 C44 9.66 44 10.32 44 11 C43.14535156 11.20496094 42.29070313 11.40992187 41.41015625 11.62109375 C39.75306641 12.02521484 39.75306641 12.02521484 38.0625 12.4375 C36.96035156 12.70433594 35.85820313 12.97117187 34.72265625 13.24609375 C32.10578746 13.72995725 32.10578746 13.72995725 31 15 C25.27879563 15.42564759 19.65570712 14.82264831 14 14 C14 13.34 14 12.68 14 12 C13.01 12 12.02 12 11 12 C11.33 13.32 11.66 14.64 12 16 C12.99 16 13.98 16 15 16 C15 16.99 15 17.98 15 19 C15.99 19 16.98 19 18 19 C18.33 20.65 18.66 22.3 19 24 C18.34 24 17.68 24 17 24 C17 23.34 17 22.68 17 22 C16.01 22 15.02 22 14 22 C14 21.34 14 20.68 14 20 C12.02 20 10.04 20 8 20 C8 19.34 8 18.68 8 18 C7.34 18 6.68 18 6 18 C6 17.34 6 16.68 6 16 C5.34 16 4.68 16 4 16 C4 15.01 4 14.02 4 13 C3.34 13 2.68 13 2 13 C2 12.01 2 11.02 2 10 C1.34 10 0.68 10 0 10 C0 6.7 0 3.4 0 0 Z " fill="#9798B0" transform="translate(11,83)"/>
<path d="M0 0 C5.28 0 10.56 0 16 0 C16 0.66 16 1.32 16 2 C17.32 2 18.64 2 20 2 C22.25 3.875 22.25 3.875 24 6 C24 6.66 24 7.32 24 8 C24.99 8 25.98 8 27 8 C27 8.66 27 9.32 27 10 C27.99 10.33 28.98 10.66 30 11 C30.5745952 14.73486879 31 18.21293268 31 22 C30.34 22 29.68 22 29 22 C29 20.02 29 18.04 29 16 C28.34 16 27.68 16 27 16 C27 14.68 27 13.36 27 12 C26.01 12 25.02 12 24 12 C23.67 12.66 23.34 13.32 23 14 C23 13.34 23 12.68 23 12 C22.34 12 21.68 12 21 12 C21 11.01 21 10.02 21 9 C20.34 9 19.68 9 19 9 C19 8.34 19 7.68 19 7 C16.18743719 6.97315688 13.37512759 6.95323812 10.5625 6.9375 C9.76005859 6.92912109 8.95761719 6.92074219 8.13085938 6.91210938 C6.08704779 6.9034857 4.04316098 6.9477185 2 7 C1.67 7.33 1.34 7.66 1 8 C-4.39881588 8.34568689 -9.69982429 8.11582647 -15 7 C-14.01 6.67 -13.02 6.34 -12 6 C-12 4.68 -12 3.36 -12 2 C-8.04 2 -4.08 2 0 2 C0 1.34 0 0.68 0 0 Z " fill="#89BBCA" transform="translate(27,33)"/>
<path d="M0 0 C1.54300781 0.10054688 1.54300781 0.10054688 3.1171875 0.203125 C6.40606444 0.80110263 8.45364798 1.75880772 11.125 3.75 C11.125 4.41 11.125 5.07 11.125 5.75 C12.259375 6.03875 13.39375 6.3275 14.5625 6.625 C15.738125 6.99625 16.91375 7.3675 18.125 7.75 C18.62 8.74 18.62 8.74 19.125 9.75 C18.465 9.75 17.805 9.75 17.125 9.75 C17.125 10.41 17.125 11.07 17.125 11.75 C14.815 11.42 12.505 11.09 10.125 10.75 C10.125 10.09 10.125 9.43 10.125 8.75 C8.145 8.75 6.165 8.75 4.125 8.75 C4.125 7.76 4.125 6.77 4.125 5.75 C-1.815 6.245 -1.815 6.245 -7.875 6.75 C-8.205 12.36 -8.535 17.97 -8.875 23.75 C-10.195 23.75 -11.515 23.75 -12.875 23.75 C-13.205 24.41 -13.535 25.07 -13.875 25.75 C-13.96206892 22.47933434 -14.01541241 19.20896635 -14.0625 15.9375 C-14.08763672 15.00873047 -14.11277344 14.07996094 -14.13867188 13.12304688 C-14.14833984 12.23037109 -14.15800781 11.33769531 -14.16796875 10.41796875 C-14.1836792 9.59578857 -14.19938965 8.7736084 -14.21557617 7.92651367 C-13.79604714 5.24543745 -13.01998486 4.3630573 -10.875 2.75 C-10.215 2.75 -9.555 2.75 -8.875 2.75 C-8.875 2.09 -8.875 1.43 -8.875 0.75 C-5.56521337 -0.35326221 -3.46025591 -0.25887201 0 0 Z " fill="#86C5D8" transform="translate(13.875,72.25)"/>
<path d="M0 0 C0.33 0 0.66 0 1 0 C1 6.6 1 13.2 1 20 C0.34 20 -0.32 20 -1 20 C-1 21.65 -1 23.3 -1 25 C-2.32 25.33 -3.64 25.66 -5 26 C-5 27.65 -5 29.3 -5 31 C-6.32 31.33 -7.64 31.66 -9 32 C-9.0928125 32.928125 -9.0928125 32.928125 -9.1875 33.875 C-10 36 -10 36 -12.1875 37.0625 C-13.115625 37.371875 -14.04375 37.68125 -15 38 C-15.969375 38.515625 -16.93875 39.03125 -17.9375 39.5625 C-25.21164766 42.97689584 -33.51159057 43.01696981 -41.0625 40.5 C-42.38006852 40.01351316 -43.69466958 39.5184291 -45 39 C-45 38.34 -45 37.68 -45 37 C-43.68 37 -42.36 37 -41 37 C-41 37.66 -41 38.32 -41 39 C-34.73 39 -28.46 39 -22 39 C-22 38.34 -22 37.68 -22 37 C-20.02 37 -18.04 37 -16 37 C-16 36.01 -16 35.02 -16 34 C-15.34 34 -14.68 34 -14 34 C-13.67 33.01 -13.34 32.02 -13 31 C-12.34 30.71125 -11.68 30.4225 -11 30.125 C-8.70849401 29.1446618 -8.70849401 29.1446618 -8.25 26.375 C-8.1675 25.59125 -8.085 24.8075 -8 24 C-7.01 24 -6.02 24 -5 24 C-5 22.68 -5 21.36 -5 20 C-3.68 19.67 -2.36 19.34 -1 19 C-1.01160156 17.71222656 -1.02320313 16.42445312 -1.03515625 15.09765625 C-1.0445327 13.41927228 -1.05363305 11.74088674 -1.0625 10.0625 C-1.07087891 9.21236328 -1.07925781 8.36222656 -1.08789062 7.48632812 C-1.09111328 6.67744141 -1.09433594 5.86855469 -1.09765625 5.03515625 C-1.10289307 4.2862915 -1.10812988 3.53742676 -1.11352539 2.76586914 C-1 1 -1 1 0 0 Z " fill="#4B617E" transform="translate(69,54)"/>
<path d="M0 0 C0.66 0.33 1.32 0.66 2 1 C1.979375 1.78375 1.95875 2.5675 1.9375 3.375 C1.81315937 5.98114961 1.81315937 5.98114961 3 8 C2.34 8 1.68 8 1 8 C0.855625 8.5775 0.71125 9.155 0.5625 9.75 C0.04166667 11.83333333 -0.47916667 13.91666667 -1 16 C-1.99 16 -2.98 16 -4 16 C-4 16.99 -4 17.98 -4 19 C-4.66 19 -5.32 19 -6 19 C-6.12375 19.928125 -6.12375 19.928125 -6.25 20.875 C-7 23 -7 23 -9.0625 24.25 C-9.701875 24.4975 -10.34125 24.745 -11 25 C-11 25.66 -11 26.32 -11 27 C-11.66 27 -12.32 27 -13 27 C-13 27.66 -13 28.32 -13 29 C-14.65 29.66 -16.3 30.32 -18 31 C-18 31.99 -18 32.98 -18 34 C-18.66 34 -19.32 34 -20 34 C-20 34.66 -20 35.32 -20 36 C-20.99 35.67 -21.98 35.34 -23 35 C-22.34 35 -21.68 35 -21 35 C-21 34.34 -21 33.68 -21 33 C-20.34 33 -19.68 33 -19 33 C-19.185625 32.21625 -19.37125 31.4325 -19.5625 30.625 C-20 28 -20 28 -19 26 C-18.34 26 -17.68 26 -17 26 C-17 25.01 -17 24.02 -17 23 C-16.34 23 -15.68 23 -15 23 C-15 22.34 -15 21.68 -15 21 C-14.34 21 -13.68 21 -13 21 C-12.67 19.68 -12.34 18.36 -12 17 C-8.25 15.875 -8.25 15.875 -6 17 C-6 16.01 -6 15.02 -6 14 C-5.01 14 -4.02 14 -3 14 C-3 12.35 -3 10.7 -3 9 C-2.34 9 -1.68 9 -1 9 C-1.20625 7.88625 -1.4125 6.7725 -1.625 5.625 C-1.74875 4.42875 -1.8725 3.2325 -2 2 C-1.34 1.34 -0.68 0.68 0 0 Z " fill="#93BBC4" transform="translate(109,84)"/>
<path d="M0 0 C0.66 0 1.32 0 2 0 C2 0.99 2 1.98 2 3 C2.66 3 3.32 3 4 3 C4 5.64 4 8.28 4 11 C4.66 11 5.32 11 6 11 C6 20.24 6 29.48 6 39 C5.34 39 4.68 39 4 39 C4 41.31 4 43.62 4 46 C3.34 46 2.68 46 2 46 C1.505 25.21 1.505 25.21 1 4 C0.34 4 -0.32 4 -1 4 C-0.67 2.68 -0.34 1.36 0 0 Z " fill="#4E5D7B" transform="translate(97,40)"/>
<path d="M0 0 C0.78375 0.04125 1.5675 0.0825 2.375 0.125 C1.715 2.105 1.055 4.085 0.375 6.125 C-0.285 6.125 -0.945 6.125 -1.625 6.125 C-1.625 7.115 -1.625 8.105 -1.625 9.125 C-3.935 9.125 -6.245 9.125 -8.625 9.125 C-8.625 9.785 -8.625 10.445 -8.625 11.125 C-11.265 11.125 -13.905 11.125 -16.625 11.125 C-16.625 11.785 -16.625 12.445 -16.625 13.125 C-21.245 13.125 -25.865 13.125 -30.625 13.125 C-30.955 12.465 -31.285 11.805 -31.625 11.125 C-34.15233235 10.46944881 -34.15233235 10.46944881 -36.625 10.125 C-36.625 9.795 -36.625 9.465 -36.625 9.125 C-30.685 9.455 -24.745 9.785 -18.625 10.125 C-18.295 9.135 -17.965 8.145 -17.625 7.125 C-15.315 7.125 -13.005 7.125 -10.625 7.125 C-10.295 6.135 -9.965 5.145 -9.625 4.125 C-7.97948038 3.40772222 -6.31077711 2.74174772 -4.625 2.125 C-2.625 0.125 -2.625 0.125 0 0 Z " fill="#DDDDDF" transform="translate(69.625,91.875)"/>
<path d="M0 0 C0 0.99 0 1.98 0 3 C0.66 3 1.32 3 2 3 C2 3.66 2 4.32 2 5 C2.66 5 3.32 5 4 5 C4 5.66 4 6.32 4 7 C4.66 7 5.32 7 6 7 C5.67 7.66 5.34 8.32 5 9 C4.01 8.67 3.02 8.34 2 8 C1.01 8.33 0.02 8.66 -1 9 C-0.79375 9.61875 -0.5875 10.2375 -0.375 10.875 C-0.25125 11.57625 -0.1275 12.2775 0 13 C-0.66 13.66 -1.32 14.32 -2 15 C-3.98 14.34 -5.96 13.68 -8 13 C-8 12.34 -8 11.68 -8 11 C-8.66 11 -9.32 11 -10 11 C-10.12375 10.195625 -10.2475 9.39125 -10.375 8.5625 C-10.684375 7.2940625 -10.684375 7.2940625 -11 6 C-11.66 5.67 -12.32 5.34 -13 5 C-12.34 3.68 -11.68 2.36 -11 1 C-10.01 1 -9.02 1 -8 1 C-8 1.66 -8 2.32 -8 3 C-6.576875 2.2575 -6.576875 2.2575 -5.125 1.5 C-2 0 -2 0 0 0 Z " fill="#96D9E9" transform="translate(15,96)"/>
<path d="M0 0 C0.66 0 1.32 0 2 0 C2 1.98 2 3.96 2 6 C1.34 6 0.68 6 0 6 C-0.33 8.31 -0.66 10.62 -1 13 C-1.99 13 -2.98 13 -4 13 C-4 13.99 -4 14.98 -4 16 C-4.66 16 -5.32 16 -6 16 C-6.04125 16.556875 -6.0825 17.11375 -6.125 17.6875 C-7.47363506 21.2517498 -9.96670278 22.816026 -13 25 C-13.99 25 -14.98 25 -16 25 C-16 25.66 -16 26.32 -16 27 C-16.99 26.67 -17.98 26.34 -19 26 C-18.34 26 -17.68 26 -17 26 C-16.7834375 24.8553125 -16.7834375 24.8553125 -16.5625 23.6875 C-16 21 -16 21 -15 18 C-14.01 18 -13.02 18 -12 18 C-11.896875 17.360625 -11.79375 16.72125 -11.6875 16.0625 C-11.460625 15.381875 -11.23375 14.70125 -11 14 C-10.01 13.67 -9.02 13.34 -8 13 C-7.30062468 11.68352881 -6.63270867 10.34977849 -6 9 C-5.34 8.67 -4.68 8.34 -4 8 C-2.87775145 6.11986894 -2.87775145 6.11986894 -1.875 3.9375 C-1.52179688 3.20402344 -1.16859375 2.47054687 -0.8046875 1.71484375 C-0.53914063 1.14894531 -0.27359375 0.58304687 0 0 Z " fill="#CBCAD5" transform="translate(87,72)"/>
<path d="M0 0 C1.16781006 0.00523682 2.33562012 0.01047363 3.53881836 0.01586914 C4.79887695 0.0190918 6.05893555 0.02231445 7.35717773 0.02563477 C8.6976732 0.03399136 10.03816799 0.04245632 11.37866211 0.05102539 C12.72306153 0.05603879 14.06746271 0.06060197 15.41186523 0.06469727 C18.71334151 0.07653051 22.01473014 0.09301568 25.31616211 0.11352539 C25.31616211 0.77352539 25.31616211 1.43352539 25.31616211 2.11352539 C16.40616211 2.11352539 7.49616211 2.11352539 -1.68383789 2.11352539 C-1.68383789 3.10352539 -1.68383789 4.09352539 -1.68383789 5.11352539 C-3.24542848 5.59564754 -4.80815717 6.07408412 -6.37133789 6.55102539 C-7.24145508 6.81786133 -8.11157227 7.08469727 -9.00805664 7.35961914 C-11.5540971 8.07697069 -14.08418019 8.63106639 -16.68383789 9.11352539 C-16.68383789 9.77352539 -16.68383789 10.43352539 -16.68383789 11.11352539 C-18.00383789 11.11352539 -19.32383789 11.11352539 -20.68383789 11.11352539 C-20.68383789 10.45352539 -20.68383789 9.79352539 -20.68383789 9.11352539 C-20.02383789 9.11352539 -19.36383789 9.11352539 -18.68383789 9.11352539 C-18.68383789 8.45352539 -18.68383789 7.79352539 -18.68383789 7.11352539 C-18.02383789 7.11352539 -17.36383789 7.11352539 -16.68383789 7.11352539 C-16.68383789 6.12352539 -16.68383789 5.13352539 -16.68383789 4.11352539 C-14.70383789 4.11352539 -12.72383789 4.11352539 -10.68383789 4.11352539 C-10.68383789 3.45352539 -10.68383789 2.79352539 -10.68383789 2.11352539 C-8.98227539 1.89696289 -8.98227539 1.89696289 -7.24633789 1.67602539 C-3.8582847 1.14106962 -3.19184689 0.13501399 0 0 Z " fill="#4A5E78" transform="translate(41.683837890625,11.886474609375)"/>
<path d="M0 0 C0.66 0 1.32 0 2 0 C1.9375 1.8125 1.9375 1.8125 1 4 C-3.85113803 6.7166373 -7.36999727 7.34469404 -13 7 C-13 7.66 -13 8.32 -13 9 C-21.58 9 -30.16 9 -39 9 C-39 8.01 -39 7.02 -39 6 C-30.75 6 -22.5 6 -14 6 C-14 5.34 -14 4.68 -14 4 C-11.36 4 -8.72 4 -6 4 C-6 3.34 -6 2.68 -6 2 C-4.02 2 -2.04 2 0 2 C0 1.34 0 0.68 0 0 Z " fill="#475F7B" transform="translate(80,107)"/>
<path d="M0 0 C0.99 0 1.98 0 3 0 C3 0.66 3 1.32 3 2 C5.31 2.33 7.62 2.66 10 3 C10 2.34 10 1.68 10 1 C15.445 1.495 15.445 1.495 21 2 C21 2.33 21 2.66 21 3 C17.7 3.33 14.4 3.66 11 4 C11 4.66 11 5.32 11 6 C13.97 6.495 13.97 6.495 17 7 C17.33 8.32 17.66 9.64 18 11 C16.25008666 11.02715383 14.50005055 11.04646551 12.75 11.0625 C11.28820312 11.07990234 11.28820312 11.07990234 9.796875 11.09765625 C7.34241322 11.01195577 5.33831086 10.70706066 3 10 C3 9.34 3 8.68 3 8 C1.35 8 -0.3 8 -2 8 C-2 7.01 -2 6.02 -2 5 C-2.66 5 -3.32 5 -4 5 C-3.67 4.34 -3.34 3.68 -3 3 C-2.34 3.33 -1.68 3.66 -1 4 C-1 4.99 -1 5.98 -1 7 C1.47266765 6.65555119 1.47266765 6.65555119 4 6 C4.33 5.34 4.66 4.68 5 4 C4.01 3.67 3.02 3.34 2 3 C2 2.34 2 1.68 2 1 C1.34 0.67 0.68 0.34 0 0 Z " fill="#9CD3E2" transform="translate(21,81)"/>
<path d="M0 0 C0.66 0 1.32 0 2 0 C2 12.54 2 25.08 2 38 C1.01 37.67 0.02 37.34 -1 37 C-1.0246826 32.05208706 -1.04285166 27.1042098 -1.05493164 22.15625 C-1.05996653 20.47232438 -1.06679481 18.78840314 -1.07543945 17.10449219 C-1.08754196 14.68683797 -1.09323668 12.26924144 -1.09765625 9.8515625 C-1.10281754 9.0963028 -1.10797882 8.34104309 -1.11329651 7.56289673 C-1.11387171 2.22774341 -1.11387171 2.22774341 0 0 Z " fill="#86C4DA" transform="translate(110,47)"/>
<path d="M0 0 C1.22589844 0.01353516 1.22589844 0.01353516 2.4765625 0.02734375 C3.41628906 0.04474609 3.41628906 0.04474609 4.375 0.0625 C4.375 0.7225 4.375 1.3825 4.375 2.0625 C6.025 2.0625 7.675 2.0625 9.375 2.0625 C8.385 2.5575 8.385 2.5575 7.375 3.0625 C7.375 4.0525 7.375 5.0425 7.375 6.0625 C9.685 6.0625 11.995 6.0625 14.375 6.0625 C14.375 6.3925 14.375 6.7225 14.375 7.0625 C12.395 7.0625 10.415 7.0625 8.375 7.0625 C8.375 7.7225 8.375 8.3825 8.375 9.0625 C2.105 9.0625 -4.165 9.0625 -10.625 9.0625 C-10.625 8.7325 -10.625 8.4025 -10.625 8.0625 C-7.325 7.7325 -4.025 7.4025 -0.625 7.0625 C-0.625 6.0725 -0.625 5.0825 -0.625 4.0625 C-2.935 4.0625 -5.245 4.0625 -7.625 4.0625 C-7.295 3.0725 -6.965 2.0825 -6.625 1.0625 C-4.21954362 -0.14022819 -2.67503047 -0.03821472 0 0 Z " fill="#90CBDE" transform="translate(38.625,83.9375)"/>
<path d="M0 0 C0.66 0.33 1.32 0.66 2 1 C1.525625 1.556875 1.05125 2.11375 0.5625 2.6875 C-1.12395996 5.18346074 -1.58953107 7.0446237 -2 10 C-1.34 10 -0.68 10 0 10 C0 9.34 0 8.68 0 8 C1.32 7.67 2.64 7.34 4 7 C4.33 8.65 4.66 10.3 5 12 C4.34 12 3.68 12 3 12 C3 12.66 3 13.32 3 14 C1.68 14.33 0.36 14.66 -1 15 C-1 14.67 -1 14.34 -1 14 C-3.64 13.67 -6.28 13.34 -9 13 C-9.33 12.01 -9.66 11.02 -10 10 C-12.64 10.33 -15.28 10.66 -18 11 C-18 10.34 -18 9.68 -18 9 C-16.989375 8.896875 -15.97875 8.79375 -14.9375 8.6875 C-10.71206877 7.94972629 -7.78838078 6.969958 -4 5 C-3.67 4.01 -3.34 3.02 -3 2 C-2.01 2 -1.02 2 0 2 C0 1.34 0 0.68 0 0 Z " fill="#99D4E3" transform="translate(85,105)"/>
<path d="M0 0 C0.66 0 1.32 0 2 0 C2 0.99 2 1.98 2 3 C2.66 3 3.32 3 4 3 C4 3.66 4 4.32 4 5 C4.99 5 5.98 5 7 5 C7.66 8.3 8.32 11.6 9 15 C9.99 15.33 10.98 15.66 12 16 C12 20.95 12 25.9 12 31 C11.67 29.68 11.34 28.36 11 27 C9.68 27 8.36 27 7 27 C7 25.68 7 24.36 7 23 C7.66 23 8.32 23 9 23 C9 22.01 9 21.02 9 20 C8.34 20 7.68 20 7 20 C7 18.02 7 16.04 7 14 C6.34 14 5.68 14 5 14 C5 12.02 5 10.04 5 8 C4.01 8 3.02 8 2 8 C2 6.68 2 5.36 2 4 C1.34 4 0.68 4 0 4 C0 2.68 0 1.36 0 0 Z " fill="#AAA8BB" transform="translate(83,27)"/>
<path d="M0 0 C2.64 0.66 5.28 1.32 8 2 C8 2.66 8 3.32 8 4 C8.721875 4 9.44375 4 10.1875 4 C14.48530597 5.52810879 16.07669326 8.99788511 18 13 C18 13.66 18 14.32 18 15 C17.34 15 16.68 15 16 15 C15.67 16.32 15.34 17.64 15 19 C13.5 17.625 13.5 17.625 12 16 C12 15.34 12 14.68 12 14 C11.34 14 10.68 14 10 14 C9.67 12.68 9.34 11.36 9 10 C8.34 10 7.68 10 7 10 C6.67 8.02 6.34 6.04 6 4 C5.01 4 4.02 4 3 4 C3 3.34 3 2.68 3 2 C2.01 2 1.02 2 0 2 C0 1.34 0 0.68 0 0 Z " fill="#9FC2CC" transform="translate(89,17)"/>
<path d="M0 0 C4.82360189 -0.19294408 8.49646738 0.24252386 13 2 C13 2.66 13 3.32 13 4 C16.96 4 20.92 4 25 4 C25 4.33 25 4.66 25 5 C22.69 5 20.38 5 18 5 C18 5.99 18 6.98 18 8 C18.66 8 19.32 8 20 8 C20 8.66 20 9.32 20 10 C18.35 10 16.7 10 15 10 C15 9.34 15 8.68 15 8 C13.9275 7.855625 12.855 7.71125 11.75 7.5625 C9.08337051 7.16250558 6.58600271 6.72408076 4 6 C3.67 4.35 3.34 2.7 3 1 C2.01 0.67 1.02 0.34 0 0 Z " fill="#9F9CB2" transform="translate(26,101)"/>
<path d="M0 0 C11.22 0 22.44 0 34 0 C33.34 0.33 32.68 0.66 32 1 C32 1.66 32 2.32 32 3 C21.44 3 10.88 3 0 3 C0 2.01 0 1.02 0 0 Z " fill="#86C9DE" transform="translate(37,122)"/>
<path d="M0 0 C1.98 0 3.96 0 6 0 C6 0.99 6 1.98 6 3 C6.66 3 7.32 3 8 3 C8 3.99 8 4.98 8 6 C9.32 6 10.64 6 12 6 C11.67 6.99 11.34 7.98 11 9 C10.01 9 9.02 9 8 9 C8 8.34 8 7.68 8 7 C7.34 7 6.68 7 6 7 C6 6.34 6 5.68 6 5 C5.01 5 4.02 5 3 5 C3.495 6.093125 3.99 7.18625 4.5 8.3125 C6 12 6 12 6 15 C6.66 15 7.32 15 8 15 C8 15.66 8 16.32 8 17 C8.66 17 9.32 17 10 17 C10 17.99 10 18.98 10 20 C9.34 20 8.68 20 8 20 C8 19.34 8 18.68 8 18 C7.34 18 6.68 18 6 18 C6 17.34 6 16.68 6 16 C5.34 16 4.68 16 4 16 C4 15.01 4 14.02 4 13 C3.34 13 2.68 13 2 13 C2 12.01 2 11.02 2 10 C1.34 10 0.68 10 0 10 C0 6.7 0 3.4 0 0 Z " fill="#4B6480" transform="translate(11,83)"/>
<path d="M0 0 C1.54300781 0.10054688 1.54300781 0.10054688 3.1171875 0.203125 C6.40606444 0.80110263 8.45364798 1.75880772 11.125 3.75 C11.125 4.41 11.125 5.07 11.125 5.75 C12.259375 6.03875 13.39375 6.3275 14.5625 6.625 C15.738125 6.99625 16.91375 7.3675 18.125 7.75 C18.455 8.41 18.785 9.07 19.125 9.75 C18.465 9.75 17.805 9.75 17.125 9.75 C17.125 10.41 17.125 11.07 17.125 11.75 C14.815 11.42 12.505 11.09 10.125 10.75 C10.125 10.09 10.125 9.43 10.125 8.75 C9.50625 8.6675 8.8875 8.585 8.25 8.5 C7.198125 8.12875 7.198125 8.12875 6.125 7.75 C5.87621094 7.08742188 5.62742187 6.42484375 5.37109375 5.7421875 C4.95988281 5.08476563 4.54867188 4.42734375 4.125 3.75 C1.27603261 3.11950085 1.27603261 3.11950085 -1.9375 3.125 C-3.91966308 3.06372029 -5.902345 2.9533665 -7.875 2.75 C-8.205 2.09 -8.535 1.43 -8.875 0.75 C-5.56521337 -0.35326221 -3.46025591 -0.25887201 0 0 Z " fill="#93B6C0" transform="translate(13.875,72.25)"/>
<path d="M0 0 C0 0.99 0 1.98 0 3 C0.66 3 1.32 3 2 3 C2 2.34 2 1.68 2 1 C4.34852528 -0.17426264 5.73774065 -0.11508173 8.3515625 -0.09765625 C9.20234375 -0.09443359 10.053125 -0.09121094 10.9296875 -0.08789062 C11.81914063 -0.07951172 12.70859375 -0.07113281 13.625 -0.0625 C14.5221875 -0.05798828 15.419375 -0.05347656 16.34375 -0.04882812 C18.56256648 -0.03702591 20.78125018 -0.02056155 23 0 C23 0.99 23 1.98 23 3 C16.73 3 10.46 3 4 3 C4 3.99 4 4.98 4 6 C1.36 6 -1.28 6 -4 6 C-4 4.35 -4 2.7 -4 1 C-2 0 -2 0 0 0 Z " fill="#516886" transform="translate(21,24)"/>
<path d="M0 0 C12.54 0 25.08 0 38 0 C38.495 1.485 38.495 1.485 39 3 C20.685 2.505 20.685 2.505 2 2 C1.34 3.32 0.68 4.64 0 6 C-0.66 6 -1.32 6 -2 6 C-1.49396008 3.83125748 -1.00016187 2.00032373 0 0 Z " fill="#9CB2BA" transform="translate(35,0)"/>
<path d="M0 0 C0.99 0 1.98 0 3 0 C3 1.32 3 2.64 3 4 C3.66 4 4.32 4 5 4 C5 5.98 5 7.96 5 10 C5.33 8.68 5.66 7.36 6 6 C6.66 6 7.32 6 8 6 C8.36122881 7.31057393 8.71380311 8.62353624 9.0625 9.9375 C9.25972656 10.66839844 9.45695312 11.39929688 9.66015625 12.15234375 C9.77230469 12.76207031 9.88445313 13.37179688 10 14 C9.67 14.33 9.34 14.66 9 15 C8.6068352 16.67884238 8.25914548 18.36850045 7.9375 20.0625 C7.67259766 21.44115234 7.67259766 21.44115234 7.40234375 22.84765625 C7.26957031 23.55792969 7.13679688 24.26820312 7 25 C6.34 25 5.68 25 5 25 C4.67 26.32 4.34 27.64 4 29 C3.67 29 3.34 29 3 29 C2.875 26.625 2.875 26.625 3 24 C3.66 23.34 4.32 22.68 5 22 C5.06082886 19.81363275 5.06082886 19.81363275 4.6875 17.4375 C4.58824219 16.63183594 4.48898438 15.82617188 4.38671875 14.99609375 C4.19478523 13.00821651 4.19478523 13.00821651 3 12 C2.95919217 10.00041636 2.95745644 7.99954746 3 6 C2.34 6 1.68 6 1 6 C0.67 4.02 0.34 2.04 0 0 Z " fill="#ADD3DB" transform="translate(51,45)"/>
<path d="M0 0 C0.66 0.33 1.32 0.66 2 1 C4.88370333 1.07194869 7.74239664 1.09291708 10.625 1.0625 C11.82769531 1.05573242 11.82769531 1.05573242 13.0546875 1.04882812 C15.03649006 1.03703168 17.01825433 1.01909605 19 1 C19.33 1.99 19.66 2.98 20 4 C21.98 4 23.96 4 26 4 C26 4.66 26 5.32 26 6 C24.02 6 22.04 6 20 6 C20 6.66 20 7.32 20 8 C21.98 8 23.96 8 26 8 C26 8.33 26 8.66 26 9 C23.69 9 21.38 9 19 9 C19 8.34 19 7.68 19 7 C12.73 7 6.46 7 0 7 C0 6.67 0 6.34 0 6 C6.27 6 12.54 6 19 6 C19 5.01 19 4.02 19 3 C8.605 3.495 8.605 3.495 -2 4 C-2 4.66 -2 5.32 -2 6 C-2.66 6 -3.32 6 -4 6 C-4 5.01 -4 4.02 -4 3 C-4.66 2.67 -5.32 2.34 -6 2 C-4.02 2 -2.04 2 0 2 C0 1.34 0 0.68 0 0 Z " fill="#8597B0" transform="translate(25,21)"/>
<path d="M0 0 C9.9 0 19.8 0 30 0 C30 0.99 30 1.98 30 3 C31.98 3 33.96 3 36 3 C36 3.66 36 4.32 36 5 C37.98 5 39.96 5 42 5 C42 5.33 42 5.66 42 6 C39.69 6 37.38 6 35 6 C35 6.66 35 7.32 35 8 C33.35 8 31.7 8 30 8 C30 7.34 30 6.68 30 6 C28.35 6 26.7 6 25 6 C25 5.01 25 4.02 25 3 C26.32 3 27.64 3 29 3 C29 2.34 29 1.68 29 1 C19.43 1.33 9.86 1.66 0 2 C0 1.34 0 0.68 0 0 Z " fill="#67829B" transform="translate(38,11)"/>
<path d="M0 0 C1.32 0 2.64 0 4 0 C4 5.61 4 11.22 4 17 C2.02 17.99 2.02 17.99 0 19 C-3 15.25 -3 15.25 -3 13 C-2.34 13 -1.68 13 -1 13 C-1.01160156 12.39671875 -1.02320313 11.7934375 -1.03515625 11.171875 C-1.04417969 10.37265625 -1.05320312 9.5734375 -1.0625 8.75 C-1.07410156 7.96109375 -1.08570313 7.1721875 -1.09765625 6.359375 C-1.00385306 4.09308998 -0.63241063 2.1711105 0 0 Z " fill="#8DC7D9" transform="translate(10,20)"/>
<path d="M0 0 C3.63 0 7.26 0 11 0 C11 1.32 11 2.64 11 4 C11.66 4 12.32 4 13 4 C13.66 6.31 14.32 8.62 15 11 C15.99 11 16.98 11 18 11 C18.33 12.65 18.66 14.3 19 16 C18.01 16 17.02 16 16 16 C13.19744677 13.0936485 13 12.21174952 13 8 C11.35 7.67 9.7 7.34 8 7 C8 6.34 8 5.68 8 5 C7.34 5 6.68 5 6 5 C6 4.01 6 3.02 6 2 C4.02 2 2.04 2 0 2 C0 1.34 0 0.68 0 0 Z " fill="#5A708A" transform="translate(45,27)"/>
<path d="M0 0 C0.33 1.32 0.66 2.64 1 4 C0.34 4 -0.32 4 -1 4 C-1 4.66 -1 5.32 -1 6 C-1.66 6 -2.32 6 -3 6 C-3 6.99 -3 7.98 -3 9 C-3.66 9 -4.32 9 -5 9 C-5 9.66 -5 10.32 -5 11 C-6.65 11.33 -8.3 11.66 -10 12 C-10 12.66 -10 13.32 -10 14 C-10.66 14 -11.32 14 -12 14 C-12.56337087 10.1690781 -12.01128327 9.01629806 -9.75 5.75 C-7.14484971 3.14484971 -6.44435667 2.45924756 -3 2 C-2.01 1.34 -1.02 0.68 0 0 Z " fill="#A1E0F2" transform="translate(95,101)"/>
<path d="M0 0 C1.6875 1.6875 1.6875 1.6875 1.6875 3.6875 C2.3475 3.6875 3.0075 3.6875 3.6875 3.6875 C3.6875 4.3475 3.6875 5.0075 3.6875 5.6875 C4.3475 5.6875 5.0075 5.6875 5.6875 5.6875 C5.6875 6.3475 5.6875 7.0075 5.6875 7.6875 C6.3475 7.6875 7.0075 7.6875 7.6875 7.6875 C7.6875 8.3475 7.6875 9.0075 7.6875 9.6875 C8.3475 10.0175 9.0075 10.3475 9.6875 10.6875 C8.6975 10.6875 7.7075 10.6875 6.6875 10.6875 C6.6875 10.0275 6.6875 9.3675 6.6875 8.6875 C3.3875 8.0275 0.0875 7.3675 -3.3125 6.6875 C-3.3125 6.0275 -3.3125 5.3675 -3.3125 4.6875 C-3.9725 4.6875 -4.6325 4.6875 -5.3125 4.6875 C-5.3125 4.0275 -5.3125 3.3675 -5.3125 2.6875 C-5.9725 2.6875 -6.6325 2.6875 -7.3125 2.6875 C-7.3125 1.6975 -7.3125 0.7075 -7.3125 -0.3125 C-4.19275585 -1.26575516 -2.90299779 -1.64764739 0 0 Z " fill="#8FB5BE" transform="translate(90.3125,10.3125)"/>
<path d="M0 0 C1.32 0 2.64 0 4 0 C4 0.66 4 1.32 4 2 C4.99 2 5.98 2 7 2 C7 2.66 7 3.32 7 4 C7.66 4 8.32 4 9 4 C9 4.66 9 5.32 9 6 C10.65 6 12.3 6 14 6 C14 6.66 14 7.32 14 8 C15.65 8 17.3 8 19 8 C19 8.66 19 9.32 19 10 C14.71 9.67 10.42 9.34 6 9 C6 8.01 6 7.02 6 6 C4.68 6 3.36 6 2 6 C2 4.68 2 3.36 2 2 C1.34 2 0.68 2 0 2 C0 1.34 0 0.68 0 0 Z " fill="#526E89" transform="translate(21,103)"/>
<path d="M0 0 C1.65 0 3.3 0 5 0 C5 0.66 5 1.32 5 2 C3.68 2 2.36 2 1 2 C1 2.66 1 3.32 1 4 C0.34 4 -0.32 4 -1 4 C-1 5.98 -1 7.96 -1 10 C-2.65 10 -4.3 10 -6 10 C-6.33 14.29 -6.66 18.58 -7 23 C-7.66 23 -8.32 23 -9 23 C-9.05429959 21.25034642 -9.09292823 19.50020213 -9.125 17.75 C-9.15980469 16.28820313 -9.15980469 16.28820313 -9.1953125 14.796875 C-8.93824879 11.11572267 -7.8728125 9.01828125 -5.5 6.25 C-4 5 -4 5 -2 5 C-1.34 3.35 -0.68 1.7 0 0 Z " fill="#ADC2C9" transform="translate(16,10)"/>
<path d="M0 0 C0.66 0 1.32 0 2 0 C2 1.65 2 3.3 2 5 C2.66 5 3.32 5 4 5 C4 5.66 4 6.32 4 7 C4.66 7 5.32 7 6 7 C6.33 5.68 6.66 4.36 7 3 C7 4.32 7 5.64 7 7 C7.66 7.33 8.32 7.66 9 8 C8.01 8.495 8.01 8.495 7 9 C6.67 9.99 6.34 10.98 6 12 C6.66 12 7.32 12 8 12 C8.33 14.64 8.66 17.28 9 20 C7.68 20 6.36 20 5 20 C4.92652344 19.04287109 4.92652344 19.04287109 4.8515625 18.06640625 C4.77679688 17.24011719 4.70203125 16.41382812 4.625 15.5625 C4.52058594 14.32693359 4.52058594 14.32693359 4.4140625 13.06640625 C4.20910156 12.04353516 4.20910156 12.04353516 4 11 C3.34 10.67 2.68 10.34 2 10 C0.55487596 6.3871899 0 3.93312158 0 0 Z " fill="#8182A1" transform="translate(90,32)"/>
<path d="M0 0 C0.66 0 1.32 0 2 0 C2 2.64 2 5.28 2 8 C2.66 8.33 3.32 8.66 4 9 C3.34 9 2.68 9 2 9 C2 10.32 2 11.64 2 13 C1.34 13 0.68 13 0 13 C0 13.66 0 14.32 0 15 C-0.99 15.33 -1.98 15.66 -3 16 C-3.66 15.34 -4.32 14.68 -5 14 C-4.34 13.01 -3.68 12.02 -3 11 C-1.87574545 7.36270587 -0.88840179 3.70167412 0 0 Z " fill="#616F8D" transform="translate(97,78)"/>
<path d="M0 0 C13.86 0.495 13.86 0.495 28 1 C28 1.33 28 1.66 28 2 C25.36 2 22.72 2 20 2 C20 2.66 20 3.32 20 4 C15.38 4 10.76 4 6 4 C5.67 3.34 5.34 2.68 5 2 C2.47266765 1.34444881 2.47266765 1.34444881 0 1 C0 0.67 0 0.34 0 0 Z " fill="#CECCD6" transform="translate(33,101)"/>
<path d="M0 0 C0.103125 0.639375 0.20625 1.27875 0.3125 1.9375 C0.539375 2.618125 0.76625 3.29875 1 4 C1.99 4.33 2.98 4.66 4 5 C4 7.31 4 9.62 4 12 C1.69 11.67 -0.62 11.34 -3 11 C-3 8.03 -3 5.06 -3 2 C-2.34 2 -1.68 2 -1 2 C-0.67 1.34 -0.34 0.68 0 0 Z " fill="#81C4D8" transform="translate(109,34)"/>
<path d="M0 0 C0.99 0 1.98 0 3 0 C3 0.66 3 1.32 3 2 C3.66 2 4.32 2 5 2 C5 3.32 5 4.64 5 6 C5.99 6 6.98 6 8 6 C7.67 7.32 7.34 8.64 7 10 C4.525 9.01 4.525 9.01 2 8 C1.67 8.66 1.34 9.32 1 10 C0.87625 9.195625 0.7525 8.39125 0.625 7.5625 C0.315625 6.2940625 0.315625 6.2940625 0 5 C-0.66 4.67 -1.32 4.34 -2 4 C-1.34 2.68 -0.68 1.36 0 0 Z " fill="#8CC4D2" transform="translate(4,97)"/>
<path d="M0 0 C2.10478604 0.11409682 4.20884577 0.24165361 6.3125 0.375 C7.48425781 0.44460937 8.65601563 0.51421875 9.86328125 0.5859375 C13 1 13 1 16 3 C15.34 3 14.68 3 14 3 C14.66 4.32 15.32 5.64 16 7 C15.01 7 14.02 7 13 7 C13 6.01 13 5.02 13 4 C9.37 4.33 5.74 4.66 2 5 C2 4.01 2 3.02 2 2 C1.01 2.33 0.02 2.66 -1 3 C-0.67 2.01 -0.34 1.02 0 0 Z " fill="#8BC8DE" transform="translate(5,74)"/>
<path d="M0 0 C0.99 0 1.98 0 3 0 C3 0.66 3 1.32 3 2 C8.61 2.33 14.22 2.66 20 3 C20 3.33 20 3.66 20 4 C14.61972975 5.19088986 9.54708616 6.2919519 4 6 C4 5.34 4 4.68 4 4 C3.01 4 2.02 4 1 4 C0.67 2.68 0.34 1.36 0 0 Z " fill="#D7D4DE" transform="translate(22,95)"/>
<path d="M0 0 C5.61 0 11.22 0 17 0 C16.67 1.32 16.34 2.64 16 4 C10.39 3.34 4.78 2.68 -1 2 C-0.67 1.34 -0.34 0.68 0 0 Z " fill="#FCFDFA" transform="translate(39,18)"/>
<path d="M0 0 C2.1640625 0.0234375 2.1640625 0.0234375 4.625 0.375 C5.85089844 0.54128906 5.85089844 0.54128906 7.1015625 0.7109375 C7.72804688 0.80632812 8.35453125 0.90171875 9 1 C9.33 2.32 9.66 3.64 10 5 C6.37 5 2.74 5 -1 5 C-1.33 4.01 -1.66 3.02 -2 2 C-1.34 1.34 -0.68 0.68 0 0 Z " fill="#A7E2EF" transform="translate(29,87)"/>
<path d="M0 0 C0.66 0 1.32 0 2 0 C2 1.98 2 3.96 2 6 C1.34 6 0.68 6 0 6 C-0.33 8.31 -0.66 10.62 -1 13 C-2.32 12.67 -3.64 12.34 -5 12 C-4.35550393 8.98782888 -3.34977818 6.48344164 -1.9375 3.75 C-1.57527344 3.04359375 -1.21304688 2.3371875 -0.83984375 1.609375 C-0.56269531 1.07828125 -0.28554687 0.5471875 0 0 Z " fill="#C5C4D2" transform="translate(87,72)"/>
<path d="M0 0 C0.66 0.33 1.32 0.66 2 1 C2 3.31 2 5.62 2 8 C1.34 8 0.68 8 0 8 C0 9.65 0 11.3 0 13 C-0.99 13 -1.98 13 -3 13 C-3 13.99 -3 14.98 -3 16 C-4.32 16 -5.64 16 -7 16 C-7 15.34 -7 14.68 -7 14 C-6.34 14 -5.68 14 -5 14 C-5 12.68 -5 11.36 -5 10 C-4.34 10 -3.68 10 -3 10 C-3 9.34 -3 8.68 -3 8 C-2.34 7.67 -1.68 7.34 -1 7 C-0.59270772 4.67843403 -0.25561323 2.3431213 0 0 Z " fill="#8EC8DA" transform="translate(106,85)"/>
<path d="M0 0 C0 0.66 0 1.32 0 2 C0.66 2.33 1.32 2.66 2 3 C2 3.66 2 4.32 2 5 C2.66 5.33 3.32 5.66 4 6 C4.625 8.0625 4.625 8.0625 5 10 C4.34 10 3.68 10 3 10 C3 9.34 3 8.68 3 8 C1.68 7.67 0.36 7.34 -1 7 C-1 6.34 -1 5.68 -1 5 C-1.66 5 -2.32 5 -3 5 C-3 4.34 -3 3.68 -3 3 C-3.66 3 -4.32 3 -5 3 C-5 2.34 -5 1.68 -5 1 C-5.66 0.67 -6.32 0.34 -7 0 C-4.3333581 -1.33332095 -2.83319697 -0.67102033 0 0 Z " fill="#8BACB1" transform="translate(17,110)"/>
<path d="M0 0 C0.66 0 1.32 0 2 0 C1.89037184 3.1257396 1.75968759 6.25024781 1.625 9.375 C1.5940625 10.26445313 1.563125 11.15390625 1.53125 12.0703125 C1.49257813 12.92109375 1.45390625 13.771875 1.4140625 14.6484375 C1.3826416 15.43395996 1.3512207 16.21948242 1.31884766 17.02880859 C1 19 1 19 -1 21 C-1.02888146 17.68751813 -1.04675799 14.37506833 -1.0625 11.0625 C-1.07087891 10.11697266 -1.07925781 9.17144531 -1.08789062 8.19726562 C-1.09111328 7.29814453 -1.09433594 6.39902344 -1.09765625 5.47265625 C-1.10289307 4.64000244 -1.10812988 3.80734863 -1.11352539 2.94946289 C-1 1 -1 1 0 0 Z " fill="#B1C8CC" transform="translate(1,77)"/>
<path d="M0 0 C0.66 0 1.32 0 2 0 C2 0.99 2 1.98 2 3 C2.66 3 3.32 3 4 3 C4 3.66 4 4.32 4 5 C4.99 5 5.98 5 7 5 C7.66 7.64 8.32 10.28 9 13 C7.68 13 6.36 13 5 13 C5 11.35 5 9.7 5 8 C4.01 8 3.02 8 2 8 C2 6.68 2 5.36 2 4 C1.34 4 0.68 4 0 4 C0 2.68 0 1.36 0 0 Z " fill="#9D9DB2" transform="translate(83,27)"/>
<path d="M0 0 C7.59 0 15.18 0 23 0 C23 0.99 23 1.98 23 3 C24.65 3 26.3 3 28 3 C28 3.33 28 3.66 28 4 C22.555 3.505 22.555 3.505 17 3 C17 2.34 17 1.68 17 1 C8.585 1.495 8.585 1.495 0 2 C0 1.34 0 0.68 0 0 Z " fill="#B6B8C9" transform="translate(40,14)"/>
<path d="M0 0 C1.98 0 3.96 0 6 0 C6 0.99 6 1.98 6 3 C6.66 3 7.32 3 8 3 C8 3.99 8 4.98 8 6 C9.32 6 10.64 6 12 6 C11.67 6.99 11.34 7.98 11 9 C10.01 9 9.02 9 8 9 C8 8.34 8 7.68 8 7 C7.34 7 6.68 7 6 7 C6 6.34 6 5.68 6 5 C5.01 5 4.02 5 3 5 C3.33 5.99 3.66 6.98 4 8 C3.34 8 2.68 8 2 8 C2 6.35 2 4.7 2 3 C2.66 3 3.32 3 4 3 C4 2.34 4 1.68 4 1 C2.68 0.67 1.36 0.34 0 0 Z " fill="#617A98" transform="translate(11,83)"/>
<path d="M0 0 C4.95 0 9.9 0 15 0 C15 1.65 15 3.3 15 5 C10.545 4.01 10.545 4.01 6 3 C6 2.34 6 1.68 6 1 C4.02 1 2.04 1 0 1 C0 0.67 0 0.34 0 0 Z " fill="#8AA9B1" transform="translate(22,121)"/>
<path d="M0 0 C2.64 0.66 5.28 1.32 8 2 C8 2.66 8 3.32 8 4 C9.65 4.33 11.3 4.66 13 5 C12.67 5.66 12.34 6.32 12 7 C11.34 7 10.68 7 10 7 C10 6.34 10 5.68 10 5 C9.34 5 8.68 5 8 5 C8 5.99 8 6.98 8 8 C8.66 8 9.32 8 10 8 C9.67 9.32 9.34 10.64 9 12 C9 11.34 9 10.68 9 10 C8.34 10 7.68 10 7 10 C6.67 8.02 6.34 6.04 6 4 C5.01 4 4.02 4 3 4 C3 3.34 3 2.68 3 2 C2.01 2 1.02 2 0 2 C0 1.34 0 0.68 0 0 Z " fill="#9ACCD7" transform="translate(89,17)"/>
<path d="M0 0 C0.66 0 1.32 0 2 0 C2 0.66 2 1.32 2 2 C2.66 2 3.32 2 4 2 C4 3.65 4 5.3 4 7 C3.67 6.01 3.34 5.02 3 4 C2.34 4 1.68 4 1 4 C1 6.97 1 9.94 1 13 C1.66 13.33 2.32 13.66 3 14 C2.01 14 1.02 14 0 14 C0 11.69 0 9.38 0 7 C-0.66 7 -1.32 7 -2 7 C-2 5.68 -2 4.36 -2 3 C-2.66 3 -3.32 3 -4 3 C-4 2.34 -4 1.68 -4 1 C-3.01 1.33 -2.02 1.66 -1 2 C-0.67 1.34 -0.34 0.68 0 0 Z " fill="#A1D3E2" transform="translate(105,32)"/>
<path d="M0 0 C2.04119788 1.61594832 4.04072937 3.2856382 6 5 C6 5.66 6 6.32 6 7 C6.66 7 7.32 7 8 7 C8 7.66 8 8.32 8 9 C8.66 9 9.32 9 10 9 C10 10.32 10 11.64 10 13 C8.35 13.33 6.7 13.66 5 14 C5 11.36 5 8.72 5 6 C4.01 6 3.02 6 2 6 C1.34 4.02 0.68 2.04 0 0 Z " fill="#7C849E" transform="translate(58,32)"/>
<path d="M0 0 C0.3636198 4.24223102 -0.4606772 6.58168085 -3 10 C-3.66 10 -4.32 10 -5 10 C-5.33 10.99 -5.66 11.98 -6 13 C-6.66 12.67 -7.32 12.34 -8 12 C-7.67 10.35 -7.34 8.7 -7 7 C-5.68 6.67 -4.36 6.34 -3 6 C-3 4.35 -3 2.7 -3 1 C-1 0 -1 0 0 0 Z " fill="#BBBACA" transform="translate(71,73)"/>
<path d="M0 0 C3.63 0 7.26 0 11 0 C11 0.99 11 1.98 11 3 C6.38 3 1.76 3 -3 3 C-2.01 2.67 -1.02 2.34 0 2 C0 1.34 0 0.68 0 0 Z " fill="#3E5072" transform="translate(33,24)"/>
<path d="M0 0 C0.66 0.33 1.32 0.66 2 1 C1.01 2.98 0.02 4.96 -1 7 C-1.66 7 -2.32 7 -3 7 C-3 7.66 -3 8.32 -3 9 C-3.66 9 -4.32 9 -5 9 C-5.66 10.65 -6.32 12.3 -7 14 C-7.33 14 -7.66 14 -8 14 C-8 12.02 -8 10.04 -8 8 C-7.34 8 -6.68 8 -6 8 C-6 7.34 -6 6.68 -6 6 C-4.68 6 -3.36 6 -2 6 C-2.33 5.01 -2.66 4.02 -3 3 C-2.01 2.01 -1.02 1.02 0 0 Z " fill="#98C3CE" transform="translate(23,6)"/>
<path d="M0 0 C0.66 0.33 1.32 0.66 2 1 C1.67 1.66 1.34 2.32 1 3 C0.9283265 5.55157655 0.90691558 8.07472971 0.9375 10.625 C0.94426758 11.68460938 0.94426758 11.68460938 0.95117188 12.765625 C0.96296125 14.51045275 0.98089676 16.255237 1 18 C0.01 18 -0.98 18 -2 18 C-2.33 19.32 -2.66 20.64 -3 22 C-3.66 21.34 -4.32 20.68 -5 20 C-5 19.01 -5 18.02 -5 17 C-3.68 17 -2.36 17 -1 17 C-1.01160156 15.94039062 -1.02320313 14.88078125 -1.03515625 13.7890625 C-1.04453476 12.40104342 -1.05363489 11.01302245 -1.0625 9.625 C-1.07087891 8.92632812 -1.07925781 8.22765625 -1.08789062 7.5078125 C-1.11328125 2.2265625 -1.11328125 2.2265625 0 0 Z " fill="#A5D7E5" transform="translate(6,79)"/>
<path d="M0 0 C0.66 0 1.32 0 2 0 C2 0.99 2 1.98 2 3 C2.66 3 3.32 3 4 3 C4 5.64 4 8.28 4 11 C3.01 11 2.02 11 1 11 C1 8.69 1 6.38 1 4 C0.34 4 -0.32 4 -1 4 C-0.67 2.68 -0.34 1.36 0 0 Z " fill="#455B7B" transform="translate(97,40)"/>
<path d="M0 0 C3.96 0 7.92 0 12 0 C12 0.66 12 1.32 12 2 C10.43883181 2.33951619 8.87598662 2.67132544 7.3125 3 C6.00732422 3.2784375 6.00732422 3.2784375 4.67578125 3.5625 C2.06287036 3.98972047 -0.35813038 4.07616201 -3 4 C-2.01 3.67 -1.02 3.34 0 3 C0 2.01 0 1.02 0 0 Z " fill="#83B8CB" transform="translate(15,36)"/>
<path d="M0 0 C0.99 0 1.98 0 3 0 C3 1.32 3 2.64 3 4 C3.66 4 4.32 4 5 4 C5 6.97 5 9.94 5 13 C4.34 12.67 3.68 12.34 3 12 C3 10.02 3 8.04 3 6 C2.34 6 1.68 6 1 6 C0.67 4.02 0.34 2.04 0 0 Z " fill="#B7CACF" transform="translate(51,45)"/>
<path d="M0 0 C1.9375 1.5625 1.9375 1.5625 3 3 C-1.51617599 3.07654536 -5.59085217 3.10228696 -10 2 C-10 1.34 -10 0.68 -10 0 C-6.22941703 -1.25686099 -3.86146303 -0.82745636 0 0 Z " fill="#8DC9D8" transform="translate(33,118)"/>
<path d="M0 0 C0.99 0.33 1.98 0.66 3 1 C3 1.99 3 2.98 3 4 C6.93075644 3.42547254 6.93075644 3.42547254 10 1 C11.32 1.66 12.64 2.32 14 3 C11.82575883 5.50037734 10.26954202 6.43628586 7 7 C7 6.34 7 5.68 7 5 C5.35 5 3.7 5 2 5 C2 4.01 2 3.02 2 2 C1.34 2 0.68 2 0 2 C0 1.34 0 0.68 0 0 Z " fill="#93CEDE" transform="translate(17,84)"/>
<path d="M0 0 C0.33 0 0.66 0 1 0 C1.02705729 1.77074917 1.04642195 3.54161711 1.0625 5.3125 C1.07410156 6.29863281 1.08570313 7.28476563 1.09765625 8.30078125 C1 11 1 11 0 14 C-0.99 14 -1.98 14 -3 14 C-2.69249629 11.85344499 -2.3788634 9.70776715 -2.0625 7.5625 C-1.88847656 6.36753906 -1.71445312 5.17257813 -1.53515625 3.94140625 C-1 1 -1 1 0 0 Z " fill="#86C7D7" transform="translate(60,59)"/>
<path d="M0 0 C0.33 0.99 0.66 1.98 1 3 C-0.98 3 -2.96 3 -5 3 C-5 3.66 -5 4.32 -5 5 C-3.68 5.33 -2.36 5.66 -1 6 C-2.65 6.33 -4.3 6.66 -6 7 C-6 7.66 -6 8.32 -6 9 C-7.32 9 -8.64 9 -10 9 C-10 8.34 -10 7.68 -10 7 C-9.34 7 -8.68 7 -8 7 C-8 6.34 -8 5.68 -8 5 C-7.34 5 -6.68 5 -6 5 C-6 4.01 -6 3.02 -6 2 C-4.02 2 -2.04 2 0 2 C0 1.34 0 0.68 0 0 Z " fill="#6D879D" transform="translate(31,14)"/>
<path d="M0 0 C4.47959418 1.14185734 8.14522751 2.43015167 12 5 C11.67 5.99 11.34 6.98 11 8 C8.69 7.01 6.38 6.02 4 5 C4 4.34 4 3.68 4 3 C2.68 3 1.36 3 0 3 C0 2.01 0 1.02 0 0 Z " fill="#B8CCCF" transform="translate(76,3)"/>
<path d="M0 0 C1.65 0 3.3 0 5 0 C5.33 0.99 5.66 1.98 6 3 C2.04 4.98 2.04 4.98 -2 7 C-2.66 6.01 -3.32 5.02 -4 4 C-2.68 4 -1.36 4 0 4 C0 2.68 0 1.36 0 0 Z " fill="#87A2AA" transform="translate(80,118)"/>
<path d="M0 0 C0 0.66 0 1.32 0 2 C-0.66 2 -1.32 2 -2 2 C-2 2.66 -2 3.32 -2 4 C-3.65 4.66 -5.3 5.32 -7 6 C-7 6.99 -7 7.98 -7 9 C-7.66 9 -8.32 9 -9 9 C-9 9.66 -9 10.32 -9 11 C-9.99 10.67 -10.98 10.34 -12 10 C-11.34 10 -10.68 10 -10 10 C-10 9.34 -10 8.68 -10 8 C-9.34 8 -8.68 8 -8 8 C-8 6.68 -8 5.36 -8 4 C-7.34 4 -6.68 4 -6 4 C-6 3.34 -6 2.68 -6 2 C-3 0 -3 0 0 0 Z " fill="#738488" transform="translate(98,109)"/>
<path d="M0 0 C1.32 0 2.64 0 4 0 C4.33 0.99 4.66 1.98 5 3 C4 4 4 4 2.14233398 4.02172852 C0.95619507 3.95103149 0.95619507 3.95103149 -0.25390625 3.87890625 C-1.53491211 3.80639648 -1.53491211 3.80639648 -2.84179688 3.73242188 C-3.73962891 3.67634766 -4.63746094 3.62027344 -5.5625 3.5625 C-6.46419922 3.51029297 -7.36589844 3.45808594 -8.29492188 3.40429688 C-10.5302655 3.27419751 -12.7652089 3.13922064 -15 3 C-15 2.67 -15 2.34 -15 2 C-10.05 1.67 -5.1 1.34 0 1 C0 0.67 0 0.34 0 0 Z " fill="#A4D2E0" transform="translate(43,35)"/>
<path d="M0 0 C1.32 0.33 2.64 0.66 4 1 C4 1.66 4 2.32 4 3 C4.66 3 5.32 3 6 3 C6 4.32 6 5.64 6 7 C6.66 7 7.32 7 8 7 C8 8.32 8 9.64 8 11 C7.34 11 6.68 11 6 11 C6 10.34 6 9.68 6 9 C5.34 9 4.68 9 4 9 C4 7.35 4 5.7 4 4 C2.68 3.67 1.36 3.34 0 3 C0 2.01 0 1.02 0 0 Z " fill="#415A78" transform="translate(88,28)"/>
<path d="M0 0 C1.22589844 0.01353516 1.22589844 0.01353516 2.4765625 0.02734375 C3.41628906 0.04474609 3.41628906 0.04474609 4.375 0.0625 C4.045 1.0525 3.715 2.0425 3.375 3.0625 C0.075 3.0625 -3.225 3.0625 -6.625 3.0625 C-6.625 2.4025 -6.625 1.7425 -6.625 1.0625 C-4.21954362 -0.14022819 -2.67503047 -0.03821472 0 0 Z " fill="#83C4D8" transform="translate(38.625,83.9375)"/>
<path d="M0 0 C0.78375 0.185625 1.5675 0.37125 2.375 0.5625 C4.97089775 1.25962266 4.97089775 1.25962266 7 0 C7 0.99 7 1.98 7 3 C7.66 3.33 8.32 3.66 9 4 C8.34 4.66 7.68 5.32 7 6 C4.0625 5.25 4.0625 5.25 1 4 C0.125 1.875 0.125 1.875 0 0 Z " fill="#AED4DC" transform="translate(6,105)"/>
<path d="M0 0 C2 3.875 2 3.875 2 5 C-0.64 5.66 -3.28 6.32 -6 7 C-6 7.66 -6 8.32 -6 9 C-6.99 8.67 -7.98 8.34 -9 8 C-7.71034824 6.62437146 -6.37310707 5.29233607 -5 4 C-4.34 4 -3.68 4 -3 4 C-3 3.34 -3 2.68 -3 2 C-2.01 2 -1.02 2 0 2 C0 1.34 0 0.68 0 0 Z " fill="#8BC0CF" transform="translate(98,104)"/>
<path d="M0 0 C1.32 0 2.64 0 4 0 C4 0.66 4 1.32 4 2 C5.65 2.33 7.3 2.66 9 3 C8.01 3.495 8.01 3.495 7 4 C6.67 4.99 6.34 5.98 6 7 C6 6.34 6 5.68 6 5 C4.68 5 3.36 5 2 5 C2 4.34 2 3.68 2 3 C1.34 3 0.68 3 0 3 C0 2.01 0 1.02 0 0 Z " fill="#8EC6D5" transform="translate(76,6)"/>
<path d="M0 0 C2.31 0 4.62 0 7 0 C7 0.66 7 1.32 7 2 C8.65 2 10.3 2 12 2 C12 2.66 12 3.32 12 4 C9.69 4 7.38 4 5 4 C5 3.34 5 2.68 5 2 C3.35 2 1.7 2 0 2 C0 1.34 0 0.68 0 0 Z " fill="#465877" transform="translate(28,109)"/>
<path d="M0 0 C0.66 0.33 1.32 0.66 2 1 C1.979375 1.78375 1.95875 2.5675 1.9375 3.375 C1.81315937 5.98114961 1.81315937 5.98114961 3 8 C2.34 8 1.68 8 1 8 C0.67 9.32 0.34 10.64 0 12 C-0.89141824 8.68901795 -1.62916167 5.4117126 -2 2 C-1.34 1.34 -0.68 0.68 0 0 Z " fill="#80AEB8" transform="translate(109,84)"/>
<path d="M0 0 C0.33 0.66 0.66 1.32 1 2 C1.66 2 2.32 2 3 2 C3.33 3.32 3.66 4.64 4 6 C4.99 6 5.98 6 7 6 C7.33 7.65 7.66 9.3 8 11 C7.01 11 6.02 11 5 11 C2.19744677 8.0936485 2 7.21174952 2 3 C1.34 3 0.68 3 0 3 C0 2.01 0 1.02 0 0 Z " fill="#3C5374" transform="translate(56,32)"/>
<path d="M0 0 C2.375 0.1875 2.375 0.1875 5 1 C6.3125 3.5625 6.3125 3.5625 7 6 C7.99 6 8.98 6 10 6 C10 6.66 10 7.32 10 8 C8.68 8 7.36 8 6 8 C6 7.01 6 6.02 6 5 C5.01 5 4.02 5 3 5 C3 4.01 3 3.02 3 2 C2.01 2 1.02 2 0 2 C0 1.34 0 0.68 0 0 Z " fill="#8D8EA6" transform="translate(73,19)"/>
<path d="M0 0 C0.99 0 1.98 0 3 0 C2.67 2.31 2.34 4.62 2 7 C1.01 7 0.02 7 -1 7 C-1 7.66 -1 8.32 -1 9 C-1.99 8.67 -2.98 8.34 -4 8 C-3.34 8 -2.68 8 -2 8 C-1.855625 7.236875 -1.71125 6.47375 -1.5625 5.6875 C-1 3 -1 3 0 0 Z " fill="#D2D0D9" transform="translate(72,90)"/>
<path d="M0 0 C0.8971875 0.5259375 0.8971875 0.5259375 1.8125 1.0625 C0.8225 1.0625 -0.1675 1.0625 -1.1875 1.0625 C-1.5175 2.3825 -1.8475 3.7025 -2.1875 5.0625 C-5.1575 4.5675 -5.1575 4.5675 -8.1875 4.0625 C-7.5275 3.7325 -6.8675 3.4025 -6.1875 3.0625 C-5.8575 2.0725 -5.5275 1.0825 -5.1875 0.0625 C-2.1875 -0.9375 -2.1875 -0.9375 0 0 Z " fill="#617890" transform="translate(61.1875,84.9375)"/>
<path d="M0 0 C0.66 0 1.32 0 2 0 C2 1.65 2 3.3 2 5 C2.66 5 3.32 5 4 5 C4 5.66 4 6.32 4 7 C4.66 7 5.32 7 6 7 C6.33 5.68 6.66 4.36 7 3 C7 4.32 7 5.64 7 7 C7.66 7.33 8.32 7.66 9 8 C5.37673261 9.2077558 4.35853631 8.54311128 1 7 C0.67 4.69 0.34 2.38 0 0 Z " fill="#6C7897" transform="translate(90,32)"/>
<path d="M0 0 C0.66 0 1.32 0 2 0 C1.67 3.96 1.34 7.92 1 12 C0.34 12 -0.32 12 -1 12 C-1.02687279 10.18757948 -1.04633715 8.37504767 -1.0625 6.5625 C-1.07410156 5.55316406 -1.08570313 4.54382813 -1.09765625 3.50390625 C-1 1 -1 1 0 0 Z " fill="#B3D3D7" transform="translate(8,21)"/>
<path d="M0 0 C0 0.66 0 1.32 0 2 C1.918125 1.938125 1.918125 1.938125 3.875 1.875 C6.0546875 1.8046875 6.0546875 1.8046875 8 2 C8.66 2.66 9.32 3.32 10 4 C7.51979503 3.88658509 5.04155031 3.75985314 2.5625 3.625 C1.85544922 3.5940625 1.14839844 3.563125 0.41992188 3.53125 C-1.39239188 3.42719371 -3.19817988 3.22080108 -5 3 C-5.33 2.34 -5.66 1.68 -6 1 C-3 0 -3 0 0 0 Z " fill="#A3C2CF" transform="translate(11,72)"/>
<path d="M0 0 C0.103125 0.639375 0.20625 1.27875 0.3125 1.9375 C0.539375 2.618125 0.76625 3.29875 1 4 C1.99 4.33 2.98 4.66 4 5 C4 7.31 4 9.62 4 12 C3.34 12 2.68 12 2 12 C1.87625 11.21625 1.7525 10.4325 1.625 9.625 C1.20882007 6.85942178 1.20882007 6.85942178 -1 5 C-0.625 2.375 -0.625 2.375 0 0 Z " fill="#94A4A6" transform="translate(109,34)"/>
<path d="M0 0 C-0.33 1.98 -0.66 3.96 -1 6 C-0.34 6 0.32 6 1 6 C0.67 6.99 0.34 7.98 0 9 C0 8.34 0 7.68 0 7 C-0.66 7 -1.32 7 -2 7 C-2 6.01 -2 5.02 -2 4 C-2.66 4 -3.32 4 -4 4 C-4 3.34 -4 2.68 -4 2 C-5.32 1.67 -6.64 1.34 -8 1 C-5.23735711 0.40267181 -2.83967231 0 0 0 Z " fill="#7B9AA2" transform="translate(50,38)"/>
<path d="M0 0 C2.64 0.66 5.28 1.32 8 2 C8 2.33 8 2.66 8 3 C4.7 3.33 1.4 3.66 -2 4 C-2 4.66 -2 5.32 -2 6 C-2.66 6 -3.32 6 -4 6 C-4 5.01 -4 4.02 -4 3 C-4.66 2.67 -5.32 2.34 -6 2 C-4.02 2 -2.04 2 0 2 C0 1.34 0 0.68 0 0 Z " fill="#ADB2C4" transform="translate(25,21)"/>
<path d="M0 0 C0.33 1.32 0.66 2.64 1 4 C5.455 4.99 5.455 4.99 10 6 C10 6.33 10 6.66 10 7 C7.69 7 5.38 7 3 7 C3 6.34 3 5.68 3 5 C0.69 4.67 -1.62 4.34 -4 4 C-2.68 2.68 -1.36 1.36 0 0 Z " fill="#717E98" transform="translate(23,89)"/>
<path d="M0 0 C0.99 0 1.98 0 3 0 C3 2.64 3 5.28 3 8 C2.01 8 1.02 8 0 8 C0 5.36 0 2.72 0 0 Z " fill="#9798B0" transform="translate(68,45)"/>
<path d="M0 0 C2.97 0.495 2.97 0.495 6 1 C6 1.33 6 1.66 6 2 C8.97 2.495 8.97 2.495 12 3 C12 3.33 12 3.66 12 4 C8.7 4.33 5.4 4.66 2 5 C2 4.01 2 3.02 2 2 C1.01 2.33 0.02 2.66 -1 3 C-0.67 2.01 -0.34 1.02 0 0 Z " fill="#97D0E2" transform="translate(5,74)"/>
<path d="M0 0 C0.33 0 0.66 0 1 0 C1 4.95 1 9.9 1 15 C0.67 13.68 0.34 12.36 0 11 C-0.99 10.67 -1.98 10.34 -3 10 C-2.34 9.01 -1.68 8.02 -1 7 C-0.60612212 4.67612053 -0.26513915 2.34206251 0 0 Z " fill="#A19EB4" transform="translate(94,43)"/>
<path d="M0 0 C0.66 0.33 1.32 0.66 2 1 C0.17328621 3.53926173 -1.66877878 5.9050512 -4 8 C-7.375 8.4375 -7.375 8.4375 -10 8 C-10 7.67 -10 7.34 -10 7 C-8.5459375 6.5978125 -8.5459375 6.5978125 -7.0625 6.1875 C-5.5465625 5.5996875 -5.5465625 5.5996875 -4 5 C-3.67 4.01 -3.34 3.02 -3 2 C-2.01 2 -1.02 2 0 2 C0 1.34 0 0.68 0 0 Z " fill="#86BBD1" transform="translate(85,105)"/>
<path d="M0 0 C2.31 0.33 4.62 0.66 7 1 C6.34 2.32 5.68 3.64 5 5 C4.34 5 3.68 5 3 5 C3 4.34 3 3.68 3 3 C2.01 3 1.02 3 0 3 C0 2.01 0 1.02 0 0 Z " fill="#FAFBFB" transform="translate(58,22)"/>
<path d="M0 0 C1.32 0 2.64 0 4 0 C4 0.66 4 1.32 4 2 C3.34 2 2.68 2 2 2 C2 4.64 2 7.28 2 10 C0 8 0 8 -0.1953125 6.0546875 C-0.13020833 4.03645833 -0.06510417 2.01822917 0 0 Z " fill="#87C3D6" transform="translate(10,20)"/>
<path d="M0 0 C1.37478516 0.01740234 1.37478516 0.01740234 2.77734375 0.03515625 C3.69644531 0.04417969 4.61554687 0.05320313 5.5625 0.0625 C6.27277344 0.07410156 6.98304687 0.08570312 7.71484375 0.09765625 C7.71484375 0.42765625 7.71484375 0.75765625 7.71484375 1.09765625 C5.07484375 1.09765625 2.43484375 1.09765625 -0.28515625 1.09765625 C-0.94515625 2.41765625 -1.60515625 3.73765625 -2.28515625 5.09765625 C-2.94515625 5.09765625 -3.60515625 5.09765625 -4.28515625 5.09765625 C-3.16461059 0.13523977 -3.16461059 0.13523977 0 0 Z " fill="#B5CFD7" transform="translate(37.28515625,0.90234375)"/>
<path d="M0 0 C2.0625 0.4375 2.0625 0.4375 4 1 C3.67 2.65 3.34 4.3 3 6 C1.68 6.33 0.36 6.66 -1 7 C-1.04254356 5.00045254 -1.04080783 2.99958364 -1 1 C-0.67 0.67 -0.34 0.34 0 0 Z " fill="#89BAC8" transform="translate(3,75)"/>
<path d="M0 0 C0.33 0.99 0.66 1.98 1 3 C1.99 3.33 2.98 3.66 4 4 C3.67 5.32 3.34 6.64 3 8 C2.01 8 1.02 8 0 8 C0 5.36 0 2.72 0 0 Z " fill="#E2E1EA" transform="translate(71,46)"/>
<path d="M0 0 C1.32 0 2.64 0 4 0 C4 0.66 4 1.32 4 2 C3.34 2 2.68 2 2 2 C2 3.98 2 5.96 2 8 C1.34 8 0.68 8 0 8 C0 5.36 0 2.72 0 0 Z " fill="#35516F" transform="translate(11,84)"/>
<path d="M0 0 C0.99 0 1.98 0 3 0 C3 0.66 3 1.32 3 2 C3.66 2.33 4.32 2.66 5 3 C0.71 3 -3.58 3 -8 3 C-8 2.67 -8 2.34 -8 2 C-6.865625 1.855625 -5.73125 1.71125 -4.5625 1.5625 C-1.19222799 1.38828522 -1.19222799 1.38828522 0 0 Z " fill="#88C5D7" transform="translate(40,34)"/>
<path d="M0 0 C0 1.32 0 2.64 0 4 C-0.66 4 -1.32 4 -2 4 C-2 4.99 -2 5.98 -2 7 C-2.66 7 -3.32 7 -4 7 C-4.6875 5.1875 -4.6875 5.1875 -5 3 C-3.38441968 0.84589291 -2.74502455 0 0 0 Z " fill="#3A526F" transform="translate(94,93)"/>
<path d="M0 0 C1.65 0 3.3 0 5 0 C5.33 0.99 5.66 1.98 6 3 C4.35 3.33 2.7 3.66 1 4 C0.67 2.68 0.34 1.36 0 0 Z " fill="#E1DEE0" transform="translate(57,17)"/>
<path d="M0 0 C1.32 0 2.64 0 4 0 C4 1.32 4 2.64 4 4 C2.35 4 0.7 4 -1 4 C-0.67 2.68 -0.34 1.36 0 0 Z " fill="#8BC7DA" transform="translate(76,118)"/>
<path d="M0 0 C0.33 1.32 0.66 2.64 1 4 C-2.625 7 -2.625 7 -6 7 C-6 6.34 -6 5.68 -6 5 C-5.01 5 -4.02 5 -3 5 C-3 4.34 -3 3.68 -3 3 C-2.01 3 -1.02 3 0 3 C0 2.01 0 1.02 0 0 Z " fill="#95CEE2" transform="translate(93,98)"/>
<path d="M0 0 C0.66 0 1.32 0 2 0 C2 0.66 2 1.32 2 2 C3.32 2 4.64 2 6 2 C5.67 2.99 5.34 3.98 5 5 C4.01 5 3.02 5 2 5 C2 4.34 2 3.68 2 3 C1.34 3 0.68 3 0 3 C0 2.01 0 1.02 0 0 Z " fill="#3B5972" transform="translate(17,87)"/>
<path d="M0 0 C0.99 0 1.98 0 3 0 C2.34 1.65 1.68 3.3 1 5 C0.67 5 0.34 5 0 5 C0 3.35 0 1.7 0 0 Z M-3 5 C-2.01 5.33 -1.02 5.66 0 6 C-1.65 6.33 -3.3 6.66 -5 7 C-4.34 6.34 -3.68 5.68 -3 5 Z " fill="#D1D0DD" transform="translate(60,86)"/>
<path d="M0 0 C0.99 0 1.98 0 3 0 C3 1.98 3 3.96 3 6 C2.01 5.67 1.02 5.34 0 5 C0 3.35 0 1.7 0 0 Z " fill="#AFCDD1" transform="translate(110,85)"/>
<path d="M0 0 C0.36923077 4.55384615 0.36923077 4.55384615 -1.5 6.8125 C-1.995 7.204375 -2.49 7.59625 -3 8 C-3 5.69 -3 3.38 -3 1 C-1 0 -1 0 0 0 Z " fill="#C7C7D6" transform="translate(71,73)"/>
<path d="M0 0 C1.32 0.33 2.64 0.66 4 1 C4.33 2.65 4.66 4.3 5 6 C3.0625 5.25 3.0625 5.25 1 4 C0.25 1.875 0.25 1.875 0 0 Z " fill="#A3B5BA" transform="translate(7,33)"/>
<path d="M0 0 C2.31 0 4.62 0 7 0 C7 0.99 7 1.98 7 3 C4.69 2.67 2.38 2.34 0 2 C0 1.34 0 0.68 0 0 Z " fill="#375270" transform="translate(73,17)"/>
</svg>
