<?xml version="1.0" encoding="UTF-8"?>
<svg version="1.1" xmlns="http://www.w3.org/2000/svg" width="111" height="111">
<path d="M0 0 C3.96 0 7.92 0 12 0 C12.495 1.485 12.495 1.485 13 3 C13.99 3.33 14.98 3.66 16 4 C19 7.44444444 19 7.44444444 19 10 C19.99 10.33 20.98 10.66 22 11 C22 11.99 22 12.98 22 14 C22.66 14 23.32 14 24 14 C24.48509793 15.37291868 24.96275513 16.74846703 25.4375 18.125 C25.70433594 18.89070313 25.97117187 19.65640625 26.24609375 20.4453125 C27 23 27 23 28 29 C35.92 29.33 43.84 29.66 52 30 C52 30.66 52 31.32 52 32 C53.32 32 54.64 32 56 32 C56 32.66 56 33.32 56 34 C56.61875 34.268125 57.2375 34.53625 57.875 34.8125 C60 36 60 36 62 39 C62.1953125 42.35546875 62.1953125 42.35546875 62.125 46.1875 C62.10695313 47.45980469 62.08890625 48.73210938 62.0703125 50.04296875 C62.04710938 51.01878906 62.02390625 51.99460938 62 53 C61.34 53 60.68 53 60 53 C60 53.66 60 54.32 60 55 C58.01739574 56.68732277 56.0167658 58.35366057 54 60 C53.505 60.99 53.505 60.99 53 62 C52.01 62 51.02 62 50 62 C50 62.66 50 63.32 50 64 C49.34 64 48.68 64 48 64 C48 64.66 48 65.32 48 66 C47.34 66 46.68 66 46 66 C43.85663839 69.4766338 43.78722374 72.21229195 43.875 76.25 C43.89304687 77.32765625 43.91109375 78.4053125 43.9296875 79.515625 C43.95289062 80.33546875 43.97609375 81.1553125 44 82 C44.66 82 45.32 82 46 82 C47.20029908 84.40059817 47.11459743 85.89360649 47.09765625 88.5703125 C47.09282227 89.91416016 47.09282227 89.91416016 47.08789062 91.28515625 C47.07532227 92.69087891 47.07532227 92.69087891 47.0625 94.125 C47.05798828 95.06988281 47.05347656 96.01476562 47.04882812 96.98828125 C47.03702357 99.32558387 47.02055759 101.66276061 47 104 C45.515 104.495 45.515 104.495 44 105 C44 105.66 44 106.32 44 107 C43.34 107 42.68 107 42 107 C42 107.66 42 108.32 42 109 C38.38990719 111.40672854 35.73024719 111.29795107 31.5625 111.25 C29.58443359 111.25773437 29.58443359 111.25773437 27.56640625 111.265625 C24.3635216 111.02707499 22.65141553 110.7088407 20 109 C20 108.34 20 107.68 20 107 C19.34 107 18.68 107 18 107 C18 106.34 18 105.68 18 105 C16.7934375 104.5978125 16.7934375 104.5978125 15.5625 104.1875 C14.716875 103.795625 13.87125 103.40375 13 103 C12.67 102.01 12.34 101.02 12 100 C6.07766039 98.73762328 6.07766039 98.73762328 0.5625 100.4375 C0.046875 100.953125 -0.46875 101.46875 -1 102 C-1.66 102 -2.32 102 -3 102 C-3 102.99 -3 103.98 -3 105 C-4.32 105 -5.64 105 -7 105 C-7 105.66 -7 106.32 -7 107 C-7.66 107 -8.32 107 -9 107 C-9 107.66 -9 108.32 -9 109 C-12.8415976 111.56780471 -16.8139175 111.22688882 -21.25 111.125 C-21.99507812 111.11597656 -22.74015625 111.10695313 -23.5078125 111.09765625 C-25.33868059 111.07418358 -27.16938238 111.03831525 -29 111 C-29 110.34 -29 109.68 -29 109 C-30.32 108.34 -31.64 107.68 -33 107 C-33 106.34 -33 105.68 -33 105 C-33.66 105 -34.32 105 -35 105 C-35.87000537 102.04240205 -36.07704118 99.56136349 -35.9140625 96.48828125 C-35.87023438 95.64845703 -35.82640625 94.80863281 -35.78125 93.94335938 C-35.7296875 93.07517578 -35.678125 92.20699219 -35.625 91.3125 C-35.58117188 90.43271484 -35.53734375 89.55292969 -35.4921875 88.64648438 C-35.13046556 82.13046556 -35.13046556 82.13046556 -34 81 C-33.77471076 79.00458104 -33.55238905 77.00840136 -33.37890625 75.0078125 C-33 73 -33 73 -31 70 C-31.66 70 -32.32 70 -33 70 C-33 69.34 -33 68.68 -33 68 C-33.66 68 -34.32 68 -35 68 C-36.65625 66.28515625 -36.65625 66.28515625 -38.5 64.0625 C-40.88926999 61.07954821 -40.88926999 61.07954821 -44 59 C-44 58.34 -44 57.68 -44 57 C-44.66 57 -45.32 57 -46 57 C-46.33 55.68 -46.66 54.36 -47 53 C-47.66 53 -48.32 53 -49 53 C-49.05411124 50.58303128 -49.09372278 48.16728213 -49.125 45.75 C-49.14175781 45.06808594 -49.15851562 44.38617188 -49.17578125 43.68359375 C-49.21213482 39.9391765 -49.07944349 37.17647273 -47 34 C-46.34 34 -45.68 34 -45 34 C-45 33.34 -45 32.68 -45 32 C-41.78345298 30.11375329 -39.28567739 29.70952258 -35.578125 29.5859375 C-34.55332031 29.54726563 -33.52851562 29.50859375 -32.47265625 29.46875 C-30.87744141 29.42234375 -30.87744141 29.42234375 -29.25 29.375 C-28.17105469 29.33632813 -27.09210937 29.29765625 -25.98046875 29.2578125 C-23.32048225 29.16365369 -20.6605006 29.07802613 -18 29 C-17.67 27.68 -17.34 26.36 -17 25 C-16.34 25 -15.68 25 -15 25 C-15 24.01 -15 23.02 -15 22 C-14.34 22 -13.68 22 -13 22 C-13.04125 21.0925 -13.0825 20.185 -13.125 19.25 C-13.00468444 16.1217954 -12.6085292 14.61385994 -11 12 C-10.34 12 -9.68 12 -9 12 C-8.9071875 11.1646875 -8.9071875 11.1646875 -8.8125 10.3125 C-7.6519231 7.00931958 -5.59786554 5.28105267 -3 3 C-2.34 3 -1.68 3 -1 3 C-0.67 2.01 -0.34 1.02 0 0 Z " fill="#9FDEEF" transform="translate(49,0)"/>
<path d="M0 0 C2 2 2 2 2 6 C2.66 6 3.32 6 4 6 C4 7.98 4 9.96 4 12 C4.66 12 5.32 12 6 12 C6 14.97 6 17.94 6 21 C6.66 21 7.32 21 8 21 C8 21.66 8 22.32 8 23 C16.91 23 25.82 23 35 23 C34.01 24.485 34.01 24.485 33 26 C32.34 26 31.68 26 31 26 C31 26.66 31 27.32 31 28 C29.02 28 27.04 28 25 28 C25 28.66 25 29.32 25 30 C23.68 30 22.36 30 21 30 C21 30.66 21 31.32 21 32 C20.34 32 19.68 32 19 32 C19 32.66 19 33.32 19 34 C18.34 34 17.68 34 17 34 C17 34.99 17 35.98 17 37 C16.01 37 15.02 37 14 37 C14.495 41.455 14.495 41.455 15 46 C15.66 46 16.32 46 17 46 C17 48.31 17 50.62 17 53 C17.66 53 18.32 53 19 53 C19 55.64 19 58.28 19 61 C20.32 61 21.64 61 23 61 C23 62.65 23 64.3 23 66 C23.66 66 24.32 66 25 66 C25 66.99 25 67.98 25 69 C24.34 69 23.68 69 23 69 C23 68.34 23 67.68 23 67 C22.38125 66.87625 21.7625 66.7525 21.125 66.625 C19 66 19 66 17 64 C17 63.01 17 62.02 17 61 C16.34 61 15.68 61 15 61 C15 60.34 15 59.68 15 59 C14.34 59 13.68 59 13 59 C13 58.34 13 57.68 13 57 C11.35 56.34 9.7 55.68 8 55 C8 54.34 8 53.68 8 53 C6.68 52.67 5.36 52.34 4 52 C4 51.34 4 50.68 4 50 C3.34 50 2.68 50 2 50 C2 49.34 2 48.68 2 48 C0.02 48 -1.96 48 -4 48 C-4 48.66 -4 49.32 -4 50 C-4.66 50 -5.32 50 -6 50 C-6 50.66 -6 51.32 -6 52 C-6.66 52 -7.32 52 -8 52 C-8 52.66 -8 53.32 -8 54 C-9.63604196 55.37073786 -11.30678061 56.70055256 -13 58 C-14.81049081 59.68117004 -15.89476614 60.78953228 -17 63 C-17.99 63 -18.98 63 -20 63 C-20 63.99 -20 64.98 -20 66 C-20.99 66 -21.98 66 -23 66 C-23.08333357 61.1666528 -22.95261487 56.76307437 -22 52 C-21.34 52 -20.68 52 -20 52 C-20 48.37 -20 44.74 -20 41 C-21.485 40.505 -21.485 40.505 -23 40 C-24.02104551 39.02149805 -25.0206121 38.02019573 -26 37 C-26.99 36.34 -27.98 35.68 -29 35 C-29 34.34 -29 33.68 -29 33 C-29.99 32.67 -30.98 32.34 -32 32 C-33.6875 30.5625 -33.6875 30.5625 -35 29 C-35 28.34 -35 27.68 -35 27 C-35.99 27 -36.98 27 -38 27 C-40.1875 25.125 -40.1875 25.125 -42 23 C-42 22.34 -42 21.68 -42 21 C-34.41 21 -26.82 21 -19 21 C-19 21.66 -19 22.32 -19 23 C-16.03 23 -13.06 23 -10 23 C-10 22.34 -10 21.68 -10 21 C-9.34 21 -8.68 21 -8 21 C-8 15.39 -8 9.78 -8 4 C-5.36 2.68 -2.72 1.36 0 0 Z " fill="#FAFBFC" transform="translate(55,23)"/>
<path d="M0 0 C1.32 0 2.64 0 4 0 C4 1.32 4 2.64 4 4 C4.66 4 5.32 4 6 4 C6 5.32 6 6.64 6 8 C6.99 8 7.98 8 9 8 C9 10.31 9 12.62 9 15 C9.99 15.33 10.98 15.66 12 16 C12 17.98 12 19.96 12 22 C12.99 22 13.98 22 15 22 C15 23.98 15 25.96 15 28 C15.66 28 16.32 28 17 28 C17 28.66 17 29.32 17 30 C26.24 30 35.48 30 45 30 C45 30.66 45 31.32 45 32 C45.66 32 46.32 32 47 32 C47 33.65 47 35.3 47 37 C46.34 37 45.68 37 45 37 C45 37.66 45 38.32 45 39 C44.01 39 43.02 39 42 39 C42 39.99 42 40.98 42 42 C41.34 42 40.68 42 40 42 C40 42.66 40 43.32 40 44 C39.34 44 38.68 44 38 44 C38 44.66 38 45.32 38 46 C37.01 46 36.02 46 35 46 C35 46.66 35 47.32 35 48 C33.68 48 32.36 48 31 48 C31 48.66 31 49.32 31 50 C30.34 50 29.68 50 29 50 C29 50.66 29 51.32 29 52 C28.34 52 27.68 52 27 52 C27 52.66 27 53.32 27 54 C26.34 54 25.68 54 25 54 C25 54.66 25 55.32 25 56 C24.34 56 23.68 56 23 56 C23 56.66 23 57.32 23 58 C23.66 58 24.32 58 25 58 C25 59.32 25 60.64 25 62 C25.99 62 26.98 62 28 62 C28 65.3 28 68.6 28 72 C29.485 72.495 29.485 72.495 31 73 C31 77.95 31 82.9 31 88 C30.34 88 29.68 88 29 88 C29 88.66 29 89.32 29 90 C27.68 90 26.36 90 25 90 C25 89.34 25 88.68 25 88 C24.34 88 23.68 88 23 88 C23 87.34 23 86.68 23 86 C22.34 86 21.68 86 21 86 C21 85.34 21 84.68 21 84 C19.68 84 18.36 84 17 84 C17 83.34 17 82.68 17 82 C16.34 82 15.68 82 15 82 C15 81.34 15 80.68 15 80 C13.68 80 12.36 80 11 80 C11 79.34 11 78.68 11 78 C10.01 78 9.02 78 8 78 C8 77.34 8 76.68 8 76 C7.34 76 6.68 76 6 76 C6 75.01 6 74.02 6 73 C5.34 73 4.68 73 4 73 C4 72.34 4 71.68 4 71 C2.68 71 1.36 71 0 71 C0 71.66 0 72.32 0 73 C-0.66 73 -1.32 73 -2 73 C-2 73.99 -2 74.98 -2 76 C-2.99 76 -3.98 76 -5 76 C-5 76.66 -5 77.32 -5 78 C-5.99 78 -6.98 78 -8 78 C-8 78.66 -8 79.32 -8 80 C-9.32 80 -10.64 80 -12 80 C-12.33 81.32 -12.66 82.64 -13 84 C-13.99 84 -14.98 84 -16 84 C-16 84.66 -16 85.32 -16 86 C-17.65 86 -19.3 86 -21 86 C-21.33 87.32 -21.66 88.64 -22 90 C-23.32 90 -24.64 90 -26 90 C-26 89.34 -26 88.68 -26 88 C-26.66 88 -27.32 88 -28 88 C-28.12086218 81.56744599 -27.82351864 75.38226945 -27 69 C-26.34 69 -25.68 69 -25 69 C-25 67.02 -25 65.04 -25 63 C-24.34 63 -23.68 63 -23 63 C-23 61.35 -23 59.7 -23 58 C-22.34 58 -21.68 58 -21 58 C-21.78130071 55.50447516 -21.78130071 55.50447516 -23 53 C-24.485 52.505 -24.485 52.505 -26 52 C-26 51.34 -26 50.68 -26 50 C-26.99 50 -27.98 50 -29 50 C-29.061875 49.071875 -29.061875 49.071875 -29.125 48.125 C-29.41375 47.42375 -29.7025 46.7225 -30 46 C-32.99615946 44.6954344 -32.99615946 44.6954344 -36 44 C-36 43.01 -36 42.02 -36 41 C-36.99 41 -37.98 41 -39 41 C-39 40.34 -39 39.68 -39 39 C-39.66 39 -40.32 39 -41 39 C-41 38.34 -41 37.68 -41 37 C-41.66 37 -42.32 37 -43 37 C-43 35.35 -43 33.7 -43 32 C-42.34 32 -41.68 32 -41 32 C-41 31.34 -41 30.68 -41 30 C-31.43 30 -21.86 30 -12 30 C-12 30.99 -12 31.98 -12 33 C-21.24 33 -30.48 33 -40 33 C-40 33.66 -40 34.32 -40 35 C-38.68 35.66 -37.36 36.32 -36 37 C-36 37.66 -36 38.32 -36 39 C-35.01 39 -34.02 39 -33 39 C-33 39.66 -33 40.32 -33 41 C-32.01 41.33 -31.02 41.66 -30 42 C-29.38125 42.78375 -28.7625 43.5675 -28.125 44.375 C-25.92220237 47.09610295 -24.01489031 48.29929265 -21 50 C-19.359375 51.23046875 -19.359375 51.23046875 -18 53 C-17.70703125 55.69921875 -17.70703125 55.69921875 -17.8125 58.6875 C-17.83957031 59.68136719 -17.86664063 60.67523438 -17.89453125 61.69921875 C-17.92933594 62.45847656 -17.96414062 63.21773437 -18 64 C-18.66 64 -19.32 64 -20 64 C-20.33 68.62 -20.66 73.24 -21 78 C-20.01 78 -19.02 78 -18 78 C-18 77.01 -18 76.02 -18 75 C-17.01 75 -16.02 75 -15 75 C-14.7525 74.195625 -14.505 73.39125 -14.25 72.5625 C-13.8375 71.716875 -13.425 70.87125 -13 70 C-10.9375 69.375 -10.9375 69.375 -9 69 C-8.505 67.515 -8.505 67.515 -8 66 C-7.34 66 -6.68 66 -6 66 C-6 65.34 -6 64.68 -6 64 C-5.34 64 -4.68 64 -4 64 C-4 63.34 -4 62.68 -4 62 C-3.34 62 -2.68 62 -2 62 C-2 61.34 -2 60.68 -2 60 C-0.02 60 1.96 60 4 60 C4 60.66 4 61.32 4 62 C4.66 62 5.32 62 6 62 C6 62.66 6 63.32 6 64 C7.32 64.33 8.64 64.66 10 65 C10 65.66 10 66.32 10 67 C11.65 67.66 13.3 68.32 15 69 C15 69.66 15 70.32 15 71 C15.66 71 16.32 71 17 71 C17 71.66 17 72.32 17 73 C17.66 73 18.32 73 19 73 C19.474375 73.804375 19.94875 74.60875 20.4375 75.4375 C21.79983672 78.2918076 21.79983672 78.2918076 25 79 C25 79.66 25 80.32 25 81 C25.66 81 26.32 81 27 81 C27 80.01 27 79.02 27 78 C26.34 78 25.68 78 25 78 C25 76.35 25 74.7 25 73 C23.68 73 22.36 73 21 73 C21 70.36 21 67.72 21 65 C20.34 65 19.68 65 19 65 C19 62.69 19 60.38 19 58 C18.34 58 17.68 58 17 58 C16.505 53.545 16.505 53.545 16 49 C16.99 49 17.98 49 19 49 C19 48.01 19 47.02 19 46 C19.66 46 20.32 46 21 46 C21 45.34 21 44.68 21 44 C21.66 44 22.32 44 23 44 C23 43.34 23 42.68 23 42 C24.32 42 25.64 42 27 42 C27 41.34 27 40.68 27 40 C28.98 40 30.96 40 33 40 C33 39.34 33 38.68 33 38 C33.99 37.34 34.98 36.68 36 36 C23.13 35.505 23.13 35.505 10 35 C10 34.34 10 33.68 10 33 C9.34 33 8.68 33 8 33 C8 30.03 8 27.06 8 24 C7.34 24 6.68 24 6 24 C6 22.02 6 20.04 6 18 C5.34 18 4.68 18 4 18 C3.34 16.35 2.68 14.7 2 13 C1.236875 13.495 0.47375 13.99 -0.3125 14.5 C-3 16 -3 16 -6 16 C-6 17.98 -6 19.96 -6 22 C-6.66 22 -7.32 22 -8 22 C-8 19.69 -8 17.38 -8 15 C-7.34 15 -6.68 15 -6 15 C-6 12.69 -6 10.38 -6 8 C-5.01 8 -4.02 8 -3 8 C-3 6.68 -3 5.36 -3 4 C-2.01 4 -1.02 4 0 4 C0 2.68 0 1.36 0 0 Z " fill="#BFC8D9" transform="translate(53,11)"/>
<path d="M0 0 C3.96 0 7.92 0 12 0 C12.495 1.485 12.495 1.485 13 3 C13.99 3.33 14.98 3.66 16 4 C19 7.44444444 19 7.44444444 19 10 C19.66 10 20.32 10 21 10 C21 11.65 21 13.3 21 15 C21.66 15 22.32 15 23 15 C23 16.98 23 18.96 23 21 C23.66 21 24.32 21 25 21 C25 22.65 25 24.3 25 26 C25.66 26 26.32 26 27 26 C27 27.65 27 29.3 27 31 C34.92 31 42.84 31 51 31 C51 31.66 51 32.32 51 33 C52.32 33 53.64 33 55 33 C55 33.66 55 34.32 55 35 C55.66 35 56.32 35 57 35 C57 35.66 57 36.32 57 37 C57.66 37 58.32 37 59 37 C60.38226016 39.76452033 60.09525387 42.0461363 60.0625 45.125 C60.05347656 46.22070312 60.04445313 47.31640625 60.03515625 48.4453125 C60.02355469 49.28835937 60.01195313 50.13140625 60 51 C58.515 51.495 58.515 51.495 57 52 C55.63578969 49.27157939 56.12192789 47.39046682 56.4375 44.375 C56.53933594 43.37210938 56.64117187 42.36921875 56.74609375 41.3359375 C56.87177734 40.17964844 56.87177734 40.17964844 57 39 C55.02 38.67 53.04 38.34 51 38 C51 37.34 51 36.68 51 36 C43.74 36 36.48 36 29 36 C29 37.32 29 38.64 29 40 C26.36 40.33 23.72 40.66 21 41 C21 40.34 21 39.68 21 39 C20.34 39 19.68 39 19 39 C19 37.02 19 35.04 19 33 C18.01 33 17.02 33 16 33 C15.87625 32.030625 15.7525 31.06125 15.625 30.0625 C15.41875 29.051875 15.2125 28.04125 15 27 C14.34 26.67 13.68 26.34 13 26 C13 23.69 13 21.38 13 19 C12.01 19 11.02 19 10 19 C10 17.68 10 16.36 10 15 C9.34 15 8.68 15 8 15 C8 13.68 8 12.36 8 11 C6.68 11 5.36 11 4 11 C4 12.32 4 13.64 4 15 C3.01 15 2.02 15 1 15 C1 16.32 1 17.64 1 19 C0.01 19 -0.98 19 -2 19 C-2 21.31 -2 23.62 -2 26 C-2.66 26 -3.32 26 -4 26 C-4 28.31 -4 30.62 -4 33 C-3.34 33 -2.68 33 -2 33 C-2 36.63 -2 40.26 -2 44 C-2.66 44 -3.32 44 -4 44 C-4 44.66 -4 45.32 -4 46 C-6.97 46 -9.94 46 -13 46 C-13 45.34 -13 44.68 -13 44 C-11.35 44 -9.7 44 -8 44 C-8 43.01 -8 42.02 -8 41 C-17.57 41 -27.14 41 -37 41 C-37 41.66 -37 42.32 -37 43 C-37.66 43 -38.32 43 -39 43 C-39.04254356 41.00045254 -39.04080783 38.99958364 -39 37 C-38.505 36.505 -38.505 36.505 -38 36 C-38.66 35.67 -39.32 35.34 -40 35 C-40 35.99 -40 36.98 -40 38 C-41.98 38.495 -41.98 38.495 -44 39 C-43.67 43.29 -43.34 47.58 -43 52 C-43.66 52 -44.32 52 -45 52 C-45.33 52.66 -45.66 53.32 -46 54 C-46 53.34 -46 52.68 -46 52 C-46.66 52 -47.32 52 -48 52 C-48 47.71 -48 43.42 -48 39 C-47.34 39 -46.68 39 -46 39 C-46 37.68 -46 36.36 -46 35 C-45.34 35 -44.68 35 -44 35 C-44 34.34 -44 33.68 -44 33 C-42.68 33 -41.36 33 -40 33 C-40 32.34 -40 31.68 -40 31 C-32.08 31 -24.16 31 -16 31 C-16 29.35 -16 27.7 -16 26 C-15.34 26 -14.68 26 -14 26 C-14 25.01 -14 24.02 -14 23 C-13.34 23 -12.68 23 -12 23 C-12 21.02 -12 19.04 -12 17 C-11.34 17 -10.68 17 -10 17 C-10 15.68 -10 14.36 -10 13 C-9.34 13 -8.68 13 -8 13 C-7.9175 11.906875 -7.835 10.81375 -7.75 9.6875 C-7 6 -7 6 -5.0625 4.0625 C-3 3 -3 3 -1 3 C-0.67 2.01 -0.34 1.02 0 0 Z " fill="#9CDBEC" transform="translate(49,0)"/>
<path d="M0 0 C9.57 0 19.14 0 29 0 C29 0.99 29 1.98 29 3 C19.76 3 10.52 3 1 3 C1 3.66 1 4.32 1 5 C2.32 5.66 3.64 6.32 5 7 C5 7.66 5 8.32 5 9 C5.99 9 6.98 9 8 9 C8 9.66 8 10.32 8 11 C8.99 11.33 9.98 11.66 11 12 C11.61875 12.78375 12.2375 13.5675 12.875 14.375 C15.07779763 17.09610295 16.98510969 18.29929265 20 20 C21.640625 21.23046875 21.640625 21.23046875 23 23 C23.29296875 25.69921875 23.29296875 25.69921875 23.1875 28.6875 C23.16042969 29.68136719 23.13335937 30.67523438 23.10546875 31.69921875 C23.07066406 32.45847656 23.03585938 33.21773437 23 34 C22.34 34 21.68 34 21 34 C20.67 38.62 20.34 43.24 20 48 C20.99 48 21.98 48 23 48 C23 47.01 23 46.02 23 45 C23.99 45 24.98 45 26 45 C26.2475 44.195625 26.495 43.39125 26.75 42.5625 C27.1625 41.716875 27.575 40.87125 28 40 C30.0625 39.375 30.0625 39.375 32 39 C32.33 38.01 32.66 37.02 33 36 C33.66 36 34.32 36 35 36 C35 35.34 35 34.68 35 34 C35.66 34 36.32 34 37 34 C37 33.34 37 32.68 37 32 C37.66 32 38.32 32 39 32 C39 31.34 39 30.68 39 30 C40.98 30 42.96 30 45 30 C45 30.66 45 31.32 45 32 C45.66 32 46.32 32 47 32 C47 32.66 47 33.32 47 34 C48.32 34.33 49.64 34.66 51 35 C51 35.66 51 36.32 51 37 C52.65 37.66 54.3 38.32 56 39 C56 39.66 56 40.32 56 41 C56.66 41 57.32 41 58 41 C58 41.66 58 42.32 58 43 C58.66 43 59.32 43 60 43 C60.66 44.65 61.32 46.3 62 48 C60.824375 47.505 60.824375 47.505 59.625 47 C57.15667503 45.88133489 57.15667503 45.88133489 55 46 C55 46.66 55 47.32 55 48 C55.99 48 56.98 48 58 48 C58 48.66 58 49.32 58 50 C58.66 50 59.32 50 60 50 C60 50.66 60 51.32 60 52 C61.65 52.33 63.3 52.66 65 53 C65.33 53.99 65.66 54.98 66 56 C67.32 56 68.64 56 70 56 C70 51.71 70 47.42 70 43 C70.66 43 71.32 43 72 43 C72 47.95 72 52.9 72 58 C71.34 58 70.68 58 70 58 C70 58.66 70 59.32 70 60 C68.68 60 67.36 60 66 60 C66 59.34 66 58.68 66 58 C65.34 58 64.68 58 64 58 C64 57.34 64 56.68 64 56 C63.34 56 62.68 56 62 56 C62 55.34 62 54.68 62 54 C60.68 54 59.36 54 58 54 C58 53.34 58 52.68 58 52 C57.34 52 56.68 52 56 52 C56 51.34 56 50.68 56 50 C54.68 50 53.36 50 52 50 C52 49.34 52 48.68 52 48 C51.01 48 50.02 48 49 48 C49 47.34 49 46.68 49 46 C48.34 46 47.68 46 47 46 C47 45.01 47 44.02 47 43 C46.34 43 45.68 43 45 43 C45 42.34 45 41.68 45 41 C43.68 41 42.36 41 41 41 C41 41.66 41 42.32 41 43 C40.34 43 39.68 43 39 43 C39 43.99 39 44.98 39 46 C38.01 46 37.02 46 36 46 C36 46.66 36 47.32 36 48 C35.01 48 34.02 48 33 48 C33 48.66 33 49.32 33 50 C31.68 50 30.36 50 29 50 C28.67 51.32 28.34 52.64 28 54 C27.01 54 26.02 54 25 54 C25 54.66 25 55.32 25 56 C23.35 56 21.7 56 20 56 C19.67 57.32 19.34 58.64 19 60 C17.68 60 16.36 60 15 60 C15 59.34 15 58.68 15 58 C14.34 58 13.68 58 13 58 C12.87913782 51.56744599 13.17648136 45.38226945 14 39 C14.66 39 15.32 39 16 39 C16 37.02 16 35.04 16 33 C16.66 33 17.32 33 18 33 C18 31.35 18 29.7 18 28 C18.66 28 19.32 28 20 28 C19.21869929 25.50447516 19.21869929 25.50447516 18 23 C17.01 22.67 16.02 22.34 15 22 C15 21.34 15 20.68 15 20 C14.01 20 13.02 20 12 20 C11.938125 19.071875 11.938125 19.071875 11.875 18.125 C11.441875 17.073125 11.441875 17.073125 11 16 C8.00384054 14.6954344 8.00384054 14.6954344 5 14 C5 13.01 5 12.02 5 11 C4.01 11 3.02 11 2 11 C2 10.34 2 9.68 2 9 C1.34 9 0.68 9 0 9 C0 8.34 0 7.68 0 7 C-0.66 7 -1.32 7 -2 7 C-2 5.35 -2 3.7 -2 2 C-1.34 2 -0.68 2 0 2 C0 1.34 0 0.68 0 0 Z " fill="#CBD2E4" transform="translate(12,41)"/>
<path d="M0 0 C0.495 1.98 0.495 1.98 1 4 C0.34 4 -0.32 4 -1 4 C-1 5.32 -1 6.64 -1 8 C-1.66 8 -2.32 8 -3 8 C-3 9.98 -3 11.96 -3 14 C-3.66 14 -4.32 14 -5 14 C-5 14.99 -5 15.98 -5 17 C-5.66 17 -6.32 17 -7 17 C-7 18.65 -7 20.3 -7 22 C-14.92 22 -22.84 22 -31 22 C-31 22.66 -31 23.32 -31 24 C-32.32 24 -33.64 24 -35 24 C-35 24.66 -35 25.32 -35 26 C-35.66 26 -36.32 26 -37 26 C-37 27.32 -37 28.64 -37 30 C-37.66 30 -38.32 30 -39 30 C-39 34.29 -39 38.58 -39 43 C-37.35 43 -35.7 43 -34 43 C-34.33 42.34 -34.66 41.68 -35 41 C-35.07033769 39.12620395 -35.0843022 37.24998898 -35.0625 35.375 C-35.05347656 34.37210938 -35.04445313 33.36921875 -35.03515625 32.3359375 C-35.01775391 31.17964844 -35.01775391 31.17964844 -35 30 C-33.68 29.67 -32.36 29.34 -31 29 C-31 28.01 -31 27.02 -31 26 C-22.75 26 -14.5 26 -6 26 C-6 26.33 -6 26.66 -6 27 C-13.59 27.33 -21.18 27.66 -29 28 C-29.33 31.63 -29.66 35.26 -30 39 C-29.34 39 -28.68 39 -28 39 C-28 39.66 -28 40.32 -28 41 C-27.34 41 -26.68 41 -26 41 C-26 41.66 -26 42.32 -26 43 C-25.01 43 -24.02 43 -23 43 C-23 43.99 -23 44.98 -23 46 C-22.401875 46.103125 -21.80375 46.20625 -21.1875 46.3125 C-18.68741714 47.09824033 -17.62464918 47.96918853 -16 50 C-16 50.66 -16 51.32 -16 52 C-15.01 52 -14.02 52 -13 52 C-13 52.66 -13 53.32 -13 54 C-11.68 54.33 -10.36 54.66 -9 55 C-8.67 56.65 -8.34 58.3 -8 60 C-8.66 60 -9.32 60 -10 60 C-10 61.65 -10 63.3 -10 65 C-10.66 65 -11.32 65 -12 65 C-12 66.98 -12 68.96 -12 71 C-12.66 71 -13.32 71 -14 71 C-14.33 70.01 -14.66 69.02 -15 68 C-16.98 68.99 -16.98 68.99 -19 70 C-19.103125 69.360625 -19.20625 68.72125 -19.3125 68.0625 C-19.539375 67.381875 -19.76625 66.70125 -20 66 C-21.485 65.505 -21.485 65.505 -23 65 C-23.02891949 69.29165262 -23.04677118 73.58328036 -23.0625 77.875 C-23.07087891 79.09832031 -23.07925781 80.32164063 -23.08789062 81.58203125 C-23.09111328 82.74863281 -23.09433594 83.91523437 -23.09765625 85.1171875 C-23.10289307 86.19597168 -23.10812988 87.27475586 -23.11352539 88.38623047 C-23.17883106 90.98232186 -23.17883106 90.98232186 -22 93 C-21.34 93 -20.68 93 -20 93 C-19.67 93.99 -19.34 94.98 -19 96 C-19.66 96.99 -20.32 97.98 -21 99 C-20.34 99 -19.68 99 -19 99 C-19 99.66 -19 100.32 -19 101 C-14.38 101 -9.76 101 -5 101 C-5 100.34 -5 99.68 -5 99 C-3.68 99 -2.36 99 -1 99 C-1 98.34 -1 97.68 -1 97 C-0.34 97 0.32 97 1 97 C1 96.34 1 95.68 1 95 C2.32 95 3.64 95 5 95 C5 94.01 5 93.02 5 92 C5.66 92 6.32 92 7 92 C7 91.34 7 90.68 7 90 C8.32 90.33 9.64 90.66 11 91 C8.525 91.99 8.525 91.99 6 93 C6 93.99 6 94.98 6 96 C4.68 96 3.36 96 2 96 C2 96.66 2 97.32 2 98 C1.34 98 0.68 98 0 98 C0 98.66 0 99.32 0 100 C-3.8415976 102.56780471 -7.8139175 102.22688882 -12.25 102.125 C-12.99507812 102.11597656 -13.74015625 102.10695313 -14.5078125 102.09765625 C-16.33868059 102.07418358 -18.16938238 102.03831525 -20 102 C-20 101.34 -20 100.68 -20 100 C-21.32 99.34 -22.64 98.68 -24 98 C-24 97.34 -24 96.68 -24 96 C-24.66 96 -25.32 96 -26 96 C-26.87000537 93.04240205 -27.07704118 90.56136349 -26.9140625 87.48828125 C-26.87023438 86.64845703 -26.82640625 85.80863281 -26.78125 84.94335938 C-26.7296875 84.07517578 -26.678125 83.20699219 -26.625 82.3125 C-26.58117188 81.43271484 -26.53734375 80.55292969 -26.4921875 79.64648438 C-26.13046556 73.13046556 -26.13046556 73.13046556 -25 72 C-24.77471076 70.00458104 -24.55238905 68.00840136 -24.37890625 66.0078125 C-24 64 -24 64 -22 61 C-22.66 61 -23.32 61 -24 61 C-24 60.34 -24 59.68 -24 59 C-24.66 59 -25.32 59 -26 59 C-27.65625 57.28515625 -27.65625 57.28515625 -29.5 55.0625 C-31.88926999 52.07954821 -31.88926999 52.07954821 -35 50 C-35 49.34 -35 48.68 -35 48 C-35.66 48 -36.32 48 -37 48 C-37.33 46.68 -37.66 45.36 -38 44 C-38.66 44 -39.32 44 -40 44 C-40.05411124 41.58303128 -40.09372278 39.16728213 -40.125 36.75 C-40.14175781 36.06808594 -40.15851562 35.38617188 -40.17578125 34.68359375 C-40.21213482 30.9391765 -40.07944349 28.17647273 -38 25 C-37.34 25 -36.68 25 -36 25 C-36 24.34 -36 23.68 -36 23 C-32.78345298 21.11375329 -30.28567739 20.70952258 -26.578125 20.5859375 C-25.55332031 20.54726563 -24.52851563 20.50859375 -23.47265625 20.46875 C-21.87744141 20.42234375 -21.87744141 20.42234375 -20.25 20.375 C-19.17105469 20.33632813 -18.09210937 20.29765625 -16.98046875 20.2578125 C-14.32048225 20.16365369 -11.6605006 20.07802613 -9 20 C-8.67 18.68 -8.34 17.36 -8 16 C-7.34 16 -6.68 16 -6 16 C-6 15.01 -6 14.02 -6 13 C-5.34 13 -4.68 13 -4 13 C-4.04125 12.0925 -4.0825 11.185 -4.125 10.25 C-4.00468444 7.1217954 -3.6085292 5.61385994 -2 3 C-1.34 3 -0.68 3 0 3 C0 2.01 0 1.02 0 0 Z " fill="#B3E4F2" transform="translate(40,9)"/>
<path d="M0 0 C1.9375 0.3125 1.9375 0.3125 4 1 C4.33 1.99 4.66 2.98 5 4 C5.66 4 6.32 4 7 4 C7.33 3.34 7.66 2.68 8 2 C9 3 9 3 9.1328125 5.37109375 C9.11598249 11.976872 8.8123581 18.44310961 8 25 C8.66 25 9.32 25 10 25 C10 25.66 10 26.32 10 27 C11.98491642 26.73323796 11.98491642 26.73323796 14 26 C14.33 25.01 14.66 24.02 15 23 C16.65 23 18.3 23 20 23 C20 22.34 20 21.68 20 21 C20.99 21.33 21.98 21.66 23 22 C22.34 23.32 21.68 24.64 21 26 C24.465 25.505 24.465 25.505 28 25 C28 24.34 28 23.68 28 23 C31 21 31 21 34 21 C34 20.34 34 19.68 34 19 C36.64 19 39.28 19 42 19 C42 19.66 42 20.32 42 21 C42.66 21 43.32 21 44 21 C44 21.99 44 22.98 44 24 C44.99 24 45.98 24 47 24 C46.67 24.66 46.34 25.32 46 26 C44.68 25.67 43.36 25.34 42 25 C42 24.34 42 23.68 42 23 C39.36 23 36.72 23 34 23 C34 23.66 34 24.32 34 25 C32.68 25 31.36 25 30 25 C30 25.66 30 26.32 30 27 C29.34 27 28.68 27 28 27 C28 27.99 28 28.98 28 30 C26.68 30 25.36 30 24 30 C24 30.66 24 31.32 24 32 C23.34 32 22.68 32 22 32 C22 32.66 22 33.32 22 34 C20.68 34 19.36 34 18 34 C18 34.66 18 35.32 18 36 C13.38 36 8.76 36 4 36 C4 35.34 4 34.68 4 34 C3.34 34 2.68 34 2 34 C2.495 31.03 2.495 31.03 3 28 C1.68 27.67 0.36 27.34 -1 27 C-1.02721831 23.9999376 -1.04694378 21.00012744 -1.0625 18 C-1.07087891 17.16082031 -1.07925781 16.32164063 -1.08789062 15.45703125 C-1.10824033 10.20680661 -0.76368207 5.19544338 0 0 Z " fill="#9FDAEC" transform="translate(17,74)"/>
<path d="M0 0 C0.33 0.99 0.66 1.98 1 3 C1.66 3 2.32 3 3 3 C3.48509793 4.37291868 3.96275513 5.74846703 4.4375 7.125 C4.70433594 7.89070313 4.97117187 8.65640625 5.24609375 9.4453125 C6 12 6 12 7 18 C14.92 18.33 22.84 18.66 31 19 C31 19.66 31 20.32 31 21 C32.32 21 33.64 21 35 21 C35 21.66 35 22.32 35 23 C35.61875 23.268125 36.2375 23.53625 36.875 23.8125 C39 25 39 25 41 28 C41.1953125 31.35546875 41.1953125 31.35546875 41.125 35.1875 C41.10695312 36.45980469 41.08890625 37.73210938 41.0703125 39.04296875 C41.04710937 40.01878906 41.02390625 40.99460938 41 42 C40.34 42 39.68 42 39 42 C39 42.66 39 43.32 39 44 C37.01739574 45.68732277 35.0167658 47.35366057 33 49 C32.505 49.99 32.505 49.99 32 51 C31.01 51 30.02 51 29 51 C29 51.66 29 52.32 29 53 C28.34 53 27.68 53 27 53 C27 53.66 27 54.32 27 55 C26.34 55 25.68 55 25 55 C24.67 55.99 24.34 56.98 24 58 C23.67 57.34 23.34 56.68 23 56 C23.33 55.34 23.66 54.68 24 54 C24.66 54 25.32 54 26 54 C26 53.34 26 52.68 26 52 C26.66 52 27.32 52 28 52 C28 51.01 28 50.02 28 49 C26.02 49.495 26.02 49.495 24 50 C24 50.66 24 51.32 24 52 C20.27034861 54.03435531 18.33094958 55 14 55 C14.125 53.1875 14.125 53.1875 15 51 C18.0625 49.25 18.0625 49.25 21 48 C21 46.68 21 45.36 21 44 C21.66 44 22.32 44 23 44 C23 43.34 23 42.68 23 42 C23.66 42 24.32 42 25 42 C25 41.01 25 40.02 25 39 C25.99 39 26.98 39 28 39 C28 38.34 28 37.68 28 37 C28.66 37 29.32 37 30 37 C30 35.35 30 33.7 30 32 C29.34 32 28.68 32 28 32 C28 31.34 28 30.68 28 30 C19.09 30 10.18 30 1 30 C1 29.67 1 29.34 1 29 C3.31 29 5.62 29 8 29 C8 27.68 8 26.36 8 25 C15.26 25 22.52 25 30 25 C30 25.66 30 26.32 30 27 C31.98 27.33 33.96 27.66 36 28 C36 31.96 36 35.92 36 40 C36.99 40 37.98 40 39 40 C38.67 35.38 38.34 30.76 38 26 C37.34 26 36.68 26 36 26 C36 25.34 36 24.68 36 24 C35.34 24 34.68 24 34 24 C34 23.34 34 22.68 34 22 C32.68 22 31.36 22 30 22 C30 21.34 30 20.68 30 20 C22.08 20 14.16 20 6 20 C6 18.35 6 16.7 6 15 C5.34 15 4.68 15 4 15 C4 13.35 4 11.7 4 10 C3.34 10 2.68 10 2 10 C2 8.02 2 6.04 2 4 C1.34 4 0.68 4 0 4 C0 2.68 0 1.36 0 0 Z " fill="#B0E5F4" transform="translate(70,11)"/>
<path d="M0 0 C1.32 0.33 2.64 0.66 4 1 C2 4 2 4 -0.625 4.6875 C-1.800625 4.8421875 -1.800625 4.8421875 -3 5 C-3.33 6.32 -3.66 7.64 -4 9 C0.95 7.515 0.95 7.515 6 6 C6 5.34 6 4.68 6 4 C7.32 3.67 8.64 3.34 10 3 C10 3.99 10 4.98 10 6 C9.34 6 8.68 6 8 6 C8 6.66 8 7.32 8 8 C7.34 8 6.68 8 6 8 C5.1679418 13.72040011 4.87963336 19.22240116 5 25 C5.66 25 6.32 25 7 25 C8.20029908 27.40059817 8.11459743 28.89360649 8.09765625 31.5703125 C8.09443359 32.46621094 8.09121094 33.36210938 8.08789062 34.28515625 C8.07532227 35.69087891 8.07532227 35.69087891 8.0625 37.125 C8.05798828 38.06988281 8.05347656 39.01476562 8.04882812 39.98828125 C8.03702357 42.32558387 8.02055759 44.66276061 8 47 C6.515 47.495 6.515 47.495 5 48 C5 48.66 5 49.32 5 50 C4.34 50 3.68 50 3 50 C3 50.66 3 51.32 3 52 C-0.06533164 53.53266582 -3.26754272 53.10276471 -6.625 53.0625 C-7.33140625 53.05798828 -8.0378125 53.05347656 -8.765625 53.04882812 C-10.51045275 53.03703875 -12.255237 53.01910324 -14 53 C-14 52.34 -14 51.68 -14 51 C-14.99 51 -15.98 51 -17 51 C-17 50.34 -17 49.68 -17 49 C-17.99 49 -18.98 49 -20 49 C-20 48.34 -20 47.68 -20 47 C-21.32 46.34 -22.64 45.68 -24 45 C-23.505 44.505 -23.505 44.505 -23 44 C-20.66055264 44.28730055 -18.3260857 44.61936779 -16 45 C-16 45.66 -16 46.32 -16 47 C-15.34 47 -14.68 47 -14 47 C-14 47.66 -14 48.32 -14 49 C-9.71 49 -5.42 49 -1 49 C-1 48.34 -1 47.68 -1 47 C-0.01 46.34 0.98 45.68 2 45 C2.50531866 43.07558585 2.50531866 43.07558585 2.51171875 40.8671875 C2.54716797 40.06152344 2.58261719 39.25585938 2.61914062 38.42578125 C2.64169922 37.58402344 2.66425781 36.74226563 2.6875 35.875 C2.73874023 34.60076172 2.73874023 34.60076172 2.79101562 33.30078125 C2.87359173 31.20098895 2.93846978 29.10051436 3 27 C2.01 27 1.02 27 0 27 C0 23.7 0 20.4 0 17 C-0.66 17 -1.32 17 -2 17 C-2.33 16.01 -2.66 15.02 -3 14 C-3.33 14.66 -3.66 15.32 -4 16 C-4.66 16 -5.32 16 -6 16 C-6.33 16.66 -6.66 17.32 -7 18 C-7 17.34 -7 16.68 -7 16 C-7.99 16 -8.98 16 -10 16 C-10 14.68 -10 13.36 -10 12 C-10.66 12 -11.32 12 -12 12 C-12 11.34 -12 10.68 -12 10 C-11.34 10 -10.68 10 -10 10 C-10 9.34 -10 8.68 -10 8 C-9.34 8 -8.68 8 -8 8 C-8 7.34 -8 6.68 -8 6 C-7.34 6 -6.68 6 -6 6 C-6 5.34 -6 4.68 -6 4 C-5.34 4 -4.68 4 -4 4 C-4 3.34 -4 2.68 -4 2 C-2.68 2 -1.36 2 0 2 C0 1.34 0 0.68 0 0 Z " fill="#ABD8E5" transform="translate(88,57)"/>
<path d="M0 0 C1.32 0 2.64 0 4 0 C4 1.32 4 2.64 4 4 C4.66 4 5.32 4 6 4 C6 5.32 6 6.64 6 8 C6.99 8 7.98 8 9 8 C9 10.31 9 12.62 9 15 C9.99 15.33 10.98 15.66 12 16 C12 17.98 12 19.96 12 22 C12.99 22 13.98 22 15 22 C15 23.98 15 25.96 15 28 C15.66 28 16.32 28 17 28 C17 28.66 17 29.32 17 30 C26.24 30 35.48 30 45 30 C45 30.66 45 31.32 45 32 C45.66 32 46.32 32 47 32 C47 33.65 47 35.3 47 37 C46.34 37 45.68 37 45 37 C45 37.66 45 38.32 45 39 C44.01 39 43.02 39 42 39 C42 39.99 42 40.98 42 42 C41.34 42 40.68 42 40 42 C40 42.66 40 43.32 40 44 C39.34 44 38.68 44 38 44 C38 44.66 38 45.32 38 46 C37.01 46 36.02 46 35 46 C35 46.66 35 47.32 35 48 C33.68 48 32.36 48 31 48 C31 48.66 31 49.32 31 50 C30.34 50 29.68 50 29 50 C29 50.66 29 51.32 29 52 C28.34 52 27.68 52 27 52 C27 52.66 27 53.32 27 54 C26.34 54 25.68 54 25 54 C25 54.66 25 55.32 25 56 C24.34 56 23.68 56 23 56 C23 56.66 23 57.32 23 58 C22.34 58 21.68 58 21 58 C21 56.35 21 54.7 21 53 C22.98 52.505 22.98 52.505 25 52 C25 51.34 25 50.68 25 50 C30.41176471 46 30.41176471 46 33 46 C33.103125 45.401875 33.20625 44.80375 33.3125 44.1875 C34.10636936 41.66155205 34.95572409 40.65114593 37 39 C37.99 38.67 38.98 38.34 40 38 C40.33 37.01 40.66 36.02 41 35 C41.66 35 42.32 35 43 35 C43 34.34 43 33.68 43 33 C33.76 33 24.52 33 15 33 C15 32.01 15 31.02 15 30 C14.01 30 13.02 30 12 30 C12 28.02 12 26.04 12 24 C11.34 24 10.68 24 10 24 C10 23.34 10 22.68 10 22 C9.34 22 8.68 22 8 22 C8 19.69 8 17.38 8 15 C7.34 15 6.68 15 6 15 C6 14.01 6 13.02 6 12 C5.34 12 4.68 12 4 12 C4 10.68 4 9.36 4 8 C2.02 8 0.04 8 -2 8 C-2 10.31 -2 12.62 -2 15 C-3.32 15.33 -4.64 15.66 -6 16 C-6 17.98 -6 19.96 -6 22 C-6.66 22 -7.32 22 -8 22 C-8 19.69 -8 17.38 -8 15 C-7.34 15 -6.68 15 -6 15 C-6 12.69 -6 10.38 -6 8 C-5.01 8 -4.02 8 -3 8 C-3 6.68 -3 5.36 -3 4 C-2.01 4 -1.02 4 0 4 C0 2.68 0 1.36 0 0 Z " fill="#365674" transform="translate(53,11)"/>
<path d="M0 0 C0.33 0 0.66 0 1 0 C0.67 4.62 0.34 9.24 0 14 C-0.66 14 -1.32 14 -2 14 C-2 16.64 -2 19.28 -2 22 C-0.68 22 0.64 22 2 22 C2 21.34 2 20.68 2 20 C2.99 20 3.98 20 5 20 C5 19.34 5 18.68 5 18 C5.99 18 6.98 18 8 18 C8 17.34 8 16.68 8 16 C8.99 16 9.98 16 11 16 C11 15.34 11 14.68 11 14 C11.66 14 12.32 14 13 14 C13 13.01 13 12.02 13 11 C13.66 11 14.32 11 15 11 C15 10.34 15 9.68 15 9 C16.98 9 18.96 9 21 9 C21 8.34 21 7.68 21 7 C21.66 7 22.32 7 23 7 C23 6.34 23 5.68 23 5 C27.64027248 5.44618005 30.45042326 5.95750565 34 9 C34.99 9.33 35.98 9.66 37 10 C37.6875 12.0625 37.6875 12.0625 38 14 C38.99 14 39.98 14 41 14 C41 14.66 41 15.32 41 16 C41.66 16 42.32 16 43 16 C43 16.66 43 17.32 43 18 C44.65 18.33 46.3 18.66 48 19 C48.495 20.485 48.495 20.485 49 22 C50.32 22 51.64 22 53 22 C53 17.71 53 13.42 53 9 C53.66 9 54.32 9 55 9 C55 13.95 55 18.9 55 24 C54.34 24 53.68 24 53 24 C53 24.66 53 25.32 53 26 C51.68 26 50.36 26 49 26 C49 25.34 49 24.68 49 24 C48.34 24 47.68 24 47 24 C47 23.34 47 22.68 47 22 C46.34 22 45.68 22 45 22 C45 21.34 45 20.68 45 20 C43.68 20 42.36 20 41 20 C41 19.34 41 18.68 41 18 C40.34 18 39.68 18 39 18 C39 17.34 39 16.68 39 16 C37.68 16 36.36 16 35 16 C35 15.34 35 14.68 35 14 C34.01 14 33.02 14 32 14 C32 13.34 32 12.68 32 12 C31.34 12 30.68 12 30 12 C30 11.01 30 10.02 30 9 C29.34 9 28.68 9 28 9 C28 8.34 28 7.68 28 7 C26.68 7 25.36 7 24 7 C24 7.66 24 8.32 24 9 C23.34 9 22.68 9 22 9 C22 9.99 22 10.98 22 12 C21.01 12 20.02 12 19 12 C19 12.66 19 13.32 19 14 C18.01 14 17.02 14 16 14 C16 14.66 16 15.32 16 16 C14.68 16 13.36 16 12 16 C11.67 17.32 11.34 18.64 11 20 C10.01 20 9.02 20 8 20 C8 20.66 8 21.32 8 22 C6.35 22 4.7 22 3 22 C2.67 23.32 2.34 24.64 2 26 C0.68 26 -0.64 26 -2 26 C-2 25.34 -2 24.68 -2 24 C-2.66 24 -3.32 24 -4 24 C-4.12086218 17.56744599 -3.82351864 11.38226945 -3 5 C-2.01 5 -1.02 5 0 5 C0 3.35 0 1.7 0 0 Z " fill="#3A5879" transform="translate(29,75)"/>
<path d="M0 0 C1.10844919 3.32534757 0.84454356 5.62182575 0 9 C-0.99 9 -1.98 9 -3 9 C-3 11.31 -3 13.62 -3 16 C-3.66 16 -4.32 16 -5 16 C-5 16.66 -5 17.32 -5 18 C-5.66 18 -6.32 18 -7 18 C-7 19.32 -7 20.64 -7 22 C-15.58 22 -24.16 22 -33 22 C-33 22.99 -33 23.98 -33 25 C-34.32 25.33 -35.64 25.66 -37 26 C-36.67 30.29 -36.34 34.58 -36 39 C-36.66 39 -37.32 39 -38 39 C-38.33 39.66 -38.66 40.32 -39 41 C-39 40.34 -39 39.68 -39 39 C-39.66 39 -40.32 39 -41 39 C-41 34.71 -41 30.42 -41 26 C-40.34 26 -39.68 26 -39 26 C-39 24.68 -39 23.36 -39 22 C-38.34 22 -37.68 22 -37 22 C-37 21.34 -37 20.68 -37 20 C-35.68 20 -34.36 20 -33 20 C-33 19.34 -33 18.68 -33 18 C-25.08 18 -17.16 18 -9 18 C-9 16.35 -9 14.7 -9 13 C-8.34 13 -7.68 13 -7 13 C-7 12.01 -7 11.02 -7 10 C-6.34 10 -5.68 10 -5 10 C-5 9.01 -5 8.02 -5 7 C-4.34 7 -3.68 7 -3 7 C-2.690625 6.030625 -2.38125 5.06125 -2.0625 4.0625 C-1 1 -1 1 0 0 Z " fill="#87C3D7" transform="translate(42,13)"/>
<path d="M0 0 C1.32 0.33 2.64 0.66 4 1 C4 1.66 4 2.32 4 3 C4.66 3 5.32 3 6 3 C6 4.98 6 6.96 6 9 C6.66 9 7.32 9 8 9 C8 10.65 8 12.3 8 14 C8.66 14 9.32 14 10 14 C10 15.65 10 17.3 10 19 C17.92 19 25.84 19 34 19 C34 19.66 34 20.32 34 21 C35.32 21 36.64 21 38 21 C38 21.66 38 22.32 38 23 C38.66 23 39.32 23 40 23 C40 23.66 40 24.32 40 25 C40.66 25 41.32 25 42 25 C43.38226016 27.76452033 43.09525387 30.0461363 43.0625 33.125 C43.05347656 34.22070312 43.04445312 35.31640625 43.03515625 36.4453125 C43.02355469 37.28835937 43.01195312 38.13140625 43 39 C42.01 39.33 41.02 39.66 40 40 C38.63578969 37.27157939 39.12192789 35.39046682 39.4375 32.375 C39.53933594 31.37210938 39.64117187 30.36921875 39.74609375 29.3359375 C39.82988281 28.56507812 39.91367188 27.79421875 40 27 C37.525 26.01 37.525 26.01 35 25 C35 24.34 35 23.68 35 23 C26.75 23 18.5 23 10 23 C10 22.34 10 21.68 10 21 C9.34 21 8.68 21 8 21 C5.8480563 17.77208445 5.79913557 16.71599191 6 13 C5.34 13 4.68 13 4 13 C4 11.68 4 10.36 4 9 C3.34 9 2.68 9 2 9 C2 7.02 2 5.04 2 3 C1.34 3 0.68 3 0 3 C0 2.01 0 1.02 0 0 Z " fill="#89C1D3" transform="translate(66,12)"/>
<path d="M0 0 C9.57 0 19.14 0 29 0 C29 0.99 29 1.98 29 3 C19.76 3 10.52 3 1 3 C1 3.66 1 4.32 1 5 C2.32 5.66 3.64 6.32 5 7 C5 7.66 5 8.32 5 9 C5.99 9 6.98 9 8 9 C8 9.66 8 10.32 8 11 C8.99 11.33 9.98 11.66 11 12 C11.61875 12.78375 12.2375 13.5675 12.875 14.375 C15.07779763 17.09610295 16.98510969 18.29929265 20 20 C21.8125 21.375 21.8125 21.375 23 23 C23.1875 25.6875 23.1875 25.6875 23 28 C22.34 28.33 21.68 28.66 21 29 C19.86649466 31.01669827 19.86649466 31.01669827 19 33 C19.03255208 30.98177083 19.06510417 28.96354167 19.09765625 26.9453125 C19.12649242 24.91814596 19.12649242 24.91814596 18 23 C17.01 22.67 16.02 22.34 15 22 C15 21.34 15 20.68 15 20 C14.01 20 13.02 20 12 20 C11.938125 19.071875 11.938125 19.071875 11.875 18.125 C11.441875 17.073125 11.441875 17.073125 11 16 C8.00384054 14.6954344 8.00384054 14.6954344 5 14 C5 13.01 5 12.02 5 11 C4.01 11 3.02 11 2 11 C2 10.34 2 9.68 2 9 C1.34 9 0.68 9 0 9 C0 8.34 0 7.68 0 7 C-0.66 7 -1.32 7 -2 7 C-2 5.35 -2 3.7 -2 2 C-1.34 2 -0.68 2 0 2 C0 1.34 0 0.68 0 0 Z " fill="#375573" transform="translate(12,41)"/>
<path d="M0 0 C1.98 0 3.96 0 6 0 C6 1.32 6 2.64 6 4 C6.66 4 7.32 4 8 4 C8 4.99 8 5.98 8 7 C8.66 7 9.32 7 10 7 C10 9.31 10 11.62 10 14 C10.66 14 11.32 14 12 14 C12 14.66 12 15.32 12 16 C12.66 16 13.32 16 14 16 C14 17.98 14 19.96 14 22 C14.99 22 15.98 22 17 22 C17 22.99 17 23.98 17 25 C26.24 25 35.48 25 45 25 C45 25.66 45 26.32 45 27 C43.1875 28.0625 43.1875 28.0625 41 29 C40.01 28.67 39.02 28.34 38 28 C36.0093556 27.85013589 34.01464609 27.75171962 32.01953125 27.68359375 C30.85615234 27.64169922 29.69277344 27.59980469 28.49414062 27.55664062 C27.27919922 27.51732422 26.06425781 27.47800781 24.8125 27.4375 C23.58595703 27.39431641 22.35941406 27.35113281 21.09570312 27.30664062 C18.06391619 27.2004691 15.03204685 27.09842048 12 27 C12 26.34 12 25.68 12 25 C11.34 25 10.68 25 10 25 C10 22.03 10 19.06 10 16 C9.34 16 8.68 16 8 16 C8 14.02 8 12.04 8 10 C7.34 10 6.68 10 6 10 C5.34 8.35 4.68 6.7 4 5 C2.02 5.99 2.02 5.99 0 7 C0 4.69 0 2.38 0 0 Z " fill="#BDC8D9" transform="translate(51,19)"/>
<path d="M0 0 C0.99 0.33 1.98 0.66 3 1 C3 1.66 3 2.32 3 3 C3.99 2.34 4.98 1.68 6 1 C6.99 1 7.98 1 9 1 C10.35439668 3.70879335 10.06501451 6.00933268 10 9 C8.35 9.33 6.7 9.66 5 10 C4.97108051 14.29165262 4.95322882 18.58328036 4.9375 22.875 C4.92912109 24.09832031 4.92074219 25.32164063 4.91210938 26.58203125 C4.90888672 27.74863281 4.90566406 28.91523437 4.90234375 30.1171875 C4.89710693 31.19597168 4.89187012 32.27475586 4.88647461 33.38623047 C4.82116894 35.98232186 4.82116894 35.98232186 6 38 C6.66 38 7.32 38 8 38 C8.33 38.99 8.66 39.98 9 41 C8.34 41.99 7.68 42.98 7 44 C7.66 44 8.32 44 9 44 C9 44.66 9 45.32 9 46 C13.62 46 18.24 46 23 46 C23 45.34 23 44.68 23 44 C24.32 44 25.64 44 27 44 C27 43.34 27 42.68 27 42 C27.66 42 28.32 42 29 42 C29 41.34 29 40.68 29 40 C30.32 40 31.64 40 33 40 C33 39.01 33 38.02 33 37 C33.66 37 34.32 37 35 37 C35 36.34 35 35.68 35 35 C36.32 35.33 37.64 35.66 39 36 C37.35 36.66 35.7 37.32 34 38 C34 38.99 34 39.98 34 41 C32.68 41 31.36 41 30 41 C30 41.66 30 42.32 30 43 C29.34 43 28.68 43 28 43 C28 43.66 28 44.32 28 45 C24.1584024 47.56780471 20.1860825 47.22688882 15.75 47.125 C15.00492188 47.11597656 14.25984375 47.10695312 13.4921875 47.09765625 C11.66131941 47.07418358 9.83061762 47.03831525 8 47 C8 46.34 8 45.68 8 45 C6.68 44.34 5.36 43.68 4 43 C4 42.34 4 41.68 4 41 C3.34 41 2.68 41 2 41 C1.12999463 38.04240205 0.92295882 35.56136349 1.0859375 32.48828125 C1.12976563 31.64845703 1.17359375 30.80863281 1.21875 29.94335938 C1.2703125 29.07517578 1.321875 28.20699219 1.375 27.3125 C1.41882813 26.43271484 1.46265625 25.55292969 1.5078125 24.64648438 C1.86953444 18.13046556 1.86953444 18.13046556 3 17 C3.22528924 15.00458104 3.44761095 13.00840136 3.62109375 11.0078125 C4 9 4 9 6 6 C5.34 6 4.68 6 4 6 C4 5.34 4 4.68 4 4 C3.34 4 2.68 4 2 4 C1.34 2.68 0.68 1.36 0 0 Z " fill="#B8DBE6" transform="translate(12,64)"/>
<path d="M0 0 C2.64 0 5.28 0 8 0 C8 0.66 8 1.32 8 2 C8.66 2 9.32 2 10 2 C10 2.99 10 3.98 10 5 C10.99 5 11.98 5 13 5 C12.67 5.66 12.34 6.32 12 7 C10.68 6.67 9.36 6.34 8 6 C8 5.34 8 4.68 8 4 C5.36 4 2.72 4 0 4 C0 4.66 0 5.32 0 6 C-1.32 6 -2.64 6 -4 6 C-4 6.66 -4 7.32 -4 8 C-4.66 8 -5.32 8 -6 8 C-6 8.99 -6 9.98 -6 11 C-7.32 11 -8.64 11 -10 11 C-10 11.66 -10 12.32 -10 13 C-10.66 13 -11.32 13 -12 13 C-12 13.66 -12 14.32 -12 15 C-13.32 15 -14.64 15 -16 15 C-16 15.66 -16 16.32 -16 17 C-20.62 17 -25.24 17 -30 17 C-30 16.34 -30 15.68 -30 15 C-30.66 15 -31.32 15 -32 15 C-31.34 13.68 -30.68 12.36 -30 11 C-29.67 11.66 -29.34 12.32 -29 13 C-24.71 13 -20.42 13 -16 13 C-16 12.34 -16 11.68 -16 11 C-14.68 10.67 -13.36 10.34 -12 10 C-12 9.34 -12 8.68 -12 8 C-10.02 7.34 -8.04 6.68 -6 6 C-6 5.34 -6 4.68 -6 4 C-3 2 -3 2 0 2 C0 1.34 0 0.68 0 0 Z " fill="#83C1D6" transform="translate(51,93)"/>
<path d="M0 0 C1.32 0.33 2.64 0.66 4 1 C2 4 2 4 -0.625 4.6875 C-1.40875 4.790625 -2.1925 4.89375 -3 5 C-3.33 6.32 -3.66 7.64 -4 9 C0.95 7.515 0.95 7.515 6 6 C6 5.34 6 4.68 6 4 C7.32 3.67 8.64 3.34 10 3 C10 3.99 10 4.98 10 6 C9.34 6 8.68 6 8 6 C8 6.66 8 7.32 8 8 C7.34 8 6.68 8 6 8 C5.34 10.64 4.68 13.28 4 16 C3.34 16 2.68 16 2 16 C1.67 15.01 1.34 14.02 1 13 C1 16.3 1 19.6 1 23 C0.67 23 0.34 23 0 23 C0 21.02 0 19.04 0 17 C-0.66 17 -1.32 17 -2 17 C-2.33 16.01 -2.66 15.02 -3 14 C-3.33 14.66 -3.66 15.32 -4 16 C-4.66 16 -5.32 16 -6 16 C-6.33 16.66 -6.66 17.32 -7 18 C-7 17.34 -7 16.68 -7 16 C-7.99 16 -8.98 16 -10 16 C-10 14.68 -10 13.36 -10 12 C-10.66 12 -11.32 12 -12 12 C-12 11.34 -12 10.68 -12 10 C-11.34 10 -10.68 10 -10 10 C-10 9.34 -10 8.68 -10 8 C-9.34 8 -8.68 8 -8 8 C-8 7.34 -8 6.68 -8 6 C-7.34 6 -6.68 6 -6 6 C-6 5.34 -6 4.68 -6 4 C-5.34 4 -4.68 4 -4 4 C-4 3.34 -4 2.68 -4 2 C-2.68 2 -1.36 2 0 2 C0 1.34 0 0.68 0 0 Z " fill="#A2DAEE" transform="translate(88,57)"/>
<path d="M0 0 C1.65 0 3.3 0 5 0 C5 1.32 5 2.64 5 4 C6.98 4 8.96 4 11 4 C11 4.66 11 5.32 11 6 C12.32 6 13.64 6 15 6 C15 6.66 15 7.32 15 8 C15.99 8 16.98 8 18 8 C18 8.99 18 9.98 18 11 C19.32 11 20.64 11 22 11 C22 11.66 22 12.32 22 13 C22.66 13 23.32 13 24 13 C24 13.66 24 14.32 24 15 C24.66 15 25.32 15 26 15 C26 16.98 26 18.96 26 21 C25.34 21 24.68 21 24 21 C24 22.32 24 23.64 24 25 C23.34 25 22.68 25 22 25 C22 23.35 22 21.7 22 20 C21.01 19.67 20.02 19.34 19 19 C17.97895449 18.02149805 16.9793879 17.02019573 16 16 C15.01 15.34 14.02 14.68 13 14 C13 13.34 13 12.68 13 12 C12.01 11.67 11.02 11.34 10 11 C8.3125 9.5625 8.3125 9.5625 7 8 C7 7.34 7 6.68 7 6 C6.01 6 5.02 6 4 6 C1.8125 4.125 1.8125 4.125 0 2 C0 1.34 0 0.68 0 0 Z " fill="#ACBBD4" transform="translate(13,44)"/>
<path d="M0 0 C1.66666667 0 3.33333333 0 5 0 C5 1.98 5 3.96 5 6 C4.34 6 3.68 6 3 6 C2.67 10.62 2.34 15.24 2 20 C2.99 20 3.98 20 5 20 C5.33 19.34 5.66 18.68 6 18 C9.0625 17.375 9.0625 17.375 12 17 C12 17.99 12 18.98 12 20 C11.34 20 10.68 20 10 20 C10 20.66 10 21.32 10 22 C9.01 22 8.02 22 7 22 C7 22.66 7 23.32 7 24 C6.01 24 5.02 24 4 24 C4 24.66 4 25.32 4 26 C3.01 26 2.02 26 1 26 C1 26.66 1 27.32 1 28 C-0.32 28 -1.64 28 -3 28 C-3 25.36 -3 22.72 -3 20 C-2.34 20 -1.68 20 -1 20 C-1 17.03 -1 14.06 -1 11 C-1.33 11 -1.66 11 -2 11 C-2 9.02 -2 7.04 -2 5 C-1.34 5 -0.68 5 0 5 C0 3.35 0 1.7 0 0 Z " fill="#BCC5D8" transform="translate(30,69)"/>
<path d="M0 0 C0.33 0 0.66 0 1 0 C0.67 4.62 0.34 9.24 0 14 C-0.66 14 -1.32 14 -2 14 C-2 16.64 -2 19.28 -2 22 C-0.68 22 0.64 22 2 22 C2 21.34 2 20.68 2 20 C2.99 20 3.98 20 5 20 C5 19.34 5 18.68 5 18 C5.99 18 6.98 18 8 18 C8 17.34 8 16.68 8 16 C8.99 16 9.98 16 11 16 C11 15.34 11 14.68 11 14 C11.66 14 12.32 14 13 14 C13 13.01 13 12.02 13 11 C13.66 11 14.32 11 15 11 C15 10.34 15 9.68 15 9 C15.99 9 16.98 9 18 9 C18 9.66 18 10.32 18 11 C19.32 11.33 20.64 11.66 22 12 C21.01 12 20.02 12 19 12 C19 12.66 19 13.32 19 14 C18.01 14 17.02 14 16 14 C16 14.66 16 15.32 16 16 C14.68 16 13.36 16 12 16 C11.67 17.32 11.34 18.64 11 20 C10.01 20 9.02 20 8 20 C8 20.66 8 21.32 8 22 C6.35 22 4.7 22 3 22 C2.67 23.32 2.34 24.64 2 26 C0.68 26 -0.64 26 -2 26 C-2 25.34 -2 24.68 -2 24 C-2.66 24 -3.32 24 -4 24 C-4.12086218 17.56744599 -3.82351864 11.38226945 -3 5 C-2.01 5 -1.02 5 0 5 C0 3.35 0 1.7 0 0 Z " fill="#355579" transform="translate(29,75)"/>
<path d="M0 0 C1.32 0 2.64 0 4 0 C4 1.32 4 2.64 4 4 C4.66 4 5.32 4 6 4 C6 5.32 6 6.64 6 8 C6.99 8 7.98 8 9 8 C9 12.62 9 17.24 9 22 C8.67 22 8.34 22 8 22 C8 19.69 8 17.38 8 15 C7.34 15 6.68 15 6 15 C6 14.01 6 13.02 6 12 C5.34 12 4.68 12 4 12 C4 10.68 4 9.36 4 8 C2.02 8 0.04 8 -2 8 C-2 10.31 -2 12.62 -2 15 C-3.32 15.33 -4.64 15.66 -6 16 C-6 17.98 -6 19.96 -6 22 C-6.66 22 -7.32 22 -8 22 C-8 19.69 -8 17.38 -8 15 C-7.34 15 -6.68 15 -6 15 C-6 12.69 -6 10.38 -6 8 C-5.01 8 -4.02 8 -3 8 C-3 6.68 -3 5.36 -3 4 C-2.01 4 -1.02 4 0 4 C0 2.68 0 1.36 0 0 Z " fill="#4D6B8A" transform="translate(53,11)"/>
<path d="M0 0 C0.66 0 1.32 0 2 0 C2 1.32 2 2.64 2 4 C2.99 4 3.98 4 5 4 C4.98839844 4.71027344 4.97679688 5.42054687 4.96484375 6.15234375 C4.95582031 7.07144531 4.94679688 7.99054688 4.9375 8.9375 C4.92589844 9.85402344 4.91429688 10.77054688 4.90234375 11.71484375 C4.74050951 13.96593327 4.74050951 13.96593327 6 15 C6.07258946 17.18639453 6.08373783 19.37500389 6.0625 21.5625 C6.05347656 22.76003906 6.04445313 23.95757812 6.03515625 25.19140625 C6.02355469 26.11824219 6.01195313 27.04507813 6 28 C2 28 2 28 0.4375 26.5625 C-0.036875 26.046875 -0.51125 25.53125 -1 25 C-1.99 24.67 -2.98 24.34 -4 24 C-4 23.34 -4 22.68 -4 22 C-4.66 22 -5.32 22 -6 22 C-6 21.34 -6 20.68 -6 20 C-6.99 20 -7.98 20 -9 20 C-9.33 18.68 -9.66 17.36 -10 16 C-6.04 17.65 -2.08 19.3 2 21 C2 21.66 2 22.32 2 23 C2.66 23 3.32 23 4 23 C4 22.01 4 21.02 4 20 C3.34 20 2.68 20 2 20 C2 15.05 2 10.1 2 5 C1.34 5 0.68 5 0 5 C0 3.35 0 1.7 0 0 Z " fill="#9CACC7" transform="translate(76,69)"/>
<path d="M0 0 C0.54372951 3.05847848 1 5.88772805 1 9 C1.66 9.33 2.32 9.66 3 10 C1.02 10.33 -0.96 10.66 -3 11 C-2.01 11.66 -1.02 12.32 0 13 C0 13.66 0 14.32 0 15 C0.99 15 1.98 15 3 15 C3 15.66 3 16.32 3 17 C3.99 17 4.98 17 6 17 C6 17.66 6 18.32 6 19 C10.62 19 15.24 19 20 19 C20 19.33 20 19.66 20 20 C17.58303128 20.05411124 15.16728213 20.09372278 12.75 20.125 C12.06808594 20.14175781 11.38617188 20.15851563 10.68359375 20.17578125 C6.9391765 20.21213482 4.17647273 20.07944349 1 18 C1 17.34 1 16.68 1 16 C0.34 16 -0.32 16 -1 16 C-1 15.34 -1 14.68 -1 14 C-1.804375 13.731875 -2.60875 13.46375 -3.4375 13.1875 C-4.283125 12.795625 -5.12875 12.40375 -6 12 C-6.33 11.01 -6.66 10.02 -7 9 C-10.3 8.67 -13.6 8.34 -17 8 C-17 7.34 -17 6.68 -17 6 C-14.36 6 -11.72 6 -9 6 C-9 6.66 -9 7.32 -9 8 C-7.35 7.67 -5.7 7.34 -4 7 C-4.99 7 -5.98 7 -7 7 C-6.625 4.0625 -6.625 4.0625 -6 1 C-4 0 -4 0 0 0 Z " fill="#C2EBF7" transform="translate(68,91)"/>
<path d="M0 0 C1.485 0.99 1.485 0.99 3 2 C3 2.66 3 3.32 3 4 C3.99 4 4.98 4 6 4 C6 4.66 6 5.32 6 6 C6.99 6.33 7.98 6.66 9 7 C9.61875 7.78375 10.2375 8.5675 10.875 9.375 C13.07779763 12.09610295 14.98510969 13.29929265 18 15 C19.8125 16.375 19.8125 16.375 21 18 C21.1875 20.6875 21.1875 20.6875 21 23 C20.34 23.33 19.68 23.66 19 24 C17.86649466 26.01669827 17.86649466 26.01669827 17 28 C17.03255208 25.98177083 17.06510417 23.96354167 17.09765625 21.9453125 C17.12649242 19.91814596 17.12649242 19.91814596 16 18 C15.01 17.67 14.02 17.34 13 17 C13 16.34 13 15.68 13 15 C12.01 15 11.02 15 10 15 C9.938125 14.071875 9.938125 14.071875 9.875 13.125 C9.58625 12.42375 9.2975 11.7225 9 11 C6.00384054 9.6954344 6.00384054 9.6954344 3 9 C3 8.01 3 7.02 3 6 C2.01 6 1.02 6 0 6 C0 4.02 0 2.04 0 0 Z " fill="#3C6180" transform="translate(14,46)"/>
<path d="M0 0 C0.66 0 1.32 0 2 0 C2 0.66 2 1.32 2 2 C2.66 2 3.32 2 4 2 C4 2.66 4 3.32 4 4 C3.01 4 2.02 4 1 4 C1 4.99 1 5.98 1 7 C0.34 7 -0.32 7 -1 7 C-1 7.66 -1 8.32 -1 9 C-1.66 9 -2.32 9 -3 9 C-3 9.66 -3 10.32 -3 11 C-3.99 11 -4.98 11 -6 11 C-6 11.66 -6 12.32 -6 13 C-7.32 13 -8.64 13 -10 13 C-10 13.66 -10 14.32 -10 15 C-10.66 15 -11.32 15 -12 15 C-12 15.66 -12 16.32 -12 17 C-12.66 17 -13.32 17 -14 17 C-14 17.66 -14 18.32 -14 19 C-14.66 19 -15.32 19 -16 19 C-16 19.66 -16 20.32 -16 21 C-16.66 21 -17.32 21 -18 21 C-18 21.66 -18 22.32 -18 23 C-18.66 23 -19.32 23 -20 23 C-20 21.35 -20 19.7 -20 18 C-18.68 17.67 -17.36 17.34 -16 17 C-16 16.34 -16 15.68 -16 15 C-10.58823529 11 -10.58823529 11 -8 11 C-7.896875 10.401875 -7.79375 9.80375 -7.6875 9.1875 C-6.89363064 6.66155205 -6.04427591 5.65114593 -4 4 C-3.01 3.67 -2.02 3.34 -1 3 C-0.67 2.01 -0.34 1.02 0 0 Z " fill="#3A5A77" transform="translate(94,46)"/>
<path d="M0 0 C2.33333333 0.33333333 4.66666667 0.66666667 7 1 C8.794375 1.2165625 8.794375 1.2165625 10.625 1.4375 C13.70034908 1.95005818 16.1743554 2.71561609 19 4 C19 4.66 19 5.32 19 6 C19.66 6 20.32 6 21 6 C21.66 7.65 22.32 9.3 23 11 C19.75687438 9.74459653 16.5609431 8.39287561 13.375 7 C12.61960937 6.67 11.86421875 6.34 11.0859375 6 C9 5 9 5 6 3 C4.34450469 2.61500109 2.6777567 2.27206865 1 2 C1 2.66 1 3.32 1 4 C0.34 4 -0.32 4 -1 4 C-1 4.66 -1 5.32 -1 6 C-1.99 6 -2.98 6 -4 6 C-3.67 4.68 -3.34 3.36 -3 2 C-2.01 2 -1.02 2 0 2 C0 1.34 0 0.68 0 0 Z " fill="#9EABC8" transform="translate(51,78)"/>
<path d="M0 0 C0.33 0 0.66 0 1 0 C1 1.65 1 3.3 1 5 C1.66 5 2.32 5 3 5 C3 8.3 3 11.6 3 15 C3.66 15 4.32 15 5 15 C5 21.93 5 28.86 5 36 C4.34 36 3.68 36 3 36 C3 36.66 3 37.32 3 38 C2.34 37.67 1.68 37.34 1 37 C1.33 36.34 1.66 35.68 2 35 C2.66 35 3.32 35 4 35 C3.67 28.73 3.34 22.46 3 16 C1.68 16 0.36 16 -1 16 C-1.02692484 13.70839681 -1.04636124 11.41670454 -1.0625 9.125 C-1.07410156 7.84882812 -1.08570312 6.57265625 -1.09765625 5.2578125 C-1 2 -1 2 0 0 Z " fill="#8EBECE" transform="translate(89,68)"/>
<path d="M0 0 C1.98 0.495 1.98 0.495 4 1 C4 3.97 4 6.94 4 10 C3.01 10 2.02 10 1 10 C1 15.28 1 20.56 1 26 C0.34 26.33 -0.32 26.66 -1 27 C-1.02721831 23.9999376 -1.04694378 21.00012744 -1.0625 18 C-1.07087891 17.16082031 -1.07925781 16.32164063 -1.08789062 15.45703125 C-1.10824033 10.20680661 -0.76368207 5.19544338 0 0 Z " fill="#82C2D9" transform="translate(17,74)"/>
<path d="M0 0 C2.475 0.99 2.475 0.99 5 2 C5 2.66 5 3.32 5 4 C5.66 4 6.32 4 7 4 C7 4.66 7 5.32 7 6 C7.66 6 8.32 6 9 6 C9 6.66 9 7.32 9 8 C9.99 8 10.98 8 12 8 C12.33 9.65 12.66 11.3 13 13 C12.01 13.33 11.02 13.66 10 14 C9.67 13.34 9.34 12.68 9 12 C8.13375 11.8453125 8.13375 11.8453125 7.25 11.6875 C3.80636859 10.63527929 2.22222326 8.77777907 0 6 C-0.3125 2.6875 -0.3125 2.6875 0 0 Z " fill="#81C5DB" transform="translate(5,53)"/>
<path d="M0 0 C1.32 0 2.64 0 4 0 C4 3.63 4 7.26 4 11 C3.34 11 2.68 11 2 11 C2 11.66 2 12.32 2 13 C-0.97 13 -3.94 13 -7 13 C-7 12.34 -7 11.68 -7 11 C-5.35 11 -3.7 11 -2 11 C-2 9.35 -2 7.7 -2 6 C-1.34 6 -0.68 6 0 6 C0 4.02 0 2.04 0 0 Z " fill="#B4C0D6" transform="translate(43,33)"/>
<path d="M0 0 C0.33 1.32 0.66 2.64 1 4 C1.66 4 2.32 4 3 4 C3 5.98 3 7.96 3 10 C2.34 10 1.68 10 1 10 C1 11.32 1 12.64 1 14 C-0.98 14 -2.96 14 -5 14 C-4.85892253 12.54119891 -4.71197585 11.08296449 -4.5625 9.625 C-4.48128906 8.81289062 -4.40007812 8.00078125 -4.31640625 7.1640625 C-4 5 -4 5 -3 3 C-2.34 3 -1.68 3 -1 3 C-0.67 2.01 -0.34 1.02 0 0 Z " fill="#A9E5F3" transform="translate(85,70)"/>
<path d="M0 0 C1.32 0 2.64 0 4 0 C4 0.99 4 1.98 4 3 C4.598125 3.103125 5.19625 3.20625 5.8125 3.3125 C8.28243264 4.08876455 9.32251235 5.07088921 11 7 C9.35 8.98 7.7 10.96 6 13 C5.34 11.68 4.68 10.36 4 9 C3.01 9 2.02 9 1 9 C0.29925156 5.846632 0 3.27275026 0 0 Z " fill="#99D6EB" transform="translate(13,52)"/>
<path d="M0 0 C0.33 0 0.66 0 1 0 C0.67 4.62 0.34 9.24 0 14 C-0.66 14 -1.32 14 -2 14 C-2 16.64 -2 19.28 -2 22 C-0.68 22 0.64 22 2 22 C2.33 22.99 2.66 23.98 3 25 C1.35 25.33 -0.3 25.66 -2 26 C-2 25.34 -2 24.68 -2 24 C-2.66 24 -3.32 24 -4 24 C-4.12086218 17.56744599 -3.82351864 11.38226945 -3 5 C-2.01 5 -1.02 5 0 5 C0 3.35 0 1.7 0 0 Z " fill="#355875" transform="translate(29,75)"/>
<path d="M0 0 C0 0.99 0 1.98 0 3 C-0.66 3 -1.32 3 -2 3 C-2 3.66 -2 4.32 -2 5 C-2.66 5 -3.32 5 -4 5 C-4.66 7.64 -5.32 10.28 -6 13 C-6.66 13 -7.32 13 -8 13 C-8.33 12.01 -8.66 11.02 -9 10 C-9 13.3 -9 16.6 -9 20 C-9.33 20 -9.66 20 -10 20 C-10 18.02 -10 16.04 -10 14 C-10.66 14 -11.32 14 -12 14 C-12 11.69 -12 9.38 -12 7 C-11.01 7 -10.02 7 -9 7 C-9 6.34 -9 5.68 -9 5 C-7.35 4.34 -5.7 3.68 -4 3 C-4 2.34 -4 1.68 -4 1 C-2 0 -2 0 0 0 Z " fill="#9FD3E2" transform="translate(98,60)"/>
<path d="M0 0 C0.66 0 1.32 0 2 0 C2 4.95 2 9.9 2 15 C1.34 15 0.68 15 0 15 C0 15.66 0 16.32 0 17 C-1.32 17 -2.64 17 -4 17 C-4 16.34 -4 15.68 -4 15 C-4.66 15 -5.32 15 -6 15 C-6 14.34 -6 13.68 -6 13 C-6.66 13 -7.32 13 -8 13 C-8 12.34 -8 11.68 -8 11 C-9.32 10.67 -10.64 10.34 -12 10 C-9.6875 9.375 -9.6875 9.375 -7 9 C-6.01 9.66 -5.02 10.32 -4 11 C-4 11.66 -4 12.32 -4 13 C-2.68 13 -1.36 13 0 13 C0 8.71 0 4.42 0 0 Z " fill="#2C4D6C" transform="translate(82,84)"/>
<path d="M0 0 C0.83402344 -0.00386719 1.66804688 -0.00773437 2.52734375 -0.01171875 C3.82865234 0.00568359 3.82865234 0.00568359 5.15625 0.0234375 C6.02378906 0.01183594 6.89132813 0.00023438 7.78515625 -0.01171875 C9.03619141 -0.00591797 9.03619141 -0.00591797 10.3125 0 C11.45428711 0.00507568 11.45428711 0.00507568 12.61914062 0.01025391 C14.65625 0.3984375 14.65625 0.3984375 17.65625 3.3984375 C9.40625 3.3984375 1.15625 3.3984375 -7.34375 3.3984375 C-3.96292925 0.01761675 -3.96292925 0.01761675 0 0 Z " fill="#7EC3D9" transform="translate(83.34375,31.6015625)"/>
<path d="M0 0 C9.57 0 19.14 0 29 0 C29 0.66 29 1.32 29 2 C27.1875 3.0625 27.1875 3.0625 25 4 C24.01 3.67 23.02 3.34 22 3 C20.37432921 2.85284801 18.74413143 2.75278133 17.11328125 2.68359375 C16.17548828 2.64169922 15.23769531 2.59980469 14.27148438 2.55664062 C13.29501953 2.51732422 12.31855469 2.47800781 11.3125 2.4375 C10.32443359 2.39431641 9.33636719 2.35113281 8.31835938 2.30664062 C5.87904454 2.20058346 3.43962887 2.09852286 1 2 C0.67 1.34 0.34 0.68 0 0 Z " fill="#C9D3E9" transform="translate(67,44)"/>
<path d="M0 0 C0.33 0.66 0.66 1.32 1 2 C4.96 2 8.92 2 13 2 C13.33 3.32 13.66 4.64 14 6 C9.38 6 4.76 6 0 6 C0 5.34 0 4.68 0 4 C-0.66 4 -1.32 4 -2 4 C-1.34 2.68 -0.68 1.36 0 0 Z " fill="#83BED1" transform="translate(21,104)"/>
<path d="M0 0 C0.66 0 1.32 0 2 0 C2 4.62 2 9.24 2 14 C1.34 14 0.68 14 0 14 C0 14.66 0 15.32 0 16 C-1.32 16 -2.64 16 -4 16 C-4 16.66 -4 17.32 -4 18 C-5.32 18 -6.64 18 -8 18 C-7.67 16.35 -7.34 14.7 -7 13 C-3.535 12.505 -3.535 12.505 0 12 C0 8.04 0 4.08 0 0 Z " fill="#A6D2DF" transform="translate(109,39)"/>
<path d="M0 0 C1.32 0.33 2.64 0.66 4 1 C3.67 1.99 3.34 2.98 3 4 C4.65 3.67 6.3 3.34 8 3 C8.33 3.99 8.66 4.98 9 6 C9 4.35 9 2.7 9 1 C9.66 1 10.32 1 11 1 C11 2.98 11 4.96 11 7 C11.66 7 12.32 7 13 7 C13 7.66 13 8.32 13 9 C11.35 9 9.7 9 8 9 C8.33 9.99 8.66 10.98 9 12 C9.03954234 14.33299825 9.04401732 16.66708189 9 19 C8.67 19 8.34 19 8 19 C7.87625 18.030625 7.7525 17.06125 7.625 16.0625 C7.315625 14.5465625 7.315625 14.5465625 7 13 C6.34 12.67 5.68 12.34 5 12 C5 9.69 5 7.38 5 5 C4.01 5 3.02 5 2 5 C2 3.68 2 2.36 2 1 C1.34 0.67 0.68 0.34 0 0 Z " fill="#8FCFE5" transform="translate(57,14)"/>
<path d="M0 0 C0.99 0.33 1.98 0.66 3 1 C3 1.66 3 2.32 3 3 C3.99 2.34 4.98 1.68 6 1 C6.99 1 7.98 1 9 1 C10.35439668 3.70879335 10.06501451 6.00933268 10 9 C8.35 9.33 6.7 9.66 5 10 C5 12.64 5 15.28 5 18 C4.34 17.67 3.68 17.34 3 17 C3.75 9.375 3.75 9.375 6 6 C5.34 6 4.68 6 4 6 C4 5.34 4 4.68 4 4 C3.34 4 2.68 4 2 4 C1.34 2.68 0.68 1.36 0 0 Z " fill="#ACD6E2" transform="translate(12,64)"/>
<path d="M0 0 C0.99 0 1.98 0 3 0 C3 1.32 3 2.64 3 4 C2.34 4 1.68 4 1 4 C1 6.31 1 8.62 1 11 C-0.32 11.33 -1.64 11.66 -3 12 C-3 13.98 -3 15.96 -3 18 C-3.66 18 -4.32 18 -5 18 C-5 15.69 -5 13.38 -5 11 C-4.34 11 -3.68 11 -3 11 C-3 8.69 -3 6.38 -3 4 C-2.01 4 -1.02 4 0 4 C0 2.68 0 1.36 0 0 Z " fill="#355779" transform="translate(50,15)"/>
<path d="M0 0 C3.96 0 7.92 0 12 0 C12.33 0.99 12.66 1.98 13 3 C13.99 3.33 14.98 3.66 16 4 C16.33 4.99 16.66 5.98 17 7 C16.01 7 15.02 7 14 7 C14 6.34 14 5.68 14 5 C13.34 5 12.68 5 12 5 C12 4.01 12 3.02 12 2 C8.37 2 4.74 2 1 2 C1 2.66 1 3.32 1 4 C-0.65 4.33 -2.3 4.66 -4 5 C-4 5.66 -4 6.32 -4 7 C-4.66 7 -5.32 7 -6 7 C-6 7.66 -6 8.32 -6 9 C-6.66 8.67 -7.32 8.34 -8 8 C-6.37660195 6.29115995 -4.70680947 4.62553283 -3 3 C-2.34 3 -1.68 3 -1 3 C-0.67 2.01 -0.34 1.02 0 0 Z " fill="#D6ECF3" transform="translate(49,0)"/>
<path d="M0 0 C0.99 0 1.98 0 3 0 C3 0.66 3 1.32 3 2 C3.99 2 4.98 2 6 2 C6 2.99 6 3.98 6 5 C7.32 5 8.64 5 10 5 C10 5.66 10 6.32 10 7 C10.66 7 11.32 7 12 7 C12 7.66 12 8.32 12 9 C12.66 9 13.32 9 14 9 C14 9.66 14 10.32 14 11 C9.85837086 10.53981898 7.75182176 10.14493915 5 7 C4.01 6.67 3.02 6.34 2 6 C2 4.35 2 2.7 2 1 C1.34 0.67 0.68 0.34 0 0 Z " fill="#D2D8E7" transform="translate(25,50)"/>
<path d="M0 0 C1.65 0 3.3 0 5 0 C5 1.32 5 2.64 5 4 C5.928125 3.938125 6.85625 3.87625 7.8125 3.8125 C11 4 11 4 12.9375 5.25 C14 7 14 7 13.6875 9.1875 C13.460625 9.785625 13.23375 10.38375 13 11 C11.02 10.01 9.04 9.02 7 8 C7 7.34 7 6.68 7 6 C6.01 6 5.02 6 4 6 C1.8125 4.125 1.8125 4.125 0 2 C0 1.34 0 0.68 0 0 Z " fill="#C3CBE3" transform="translate(13,44)"/>
<path d="M0 0 C2.33944736 0.28730055 4.6739143 0.61936779 7 1 C6.01 1.495 6.01 1.495 5 2 C5 2.66 5 3.32 5 4 C5.66 4 6.32 4 7 4 C7 4.66 7 5.32 7 6 C14.425 6.99 14.425 6.99 22 8 C22 7.34 22 6.68 22 6 C22.99 6.33 23.98 6.66 25 7 C24.34 7 23.68 7 23 7 C23 7.66 23 8.32 23 9 C18.38 9 13.76 9 9 9 C9 8.34 9 7.68 9 7 C8.01 7 7.02 7 6 7 C6 6.34 6 5.68 6 5 C5.01 5 4.02 5 3 5 C3 4.34 3 3.68 3 3 C1.68 2.34 0.36 1.68 -1 1 C-0.67 0.67 -0.34 0.34 0 0 Z " fill="#91BCCB" transform="translate(65,101)"/>
<path d="M0 0 C1.485 0.99 1.485 0.99 3 2 C3 2.66 3 3.32 3 4 C3.99 4 4.98 4 6 4 C6 4.66 6 5.32 6 6 C6.99 6.33 7.98 6.66 9 7 C10.1875 10.0625 10.1875 10.0625 11 13 C10.34 13 9.68 13 9 13 C9 12.34 9 11.68 9 11 C7.02 10.34 5.04 9.68 3 9 C3 8.01 3 7.02 3 6 C2.01 6 1.02 6 0 6 C0 4.02 0 2.04 0 0 Z " fill="#325675" transform="translate(14,46)"/>
<path d="M0 0 C0 0.99 0 1.98 0 3 C-0.66 3 -1.32 3 -2 3 C-2 3.66 -2 4.32 -2 5 C-2.99 5 -3.98 5 -5 5 C-5 5.66 -5 6.32 -5 7 C-5.99 7 -6.98 7 -8 7 C-8 7.66 -8 8.32 -8 9 C-8.99 9 -9.98 9 -11 9 C-11 7.68 -11 6.36 -11 5 C-10.34 5 -9.68 5 -9 5 C-9 4.34 -9 3.68 -9 3 C-8.34 3 -7.68 3 -7 3 C-6.67 2.34 -6.34 1.68 -6 1 C-3.911361 0.32624548 -2.19636905 0 0 0 Z " fill="#A8B1CD" transform="translate(42,86)"/>
<path d="M0 0 C0.33 0.66 0.66 1.32 1 2 C2.32 2 3.64 2 5 2 C5 1.34 5 0.68 5 0 C5.66 0.33 6.32 0.66 7 1 C3.38671875 5.6875 3.38671875 5.6875 2 7 C1.01 7 0.02 7 -1 7 C-1 7.66 -1 8.32 -1 9 C-1.66 9 -2.32 9 -3 9 C-3 9.66 -3 10.32 -3 11 C-3.66 11 -4.32 11 -5 11 C-5.33 11.99 -5.66 12.98 -6 14 C-6.33 13.34 -6.66 12.68 -7 12 C-6.67 11.34 -6.34 10.68 -6 10 C-5.34 10 -4.68 10 -4 10 C-4 9.34 -4 8.68 -4 8 C-3.34 8 -2.68 8 -2 8 C-2 7.01 -2 6.02 -2 5 C-2.66 4.67 -3.32 4.34 -4 4 C-3.34 4 -2.68 4 -2 4 C-1.34 2.68 -0.68 1.36 0 0 Z " fill="#BCE1E9" transform="translate(100,55)"/>
<path d="M0 0 C0.66 0 1.32 0 2 0 C2 1.32 2 2.64 2 4 C2.99 4 3.98 4 5 4 C5 7.3 5 10.6 5 14 C4.01 14.33 3.02 14.66 2 15 C2 11.7 2 8.4 2 5 C1.34 5 0.68 5 0 5 C0 3.35 0 1.7 0 0 Z " fill="#476481" transform="translate(76,69)"/>
<path d="M0 0 C0.33 0.99 0.66 1.98 1 3 C0.0409375 3.1546875 0.0409375 3.1546875 -0.9375 3.3125 C-1.618125 3.539375 -2.29875 3.76625 -3 4 C-3.33 4.99 -3.66 5.98 -4 7 C-4.66 7 -5.32 7 -6 7 C-6.33 8.32 -6.66 9.64 -7 11 C-7.66 11 -8.32 11 -9 11 C-9 9.02 -9 7.04 -9 5 C-8.34 5 -7.68 5 -7 5 C-7 4.34 -7 3.68 -7 3 C-4.69 2.01 -2.38 1.02 0 0 Z " fill="#ACB5CD" transform="translate(93,46)"/>
<path d="M0 0 C0.99 0 1.98 0 3 0 C2.67 1.98 2.34 3.96 2 6 C-1.3 6 -4.6 6 -8 6 C-7.34 5.67 -6.68 5.34 -6 5 C-6 4.01 -6 3.02 -6 2 C-4.7934375 1.7834375 -4.7934375 1.7834375 -3.5625 1.5625 C-1.07896294 1.25864751 -1.07896294 1.25864751 0 0 Z " fill="#AAE3F6" transform="translate(84,100)"/>
<path d="M0 0 C0.99 0.33 1.98 0.66 3 1 C3 2.98 3 4.96 3 7 C3.99 7 4.98 7 6 7 C6.1875 9.875 6.1875 9.875 6 13 C5.01 13.66 4.02 14.32 3 15 C3 13.02 3 11.04 3 9 C2.34 9 1.68 9 1 9 C-0.4783226 6.04335481 -0.06032783 3.25770263 0 0 Z " fill="#456482" transform="translate(62,26)"/>
<path d="M0 0 C2.64 0 5.28 0 8 0 C8 0.66 8 1.32 8 2 C9.65 1.67 11.3 1.34 13 1 C12.01 0.67 11.02 0.34 10 0 C11.65 0 13.3 0 15 0 C15 0.66 15 1.32 15 2 C15.66 2 16.32 2 17 2 C17 2.66 17 3.32 17 4 C12.15270287 5.61576571 9.51430874 4.0153164 5 2 C2.20659843 1.74609778 2.20659843 1.74609778 0 2 C0 1.34 0 0.68 0 0 Z " fill="#AFDBE8" transform="translate(51,97)"/>
<path d="M0 0 C1.66666667 0 3.33333333 0 5 0 C5 1.98 5 3.96 5 6 C3.68 6 2.36 6 1 6 C1 7.65 1 9.3 1 11 C0.01 11 -0.98 11 -2 11 C-2 9.02 -2 7.04 -2 5 C-1.34 5 -0.68 5 0 5 C0 3.35 0 1.7 0 0 Z " fill="#758EA9" transform="translate(30,69)"/>
<path d="M0 0 C0.99 1.32 1.98 2.64 3 4 C1.68 4 0.36 4 -1 4 C-1 4.66 -1 5.32 -1 6 C-1.66 6 -2.32 6 -3 6 C-3 6.66 -3 7.32 -3 8 C-4.65 7.67 -6.3 7.34 -8 7 C-7.67 6.01 -7.34 5.02 -7 4 C-4.9375 3.3125 -4.9375 3.3125 -3 3 C-3 2.34 -3 1.68 -3 1 C-2.01 0.67 -1.02 0.34 0 0 Z " fill="#90C8D7" transform="translate(42,100)"/>
<path d="M0 0 C0.66 0 1.32 0 2 0 C2 0.66 2 1.32 2 2 C2.66 2 3.32 2 4 2 C4 2.66 4 3.32 4 4 C3.01 4 2.02 4 1 4 C1 4.99 1 5.98 1 7 C0.34 7 -0.32 7 -1 7 C-1 7.66 -1 8.32 -1 9 C-1.66 9 -2.32 9 -3 9 C-3.33 9.66 -3.66 10.32 -4 11 C-5.125 6.25 -5.125 6.25 -4 4 C-3.01 3.67 -2.02 3.34 -1 3 C-0.67 2.01 -0.34 1.02 0 0 Z " fill="#547895" transform="translate(94,46)"/>
<path d="M0 0 C-3.75 3 -3.75 3 -6 3 C-6 3.66 -6 4.32 -6 5 C-7.32 5.33 -8.64 5.66 -10 6 C-10.33 4.68 -10.66 3.36 -11 2 C-3.57142857 -1.57142857 -3.57142857 -1.57142857 0 0 Z " fill="#AFBDDA" transform="translate(84,58)"/>
<path d="M0 0 C0.33 0 0.66 0 1 0 C0.67 4.62 0.34 9.24 0 14 C-0.99 14 -1.98 14 -3 14 C-3 11.03 -3 8.06 -3 5 C-2.01 5 -1.02 5 0 5 C0 3.35 0 1.7 0 0 Z " fill="#445F81" transform="translate(29,75)"/>
<path d="M0 0 C-0.33 1.98 -0.66 3.96 -1 6 C-1.66 6 -2.32 6 -3 6 C-3.33 5.01 -3.66 4.02 -4 3 C-5.98 3.99 -5.98 3.99 -8 5 C-8 3.35 -8 1.7 -8 0 C-4.71303767 -0.79953138 -3.28976808 -1.09658936 0 0 Z " fill="#A9E2F2" transform="translate(29,74)"/>
<path d="M0 0 C1.32 0 2.64 0 4 0 C4 2.64 4 5.28 4 8 C2.68 8 1.36 8 0 8 C0 5.36 0 2.72 0 0 Z " fill="#718BA5" transform="translate(53,11)"/>
<path d="M0 0 C1.65 0 3.3 0 5 0 C5.625 3.375 5.625 3.375 6 7 C5.34 7.66 4.68 8.32 4 9 C4 7.35 4 5.7 4 4 C2.35 4.33 0.7 4.66 -1 5 C-0.67 3.35 -0.34 1.7 0 0 Z " fill="#A2E3F2" transform="translate(61,13)"/>
<path d="M0 0 C0.66 0 1.32 0 2 0 C2.66 1.32 3.32 2.64 4 4 C-3.26 4 -10.52 4 -18 4 C-17.67 3.34 -17.34 2.68 -17 2 C-11.39 2.33 -5.78 2.66 0 3 C0 2.01 0 1.02 0 0 Z " fill="#AFE3F9" transform="translate(37,37)"/>
<path d="M0 0 C2.8290723 2.8290723 3.37611108 3.38144425 4 7 C3.34 7 2.68 7 2 7 C1.67 7.99 1.34 8.98 1 10 C0.34 9.67 -0.32 9.34 -1 9 C-0.67 6.03 -0.34 3.06 0 0 Z " fill="#A8E3F6" transform="translate(6,41)"/>
<path d="M0 0 C0.66 0 1.32 0 2 0 C2 1.98 2 3.96 2 6 C2.99 6 3.98 6 5 6 C5 7.65 5 9.3 5 11 C3.0625 10.6875 3.0625 10.6875 1 10 C-0.1577506 6.52674819 -0.06866652 3.63932552 0 0 Z " fill="#ACBAD3" transform="translate(63,35)"/>
<path d="M0 0 C1.32 0.33 2.64 0.66 4 1 C3.67 1.99 3.34 2.98 3 4 C4.65 3.67 6.3 3.34 8 3 C8.08226668 6.04386724 7.97608217 8.07175348 7 11 C6.34 11 5.68 11 5 11 C5 9.02 5 7.04 5 5 C4.01 5 3.02 5 2 5 C2 3.68 2 2.36 2 1 C1.34 0.67 0.68 0.34 0 0 Z " fill="#9BD7EA" transform="translate(57,14)"/>
<path d="M0 0 C1.32 0 2.64 0 4 0 C4 2.97 4 5.94 4 9 C3.34 9 2.68 9 2 9 C2 7.68 2 6.36 2 5 C1.34 5 0.68 5 0 5 C0 3.35 0 1.7 0 0 Z " fill="#8190A9" transform="translate(78,84)"/>
<path d="M0 0 C0.66 0.33 1.32 0.66 2 1 C2.4140625 3.50390625 2.4140625 3.50390625 2.625 6.5625 C2.69976562 7.57441406 2.77453125 8.58632813 2.8515625 9.62890625 C2.92503906 10.80259766 2.92503906 10.80259766 3 12 C2.01 12.33 1.02 12.66 0 13 C-1.36421031 10.27157939 -0.87807211 8.39046682 -0.5625 5.375 C-0.40974609 3.87066406 -0.40974609 3.87066406 -0.25390625 2.3359375 C-0.17011719 1.56507812 -0.08632812 0.79421875 0 0 Z " fill="#7DC0D7" transform="translate(106,39)"/>
<path d="M0 0 C1.65 0 3.3 0 5 0 C4.75 2.375 4.75 2.375 4 5 C1.9375 6.3125 1.9375 6.3125 0 7 C0 4.69 0 2.38 0 0 Z " fill="#D8E1EE" transform="translate(51,19)"/>
<path d="M0 0 C1.10844919 3.32534757 0.84454356 5.62182575 0 9 C-1.65 9.33 -3.3 9.66 -5 10 C-5 9.01 -5 8.02 -5 7 C-4.34 7 -3.68 7 -3 7 C-2.690625 6.030625 -2.38125 5.06125 -2.0625 4.0625 C-1 1 -1 1 0 0 Z " fill="#87CADD" transform="translate(42,13)"/>
<path d="M0 0 C0.66 0 1.32 0 2 0 C2 0.66 2 1.32 2 2 C3.32 2.33 4.64 2.66 6 3 C6 4.32 6 5.64 6 7 C4.68 7 3.36 7 2 7 C0.5393715 4.35261084 0 3.10551666 0 0 Z " fill="#B6C1DC" transform="translate(76,90)"/>
<path d="M0 0 C1.32 0 2.64 0 4 0 C4.33 1.65 4.66 3.3 5 5 C3.68 5 2.36 5 1 5 C1 5.66 1 6.32 1 7 C0.34 7 -0.32 7 -1 7 C-1.04254356 5.00045254 -1.04080783 2.99958364 -1 1 C-0.67 0.67 -0.34 0.34 0 0 Z " fill="#A9E2F5" transform="translate(11,36)"/>
<path d="M0 0 C0.33 0.66 0.66 1.32 1 2 C2.32 2 3.64 2 5 2 C5 2.66 5 3.32 5 4 C5.66 4.33 6.32 4.66 7 5 C5.824375 5.2165625 5.824375 5.2165625 4.625 5.4375 C2.03578982 5.87798925 2.03578982 5.87798925 0 7 C-0.38133299 5.0085944 -0.71325582 3.00720923 -1 1 C-0.67 0.67 -0.34 0.34 0 0 Z " fill="#A3D9E9" transform="translate(69,93)"/>
<path d="M0 0 C1.32 0.33 2.64 0.66 4 1 C4 2.65 4 4.3 4 6 C3.01 6.495 3.01 6.495 2 7 C1.34 8.32 0.68 9.64 0 11 C0 7.37 0 3.74 0 0 Z " fill="#35506E" transform="translate(31,63)"/>
<path d="M0 0 C2.875 0.25 2.875 0.25 6 1 C7.4375 2.9375 7.4375 2.9375 8 5 C7.67 5.66 7.34 6.32 7 7 C5 7 5 7 2.375 4.625 C0 2 0 2 0 0 Z " fill="#B6DDE6" transform="translate(5,57)"/>
<path d="M0 0 C0.66 0 1.32 0 2 0 C2 2.31 2 4.62 2 7 C2.66 7.33 3.32 7.66 4 8 C3.67 8.66 3.34 9.32 3 10 C3.66 10.33 4.32 10.66 5 11 C4.01 11 3.02 11 2 11 C2 10.34 2 9.68 2 9 C1.34 9 0.68 9 0 9 C0 6.03 0 3.06 0 0 Z " fill="#CBD4E1" transform="translate(61,35)"/>
<path d="M0 0 C0 2.31 0 4.62 0 7 C-1.32 7 -2.64 7 -4 7 C-4 5.02 -4 3.04 -4 1 C-1 0 -1 0 0 0 Z " fill="#AFBED6" transform="translate(51,26)"/>
<path d="M0 0 C1.485 0.99 1.485 0.99 3 2 C3 2.66 3 3.32 3 4 C3.99 4 4.98 4 6 4 C6 4.66 6 5.32 6 6 C6.66 6.33 7.32 6.66 8 7 C5.36 6.67 2.72 6.34 0 6 C0 4.02 0 2.04 0 0 Z " fill="#516C92" transform="translate(14,46)"/>
<path d="M0 0 C0.66666667 2.66666667 1.33333333 5.33333333 2 8 C1.01 8 0.02 8 -1 8 C-1 7.34 -1 6.68 -1 6 C-1.66 6 -2.32 6 -3 6 C-3 4.35 -3 2.7 -3 1 C-2.01 0.67 -1.02 0.34 0 0 Z " fill="#325975" transform="translate(13,42)"/>
<path d="M0 0 C0.33 1.65 0.66 3.3 1 5 C0.01 5.33 -0.98 5.66 -2 6 C-3.32 4.35 -4.64 2.7 -6 1 C-3.92446352 0.4465236 -2.15634036 0 0 0 Z " fill="#8FC8DB" transform="translate(17,61)"/>
<path d="M0 0 C3.96 1.98 3.96 1.98 8 4 C8 4.99 8 5.98 8 7 C5.525 6.01 5.525 6.01 3 5 C3 4.34 3 3.68 3 3 C2.01 2.67 1.02 2.34 0 2 C0 1.34 0 0.68 0 0 Z " fill="#9EAACA" transform="translate(23,53)"/>
<path d="M0 0 C0.99 0 1.98 0 3 0 C3 0.66 3 1.32 3 2 C4.32 2.33 5.64 2.66 7 3 C6.01 3 5.02 3 4 3 C4 3.66 4 4.32 4 5 C1.03 4.505 1.03 4.505 -2 4 C-2 3.34 -2 2.68 -2 2 C-1.34 2 -0.68 2 0 2 C0 1.34 0 0.68 0 0 Z " fill="#6A82A4" transform="translate(44,84)"/>
<path d="M0 0 C0.99 0 1.98 0 3 0 C4.2077558 3.62326739 3.54311128 4.64146369 2 8 C1.34 8 0.68 8 0 8 C0 5.36 0 2.72 0 0 Z " fill="#C2CFDF" transform="translate(70,61)"/>
<path d="M0 0 C0.99 0 1.98 0 3 0 C3 1.98 3 3.96 3 6 C1.68 5.67 0.36 5.34 -1 5 C-0.67 3.35 -0.34 1.7 0 0 Z " fill="#C8CEE0" transform="translate(81,51)"/>
<path d="M0 0 C1.65 0 3.3 0 5 0 C5 1.32 5 2.64 5 4 C5.66 4 6.32 4 7 4 C7 4.66 7 5.32 7 6 C4 6 4 6 1.8125 4.125 C0 2 0 2 0 0 Z " fill="#9FAACC" transform="translate(13,44)"/>
<path d="M0 0 C0.66 0 1.32 0 2 0 C2 1.98 2 3.96 2 6 C2.66 6 3.32 6 4 6 C4 6.66 4 7.32 4 8 C2.68 8 1.36 8 0 8 C0 5.36 0 2.72 0 0 Z " fill="#9BA6C3" transform="translate(27,89)"/>
<path d="M0 0 C0.66 0.33 1.32 0.66 2 1 C2 2.32 2 3.64 2 5 C0.02 5.66 -1.96 6.32 -4 7 C-4.33 6.34 -4.66 5.68 -5 5 C-4.01 5 -3.02 5 -2 5 C-1.34 3.35 -0.68 1.7 0 0 Z " fill="#D3D7E4" transform="translate(40,81)"/>
<path d="M0 0 C0.66 0 1.32 0 2 0 C2 2.64 2 5.28 2 8 C1.01 8 0.02 8 -1 8 C-0.67 5.36 -0.34 2.72 0 0 Z " fill="#7FC3DB" transform="translate(89,76)"/>
<path d="M0 0 C0.66 0 1.32 0 2 0 C2 0.66 2 1.32 2 2 C4.475 2.99 4.475 2.99 7 4 C6.67 4.66 6.34 5.32 6 6 C3.03 5.505 3.03 5.505 0 5 C0 3.35 0 1.7 0 0 Z " fill="#D7DBEB" transform="translate(61,76)"/>
<path d="M0 0 C0.66 0 1.32 0 2 0 C2 2.64 2 5.28 2 8 C0.68 8 -0.64 8 -2 8 C-2 7.34 -2 6.68 -2 6 C-1.34 6 -0.68 6 0 6 C0 4.02 0 2.04 0 0 Z " fill="#30516B" transform="translate(43,33)"/>
<path d="M0 0 C2.33944736 0.28730055 4.6739143 0.61936779 7 1 C5.68 2.32 4.36 3.64 3 5 C3 4.34 3 3.68 3 3 C1.68 2.34 0.36 1.68 -1 1 C-0.67 0.67 -0.34 0.34 0 0 Z " fill="#95C6D8" transform="translate(65,101)"/>
<path d="M0 0 C0.99 0 1.98 0 3 0 C3 0.66 3 1.32 3 2 C3.66 2 4.32 2 5 2 C5.66 3.65 6.32 5.3 7 7 C2.125 5.25 2.125 5.25 1 3 C1.33 2.34 1.66 1.68 2 1 C1.34 0.67 0.68 0.34 0 0 Z " fill="#CCD3E1" transform="translate(67,82)"/>
<path d="M0 0 C1.32 0 2.64 0 4 0 C4 0.66 4 1.32 4 2 C4.66 2.33 5.32 2.66 6 3 C3.50935112 3.68707555 1.62113708 4 -1 4 C-1.33 3.34 -1.66 2.68 -2 2 C-1.34 2 -0.68 2 0 2 C0 1.34 0 0.68 0 0 Z " fill="#8BC2D7" transform="translate(53,82)"/>
<path d="M0 0 C2.46800047 1.15173355 4.04783565 2.04783565 6 4 C5.34 5.32 4.68 6.64 4 8 C4 7.34 4 6.68 4 6 C3.34 6 2.68 6 2 6 C2 5.01 2 4.02 2 3 C1.34 3 0.68 3 0 3 C0 2.01 0 1.02 0 0 Z " fill="#4C6B8A" transform="translate(57,81)"/>
<path d="M0 0 C2.125 0.9375 2.125 0.9375 4 2 C3.34 2 2.68 2 2 2 C2 2.66 2 3.32 2 4 C1.34 4 0.68 4 0 4 C0 4.66 0 5.32 0 6 C-0.66 6 -1.32 6 -2 6 C-2 4.35 -2 2.7 -2 1 C-1.34 0.67 -0.68 0.34 0 0 Z " fill="#436284" transform="translate(76,63)"/>
<path d="M0 0 C0 0.99 0 1.98 0 3 C-0.66 3 -1.32 3 -2 3 C-2 3.66 -2 4.32 -2 5 C-2.66 5 -3.32 5 -4 5 C-4 5.66 -4 6.32 -4 7 C-4.66 6.67 -5.32 6.34 -6 6 C-3.84615385 0 -3.84615385 0 0 0 Z " fill="#84C1D2" transform="translate(98,60)"/>
<path d="M0 0 C0.99 0 1.98 0 3 0 C3 1.32 3 2.64 3 4 C2.34 4 1.68 4 1 4 C1 6.31 1 8.62 1 11 C0.67 11 0.34 11 0 11 C0 7.37 0 3.74 0 0 Z " fill="#436485" transform="translate(50,15)"/>
<path d="M0 0 C0.66 0.99 1.32 1.98 2 3 C1.01 3.495 1.01 3.495 0 4 C-0.33 4.66 -0.66 5.32 -1 6 C-2.65 6 -4.3 6 -6 6 C-6 5.34 -6 4.68 -6 4 C-3 2 -3 2 0 2 C0 1.34 0 0.68 0 0 Z " fill="#8CCADD" transform="translate(51,93)"/>
<path d="M0 0 C1.67542976 0.28604898 3.34385343 0.61781233 5 1 C5 1.66 5 2.32 5 3 C4.01 3 3.02 3 2 3 C2 3.66 2 4.32 2 5 C1.34 5 0.68 5 0 5 C-0.5625 3.0625 -0.5625 3.0625 -1 1 C-0.67 0.67 -0.34 0.34 0 0 Z " fill="#BCC3DC" transform="translate(42,81)"/>
<path d="M0 0 C0 1.65 0 3.3 0 5 C-1.32 5 -2.64 5 -4 5 C-4 3.68 -4 2.36 -4 1 C-2 0 -2 0 0 0 Z " fill="#2E5374" transform="translate(100,43)"/>
<path d="M0 0 C0 0.99 0 1.98 0 3 C-1.98 3.33 -3.96 3.66 -6 4 C-5.67 3.01 -5.34 2.02 -5 1 C-3 0 -3 0 0 0 Z " fill="#84C2D4" transform="translate(9,35)"/>
<path d="M0 0 C0.66 1.32 1.32 2.64 2 4 C1.34 4 0.68 4 0 4 C0 4.66 0 5.32 0 6 C-0.66 6 -1.32 6 -2 6 C-2 5.34 -2 4.68 -2 4 C-2.66 3.67 -3.32 3.34 -4 3 C-3.34 3 -2.68 3 -2 3 C-2 2.34 -2 1.68 -2 1 C-1.34 0.67 -0.68 0.34 0 0 Z " fill="#81BCCD" transform="translate(47,4)"/>
<path d="M0 0 C0.99 0.33 1.98 0.66 3 1 C2.01 1.495 2.01 1.495 1 2 C1 2.66 1 3.32 1 4 C-0.65 4.33 -2.3 4.66 -4 5 C-3 2 -3 2 0 0 Z " fill="#315275" transform="translate(81,59)"/>
<path d="M0 0 C-3.75 3 -3.75 3 -6 3 C-6 3.66 -6 4.32 -6 5 C-6.66 4.67 -7.32 4.34 -8 4 C-5.97675095 -0.48005146 -4.79569304 -1.43870791 0 0 Z " fill="#8B9BB9" transform="translate(84,58)"/>
<path d="M0 0 C2.475 0.495 2.475 0.495 5 1 C4.01 1.495 4.01 1.495 3 2 C2.34786708 4.02463255 2.34786708 4.02463255 2 6 C1.34 6 0.68 6 0 6 C0 4.02 0 2.04 0 0 Z " fill="#9EABC7" transform="translate(84,51)"/>
</svg>
